G04 (created by PCBNEW (2013-07-07 BZR 4022)-stable) date 26/08/2013 5:31:51 PM*
%MOIN*%
G04 Gerber Fmt 3.4, Leading zero omitted, Abs format*
%FSLAX34Y34*%
G01*
G70*
G90*
G04 APERTURE LIST*
%ADD10C,0.00590551*%
%ADD11O,0.06X0.1*%
%ADD12C,0.155*%
%ADD13C,0.06*%
%ADD14R,0.06X0.08*%
%ADD15C,0.12*%
%ADD16R,0.06X0.06*%
%ADD17R,0.025X0.045*%
%ADD18R,0.08X0.06*%
%ADD19R,0.0709X0.0629*%
%ADD20C,0.1378*%
%ADD21R,0.07X0.07*%
%ADD22C,0.1181*%
%ADD23C,0.0944882*%
%ADD24C,0.0984252*%
%ADD25R,0.02X0.045*%
%ADD26C,0.11811*%
%ADD27R,0.1X0.1*%
%ADD28C,0.16*%
%ADD29R,0.045X0.025*%
%ADD30R,0.0315X0.0394*%
%ADD31R,0.0394X0.0315*%
%ADD32C,0.035*%
%ADD33C,0.023622*%
%ADD34C,0.01*%
G04 APERTURE END LIST*
G54D10*
G54D11*
X17250Y-8900D03*
X18250Y-8900D03*
X20850Y-27900D03*
X21850Y-27900D03*
X36850Y-8900D03*
X37850Y-8900D03*
X38850Y-8900D03*
X39850Y-8900D03*
X40850Y-8900D03*
X41850Y-8900D03*
X42850Y-8900D03*
X43850Y-8900D03*
X45850Y-27900D03*
X44850Y-27900D03*
X43850Y-27900D03*
X42850Y-27900D03*
X38850Y-27900D03*
X36850Y-27900D03*
X35850Y-27900D03*
X39850Y-27900D03*
X40850Y-27900D03*
X41850Y-27900D03*
X34850Y-27900D03*
X33850Y-27900D03*
X32850Y-27900D03*
X29850Y-27900D03*
X30850Y-27900D03*
X31850Y-27900D03*
X27850Y-27900D03*
X26850Y-27900D03*
X25850Y-27900D03*
X23850Y-27900D03*
X22850Y-27900D03*
X34850Y-8900D03*
X33850Y-8900D03*
X32850Y-8900D03*
X31850Y-8900D03*
X30850Y-8900D03*
X29850Y-8900D03*
X28850Y-8900D03*
X27850Y-8900D03*
X26250Y-8900D03*
X25250Y-8900D03*
X24250Y-8900D03*
X23250Y-8900D03*
X22250Y-8900D03*
X21250Y-8900D03*
X20250Y-8900D03*
X19250Y-8900D03*
X24850Y-27900D03*
G54D12*
X47850Y-27900D03*
X45350Y-8900D03*
G54D13*
X46850Y-9900D03*
X47850Y-9900D03*
X46850Y-10900D03*
X47850Y-10900D03*
X46850Y-11900D03*
X47850Y-11900D03*
X46850Y-12900D03*
X47850Y-12900D03*
X46850Y-8900D03*
X47850Y-8900D03*
X47850Y-13900D03*
X46850Y-13900D03*
X46850Y-14900D03*
X47850Y-14900D03*
X46850Y-15900D03*
X47850Y-15900D03*
X46850Y-16900D03*
X47850Y-16900D03*
X46850Y-17900D03*
X47850Y-17900D03*
X46850Y-18900D03*
X47850Y-18900D03*
X46850Y-19900D03*
X47850Y-19900D03*
X46850Y-20900D03*
X47850Y-20900D03*
X46850Y-21900D03*
X47850Y-21900D03*
X46850Y-22900D03*
X47850Y-22900D03*
X46850Y-23900D03*
X47850Y-23900D03*
X46850Y-24900D03*
X47850Y-24900D03*
X46850Y-25900D03*
X47850Y-25900D03*
G54D14*
X40752Y-24085D03*
X42052Y-24085D03*
X40752Y-22885D03*
X42052Y-22885D03*
X40752Y-20222D03*
X42052Y-20222D03*
X40752Y-21372D03*
X42052Y-21372D03*
G54D15*
X31150Y-32350D03*
X39750Y-32350D03*
G54D16*
X37450Y-31650D03*
G54D13*
X37450Y-32650D03*
X36450Y-31650D03*
X36450Y-32650D03*
X35450Y-31650D03*
X35450Y-32650D03*
X34450Y-31650D03*
X34450Y-32650D03*
X33450Y-31650D03*
X33450Y-32650D03*
G54D17*
X27455Y-21614D03*
X28055Y-21614D03*
G54D18*
X24200Y-11500D03*
X24200Y-12800D03*
G54D14*
X25050Y-23650D03*
X23750Y-23650D03*
X23750Y-22650D03*
X25050Y-22650D03*
G54D18*
X25200Y-11500D03*
X25200Y-12800D03*
G54D14*
X23750Y-25650D03*
X25050Y-25650D03*
X23750Y-24650D03*
X25050Y-24650D03*
G54D18*
X26200Y-11500D03*
X26200Y-12800D03*
G54D14*
X23750Y-20400D03*
X25050Y-20400D03*
G54D18*
X37700Y-15750D03*
X37700Y-17050D03*
G54D14*
X23750Y-18400D03*
X25050Y-18400D03*
G54D18*
X22200Y-11500D03*
X22200Y-12800D03*
G54D14*
X23750Y-16150D03*
X25050Y-16150D03*
G54D18*
X17975Y-29475D03*
X17975Y-30775D03*
G54D19*
X37700Y-18091D03*
X37700Y-19209D03*
G54D14*
X17050Y-27150D03*
X18350Y-27150D03*
G54D17*
X30000Y-15900D03*
X29400Y-15900D03*
G54D20*
X12700Y-31600D03*
X12700Y-35600D03*
G54D13*
X14700Y-34600D03*
X14700Y-33600D03*
G54D20*
X12700Y-25200D03*
X12700Y-29200D03*
G54D13*
X14700Y-28200D03*
X14700Y-27200D03*
G54D19*
X36200Y-18091D03*
X36200Y-19209D03*
G54D21*
X28260Y-12318D03*
X29913Y-12318D03*
X31567Y-12318D03*
X33220Y-12318D03*
X34874Y-12318D03*
X36526Y-12318D03*
X38180Y-12318D03*
X39833Y-12318D03*
X41487Y-12318D03*
X43140Y-12318D03*
X28260Y-14482D03*
X29913Y-14482D03*
X31567Y-14482D03*
X33220Y-14482D03*
X34874Y-14482D03*
X36526Y-14482D03*
X38180Y-14482D03*
X39833Y-14482D03*
X41487Y-14482D03*
X43140Y-14482D03*
G54D22*
X26409Y-14306D03*
X44991Y-14306D03*
G54D23*
X18450Y-33800D03*
G54D24*
X17450Y-32800D03*
X19450Y-32800D03*
X19450Y-34800D03*
X17450Y-34800D03*
G54D18*
X36200Y-15750D03*
X36200Y-17050D03*
G54D25*
X26150Y-21000D03*
X26650Y-21000D03*
X27150Y-21000D03*
X27650Y-21000D03*
X28150Y-21000D03*
X28650Y-21000D03*
X29150Y-21000D03*
X29150Y-18900D03*
X28650Y-18900D03*
X28150Y-18900D03*
X27650Y-18900D03*
X27150Y-18900D03*
X26650Y-18900D03*
X26150Y-18900D03*
G54D18*
X19650Y-14150D03*
X19650Y-15150D03*
X19650Y-16150D03*
X19650Y-17150D03*
X22650Y-17150D03*
X22650Y-16150D03*
X22650Y-15150D03*
X22650Y-14150D03*
X19650Y-18400D03*
X19650Y-19400D03*
X19650Y-20400D03*
X19650Y-21400D03*
X22650Y-21400D03*
X22650Y-20400D03*
X22650Y-19400D03*
X22650Y-18400D03*
X19650Y-22650D03*
X19650Y-23650D03*
X19650Y-24650D03*
X19650Y-25650D03*
X22650Y-25650D03*
X22650Y-24650D03*
X22650Y-23650D03*
X22650Y-22650D03*
X23200Y-11500D03*
X23200Y-12800D03*
G54D14*
X30350Y-17900D03*
X29050Y-17900D03*
X29050Y-16900D03*
X30350Y-16900D03*
X25050Y-21400D03*
X23750Y-21400D03*
G54D18*
X21200Y-11500D03*
X21200Y-12800D03*
G54D14*
X23750Y-14150D03*
X25050Y-14150D03*
G54D18*
X19950Y-28550D03*
X19950Y-27250D03*
G54D14*
X27224Y-22637D03*
X25924Y-22637D03*
G54D18*
X26650Y-17800D03*
X26650Y-16500D03*
G54D16*
X32950Y-25625D03*
G54D13*
X33950Y-25625D03*
X34950Y-25625D03*
G54D14*
X44862Y-18897D03*
X43562Y-18897D03*
X41397Y-18897D03*
X42697Y-18897D03*
G54D18*
X39094Y-19941D03*
X39094Y-18641D03*
G54D25*
X41846Y-17792D03*
X42346Y-17792D03*
X42846Y-17792D03*
X43346Y-17792D03*
X43846Y-17792D03*
X44346Y-17792D03*
X44846Y-17792D03*
X44846Y-15692D03*
X44346Y-15692D03*
X43846Y-15692D03*
X43346Y-15692D03*
X42846Y-15692D03*
X42346Y-15692D03*
X41846Y-15692D03*
X32003Y-21414D03*
X32503Y-21414D03*
X33003Y-21414D03*
X33503Y-21414D03*
X34003Y-21414D03*
X34503Y-21414D03*
X35003Y-21414D03*
X35003Y-19314D03*
X34503Y-19314D03*
X34003Y-19314D03*
X33503Y-19314D03*
X33003Y-19314D03*
X32503Y-19314D03*
X32003Y-19314D03*
G54D26*
X22970Y-34856D03*
G54D27*
X22970Y-29818D03*
X24624Y-29818D03*
X26276Y-29818D03*
X27930Y-29818D03*
X22970Y-31982D03*
X24624Y-31982D03*
X26276Y-31982D03*
X27930Y-31982D03*
G54D26*
X27930Y-34856D03*
X11043Y-10320D03*
G54D27*
X16082Y-10320D03*
X16082Y-11974D03*
X16082Y-13626D03*
X16082Y-15280D03*
X13918Y-10320D03*
X13918Y-11974D03*
X13918Y-13626D03*
X13918Y-15280D03*
G54D26*
X11043Y-15280D03*
X11043Y-17820D03*
G54D27*
X16082Y-17820D03*
X16082Y-19474D03*
X16082Y-21126D03*
X16082Y-22780D03*
X13918Y-17820D03*
X13918Y-19474D03*
X13918Y-21126D03*
X13918Y-22780D03*
G54D26*
X11043Y-22780D03*
G54D16*
X32937Y-23346D03*
G54D13*
X33937Y-23346D03*
X34937Y-23346D03*
G54D28*
X19530Y-30500D03*
X19520Y-11350D03*
G54D14*
X36220Y-10250D03*
X34920Y-10250D03*
G54D17*
X33010Y-18650D03*
X33610Y-18650D03*
G54D29*
X40990Y-15700D03*
X40990Y-16300D03*
G54D30*
X43630Y-23127D03*
X44005Y-23993D03*
X43255Y-23993D03*
X44370Y-20457D03*
X44745Y-21323D03*
X43995Y-21323D03*
G54D31*
X40283Y-16780D03*
X39417Y-17155D03*
X39417Y-16405D03*
G54D32*
X30460Y-27040D03*
X37047Y-26052D03*
X35787Y-24527D03*
X38031Y-27204D03*
X36250Y-29300D03*
X29875Y-25700D03*
X35196Y-15787D03*
X40920Y-10850D03*
X37380Y-20050D03*
X38550Y-16870D03*
X32030Y-19940D03*
X32040Y-22230D03*
X25700Y-25670D03*
X29575Y-26200D03*
X37770Y-20700D03*
X25400Y-19400D03*
X27450Y-26100D03*
X30850Y-26200D03*
X38680Y-16110D03*
X40500Y-16110D03*
X45470Y-26780D03*
X27650Y-18290D03*
X26640Y-19550D03*
X29535Y-22445D03*
X31680Y-26120D03*
X32340Y-27150D03*
X29980Y-23580D03*
X30700Y-24280D03*
X28300Y-22130D03*
X32550Y-24370D03*
X31580Y-24710D03*
X36920Y-19209D03*
X35010Y-19940D03*
X44860Y-19730D03*
X44680Y-17270D03*
X36200Y-21430D03*
X33500Y-10650D03*
X26350Y-27170D03*
X25790Y-24660D03*
X28390Y-23490D03*
X28740Y-22540D03*
X20500Y-22650D03*
X25200Y-13450D03*
X20500Y-24650D03*
X25700Y-13550D03*
X20400Y-20350D03*
X24200Y-13450D03*
X24400Y-23700D03*
X25800Y-23700D03*
X24650Y-17150D03*
X25450Y-17100D03*
X40272Y-17507D03*
X39920Y-18650D03*
X34150Y-16470D03*
X33490Y-19880D03*
X43307Y-15196D03*
X43960Y-22670D03*
X45400Y-16620D03*
X44000Y-17060D03*
X43152Y-21360D03*
X41850Y-17190D03*
X43150Y-22530D03*
X31100Y-17900D03*
X31100Y-20690D03*
G54D33*
X36440Y-26660D02*
X37047Y-26052D01*
X30840Y-26660D02*
X36440Y-26660D01*
X30460Y-27040D02*
X30840Y-26660D01*
X37047Y-26052D02*
X37018Y-26052D01*
X16082Y-21126D02*
X15761Y-21126D01*
X15075Y-14633D02*
X16082Y-13626D01*
X15075Y-20440D02*
X15075Y-14633D01*
X15761Y-21126D02*
X15075Y-20440D01*
X43255Y-23993D02*
X43255Y-24195D01*
X42520Y-24930D02*
X40306Y-24930D01*
X43255Y-24195D02*
X42520Y-24930D01*
X43995Y-21323D02*
X43995Y-21403D01*
X43321Y-22076D02*
X41420Y-22076D01*
X43995Y-21403D02*
X43321Y-22076D01*
X40133Y-25103D02*
X40130Y-25100D01*
X41420Y-22076D02*
X41420Y-23417D01*
X41420Y-23417D02*
X40752Y-24085D01*
X41106Y-22076D02*
X41420Y-22076D01*
X40752Y-21722D02*
X40752Y-21372D01*
X40752Y-21722D02*
X41106Y-22076D01*
X40752Y-24085D02*
X40752Y-24432D01*
X33937Y-23346D02*
X33937Y-23661D01*
X34803Y-24527D02*
X35787Y-24527D01*
X33937Y-23661D02*
X34803Y-24527D01*
X40752Y-24483D02*
X40752Y-24085D01*
X38031Y-27204D02*
X40133Y-25103D01*
X40133Y-25103D02*
X40306Y-24930D01*
X40306Y-24930D02*
X40752Y-24483D01*
X27194Y-28900D02*
X26276Y-29818D01*
X28605Y-28900D02*
X27194Y-28900D01*
X29305Y-29600D02*
X28605Y-28900D01*
X35950Y-29600D02*
X29305Y-29600D01*
X36250Y-29300D02*
X35950Y-29600D01*
X28260Y-12318D02*
X28260Y-14482D01*
G54D34*
X23900Y-27475D02*
X24825Y-26550D01*
X24825Y-26550D02*
X28375Y-26550D01*
X28375Y-26550D02*
X29225Y-25700D01*
X29225Y-25700D02*
X29875Y-25700D01*
X23900Y-27900D02*
X23900Y-27475D01*
X33503Y-21771D02*
X33503Y-21414D01*
X32950Y-23350D02*
X32950Y-22325D01*
X32950Y-22325D02*
X33503Y-21771D01*
G54D33*
X16082Y-19474D02*
X16276Y-19474D01*
X13860Y-34902D02*
X13856Y-34906D01*
X13860Y-26727D02*
X13860Y-34902D01*
X17312Y-23275D02*
X13860Y-26727D01*
X17312Y-20510D02*
X17312Y-23275D01*
X16276Y-19474D02*
X17312Y-20510D01*
X16082Y-11974D02*
X16744Y-11974D01*
X17070Y-18486D02*
X16082Y-19474D01*
X17070Y-12300D02*
X17070Y-18486D01*
X16744Y-11974D02*
X17070Y-12300D01*
X40752Y-20222D02*
X40257Y-20222D01*
X39500Y-20980D02*
X39500Y-22885D01*
X40257Y-20222D02*
X39500Y-20980D01*
X24624Y-29818D02*
X24624Y-30026D01*
X22450Y-30900D02*
X21200Y-32150D01*
X21200Y-32150D02*
X21200Y-34450D01*
X21200Y-34450D02*
X19800Y-35850D01*
X19800Y-35850D02*
X14800Y-35850D01*
X13856Y-34906D02*
X14800Y-35850D01*
X23750Y-30900D02*
X22450Y-30900D01*
X24624Y-30026D02*
X23750Y-30900D01*
X37516Y-28933D02*
X37516Y-25193D01*
X37516Y-25193D02*
X37330Y-25007D01*
X32362Y-30275D02*
X36175Y-30275D01*
X37519Y-28930D02*
X37516Y-28933D01*
X37516Y-28933D02*
X36175Y-30275D01*
X33950Y-25625D02*
X33950Y-25577D01*
X34520Y-25007D02*
X37330Y-25007D01*
X33950Y-25577D02*
X34520Y-25007D01*
X40752Y-22885D02*
X39500Y-22885D01*
X39500Y-22885D02*
X39452Y-22885D01*
X39452Y-22885D02*
X37330Y-25007D01*
X37330Y-25000D02*
X37330Y-25007D01*
X40752Y-20222D02*
X40902Y-20222D01*
X32362Y-30275D02*
X32362Y-32795D01*
X36753Y-33346D02*
X37450Y-32650D01*
X32913Y-33346D02*
X36753Y-33346D01*
X32362Y-32795D02*
X32913Y-33346D01*
X33950Y-25625D02*
X33950Y-25600D01*
X25756Y-30950D02*
X24624Y-29818D01*
X28675Y-30950D02*
X25756Y-30950D01*
X29350Y-30275D02*
X28675Y-30950D01*
X32362Y-30275D02*
X29350Y-30275D01*
X35234Y-15750D02*
X36200Y-15750D01*
X35196Y-15787D02*
X35234Y-15750D01*
X36200Y-15750D02*
X36200Y-15500D01*
X35700Y-13144D02*
X36526Y-12318D01*
X35700Y-15000D02*
X35700Y-13144D01*
X36200Y-15500D02*
X35700Y-15000D01*
X36526Y-12318D02*
X36526Y-12074D01*
X43950Y-13672D02*
X43140Y-14482D01*
X43950Y-11650D02*
X43950Y-13672D01*
X43700Y-11400D02*
X43950Y-11650D01*
X37200Y-11400D02*
X43700Y-11400D01*
X36526Y-12074D02*
X37200Y-11400D01*
X43140Y-14482D02*
X41487Y-14482D01*
X33220Y-12318D02*
X33220Y-12130D01*
X35358Y-11150D02*
X36526Y-12318D01*
X34200Y-11150D02*
X35358Y-11150D01*
X33220Y-12130D02*
X34200Y-11150D01*
G54D34*
X36220Y-10250D02*
X40320Y-10250D01*
X40320Y-10250D02*
X40920Y-10850D01*
X33010Y-18650D02*
X32380Y-18650D01*
X32380Y-18650D02*
X32400Y-18630D01*
X32810Y-18220D02*
X34650Y-18220D01*
X32003Y-19026D02*
X32003Y-19314D01*
X35910Y-20050D02*
X37380Y-20050D01*
X35480Y-19620D02*
X35910Y-20050D01*
X35480Y-19050D02*
X35480Y-19620D01*
X34650Y-18220D02*
X35480Y-19050D01*
X32003Y-19026D02*
X32400Y-18630D01*
X32400Y-18630D02*
X32810Y-18220D01*
X38545Y-16865D02*
X38535Y-16865D01*
X38550Y-16870D02*
X38545Y-16865D01*
X39870Y-16050D02*
X39870Y-17310D01*
X39870Y-17310D02*
X39650Y-17530D01*
X39650Y-17530D02*
X39200Y-17530D01*
X39200Y-17530D02*
X38535Y-16865D01*
X40990Y-15700D02*
X40220Y-15700D01*
X40220Y-15700D02*
X39870Y-16050D01*
X37700Y-16030D02*
X37700Y-15750D01*
X38535Y-16865D02*
X37700Y-16030D01*
X40988Y-15692D02*
X41846Y-15692D01*
X40985Y-15695D02*
X40988Y-15692D01*
X38528Y-19941D02*
X39094Y-19941D01*
X37770Y-20700D02*
X38528Y-19941D01*
X32040Y-22230D02*
X32040Y-22863D01*
X32040Y-22863D02*
X32003Y-22900D01*
X32003Y-19314D02*
X32003Y-19913D01*
X32003Y-19913D02*
X32030Y-19940D01*
X32003Y-22193D02*
X32003Y-21414D01*
X32040Y-22230D02*
X32003Y-22193D01*
X27455Y-21614D02*
X27455Y-21775D01*
X27455Y-21775D02*
X28580Y-22900D01*
X28580Y-22900D02*
X32003Y-22900D01*
X27455Y-21614D02*
X27455Y-21665D01*
X25050Y-25650D02*
X25680Y-25650D01*
X25680Y-25650D02*
X25700Y-25670D01*
X32003Y-22900D02*
X32003Y-24678D01*
X32003Y-24678D02*
X32950Y-25625D01*
X29300Y-26200D02*
X29575Y-26200D01*
X28710Y-26790D02*
X29300Y-26200D01*
X25785Y-26790D02*
X28710Y-26790D01*
X27455Y-21614D02*
X27455Y-21194D01*
X27455Y-21194D02*
X27650Y-21000D01*
X39094Y-19941D02*
X39428Y-19941D01*
X40472Y-18897D02*
X41397Y-18897D01*
X39428Y-19941D02*
X40472Y-18897D01*
X37757Y-15692D02*
X37700Y-15750D01*
X24900Y-27900D02*
X24900Y-27675D01*
X24900Y-27675D02*
X25785Y-26790D01*
X24250Y-11450D02*
X24200Y-11500D01*
X24250Y-8900D02*
X24250Y-11450D01*
X23250Y-11450D02*
X23200Y-11500D01*
X23250Y-8900D02*
X23250Y-11450D01*
X22250Y-11450D02*
X22200Y-11500D01*
X22250Y-8900D02*
X22250Y-11450D01*
X21250Y-8900D02*
X21250Y-11450D01*
X21250Y-11450D02*
X21200Y-11500D01*
X26250Y-8900D02*
X26250Y-11450D01*
X26250Y-11450D02*
X26200Y-11500D01*
X25250Y-8900D02*
X25250Y-11450D01*
X25250Y-11450D02*
X25200Y-11500D01*
X25400Y-19400D02*
X25050Y-19400D01*
X25050Y-16150D02*
X26300Y-16150D01*
X26300Y-16150D02*
X26650Y-16500D01*
X25050Y-16150D02*
X25050Y-18400D01*
X25050Y-14150D02*
X25050Y-16150D01*
X25050Y-20400D02*
X25050Y-21400D01*
X25050Y-18400D02*
X25050Y-19400D01*
X25050Y-19400D02*
X25050Y-20400D01*
X26150Y-18900D02*
X25550Y-18900D01*
X25550Y-18900D02*
X25050Y-18400D01*
X27450Y-26100D02*
X28125Y-26100D01*
X30850Y-25850D02*
X30850Y-26200D01*
X30314Y-25314D02*
X30850Y-25850D01*
X28910Y-25314D02*
X30314Y-25314D01*
X28125Y-26100D02*
X28910Y-25314D01*
X33610Y-18650D02*
X34610Y-18650D01*
X35003Y-19043D02*
X35003Y-19314D01*
X34610Y-18650D02*
X35003Y-19043D01*
X33610Y-18650D02*
X33610Y-19208D01*
X33610Y-19208D02*
X33503Y-19314D01*
X39417Y-17155D02*
X39417Y-17107D01*
X38680Y-16370D02*
X38680Y-16110D01*
X39417Y-17107D02*
X38680Y-16370D01*
X40990Y-16300D02*
X40690Y-16300D01*
X40690Y-16300D02*
X40500Y-16110D01*
X27650Y-18900D02*
X27650Y-18290D01*
X29535Y-22445D02*
X29530Y-22440D01*
X31580Y-26020D02*
X31680Y-26120D01*
X31580Y-26020D02*
X31580Y-24710D01*
X30700Y-24280D02*
X31150Y-24280D01*
X29980Y-23580D02*
X30680Y-24280D01*
X30680Y-24280D02*
X30700Y-24280D01*
X28055Y-21614D02*
X28055Y-21885D01*
X28055Y-21885D02*
X28300Y-22130D01*
X31150Y-24280D02*
X31580Y-24710D01*
X37700Y-19209D02*
X36920Y-19209D01*
X36920Y-19209D02*
X36200Y-19209D01*
X35003Y-19314D02*
X35003Y-19933D01*
X35003Y-19933D02*
X35010Y-19940D01*
X44862Y-18897D02*
X44862Y-19727D01*
X44862Y-19727D02*
X44860Y-19730D01*
X44846Y-17792D02*
X44846Y-17446D01*
X44680Y-17280D02*
X44680Y-17270D01*
X44846Y-17446D02*
X44680Y-17280D01*
X35003Y-21414D02*
X36184Y-21414D01*
X36184Y-21414D02*
X36200Y-21430D01*
X25050Y-24650D02*
X25780Y-24650D01*
X29070Y-27120D02*
X29850Y-27900D01*
X26400Y-27120D02*
X29070Y-27120D01*
X26350Y-27170D02*
X26400Y-27120D01*
X25780Y-24650D02*
X25790Y-24660D01*
X25050Y-24650D02*
X25050Y-23650D01*
X25050Y-22650D02*
X25912Y-22650D01*
X26150Y-22412D02*
X26150Y-21000D01*
X25912Y-22650D02*
X26150Y-22412D01*
X25050Y-22650D02*
X25050Y-23650D01*
X28150Y-21000D02*
X28150Y-21080D01*
X23900Y-25650D02*
X24550Y-26300D01*
X24550Y-26300D02*
X25580Y-26300D01*
X25580Y-26300D02*
X28390Y-23490D01*
X23900Y-25650D02*
X23750Y-25650D01*
X28740Y-21670D02*
X28740Y-22540D01*
X28150Y-21080D02*
X28740Y-21670D01*
X23750Y-25650D02*
X23750Y-25730D01*
X21850Y-27630D02*
X21850Y-27900D01*
X23750Y-25730D02*
X21850Y-27630D01*
X29493Y-20032D02*
X30647Y-20032D01*
X28650Y-20875D02*
X29493Y-20032D01*
X28650Y-21000D02*
X28650Y-20875D01*
X38110Y-18622D02*
X38582Y-18149D01*
X38582Y-18149D02*
X39606Y-18149D01*
X39606Y-18149D02*
X39685Y-18228D01*
X39685Y-18228D02*
X42027Y-18228D01*
X42027Y-18228D02*
X42697Y-18897D01*
X35372Y-18622D02*
X38110Y-18622D01*
X34720Y-17970D02*
X35372Y-18622D01*
X32710Y-17970D02*
X34720Y-17970D01*
X30647Y-20032D02*
X32710Y-17970D01*
X42697Y-18897D02*
X43562Y-18897D01*
X22650Y-18400D02*
X23750Y-18400D01*
X25200Y-12800D02*
X25200Y-13450D01*
X20500Y-22650D02*
X19650Y-22650D01*
X26200Y-12800D02*
X26200Y-13050D01*
X20500Y-24650D02*
X19650Y-24650D01*
X26200Y-13050D02*
X25700Y-13550D01*
X22650Y-22650D02*
X23750Y-22650D01*
X19950Y-28550D02*
X18900Y-28550D01*
X18900Y-28550D02*
X17975Y-29475D01*
X37700Y-17050D02*
X37700Y-18091D01*
X24200Y-12800D02*
X24200Y-13450D01*
X20350Y-20400D02*
X19650Y-20400D01*
X20400Y-20350D02*
X20350Y-20400D01*
X36200Y-17050D02*
X36200Y-18091D01*
X23200Y-12800D02*
X23200Y-12950D01*
X20600Y-17450D02*
X19650Y-18400D01*
X20600Y-14750D02*
X20600Y-17450D01*
X22000Y-13350D02*
X20600Y-14750D01*
X22800Y-13350D02*
X22000Y-13350D01*
X23200Y-12950D02*
X22800Y-13350D01*
X29050Y-17900D02*
X28800Y-17900D01*
X28150Y-18550D02*
X28150Y-18900D01*
X28800Y-17900D02*
X28150Y-18550D01*
X29050Y-16900D02*
X29050Y-16250D01*
X29050Y-16250D02*
X29400Y-15900D01*
X29050Y-16900D02*
X29050Y-17900D01*
X21200Y-12800D02*
X21000Y-12800D01*
X21000Y-12800D02*
X19650Y-14150D01*
X22200Y-12800D02*
X22200Y-12850D01*
X20300Y-15500D02*
X19650Y-16150D01*
X20300Y-14450D02*
X20300Y-15500D01*
X21400Y-13350D02*
X20300Y-14450D01*
X21700Y-13350D02*
X21400Y-13350D01*
X22200Y-12850D02*
X21700Y-13350D01*
X22650Y-16150D02*
X23750Y-16150D01*
X22650Y-14150D02*
X23750Y-14150D01*
X22650Y-25650D02*
X22250Y-25650D01*
X22250Y-25650D02*
X21950Y-25350D01*
X26650Y-22677D02*
X27185Y-22677D01*
X27185Y-22677D02*
X27224Y-22637D01*
X19950Y-27250D02*
X20050Y-27250D01*
X21950Y-24350D02*
X22650Y-23650D01*
X21950Y-25350D02*
X21950Y-24350D01*
X20050Y-27250D02*
X21950Y-25350D01*
X22650Y-23700D02*
X22650Y-23650D01*
X26650Y-21000D02*
X26650Y-22677D01*
X26650Y-22677D02*
X26650Y-22850D01*
X24350Y-23650D02*
X23750Y-23650D01*
X24400Y-23700D02*
X24350Y-23650D01*
X26650Y-22850D02*
X25800Y-23700D01*
X22650Y-23650D02*
X23750Y-23650D01*
X26650Y-17800D02*
X26150Y-17800D01*
X25450Y-17100D02*
X26150Y-17800D01*
X26650Y-17800D02*
X26650Y-18900D01*
X18350Y-27150D02*
X18650Y-27150D01*
X21500Y-22550D02*
X22650Y-21400D01*
X21500Y-25000D02*
X21500Y-22550D01*
X20250Y-26250D02*
X21500Y-25000D01*
X19550Y-26250D02*
X20250Y-26250D01*
X18650Y-27150D02*
X19550Y-26250D01*
X22650Y-19400D02*
X22250Y-19400D01*
X21850Y-20600D02*
X22650Y-21400D01*
X21850Y-19800D02*
X21850Y-20600D01*
X22250Y-19400D02*
X21850Y-19800D01*
X22650Y-21400D02*
X23750Y-21400D01*
X22650Y-19400D02*
X24100Y-19400D01*
X24100Y-19400D02*
X24400Y-19100D01*
X24400Y-19100D02*
X24400Y-17400D01*
X24400Y-17400D02*
X24650Y-17150D01*
X22650Y-15150D02*
X24150Y-15150D01*
X24150Y-15150D02*
X24400Y-15400D01*
X24400Y-15400D02*
X24400Y-16900D01*
X24400Y-16900D02*
X24650Y-17150D01*
X22650Y-17150D02*
X24650Y-17150D01*
X40283Y-16780D02*
X40283Y-17497D01*
X40283Y-17497D02*
X40272Y-17507D01*
X39911Y-18641D02*
X39920Y-18650D01*
X39094Y-18641D02*
X39911Y-18641D01*
X40681Y-17507D02*
X40272Y-17507D01*
X42346Y-15692D02*
X42346Y-15842D01*
X42346Y-15842D02*
X40681Y-17507D01*
X39094Y-18641D02*
X39094Y-18858D01*
X34003Y-21114D02*
X34003Y-21414D01*
X34409Y-20708D02*
X34003Y-21114D01*
X37244Y-20708D02*
X34409Y-20708D01*
X39094Y-18858D02*
X37244Y-20708D01*
X42346Y-15692D02*
X42346Y-15850D01*
X44346Y-16787D02*
X44346Y-17792D01*
X43937Y-16377D02*
X44346Y-16787D01*
X42874Y-16377D02*
X43937Y-16377D01*
X42346Y-15850D02*
X42874Y-16377D01*
X32503Y-19946D02*
X33423Y-19946D01*
X34150Y-16470D02*
X36530Y-16470D01*
X36530Y-16470D02*
X36990Y-16010D01*
X36990Y-16010D02*
X36990Y-15310D01*
X36990Y-15310D02*
X37160Y-15140D01*
X37160Y-15140D02*
X38513Y-15140D01*
X38513Y-15140D02*
X39421Y-16047D01*
X33423Y-19946D02*
X33490Y-19880D01*
X39421Y-16047D02*
X39421Y-16400D01*
X39421Y-16400D02*
X39417Y-16405D01*
X29150Y-21000D02*
X29150Y-20889D01*
X32503Y-19946D02*
X32503Y-19314D01*
X32140Y-20310D02*
X32503Y-19946D01*
X29729Y-20310D02*
X32140Y-20310D01*
X29150Y-20889D02*
X29729Y-20310D01*
X43846Y-17792D02*
X43846Y-17862D01*
X42846Y-15917D02*
X42846Y-15692D01*
X43070Y-16141D02*
X42846Y-15917D01*
X44015Y-16141D02*
X43070Y-16141D01*
X45157Y-17283D02*
X44015Y-16141D01*
X45157Y-18110D02*
X45157Y-17283D01*
X45078Y-18188D02*
X45157Y-18110D01*
X44173Y-18188D02*
X45078Y-18188D01*
X43846Y-17862D02*
X44173Y-18188D01*
X42846Y-15562D02*
X42846Y-15692D01*
X42559Y-15275D02*
X42846Y-15562D01*
X40193Y-15275D02*
X42559Y-15275D01*
X39421Y-16047D02*
X40193Y-15275D01*
X14700Y-27200D02*
X17000Y-27200D01*
X17000Y-27200D02*
X17050Y-27150D01*
X22650Y-24650D02*
X23750Y-24650D01*
X22650Y-20400D02*
X23750Y-20400D01*
X32850Y-9930D02*
X34600Y-9930D01*
X34600Y-9930D02*
X34920Y-10250D01*
X32850Y-8900D02*
X32850Y-9930D01*
X32850Y-9930D02*
X32850Y-11250D01*
X32450Y-13712D02*
X33220Y-14482D01*
X32450Y-11650D02*
X32450Y-13712D01*
X32850Y-11250D02*
X32450Y-11650D01*
X36450Y-32650D02*
X36520Y-32650D01*
X44346Y-15543D02*
X44346Y-15692D01*
X44610Y-15280D02*
X44346Y-15543D01*
X45370Y-15280D02*
X44610Y-15280D01*
X45910Y-15820D02*
X45370Y-15280D01*
X45910Y-25970D02*
X45910Y-15820D01*
X46840Y-26900D02*
X45910Y-25970D01*
X46840Y-28350D02*
X46840Y-26900D01*
X45950Y-29240D02*
X46840Y-28350D01*
X41570Y-29240D02*
X45950Y-29240D01*
X38670Y-32140D02*
X41570Y-29240D01*
X37030Y-32140D02*
X38670Y-32140D01*
X36520Y-32650D02*
X37030Y-32140D01*
X43846Y-15692D02*
X43846Y-14303D01*
X44488Y-9538D02*
X43850Y-8900D01*
X44488Y-13661D02*
X44488Y-9538D01*
X43846Y-14303D02*
X44488Y-13661D01*
X43846Y-15692D02*
X44346Y-15692D01*
X44005Y-23993D02*
X44005Y-23905D01*
X42597Y-23540D02*
X42052Y-24085D01*
X43640Y-23540D02*
X42597Y-23540D01*
X44005Y-23905D02*
X43640Y-23540D01*
X45433Y-22564D02*
X45433Y-17244D01*
X44005Y-23993D02*
X45433Y-22564D01*
X44846Y-16657D02*
X45433Y-17244D01*
X44846Y-16657D02*
X44846Y-15692D01*
X43630Y-23127D02*
X43630Y-23000D01*
X43630Y-23000D02*
X43960Y-22670D01*
X43630Y-23127D02*
X42294Y-23127D01*
X42294Y-23127D02*
X42052Y-22885D01*
X42294Y-23127D02*
X42052Y-22885D01*
X43960Y-22670D02*
X43960Y-22797D01*
X43307Y-15196D02*
X43346Y-15236D01*
X43346Y-15692D02*
X43346Y-15236D01*
X43630Y-23000D02*
X43630Y-23186D01*
X42353Y-23186D02*
X42052Y-22885D01*
X42252Y-23085D02*
X42052Y-22885D01*
X38220Y-31650D02*
X41040Y-28830D01*
X41040Y-28830D02*
X45990Y-28830D01*
X45990Y-28830D02*
X46470Y-28350D01*
X46470Y-28350D02*
X46470Y-27030D01*
X46470Y-27030D02*
X45633Y-26193D01*
X45633Y-26193D02*
X45633Y-16853D01*
X45633Y-16853D02*
X45400Y-16620D01*
X38220Y-31650D02*
X37450Y-31650D01*
X42846Y-17543D02*
X42846Y-17792D01*
X43320Y-17070D02*
X42846Y-17543D01*
X43990Y-17070D02*
X43320Y-17070D01*
X44000Y-17060D02*
X43990Y-17070D01*
X42846Y-17792D02*
X42346Y-17792D01*
X44745Y-21323D02*
X44745Y-21335D01*
X44745Y-21335D02*
X43550Y-22530D01*
X43550Y-22530D02*
X43600Y-22480D01*
X42052Y-21372D02*
X43140Y-21372D01*
X43140Y-21372D02*
X43152Y-21360D01*
X44656Y-21254D02*
X44656Y-21424D01*
X41846Y-17193D02*
X41850Y-17190D01*
X41846Y-17193D02*
X41846Y-17792D01*
X43550Y-22530D02*
X43150Y-22530D01*
X44054Y-20222D02*
X44135Y-20222D01*
X44135Y-20222D02*
X44370Y-20457D01*
X44054Y-18425D02*
X44054Y-20222D01*
X42052Y-20222D02*
X44054Y-20222D01*
X43346Y-17792D02*
X43346Y-17913D01*
X43937Y-18307D02*
X44054Y-18425D01*
X44054Y-18425D02*
X44055Y-18425D01*
X43740Y-18307D02*
X43937Y-18307D01*
X43346Y-17913D02*
X43740Y-18307D01*
X31500Y-20690D02*
X31100Y-20690D01*
X31100Y-17900D02*
X30350Y-17900D01*
X32503Y-21283D02*
X32503Y-21414D01*
X31910Y-20690D02*
X32503Y-21283D01*
X31480Y-20690D02*
X31500Y-20690D01*
X31500Y-20690D02*
X31910Y-20690D01*
X32503Y-21414D02*
X33003Y-21414D01*
X28650Y-18900D02*
X28650Y-19027D01*
X28346Y-19330D02*
X27150Y-19330D01*
X28650Y-19027D02*
X28346Y-19330D01*
X27150Y-18900D02*
X27150Y-19330D01*
X27150Y-19330D02*
X27150Y-21000D01*
X28650Y-18900D02*
X29150Y-18900D01*
X14700Y-33600D02*
X18250Y-33600D01*
X18250Y-33600D02*
X18450Y-33800D01*
X17975Y-30775D02*
X17975Y-31950D01*
X18450Y-32425D02*
X18450Y-33800D01*
X17975Y-31950D02*
X18450Y-32425D01*
G54D10*
G36*
X26850Y-20545D02*
X26799Y-20525D01*
X26700Y-20524D01*
X26500Y-20524D01*
X26408Y-20562D01*
X26400Y-20571D01*
X26391Y-20563D01*
X26299Y-20525D01*
X26200Y-20524D01*
X26000Y-20524D01*
X25908Y-20562D01*
X25838Y-20633D01*
X25800Y-20725D01*
X25799Y-20824D01*
X25799Y-21274D01*
X25837Y-21366D01*
X25850Y-21378D01*
X25850Y-21987D01*
X25575Y-21987D01*
X25483Y-22025D01*
X25477Y-22032D01*
X25460Y-22025D01*
X25491Y-22012D01*
X25561Y-21941D01*
X25599Y-21849D01*
X25600Y-21750D01*
X25600Y-20950D01*
X25579Y-20899D01*
X25599Y-20849D01*
X25600Y-20750D01*
X25600Y-19950D01*
X25562Y-19858D01*
X25515Y-19812D01*
X25640Y-19760D01*
X25760Y-19641D01*
X25824Y-19484D01*
X25825Y-19315D01*
X25777Y-19200D01*
X25810Y-19200D01*
X25837Y-19266D01*
X25908Y-19336D01*
X26000Y-19374D01*
X26099Y-19375D01*
X26299Y-19375D01*
X26391Y-19337D01*
X26399Y-19328D01*
X26408Y-19336D01*
X26500Y-19374D01*
X26599Y-19375D01*
X26799Y-19375D01*
X26850Y-19354D01*
X26850Y-20545D01*
X26850Y-20545D01*
G37*
G54D34*
X26850Y-20545D02*
X26799Y-20525D01*
X26700Y-20524D01*
X26500Y-20524D01*
X26408Y-20562D01*
X26400Y-20571D01*
X26391Y-20563D01*
X26299Y-20525D01*
X26200Y-20524D01*
X26000Y-20524D01*
X25908Y-20562D01*
X25838Y-20633D01*
X25800Y-20725D01*
X25799Y-20824D01*
X25799Y-21274D01*
X25837Y-21366D01*
X25850Y-21378D01*
X25850Y-21987D01*
X25575Y-21987D01*
X25483Y-22025D01*
X25477Y-22032D01*
X25460Y-22025D01*
X25491Y-22012D01*
X25561Y-21941D01*
X25599Y-21849D01*
X25600Y-21750D01*
X25600Y-20950D01*
X25579Y-20899D01*
X25599Y-20849D01*
X25600Y-20750D01*
X25600Y-19950D01*
X25562Y-19858D01*
X25515Y-19812D01*
X25640Y-19760D01*
X25760Y-19641D01*
X25824Y-19484D01*
X25825Y-19315D01*
X25777Y-19200D01*
X25810Y-19200D01*
X25837Y-19266D01*
X25908Y-19336D01*
X26000Y-19374D01*
X26099Y-19375D01*
X26299Y-19375D01*
X26391Y-19337D01*
X26399Y-19328D01*
X26408Y-19336D01*
X26500Y-19374D01*
X26599Y-19375D01*
X26799Y-19375D01*
X26850Y-19354D01*
X26850Y-20545D01*
G54D10*
G36*
X28113Y-21664D02*
X28105Y-21664D01*
X28105Y-21672D01*
X28005Y-21672D01*
X28005Y-21664D01*
X27998Y-21664D01*
X27998Y-21564D01*
X28005Y-21564D01*
X28005Y-21556D01*
X28105Y-21556D01*
X28105Y-21564D01*
X28113Y-21564D01*
X28113Y-21664D01*
X28113Y-21664D01*
G37*
G54D34*
X28113Y-21664D02*
X28105Y-21664D01*
X28105Y-21672D01*
X28005Y-21672D01*
X28005Y-21664D01*
X27998Y-21664D01*
X27998Y-21564D01*
X28005Y-21564D01*
X28005Y-21556D01*
X28105Y-21556D01*
X28105Y-21564D01*
X28113Y-21564D01*
X28113Y-21664D01*
G54D10*
G36*
X28440Y-22238D02*
X28391Y-22287D01*
X28193Y-22089D01*
X28230Y-22089D01*
X28322Y-22051D01*
X28392Y-21980D01*
X28430Y-21889D01*
X28430Y-21789D01*
X28430Y-21785D01*
X28440Y-21794D01*
X28440Y-22238D01*
X28440Y-22238D01*
G37*
G54D34*
X28440Y-22238D02*
X28391Y-22287D01*
X28193Y-22089D01*
X28230Y-22089D01*
X28322Y-22051D01*
X28392Y-21980D01*
X28430Y-21889D01*
X28430Y-21789D01*
X28430Y-21785D01*
X28440Y-21794D01*
X28440Y-22238D01*
G54D10*
G36*
X31750Y-20990D02*
X31692Y-21048D01*
X31653Y-21140D01*
X31653Y-21239D01*
X31653Y-21689D01*
X31691Y-21781D01*
X31703Y-21793D01*
X31703Y-21964D01*
X31679Y-21988D01*
X31615Y-22145D01*
X31614Y-22314D01*
X31679Y-22470D01*
X31740Y-22531D01*
X31740Y-22600D01*
X29164Y-22600D01*
X29165Y-22455D01*
X29100Y-22299D01*
X29040Y-22238D01*
X29040Y-21670D01*
X29017Y-21555D01*
X28952Y-21457D01*
X28952Y-21457D01*
X28947Y-21453D01*
X29000Y-21474D01*
X29099Y-21475D01*
X29299Y-21475D01*
X29391Y-21437D01*
X29461Y-21366D01*
X29499Y-21274D01*
X29500Y-21175D01*
X29500Y-20963D01*
X29853Y-20610D01*
X30675Y-20610D01*
X30674Y-20774D01*
X30739Y-20930D01*
X30858Y-21050D01*
X31015Y-21114D01*
X31184Y-21115D01*
X31340Y-21050D01*
X31401Y-20990D01*
X31480Y-20990D01*
X31500Y-20990D01*
X31750Y-20990D01*
X31750Y-20990D01*
G37*
G54D34*
X31750Y-20990D02*
X31692Y-21048D01*
X31653Y-21140D01*
X31653Y-21239D01*
X31653Y-21689D01*
X31691Y-21781D01*
X31703Y-21793D01*
X31703Y-21964D01*
X31679Y-21988D01*
X31615Y-22145D01*
X31614Y-22314D01*
X31679Y-22470D01*
X31740Y-22531D01*
X31740Y-22600D01*
X29164Y-22600D01*
X29165Y-22455D01*
X29100Y-22299D01*
X29040Y-22238D01*
X29040Y-21670D01*
X29017Y-21555D01*
X28952Y-21457D01*
X28952Y-21457D01*
X28947Y-21453D01*
X29000Y-21474D01*
X29099Y-21475D01*
X29299Y-21475D01*
X29391Y-21437D01*
X29461Y-21366D01*
X29499Y-21274D01*
X29500Y-21175D01*
X29500Y-20963D01*
X29853Y-20610D01*
X30675Y-20610D01*
X30674Y-20774D01*
X30739Y-20930D01*
X30858Y-21050D01*
X31015Y-21114D01*
X31184Y-21115D01*
X31340Y-21050D01*
X31401Y-20990D01*
X31480Y-20990D01*
X31500Y-20990D01*
X31750Y-20990D01*
G54D10*
G36*
X33561Y-19364D02*
X33553Y-19364D01*
X33553Y-19372D01*
X33453Y-19372D01*
X33453Y-19364D01*
X33291Y-19364D01*
X33216Y-19364D01*
X33053Y-19364D01*
X33053Y-19372D01*
X32953Y-19372D01*
X32953Y-19364D01*
X32946Y-19364D01*
X32946Y-19264D01*
X32953Y-19264D01*
X32953Y-19257D01*
X33053Y-19257D01*
X33053Y-19264D01*
X33216Y-19264D01*
X33291Y-19264D01*
X33453Y-19264D01*
X33453Y-19257D01*
X33553Y-19257D01*
X33553Y-19264D01*
X33561Y-19264D01*
X33561Y-19364D01*
X33561Y-19364D01*
G37*
G54D34*
X33561Y-19364D02*
X33553Y-19364D01*
X33553Y-19372D01*
X33453Y-19372D01*
X33453Y-19364D01*
X33291Y-19364D01*
X33216Y-19364D01*
X33053Y-19364D01*
X33053Y-19372D01*
X32953Y-19372D01*
X32953Y-19364D01*
X32946Y-19364D01*
X32946Y-19264D01*
X32953Y-19264D01*
X32953Y-19257D01*
X33053Y-19257D01*
X33053Y-19264D01*
X33216Y-19264D01*
X33291Y-19264D01*
X33453Y-19264D01*
X33453Y-19257D01*
X33553Y-19257D01*
X33553Y-19264D01*
X33561Y-19264D01*
X33561Y-19364D01*
G54D10*
G36*
X34403Y-10781D02*
X34200Y-10781D01*
X34059Y-10809D01*
X33939Y-10889D01*
X33111Y-11717D01*
X32820Y-11717D01*
X32796Y-11727D01*
X33062Y-11462D01*
X33062Y-11462D01*
X33127Y-11364D01*
X33149Y-11250D01*
X33150Y-11250D01*
X33150Y-10230D01*
X34369Y-10230D01*
X34369Y-10699D01*
X34403Y-10781D01*
X34403Y-10781D01*
G37*
G54D34*
X34403Y-10781D02*
X34200Y-10781D01*
X34059Y-10809D01*
X33939Y-10889D01*
X33111Y-11717D01*
X32820Y-11717D01*
X32796Y-11727D01*
X33062Y-11462D01*
X33062Y-11462D01*
X33127Y-11364D01*
X33149Y-11250D01*
X33150Y-11250D01*
X33150Y-10230D01*
X34369Y-10230D01*
X34369Y-10699D01*
X34403Y-10781D01*
G54D10*
G36*
X34415Y-24660D02*
X34379Y-24667D01*
X34259Y-24746D01*
X33931Y-25074D01*
X33841Y-25074D01*
X33638Y-25158D01*
X33500Y-25297D01*
X33500Y-25275D01*
X33462Y-25183D01*
X33391Y-25113D01*
X33299Y-25075D01*
X33200Y-25074D01*
X32824Y-25074D01*
X32303Y-24554D01*
X32303Y-22998D01*
X32303Y-22998D01*
X32317Y-22978D01*
X32339Y-22863D01*
X32340Y-22863D01*
X32340Y-22531D01*
X32400Y-22471D01*
X32464Y-22314D01*
X32465Y-22145D01*
X32400Y-21989D01*
X32303Y-21892D01*
X32303Y-21869D01*
X32353Y-21889D01*
X32453Y-21890D01*
X32653Y-21890D01*
X32745Y-21852D01*
X32753Y-21843D01*
X32762Y-21851D01*
X32853Y-21889D01*
X32953Y-21890D01*
X32961Y-21890D01*
X32737Y-22113D01*
X32672Y-22210D01*
X32650Y-22325D01*
X32650Y-22796D01*
X32587Y-22796D01*
X32495Y-22834D01*
X32425Y-22904D01*
X32387Y-22996D01*
X32386Y-23095D01*
X32386Y-23695D01*
X32424Y-23787D01*
X32495Y-23858D01*
X32587Y-23896D01*
X32686Y-23896D01*
X33286Y-23896D01*
X33378Y-23858D01*
X33448Y-23788D01*
X33486Y-23696D01*
X33486Y-23674D01*
X33592Y-23779D01*
X33596Y-23802D01*
X33676Y-23921D01*
X34415Y-24660D01*
X34415Y-24660D01*
G37*
G54D34*
X34415Y-24660D02*
X34379Y-24667D01*
X34259Y-24746D01*
X33931Y-25074D01*
X33841Y-25074D01*
X33638Y-25158D01*
X33500Y-25297D01*
X33500Y-25275D01*
X33462Y-25183D01*
X33391Y-25113D01*
X33299Y-25075D01*
X33200Y-25074D01*
X32824Y-25074D01*
X32303Y-24554D01*
X32303Y-22998D01*
X32303Y-22998D01*
X32317Y-22978D01*
X32339Y-22863D01*
X32340Y-22863D01*
X32340Y-22531D01*
X32400Y-22471D01*
X32464Y-22314D01*
X32465Y-22145D01*
X32400Y-21989D01*
X32303Y-21892D01*
X32303Y-21869D01*
X32353Y-21889D01*
X32453Y-21890D01*
X32653Y-21890D01*
X32745Y-21852D01*
X32753Y-21843D01*
X32762Y-21851D01*
X32853Y-21889D01*
X32953Y-21890D01*
X32961Y-21890D01*
X32737Y-22113D01*
X32672Y-22210D01*
X32650Y-22325D01*
X32650Y-22796D01*
X32587Y-22796D01*
X32495Y-22834D01*
X32425Y-22904D01*
X32387Y-22996D01*
X32386Y-23095D01*
X32386Y-23695D01*
X32424Y-23787D01*
X32495Y-23858D01*
X32587Y-23896D01*
X32686Y-23896D01*
X33286Y-23896D01*
X33378Y-23858D01*
X33448Y-23788D01*
X33486Y-23696D01*
X33486Y-23674D01*
X33592Y-23779D01*
X33596Y-23802D01*
X33676Y-23921D01*
X34415Y-24660D01*
G54D10*
G36*
X34848Y-18842D02*
X34762Y-18877D01*
X34753Y-18886D01*
X34745Y-18878D01*
X34653Y-18840D01*
X34554Y-18839D01*
X34354Y-18839D01*
X34262Y-18877D01*
X34253Y-18886D01*
X34245Y-18878D01*
X34153Y-18840D01*
X34054Y-18839D01*
X33985Y-18839D01*
X33985Y-18825D01*
X33985Y-18762D01*
X33922Y-18700D01*
X33660Y-18700D01*
X33660Y-18707D01*
X33560Y-18707D01*
X33560Y-18700D01*
X33552Y-18700D01*
X33552Y-18600D01*
X33560Y-18600D01*
X33560Y-18592D01*
X33660Y-18592D01*
X33660Y-18600D01*
X33922Y-18600D01*
X33985Y-18537D01*
X33985Y-18520D01*
X34525Y-18520D01*
X34848Y-18842D01*
X34848Y-18842D01*
G37*
G54D34*
X34848Y-18842D02*
X34762Y-18877D01*
X34753Y-18886D01*
X34745Y-18878D01*
X34653Y-18840D01*
X34554Y-18839D01*
X34354Y-18839D01*
X34262Y-18877D01*
X34253Y-18886D01*
X34245Y-18878D01*
X34153Y-18840D01*
X34054Y-18839D01*
X33985Y-18839D01*
X33985Y-18825D01*
X33985Y-18762D01*
X33922Y-18700D01*
X33660Y-18700D01*
X33660Y-18707D01*
X33560Y-18707D01*
X33560Y-18700D01*
X33552Y-18700D01*
X33552Y-18600D01*
X33560Y-18600D01*
X33560Y-18592D01*
X33660Y-18592D01*
X33660Y-18600D01*
X33922Y-18600D01*
X33985Y-18537D01*
X33985Y-18520D01*
X34525Y-18520D01*
X34848Y-18842D01*
G54D10*
G36*
X37128Y-20399D02*
X37119Y-20408D01*
X34409Y-20408D01*
X34294Y-20431D01*
X34197Y-20496D01*
X33791Y-20902D01*
X33741Y-20976D01*
X33741Y-20976D01*
X33653Y-20940D01*
X33554Y-20939D01*
X33354Y-20939D01*
X33262Y-20977D01*
X33253Y-20986D01*
X33245Y-20978D01*
X33153Y-20940D01*
X33054Y-20939D01*
X32854Y-20939D01*
X32762Y-20977D01*
X32753Y-20986D01*
X32745Y-20978D01*
X32653Y-20940D01*
X32584Y-20939D01*
X32235Y-20591D01*
X32254Y-20587D01*
X32254Y-20587D01*
X32352Y-20522D01*
X32628Y-20246D01*
X33263Y-20246D01*
X33405Y-20304D01*
X33574Y-20305D01*
X33730Y-20240D01*
X33850Y-20121D01*
X33914Y-19964D01*
X33915Y-19795D01*
X33912Y-19789D01*
X33953Y-19790D01*
X34153Y-19790D01*
X34245Y-19752D01*
X34253Y-19743D01*
X34262Y-19751D01*
X34353Y-19789D01*
X34453Y-19790D01*
X34653Y-19790D01*
X34745Y-19752D01*
X34753Y-19743D01*
X34762Y-19752D01*
X34854Y-19790D01*
X34891Y-19789D01*
X34953Y-19727D01*
X34953Y-19364D01*
X34946Y-19364D01*
X34946Y-19264D01*
X34953Y-19264D01*
X34953Y-19257D01*
X35053Y-19257D01*
X35053Y-19264D01*
X35061Y-19264D01*
X35061Y-19364D01*
X35053Y-19364D01*
X35053Y-19727D01*
X35116Y-19789D01*
X35153Y-19790D01*
X35221Y-19762D01*
X35267Y-19832D01*
X35697Y-20262D01*
X35795Y-20327D01*
X35910Y-20350D01*
X37078Y-20350D01*
X37128Y-20399D01*
X37128Y-20399D01*
G37*
G54D34*
X37128Y-20399D02*
X37119Y-20408D01*
X34409Y-20408D01*
X34294Y-20431D01*
X34197Y-20496D01*
X33791Y-20902D01*
X33741Y-20976D01*
X33741Y-20976D01*
X33653Y-20940D01*
X33554Y-20939D01*
X33354Y-20939D01*
X33262Y-20977D01*
X33253Y-20986D01*
X33245Y-20978D01*
X33153Y-20940D01*
X33054Y-20939D01*
X32854Y-20939D01*
X32762Y-20977D01*
X32753Y-20986D01*
X32745Y-20978D01*
X32653Y-20940D01*
X32584Y-20939D01*
X32235Y-20591D01*
X32254Y-20587D01*
X32254Y-20587D01*
X32352Y-20522D01*
X32628Y-20246D01*
X33263Y-20246D01*
X33405Y-20304D01*
X33574Y-20305D01*
X33730Y-20240D01*
X33850Y-20121D01*
X33914Y-19964D01*
X33915Y-19795D01*
X33912Y-19789D01*
X33953Y-19790D01*
X34153Y-19790D01*
X34245Y-19752D01*
X34253Y-19743D01*
X34262Y-19751D01*
X34353Y-19789D01*
X34453Y-19790D01*
X34653Y-19790D01*
X34745Y-19752D01*
X34753Y-19743D01*
X34762Y-19752D01*
X34854Y-19790D01*
X34891Y-19789D01*
X34953Y-19727D01*
X34953Y-19364D01*
X34946Y-19364D01*
X34946Y-19264D01*
X34953Y-19264D01*
X34953Y-19257D01*
X35053Y-19257D01*
X35053Y-19264D01*
X35061Y-19264D01*
X35061Y-19364D01*
X35053Y-19364D01*
X35053Y-19727D01*
X35116Y-19789D01*
X35153Y-19790D01*
X35221Y-19762D01*
X35267Y-19832D01*
X35697Y-20262D01*
X35795Y-20327D01*
X35910Y-20350D01*
X37078Y-20350D01*
X37128Y-20399D01*
G54D10*
G36*
X37148Y-25634D02*
X37132Y-25627D01*
X36963Y-25627D01*
X36806Y-25692D01*
X36687Y-25811D01*
X36629Y-25949D01*
X36287Y-26291D01*
X31272Y-26291D01*
X31274Y-26284D01*
X31275Y-26115D01*
X31210Y-25959D01*
X31150Y-25898D01*
X31150Y-25850D01*
X31127Y-25735D01*
X31062Y-25637D01*
X31062Y-25637D01*
X30527Y-25102D01*
X30429Y-25037D01*
X30314Y-25014D01*
X28910Y-25014D01*
X28795Y-25037D01*
X28697Y-25102D01*
X28000Y-25800D01*
X27751Y-25800D01*
X27691Y-25739D01*
X27534Y-25675D01*
X27365Y-25674D01*
X27209Y-25739D01*
X27089Y-25858D01*
X27025Y-26015D01*
X27024Y-26184D01*
X27052Y-26250D01*
X26054Y-26250D01*
X28389Y-23914D01*
X28474Y-23915D01*
X28630Y-23850D01*
X28750Y-23731D01*
X28814Y-23574D01*
X28815Y-23405D01*
X28750Y-23249D01*
X28701Y-23200D01*
X31703Y-23200D01*
X31703Y-24678D01*
X31726Y-24793D01*
X31791Y-24891D01*
X32399Y-25499D01*
X32399Y-25974D01*
X32437Y-26066D01*
X32508Y-26136D01*
X32600Y-26174D01*
X32699Y-26175D01*
X33299Y-26175D01*
X33391Y-26137D01*
X33461Y-26066D01*
X33499Y-25974D01*
X33499Y-25952D01*
X33638Y-26090D01*
X33840Y-26174D01*
X34058Y-26175D01*
X34261Y-26091D01*
X34415Y-25936D01*
X34449Y-25855D01*
X34483Y-25936D01*
X34638Y-26090D01*
X34840Y-26174D01*
X35058Y-26175D01*
X35261Y-26091D01*
X35415Y-25936D01*
X35499Y-25734D01*
X35500Y-25516D01*
X35441Y-25375D01*
X37148Y-25375D01*
X37148Y-25634D01*
X37148Y-25634D01*
G37*
G54D34*
X37148Y-25634D02*
X37132Y-25627D01*
X36963Y-25627D01*
X36806Y-25692D01*
X36687Y-25811D01*
X36629Y-25949D01*
X36287Y-26291D01*
X31272Y-26291D01*
X31274Y-26284D01*
X31275Y-26115D01*
X31210Y-25959D01*
X31150Y-25898D01*
X31150Y-25850D01*
X31127Y-25735D01*
X31062Y-25637D01*
X31062Y-25637D01*
X30527Y-25102D01*
X30429Y-25037D01*
X30314Y-25014D01*
X28910Y-25014D01*
X28795Y-25037D01*
X28697Y-25102D01*
X28000Y-25800D01*
X27751Y-25800D01*
X27691Y-25739D01*
X27534Y-25675D01*
X27365Y-25674D01*
X27209Y-25739D01*
X27089Y-25858D01*
X27025Y-26015D01*
X27024Y-26184D01*
X27052Y-26250D01*
X26054Y-26250D01*
X28389Y-23914D01*
X28474Y-23915D01*
X28630Y-23850D01*
X28750Y-23731D01*
X28814Y-23574D01*
X28815Y-23405D01*
X28750Y-23249D01*
X28701Y-23200D01*
X31703Y-23200D01*
X31703Y-24678D01*
X31726Y-24793D01*
X31791Y-24891D01*
X32399Y-25499D01*
X32399Y-25974D01*
X32437Y-26066D01*
X32508Y-26136D01*
X32600Y-26174D01*
X32699Y-26175D01*
X33299Y-26175D01*
X33391Y-26137D01*
X33461Y-26066D01*
X33499Y-25974D01*
X33499Y-25952D01*
X33638Y-26090D01*
X33840Y-26174D01*
X34058Y-26175D01*
X34261Y-26091D01*
X34415Y-25936D01*
X34449Y-25855D01*
X34483Y-25936D01*
X34638Y-26090D01*
X34840Y-26174D01*
X35058Y-26175D01*
X35261Y-26091D01*
X35415Y-25936D01*
X35499Y-25734D01*
X35500Y-25516D01*
X35441Y-25375D01*
X37148Y-25375D01*
X37148Y-25634D01*
G54D10*
G36*
X37148Y-27235D02*
X37060Y-27177D01*
X36850Y-27135D01*
X36639Y-27177D01*
X36461Y-27296D01*
X36350Y-27462D01*
X36238Y-27296D01*
X36060Y-27177D01*
X35850Y-27135D01*
X35639Y-27177D01*
X35461Y-27296D01*
X35350Y-27462D01*
X35238Y-27296D01*
X35060Y-27177D01*
X34850Y-27135D01*
X34639Y-27177D01*
X34461Y-27296D01*
X34350Y-27462D01*
X34238Y-27296D01*
X34060Y-27177D01*
X33850Y-27135D01*
X33639Y-27177D01*
X33461Y-27296D01*
X33350Y-27462D01*
X33238Y-27296D01*
X33060Y-27177D01*
X32850Y-27135D01*
X32639Y-27177D01*
X32461Y-27296D01*
X32350Y-27462D01*
X32238Y-27296D01*
X32060Y-27177D01*
X31850Y-27135D01*
X31639Y-27177D01*
X31461Y-27296D01*
X31350Y-27462D01*
X31238Y-27296D01*
X31060Y-27177D01*
X30879Y-27141D01*
X30992Y-27028D01*
X36440Y-27028D01*
X36580Y-27000D01*
X36700Y-26920D01*
X37148Y-26472D01*
X37148Y-27235D01*
X37148Y-27235D01*
G37*
G54D34*
X37148Y-27235D02*
X37060Y-27177D01*
X36850Y-27135D01*
X36639Y-27177D01*
X36461Y-27296D01*
X36350Y-27462D01*
X36238Y-27296D01*
X36060Y-27177D01*
X35850Y-27135D01*
X35639Y-27177D01*
X35461Y-27296D01*
X35350Y-27462D01*
X35238Y-27296D01*
X35060Y-27177D01*
X34850Y-27135D01*
X34639Y-27177D01*
X34461Y-27296D01*
X34350Y-27462D01*
X34238Y-27296D01*
X34060Y-27177D01*
X33850Y-27135D01*
X33639Y-27177D01*
X33461Y-27296D01*
X33350Y-27462D01*
X33238Y-27296D01*
X33060Y-27177D01*
X32850Y-27135D01*
X32639Y-27177D01*
X32461Y-27296D01*
X32350Y-27462D01*
X32238Y-27296D01*
X32060Y-27177D01*
X31850Y-27135D01*
X31639Y-27177D01*
X31461Y-27296D01*
X31350Y-27462D01*
X31238Y-27296D01*
X31060Y-27177D01*
X30879Y-27141D01*
X30992Y-27028D01*
X36440Y-27028D01*
X36580Y-27000D01*
X36700Y-26920D01*
X37148Y-26472D01*
X37148Y-27235D01*
G54D10*
G36*
X38471Y-19056D02*
X38255Y-19272D01*
X38242Y-19259D01*
X37750Y-19259D01*
X37750Y-19266D01*
X37650Y-19266D01*
X37650Y-19259D01*
X37158Y-19259D01*
X37095Y-19321D01*
X37095Y-19573D01*
X37133Y-19664D01*
X37152Y-19684D01*
X37139Y-19689D01*
X37078Y-19750D01*
X36660Y-19750D01*
X36696Y-19735D01*
X36766Y-19664D01*
X36804Y-19573D01*
X36804Y-19321D01*
X36742Y-19259D01*
X36250Y-19259D01*
X36250Y-19266D01*
X36150Y-19266D01*
X36150Y-19259D01*
X36142Y-19259D01*
X36142Y-19159D01*
X36150Y-19159D01*
X36150Y-19151D01*
X36250Y-19151D01*
X36250Y-19159D01*
X36742Y-19159D01*
X36804Y-19096D01*
X36804Y-18922D01*
X37095Y-18922D01*
X37095Y-19096D01*
X37158Y-19159D01*
X37650Y-19159D01*
X37650Y-19151D01*
X37750Y-19151D01*
X37750Y-19159D01*
X38242Y-19159D01*
X38304Y-19096D01*
X38304Y-18846D01*
X38322Y-18834D01*
X38444Y-18712D01*
X38444Y-18990D01*
X38471Y-19056D01*
X38471Y-19056D01*
G37*
G54D34*
X38471Y-19056D02*
X38255Y-19272D01*
X38242Y-19259D01*
X37750Y-19259D01*
X37750Y-19266D01*
X37650Y-19266D01*
X37650Y-19259D01*
X37158Y-19259D01*
X37095Y-19321D01*
X37095Y-19573D01*
X37133Y-19664D01*
X37152Y-19684D01*
X37139Y-19689D01*
X37078Y-19750D01*
X36660Y-19750D01*
X36696Y-19735D01*
X36766Y-19664D01*
X36804Y-19573D01*
X36804Y-19321D01*
X36742Y-19259D01*
X36250Y-19259D01*
X36250Y-19266D01*
X36150Y-19266D01*
X36150Y-19259D01*
X36142Y-19259D01*
X36142Y-19159D01*
X36150Y-19159D01*
X36150Y-19151D01*
X36250Y-19151D01*
X36250Y-19159D01*
X36742Y-19159D01*
X36804Y-19096D01*
X36804Y-18922D01*
X37095Y-18922D01*
X37095Y-19096D01*
X37158Y-19159D01*
X37650Y-19159D01*
X37650Y-19151D01*
X37750Y-19151D01*
X37750Y-19159D01*
X38242Y-19159D01*
X38304Y-19096D01*
X38304Y-18846D01*
X38322Y-18834D01*
X38444Y-18712D01*
X38444Y-18990D01*
X38471Y-19056D01*
G54D10*
G36*
X39091Y-16780D02*
X39078Y-16785D01*
X39007Y-16856D01*
X38991Y-16896D01*
X38974Y-16880D01*
X38975Y-16785D01*
X38910Y-16629D01*
X38791Y-16509D01*
X38634Y-16445D01*
X38539Y-16444D01*
X38298Y-16204D01*
X38311Y-16191D01*
X38349Y-16099D01*
X38350Y-16000D01*
X38350Y-15440D01*
X38389Y-15440D01*
X39031Y-16082D01*
X39008Y-16105D01*
X38970Y-16197D01*
X38969Y-16297D01*
X38969Y-16612D01*
X39007Y-16703D01*
X39078Y-16774D01*
X39091Y-16780D01*
X39091Y-16780D01*
G37*
G54D34*
X39091Y-16780D02*
X39078Y-16785D01*
X39007Y-16856D01*
X38991Y-16896D01*
X38974Y-16880D01*
X38975Y-16785D01*
X38910Y-16629D01*
X38791Y-16509D01*
X38634Y-16445D01*
X38539Y-16444D01*
X38298Y-16204D01*
X38311Y-16191D01*
X38349Y-16099D01*
X38350Y-16000D01*
X38350Y-15440D01*
X38389Y-15440D01*
X39031Y-16082D01*
X39008Y-16105D01*
X38970Y-16197D01*
X38969Y-16297D01*
X38969Y-16612D01*
X39007Y-16703D01*
X39078Y-16774D01*
X39091Y-16780D01*
G54D10*
G36*
X39468Y-20491D02*
X39239Y-20719D01*
X39159Y-20839D01*
X39131Y-20980D01*
X39131Y-22684D01*
X37177Y-24639D01*
X36201Y-24639D01*
X36212Y-24612D01*
X36212Y-24443D01*
X36147Y-24287D01*
X36028Y-24167D01*
X35872Y-24102D01*
X35703Y-24102D01*
X35565Y-24159D01*
X34955Y-24159D01*
X34418Y-23621D01*
X34436Y-23576D01*
X34470Y-23657D01*
X34625Y-23812D01*
X34827Y-23896D01*
X35045Y-23896D01*
X35248Y-23812D01*
X35403Y-23658D01*
X35486Y-23456D01*
X35487Y-23237D01*
X35403Y-23035D01*
X35353Y-22985D01*
X35353Y-21590D01*
X35353Y-21527D01*
X35291Y-21464D01*
X35053Y-21464D01*
X35053Y-21827D01*
X35116Y-21889D01*
X35153Y-21890D01*
X35245Y-21852D01*
X35315Y-21781D01*
X35353Y-21689D01*
X35353Y-21590D01*
X35353Y-22985D01*
X35248Y-22880D01*
X35046Y-22796D01*
X34953Y-22796D01*
X34953Y-21827D01*
X34953Y-21464D01*
X34791Y-21464D01*
X34716Y-21464D01*
X34553Y-21464D01*
X34553Y-21827D01*
X34616Y-21889D01*
X34653Y-21890D01*
X34745Y-21852D01*
X34753Y-21843D01*
X34762Y-21852D01*
X34854Y-21890D01*
X34891Y-21889D01*
X34953Y-21827D01*
X34953Y-22796D01*
X34828Y-22796D01*
X34625Y-22879D01*
X34471Y-23034D01*
X34437Y-23116D01*
X34403Y-23035D01*
X34248Y-22880D01*
X34046Y-22796D01*
X33828Y-22796D01*
X33625Y-22879D01*
X33487Y-23018D01*
X33487Y-22996D01*
X33449Y-22905D01*
X33378Y-22834D01*
X33286Y-22796D01*
X33250Y-22796D01*
X33250Y-22449D01*
X33716Y-21983D01*
X33716Y-21983D01*
X33781Y-21886D01*
X33786Y-21861D01*
X33853Y-21889D01*
X33953Y-21890D01*
X34153Y-21890D01*
X34245Y-21852D01*
X34253Y-21843D01*
X34262Y-21852D01*
X34354Y-21890D01*
X34391Y-21889D01*
X34453Y-21827D01*
X34453Y-21464D01*
X34446Y-21464D01*
X34446Y-21364D01*
X34453Y-21364D01*
X34453Y-21357D01*
X34553Y-21357D01*
X34553Y-21364D01*
X34716Y-21364D01*
X34791Y-21364D01*
X34953Y-21364D01*
X34953Y-21357D01*
X35053Y-21357D01*
X35053Y-21364D01*
X35291Y-21364D01*
X35353Y-21302D01*
X35353Y-21239D01*
X35353Y-21140D01*
X35315Y-21048D01*
X35276Y-21008D01*
X37244Y-21008D01*
X37244Y-21008D01*
X37358Y-20985D01*
X37358Y-20985D01*
X37416Y-20947D01*
X37528Y-21060D01*
X37685Y-21124D01*
X37854Y-21125D01*
X38010Y-21060D01*
X38130Y-20941D01*
X38194Y-20784D01*
X38195Y-20699D01*
X38496Y-20397D01*
X38552Y-20453D01*
X38644Y-20491D01*
X38743Y-20491D01*
X39468Y-20491D01*
X39468Y-20491D01*
G37*
G54D34*
X39468Y-20491D02*
X39239Y-20719D01*
X39159Y-20839D01*
X39131Y-20980D01*
X39131Y-22684D01*
X37177Y-24639D01*
X36201Y-24639D01*
X36212Y-24612D01*
X36212Y-24443D01*
X36147Y-24287D01*
X36028Y-24167D01*
X35872Y-24102D01*
X35703Y-24102D01*
X35565Y-24159D01*
X34955Y-24159D01*
X34418Y-23621D01*
X34436Y-23576D01*
X34470Y-23657D01*
X34625Y-23812D01*
X34827Y-23896D01*
X35045Y-23896D01*
X35248Y-23812D01*
X35403Y-23658D01*
X35486Y-23456D01*
X35487Y-23237D01*
X35403Y-23035D01*
X35353Y-22985D01*
X35353Y-21590D01*
X35353Y-21527D01*
X35291Y-21464D01*
X35053Y-21464D01*
X35053Y-21827D01*
X35116Y-21889D01*
X35153Y-21890D01*
X35245Y-21852D01*
X35315Y-21781D01*
X35353Y-21689D01*
X35353Y-21590D01*
X35353Y-22985D01*
X35248Y-22880D01*
X35046Y-22796D01*
X34953Y-22796D01*
X34953Y-21827D01*
X34953Y-21464D01*
X34791Y-21464D01*
X34716Y-21464D01*
X34553Y-21464D01*
X34553Y-21827D01*
X34616Y-21889D01*
X34653Y-21890D01*
X34745Y-21852D01*
X34753Y-21843D01*
X34762Y-21852D01*
X34854Y-21890D01*
X34891Y-21889D01*
X34953Y-21827D01*
X34953Y-22796D01*
X34828Y-22796D01*
X34625Y-22879D01*
X34471Y-23034D01*
X34437Y-23116D01*
X34403Y-23035D01*
X34248Y-22880D01*
X34046Y-22796D01*
X33828Y-22796D01*
X33625Y-22879D01*
X33487Y-23018D01*
X33487Y-22996D01*
X33449Y-22905D01*
X33378Y-22834D01*
X33286Y-22796D01*
X33250Y-22796D01*
X33250Y-22449D01*
X33716Y-21983D01*
X33716Y-21983D01*
X33781Y-21886D01*
X33786Y-21861D01*
X33853Y-21889D01*
X33953Y-21890D01*
X34153Y-21890D01*
X34245Y-21852D01*
X34253Y-21843D01*
X34262Y-21852D01*
X34354Y-21890D01*
X34391Y-21889D01*
X34453Y-21827D01*
X34453Y-21464D01*
X34446Y-21464D01*
X34446Y-21364D01*
X34453Y-21364D01*
X34453Y-21357D01*
X34553Y-21357D01*
X34553Y-21364D01*
X34716Y-21364D01*
X34791Y-21364D01*
X34953Y-21364D01*
X34953Y-21357D01*
X35053Y-21357D01*
X35053Y-21364D01*
X35291Y-21364D01*
X35353Y-21302D01*
X35353Y-21239D01*
X35353Y-21140D01*
X35315Y-21048D01*
X35276Y-21008D01*
X37244Y-21008D01*
X37244Y-21008D01*
X37358Y-20985D01*
X37358Y-20985D01*
X37416Y-20947D01*
X37528Y-21060D01*
X37685Y-21124D01*
X37854Y-21125D01*
X38010Y-21060D01*
X38130Y-20941D01*
X38194Y-20784D01*
X38195Y-20699D01*
X38496Y-20397D01*
X38552Y-20453D01*
X38644Y-20491D01*
X38743Y-20491D01*
X39468Y-20491D01*
G54D10*
G36*
X39474Y-17205D02*
X39467Y-17205D01*
X39467Y-17212D01*
X39367Y-17212D01*
X39367Y-17205D01*
X39359Y-17205D01*
X39359Y-17105D01*
X39367Y-17105D01*
X39367Y-17097D01*
X39467Y-17097D01*
X39467Y-17105D01*
X39474Y-17105D01*
X39474Y-17205D01*
X39474Y-17205D01*
G37*
G54D34*
X39474Y-17205D02*
X39467Y-17205D01*
X39467Y-17212D01*
X39367Y-17212D01*
X39367Y-17205D01*
X39359Y-17205D01*
X39359Y-17105D01*
X39367Y-17105D01*
X39367Y-17097D01*
X39467Y-17097D01*
X39467Y-17105D01*
X39474Y-17105D01*
X39474Y-17205D01*
G54D10*
G36*
X40792Y-28653D02*
X38095Y-31350D01*
X38000Y-31350D01*
X38000Y-31300D01*
X37962Y-31208D01*
X37891Y-31138D01*
X37799Y-31100D01*
X37700Y-31099D01*
X37100Y-31099D01*
X37008Y-31137D01*
X36938Y-31208D01*
X36900Y-31300D01*
X36899Y-31353D01*
X36835Y-31334D01*
X36765Y-31405D01*
X36765Y-31264D01*
X36737Y-31168D01*
X36531Y-31095D01*
X36313Y-31106D01*
X36162Y-31168D01*
X36134Y-31264D01*
X36450Y-31579D01*
X36765Y-31264D01*
X36765Y-31405D01*
X36520Y-31650D01*
X36526Y-31655D01*
X36455Y-31726D01*
X36450Y-31720D01*
X36134Y-32035D01*
X36162Y-32131D01*
X36217Y-32150D01*
X36138Y-32183D01*
X35984Y-32338D01*
X35950Y-32419D01*
X35916Y-32338D01*
X35761Y-32184D01*
X35680Y-32150D01*
X35761Y-32116D01*
X35915Y-31961D01*
X35947Y-31886D01*
X35968Y-31937D01*
X36064Y-31965D01*
X36379Y-31650D01*
X36064Y-31334D01*
X35968Y-31362D01*
X35949Y-31417D01*
X35916Y-31338D01*
X35761Y-31184D01*
X35559Y-31100D01*
X35341Y-31099D01*
X35138Y-31183D01*
X34984Y-31338D01*
X34950Y-31419D01*
X34916Y-31338D01*
X34761Y-31184D01*
X34559Y-31100D01*
X34341Y-31099D01*
X34138Y-31183D01*
X33984Y-31338D01*
X33950Y-31419D01*
X33916Y-31338D01*
X33761Y-31184D01*
X33559Y-31100D01*
X33341Y-31099D01*
X33138Y-31183D01*
X32984Y-31338D01*
X32900Y-31540D01*
X32899Y-31758D01*
X32983Y-31961D01*
X33138Y-32115D01*
X33219Y-32149D01*
X33138Y-32183D01*
X32984Y-32338D01*
X32900Y-32540D01*
X32899Y-32758D01*
X32937Y-32850D01*
X32730Y-32642D01*
X32730Y-30643D01*
X36175Y-30643D01*
X36315Y-30615D01*
X36435Y-30535D01*
X37776Y-29193D01*
X37776Y-29193D01*
X37776Y-29193D01*
X37779Y-29190D01*
X37859Y-29071D01*
X37887Y-28930D01*
X37884Y-28913D01*
X37884Y-27603D01*
X37946Y-27629D01*
X38115Y-27629D01*
X38271Y-27565D01*
X38336Y-27500D01*
X38300Y-27685D01*
X38300Y-28114D01*
X38341Y-28325D01*
X38461Y-28503D01*
X38639Y-28622D01*
X38850Y-28664D01*
X39060Y-28622D01*
X39238Y-28503D01*
X39350Y-28337D01*
X39461Y-28503D01*
X39639Y-28622D01*
X39850Y-28664D01*
X40060Y-28622D01*
X40238Y-28503D01*
X40350Y-28337D01*
X40461Y-28503D01*
X40639Y-28622D01*
X40792Y-28653D01*
X40792Y-28653D01*
G37*
G54D34*
X40792Y-28653D02*
X38095Y-31350D01*
X38000Y-31350D01*
X38000Y-31300D01*
X37962Y-31208D01*
X37891Y-31138D01*
X37799Y-31100D01*
X37700Y-31099D01*
X37100Y-31099D01*
X37008Y-31137D01*
X36938Y-31208D01*
X36900Y-31300D01*
X36899Y-31353D01*
X36835Y-31334D01*
X36765Y-31405D01*
X36765Y-31264D01*
X36737Y-31168D01*
X36531Y-31095D01*
X36313Y-31106D01*
X36162Y-31168D01*
X36134Y-31264D01*
X36450Y-31579D01*
X36765Y-31264D01*
X36765Y-31405D01*
X36520Y-31650D01*
X36526Y-31655D01*
X36455Y-31726D01*
X36450Y-31720D01*
X36134Y-32035D01*
X36162Y-32131D01*
X36217Y-32150D01*
X36138Y-32183D01*
X35984Y-32338D01*
X35950Y-32419D01*
X35916Y-32338D01*
X35761Y-32184D01*
X35680Y-32150D01*
X35761Y-32116D01*
X35915Y-31961D01*
X35947Y-31886D01*
X35968Y-31937D01*
X36064Y-31965D01*
X36379Y-31650D01*
X36064Y-31334D01*
X35968Y-31362D01*
X35949Y-31417D01*
X35916Y-31338D01*
X35761Y-31184D01*
X35559Y-31100D01*
X35341Y-31099D01*
X35138Y-31183D01*
X34984Y-31338D01*
X34950Y-31419D01*
X34916Y-31338D01*
X34761Y-31184D01*
X34559Y-31100D01*
X34341Y-31099D01*
X34138Y-31183D01*
X33984Y-31338D01*
X33950Y-31419D01*
X33916Y-31338D01*
X33761Y-31184D01*
X33559Y-31100D01*
X33341Y-31099D01*
X33138Y-31183D01*
X32984Y-31338D01*
X32900Y-31540D01*
X32899Y-31758D01*
X32983Y-31961D01*
X33138Y-32115D01*
X33219Y-32149D01*
X33138Y-32183D01*
X32984Y-32338D01*
X32900Y-32540D01*
X32899Y-32758D01*
X32937Y-32850D01*
X32730Y-32642D01*
X32730Y-30643D01*
X36175Y-30643D01*
X36315Y-30615D01*
X36435Y-30535D01*
X37776Y-29193D01*
X37776Y-29193D01*
X37776Y-29193D01*
X37779Y-29190D01*
X37859Y-29071D01*
X37887Y-28930D01*
X37884Y-28913D01*
X37884Y-27603D01*
X37946Y-27629D01*
X38115Y-27629D01*
X38271Y-27565D01*
X38336Y-27500D01*
X38300Y-27685D01*
X38300Y-28114D01*
X38341Y-28325D01*
X38461Y-28503D01*
X38639Y-28622D01*
X38850Y-28664D01*
X39060Y-28622D01*
X39238Y-28503D01*
X39350Y-28337D01*
X39461Y-28503D01*
X39639Y-28622D01*
X39850Y-28664D01*
X40060Y-28622D01*
X40238Y-28503D01*
X40350Y-28337D01*
X40461Y-28503D01*
X40639Y-28622D01*
X40792Y-28653D01*
G54D10*
G36*
X41096Y-16668D02*
X40696Y-17068D01*
X40729Y-16987D01*
X40730Y-16887D01*
X40730Y-16674D01*
X40814Y-16675D01*
X40877Y-16675D01*
X40940Y-16612D01*
X40940Y-16350D01*
X40577Y-16350D01*
X40547Y-16379D01*
X40529Y-16372D01*
X40430Y-16372D01*
X40170Y-16372D01*
X40170Y-16174D01*
X40344Y-16000D01*
X40586Y-16000D01*
X40552Y-16033D01*
X40514Y-16125D01*
X40515Y-16187D01*
X40577Y-16250D01*
X40940Y-16250D01*
X40940Y-16242D01*
X41040Y-16242D01*
X41040Y-16250D01*
X41047Y-16250D01*
X41047Y-16350D01*
X41040Y-16350D01*
X41040Y-16612D01*
X41096Y-16668D01*
X41096Y-16668D01*
G37*
G54D34*
X41096Y-16668D02*
X40696Y-17068D01*
X40729Y-16987D01*
X40730Y-16887D01*
X40730Y-16674D01*
X40814Y-16675D01*
X40877Y-16675D01*
X40940Y-16612D01*
X40940Y-16350D01*
X40577Y-16350D01*
X40547Y-16379D01*
X40529Y-16372D01*
X40430Y-16372D01*
X40170Y-16372D01*
X40170Y-16174D01*
X40344Y-16000D01*
X40586Y-16000D01*
X40552Y-16033D01*
X40514Y-16125D01*
X40515Y-16187D01*
X40577Y-16250D01*
X40940Y-16250D01*
X40940Y-16242D01*
X41040Y-16242D01*
X41040Y-16250D01*
X41047Y-16250D01*
X41047Y-16350D01*
X41040Y-16350D01*
X41040Y-16612D01*
X41096Y-16668D01*
G54D10*
G36*
X43581Y-13519D02*
X43219Y-13881D01*
X42740Y-13881D01*
X42648Y-13919D01*
X42578Y-13990D01*
X42540Y-14082D01*
X42540Y-14113D01*
X42087Y-14113D01*
X42087Y-14082D01*
X42049Y-13990D01*
X41978Y-13920D01*
X41886Y-13882D01*
X41787Y-13881D01*
X41087Y-13881D01*
X40995Y-13919D01*
X40925Y-13990D01*
X40887Y-14082D01*
X40886Y-14181D01*
X40886Y-14881D01*
X40924Y-14973D01*
X40927Y-14975D01*
X40393Y-14975D01*
X40394Y-14973D01*
X40432Y-14881D01*
X40433Y-14782D01*
X40433Y-14082D01*
X40395Y-13990D01*
X40324Y-13920D01*
X40232Y-13882D01*
X40133Y-13881D01*
X39433Y-13881D01*
X39341Y-13919D01*
X39271Y-13990D01*
X39233Y-14082D01*
X39232Y-14181D01*
X39232Y-14881D01*
X39270Y-14973D01*
X39341Y-15043D01*
X39433Y-15081D01*
X39532Y-15082D01*
X39962Y-15082D01*
X39421Y-15623D01*
X38750Y-14952D01*
X38779Y-14881D01*
X38780Y-14782D01*
X38780Y-14181D01*
X38780Y-12618D01*
X38780Y-12430D01*
X38717Y-12368D01*
X38230Y-12368D01*
X38230Y-12855D01*
X38292Y-12918D01*
X38579Y-12918D01*
X38671Y-12880D01*
X38741Y-12809D01*
X38779Y-12717D01*
X38780Y-12618D01*
X38780Y-14181D01*
X38779Y-14082D01*
X38741Y-13990D01*
X38671Y-13919D01*
X38579Y-13881D01*
X38292Y-13882D01*
X38230Y-13944D01*
X38230Y-14432D01*
X38717Y-14432D01*
X38780Y-14369D01*
X38780Y-14181D01*
X38780Y-14782D01*
X38780Y-14594D01*
X38717Y-14532D01*
X38230Y-14532D01*
X38230Y-14539D01*
X38130Y-14539D01*
X38130Y-14532D01*
X38130Y-14432D01*
X38130Y-13944D01*
X38130Y-12855D01*
X38130Y-12368D01*
X37642Y-12368D01*
X37580Y-12430D01*
X37579Y-12618D01*
X37580Y-12717D01*
X37618Y-12809D01*
X37688Y-12880D01*
X37780Y-12918D01*
X38067Y-12918D01*
X38130Y-12855D01*
X38130Y-13944D01*
X38067Y-13882D01*
X37780Y-13881D01*
X37688Y-13919D01*
X37618Y-13990D01*
X37580Y-14082D01*
X37579Y-14181D01*
X37580Y-14369D01*
X37642Y-14432D01*
X38130Y-14432D01*
X38130Y-14532D01*
X37642Y-14532D01*
X37580Y-14594D01*
X37579Y-14782D01*
X37580Y-14840D01*
X37160Y-14840D01*
X37125Y-14846D01*
X37126Y-14782D01*
X37126Y-14181D01*
X37125Y-14082D01*
X37087Y-13990D01*
X37017Y-13919D01*
X36925Y-13881D01*
X36638Y-13882D01*
X36576Y-13944D01*
X36576Y-14432D01*
X37063Y-14432D01*
X37126Y-14369D01*
X37126Y-14181D01*
X37126Y-14782D01*
X37126Y-14594D01*
X37063Y-14532D01*
X36576Y-14532D01*
X36576Y-15019D01*
X36638Y-15082D01*
X36793Y-15082D01*
X36777Y-15097D01*
X36712Y-15195D01*
X36707Y-15223D01*
X36649Y-15200D01*
X36550Y-15199D01*
X36420Y-15199D01*
X36302Y-15082D01*
X36413Y-15082D01*
X36476Y-15019D01*
X36476Y-14532D01*
X36468Y-14532D01*
X36468Y-14432D01*
X36476Y-14432D01*
X36476Y-13944D01*
X36413Y-13882D01*
X36126Y-13881D01*
X36068Y-13906D01*
X36068Y-13296D01*
X36446Y-12918D01*
X36925Y-12918D01*
X37017Y-12880D01*
X37087Y-12809D01*
X37125Y-12717D01*
X37126Y-12618D01*
X37126Y-11994D01*
X37352Y-11768D01*
X37676Y-11768D01*
X37618Y-11826D01*
X37580Y-11918D01*
X37579Y-12017D01*
X37580Y-12205D01*
X37642Y-12268D01*
X38130Y-12268D01*
X38130Y-12260D01*
X38230Y-12260D01*
X38230Y-12268D01*
X38717Y-12268D01*
X38780Y-12205D01*
X38780Y-12017D01*
X38779Y-11918D01*
X38741Y-11826D01*
X38683Y-11768D01*
X39329Y-11768D01*
X39271Y-11826D01*
X39233Y-11918D01*
X39232Y-12017D01*
X39232Y-12717D01*
X39270Y-12809D01*
X39341Y-12879D01*
X39433Y-12917D01*
X39532Y-12918D01*
X40232Y-12918D01*
X40324Y-12880D01*
X40394Y-12809D01*
X40432Y-12717D01*
X40433Y-12618D01*
X40433Y-11918D01*
X40395Y-11826D01*
X40336Y-11768D01*
X40983Y-11768D01*
X40925Y-11826D01*
X40887Y-11918D01*
X40886Y-12017D01*
X40886Y-12717D01*
X40924Y-12809D01*
X40995Y-12879D01*
X41087Y-12917D01*
X41186Y-12918D01*
X41886Y-12918D01*
X41978Y-12880D01*
X42048Y-12809D01*
X42086Y-12717D01*
X42087Y-12618D01*
X42087Y-11918D01*
X42049Y-11826D01*
X41990Y-11768D01*
X42636Y-11768D01*
X42578Y-11826D01*
X42540Y-11918D01*
X42539Y-12017D01*
X42539Y-12717D01*
X42577Y-12809D01*
X42648Y-12879D01*
X42740Y-12917D01*
X42839Y-12918D01*
X43539Y-12918D01*
X43581Y-12900D01*
X43581Y-13519D01*
X43581Y-13519D01*
G37*
G54D34*
X43581Y-13519D02*
X43219Y-13881D01*
X42740Y-13881D01*
X42648Y-13919D01*
X42578Y-13990D01*
X42540Y-14082D01*
X42540Y-14113D01*
X42087Y-14113D01*
X42087Y-14082D01*
X42049Y-13990D01*
X41978Y-13920D01*
X41886Y-13882D01*
X41787Y-13881D01*
X41087Y-13881D01*
X40995Y-13919D01*
X40925Y-13990D01*
X40887Y-14082D01*
X40886Y-14181D01*
X40886Y-14881D01*
X40924Y-14973D01*
X40927Y-14975D01*
X40393Y-14975D01*
X40394Y-14973D01*
X40432Y-14881D01*
X40433Y-14782D01*
X40433Y-14082D01*
X40395Y-13990D01*
X40324Y-13920D01*
X40232Y-13882D01*
X40133Y-13881D01*
X39433Y-13881D01*
X39341Y-13919D01*
X39271Y-13990D01*
X39233Y-14082D01*
X39232Y-14181D01*
X39232Y-14881D01*
X39270Y-14973D01*
X39341Y-15043D01*
X39433Y-15081D01*
X39532Y-15082D01*
X39962Y-15082D01*
X39421Y-15623D01*
X38750Y-14952D01*
X38779Y-14881D01*
X38780Y-14782D01*
X38780Y-14181D01*
X38780Y-12618D01*
X38780Y-12430D01*
X38717Y-12368D01*
X38230Y-12368D01*
X38230Y-12855D01*
X38292Y-12918D01*
X38579Y-12918D01*
X38671Y-12880D01*
X38741Y-12809D01*
X38779Y-12717D01*
X38780Y-12618D01*
X38780Y-14181D01*
X38779Y-14082D01*
X38741Y-13990D01*
X38671Y-13919D01*
X38579Y-13881D01*
X38292Y-13882D01*
X38230Y-13944D01*
X38230Y-14432D01*
X38717Y-14432D01*
X38780Y-14369D01*
X38780Y-14181D01*
X38780Y-14782D01*
X38780Y-14594D01*
X38717Y-14532D01*
X38230Y-14532D01*
X38230Y-14539D01*
X38130Y-14539D01*
X38130Y-14532D01*
X38130Y-14432D01*
X38130Y-13944D01*
X38130Y-12855D01*
X38130Y-12368D01*
X37642Y-12368D01*
X37580Y-12430D01*
X37579Y-12618D01*
X37580Y-12717D01*
X37618Y-12809D01*
X37688Y-12880D01*
X37780Y-12918D01*
X38067Y-12918D01*
X38130Y-12855D01*
X38130Y-13944D01*
X38067Y-13882D01*
X37780Y-13881D01*
X37688Y-13919D01*
X37618Y-13990D01*
X37580Y-14082D01*
X37579Y-14181D01*
X37580Y-14369D01*
X37642Y-14432D01*
X38130Y-14432D01*
X38130Y-14532D01*
X37642Y-14532D01*
X37580Y-14594D01*
X37579Y-14782D01*
X37580Y-14840D01*
X37160Y-14840D01*
X37125Y-14846D01*
X37126Y-14782D01*
X37126Y-14181D01*
X37125Y-14082D01*
X37087Y-13990D01*
X37017Y-13919D01*
X36925Y-13881D01*
X36638Y-13882D01*
X36576Y-13944D01*
X36576Y-14432D01*
X37063Y-14432D01*
X37126Y-14369D01*
X37126Y-14181D01*
X37126Y-14782D01*
X37126Y-14594D01*
X37063Y-14532D01*
X36576Y-14532D01*
X36576Y-15019D01*
X36638Y-15082D01*
X36793Y-15082D01*
X36777Y-15097D01*
X36712Y-15195D01*
X36707Y-15223D01*
X36649Y-15200D01*
X36550Y-15199D01*
X36420Y-15199D01*
X36302Y-15082D01*
X36413Y-15082D01*
X36476Y-15019D01*
X36476Y-14532D01*
X36468Y-14532D01*
X36468Y-14432D01*
X36476Y-14432D01*
X36476Y-13944D01*
X36413Y-13882D01*
X36126Y-13881D01*
X36068Y-13906D01*
X36068Y-13296D01*
X36446Y-12918D01*
X36925Y-12918D01*
X37017Y-12880D01*
X37087Y-12809D01*
X37125Y-12717D01*
X37126Y-12618D01*
X37126Y-11994D01*
X37352Y-11768D01*
X37676Y-11768D01*
X37618Y-11826D01*
X37580Y-11918D01*
X37579Y-12017D01*
X37580Y-12205D01*
X37642Y-12268D01*
X38130Y-12268D01*
X38130Y-12260D01*
X38230Y-12260D01*
X38230Y-12268D01*
X38717Y-12268D01*
X38780Y-12205D01*
X38780Y-12017D01*
X38779Y-11918D01*
X38741Y-11826D01*
X38683Y-11768D01*
X39329Y-11768D01*
X39271Y-11826D01*
X39233Y-11918D01*
X39232Y-12017D01*
X39232Y-12717D01*
X39270Y-12809D01*
X39341Y-12879D01*
X39433Y-12917D01*
X39532Y-12918D01*
X40232Y-12918D01*
X40324Y-12880D01*
X40394Y-12809D01*
X40432Y-12717D01*
X40433Y-12618D01*
X40433Y-11918D01*
X40395Y-11826D01*
X40336Y-11768D01*
X40983Y-11768D01*
X40925Y-11826D01*
X40887Y-11918D01*
X40886Y-12017D01*
X40886Y-12717D01*
X40924Y-12809D01*
X40995Y-12879D01*
X41087Y-12917D01*
X41186Y-12918D01*
X41886Y-12918D01*
X41978Y-12880D01*
X42048Y-12809D01*
X42086Y-12717D01*
X42087Y-12618D01*
X42087Y-11918D01*
X42049Y-11826D01*
X41990Y-11768D01*
X42636Y-11768D01*
X42578Y-11826D01*
X42540Y-11918D01*
X42539Y-12017D01*
X42539Y-12717D01*
X42577Y-12809D01*
X42648Y-12879D01*
X42740Y-12917D01*
X42839Y-12918D01*
X43539Y-12918D01*
X43581Y-12900D01*
X43581Y-13519D01*
G54D10*
G36*
X44796Y-17380D02*
X44733Y-17317D01*
X44696Y-17317D01*
X44646Y-17338D01*
X44646Y-17196D01*
X44796Y-17346D01*
X44796Y-17380D01*
X44796Y-17380D01*
G37*
G54D34*
X44796Y-17380D02*
X44733Y-17317D01*
X44696Y-17317D01*
X44646Y-17338D01*
X44646Y-17196D01*
X44796Y-17346D01*
X44796Y-17380D01*
G54D10*
G36*
X44857Y-17850D02*
X44796Y-17850D01*
X44796Y-17842D01*
X44788Y-17842D01*
X44788Y-17742D01*
X44796Y-17742D01*
X44796Y-17735D01*
X44857Y-17735D01*
X44857Y-17850D01*
X44857Y-17850D01*
G37*
G54D34*
X44857Y-17850D02*
X44796Y-17850D01*
X44796Y-17842D01*
X44788Y-17842D01*
X44788Y-17742D01*
X44796Y-17742D01*
X44796Y-17735D01*
X44857Y-17735D01*
X44857Y-17850D01*
G54D10*
G36*
X45133Y-21029D02*
X45114Y-20984D01*
X45044Y-20914D01*
X44952Y-20876D01*
X44852Y-20875D01*
X44644Y-20875D01*
X44668Y-20866D01*
X44739Y-20795D01*
X44777Y-20703D01*
X44777Y-20604D01*
X44777Y-20210D01*
X44739Y-20118D01*
X44669Y-20048D01*
X44577Y-20010D01*
X44477Y-20009D01*
X44354Y-20009D01*
X44354Y-19443D01*
X44421Y-19509D01*
X44513Y-19547D01*
X44750Y-19547D01*
X44812Y-19485D01*
X44812Y-18947D01*
X44804Y-18947D01*
X44804Y-18847D01*
X44812Y-18847D01*
X44812Y-18839D01*
X44912Y-18839D01*
X44912Y-18847D01*
X44920Y-18847D01*
X44920Y-18947D01*
X44912Y-18947D01*
X44912Y-19485D01*
X44975Y-19547D01*
X45133Y-19547D01*
X45133Y-21029D01*
X45133Y-21029D01*
G37*
G54D34*
X45133Y-21029D02*
X45114Y-20984D01*
X45044Y-20914D01*
X44952Y-20876D01*
X44852Y-20875D01*
X44644Y-20875D01*
X44668Y-20866D01*
X44739Y-20795D01*
X44777Y-20703D01*
X44777Y-20604D01*
X44777Y-20210D01*
X44739Y-20118D01*
X44669Y-20048D01*
X44577Y-20010D01*
X44477Y-20009D01*
X44354Y-20009D01*
X44354Y-19443D01*
X44421Y-19509D01*
X44513Y-19547D01*
X44750Y-19547D01*
X44812Y-19485D01*
X44812Y-18947D01*
X44804Y-18947D01*
X44804Y-18847D01*
X44812Y-18847D01*
X44812Y-18839D01*
X44912Y-18839D01*
X44912Y-18847D01*
X44920Y-18847D01*
X44920Y-18947D01*
X44912Y-18947D01*
X44912Y-19485D01*
X44975Y-19547D01*
X45133Y-19547D01*
X45133Y-21029D01*
G54D10*
G36*
X46170Y-27250D02*
X46060Y-27177D01*
X45850Y-27135D01*
X45639Y-27177D01*
X45461Y-27296D01*
X45350Y-27462D01*
X45238Y-27296D01*
X45060Y-27177D01*
X44850Y-27135D01*
X44639Y-27177D01*
X44461Y-27296D01*
X44350Y-27462D01*
X44238Y-27296D01*
X44060Y-27177D01*
X43850Y-27135D01*
X43639Y-27177D01*
X43461Y-27296D01*
X43350Y-27462D01*
X43238Y-27296D01*
X43060Y-27177D01*
X42850Y-27135D01*
X42639Y-27177D01*
X42461Y-27296D01*
X42350Y-27462D01*
X42238Y-27296D01*
X42060Y-27177D01*
X41850Y-27135D01*
X41639Y-27177D01*
X41461Y-27296D01*
X41350Y-27462D01*
X41238Y-27296D01*
X41060Y-27177D01*
X40850Y-27135D01*
X40639Y-27177D01*
X40461Y-27296D01*
X40350Y-27462D01*
X40238Y-27296D01*
X40060Y-27177D01*
X39850Y-27135D01*
X39639Y-27177D01*
X39461Y-27296D01*
X39350Y-27462D01*
X39238Y-27296D01*
X39060Y-27177D01*
X38850Y-27135D01*
X38639Y-27177D01*
X38461Y-27296D01*
X38441Y-27325D01*
X38448Y-27308D01*
X40393Y-25363D01*
X40458Y-25298D01*
X42520Y-25298D01*
X42660Y-25270D01*
X42780Y-25190D01*
X43515Y-24455D01*
X43549Y-24403D01*
X43553Y-24402D01*
X43624Y-24331D01*
X43629Y-24318D01*
X43635Y-24331D01*
X43705Y-24401D01*
X43797Y-24439D01*
X43897Y-24440D01*
X44212Y-24440D01*
X44303Y-24402D01*
X44374Y-24331D01*
X44412Y-24239D01*
X44412Y-24140D01*
X44412Y-24009D01*
X45333Y-23089D01*
X45333Y-26193D01*
X45355Y-26307D01*
X45420Y-26405D01*
X46170Y-27154D01*
X46170Y-27250D01*
X46170Y-27250D01*
G37*
G54D34*
X46170Y-27250D02*
X46060Y-27177D01*
X45850Y-27135D01*
X45639Y-27177D01*
X45461Y-27296D01*
X45350Y-27462D01*
X45238Y-27296D01*
X45060Y-27177D01*
X44850Y-27135D01*
X44639Y-27177D01*
X44461Y-27296D01*
X44350Y-27462D01*
X44238Y-27296D01*
X44060Y-27177D01*
X43850Y-27135D01*
X43639Y-27177D01*
X43461Y-27296D01*
X43350Y-27462D01*
X43238Y-27296D01*
X43060Y-27177D01*
X42850Y-27135D01*
X42639Y-27177D01*
X42461Y-27296D01*
X42350Y-27462D01*
X42238Y-27296D01*
X42060Y-27177D01*
X41850Y-27135D01*
X41639Y-27177D01*
X41461Y-27296D01*
X41350Y-27462D01*
X41238Y-27296D01*
X41060Y-27177D01*
X40850Y-27135D01*
X40639Y-27177D01*
X40461Y-27296D01*
X40350Y-27462D01*
X40238Y-27296D01*
X40060Y-27177D01*
X39850Y-27135D01*
X39639Y-27177D01*
X39461Y-27296D01*
X39350Y-27462D01*
X39238Y-27296D01*
X39060Y-27177D01*
X38850Y-27135D01*
X38639Y-27177D01*
X38461Y-27296D01*
X38441Y-27325D01*
X38448Y-27308D01*
X40393Y-25363D01*
X40458Y-25298D01*
X42520Y-25298D01*
X42660Y-25270D01*
X42780Y-25190D01*
X43515Y-24455D01*
X43549Y-24403D01*
X43553Y-24402D01*
X43624Y-24331D01*
X43629Y-24318D01*
X43635Y-24331D01*
X43705Y-24401D01*
X43797Y-24439D01*
X43897Y-24440D01*
X44212Y-24440D01*
X44303Y-24402D01*
X44374Y-24331D01*
X44412Y-24239D01*
X44412Y-24140D01*
X44412Y-24009D01*
X45333Y-23089D01*
X45333Y-26193D01*
X45355Y-26307D01*
X45420Y-26405D01*
X46170Y-27154D01*
X46170Y-27250D01*
G54D10*
G36*
X49125Y-36265D02*
X28770Y-36265D01*
X28770Y-34690D01*
X28680Y-34470D01*
X28680Y-32432D01*
X28680Y-32094D01*
X28617Y-32032D01*
X27980Y-32032D01*
X27980Y-32669D01*
X28042Y-32732D01*
X28479Y-32732D01*
X28571Y-32694D01*
X28641Y-32623D01*
X28679Y-32531D01*
X28680Y-32432D01*
X28680Y-34470D01*
X28643Y-34381D01*
X28406Y-34144D01*
X28097Y-34016D01*
X27880Y-34016D01*
X27880Y-32669D01*
X27880Y-32032D01*
X27242Y-32032D01*
X27180Y-32094D01*
X27179Y-32432D01*
X27180Y-32531D01*
X27218Y-32623D01*
X27288Y-32694D01*
X27380Y-32732D01*
X27817Y-32732D01*
X27880Y-32669D01*
X27880Y-34016D01*
X27763Y-34015D01*
X27454Y-34143D01*
X27217Y-34379D01*
X27089Y-34688D01*
X27089Y-35023D01*
X27217Y-35332D01*
X27453Y-35568D01*
X27762Y-35697D01*
X28096Y-35697D01*
X28405Y-35569D01*
X28642Y-35333D01*
X28770Y-35024D01*
X28770Y-34690D01*
X28770Y-36265D01*
X27026Y-36265D01*
X27026Y-32432D01*
X27026Y-32094D01*
X26963Y-32032D01*
X26326Y-32032D01*
X26326Y-32669D01*
X26388Y-32732D01*
X26825Y-32732D01*
X26917Y-32694D01*
X26987Y-32623D01*
X27025Y-32531D01*
X27026Y-32432D01*
X27026Y-36265D01*
X26226Y-36265D01*
X26226Y-32669D01*
X26226Y-32032D01*
X25588Y-32032D01*
X25526Y-32094D01*
X25525Y-32432D01*
X25526Y-32531D01*
X25564Y-32623D01*
X25634Y-32694D01*
X25726Y-32732D01*
X26163Y-32732D01*
X26226Y-32669D01*
X26226Y-36265D01*
X25374Y-36265D01*
X25374Y-32432D01*
X25374Y-31531D01*
X25373Y-31432D01*
X25335Y-31340D01*
X25265Y-31269D01*
X25173Y-31231D01*
X24736Y-31232D01*
X24674Y-31294D01*
X24674Y-31932D01*
X25311Y-31932D01*
X25374Y-31869D01*
X25374Y-31531D01*
X25374Y-32432D01*
X25374Y-32094D01*
X25311Y-32032D01*
X24674Y-32032D01*
X24674Y-32669D01*
X24736Y-32732D01*
X25173Y-32732D01*
X25265Y-32694D01*
X25335Y-32623D01*
X25373Y-32531D01*
X25374Y-32432D01*
X25374Y-36265D01*
X24574Y-36265D01*
X24574Y-32669D01*
X24574Y-32032D01*
X24574Y-31932D01*
X24574Y-31294D01*
X24511Y-31232D01*
X24074Y-31231D01*
X23982Y-31269D01*
X23912Y-31340D01*
X23874Y-31432D01*
X23873Y-31531D01*
X23874Y-31869D01*
X23936Y-31932D01*
X24574Y-31932D01*
X24574Y-32032D01*
X23936Y-32032D01*
X23874Y-32094D01*
X23873Y-32432D01*
X23874Y-32531D01*
X23912Y-32623D01*
X23982Y-32694D01*
X24074Y-32732D01*
X24511Y-32732D01*
X24574Y-32669D01*
X24574Y-36265D01*
X23810Y-36265D01*
X23810Y-34690D01*
X23720Y-34470D01*
X23720Y-32432D01*
X23720Y-32094D01*
X23657Y-32032D01*
X23020Y-32032D01*
X23020Y-32669D01*
X23082Y-32732D01*
X23519Y-32732D01*
X23611Y-32694D01*
X23681Y-32623D01*
X23719Y-32531D01*
X23720Y-32432D01*
X23720Y-34470D01*
X23683Y-34381D01*
X23446Y-34144D01*
X23137Y-34016D01*
X22920Y-34016D01*
X22920Y-32669D01*
X22920Y-32032D01*
X22282Y-32032D01*
X22220Y-32094D01*
X22219Y-32432D01*
X22220Y-32531D01*
X22258Y-32623D01*
X22328Y-32694D01*
X22420Y-32732D01*
X22857Y-32732D01*
X22920Y-32669D01*
X22920Y-34016D01*
X22803Y-34015D01*
X22494Y-34143D01*
X22257Y-34379D01*
X22129Y-34688D01*
X22129Y-35023D01*
X22257Y-35332D01*
X22493Y-35568D01*
X22802Y-35697D01*
X23136Y-35697D01*
X23445Y-35569D01*
X23682Y-35333D01*
X23810Y-35024D01*
X23810Y-34690D01*
X23810Y-36265D01*
X13362Y-36265D01*
X13495Y-36132D01*
X13638Y-35787D01*
X13639Y-35414D01*
X13496Y-35068D01*
X13232Y-34804D01*
X12887Y-34661D01*
X12514Y-34660D01*
X12168Y-34803D01*
X11904Y-35067D01*
X11761Y-35412D01*
X11760Y-35785D01*
X11903Y-36131D01*
X12037Y-36265D01*
X10025Y-36265D01*
X10025Y-8225D01*
X16967Y-8225D01*
X16861Y-8296D01*
X16741Y-8474D01*
X16700Y-8685D01*
X16700Y-9114D01*
X16741Y-9325D01*
X16861Y-9503D01*
X17039Y-9622D01*
X17250Y-9664D01*
X17460Y-9622D01*
X17638Y-9503D01*
X17750Y-9337D01*
X17861Y-9503D01*
X18039Y-9622D01*
X18250Y-9664D01*
X18460Y-9622D01*
X18638Y-9503D01*
X18750Y-9337D01*
X18861Y-9503D01*
X19039Y-9622D01*
X19250Y-9664D01*
X19460Y-9622D01*
X19638Y-9503D01*
X19753Y-9331D01*
X19761Y-9356D01*
X19896Y-9524D01*
X20085Y-9627D01*
X20114Y-9633D01*
X20200Y-9584D01*
X20200Y-8950D01*
X20192Y-8950D01*
X20192Y-8850D01*
X20200Y-8850D01*
X20200Y-8842D01*
X20300Y-8842D01*
X20300Y-8850D01*
X20307Y-8850D01*
X20307Y-8950D01*
X20300Y-8950D01*
X20300Y-9584D01*
X20385Y-9633D01*
X20414Y-9627D01*
X20603Y-9524D01*
X20738Y-9356D01*
X20746Y-9331D01*
X20861Y-9503D01*
X20950Y-9563D01*
X20950Y-10949D01*
X20750Y-10949D01*
X20658Y-10987D01*
X20588Y-11058D01*
X20561Y-11121D01*
X20410Y-10756D01*
X20115Y-10460D01*
X19729Y-10300D01*
X19312Y-10299D01*
X18926Y-10459D01*
X18630Y-10754D01*
X18470Y-11140D01*
X18469Y-11557D01*
X18629Y-11944D01*
X18924Y-12239D01*
X19310Y-12399D01*
X19727Y-12400D01*
X20114Y-12240D01*
X20409Y-11945D01*
X20549Y-11607D01*
X20549Y-11849D01*
X20587Y-11941D01*
X20658Y-12011D01*
X20750Y-12049D01*
X20849Y-12050D01*
X21649Y-12050D01*
X21700Y-12029D01*
X21750Y-12049D01*
X21849Y-12050D01*
X22649Y-12050D01*
X22700Y-12029D01*
X22750Y-12049D01*
X22849Y-12050D01*
X23649Y-12050D01*
X23700Y-12029D01*
X23750Y-12049D01*
X23849Y-12050D01*
X24649Y-12050D01*
X24700Y-12029D01*
X24750Y-12049D01*
X24849Y-12050D01*
X25649Y-12050D01*
X25700Y-12029D01*
X25750Y-12049D01*
X25849Y-12050D01*
X26649Y-12050D01*
X26741Y-12012D01*
X26811Y-11941D01*
X26849Y-11849D01*
X26850Y-11750D01*
X26850Y-11150D01*
X26812Y-11058D01*
X26741Y-10988D01*
X26649Y-10950D01*
X26550Y-10949D01*
X26550Y-10949D01*
X26550Y-9563D01*
X26638Y-9503D01*
X26758Y-9325D01*
X26800Y-9114D01*
X26800Y-8685D01*
X26758Y-8474D01*
X26638Y-8296D01*
X26532Y-8225D01*
X27567Y-8225D01*
X27461Y-8296D01*
X27341Y-8474D01*
X27300Y-8685D01*
X27300Y-9114D01*
X27341Y-9325D01*
X27461Y-9503D01*
X27639Y-9622D01*
X27850Y-9664D01*
X28060Y-9622D01*
X28238Y-9503D01*
X28350Y-9337D01*
X28461Y-9503D01*
X28639Y-9622D01*
X28850Y-9664D01*
X29060Y-9622D01*
X29238Y-9503D01*
X29350Y-9337D01*
X29461Y-9503D01*
X29639Y-9622D01*
X29850Y-9664D01*
X30060Y-9622D01*
X30238Y-9503D01*
X30350Y-9337D01*
X30461Y-9503D01*
X30639Y-9622D01*
X30850Y-9664D01*
X31060Y-9622D01*
X31238Y-9503D01*
X31350Y-9337D01*
X31461Y-9503D01*
X31639Y-9622D01*
X31850Y-9664D01*
X32060Y-9622D01*
X32238Y-9503D01*
X32350Y-9337D01*
X32461Y-9503D01*
X32550Y-9563D01*
X32550Y-9930D01*
X32550Y-11125D01*
X32237Y-11437D01*
X32172Y-11535D01*
X32150Y-11650D01*
X32150Y-11877D01*
X32128Y-11826D01*
X32058Y-11755D01*
X31966Y-11717D01*
X31679Y-11718D01*
X31617Y-11780D01*
X31617Y-12268D01*
X31624Y-12268D01*
X31624Y-12368D01*
X31617Y-12368D01*
X31617Y-12855D01*
X31679Y-12918D01*
X31966Y-12918D01*
X32058Y-12880D01*
X32128Y-12809D01*
X32150Y-12758D01*
X32150Y-13712D01*
X32172Y-13826D01*
X32237Y-13924D01*
X32619Y-14306D01*
X32619Y-14881D01*
X32657Y-14973D01*
X32728Y-15043D01*
X32820Y-15081D01*
X32919Y-15082D01*
X33619Y-15082D01*
X33711Y-15044D01*
X33781Y-14973D01*
X33819Y-14881D01*
X33820Y-14782D01*
X33820Y-14082D01*
X33782Y-13990D01*
X33711Y-13920D01*
X33619Y-13882D01*
X33520Y-13881D01*
X33044Y-13881D01*
X32750Y-13587D01*
X32750Y-12888D01*
X32820Y-12917D01*
X32919Y-12918D01*
X33619Y-12918D01*
X33711Y-12880D01*
X33781Y-12809D01*
X33819Y-12717D01*
X33820Y-12618D01*
X33820Y-12050D01*
X34352Y-11518D01*
X35205Y-11518D01*
X35925Y-12238D01*
X35925Y-12397D01*
X35474Y-12849D01*
X35474Y-12618D01*
X35474Y-12017D01*
X35473Y-11918D01*
X35435Y-11826D01*
X35365Y-11755D01*
X35273Y-11717D01*
X34986Y-11718D01*
X34924Y-11780D01*
X34924Y-12268D01*
X35411Y-12268D01*
X35474Y-12205D01*
X35474Y-12017D01*
X35474Y-12618D01*
X35474Y-12430D01*
X35411Y-12368D01*
X34924Y-12368D01*
X34924Y-12855D01*
X34986Y-12918D01*
X35273Y-12918D01*
X35365Y-12880D01*
X35435Y-12809D01*
X35473Y-12717D01*
X35474Y-12618D01*
X35474Y-12849D01*
X35439Y-12883D01*
X35359Y-13003D01*
X35331Y-13144D01*
X35331Y-13906D01*
X35273Y-13881D01*
X34986Y-13882D01*
X34924Y-13944D01*
X34924Y-14432D01*
X34931Y-14432D01*
X34931Y-14532D01*
X34924Y-14532D01*
X34924Y-15019D01*
X34986Y-15082D01*
X35273Y-15082D01*
X35342Y-15053D01*
X35359Y-15140D01*
X35439Y-15260D01*
X35558Y-15379D01*
X35557Y-15381D01*
X35328Y-15381D01*
X35281Y-15362D01*
X35112Y-15362D01*
X34956Y-15426D01*
X34836Y-15546D01*
X34824Y-15577D01*
X34824Y-15019D01*
X34824Y-14532D01*
X34824Y-14432D01*
X34824Y-13944D01*
X34824Y-12855D01*
X34824Y-12368D01*
X34824Y-12268D01*
X34824Y-11780D01*
X34761Y-11718D01*
X34474Y-11717D01*
X34382Y-11755D01*
X34312Y-11826D01*
X34274Y-11918D01*
X34273Y-12017D01*
X34274Y-12205D01*
X34336Y-12268D01*
X34824Y-12268D01*
X34824Y-12368D01*
X34336Y-12368D01*
X34274Y-12430D01*
X34273Y-12618D01*
X34274Y-12717D01*
X34312Y-12809D01*
X34382Y-12880D01*
X34474Y-12918D01*
X34761Y-12918D01*
X34824Y-12855D01*
X34824Y-13944D01*
X34761Y-13882D01*
X34474Y-13881D01*
X34382Y-13919D01*
X34312Y-13990D01*
X34274Y-14082D01*
X34273Y-14181D01*
X34274Y-14369D01*
X34336Y-14432D01*
X34824Y-14432D01*
X34824Y-14532D01*
X34336Y-14532D01*
X34274Y-14594D01*
X34273Y-14782D01*
X34274Y-14881D01*
X34312Y-14973D01*
X34382Y-15044D01*
X34474Y-15082D01*
X34761Y-15082D01*
X34824Y-15019D01*
X34824Y-15577D01*
X34771Y-15702D01*
X34771Y-15871D01*
X34836Y-16027D01*
X34955Y-16147D01*
X35010Y-16170D01*
X34451Y-16170D01*
X34391Y-16109D01*
X34234Y-16045D01*
X34065Y-16044D01*
X33909Y-16109D01*
X33789Y-16228D01*
X33725Y-16385D01*
X33724Y-16554D01*
X33789Y-16710D01*
X33908Y-16830D01*
X34065Y-16894D01*
X34234Y-16895D01*
X34390Y-16830D01*
X34451Y-16770D01*
X35549Y-16770D01*
X35549Y-16799D01*
X35549Y-17399D01*
X35587Y-17491D01*
X35658Y-17561D01*
X35692Y-17576D01*
X35633Y-17634D01*
X35595Y-17726D01*
X35595Y-17826D01*
X35595Y-18322D01*
X35496Y-18322D01*
X34932Y-17757D01*
X34834Y-17692D01*
X34720Y-17670D01*
X32710Y-17670D01*
X32595Y-17692D01*
X32497Y-17757D01*
X32167Y-18088D01*
X32167Y-14782D01*
X32167Y-14181D01*
X32166Y-14082D01*
X32128Y-13990D01*
X32058Y-13919D01*
X31966Y-13881D01*
X31679Y-13882D01*
X31617Y-13944D01*
X31617Y-14432D01*
X32104Y-14432D01*
X32167Y-14369D01*
X32167Y-14181D01*
X32167Y-14782D01*
X32167Y-14594D01*
X32104Y-14532D01*
X31617Y-14532D01*
X31617Y-15019D01*
X31679Y-15082D01*
X31966Y-15082D01*
X32058Y-15044D01*
X32128Y-14973D01*
X32166Y-14881D01*
X32167Y-14782D01*
X32167Y-18088D01*
X31525Y-18730D01*
X31525Y-17815D01*
X31517Y-17796D01*
X31517Y-15019D01*
X31517Y-14532D01*
X31517Y-14432D01*
X31517Y-13944D01*
X31517Y-12855D01*
X31517Y-12368D01*
X31517Y-12268D01*
X31517Y-11780D01*
X31454Y-11718D01*
X31167Y-11717D01*
X31075Y-11755D01*
X31005Y-11826D01*
X30967Y-11918D01*
X30966Y-12017D01*
X30967Y-12205D01*
X31029Y-12268D01*
X31517Y-12268D01*
X31517Y-12368D01*
X31029Y-12368D01*
X30967Y-12430D01*
X30966Y-12618D01*
X30967Y-12717D01*
X31005Y-12809D01*
X31075Y-12880D01*
X31167Y-12918D01*
X31454Y-12918D01*
X31517Y-12855D01*
X31517Y-13944D01*
X31454Y-13882D01*
X31167Y-13881D01*
X31075Y-13919D01*
X31005Y-13990D01*
X30967Y-14082D01*
X30966Y-14181D01*
X30967Y-14369D01*
X31029Y-14432D01*
X31517Y-14432D01*
X31517Y-14532D01*
X31029Y-14532D01*
X30967Y-14594D01*
X30966Y-14782D01*
X30967Y-14881D01*
X31005Y-14973D01*
X31075Y-15044D01*
X31167Y-15082D01*
X31454Y-15082D01*
X31517Y-15019D01*
X31517Y-17796D01*
X31460Y-17659D01*
X31341Y-17539D01*
X31184Y-17475D01*
X31015Y-17474D01*
X30900Y-17522D01*
X30900Y-17450D01*
X30879Y-17399D01*
X30899Y-17349D01*
X30900Y-17250D01*
X30900Y-16549D01*
X30899Y-16450D01*
X30861Y-16358D01*
X30791Y-16287D01*
X30699Y-16249D01*
X30513Y-16249D01*
X30513Y-14782D01*
X30513Y-14082D01*
X30513Y-12618D01*
X30513Y-11918D01*
X30475Y-11826D01*
X30404Y-11756D01*
X30312Y-11718D01*
X30213Y-11717D01*
X29513Y-11717D01*
X29421Y-11755D01*
X29351Y-11826D01*
X29313Y-11918D01*
X29312Y-12017D01*
X29312Y-12717D01*
X29350Y-12809D01*
X29421Y-12879D01*
X29513Y-12917D01*
X29612Y-12918D01*
X30312Y-12918D01*
X30404Y-12880D01*
X30474Y-12809D01*
X30512Y-12717D01*
X30513Y-12618D01*
X30513Y-14082D01*
X30475Y-13990D01*
X30404Y-13920D01*
X30312Y-13882D01*
X30213Y-13881D01*
X29513Y-13881D01*
X29421Y-13919D01*
X29351Y-13990D01*
X29313Y-14082D01*
X29312Y-14181D01*
X29312Y-14881D01*
X29350Y-14973D01*
X29421Y-15043D01*
X29513Y-15081D01*
X29612Y-15082D01*
X30312Y-15082D01*
X30404Y-15044D01*
X30474Y-14973D01*
X30512Y-14881D01*
X30513Y-14782D01*
X30513Y-16249D01*
X30462Y-16250D01*
X30400Y-16312D01*
X30400Y-16850D01*
X30837Y-16850D01*
X30900Y-16787D01*
X30900Y-16549D01*
X30900Y-17250D01*
X30900Y-17012D01*
X30837Y-16950D01*
X30400Y-16950D01*
X30400Y-16957D01*
X30300Y-16957D01*
X30300Y-16950D01*
X29862Y-16950D01*
X29800Y-17012D01*
X29799Y-17250D01*
X29800Y-17349D01*
X29820Y-17400D01*
X29800Y-17450D01*
X29799Y-17549D01*
X29799Y-18349D01*
X29837Y-18441D01*
X29908Y-18511D01*
X30000Y-18549D01*
X30099Y-18550D01*
X30699Y-18550D01*
X30791Y-18512D01*
X30861Y-18441D01*
X30899Y-18349D01*
X30900Y-18277D01*
X31015Y-18324D01*
X31184Y-18325D01*
X31340Y-18260D01*
X31460Y-18141D01*
X31524Y-17984D01*
X31525Y-17815D01*
X31525Y-18730D01*
X30523Y-19732D01*
X29493Y-19732D01*
X29378Y-19754D01*
X29280Y-19819D01*
X28575Y-20524D01*
X28500Y-20524D01*
X28408Y-20562D01*
X28400Y-20571D01*
X28391Y-20563D01*
X28299Y-20525D01*
X28200Y-20524D01*
X28000Y-20524D01*
X27908Y-20562D01*
X27900Y-20571D01*
X27891Y-20563D01*
X27799Y-20525D01*
X27700Y-20524D01*
X27500Y-20524D01*
X27450Y-20545D01*
X27450Y-19630D01*
X28346Y-19630D01*
X28346Y-19630D01*
X28461Y-19607D01*
X28461Y-19607D01*
X28558Y-19542D01*
X28726Y-19375D01*
X28799Y-19375D01*
X28891Y-19337D01*
X28899Y-19328D01*
X28908Y-19336D01*
X29000Y-19374D01*
X29099Y-19375D01*
X29299Y-19375D01*
X29391Y-19337D01*
X29461Y-19266D01*
X29499Y-19174D01*
X29500Y-19075D01*
X29500Y-18625D01*
X29462Y-18533D01*
X29455Y-18526D01*
X29491Y-18512D01*
X29561Y-18441D01*
X29599Y-18349D01*
X29600Y-18250D01*
X29600Y-17450D01*
X29579Y-17399D01*
X29599Y-17349D01*
X29600Y-17250D01*
X29600Y-16450D01*
X29568Y-16375D01*
X29574Y-16375D01*
X29666Y-16337D01*
X29700Y-16303D01*
X29733Y-16337D01*
X29825Y-16375D01*
X29831Y-16375D01*
X29800Y-16450D01*
X29799Y-16549D01*
X29800Y-16787D01*
X29862Y-16850D01*
X30300Y-16850D01*
X30300Y-16312D01*
X30295Y-16308D01*
X30336Y-16266D01*
X30374Y-16174D01*
X30375Y-16075D01*
X30375Y-15724D01*
X30374Y-15625D01*
X30336Y-15533D01*
X30266Y-15462D01*
X30174Y-15424D01*
X30112Y-15425D01*
X30050Y-15487D01*
X30050Y-15850D01*
X30312Y-15850D01*
X30375Y-15787D01*
X30375Y-15724D01*
X30375Y-16075D01*
X30375Y-16012D01*
X30312Y-15950D01*
X30050Y-15950D01*
X30050Y-15957D01*
X29950Y-15957D01*
X29950Y-15950D01*
X29942Y-15950D01*
X29942Y-15850D01*
X29950Y-15850D01*
X29950Y-15487D01*
X29887Y-15425D01*
X29825Y-15424D01*
X29733Y-15462D01*
X29700Y-15496D01*
X29666Y-15463D01*
X29574Y-15425D01*
X29475Y-15424D01*
X29225Y-15424D01*
X29133Y-15462D01*
X29063Y-15533D01*
X29025Y-15625D01*
X29024Y-15724D01*
X29024Y-15850D01*
X28860Y-16015D01*
X28860Y-14782D01*
X28860Y-14082D01*
X28822Y-13990D01*
X28751Y-13920D01*
X28659Y-13882D01*
X28628Y-13882D01*
X28628Y-12918D01*
X28659Y-12918D01*
X28751Y-12880D01*
X28821Y-12809D01*
X28859Y-12717D01*
X28860Y-12618D01*
X28860Y-11918D01*
X28822Y-11826D01*
X28751Y-11756D01*
X28659Y-11718D01*
X28560Y-11717D01*
X27860Y-11717D01*
X27768Y-11755D01*
X27698Y-11826D01*
X27660Y-11918D01*
X27659Y-12017D01*
X27659Y-12717D01*
X27697Y-12809D01*
X27768Y-12879D01*
X27860Y-12917D01*
X27891Y-12917D01*
X27891Y-13881D01*
X27860Y-13881D01*
X27768Y-13919D01*
X27698Y-13990D01*
X27660Y-14082D01*
X27659Y-14181D01*
X27659Y-14881D01*
X27697Y-14973D01*
X27768Y-15043D01*
X27860Y-15081D01*
X27959Y-15082D01*
X28659Y-15082D01*
X28751Y-15044D01*
X28821Y-14973D01*
X28859Y-14881D01*
X28860Y-14782D01*
X28860Y-16015D01*
X28837Y-16037D01*
X28772Y-16135D01*
X28750Y-16249D01*
X28700Y-16249D01*
X28608Y-16287D01*
X28538Y-16358D01*
X28500Y-16450D01*
X28499Y-16549D01*
X28499Y-17349D01*
X28520Y-17400D01*
X28500Y-17450D01*
X28499Y-17549D01*
X28499Y-17775D01*
X27937Y-18337D01*
X27872Y-18435D01*
X27869Y-18453D01*
X27799Y-18424D01*
X27762Y-18425D01*
X27700Y-18487D01*
X27700Y-18850D01*
X27707Y-18850D01*
X27707Y-18950D01*
X27700Y-18950D01*
X27700Y-18957D01*
X27600Y-18957D01*
X27600Y-18950D01*
X27592Y-18950D01*
X27592Y-18850D01*
X27600Y-18850D01*
X27600Y-18487D01*
X27537Y-18425D01*
X27500Y-18424D01*
X27408Y-18462D01*
X27400Y-18471D01*
X27391Y-18463D01*
X27299Y-18425D01*
X27200Y-18424D01*
X27000Y-18424D01*
X26950Y-18445D01*
X26950Y-18350D01*
X27099Y-18350D01*
X27191Y-18312D01*
X27261Y-18241D01*
X27299Y-18149D01*
X27300Y-18050D01*
X27300Y-17450D01*
X27262Y-17358D01*
X27191Y-17288D01*
X27099Y-17250D01*
X27000Y-17249D01*
X26200Y-17249D01*
X26108Y-17287D01*
X26085Y-17311D01*
X25874Y-17100D01*
X25875Y-17015D01*
X25810Y-16859D01*
X25691Y-16739D01*
X25563Y-16687D01*
X25599Y-16599D01*
X25600Y-16500D01*
X25600Y-16450D01*
X25999Y-16450D01*
X25999Y-16849D01*
X26037Y-16941D01*
X26108Y-17011D01*
X26200Y-17049D01*
X26299Y-17050D01*
X27099Y-17050D01*
X27191Y-17012D01*
X27261Y-16941D01*
X27299Y-16849D01*
X27300Y-16750D01*
X27300Y-16150D01*
X27262Y-16058D01*
X27191Y-15988D01*
X27099Y-15950D01*
X27000Y-15949D01*
X26524Y-15949D01*
X26512Y-15937D01*
X26414Y-15872D01*
X26300Y-15850D01*
X25600Y-15850D01*
X25600Y-15700D01*
X25562Y-15608D01*
X25491Y-15538D01*
X25399Y-15500D01*
X25350Y-15500D01*
X25350Y-14800D01*
X25399Y-14800D01*
X25491Y-14762D01*
X25561Y-14691D01*
X25599Y-14599D01*
X25600Y-14549D01*
X25696Y-14781D01*
X25932Y-15018D01*
X26241Y-15146D01*
X26575Y-15146D01*
X26884Y-15018D01*
X27121Y-14782D01*
X27249Y-14473D01*
X27249Y-14139D01*
X27121Y-13830D01*
X26885Y-13593D01*
X26576Y-13465D01*
X26242Y-13465D01*
X26185Y-13489D01*
X26324Y-13350D01*
X26649Y-13350D01*
X26741Y-13312D01*
X26811Y-13241D01*
X26849Y-13149D01*
X26850Y-13050D01*
X26850Y-12450D01*
X26812Y-12358D01*
X26741Y-12288D01*
X26649Y-12250D01*
X26550Y-12249D01*
X25750Y-12249D01*
X25699Y-12270D01*
X25649Y-12250D01*
X25550Y-12249D01*
X24750Y-12249D01*
X24699Y-12270D01*
X24649Y-12250D01*
X24550Y-12249D01*
X23750Y-12249D01*
X23699Y-12270D01*
X23649Y-12250D01*
X23550Y-12249D01*
X22750Y-12249D01*
X22699Y-12270D01*
X22649Y-12250D01*
X22550Y-12249D01*
X21750Y-12249D01*
X21699Y-12270D01*
X21649Y-12250D01*
X21550Y-12249D01*
X20750Y-12249D01*
X20658Y-12287D01*
X20588Y-12358D01*
X20550Y-12450D01*
X20549Y-12549D01*
X20549Y-12825D01*
X19775Y-13599D01*
X19200Y-13599D01*
X19108Y-13637D01*
X19038Y-13708D01*
X19000Y-13800D01*
X18999Y-13899D01*
X18999Y-14499D01*
X19037Y-14591D01*
X19096Y-14650D01*
X19037Y-14708D01*
X18999Y-14800D01*
X19000Y-15037D01*
X19062Y-15100D01*
X19600Y-15100D01*
X19600Y-15092D01*
X19700Y-15092D01*
X19700Y-15100D01*
X19707Y-15100D01*
X19707Y-15200D01*
X19700Y-15200D01*
X19700Y-15207D01*
X19600Y-15207D01*
X19600Y-15200D01*
X19062Y-15200D01*
X19000Y-15262D01*
X18999Y-15499D01*
X19037Y-15591D01*
X19096Y-15650D01*
X19038Y-15708D01*
X19000Y-15800D01*
X18999Y-15899D01*
X18999Y-16499D01*
X19037Y-16591D01*
X19096Y-16650D01*
X19037Y-16708D01*
X18999Y-16800D01*
X19000Y-17037D01*
X19062Y-17100D01*
X19600Y-17100D01*
X19600Y-17092D01*
X19700Y-17092D01*
X19700Y-17100D01*
X19707Y-17100D01*
X19707Y-17200D01*
X19700Y-17200D01*
X19700Y-17637D01*
X19762Y-17700D01*
X19925Y-17700D01*
X19775Y-17849D01*
X19600Y-17849D01*
X19600Y-17637D01*
X19600Y-17200D01*
X19062Y-17200D01*
X19000Y-17262D01*
X18999Y-17499D01*
X19037Y-17591D01*
X19108Y-17661D01*
X19200Y-17699D01*
X19299Y-17700D01*
X19537Y-17700D01*
X19600Y-17637D01*
X19600Y-17849D01*
X19200Y-17849D01*
X19108Y-17887D01*
X19038Y-17958D01*
X19000Y-18050D01*
X18999Y-18149D01*
X18999Y-18749D01*
X19037Y-18841D01*
X19096Y-18900D01*
X19037Y-18958D01*
X18999Y-19050D01*
X19000Y-19287D01*
X19062Y-19350D01*
X19600Y-19350D01*
X19600Y-19342D01*
X19700Y-19342D01*
X19700Y-19350D01*
X20237Y-19350D01*
X20300Y-19287D01*
X20300Y-19050D01*
X20262Y-18958D01*
X20203Y-18899D01*
X20261Y-18841D01*
X20299Y-18749D01*
X20300Y-18650D01*
X20300Y-18174D01*
X20812Y-17662D01*
X20812Y-17662D01*
X20877Y-17564D01*
X20899Y-17450D01*
X20900Y-17450D01*
X20900Y-14874D01*
X22018Y-13755D01*
X22000Y-13800D01*
X21999Y-13899D01*
X21999Y-14499D01*
X22037Y-14591D01*
X22096Y-14650D01*
X22038Y-14708D01*
X22000Y-14800D01*
X21999Y-14899D01*
X21999Y-15499D01*
X22037Y-15591D01*
X22096Y-15650D01*
X22038Y-15708D01*
X22000Y-15800D01*
X21999Y-15899D01*
X21999Y-16499D01*
X22037Y-16591D01*
X22096Y-16650D01*
X22038Y-16708D01*
X22000Y-16800D01*
X21999Y-16899D01*
X21999Y-17499D01*
X22037Y-17591D01*
X22108Y-17661D01*
X22200Y-17699D01*
X22299Y-17700D01*
X23099Y-17700D01*
X23191Y-17662D01*
X23261Y-17591D01*
X23299Y-17499D01*
X23299Y-17450D01*
X24100Y-17450D01*
X24100Y-17750D01*
X24099Y-17750D01*
X24000Y-17749D01*
X23400Y-17749D01*
X23308Y-17787D01*
X23238Y-17858D01*
X23215Y-17912D01*
X23191Y-17888D01*
X23099Y-17850D01*
X23000Y-17849D01*
X22200Y-17849D01*
X22108Y-17887D01*
X22038Y-17958D01*
X22000Y-18050D01*
X21999Y-18149D01*
X21999Y-18749D01*
X22037Y-18841D01*
X22096Y-18900D01*
X22038Y-18958D01*
X22000Y-19050D01*
X21999Y-19149D01*
X21999Y-19225D01*
X21637Y-19587D01*
X21572Y-19685D01*
X21550Y-19800D01*
X21550Y-20600D01*
X21572Y-20714D01*
X21637Y-20812D01*
X21999Y-21174D01*
X21999Y-21625D01*
X21287Y-22337D01*
X21222Y-22435D01*
X21200Y-22550D01*
X21200Y-24875D01*
X20925Y-25150D01*
X20925Y-24565D01*
X20925Y-22565D01*
X20860Y-22409D01*
X20825Y-22374D01*
X20825Y-20265D01*
X20760Y-20109D01*
X20641Y-19989D01*
X20484Y-19925D01*
X20315Y-19924D01*
X20253Y-19950D01*
X20203Y-19900D01*
X20262Y-19841D01*
X20300Y-19749D01*
X20300Y-19512D01*
X20237Y-19450D01*
X19700Y-19450D01*
X19700Y-19457D01*
X19600Y-19457D01*
X19600Y-19450D01*
X19062Y-19450D01*
X19000Y-19512D01*
X18999Y-19749D01*
X19037Y-19841D01*
X19096Y-19900D01*
X19038Y-19958D01*
X19000Y-20050D01*
X18999Y-20149D01*
X18999Y-20749D01*
X19037Y-20841D01*
X19096Y-20900D01*
X19037Y-20958D01*
X18999Y-21050D01*
X19000Y-21287D01*
X19062Y-21350D01*
X19600Y-21350D01*
X19600Y-21342D01*
X19700Y-21342D01*
X19700Y-21350D01*
X20237Y-21350D01*
X20300Y-21287D01*
X20300Y-21050D01*
X20262Y-20958D01*
X20203Y-20899D01*
X20261Y-20841D01*
X20293Y-20765D01*
X20315Y-20774D01*
X20484Y-20775D01*
X20640Y-20710D01*
X20760Y-20591D01*
X20824Y-20434D01*
X20825Y-20265D01*
X20825Y-22374D01*
X20741Y-22289D01*
X20584Y-22225D01*
X20415Y-22224D01*
X20300Y-22272D01*
X20300Y-21749D01*
X20300Y-21512D01*
X20237Y-21450D01*
X19700Y-21450D01*
X19700Y-21887D01*
X19762Y-21950D01*
X20000Y-21950D01*
X20099Y-21949D01*
X20191Y-21911D01*
X20262Y-21841D01*
X20300Y-21749D01*
X20300Y-22272D01*
X20290Y-22276D01*
X20262Y-22208D01*
X20191Y-22138D01*
X20099Y-22100D01*
X20000Y-22099D01*
X19600Y-22099D01*
X19600Y-21887D01*
X19600Y-21450D01*
X19062Y-21450D01*
X19000Y-21512D01*
X18999Y-21749D01*
X19037Y-21841D01*
X19108Y-21911D01*
X19200Y-21949D01*
X19299Y-21950D01*
X19537Y-21950D01*
X19600Y-21887D01*
X19600Y-22099D01*
X19200Y-22099D01*
X19108Y-22137D01*
X19038Y-22208D01*
X19000Y-22300D01*
X18999Y-22399D01*
X18999Y-22999D01*
X19037Y-23091D01*
X19096Y-23150D01*
X19037Y-23208D01*
X18999Y-23300D01*
X19000Y-23537D01*
X19062Y-23600D01*
X19600Y-23600D01*
X19600Y-23592D01*
X19700Y-23592D01*
X19700Y-23600D01*
X20237Y-23600D01*
X20300Y-23537D01*
X20300Y-23300D01*
X20262Y-23208D01*
X20203Y-23149D01*
X20261Y-23091D01*
X20290Y-23023D01*
X20415Y-23074D01*
X20584Y-23075D01*
X20740Y-23010D01*
X20860Y-22891D01*
X20924Y-22734D01*
X20925Y-22565D01*
X20925Y-24565D01*
X20860Y-24409D01*
X20741Y-24289D01*
X20584Y-24225D01*
X20415Y-24224D01*
X20290Y-24276D01*
X20262Y-24208D01*
X20203Y-24150D01*
X20262Y-24091D01*
X20300Y-23999D01*
X20300Y-23762D01*
X20237Y-23700D01*
X19700Y-23700D01*
X19700Y-23707D01*
X19600Y-23707D01*
X19600Y-23700D01*
X19062Y-23700D01*
X19000Y-23762D01*
X18999Y-23999D01*
X19037Y-24091D01*
X19096Y-24150D01*
X19038Y-24208D01*
X19000Y-24300D01*
X18999Y-24399D01*
X18999Y-24999D01*
X19037Y-25091D01*
X19096Y-25150D01*
X19037Y-25208D01*
X18999Y-25300D01*
X19000Y-25537D01*
X19062Y-25600D01*
X19600Y-25600D01*
X19600Y-25592D01*
X19700Y-25592D01*
X19700Y-25600D01*
X20237Y-25600D01*
X20300Y-25537D01*
X20300Y-25300D01*
X20262Y-25208D01*
X20203Y-25149D01*
X20261Y-25091D01*
X20290Y-25023D01*
X20415Y-25074D01*
X20584Y-25075D01*
X20740Y-25010D01*
X20860Y-24891D01*
X20924Y-24734D01*
X20925Y-24565D01*
X20925Y-25150D01*
X20300Y-25775D01*
X20300Y-25762D01*
X20237Y-25700D01*
X19700Y-25700D01*
X19700Y-25707D01*
X19600Y-25707D01*
X19600Y-25700D01*
X19062Y-25700D01*
X19000Y-25762D01*
X18999Y-25999D01*
X19037Y-26091D01*
X19108Y-26161D01*
X19182Y-26192D01*
X18814Y-26561D01*
X18791Y-26538D01*
X18699Y-26500D01*
X18600Y-26499D01*
X18000Y-26499D01*
X17908Y-26537D01*
X17838Y-26608D01*
X17800Y-26700D01*
X17799Y-26799D01*
X17799Y-27599D01*
X17837Y-27691D01*
X17908Y-27761D01*
X18000Y-27799D01*
X18099Y-27800D01*
X18699Y-27800D01*
X18791Y-27762D01*
X18861Y-27691D01*
X18899Y-27599D01*
X18900Y-27500D01*
X18900Y-27324D01*
X19300Y-26924D01*
X19299Y-26999D01*
X19299Y-27599D01*
X19337Y-27691D01*
X19408Y-27761D01*
X19500Y-27799D01*
X19599Y-27800D01*
X20300Y-27800D01*
X20300Y-27999D01*
X19500Y-27999D01*
X19408Y-28037D01*
X19338Y-28108D01*
X19300Y-28200D01*
X19300Y-28250D01*
X18900Y-28250D01*
X18785Y-28272D01*
X18687Y-28337D01*
X18100Y-28924D01*
X17525Y-28924D01*
X17433Y-28962D01*
X17363Y-29033D01*
X17325Y-29125D01*
X17324Y-29224D01*
X17324Y-29824D01*
X17362Y-29916D01*
X17433Y-29986D01*
X17525Y-30024D01*
X17624Y-30025D01*
X18424Y-30025D01*
X18516Y-29987D01*
X18586Y-29916D01*
X18624Y-29824D01*
X18625Y-29725D01*
X18625Y-29249D01*
X19024Y-28850D01*
X19299Y-28850D01*
X19299Y-28899D01*
X19337Y-28991D01*
X19408Y-29061D01*
X19500Y-29099D01*
X19599Y-29100D01*
X20399Y-29100D01*
X20491Y-29062D01*
X20561Y-28991D01*
X20599Y-28899D01*
X20600Y-28800D01*
X20600Y-28596D01*
X20639Y-28622D01*
X20850Y-28664D01*
X21060Y-28622D01*
X21238Y-28503D01*
X21350Y-28337D01*
X21461Y-28503D01*
X21639Y-28622D01*
X21850Y-28664D01*
X22060Y-28622D01*
X22238Y-28503D01*
X22350Y-28337D01*
X22461Y-28503D01*
X22639Y-28622D01*
X22850Y-28664D01*
X23060Y-28622D01*
X23238Y-28503D01*
X23350Y-28337D01*
X23461Y-28503D01*
X23639Y-28622D01*
X23850Y-28664D01*
X24060Y-28622D01*
X24238Y-28503D01*
X24350Y-28337D01*
X24461Y-28503D01*
X24639Y-28622D01*
X24850Y-28664D01*
X25060Y-28622D01*
X25238Y-28503D01*
X25353Y-28331D01*
X25361Y-28356D01*
X25496Y-28524D01*
X25685Y-28627D01*
X25714Y-28633D01*
X25800Y-28584D01*
X25800Y-27950D01*
X25792Y-27950D01*
X25792Y-27850D01*
X25800Y-27850D01*
X25800Y-27215D01*
X25789Y-27209D01*
X25909Y-27090D01*
X25925Y-27090D01*
X25924Y-27200D01*
X25900Y-27215D01*
X25900Y-27850D01*
X26300Y-27850D01*
X26400Y-27850D01*
X26800Y-27850D01*
X26800Y-27842D01*
X26900Y-27842D01*
X26900Y-27850D01*
X26907Y-27850D01*
X26907Y-27950D01*
X26900Y-27950D01*
X26900Y-28584D01*
X26962Y-28620D01*
X26933Y-28639D01*
X26800Y-28773D01*
X26800Y-28584D01*
X26800Y-27950D01*
X26400Y-27950D01*
X26300Y-27950D01*
X25900Y-27950D01*
X25900Y-28584D01*
X25985Y-28633D01*
X26014Y-28627D01*
X26203Y-28524D01*
X26338Y-28356D01*
X26350Y-28319D01*
X26361Y-28356D01*
X26496Y-28524D01*
X26685Y-28627D01*
X26714Y-28633D01*
X26800Y-28584D01*
X26800Y-28773D01*
X26505Y-29067D01*
X25726Y-29067D01*
X25634Y-29105D01*
X25564Y-29176D01*
X25526Y-29268D01*
X25525Y-29367D01*
X25525Y-30199D01*
X25374Y-30047D01*
X25374Y-29268D01*
X25336Y-29176D01*
X25265Y-29106D01*
X25173Y-29068D01*
X25074Y-29067D01*
X24074Y-29067D01*
X23982Y-29105D01*
X23912Y-29176D01*
X23874Y-29268D01*
X23873Y-29367D01*
X23873Y-30255D01*
X23690Y-30438D01*
X23719Y-30367D01*
X23720Y-30268D01*
X23720Y-29268D01*
X23682Y-29176D01*
X23611Y-29106D01*
X23519Y-29068D01*
X23420Y-29067D01*
X22420Y-29067D01*
X22328Y-29105D01*
X22258Y-29176D01*
X22220Y-29268D01*
X22219Y-29367D01*
X22219Y-30367D01*
X22257Y-30459D01*
X22328Y-30529D01*
X22371Y-30547D01*
X22309Y-30559D01*
X22189Y-30639D01*
X20939Y-31889D01*
X20859Y-32009D01*
X20831Y-32150D01*
X20831Y-34297D01*
X20192Y-34937D01*
X20195Y-34927D01*
X20195Y-32927D01*
X20187Y-32632D01*
X20090Y-32396D01*
X19974Y-32345D01*
X19904Y-32416D01*
X19904Y-32275D01*
X19853Y-32159D01*
X19577Y-32054D01*
X19282Y-32062D01*
X19046Y-32159D01*
X18995Y-32275D01*
X19450Y-32729D01*
X19904Y-32275D01*
X19904Y-32416D01*
X19520Y-32800D01*
X19974Y-33254D01*
X20090Y-33203D01*
X20195Y-32927D01*
X20195Y-34927D01*
X20187Y-34632D01*
X20090Y-34396D01*
X19974Y-34345D01*
X19520Y-34800D01*
X19526Y-34805D01*
X19455Y-34876D01*
X19450Y-34870D01*
X18995Y-35324D01*
X19046Y-35440D01*
X19155Y-35481D01*
X17752Y-35481D01*
X17853Y-35440D01*
X17904Y-35324D01*
X17450Y-34870D01*
X17379Y-34941D01*
X17379Y-34800D01*
X16925Y-34345D01*
X16809Y-34396D01*
X16704Y-34672D01*
X16712Y-34967D01*
X16809Y-35203D01*
X16925Y-35254D01*
X17379Y-34800D01*
X17379Y-34941D01*
X16995Y-35324D01*
X17046Y-35440D01*
X17155Y-35481D01*
X15254Y-35481D01*
X15254Y-34681D01*
X15243Y-34463D01*
X15181Y-34312D01*
X15085Y-34284D01*
X14770Y-34600D01*
X15085Y-34915D01*
X15181Y-34887D01*
X15254Y-34681D01*
X15254Y-35481D01*
X14952Y-35481D01*
X14625Y-35154D01*
X14836Y-35143D01*
X14987Y-35081D01*
X15015Y-34985D01*
X14700Y-34670D01*
X14694Y-34676D01*
X14623Y-34605D01*
X14629Y-34600D01*
X14314Y-34284D01*
X14228Y-34309D01*
X14228Y-33898D01*
X14233Y-33911D01*
X14388Y-34065D01*
X14463Y-34097D01*
X14412Y-34118D01*
X14384Y-34214D01*
X14700Y-34529D01*
X15015Y-34214D01*
X14987Y-34118D01*
X14932Y-34099D01*
X15011Y-34066D01*
X15165Y-33911D01*
X15170Y-33900D01*
X17727Y-33900D01*
X17727Y-33943D01*
X17810Y-34143D01*
X17577Y-34054D01*
X17282Y-34062D01*
X17046Y-34159D01*
X16995Y-34275D01*
X17450Y-34729D01*
X17455Y-34723D01*
X17526Y-34794D01*
X17520Y-34800D01*
X17974Y-35254D01*
X18090Y-35203D01*
X18195Y-34927D01*
X18187Y-34632D01*
X18108Y-34440D01*
X18305Y-34522D01*
X18593Y-34522D01*
X18793Y-34439D01*
X18704Y-34672D01*
X18712Y-34967D01*
X18809Y-35203D01*
X18925Y-35254D01*
X19379Y-34800D01*
X19373Y-34794D01*
X19444Y-34723D01*
X19450Y-34729D01*
X19904Y-34275D01*
X19853Y-34159D01*
X19577Y-34054D01*
X19282Y-34062D01*
X19090Y-34141D01*
X19172Y-33944D01*
X19172Y-33656D01*
X19089Y-33456D01*
X19322Y-33545D01*
X19617Y-33537D01*
X19853Y-33440D01*
X19904Y-33324D01*
X19450Y-32870D01*
X19444Y-32876D01*
X19373Y-32805D01*
X19379Y-32800D01*
X18925Y-32345D01*
X18809Y-32396D01*
X18750Y-32552D01*
X18750Y-32425D01*
X18727Y-32310D01*
X18662Y-32212D01*
X18662Y-32212D01*
X18275Y-31825D01*
X18275Y-31325D01*
X18424Y-31325D01*
X18516Y-31287D01*
X18586Y-31216D01*
X18624Y-31124D01*
X18625Y-31059D01*
X18639Y-31094D01*
X18934Y-31389D01*
X19320Y-31549D01*
X19737Y-31550D01*
X20124Y-31390D01*
X20419Y-31095D01*
X20579Y-30709D01*
X20580Y-30292D01*
X20420Y-29906D01*
X20125Y-29610D01*
X19739Y-29450D01*
X19322Y-29449D01*
X18936Y-29609D01*
X18640Y-29904D01*
X18495Y-30254D01*
X18424Y-30225D01*
X18325Y-30224D01*
X17525Y-30224D01*
X17433Y-30262D01*
X17363Y-30333D01*
X17325Y-30425D01*
X17324Y-30524D01*
X17324Y-31124D01*
X17362Y-31216D01*
X17433Y-31286D01*
X17525Y-31324D01*
X17624Y-31325D01*
X17675Y-31325D01*
X17675Y-31950D01*
X17697Y-32064D01*
X17729Y-32112D01*
X17577Y-32054D01*
X17282Y-32062D01*
X17046Y-32159D01*
X16995Y-32275D01*
X17450Y-32729D01*
X17455Y-32723D01*
X17526Y-32794D01*
X17520Y-32800D01*
X17526Y-32805D01*
X17455Y-32876D01*
X17450Y-32870D01*
X17444Y-32876D01*
X17379Y-32811D01*
X17373Y-32805D01*
X17379Y-32800D01*
X16925Y-32345D01*
X16809Y-32396D01*
X16704Y-32672D01*
X16712Y-32967D01*
X16809Y-33203D01*
X16925Y-33254D01*
X16880Y-33298D01*
X16881Y-33300D01*
X15254Y-33300D01*
X15254Y-28281D01*
X15243Y-28063D01*
X15181Y-27912D01*
X15085Y-27884D01*
X14770Y-28200D01*
X15085Y-28515D01*
X15181Y-28487D01*
X15254Y-28281D01*
X15254Y-33300D01*
X15171Y-33300D01*
X15166Y-33288D01*
X15015Y-33137D01*
X15015Y-28585D01*
X14700Y-28270D01*
X14384Y-28585D01*
X14412Y-28681D01*
X14618Y-28754D01*
X14836Y-28743D01*
X14987Y-28681D01*
X15015Y-28585D01*
X15015Y-33137D01*
X15011Y-33134D01*
X14809Y-33050D01*
X14591Y-33049D01*
X14388Y-33133D01*
X14234Y-33288D01*
X14228Y-33302D01*
X14228Y-28490D01*
X14314Y-28515D01*
X14629Y-28200D01*
X14314Y-27884D01*
X14228Y-27909D01*
X14228Y-27498D01*
X14233Y-27511D01*
X14388Y-27665D01*
X14463Y-27697D01*
X14412Y-27718D01*
X14384Y-27814D01*
X14700Y-28129D01*
X15015Y-27814D01*
X14987Y-27718D01*
X14932Y-27699D01*
X15011Y-27666D01*
X15165Y-27511D01*
X15170Y-27500D01*
X16499Y-27500D01*
X16499Y-27599D01*
X16537Y-27691D01*
X16608Y-27761D01*
X16700Y-27799D01*
X16799Y-27800D01*
X17399Y-27800D01*
X17491Y-27762D01*
X17561Y-27691D01*
X17599Y-27599D01*
X17600Y-27500D01*
X17600Y-26700D01*
X17562Y-26608D01*
X17491Y-26538D01*
X17399Y-26500D01*
X17300Y-26499D01*
X16700Y-26499D01*
X16608Y-26537D01*
X16538Y-26608D01*
X16500Y-26700D01*
X16499Y-26799D01*
X16499Y-26900D01*
X15171Y-26900D01*
X15166Y-26888D01*
X15011Y-26734D01*
X14809Y-26650D01*
X14591Y-26649D01*
X14388Y-26733D01*
X14234Y-26888D01*
X14228Y-26902D01*
X14228Y-26879D01*
X17572Y-23535D01*
X17572Y-23535D01*
X17572Y-23535D01*
X17652Y-23415D01*
X17680Y-23275D01*
X17680Y-20510D01*
X17652Y-20369D01*
X17572Y-20249D01*
X16832Y-19509D01*
X16832Y-19244D01*
X17330Y-18746D01*
X17410Y-18626D01*
X17438Y-18486D01*
X17438Y-12300D01*
X17410Y-12159D01*
X17330Y-12039D01*
X17004Y-11713D01*
X16884Y-11633D01*
X16832Y-11623D01*
X16832Y-11424D01*
X16832Y-10770D01*
X16832Y-9770D01*
X16794Y-9678D01*
X16723Y-9608D01*
X16631Y-9570D01*
X16532Y-9569D01*
X15532Y-9569D01*
X15440Y-9607D01*
X15370Y-9678D01*
X15332Y-9770D01*
X15331Y-9869D01*
X15331Y-10869D01*
X15369Y-10961D01*
X15440Y-11031D01*
X15532Y-11069D01*
X15631Y-11070D01*
X16631Y-11070D01*
X16723Y-11032D01*
X16793Y-10961D01*
X16831Y-10869D01*
X16832Y-10770D01*
X16832Y-11424D01*
X16794Y-11332D01*
X16723Y-11262D01*
X16631Y-11224D01*
X16532Y-11223D01*
X15532Y-11223D01*
X15440Y-11261D01*
X15370Y-11332D01*
X15332Y-11424D01*
X15331Y-11523D01*
X15331Y-12523D01*
X15369Y-12615D01*
X15440Y-12685D01*
X15532Y-12723D01*
X15631Y-12724D01*
X16631Y-12724D01*
X16701Y-12694D01*
X16701Y-12905D01*
X16631Y-12876D01*
X16532Y-12875D01*
X15532Y-12875D01*
X15440Y-12913D01*
X15370Y-12984D01*
X15332Y-13076D01*
X15331Y-13175D01*
X15331Y-13855D01*
X14814Y-14372D01*
X14734Y-14492D01*
X14706Y-14633D01*
X14706Y-20440D01*
X14734Y-20580D01*
X14814Y-20700D01*
X15331Y-21217D01*
X15331Y-21675D01*
X15369Y-21767D01*
X15440Y-21837D01*
X15532Y-21875D01*
X15631Y-21876D01*
X16631Y-21876D01*
X16723Y-21838D01*
X16793Y-21767D01*
X16831Y-21675D01*
X16832Y-21576D01*
X16832Y-20576D01*
X16813Y-20532D01*
X16943Y-20662D01*
X16943Y-23122D01*
X16832Y-23234D01*
X16832Y-23230D01*
X16832Y-22230D01*
X16794Y-22138D01*
X16723Y-22068D01*
X16631Y-22030D01*
X16532Y-22029D01*
X15532Y-22029D01*
X15440Y-22067D01*
X15370Y-22138D01*
X15332Y-22230D01*
X15331Y-22329D01*
X15331Y-23329D01*
X15369Y-23421D01*
X15440Y-23491D01*
X15532Y-23529D01*
X15631Y-23530D01*
X16536Y-23530D01*
X14668Y-25398D01*
X14668Y-23329D01*
X14668Y-22230D01*
X14668Y-21675D01*
X14668Y-20576D01*
X14668Y-20023D01*
X14668Y-18924D01*
X14668Y-18369D01*
X14668Y-17270D01*
X14668Y-15829D01*
X14668Y-14730D01*
X14668Y-14175D01*
X14668Y-13076D01*
X14668Y-12523D01*
X14668Y-11424D01*
X14668Y-10869D01*
X14668Y-9770D01*
X14630Y-9678D01*
X14559Y-9608D01*
X14467Y-9570D01*
X14368Y-9569D01*
X14030Y-9570D01*
X13968Y-9632D01*
X13968Y-10270D01*
X14605Y-10270D01*
X14668Y-10207D01*
X14668Y-9770D01*
X14668Y-10869D01*
X14668Y-10432D01*
X14605Y-10370D01*
X13968Y-10370D01*
X13968Y-11007D01*
X14030Y-11070D01*
X14368Y-11070D01*
X14467Y-11069D01*
X14559Y-11031D01*
X14630Y-10961D01*
X14668Y-10869D01*
X14668Y-11424D01*
X14630Y-11332D01*
X14559Y-11262D01*
X14467Y-11224D01*
X14368Y-11223D01*
X14030Y-11224D01*
X13968Y-11286D01*
X13968Y-11924D01*
X14605Y-11924D01*
X14668Y-11861D01*
X14668Y-11424D01*
X14668Y-12523D01*
X14668Y-12086D01*
X14605Y-12024D01*
X13968Y-12024D01*
X13968Y-12661D01*
X14030Y-12724D01*
X14368Y-12724D01*
X14467Y-12723D01*
X14559Y-12685D01*
X14630Y-12615D01*
X14668Y-12523D01*
X14668Y-13076D01*
X14630Y-12984D01*
X14559Y-12914D01*
X14467Y-12876D01*
X14368Y-12875D01*
X14030Y-12876D01*
X13968Y-12938D01*
X13968Y-13576D01*
X14605Y-13576D01*
X14668Y-13513D01*
X14668Y-13076D01*
X14668Y-14175D01*
X14668Y-13738D01*
X14605Y-13676D01*
X13968Y-13676D01*
X13968Y-14313D01*
X14030Y-14376D01*
X14368Y-14376D01*
X14467Y-14375D01*
X14559Y-14337D01*
X14630Y-14267D01*
X14668Y-14175D01*
X14668Y-14730D01*
X14630Y-14638D01*
X14559Y-14568D01*
X14467Y-14530D01*
X14368Y-14529D01*
X14030Y-14530D01*
X13968Y-14592D01*
X13968Y-15230D01*
X14605Y-15230D01*
X14668Y-15167D01*
X14668Y-14730D01*
X14668Y-15829D01*
X14668Y-15392D01*
X14605Y-15330D01*
X13968Y-15330D01*
X13968Y-15967D01*
X14030Y-16030D01*
X14368Y-16030D01*
X14467Y-16029D01*
X14559Y-15991D01*
X14630Y-15921D01*
X14668Y-15829D01*
X14668Y-17270D01*
X14630Y-17178D01*
X14559Y-17108D01*
X14467Y-17070D01*
X14368Y-17069D01*
X14030Y-17070D01*
X13968Y-17132D01*
X13968Y-17770D01*
X14605Y-17770D01*
X14668Y-17707D01*
X14668Y-17270D01*
X14668Y-18369D01*
X14668Y-17932D01*
X14605Y-17870D01*
X13968Y-17870D01*
X13968Y-18507D01*
X14030Y-18570D01*
X14368Y-18570D01*
X14467Y-18569D01*
X14559Y-18531D01*
X14630Y-18461D01*
X14668Y-18369D01*
X14668Y-18924D01*
X14630Y-18832D01*
X14559Y-18762D01*
X14467Y-18724D01*
X14368Y-18723D01*
X14030Y-18724D01*
X13968Y-18786D01*
X13968Y-19424D01*
X14605Y-19424D01*
X14668Y-19361D01*
X14668Y-18924D01*
X14668Y-20023D01*
X14668Y-19586D01*
X14605Y-19524D01*
X13968Y-19524D01*
X13968Y-20161D01*
X14030Y-20224D01*
X14368Y-20224D01*
X14467Y-20223D01*
X14559Y-20185D01*
X14630Y-20115D01*
X14668Y-20023D01*
X14668Y-20576D01*
X14630Y-20484D01*
X14559Y-20414D01*
X14467Y-20376D01*
X14368Y-20375D01*
X14030Y-20376D01*
X13968Y-20438D01*
X13968Y-21076D01*
X14605Y-21076D01*
X14668Y-21013D01*
X14668Y-20576D01*
X14668Y-21675D01*
X14668Y-21238D01*
X14605Y-21176D01*
X13968Y-21176D01*
X13968Y-21813D01*
X14030Y-21876D01*
X14368Y-21876D01*
X14467Y-21875D01*
X14559Y-21837D01*
X14630Y-21767D01*
X14668Y-21675D01*
X14668Y-22230D01*
X14630Y-22138D01*
X14559Y-22068D01*
X14467Y-22030D01*
X14368Y-22029D01*
X14030Y-22030D01*
X13968Y-22092D01*
X13968Y-22730D01*
X14605Y-22730D01*
X14668Y-22667D01*
X14668Y-22230D01*
X14668Y-23329D01*
X14668Y-22892D01*
X14605Y-22830D01*
X13968Y-22830D01*
X13968Y-23467D01*
X14030Y-23530D01*
X14368Y-23530D01*
X14467Y-23529D01*
X14559Y-23491D01*
X14630Y-23421D01*
X14668Y-23329D01*
X14668Y-25398D01*
X13868Y-26198D01*
X13868Y-23467D01*
X13868Y-22830D01*
X13868Y-22730D01*
X13868Y-22092D01*
X13868Y-21813D01*
X13868Y-21176D01*
X13868Y-21076D01*
X13868Y-20438D01*
X13868Y-20161D01*
X13868Y-19524D01*
X13868Y-19424D01*
X13868Y-18786D01*
X13868Y-18507D01*
X13868Y-17870D01*
X13868Y-17770D01*
X13868Y-17132D01*
X13868Y-15967D01*
X13868Y-15330D01*
X13868Y-15230D01*
X13868Y-14592D01*
X13868Y-14313D01*
X13868Y-13676D01*
X13868Y-13576D01*
X13868Y-12938D01*
X13868Y-12661D01*
X13868Y-12024D01*
X13868Y-11924D01*
X13868Y-11286D01*
X13868Y-11007D01*
X13868Y-10370D01*
X13868Y-10270D01*
X13868Y-9632D01*
X13805Y-9570D01*
X13467Y-9569D01*
X13368Y-9570D01*
X13276Y-9608D01*
X13205Y-9678D01*
X13167Y-9770D01*
X13168Y-10207D01*
X13230Y-10270D01*
X13868Y-10270D01*
X13868Y-10370D01*
X13230Y-10370D01*
X13168Y-10432D01*
X13167Y-10869D01*
X13205Y-10961D01*
X13276Y-11031D01*
X13368Y-11069D01*
X13467Y-11070D01*
X13805Y-11070D01*
X13868Y-11007D01*
X13868Y-11286D01*
X13805Y-11224D01*
X13467Y-11223D01*
X13368Y-11224D01*
X13276Y-11262D01*
X13205Y-11332D01*
X13167Y-11424D01*
X13168Y-11861D01*
X13230Y-11924D01*
X13868Y-11924D01*
X13868Y-12024D01*
X13230Y-12024D01*
X13168Y-12086D01*
X13167Y-12523D01*
X13205Y-12615D01*
X13276Y-12685D01*
X13368Y-12723D01*
X13467Y-12724D01*
X13805Y-12724D01*
X13868Y-12661D01*
X13868Y-12938D01*
X13805Y-12876D01*
X13467Y-12875D01*
X13368Y-12876D01*
X13276Y-12914D01*
X13205Y-12984D01*
X13167Y-13076D01*
X13168Y-13513D01*
X13230Y-13576D01*
X13868Y-13576D01*
X13868Y-13676D01*
X13230Y-13676D01*
X13168Y-13738D01*
X13167Y-14175D01*
X13205Y-14267D01*
X13276Y-14337D01*
X13368Y-14375D01*
X13467Y-14376D01*
X13805Y-14376D01*
X13868Y-14313D01*
X13868Y-14592D01*
X13805Y-14530D01*
X13467Y-14529D01*
X13368Y-14530D01*
X13276Y-14568D01*
X13205Y-14638D01*
X13167Y-14730D01*
X13168Y-15167D01*
X13230Y-15230D01*
X13868Y-15230D01*
X13868Y-15330D01*
X13230Y-15330D01*
X13168Y-15392D01*
X13167Y-15829D01*
X13205Y-15921D01*
X13276Y-15991D01*
X13368Y-16029D01*
X13467Y-16030D01*
X13805Y-16030D01*
X13868Y-15967D01*
X13868Y-17132D01*
X13805Y-17070D01*
X13467Y-17069D01*
X13368Y-17070D01*
X13276Y-17108D01*
X13205Y-17178D01*
X13167Y-17270D01*
X13168Y-17707D01*
X13230Y-17770D01*
X13868Y-17770D01*
X13868Y-17870D01*
X13230Y-17870D01*
X13168Y-17932D01*
X13167Y-18369D01*
X13205Y-18461D01*
X13276Y-18531D01*
X13368Y-18569D01*
X13467Y-18570D01*
X13805Y-18570D01*
X13868Y-18507D01*
X13868Y-18786D01*
X13805Y-18724D01*
X13467Y-18723D01*
X13368Y-18724D01*
X13276Y-18762D01*
X13205Y-18832D01*
X13167Y-18924D01*
X13168Y-19361D01*
X13230Y-19424D01*
X13868Y-19424D01*
X13868Y-19524D01*
X13230Y-19524D01*
X13168Y-19586D01*
X13167Y-20023D01*
X13205Y-20115D01*
X13276Y-20185D01*
X13368Y-20223D01*
X13467Y-20224D01*
X13805Y-20224D01*
X13868Y-20161D01*
X13868Y-20438D01*
X13805Y-20376D01*
X13467Y-20375D01*
X13368Y-20376D01*
X13276Y-20414D01*
X13205Y-20484D01*
X13167Y-20576D01*
X13168Y-21013D01*
X13230Y-21076D01*
X13868Y-21076D01*
X13868Y-21176D01*
X13230Y-21176D01*
X13168Y-21238D01*
X13167Y-21675D01*
X13205Y-21767D01*
X13276Y-21837D01*
X13368Y-21875D01*
X13467Y-21876D01*
X13805Y-21876D01*
X13868Y-21813D01*
X13868Y-22092D01*
X13805Y-22030D01*
X13467Y-22029D01*
X13368Y-22030D01*
X13276Y-22068D01*
X13205Y-22138D01*
X13167Y-22230D01*
X13168Y-22667D01*
X13230Y-22730D01*
X13868Y-22730D01*
X13868Y-22830D01*
X13230Y-22830D01*
X13168Y-22892D01*
X13167Y-23329D01*
X13205Y-23421D01*
X13276Y-23491D01*
X13368Y-23529D01*
X13467Y-23530D01*
X13805Y-23530D01*
X13868Y-23467D01*
X13868Y-26198D01*
X13639Y-26427D01*
X13639Y-25014D01*
X13496Y-24668D01*
X13232Y-24404D01*
X12887Y-24261D01*
X12514Y-24260D01*
X12168Y-24403D01*
X11904Y-24667D01*
X11884Y-24716D01*
X11884Y-22613D01*
X11884Y-17653D01*
X11884Y-15113D01*
X11884Y-10153D01*
X11756Y-9844D01*
X11520Y-9607D01*
X11211Y-9479D01*
X10876Y-9479D01*
X10567Y-9607D01*
X10331Y-9843D01*
X10202Y-10152D01*
X10202Y-10486D01*
X10330Y-10795D01*
X10566Y-11032D01*
X10875Y-11160D01*
X11209Y-11160D01*
X11518Y-11033D01*
X11755Y-10796D01*
X11883Y-10487D01*
X11884Y-10153D01*
X11884Y-15113D01*
X11756Y-14804D01*
X11520Y-14567D01*
X11211Y-14439D01*
X10876Y-14439D01*
X10567Y-14567D01*
X10331Y-14803D01*
X10202Y-15112D01*
X10202Y-15446D01*
X10330Y-15755D01*
X10566Y-15992D01*
X10875Y-16120D01*
X11209Y-16120D01*
X11518Y-15993D01*
X11755Y-15756D01*
X11883Y-15447D01*
X11884Y-15113D01*
X11884Y-17653D01*
X11756Y-17344D01*
X11520Y-17107D01*
X11211Y-16979D01*
X10876Y-16979D01*
X10567Y-17107D01*
X10331Y-17343D01*
X10202Y-17652D01*
X10202Y-17986D01*
X10330Y-18295D01*
X10566Y-18532D01*
X10875Y-18660D01*
X11209Y-18660D01*
X11518Y-18533D01*
X11755Y-18296D01*
X11883Y-17987D01*
X11884Y-17653D01*
X11884Y-22613D01*
X11756Y-22304D01*
X11520Y-22067D01*
X11211Y-21939D01*
X10876Y-21939D01*
X10567Y-22067D01*
X10331Y-22303D01*
X10202Y-22612D01*
X10202Y-22946D01*
X10330Y-23255D01*
X10566Y-23492D01*
X10875Y-23620D01*
X11209Y-23620D01*
X11518Y-23493D01*
X11755Y-23256D01*
X11883Y-22947D01*
X11884Y-22613D01*
X11884Y-24716D01*
X11761Y-25012D01*
X11760Y-25385D01*
X11903Y-25731D01*
X12167Y-25995D01*
X12512Y-26138D01*
X12885Y-26139D01*
X13231Y-25996D01*
X13495Y-25732D01*
X13638Y-25387D01*
X13639Y-25014D01*
X13639Y-26427D01*
X13599Y-26466D01*
X13519Y-26586D01*
X13491Y-26727D01*
X13491Y-28664D01*
X13232Y-28404D01*
X12887Y-28261D01*
X12514Y-28260D01*
X12168Y-28403D01*
X11904Y-28667D01*
X11761Y-29012D01*
X11760Y-29385D01*
X11903Y-29731D01*
X12167Y-29995D01*
X12512Y-30138D01*
X12885Y-30139D01*
X13231Y-29996D01*
X13491Y-29736D01*
X13491Y-31064D01*
X13232Y-30804D01*
X12887Y-30661D01*
X12514Y-30660D01*
X12168Y-30803D01*
X11904Y-31067D01*
X11761Y-31412D01*
X11760Y-31785D01*
X11903Y-32131D01*
X12167Y-32395D01*
X12512Y-32538D01*
X12885Y-32539D01*
X13231Y-32396D01*
X13491Y-32136D01*
X13491Y-34885D01*
X13487Y-34906D01*
X13515Y-35046D01*
X13595Y-35166D01*
X14539Y-36110D01*
X14539Y-36110D01*
X14659Y-36190D01*
X14799Y-36218D01*
X14799Y-36218D01*
X14800Y-36218D01*
X19800Y-36218D01*
X19940Y-36190D01*
X20060Y-36110D01*
X21460Y-34710D01*
X21540Y-34590D01*
X21568Y-34450D01*
X21568Y-32302D01*
X22219Y-31650D01*
X22220Y-31869D01*
X22282Y-31932D01*
X22920Y-31932D01*
X22920Y-31924D01*
X23020Y-31924D01*
X23020Y-31932D01*
X23657Y-31932D01*
X23720Y-31869D01*
X23720Y-31531D01*
X23719Y-31432D01*
X23681Y-31340D01*
X23611Y-31269D01*
X23607Y-31268D01*
X23750Y-31268D01*
X23890Y-31240D01*
X24010Y-31160D01*
X24602Y-30568D01*
X24853Y-30568D01*
X25495Y-31210D01*
X25495Y-31210D01*
X25614Y-31289D01*
X25564Y-31340D01*
X25526Y-31432D01*
X25525Y-31531D01*
X25526Y-31869D01*
X25588Y-31932D01*
X26226Y-31932D01*
X26226Y-31924D01*
X26326Y-31924D01*
X26326Y-31932D01*
X26963Y-31932D01*
X27026Y-31869D01*
X27026Y-31531D01*
X27025Y-31432D01*
X26987Y-31340D01*
X26965Y-31318D01*
X27240Y-31318D01*
X27218Y-31340D01*
X27180Y-31432D01*
X27179Y-31531D01*
X27180Y-31869D01*
X27242Y-31932D01*
X27880Y-31932D01*
X27880Y-31924D01*
X27980Y-31924D01*
X27980Y-31932D01*
X28617Y-31932D01*
X28680Y-31869D01*
X28680Y-31531D01*
X28679Y-31432D01*
X28641Y-31340D01*
X28619Y-31318D01*
X28675Y-31318D01*
X28815Y-31290D01*
X28935Y-31210D01*
X29502Y-30643D01*
X31994Y-30643D01*
X31994Y-32167D01*
X31871Y-31869D01*
X31632Y-31629D01*
X31319Y-31500D01*
X30981Y-31499D01*
X30669Y-31628D01*
X30429Y-31867D01*
X30300Y-32180D01*
X30299Y-32518D01*
X30428Y-32830D01*
X30667Y-33070D01*
X30980Y-33199D01*
X31318Y-33200D01*
X31630Y-33071D01*
X31870Y-32832D01*
X31994Y-32533D01*
X31994Y-32795D01*
X32022Y-32936D01*
X32101Y-33055D01*
X32653Y-33606D01*
X32653Y-33606D01*
X32772Y-33686D01*
X32890Y-33709D01*
X32913Y-33714D01*
X32913Y-33714D01*
X32913Y-33714D01*
X36753Y-33714D01*
X36894Y-33686D01*
X37013Y-33606D01*
X37420Y-33199D01*
X37558Y-33200D01*
X37761Y-33116D01*
X37915Y-32961D01*
X37999Y-32759D01*
X38000Y-32541D01*
X37958Y-32440D01*
X38670Y-32440D01*
X38670Y-32439D01*
X38784Y-32417D01*
X38784Y-32417D01*
X38882Y-32352D01*
X38900Y-32334D01*
X38899Y-32518D01*
X39028Y-32830D01*
X39267Y-33070D01*
X39580Y-33199D01*
X39918Y-33200D01*
X40230Y-33071D01*
X40470Y-32832D01*
X40599Y-32519D01*
X40600Y-32181D01*
X40471Y-31869D01*
X40232Y-31629D01*
X39919Y-31500D01*
X39734Y-31499D01*
X41694Y-29540D01*
X45950Y-29540D01*
X45950Y-29539D01*
X46064Y-29517D01*
X46064Y-29517D01*
X46162Y-29452D01*
X47052Y-28562D01*
X47056Y-28555D01*
X47268Y-28768D01*
X47645Y-28924D01*
X48052Y-28925D01*
X48429Y-28769D01*
X48718Y-28481D01*
X48874Y-28104D01*
X48875Y-27697D01*
X48719Y-27320D01*
X48431Y-27031D01*
X48404Y-27020D01*
X48404Y-25981D01*
X48393Y-25763D01*
X48331Y-25612D01*
X48235Y-25584D01*
X47920Y-25900D01*
X48235Y-26215D01*
X48331Y-26187D01*
X48404Y-25981D01*
X48404Y-27020D01*
X48165Y-26921D01*
X48165Y-26285D01*
X47850Y-25970D01*
X47779Y-26041D01*
X47779Y-25900D01*
X47464Y-25584D01*
X47368Y-25612D01*
X47351Y-25660D01*
X47331Y-25612D01*
X47235Y-25584D01*
X46920Y-25900D01*
X47235Y-26215D01*
X47331Y-26187D01*
X47348Y-26139D01*
X47368Y-26187D01*
X47464Y-26215D01*
X47779Y-25900D01*
X47779Y-26041D01*
X47534Y-26285D01*
X47562Y-26381D01*
X47768Y-26454D01*
X47986Y-26443D01*
X48137Y-26381D01*
X48165Y-26285D01*
X48165Y-26921D01*
X48054Y-26875D01*
X47647Y-26874D01*
X47270Y-27030D01*
X47140Y-27160D01*
X47140Y-26900D01*
X47117Y-26785D01*
X47052Y-26687D01*
X47052Y-26687D01*
X46816Y-26452D01*
X46986Y-26443D01*
X47137Y-26381D01*
X47165Y-26285D01*
X46850Y-25970D01*
X46844Y-25976D01*
X46773Y-25905D01*
X46779Y-25900D01*
X46464Y-25584D01*
X46368Y-25612D01*
X46295Y-25818D01*
X46301Y-25936D01*
X46210Y-25845D01*
X46210Y-15820D01*
X46187Y-15705D01*
X46122Y-15607D01*
X46122Y-15607D01*
X45582Y-15067D01*
X45484Y-15002D01*
X45482Y-15002D01*
X45703Y-14782D01*
X45831Y-14473D01*
X45831Y-14139D01*
X45703Y-13830D01*
X45467Y-13593D01*
X45158Y-13465D01*
X44824Y-13465D01*
X44788Y-13480D01*
X44788Y-9776D01*
X45145Y-9924D01*
X45552Y-9925D01*
X45929Y-9769D01*
X46218Y-9481D01*
X46357Y-9147D01*
X46383Y-9211D01*
X46538Y-9365D01*
X46619Y-9399D01*
X46538Y-9433D01*
X46384Y-9588D01*
X46300Y-9790D01*
X46299Y-10008D01*
X46383Y-10211D01*
X46538Y-10365D01*
X46619Y-10399D01*
X46538Y-10433D01*
X46384Y-10588D01*
X46300Y-10790D01*
X46299Y-11008D01*
X46383Y-11211D01*
X46538Y-11365D01*
X46619Y-11399D01*
X46538Y-11433D01*
X46384Y-11588D01*
X46300Y-11790D01*
X46299Y-12008D01*
X46383Y-12211D01*
X46538Y-12365D01*
X46619Y-12399D01*
X46538Y-12433D01*
X46384Y-12588D01*
X46300Y-12790D01*
X46299Y-13008D01*
X46383Y-13211D01*
X46538Y-13365D01*
X46619Y-13399D01*
X46538Y-13433D01*
X46384Y-13588D01*
X46300Y-13790D01*
X46299Y-14008D01*
X46383Y-14211D01*
X46538Y-14365D01*
X46619Y-14399D01*
X46538Y-14433D01*
X46384Y-14588D01*
X46300Y-14790D01*
X46299Y-15008D01*
X46383Y-15211D01*
X46538Y-15365D01*
X46619Y-15399D01*
X46538Y-15433D01*
X46384Y-15588D01*
X46300Y-15790D01*
X46299Y-16008D01*
X46383Y-16211D01*
X46538Y-16365D01*
X46619Y-16399D01*
X46538Y-16433D01*
X46384Y-16588D01*
X46300Y-16790D01*
X46299Y-17008D01*
X46383Y-17211D01*
X46538Y-17365D01*
X46619Y-17399D01*
X46538Y-17433D01*
X46384Y-17588D01*
X46300Y-17790D01*
X46299Y-18008D01*
X46383Y-18211D01*
X46538Y-18365D01*
X46619Y-18399D01*
X46538Y-18433D01*
X46384Y-18588D01*
X46300Y-18790D01*
X46299Y-19008D01*
X46383Y-19211D01*
X46538Y-19365D01*
X46619Y-19399D01*
X46538Y-19433D01*
X46384Y-19588D01*
X46300Y-19790D01*
X46299Y-20008D01*
X46383Y-20211D01*
X46538Y-20365D01*
X46619Y-20399D01*
X46538Y-20433D01*
X46384Y-20588D01*
X46300Y-20790D01*
X46299Y-21008D01*
X46383Y-21211D01*
X46538Y-21365D01*
X46619Y-21399D01*
X46538Y-21433D01*
X46384Y-21588D01*
X46300Y-21790D01*
X46299Y-22008D01*
X46383Y-22211D01*
X46538Y-22365D01*
X46619Y-22399D01*
X46538Y-22433D01*
X46384Y-22588D01*
X46300Y-22790D01*
X46299Y-23008D01*
X46383Y-23211D01*
X46538Y-23365D01*
X46619Y-23399D01*
X46538Y-23433D01*
X46384Y-23588D01*
X46300Y-23790D01*
X46299Y-24008D01*
X46383Y-24211D01*
X46538Y-24365D01*
X46619Y-24399D01*
X46538Y-24433D01*
X46384Y-24588D01*
X46300Y-24790D01*
X46299Y-25008D01*
X46383Y-25211D01*
X46538Y-25365D01*
X46613Y-25397D01*
X46562Y-25418D01*
X46534Y-25514D01*
X46850Y-25829D01*
X47165Y-25514D01*
X47137Y-25418D01*
X47082Y-25399D01*
X47161Y-25366D01*
X47315Y-25211D01*
X47349Y-25130D01*
X47383Y-25211D01*
X47538Y-25365D01*
X47613Y-25397D01*
X47562Y-25418D01*
X47534Y-25514D01*
X47850Y-25829D01*
X48165Y-25514D01*
X48137Y-25418D01*
X48082Y-25399D01*
X48161Y-25366D01*
X48315Y-25211D01*
X48399Y-25009D01*
X48400Y-24791D01*
X48316Y-24588D01*
X48161Y-24434D01*
X48080Y-24400D01*
X48161Y-24366D01*
X48315Y-24211D01*
X48399Y-24009D01*
X48400Y-23791D01*
X48316Y-23588D01*
X48161Y-23434D01*
X48080Y-23400D01*
X48161Y-23366D01*
X48315Y-23211D01*
X48399Y-23009D01*
X48400Y-22791D01*
X48316Y-22588D01*
X48161Y-22434D01*
X48080Y-22400D01*
X48161Y-22366D01*
X48315Y-22211D01*
X48399Y-22009D01*
X48400Y-21791D01*
X48316Y-21588D01*
X48161Y-21434D01*
X48080Y-21400D01*
X48161Y-21366D01*
X48315Y-21211D01*
X48399Y-21009D01*
X48400Y-20791D01*
X48316Y-20588D01*
X48161Y-20434D01*
X48080Y-20400D01*
X48161Y-20366D01*
X48315Y-20211D01*
X48399Y-20009D01*
X48400Y-19791D01*
X48316Y-19588D01*
X48161Y-19434D01*
X48080Y-19400D01*
X48161Y-19366D01*
X48315Y-19211D01*
X48399Y-19009D01*
X48400Y-18791D01*
X48316Y-18588D01*
X48161Y-18434D01*
X48080Y-18400D01*
X48161Y-18366D01*
X48315Y-18211D01*
X48399Y-18009D01*
X48400Y-17791D01*
X48316Y-17588D01*
X48161Y-17434D01*
X48080Y-17400D01*
X48161Y-17366D01*
X48315Y-17211D01*
X48399Y-17009D01*
X48400Y-16791D01*
X48316Y-16588D01*
X48161Y-16434D01*
X48080Y-16400D01*
X48161Y-16366D01*
X48315Y-16211D01*
X48399Y-16009D01*
X48400Y-15791D01*
X48316Y-15588D01*
X48161Y-15434D01*
X48080Y-15400D01*
X48161Y-15366D01*
X48315Y-15211D01*
X48399Y-15009D01*
X48400Y-14791D01*
X48316Y-14588D01*
X48161Y-14434D01*
X48080Y-14400D01*
X48161Y-14366D01*
X48315Y-14211D01*
X48399Y-14009D01*
X48400Y-13791D01*
X48316Y-13588D01*
X48161Y-13434D01*
X48080Y-13400D01*
X48161Y-13366D01*
X48315Y-13211D01*
X48399Y-13009D01*
X48400Y-12791D01*
X48316Y-12588D01*
X48161Y-12434D01*
X48080Y-12400D01*
X48161Y-12366D01*
X48315Y-12211D01*
X48399Y-12009D01*
X48400Y-11791D01*
X48316Y-11588D01*
X48161Y-11434D01*
X48080Y-11400D01*
X48161Y-11366D01*
X48315Y-11211D01*
X48399Y-11009D01*
X48400Y-10791D01*
X48316Y-10588D01*
X48161Y-10434D01*
X48080Y-10400D01*
X48161Y-10366D01*
X48315Y-10211D01*
X48399Y-10009D01*
X48400Y-9791D01*
X48316Y-9588D01*
X48161Y-9434D01*
X48080Y-9400D01*
X48161Y-9366D01*
X48315Y-9211D01*
X48399Y-9009D01*
X48400Y-8791D01*
X48316Y-8588D01*
X48161Y-8434D01*
X47959Y-8350D01*
X47741Y-8349D01*
X47538Y-8433D01*
X47384Y-8588D01*
X47350Y-8669D01*
X47316Y-8588D01*
X47161Y-8434D01*
X46959Y-8350D01*
X46741Y-8349D01*
X46538Y-8433D01*
X46384Y-8588D01*
X46357Y-8653D01*
X46219Y-8320D01*
X46124Y-8225D01*
X49125Y-8225D01*
X49125Y-36265D01*
X49125Y-36265D01*
G37*
G54D34*
X49125Y-36265D02*
X28770Y-36265D01*
X28770Y-34690D01*
X28680Y-34470D01*
X28680Y-32432D01*
X28680Y-32094D01*
X28617Y-32032D01*
X27980Y-32032D01*
X27980Y-32669D01*
X28042Y-32732D01*
X28479Y-32732D01*
X28571Y-32694D01*
X28641Y-32623D01*
X28679Y-32531D01*
X28680Y-32432D01*
X28680Y-34470D01*
X28643Y-34381D01*
X28406Y-34144D01*
X28097Y-34016D01*
X27880Y-34016D01*
X27880Y-32669D01*
X27880Y-32032D01*
X27242Y-32032D01*
X27180Y-32094D01*
X27179Y-32432D01*
X27180Y-32531D01*
X27218Y-32623D01*
X27288Y-32694D01*
X27380Y-32732D01*
X27817Y-32732D01*
X27880Y-32669D01*
X27880Y-34016D01*
X27763Y-34015D01*
X27454Y-34143D01*
X27217Y-34379D01*
X27089Y-34688D01*
X27089Y-35023D01*
X27217Y-35332D01*
X27453Y-35568D01*
X27762Y-35697D01*
X28096Y-35697D01*
X28405Y-35569D01*
X28642Y-35333D01*
X28770Y-35024D01*
X28770Y-34690D01*
X28770Y-36265D01*
X27026Y-36265D01*
X27026Y-32432D01*
X27026Y-32094D01*
X26963Y-32032D01*
X26326Y-32032D01*
X26326Y-32669D01*
X26388Y-32732D01*
X26825Y-32732D01*
X26917Y-32694D01*
X26987Y-32623D01*
X27025Y-32531D01*
X27026Y-32432D01*
X27026Y-36265D01*
X26226Y-36265D01*
X26226Y-32669D01*
X26226Y-32032D01*
X25588Y-32032D01*
X25526Y-32094D01*
X25525Y-32432D01*
X25526Y-32531D01*
X25564Y-32623D01*
X25634Y-32694D01*
X25726Y-32732D01*
X26163Y-32732D01*
X26226Y-32669D01*
X26226Y-36265D01*
X25374Y-36265D01*
X25374Y-32432D01*
X25374Y-31531D01*
X25373Y-31432D01*
X25335Y-31340D01*
X25265Y-31269D01*
X25173Y-31231D01*
X24736Y-31232D01*
X24674Y-31294D01*
X24674Y-31932D01*
X25311Y-31932D01*
X25374Y-31869D01*
X25374Y-31531D01*
X25374Y-32432D01*
X25374Y-32094D01*
X25311Y-32032D01*
X24674Y-32032D01*
X24674Y-32669D01*
X24736Y-32732D01*
X25173Y-32732D01*
X25265Y-32694D01*
X25335Y-32623D01*
X25373Y-32531D01*
X25374Y-32432D01*
X25374Y-36265D01*
X24574Y-36265D01*
X24574Y-32669D01*
X24574Y-32032D01*
X24574Y-31932D01*
X24574Y-31294D01*
X24511Y-31232D01*
X24074Y-31231D01*
X23982Y-31269D01*
X23912Y-31340D01*
X23874Y-31432D01*
X23873Y-31531D01*
X23874Y-31869D01*
X23936Y-31932D01*
X24574Y-31932D01*
X24574Y-32032D01*
X23936Y-32032D01*
X23874Y-32094D01*
X23873Y-32432D01*
X23874Y-32531D01*
X23912Y-32623D01*
X23982Y-32694D01*
X24074Y-32732D01*
X24511Y-32732D01*
X24574Y-32669D01*
X24574Y-36265D01*
X23810Y-36265D01*
X23810Y-34690D01*
X23720Y-34470D01*
X23720Y-32432D01*
X23720Y-32094D01*
X23657Y-32032D01*
X23020Y-32032D01*
X23020Y-32669D01*
X23082Y-32732D01*
X23519Y-32732D01*
X23611Y-32694D01*
X23681Y-32623D01*
X23719Y-32531D01*
X23720Y-32432D01*
X23720Y-34470D01*
X23683Y-34381D01*
X23446Y-34144D01*
X23137Y-34016D01*
X22920Y-34016D01*
X22920Y-32669D01*
X22920Y-32032D01*
X22282Y-32032D01*
X22220Y-32094D01*
X22219Y-32432D01*
X22220Y-32531D01*
X22258Y-32623D01*
X22328Y-32694D01*
X22420Y-32732D01*
X22857Y-32732D01*
X22920Y-32669D01*
X22920Y-34016D01*
X22803Y-34015D01*
X22494Y-34143D01*
X22257Y-34379D01*
X22129Y-34688D01*
X22129Y-35023D01*
X22257Y-35332D01*
X22493Y-35568D01*
X22802Y-35697D01*
X23136Y-35697D01*
X23445Y-35569D01*
X23682Y-35333D01*
X23810Y-35024D01*
X23810Y-34690D01*
X23810Y-36265D01*
X13362Y-36265D01*
X13495Y-36132D01*
X13638Y-35787D01*
X13639Y-35414D01*
X13496Y-35068D01*
X13232Y-34804D01*
X12887Y-34661D01*
X12514Y-34660D01*
X12168Y-34803D01*
X11904Y-35067D01*
X11761Y-35412D01*
X11760Y-35785D01*
X11903Y-36131D01*
X12037Y-36265D01*
X10025Y-36265D01*
X10025Y-8225D01*
X16967Y-8225D01*
X16861Y-8296D01*
X16741Y-8474D01*
X16700Y-8685D01*
X16700Y-9114D01*
X16741Y-9325D01*
X16861Y-9503D01*
X17039Y-9622D01*
X17250Y-9664D01*
X17460Y-9622D01*
X17638Y-9503D01*
X17750Y-9337D01*
X17861Y-9503D01*
X18039Y-9622D01*
X18250Y-9664D01*
X18460Y-9622D01*
X18638Y-9503D01*
X18750Y-9337D01*
X18861Y-9503D01*
X19039Y-9622D01*
X19250Y-9664D01*
X19460Y-9622D01*
X19638Y-9503D01*
X19753Y-9331D01*
X19761Y-9356D01*
X19896Y-9524D01*
X20085Y-9627D01*
X20114Y-9633D01*
X20200Y-9584D01*
X20200Y-8950D01*
X20192Y-8950D01*
X20192Y-8850D01*
X20200Y-8850D01*
X20200Y-8842D01*
X20300Y-8842D01*
X20300Y-8850D01*
X20307Y-8850D01*
X20307Y-8950D01*
X20300Y-8950D01*
X20300Y-9584D01*
X20385Y-9633D01*
X20414Y-9627D01*
X20603Y-9524D01*
X20738Y-9356D01*
X20746Y-9331D01*
X20861Y-9503D01*
X20950Y-9563D01*
X20950Y-10949D01*
X20750Y-10949D01*
X20658Y-10987D01*
X20588Y-11058D01*
X20561Y-11121D01*
X20410Y-10756D01*
X20115Y-10460D01*
X19729Y-10300D01*
X19312Y-10299D01*
X18926Y-10459D01*
X18630Y-10754D01*
X18470Y-11140D01*
X18469Y-11557D01*
X18629Y-11944D01*
X18924Y-12239D01*
X19310Y-12399D01*
X19727Y-12400D01*
X20114Y-12240D01*
X20409Y-11945D01*
X20549Y-11607D01*
X20549Y-11849D01*
X20587Y-11941D01*
X20658Y-12011D01*
X20750Y-12049D01*
X20849Y-12050D01*
X21649Y-12050D01*
X21700Y-12029D01*
X21750Y-12049D01*
X21849Y-12050D01*
X22649Y-12050D01*
X22700Y-12029D01*
X22750Y-12049D01*
X22849Y-12050D01*
X23649Y-12050D01*
X23700Y-12029D01*
X23750Y-12049D01*
X23849Y-12050D01*
X24649Y-12050D01*
X24700Y-12029D01*
X24750Y-12049D01*
X24849Y-12050D01*
X25649Y-12050D01*
X25700Y-12029D01*
X25750Y-12049D01*
X25849Y-12050D01*
X26649Y-12050D01*
X26741Y-12012D01*
X26811Y-11941D01*
X26849Y-11849D01*
X26850Y-11750D01*
X26850Y-11150D01*
X26812Y-11058D01*
X26741Y-10988D01*
X26649Y-10950D01*
X26550Y-10949D01*
X26550Y-10949D01*
X26550Y-9563D01*
X26638Y-9503D01*
X26758Y-9325D01*
X26800Y-9114D01*
X26800Y-8685D01*
X26758Y-8474D01*
X26638Y-8296D01*
X26532Y-8225D01*
X27567Y-8225D01*
X27461Y-8296D01*
X27341Y-8474D01*
X27300Y-8685D01*
X27300Y-9114D01*
X27341Y-9325D01*
X27461Y-9503D01*
X27639Y-9622D01*
X27850Y-9664D01*
X28060Y-9622D01*
X28238Y-9503D01*
X28350Y-9337D01*
X28461Y-9503D01*
X28639Y-9622D01*
X28850Y-9664D01*
X29060Y-9622D01*
X29238Y-9503D01*
X29350Y-9337D01*
X29461Y-9503D01*
X29639Y-9622D01*
X29850Y-9664D01*
X30060Y-9622D01*
X30238Y-9503D01*
X30350Y-9337D01*
X30461Y-9503D01*
X30639Y-9622D01*
X30850Y-9664D01*
X31060Y-9622D01*
X31238Y-9503D01*
X31350Y-9337D01*
X31461Y-9503D01*
X31639Y-9622D01*
X31850Y-9664D01*
X32060Y-9622D01*
X32238Y-9503D01*
X32350Y-9337D01*
X32461Y-9503D01*
X32550Y-9563D01*
X32550Y-9930D01*
X32550Y-11125D01*
X32237Y-11437D01*
X32172Y-11535D01*
X32150Y-11650D01*
X32150Y-11877D01*
X32128Y-11826D01*
X32058Y-11755D01*
X31966Y-11717D01*
X31679Y-11718D01*
X31617Y-11780D01*
X31617Y-12268D01*
X31624Y-12268D01*
X31624Y-12368D01*
X31617Y-12368D01*
X31617Y-12855D01*
X31679Y-12918D01*
X31966Y-12918D01*
X32058Y-12880D01*
X32128Y-12809D01*
X32150Y-12758D01*
X32150Y-13712D01*
X32172Y-13826D01*
X32237Y-13924D01*
X32619Y-14306D01*
X32619Y-14881D01*
X32657Y-14973D01*
X32728Y-15043D01*
X32820Y-15081D01*
X32919Y-15082D01*
X33619Y-15082D01*
X33711Y-15044D01*
X33781Y-14973D01*
X33819Y-14881D01*
X33820Y-14782D01*
X33820Y-14082D01*
X33782Y-13990D01*
X33711Y-13920D01*
X33619Y-13882D01*
X33520Y-13881D01*
X33044Y-13881D01*
X32750Y-13587D01*
X32750Y-12888D01*
X32820Y-12917D01*
X32919Y-12918D01*
X33619Y-12918D01*
X33711Y-12880D01*
X33781Y-12809D01*
X33819Y-12717D01*
X33820Y-12618D01*
X33820Y-12050D01*
X34352Y-11518D01*
X35205Y-11518D01*
X35925Y-12238D01*
X35925Y-12397D01*
X35474Y-12849D01*
X35474Y-12618D01*
X35474Y-12017D01*
X35473Y-11918D01*
X35435Y-11826D01*
X35365Y-11755D01*
X35273Y-11717D01*
X34986Y-11718D01*
X34924Y-11780D01*
X34924Y-12268D01*
X35411Y-12268D01*
X35474Y-12205D01*
X35474Y-12017D01*
X35474Y-12618D01*
X35474Y-12430D01*
X35411Y-12368D01*
X34924Y-12368D01*
X34924Y-12855D01*
X34986Y-12918D01*
X35273Y-12918D01*
X35365Y-12880D01*
X35435Y-12809D01*
X35473Y-12717D01*
X35474Y-12618D01*
X35474Y-12849D01*
X35439Y-12883D01*
X35359Y-13003D01*
X35331Y-13144D01*
X35331Y-13906D01*
X35273Y-13881D01*
X34986Y-13882D01*
X34924Y-13944D01*
X34924Y-14432D01*
X34931Y-14432D01*
X34931Y-14532D01*
X34924Y-14532D01*
X34924Y-15019D01*
X34986Y-15082D01*
X35273Y-15082D01*
X35342Y-15053D01*
X35359Y-15140D01*
X35439Y-15260D01*
X35558Y-15379D01*
X35557Y-15381D01*
X35328Y-15381D01*
X35281Y-15362D01*
X35112Y-15362D01*
X34956Y-15426D01*
X34836Y-15546D01*
X34824Y-15577D01*
X34824Y-15019D01*
X34824Y-14532D01*
X34824Y-14432D01*
X34824Y-13944D01*
X34824Y-12855D01*
X34824Y-12368D01*
X34824Y-12268D01*
X34824Y-11780D01*
X34761Y-11718D01*
X34474Y-11717D01*
X34382Y-11755D01*
X34312Y-11826D01*
X34274Y-11918D01*
X34273Y-12017D01*
X34274Y-12205D01*
X34336Y-12268D01*
X34824Y-12268D01*
X34824Y-12368D01*
X34336Y-12368D01*
X34274Y-12430D01*
X34273Y-12618D01*
X34274Y-12717D01*
X34312Y-12809D01*
X34382Y-12880D01*
X34474Y-12918D01*
X34761Y-12918D01*
X34824Y-12855D01*
X34824Y-13944D01*
X34761Y-13882D01*
X34474Y-13881D01*
X34382Y-13919D01*
X34312Y-13990D01*
X34274Y-14082D01*
X34273Y-14181D01*
X34274Y-14369D01*
X34336Y-14432D01*
X34824Y-14432D01*
X34824Y-14532D01*
X34336Y-14532D01*
X34274Y-14594D01*
X34273Y-14782D01*
X34274Y-14881D01*
X34312Y-14973D01*
X34382Y-15044D01*
X34474Y-15082D01*
X34761Y-15082D01*
X34824Y-15019D01*
X34824Y-15577D01*
X34771Y-15702D01*
X34771Y-15871D01*
X34836Y-16027D01*
X34955Y-16147D01*
X35010Y-16170D01*
X34451Y-16170D01*
X34391Y-16109D01*
X34234Y-16045D01*
X34065Y-16044D01*
X33909Y-16109D01*
X33789Y-16228D01*
X33725Y-16385D01*
X33724Y-16554D01*
X33789Y-16710D01*
X33908Y-16830D01*
X34065Y-16894D01*
X34234Y-16895D01*
X34390Y-16830D01*
X34451Y-16770D01*
X35549Y-16770D01*
X35549Y-16799D01*
X35549Y-17399D01*
X35587Y-17491D01*
X35658Y-17561D01*
X35692Y-17576D01*
X35633Y-17634D01*
X35595Y-17726D01*
X35595Y-17826D01*
X35595Y-18322D01*
X35496Y-18322D01*
X34932Y-17757D01*
X34834Y-17692D01*
X34720Y-17670D01*
X32710Y-17670D01*
X32595Y-17692D01*
X32497Y-17757D01*
X32167Y-18088D01*
X32167Y-14782D01*
X32167Y-14181D01*
X32166Y-14082D01*
X32128Y-13990D01*
X32058Y-13919D01*
X31966Y-13881D01*
X31679Y-13882D01*
X31617Y-13944D01*
X31617Y-14432D01*
X32104Y-14432D01*
X32167Y-14369D01*
X32167Y-14181D01*
X32167Y-14782D01*
X32167Y-14594D01*
X32104Y-14532D01*
X31617Y-14532D01*
X31617Y-15019D01*
X31679Y-15082D01*
X31966Y-15082D01*
X32058Y-15044D01*
X32128Y-14973D01*
X32166Y-14881D01*
X32167Y-14782D01*
X32167Y-18088D01*
X31525Y-18730D01*
X31525Y-17815D01*
X31517Y-17796D01*
X31517Y-15019D01*
X31517Y-14532D01*
X31517Y-14432D01*
X31517Y-13944D01*
X31517Y-12855D01*
X31517Y-12368D01*
X31517Y-12268D01*
X31517Y-11780D01*
X31454Y-11718D01*
X31167Y-11717D01*
X31075Y-11755D01*
X31005Y-11826D01*
X30967Y-11918D01*
X30966Y-12017D01*
X30967Y-12205D01*
X31029Y-12268D01*
X31517Y-12268D01*
X31517Y-12368D01*
X31029Y-12368D01*
X30967Y-12430D01*
X30966Y-12618D01*
X30967Y-12717D01*
X31005Y-12809D01*
X31075Y-12880D01*
X31167Y-12918D01*
X31454Y-12918D01*
X31517Y-12855D01*
X31517Y-13944D01*
X31454Y-13882D01*
X31167Y-13881D01*
X31075Y-13919D01*
X31005Y-13990D01*
X30967Y-14082D01*
X30966Y-14181D01*
X30967Y-14369D01*
X31029Y-14432D01*
X31517Y-14432D01*
X31517Y-14532D01*
X31029Y-14532D01*
X30967Y-14594D01*
X30966Y-14782D01*
X30967Y-14881D01*
X31005Y-14973D01*
X31075Y-15044D01*
X31167Y-15082D01*
X31454Y-15082D01*
X31517Y-15019D01*
X31517Y-17796D01*
X31460Y-17659D01*
X31341Y-17539D01*
X31184Y-17475D01*
X31015Y-17474D01*
X30900Y-17522D01*
X30900Y-17450D01*
X30879Y-17399D01*
X30899Y-17349D01*
X30900Y-17250D01*
X30900Y-16549D01*
X30899Y-16450D01*
X30861Y-16358D01*
X30791Y-16287D01*
X30699Y-16249D01*
X30513Y-16249D01*
X30513Y-14782D01*
X30513Y-14082D01*
X30513Y-12618D01*
X30513Y-11918D01*
X30475Y-11826D01*
X30404Y-11756D01*
X30312Y-11718D01*
X30213Y-11717D01*
X29513Y-11717D01*
X29421Y-11755D01*
X29351Y-11826D01*
X29313Y-11918D01*
X29312Y-12017D01*
X29312Y-12717D01*
X29350Y-12809D01*
X29421Y-12879D01*
X29513Y-12917D01*
X29612Y-12918D01*
X30312Y-12918D01*
X30404Y-12880D01*
X30474Y-12809D01*
X30512Y-12717D01*
X30513Y-12618D01*
X30513Y-14082D01*
X30475Y-13990D01*
X30404Y-13920D01*
X30312Y-13882D01*
X30213Y-13881D01*
X29513Y-13881D01*
X29421Y-13919D01*
X29351Y-13990D01*
X29313Y-14082D01*
X29312Y-14181D01*
X29312Y-14881D01*
X29350Y-14973D01*
X29421Y-15043D01*
X29513Y-15081D01*
X29612Y-15082D01*
X30312Y-15082D01*
X30404Y-15044D01*
X30474Y-14973D01*
X30512Y-14881D01*
X30513Y-14782D01*
X30513Y-16249D01*
X30462Y-16250D01*
X30400Y-16312D01*
X30400Y-16850D01*
X30837Y-16850D01*
X30900Y-16787D01*
X30900Y-16549D01*
X30900Y-17250D01*
X30900Y-17012D01*
X30837Y-16950D01*
X30400Y-16950D01*
X30400Y-16957D01*
X30300Y-16957D01*
X30300Y-16950D01*
X29862Y-16950D01*
X29800Y-17012D01*
X29799Y-17250D01*
X29800Y-17349D01*
X29820Y-17400D01*
X29800Y-17450D01*
X29799Y-17549D01*
X29799Y-18349D01*
X29837Y-18441D01*
X29908Y-18511D01*
X30000Y-18549D01*
X30099Y-18550D01*
X30699Y-18550D01*
X30791Y-18512D01*
X30861Y-18441D01*
X30899Y-18349D01*
X30900Y-18277D01*
X31015Y-18324D01*
X31184Y-18325D01*
X31340Y-18260D01*
X31460Y-18141D01*
X31524Y-17984D01*
X31525Y-17815D01*
X31525Y-18730D01*
X30523Y-19732D01*
X29493Y-19732D01*
X29378Y-19754D01*
X29280Y-19819D01*
X28575Y-20524D01*
X28500Y-20524D01*
X28408Y-20562D01*
X28400Y-20571D01*
X28391Y-20563D01*
X28299Y-20525D01*
X28200Y-20524D01*
X28000Y-20524D01*
X27908Y-20562D01*
X27900Y-20571D01*
X27891Y-20563D01*
X27799Y-20525D01*
X27700Y-20524D01*
X27500Y-20524D01*
X27450Y-20545D01*
X27450Y-19630D01*
X28346Y-19630D01*
X28346Y-19630D01*
X28461Y-19607D01*
X28461Y-19607D01*
X28558Y-19542D01*
X28726Y-19375D01*
X28799Y-19375D01*
X28891Y-19337D01*
X28899Y-19328D01*
X28908Y-19336D01*
X29000Y-19374D01*
X29099Y-19375D01*
X29299Y-19375D01*
X29391Y-19337D01*
X29461Y-19266D01*
X29499Y-19174D01*
X29500Y-19075D01*
X29500Y-18625D01*
X29462Y-18533D01*
X29455Y-18526D01*
X29491Y-18512D01*
X29561Y-18441D01*
X29599Y-18349D01*
X29600Y-18250D01*
X29600Y-17450D01*
X29579Y-17399D01*
X29599Y-17349D01*
X29600Y-17250D01*
X29600Y-16450D01*
X29568Y-16375D01*
X29574Y-16375D01*
X29666Y-16337D01*
X29700Y-16303D01*
X29733Y-16337D01*
X29825Y-16375D01*
X29831Y-16375D01*
X29800Y-16450D01*
X29799Y-16549D01*
X29800Y-16787D01*
X29862Y-16850D01*
X30300Y-16850D01*
X30300Y-16312D01*
X30295Y-16308D01*
X30336Y-16266D01*
X30374Y-16174D01*
X30375Y-16075D01*
X30375Y-15724D01*
X30374Y-15625D01*
X30336Y-15533D01*
X30266Y-15462D01*
X30174Y-15424D01*
X30112Y-15425D01*
X30050Y-15487D01*
X30050Y-15850D01*
X30312Y-15850D01*
X30375Y-15787D01*
X30375Y-15724D01*
X30375Y-16075D01*
X30375Y-16012D01*
X30312Y-15950D01*
X30050Y-15950D01*
X30050Y-15957D01*
X29950Y-15957D01*
X29950Y-15950D01*
X29942Y-15950D01*
X29942Y-15850D01*
X29950Y-15850D01*
X29950Y-15487D01*
X29887Y-15425D01*
X29825Y-15424D01*
X29733Y-15462D01*
X29700Y-15496D01*
X29666Y-15463D01*
X29574Y-15425D01*
X29475Y-15424D01*
X29225Y-15424D01*
X29133Y-15462D01*
X29063Y-15533D01*
X29025Y-15625D01*
X29024Y-15724D01*
X29024Y-15850D01*
X28860Y-16015D01*
X28860Y-14782D01*
X28860Y-14082D01*
X28822Y-13990D01*
X28751Y-13920D01*
X28659Y-13882D01*
X28628Y-13882D01*
X28628Y-12918D01*
X28659Y-12918D01*
X28751Y-12880D01*
X28821Y-12809D01*
X28859Y-12717D01*
X28860Y-12618D01*
X28860Y-11918D01*
X28822Y-11826D01*
X28751Y-11756D01*
X28659Y-11718D01*
X28560Y-11717D01*
X27860Y-11717D01*
X27768Y-11755D01*
X27698Y-11826D01*
X27660Y-11918D01*
X27659Y-12017D01*
X27659Y-12717D01*
X27697Y-12809D01*
X27768Y-12879D01*
X27860Y-12917D01*
X27891Y-12917D01*
X27891Y-13881D01*
X27860Y-13881D01*
X27768Y-13919D01*
X27698Y-13990D01*
X27660Y-14082D01*
X27659Y-14181D01*
X27659Y-14881D01*
X27697Y-14973D01*
X27768Y-15043D01*
X27860Y-15081D01*
X27959Y-15082D01*
X28659Y-15082D01*
X28751Y-15044D01*
X28821Y-14973D01*
X28859Y-14881D01*
X28860Y-14782D01*
X28860Y-16015D01*
X28837Y-16037D01*
X28772Y-16135D01*
X28750Y-16249D01*
X28700Y-16249D01*
X28608Y-16287D01*
X28538Y-16358D01*
X28500Y-16450D01*
X28499Y-16549D01*
X28499Y-17349D01*
X28520Y-17400D01*
X28500Y-17450D01*
X28499Y-17549D01*
X28499Y-17775D01*
X27937Y-18337D01*
X27872Y-18435D01*
X27869Y-18453D01*
X27799Y-18424D01*
X27762Y-18425D01*
X27700Y-18487D01*
X27700Y-18850D01*
X27707Y-18850D01*
X27707Y-18950D01*
X27700Y-18950D01*
X27700Y-18957D01*
X27600Y-18957D01*
X27600Y-18950D01*
X27592Y-18950D01*
X27592Y-18850D01*
X27600Y-18850D01*
X27600Y-18487D01*
X27537Y-18425D01*
X27500Y-18424D01*
X27408Y-18462D01*
X27400Y-18471D01*
X27391Y-18463D01*
X27299Y-18425D01*
X27200Y-18424D01*
X27000Y-18424D01*
X26950Y-18445D01*
X26950Y-18350D01*
X27099Y-18350D01*
X27191Y-18312D01*
X27261Y-18241D01*
X27299Y-18149D01*
X27300Y-18050D01*
X27300Y-17450D01*
X27262Y-17358D01*
X27191Y-17288D01*
X27099Y-17250D01*
X27000Y-17249D01*
X26200Y-17249D01*
X26108Y-17287D01*
X26085Y-17311D01*
X25874Y-17100D01*
X25875Y-17015D01*
X25810Y-16859D01*
X25691Y-16739D01*
X25563Y-16687D01*
X25599Y-16599D01*
X25600Y-16500D01*
X25600Y-16450D01*
X25999Y-16450D01*
X25999Y-16849D01*
X26037Y-16941D01*
X26108Y-17011D01*
X26200Y-17049D01*
X26299Y-17050D01*
X27099Y-17050D01*
X27191Y-17012D01*
X27261Y-16941D01*
X27299Y-16849D01*
X27300Y-16750D01*
X27300Y-16150D01*
X27262Y-16058D01*
X27191Y-15988D01*
X27099Y-15950D01*
X27000Y-15949D01*
X26524Y-15949D01*
X26512Y-15937D01*
X26414Y-15872D01*
X26300Y-15850D01*
X25600Y-15850D01*
X25600Y-15700D01*
X25562Y-15608D01*
X25491Y-15538D01*
X25399Y-15500D01*
X25350Y-15500D01*
X25350Y-14800D01*
X25399Y-14800D01*
X25491Y-14762D01*
X25561Y-14691D01*
X25599Y-14599D01*
X25600Y-14549D01*
X25696Y-14781D01*
X25932Y-15018D01*
X26241Y-15146D01*
X26575Y-15146D01*
X26884Y-15018D01*
X27121Y-14782D01*
X27249Y-14473D01*
X27249Y-14139D01*
X27121Y-13830D01*
X26885Y-13593D01*
X26576Y-13465D01*
X26242Y-13465D01*
X26185Y-13489D01*
X26324Y-13350D01*
X26649Y-13350D01*
X26741Y-13312D01*
X26811Y-13241D01*
X26849Y-13149D01*
X26850Y-13050D01*
X26850Y-12450D01*
X26812Y-12358D01*
X26741Y-12288D01*
X26649Y-12250D01*
X26550Y-12249D01*
X25750Y-12249D01*
X25699Y-12270D01*
X25649Y-12250D01*
X25550Y-12249D01*
X24750Y-12249D01*
X24699Y-12270D01*
X24649Y-12250D01*
X24550Y-12249D01*
X23750Y-12249D01*
X23699Y-12270D01*
X23649Y-12250D01*
X23550Y-12249D01*
X22750Y-12249D01*
X22699Y-12270D01*
X22649Y-12250D01*
X22550Y-12249D01*
X21750Y-12249D01*
X21699Y-12270D01*
X21649Y-12250D01*
X21550Y-12249D01*
X20750Y-12249D01*
X20658Y-12287D01*
X20588Y-12358D01*
X20550Y-12450D01*
X20549Y-12549D01*
X20549Y-12825D01*
X19775Y-13599D01*
X19200Y-13599D01*
X19108Y-13637D01*
X19038Y-13708D01*
X19000Y-13800D01*
X18999Y-13899D01*
X18999Y-14499D01*
X19037Y-14591D01*
X19096Y-14650D01*
X19037Y-14708D01*
X18999Y-14800D01*
X19000Y-15037D01*
X19062Y-15100D01*
X19600Y-15100D01*
X19600Y-15092D01*
X19700Y-15092D01*
X19700Y-15100D01*
X19707Y-15100D01*
X19707Y-15200D01*
X19700Y-15200D01*
X19700Y-15207D01*
X19600Y-15207D01*
X19600Y-15200D01*
X19062Y-15200D01*
X19000Y-15262D01*
X18999Y-15499D01*
X19037Y-15591D01*
X19096Y-15650D01*
X19038Y-15708D01*
X19000Y-15800D01*
X18999Y-15899D01*
X18999Y-16499D01*
X19037Y-16591D01*
X19096Y-16650D01*
X19037Y-16708D01*
X18999Y-16800D01*
X19000Y-17037D01*
X19062Y-17100D01*
X19600Y-17100D01*
X19600Y-17092D01*
X19700Y-17092D01*
X19700Y-17100D01*
X19707Y-17100D01*
X19707Y-17200D01*
X19700Y-17200D01*
X19700Y-17637D01*
X19762Y-17700D01*
X19925Y-17700D01*
X19775Y-17849D01*
X19600Y-17849D01*
X19600Y-17637D01*
X19600Y-17200D01*
X19062Y-17200D01*
X19000Y-17262D01*
X18999Y-17499D01*
X19037Y-17591D01*
X19108Y-17661D01*
X19200Y-17699D01*
X19299Y-17700D01*
X19537Y-17700D01*
X19600Y-17637D01*
X19600Y-17849D01*
X19200Y-17849D01*
X19108Y-17887D01*
X19038Y-17958D01*
X19000Y-18050D01*
X18999Y-18149D01*
X18999Y-18749D01*
X19037Y-18841D01*
X19096Y-18900D01*
X19037Y-18958D01*
X18999Y-19050D01*
X19000Y-19287D01*
X19062Y-19350D01*
X19600Y-19350D01*
X19600Y-19342D01*
X19700Y-19342D01*
X19700Y-19350D01*
X20237Y-19350D01*
X20300Y-19287D01*
X20300Y-19050D01*
X20262Y-18958D01*
X20203Y-18899D01*
X20261Y-18841D01*
X20299Y-18749D01*
X20300Y-18650D01*
X20300Y-18174D01*
X20812Y-17662D01*
X20812Y-17662D01*
X20877Y-17564D01*
X20899Y-17450D01*
X20900Y-17450D01*
X20900Y-14874D01*
X22018Y-13755D01*
X22000Y-13800D01*
X21999Y-13899D01*
X21999Y-14499D01*
X22037Y-14591D01*
X22096Y-14650D01*
X22038Y-14708D01*
X22000Y-14800D01*
X21999Y-14899D01*
X21999Y-15499D01*
X22037Y-15591D01*
X22096Y-15650D01*
X22038Y-15708D01*
X22000Y-15800D01*
X21999Y-15899D01*
X21999Y-16499D01*
X22037Y-16591D01*
X22096Y-16650D01*
X22038Y-16708D01*
X22000Y-16800D01*
X21999Y-16899D01*
X21999Y-17499D01*
X22037Y-17591D01*
X22108Y-17661D01*
X22200Y-17699D01*
X22299Y-17700D01*
X23099Y-17700D01*
X23191Y-17662D01*
X23261Y-17591D01*
X23299Y-17499D01*
X23299Y-17450D01*
X24100Y-17450D01*
X24100Y-17750D01*
X24099Y-17750D01*
X24000Y-17749D01*
X23400Y-17749D01*
X23308Y-17787D01*
X23238Y-17858D01*
X23215Y-17912D01*
X23191Y-17888D01*
X23099Y-17850D01*
X23000Y-17849D01*
X22200Y-17849D01*
X22108Y-17887D01*
X22038Y-17958D01*
X22000Y-18050D01*
X21999Y-18149D01*
X21999Y-18749D01*
X22037Y-18841D01*
X22096Y-18900D01*
X22038Y-18958D01*
X22000Y-19050D01*
X21999Y-19149D01*
X21999Y-19225D01*
X21637Y-19587D01*
X21572Y-19685D01*
X21550Y-19800D01*
X21550Y-20600D01*
X21572Y-20714D01*
X21637Y-20812D01*
X21999Y-21174D01*
X21999Y-21625D01*
X21287Y-22337D01*
X21222Y-22435D01*
X21200Y-22550D01*
X21200Y-24875D01*
X20925Y-25150D01*
X20925Y-24565D01*
X20925Y-22565D01*
X20860Y-22409D01*
X20825Y-22374D01*
X20825Y-20265D01*
X20760Y-20109D01*
X20641Y-19989D01*
X20484Y-19925D01*
X20315Y-19924D01*
X20253Y-19950D01*
X20203Y-19900D01*
X20262Y-19841D01*
X20300Y-19749D01*
X20300Y-19512D01*
X20237Y-19450D01*
X19700Y-19450D01*
X19700Y-19457D01*
X19600Y-19457D01*
X19600Y-19450D01*
X19062Y-19450D01*
X19000Y-19512D01*
X18999Y-19749D01*
X19037Y-19841D01*
X19096Y-19900D01*
X19038Y-19958D01*
X19000Y-20050D01*
X18999Y-20149D01*
X18999Y-20749D01*
X19037Y-20841D01*
X19096Y-20900D01*
X19037Y-20958D01*
X18999Y-21050D01*
X19000Y-21287D01*
X19062Y-21350D01*
X19600Y-21350D01*
X19600Y-21342D01*
X19700Y-21342D01*
X19700Y-21350D01*
X20237Y-21350D01*
X20300Y-21287D01*
X20300Y-21050D01*
X20262Y-20958D01*
X20203Y-20899D01*
X20261Y-20841D01*
X20293Y-20765D01*
X20315Y-20774D01*
X20484Y-20775D01*
X20640Y-20710D01*
X20760Y-20591D01*
X20824Y-20434D01*
X20825Y-20265D01*
X20825Y-22374D01*
X20741Y-22289D01*
X20584Y-22225D01*
X20415Y-22224D01*
X20300Y-22272D01*
X20300Y-21749D01*
X20300Y-21512D01*
X20237Y-21450D01*
X19700Y-21450D01*
X19700Y-21887D01*
X19762Y-21950D01*
X20000Y-21950D01*
X20099Y-21949D01*
X20191Y-21911D01*
X20262Y-21841D01*
X20300Y-21749D01*
X20300Y-22272D01*
X20290Y-22276D01*
X20262Y-22208D01*
X20191Y-22138D01*
X20099Y-22100D01*
X20000Y-22099D01*
X19600Y-22099D01*
X19600Y-21887D01*
X19600Y-21450D01*
X19062Y-21450D01*
X19000Y-21512D01*
X18999Y-21749D01*
X19037Y-21841D01*
X19108Y-21911D01*
X19200Y-21949D01*
X19299Y-21950D01*
X19537Y-21950D01*
X19600Y-21887D01*
X19600Y-22099D01*
X19200Y-22099D01*
X19108Y-22137D01*
X19038Y-22208D01*
X19000Y-22300D01*
X18999Y-22399D01*
X18999Y-22999D01*
X19037Y-23091D01*
X19096Y-23150D01*
X19037Y-23208D01*
X18999Y-23300D01*
X19000Y-23537D01*
X19062Y-23600D01*
X19600Y-23600D01*
X19600Y-23592D01*
X19700Y-23592D01*
X19700Y-23600D01*
X20237Y-23600D01*
X20300Y-23537D01*
X20300Y-23300D01*
X20262Y-23208D01*
X20203Y-23149D01*
X20261Y-23091D01*
X20290Y-23023D01*
X20415Y-23074D01*
X20584Y-23075D01*
X20740Y-23010D01*
X20860Y-22891D01*
X20924Y-22734D01*
X20925Y-22565D01*
X20925Y-24565D01*
X20860Y-24409D01*
X20741Y-24289D01*
X20584Y-24225D01*
X20415Y-24224D01*
X20290Y-24276D01*
X20262Y-24208D01*
X20203Y-24150D01*
X20262Y-24091D01*
X20300Y-23999D01*
X20300Y-23762D01*
X20237Y-23700D01*
X19700Y-23700D01*
X19700Y-23707D01*
X19600Y-23707D01*
X19600Y-23700D01*
X19062Y-23700D01*
X19000Y-23762D01*
X18999Y-23999D01*
X19037Y-24091D01*
X19096Y-24150D01*
X19038Y-24208D01*
X19000Y-24300D01*
X18999Y-24399D01*
X18999Y-24999D01*
X19037Y-25091D01*
X19096Y-25150D01*
X19037Y-25208D01*
X18999Y-25300D01*
X19000Y-25537D01*
X19062Y-25600D01*
X19600Y-25600D01*
X19600Y-25592D01*
X19700Y-25592D01*
X19700Y-25600D01*
X20237Y-25600D01*
X20300Y-25537D01*
X20300Y-25300D01*
X20262Y-25208D01*
X20203Y-25149D01*
X20261Y-25091D01*
X20290Y-25023D01*
X20415Y-25074D01*
X20584Y-25075D01*
X20740Y-25010D01*
X20860Y-24891D01*
X20924Y-24734D01*
X20925Y-24565D01*
X20925Y-25150D01*
X20300Y-25775D01*
X20300Y-25762D01*
X20237Y-25700D01*
X19700Y-25700D01*
X19700Y-25707D01*
X19600Y-25707D01*
X19600Y-25700D01*
X19062Y-25700D01*
X19000Y-25762D01*
X18999Y-25999D01*
X19037Y-26091D01*
X19108Y-26161D01*
X19182Y-26192D01*
X18814Y-26561D01*
X18791Y-26538D01*
X18699Y-26500D01*
X18600Y-26499D01*
X18000Y-26499D01*
X17908Y-26537D01*
X17838Y-26608D01*
X17800Y-26700D01*
X17799Y-26799D01*
X17799Y-27599D01*
X17837Y-27691D01*
X17908Y-27761D01*
X18000Y-27799D01*
X18099Y-27800D01*
X18699Y-27800D01*
X18791Y-27762D01*
X18861Y-27691D01*
X18899Y-27599D01*
X18900Y-27500D01*
X18900Y-27324D01*
X19300Y-26924D01*
X19299Y-26999D01*
X19299Y-27599D01*
X19337Y-27691D01*
X19408Y-27761D01*
X19500Y-27799D01*
X19599Y-27800D01*
X20300Y-27800D01*
X20300Y-27999D01*
X19500Y-27999D01*
X19408Y-28037D01*
X19338Y-28108D01*
X19300Y-28200D01*
X19300Y-28250D01*
X18900Y-28250D01*
X18785Y-28272D01*
X18687Y-28337D01*
X18100Y-28924D01*
X17525Y-28924D01*
X17433Y-28962D01*
X17363Y-29033D01*
X17325Y-29125D01*
X17324Y-29224D01*
X17324Y-29824D01*
X17362Y-29916D01*
X17433Y-29986D01*
X17525Y-30024D01*
X17624Y-30025D01*
X18424Y-30025D01*
X18516Y-29987D01*
X18586Y-29916D01*
X18624Y-29824D01*
X18625Y-29725D01*
X18625Y-29249D01*
X19024Y-28850D01*
X19299Y-28850D01*
X19299Y-28899D01*
X19337Y-28991D01*
X19408Y-29061D01*
X19500Y-29099D01*
X19599Y-29100D01*
X20399Y-29100D01*
X20491Y-29062D01*
X20561Y-28991D01*
X20599Y-28899D01*
X20600Y-28800D01*
X20600Y-28596D01*
X20639Y-28622D01*
X20850Y-28664D01*
X21060Y-28622D01*
X21238Y-28503D01*
X21350Y-28337D01*
X21461Y-28503D01*
X21639Y-28622D01*
X21850Y-28664D01*
X22060Y-28622D01*
X22238Y-28503D01*
X22350Y-28337D01*
X22461Y-28503D01*
X22639Y-28622D01*
X22850Y-28664D01*
X23060Y-28622D01*
X23238Y-28503D01*
X23350Y-28337D01*
X23461Y-28503D01*
X23639Y-28622D01*
X23850Y-28664D01*
X24060Y-28622D01*
X24238Y-28503D01*
X24350Y-28337D01*
X24461Y-28503D01*
X24639Y-28622D01*
X24850Y-28664D01*
X25060Y-28622D01*
X25238Y-28503D01*
X25353Y-28331D01*
X25361Y-28356D01*
X25496Y-28524D01*
X25685Y-28627D01*
X25714Y-28633D01*
X25800Y-28584D01*
X25800Y-27950D01*
X25792Y-27950D01*
X25792Y-27850D01*
X25800Y-27850D01*
X25800Y-27215D01*
X25789Y-27209D01*
X25909Y-27090D01*
X25925Y-27090D01*
X25924Y-27200D01*
X25900Y-27215D01*
X25900Y-27850D01*
X26300Y-27850D01*
X26400Y-27850D01*
X26800Y-27850D01*
X26800Y-27842D01*
X26900Y-27842D01*
X26900Y-27850D01*
X26907Y-27850D01*
X26907Y-27950D01*
X26900Y-27950D01*
X26900Y-28584D01*
X26962Y-28620D01*
X26933Y-28639D01*
X26800Y-28773D01*
X26800Y-28584D01*
X26800Y-27950D01*
X26400Y-27950D01*
X26300Y-27950D01*
X25900Y-27950D01*
X25900Y-28584D01*
X25985Y-28633D01*
X26014Y-28627D01*
X26203Y-28524D01*
X26338Y-28356D01*
X26350Y-28319D01*
X26361Y-28356D01*
X26496Y-28524D01*
X26685Y-28627D01*
X26714Y-28633D01*
X26800Y-28584D01*
X26800Y-28773D01*
X26505Y-29067D01*
X25726Y-29067D01*
X25634Y-29105D01*
X25564Y-29176D01*
X25526Y-29268D01*
X25525Y-29367D01*
X25525Y-30199D01*
X25374Y-30047D01*
X25374Y-29268D01*
X25336Y-29176D01*
X25265Y-29106D01*
X25173Y-29068D01*
X25074Y-29067D01*
X24074Y-29067D01*
X23982Y-29105D01*
X23912Y-29176D01*
X23874Y-29268D01*
X23873Y-29367D01*
X23873Y-30255D01*
X23690Y-30438D01*
X23719Y-30367D01*
X23720Y-30268D01*
X23720Y-29268D01*
X23682Y-29176D01*
X23611Y-29106D01*
X23519Y-29068D01*
X23420Y-29067D01*
X22420Y-29067D01*
X22328Y-29105D01*
X22258Y-29176D01*
X22220Y-29268D01*
X22219Y-29367D01*
X22219Y-30367D01*
X22257Y-30459D01*
X22328Y-30529D01*
X22371Y-30547D01*
X22309Y-30559D01*
X22189Y-30639D01*
X20939Y-31889D01*
X20859Y-32009D01*
X20831Y-32150D01*
X20831Y-34297D01*
X20192Y-34937D01*
X20195Y-34927D01*
X20195Y-32927D01*
X20187Y-32632D01*
X20090Y-32396D01*
X19974Y-32345D01*
X19904Y-32416D01*
X19904Y-32275D01*
X19853Y-32159D01*
X19577Y-32054D01*
X19282Y-32062D01*
X19046Y-32159D01*
X18995Y-32275D01*
X19450Y-32729D01*
X19904Y-32275D01*
X19904Y-32416D01*
X19520Y-32800D01*
X19974Y-33254D01*
X20090Y-33203D01*
X20195Y-32927D01*
X20195Y-34927D01*
X20187Y-34632D01*
X20090Y-34396D01*
X19974Y-34345D01*
X19520Y-34800D01*
X19526Y-34805D01*
X19455Y-34876D01*
X19450Y-34870D01*
X18995Y-35324D01*
X19046Y-35440D01*
X19155Y-35481D01*
X17752Y-35481D01*
X17853Y-35440D01*
X17904Y-35324D01*
X17450Y-34870D01*
X17379Y-34941D01*
X17379Y-34800D01*
X16925Y-34345D01*
X16809Y-34396D01*
X16704Y-34672D01*
X16712Y-34967D01*
X16809Y-35203D01*
X16925Y-35254D01*
X17379Y-34800D01*
X17379Y-34941D01*
X16995Y-35324D01*
X17046Y-35440D01*
X17155Y-35481D01*
X15254Y-35481D01*
X15254Y-34681D01*
X15243Y-34463D01*
X15181Y-34312D01*
X15085Y-34284D01*
X14770Y-34600D01*
X15085Y-34915D01*
X15181Y-34887D01*
X15254Y-34681D01*
X15254Y-35481D01*
X14952Y-35481D01*
X14625Y-35154D01*
X14836Y-35143D01*
X14987Y-35081D01*
X15015Y-34985D01*
X14700Y-34670D01*
X14694Y-34676D01*
X14623Y-34605D01*
X14629Y-34600D01*
X14314Y-34284D01*
X14228Y-34309D01*
X14228Y-33898D01*
X14233Y-33911D01*
X14388Y-34065D01*
X14463Y-34097D01*
X14412Y-34118D01*
X14384Y-34214D01*
X14700Y-34529D01*
X15015Y-34214D01*
X14987Y-34118D01*
X14932Y-34099D01*
X15011Y-34066D01*
X15165Y-33911D01*
X15170Y-33900D01*
X17727Y-33900D01*
X17727Y-33943D01*
X17810Y-34143D01*
X17577Y-34054D01*
X17282Y-34062D01*
X17046Y-34159D01*
X16995Y-34275D01*
X17450Y-34729D01*
X17455Y-34723D01*
X17526Y-34794D01*
X17520Y-34800D01*
X17974Y-35254D01*
X18090Y-35203D01*
X18195Y-34927D01*
X18187Y-34632D01*
X18108Y-34440D01*
X18305Y-34522D01*
X18593Y-34522D01*
X18793Y-34439D01*
X18704Y-34672D01*
X18712Y-34967D01*
X18809Y-35203D01*
X18925Y-35254D01*
X19379Y-34800D01*
X19373Y-34794D01*
X19444Y-34723D01*
X19450Y-34729D01*
X19904Y-34275D01*
X19853Y-34159D01*
X19577Y-34054D01*
X19282Y-34062D01*
X19090Y-34141D01*
X19172Y-33944D01*
X19172Y-33656D01*
X19089Y-33456D01*
X19322Y-33545D01*
X19617Y-33537D01*
X19853Y-33440D01*
X19904Y-33324D01*
X19450Y-32870D01*
X19444Y-32876D01*
X19373Y-32805D01*
X19379Y-32800D01*
X18925Y-32345D01*
X18809Y-32396D01*
X18750Y-32552D01*
X18750Y-32425D01*
X18727Y-32310D01*
X18662Y-32212D01*
X18662Y-32212D01*
X18275Y-31825D01*
X18275Y-31325D01*
X18424Y-31325D01*
X18516Y-31287D01*
X18586Y-31216D01*
X18624Y-31124D01*
X18625Y-31059D01*
X18639Y-31094D01*
X18934Y-31389D01*
X19320Y-31549D01*
X19737Y-31550D01*
X20124Y-31390D01*
X20419Y-31095D01*
X20579Y-30709D01*
X20580Y-30292D01*
X20420Y-29906D01*
X20125Y-29610D01*
X19739Y-29450D01*
X19322Y-29449D01*
X18936Y-29609D01*
X18640Y-29904D01*
X18495Y-30254D01*
X18424Y-30225D01*
X18325Y-30224D01*
X17525Y-30224D01*
X17433Y-30262D01*
X17363Y-30333D01*
X17325Y-30425D01*
X17324Y-30524D01*
X17324Y-31124D01*
X17362Y-31216D01*
X17433Y-31286D01*
X17525Y-31324D01*
X17624Y-31325D01*
X17675Y-31325D01*
X17675Y-31950D01*
X17697Y-32064D01*
X17729Y-32112D01*
X17577Y-32054D01*
X17282Y-32062D01*
X17046Y-32159D01*
X16995Y-32275D01*
X17450Y-32729D01*
X17455Y-32723D01*
X17526Y-32794D01*
X17520Y-32800D01*
X17526Y-32805D01*
X17455Y-32876D01*
X17450Y-32870D01*
X17444Y-32876D01*
X17379Y-32811D01*
X17373Y-32805D01*
X17379Y-32800D01*
X16925Y-32345D01*
X16809Y-32396D01*
X16704Y-32672D01*
X16712Y-32967D01*
X16809Y-33203D01*
X16925Y-33254D01*
X16880Y-33298D01*
X16881Y-33300D01*
X15254Y-33300D01*
X15254Y-28281D01*
X15243Y-28063D01*
X15181Y-27912D01*
X15085Y-27884D01*
X14770Y-28200D01*
X15085Y-28515D01*
X15181Y-28487D01*
X15254Y-28281D01*
X15254Y-33300D01*
X15171Y-33300D01*
X15166Y-33288D01*
X15015Y-33137D01*
X15015Y-28585D01*
X14700Y-28270D01*
X14384Y-28585D01*
X14412Y-28681D01*
X14618Y-28754D01*
X14836Y-28743D01*
X14987Y-28681D01*
X15015Y-28585D01*
X15015Y-33137D01*
X15011Y-33134D01*
X14809Y-33050D01*
X14591Y-33049D01*
X14388Y-33133D01*
X14234Y-33288D01*
X14228Y-33302D01*
X14228Y-28490D01*
X14314Y-28515D01*
X14629Y-28200D01*
X14314Y-27884D01*
X14228Y-27909D01*
X14228Y-27498D01*
X14233Y-27511D01*
X14388Y-27665D01*
X14463Y-27697D01*
X14412Y-27718D01*
X14384Y-27814D01*
X14700Y-28129D01*
X15015Y-27814D01*
X14987Y-27718D01*
X14932Y-27699D01*
X15011Y-27666D01*
X15165Y-27511D01*
X15170Y-27500D01*
X16499Y-27500D01*
X16499Y-27599D01*
X16537Y-27691D01*
X16608Y-27761D01*
X16700Y-27799D01*
X16799Y-27800D01*
X17399Y-27800D01*
X17491Y-27762D01*
X17561Y-27691D01*
X17599Y-27599D01*
X17600Y-27500D01*
X17600Y-26700D01*
X17562Y-26608D01*
X17491Y-26538D01*
X17399Y-26500D01*
X17300Y-26499D01*
X16700Y-26499D01*
X16608Y-26537D01*
X16538Y-26608D01*
X16500Y-26700D01*
X16499Y-26799D01*
X16499Y-26900D01*
X15171Y-26900D01*
X15166Y-26888D01*
X15011Y-26734D01*
X14809Y-26650D01*
X14591Y-26649D01*
X14388Y-26733D01*
X14234Y-26888D01*
X14228Y-26902D01*
X14228Y-26879D01*
X17572Y-23535D01*
X17572Y-23535D01*
X17572Y-23535D01*
X17652Y-23415D01*
X17680Y-23275D01*
X17680Y-20510D01*
X17652Y-20369D01*
X17572Y-20249D01*
X16832Y-19509D01*
X16832Y-19244D01*
X17330Y-18746D01*
X17410Y-18626D01*
X17438Y-18486D01*
X17438Y-12300D01*
X17410Y-12159D01*
X17330Y-12039D01*
X17004Y-11713D01*
X16884Y-11633D01*
X16832Y-11623D01*
X16832Y-11424D01*
X16832Y-10770D01*
X16832Y-9770D01*
X16794Y-9678D01*
X16723Y-9608D01*
X16631Y-9570D01*
X16532Y-9569D01*
X15532Y-9569D01*
X15440Y-9607D01*
X15370Y-9678D01*
X15332Y-9770D01*
X15331Y-9869D01*
X15331Y-10869D01*
X15369Y-10961D01*
X15440Y-11031D01*
X15532Y-11069D01*
X15631Y-11070D01*
X16631Y-11070D01*
X16723Y-11032D01*
X16793Y-10961D01*
X16831Y-10869D01*
X16832Y-10770D01*
X16832Y-11424D01*
X16794Y-11332D01*
X16723Y-11262D01*
X16631Y-11224D01*
X16532Y-11223D01*
X15532Y-11223D01*
X15440Y-11261D01*
X15370Y-11332D01*
X15332Y-11424D01*
X15331Y-11523D01*
X15331Y-12523D01*
X15369Y-12615D01*
X15440Y-12685D01*
X15532Y-12723D01*
X15631Y-12724D01*
X16631Y-12724D01*
X16701Y-12694D01*
X16701Y-12905D01*
X16631Y-12876D01*
X16532Y-12875D01*
X15532Y-12875D01*
X15440Y-12913D01*
X15370Y-12984D01*
X15332Y-13076D01*
X15331Y-13175D01*
X15331Y-13855D01*
X14814Y-14372D01*
X14734Y-14492D01*
X14706Y-14633D01*
X14706Y-20440D01*
X14734Y-20580D01*
X14814Y-20700D01*
X15331Y-21217D01*
X15331Y-21675D01*
X15369Y-21767D01*
X15440Y-21837D01*
X15532Y-21875D01*
X15631Y-21876D01*
X16631Y-21876D01*
X16723Y-21838D01*
X16793Y-21767D01*
X16831Y-21675D01*
X16832Y-21576D01*
X16832Y-20576D01*
X16813Y-20532D01*
X16943Y-20662D01*
X16943Y-23122D01*
X16832Y-23234D01*
X16832Y-23230D01*
X16832Y-22230D01*
X16794Y-22138D01*
X16723Y-22068D01*
X16631Y-22030D01*
X16532Y-22029D01*
X15532Y-22029D01*
X15440Y-22067D01*
X15370Y-22138D01*
X15332Y-22230D01*
X15331Y-22329D01*
X15331Y-23329D01*
X15369Y-23421D01*
X15440Y-23491D01*
X15532Y-23529D01*
X15631Y-23530D01*
X16536Y-23530D01*
X14668Y-25398D01*
X14668Y-23329D01*
X14668Y-22230D01*
X14668Y-21675D01*
X14668Y-20576D01*
X14668Y-20023D01*
X14668Y-18924D01*
X14668Y-18369D01*
X14668Y-17270D01*
X14668Y-15829D01*
X14668Y-14730D01*
X14668Y-14175D01*
X14668Y-13076D01*
X14668Y-12523D01*
X14668Y-11424D01*
X14668Y-10869D01*
X14668Y-9770D01*
X14630Y-9678D01*
X14559Y-9608D01*
X14467Y-9570D01*
X14368Y-9569D01*
X14030Y-9570D01*
X13968Y-9632D01*
X13968Y-10270D01*
X14605Y-10270D01*
X14668Y-10207D01*
X14668Y-9770D01*
X14668Y-10869D01*
X14668Y-10432D01*
X14605Y-10370D01*
X13968Y-10370D01*
X13968Y-11007D01*
X14030Y-11070D01*
X14368Y-11070D01*
X14467Y-11069D01*
X14559Y-11031D01*
X14630Y-10961D01*
X14668Y-10869D01*
X14668Y-11424D01*
X14630Y-11332D01*
X14559Y-11262D01*
X14467Y-11224D01*
X14368Y-11223D01*
X14030Y-11224D01*
X13968Y-11286D01*
X13968Y-11924D01*
X14605Y-11924D01*
X14668Y-11861D01*
X14668Y-11424D01*
X14668Y-12523D01*
X14668Y-12086D01*
X14605Y-12024D01*
X13968Y-12024D01*
X13968Y-12661D01*
X14030Y-12724D01*
X14368Y-12724D01*
X14467Y-12723D01*
X14559Y-12685D01*
X14630Y-12615D01*
X14668Y-12523D01*
X14668Y-13076D01*
X14630Y-12984D01*
X14559Y-12914D01*
X14467Y-12876D01*
X14368Y-12875D01*
X14030Y-12876D01*
X13968Y-12938D01*
X13968Y-13576D01*
X14605Y-13576D01*
X14668Y-13513D01*
X14668Y-13076D01*
X14668Y-14175D01*
X14668Y-13738D01*
X14605Y-13676D01*
X13968Y-13676D01*
X13968Y-14313D01*
X14030Y-14376D01*
X14368Y-14376D01*
X14467Y-14375D01*
X14559Y-14337D01*
X14630Y-14267D01*
X14668Y-14175D01*
X14668Y-14730D01*
X14630Y-14638D01*
X14559Y-14568D01*
X14467Y-14530D01*
X14368Y-14529D01*
X14030Y-14530D01*
X13968Y-14592D01*
X13968Y-15230D01*
X14605Y-15230D01*
X14668Y-15167D01*
X14668Y-14730D01*
X14668Y-15829D01*
X14668Y-15392D01*
X14605Y-15330D01*
X13968Y-15330D01*
X13968Y-15967D01*
X14030Y-16030D01*
X14368Y-16030D01*
X14467Y-16029D01*
X14559Y-15991D01*
X14630Y-15921D01*
X14668Y-15829D01*
X14668Y-17270D01*
X14630Y-17178D01*
X14559Y-17108D01*
X14467Y-17070D01*
X14368Y-17069D01*
X14030Y-17070D01*
X13968Y-17132D01*
X13968Y-17770D01*
X14605Y-17770D01*
X14668Y-17707D01*
X14668Y-17270D01*
X14668Y-18369D01*
X14668Y-17932D01*
X14605Y-17870D01*
X13968Y-17870D01*
X13968Y-18507D01*
X14030Y-18570D01*
X14368Y-18570D01*
X14467Y-18569D01*
X14559Y-18531D01*
X14630Y-18461D01*
X14668Y-18369D01*
X14668Y-18924D01*
X14630Y-18832D01*
X14559Y-18762D01*
X14467Y-18724D01*
X14368Y-18723D01*
X14030Y-18724D01*
X13968Y-18786D01*
X13968Y-19424D01*
X14605Y-19424D01*
X14668Y-19361D01*
X14668Y-18924D01*
X14668Y-20023D01*
X14668Y-19586D01*
X14605Y-19524D01*
X13968Y-19524D01*
X13968Y-20161D01*
X14030Y-20224D01*
X14368Y-20224D01*
X14467Y-20223D01*
X14559Y-20185D01*
X14630Y-20115D01*
X14668Y-20023D01*
X14668Y-20576D01*
X14630Y-20484D01*
X14559Y-20414D01*
X14467Y-20376D01*
X14368Y-20375D01*
X14030Y-20376D01*
X13968Y-20438D01*
X13968Y-21076D01*
X14605Y-21076D01*
X14668Y-21013D01*
X14668Y-20576D01*
X14668Y-21675D01*
X14668Y-21238D01*
X14605Y-21176D01*
X13968Y-21176D01*
X13968Y-21813D01*
X14030Y-21876D01*
X14368Y-21876D01*
X14467Y-21875D01*
X14559Y-21837D01*
X14630Y-21767D01*
X14668Y-21675D01*
X14668Y-22230D01*
X14630Y-22138D01*
X14559Y-22068D01*
X14467Y-22030D01*
X14368Y-22029D01*
X14030Y-22030D01*
X13968Y-22092D01*
X13968Y-22730D01*
X14605Y-22730D01*
X14668Y-22667D01*
X14668Y-22230D01*
X14668Y-23329D01*
X14668Y-22892D01*
X14605Y-22830D01*
X13968Y-22830D01*
X13968Y-23467D01*
X14030Y-23530D01*
X14368Y-23530D01*
X14467Y-23529D01*
X14559Y-23491D01*
X14630Y-23421D01*
X14668Y-23329D01*
X14668Y-25398D01*
X13868Y-26198D01*
X13868Y-23467D01*
X13868Y-22830D01*
X13868Y-22730D01*
X13868Y-22092D01*
X13868Y-21813D01*
X13868Y-21176D01*
X13868Y-21076D01*
X13868Y-20438D01*
X13868Y-20161D01*
X13868Y-19524D01*
X13868Y-19424D01*
X13868Y-18786D01*
X13868Y-18507D01*
X13868Y-17870D01*
X13868Y-17770D01*
X13868Y-17132D01*
X13868Y-15967D01*
X13868Y-15330D01*
X13868Y-15230D01*
X13868Y-14592D01*
X13868Y-14313D01*
X13868Y-13676D01*
X13868Y-13576D01*
X13868Y-12938D01*
X13868Y-12661D01*
X13868Y-12024D01*
X13868Y-11924D01*
X13868Y-11286D01*
X13868Y-11007D01*
X13868Y-10370D01*
X13868Y-10270D01*
X13868Y-9632D01*
X13805Y-9570D01*
X13467Y-9569D01*
X13368Y-9570D01*
X13276Y-9608D01*
X13205Y-9678D01*
X13167Y-9770D01*
X13168Y-10207D01*
X13230Y-10270D01*
X13868Y-10270D01*
X13868Y-10370D01*
X13230Y-10370D01*
X13168Y-10432D01*
X13167Y-10869D01*
X13205Y-10961D01*
X13276Y-11031D01*
X13368Y-11069D01*
X13467Y-11070D01*
X13805Y-11070D01*
X13868Y-11007D01*
X13868Y-11286D01*
X13805Y-11224D01*
X13467Y-11223D01*
X13368Y-11224D01*
X13276Y-11262D01*
X13205Y-11332D01*
X13167Y-11424D01*
X13168Y-11861D01*
X13230Y-11924D01*
X13868Y-11924D01*
X13868Y-12024D01*
X13230Y-12024D01*
X13168Y-12086D01*
X13167Y-12523D01*
X13205Y-12615D01*
X13276Y-12685D01*
X13368Y-12723D01*
X13467Y-12724D01*
X13805Y-12724D01*
X13868Y-12661D01*
X13868Y-12938D01*
X13805Y-12876D01*
X13467Y-12875D01*
X13368Y-12876D01*
X13276Y-12914D01*
X13205Y-12984D01*
X13167Y-13076D01*
X13168Y-13513D01*
X13230Y-13576D01*
X13868Y-13576D01*
X13868Y-13676D01*
X13230Y-13676D01*
X13168Y-13738D01*
X13167Y-14175D01*
X13205Y-14267D01*
X13276Y-14337D01*
X13368Y-14375D01*
X13467Y-14376D01*
X13805Y-14376D01*
X13868Y-14313D01*
X13868Y-14592D01*
X13805Y-14530D01*
X13467Y-14529D01*
X13368Y-14530D01*
X13276Y-14568D01*
X13205Y-14638D01*
X13167Y-14730D01*
X13168Y-15167D01*
X13230Y-15230D01*
X13868Y-15230D01*
X13868Y-15330D01*
X13230Y-15330D01*
X13168Y-15392D01*
X13167Y-15829D01*
X13205Y-15921D01*
X13276Y-15991D01*
X13368Y-16029D01*
X13467Y-16030D01*
X13805Y-16030D01*
X13868Y-15967D01*
X13868Y-17132D01*
X13805Y-17070D01*
X13467Y-17069D01*
X13368Y-17070D01*
X13276Y-17108D01*
X13205Y-17178D01*
X13167Y-17270D01*
X13168Y-17707D01*
X13230Y-17770D01*
X13868Y-17770D01*
X13868Y-17870D01*
X13230Y-17870D01*
X13168Y-17932D01*
X13167Y-18369D01*
X13205Y-18461D01*
X13276Y-18531D01*
X13368Y-18569D01*
X13467Y-18570D01*
X13805Y-18570D01*
X13868Y-18507D01*
X13868Y-18786D01*
X13805Y-18724D01*
X13467Y-18723D01*
X13368Y-18724D01*
X13276Y-18762D01*
X13205Y-18832D01*
X13167Y-18924D01*
X13168Y-19361D01*
X13230Y-19424D01*
X13868Y-19424D01*
X13868Y-19524D01*
X13230Y-19524D01*
X13168Y-19586D01*
X13167Y-20023D01*
X13205Y-20115D01*
X13276Y-20185D01*
X13368Y-20223D01*
X13467Y-20224D01*
X13805Y-20224D01*
X13868Y-20161D01*
X13868Y-20438D01*
X13805Y-20376D01*
X13467Y-20375D01*
X13368Y-20376D01*
X13276Y-20414D01*
X13205Y-20484D01*
X13167Y-20576D01*
X13168Y-21013D01*
X13230Y-21076D01*
X13868Y-21076D01*
X13868Y-21176D01*
X13230Y-21176D01*
X13168Y-21238D01*
X13167Y-21675D01*
X13205Y-21767D01*
X13276Y-21837D01*
X13368Y-21875D01*
X13467Y-21876D01*
X13805Y-21876D01*
X13868Y-21813D01*
X13868Y-22092D01*
X13805Y-22030D01*
X13467Y-22029D01*
X13368Y-22030D01*
X13276Y-22068D01*
X13205Y-22138D01*
X13167Y-22230D01*
X13168Y-22667D01*
X13230Y-22730D01*
X13868Y-22730D01*
X13868Y-22830D01*
X13230Y-22830D01*
X13168Y-22892D01*
X13167Y-23329D01*
X13205Y-23421D01*
X13276Y-23491D01*
X13368Y-23529D01*
X13467Y-23530D01*
X13805Y-23530D01*
X13868Y-23467D01*
X13868Y-26198D01*
X13639Y-26427D01*
X13639Y-25014D01*
X13496Y-24668D01*
X13232Y-24404D01*
X12887Y-24261D01*
X12514Y-24260D01*
X12168Y-24403D01*
X11904Y-24667D01*
X11884Y-24716D01*
X11884Y-22613D01*
X11884Y-17653D01*
X11884Y-15113D01*
X11884Y-10153D01*
X11756Y-9844D01*
X11520Y-9607D01*
X11211Y-9479D01*
X10876Y-9479D01*
X10567Y-9607D01*
X10331Y-9843D01*
X10202Y-10152D01*
X10202Y-10486D01*
X10330Y-10795D01*
X10566Y-11032D01*
X10875Y-11160D01*
X11209Y-11160D01*
X11518Y-11033D01*
X11755Y-10796D01*
X11883Y-10487D01*
X11884Y-10153D01*
X11884Y-15113D01*
X11756Y-14804D01*
X11520Y-14567D01*
X11211Y-14439D01*
X10876Y-14439D01*
X10567Y-14567D01*
X10331Y-14803D01*
X10202Y-15112D01*
X10202Y-15446D01*
X10330Y-15755D01*
X10566Y-15992D01*
X10875Y-16120D01*
X11209Y-16120D01*
X11518Y-15993D01*
X11755Y-15756D01*
X11883Y-15447D01*
X11884Y-15113D01*
X11884Y-17653D01*
X11756Y-17344D01*
X11520Y-17107D01*
X11211Y-16979D01*
X10876Y-16979D01*
X10567Y-17107D01*
X10331Y-17343D01*
X10202Y-17652D01*
X10202Y-17986D01*
X10330Y-18295D01*
X10566Y-18532D01*
X10875Y-18660D01*
X11209Y-18660D01*
X11518Y-18533D01*
X11755Y-18296D01*
X11883Y-17987D01*
X11884Y-17653D01*
X11884Y-22613D01*
X11756Y-22304D01*
X11520Y-22067D01*
X11211Y-21939D01*
X10876Y-21939D01*
X10567Y-22067D01*
X10331Y-22303D01*
X10202Y-22612D01*
X10202Y-22946D01*
X10330Y-23255D01*
X10566Y-23492D01*
X10875Y-23620D01*
X11209Y-23620D01*
X11518Y-23493D01*
X11755Y-23256D01*
X11883Y-22947D01*
X11884Y-22613D01*
X11884Y-24716D01*
X11761Y-25012D01*
X11760Y-25385D01*
X11903Y-25731D01*
X12167Y-25995D01*
X12512Y-26138D01*
X12885Y-26139D01*
X13231Y-25996D01*
X13495Y-25732D01*
X13638Y-25387D01*
X13639Y-25014D01*
X13639Y-26427D01*
X13599Y-26466D01*
X13519Y-26586D01*
X13491Y-26727D01*
X13491Y-28664D01*
X13232Y-28404D01*
X12887Y-28261D01*
X12514Y-28260D01*
X12168Y-28403D01*
X11904Y-28667D01*
X11761Y-29012D01*
X11760Y-29385D01*
X11903Y-29731D01*
X12167Y-29995D01*
X12512Y-30138D01*
X12885Y-30139D01*
X13231Y-29996D01*
X13491Y-29736D01*
X13491Y-31064D01*
X13232Y-30804D01*
X12887Y-30661D01*
X12514Y-30660D01*
X12168Y-30803D01*
X11904Y-31067D01*
X11761Y-31412D01*
X11760Y-31785D01*
X11903Y-32131D01*
X12167Y-32395D01*
X12512Y-32538D01*
X12885Y-32539D01*
X13231Y-32396D01*
X13491Y-32136D01*
X13491Y-34885D01*
X13487Y-34906D01*
X13515Y-35046D01*
X13595Y-35166D01*
X14539Y-36110D01*
X14539Y-36110D01*
X14659Y-36190D01*
X14799Y-36218D01*
X14799Y-36218D01*
X14800Y-36218D01*
X19800Y-36218D01*
X19940Y-36190D01*
X20060Y-36110D01*
X21460Y-34710D01*
X21540Y-34590D01*
X21568Y-34450D01*
X21568Y-32302D01*
X22219Y-31650D01*
X22220Y-31869D01*
X22282Y-31932D01*
X22920Y-31932D01*
X22920Y-31924D01*
X23020Y-31924D01*
X23020Y-31932D01*
X23657Y-31932D01*
X23720Y-31869D01*
X23720Y-31531D01*
X23719Y-31432D01*
X23681Y-31340D01*
X23611Y-31269D01*
X23607Y-31268D01*
X23750Y-31268D01*
X23890Y-31240D01*
X24010Y-31160D01*
X24602Y-30568D01*
X24853Y-30568D01*
X25495Y-31210D01*
X25495Y-31210D01*
X25614Y-31289D01*
X25564Y-31340D01*
X25526Y-31432D01*
X25525Y-31531D01*
X25526Y-31869D01*
X25588Y-31932D01*
X26226Y-31932D01*
X26226Y-31924D01*
X26326Y-31924D01*
X26326Y-31932D01*
X26963Y-31932D01*
X27026Y-31869D01*
X27026Y-31531D01*
X27025Y-31432D01*
X26987Y-31340D01*
X26965Y-31318D01*
X27240Y-31318D01*
X27218Y-31340D01*
X27180Y-31432D01*
X27179Y-31531D01*
X27180Y-31869D01*
X27242Y-31932D01*
X27880Y-31932D01*
X27880Y-31924D01*
X27980Y-31924D01*
X27980Y-31932D01*
X28617Y-31932D01*
X28680Y-31869D01*
X28680Y-31531D01*
X28679Y-31432D01*
X28641Y-31340D01*
X28619Y-31318D01*
X28675Y-31318D01*
X28815Y-31290D01*
X28935Y-31210D01*
X29502Y-30643D01*
X31994Y-30643D01*
X31994Y-32167D01*
X31871Y-31869D01*
X31632Y-31629D01*
X31319Y-31500D01*
X30981Y-31499D01*
X30669Y-31628D01*
X30429Y-31867D01*
X30300Y-32180D01*
X30299Y-32518D01*
X30428Y-32830D01*
X30667Y-33070D01*
X30980Y-33199D01*
X31318Y-33200D01*
X31630Y-33071D01*
X31870Y-32832D01*
X31994Y-32533D01*
X31994Y-32795D01*
X32022Y-32936D01*
X32101Y-33055D01*
X32653Y-33606D01*
X32653Y-33606D01*
X32772Y-33686D01*
X32890Y-33709D01*
X32913Y-33714D01*
X32913Y-33714D01*
X32913Y-33714D01*
X36753Y-33714D01*
X36894Y-33686D01*
X37013Y-33606D01*
X37420Y-33199D01*
X37558Y-33200D01*
X37761Y-33116D01*
X37915Y-32961D01*
X37999Y-32759D01*
X38000Y-32541D01*
X37958Y-32440D01*
X38670Y-32440D01*
X38670Y-32439D01*
X38784Y-32417D01*
X38784Y-32417D01*
X38882Y-32352D01*
X38900Y-32334D01*
X38899Y-32518D01*
X39028Y-32830D01*
X39267Y-33070D01*
X39580Y-33199D01*
X39918Y-33200D01*
X40230Y-33071D01*
X40470Y-32832D01*
X40599Y-32519D01*
X40600Y-32181D01*
X40471Y-31869D01*
X40232Y-31629D01*
X39919Y-31500D01*
X39734Y-31499D01*
X41694Y-29540D01*
X45950Y-29540D01*
X45950Y-29539D01*
X46064Y-29517D01*
X46064Y-29517D01*
X46162Y-29452D01*
X47052Y-28562D01*
X47056Y-28555D01*
X47268Y-28768D01*
X47645Y-28924D01*
X48052Y-28925D01*
X48429Y-28769D01*
X48718Y-28481D01*
X48874Y-28104D01*
X48875Y-27697D01*
X48719Y-27320D01*
X48431Y-27031D01*
X48404Y-27020D01*
X48404Y-25981D01*
X48393Y-25763D01*
X48331Y-25612D01*
X48235Y-25584D01*
X47920Y-25900D01*
X48235Y-26215D01*
X48331Y-26187D01*
X48404Y-25981D01*
X48404Y-27020D01*
X48165Y-26921D01*
X48165Y-26285D01*
X47850Y-25970D01*
X47779Y-26041D01*
X47779Y-25900D01*
X47464Y-25584D01*
X47368Y-25612D01*
X47351Y-25660D01*
X47331Y-25612D01*
X47235Y-25584D01*
X46920Y-25900D01*
X47235Y-26215D01*
X47331Y-26187D01*
X47348Y-26139D01*
X47368Y-26187D01*
X47464Y-26215D01*
X47779Y-25900D01*
X47779Y-26041D01*
X47534Y-26285D01*
X47562Y-26381D01*
X47768Y-26454D01*
X47986Y-26443D01*
X48137Y-26381D01*
X48165Y-26285D01*
X48165Y-26921D01*
X48054Y-26875D01*
X47647Y-26874D01*
X47270Y-27030D01*
X47140Y-27160D01*
X47140Y-26900D01*
X47117Y-26785D01*
X47052Y-26687D01*
X47052Y-26687D01*
X46816Y-26452D01*
X46986Y-26443D01*
X47137Y-26381D01*
X47165Y-26285D01*
X46850Y-25970D01*
X46844Y-25976D01*
X46773Y-25905D01*
X46779Y-25900D01*
X46464Y-25584D01*
X46368Y-25612D01*
X46295Y-25818D01*
X46301Y-25936D01*
X46210Y-25845D01*
X46210Y-15820D01*
X46187Y-15705D01*
X46122Y-15607D01*
X46122Y-15607D01*
X45582Y-15067D01*
X45484Y-15002D01*
X45482Y-15002D01*
X45703Y-14782D01*
X45831Y-14473D01*
X45831Y-14139D01*
X45703Y-13830D01*
X45467Y-13593D01*
X45158Y-13465D01*
X44824Y-13465D01*
X44788Y-13480D01*
X44788Y-9776D01*
X45145Y-9924D01*
X45552Y-9925D01*
X45929Y-9769D01*
X46218Y-9481D01*
X46357Y-9147D01*
X46383Y-9211D01*
X46538Y-9365D01*
X46619Y-9399D01*
X46538Y-9433D01*
X46384Y-9588D01*
X46300Y-9790D01*
X46299Y-10008D01*
X46383Y-10211D01*
X46538Y-10365D01*
X46619Y-10399D01*
X46538Y-10433D01*
X46384Y-10588D01*
X46300Y-10790D01*
X46299Y-11008D01*
X46383Y-11211D01*
X46538Y-11365D01*
X46619Y-11399D01*
X46538Y-11433D01*
X46384Y-11588D01*
X46300Y-11790D01*
X46299Y-12008D01*
X46383Y-12211D01*
X46538Y-12365D01*
X46619Y-12399D01*
X46538Y-12433D01*
X46384Y-12588D01*
X46300Y-12790D01*
X46299Y-13008D01*
X46383Y-13211D01*
X46538Y-13365D01*
X46619Y-13399D01*
X46538Y-13433D01*
X46384Y-13588D01*
X46300Y-13790D01*
X46299Y-14008D01*
X46383Y-14211D01*
X46538Y-14365D01*
X46619Y-14399D01*
X46538Y-14433D01*
X46384Y-14588D01*
X46300Y-14790D01*
X46299Y-15008D01*
X46383Y-15211D01*
X46538Y-15365D01*
X46619Y-15399D01*
X46538Y-15433D01*
X46384Y-15588D01*
X46300Y-15790D01*
X46299Y-16008D01*
X46383Y-16211D01*
X46538Y-16365D01*
X46619Y-16399D01*
X46538Y-16433D01*
X46384Y-16588D01*
X46300Y-16790D01*
X46299Y-17008D01*
X46383Y-17211D01*
X46538Y-17365D01*
X46619Y-17399D01*
X46538Y-17433D01*
X46384Y-17588D01*
X46300Y-17790D01*
X46299Y-18008D01*
X46383Y-18211D01*
X46538Y-18365D01*
X46619Y-18399D01*
X46538Y-18433D01*
X46384Y-18588D01*
X46300Y-18790D01*
X46299Y-19008D01*
X46383Y-19211D01*
X46538Y-19365D01*
X46619Y-19399D01*
X46538Y-19433D01*
X46384Y-19588D01*
X46300Y-19790D01*
X46299Y-20008D01*
X46383Y-20211D01*
X46538Y-20365D01*
X46619Y-20399D01*
X46538Y-20433D01*
X46384Y-20588D01*
X46300Y-20790D01*
X46299Y-21008D01*
X46383Y-21211D01*
X46538Y-21365D01*
X46619Y-21399D01*
X46538Y-21433D01*
X46384Y-21588D01*
X46300Y-21790D01*
X46299Y-22008D01*
X46383Y-22211D01*
X46538Y-22365D01*
X46619Y-22399D01*
X46538Y-22433D01*
X46384Y-22588D01*
X46300Y-22790D01*
X46299Y-23008D01*
X46383Y-23211D01*
X46538Y-23365D01*
X46619Y-23399D01*
X46538Y-23433D01*
X46384Y-23588D01*
X46300Y-23790D01*
X46299Y-24008D01*
X46383Y-24211D01*
X46538Y-24365D01*
X46619Y-24399D01*
X46538Y-24433D01*
X46384Y-24588D01*
X46300Y-24790D01*
X46299Y-25008D01*
X46383Y-25211D01*
X46538Y-25365D01*
X46613Y-25397D01*
X46562Y-25418D01*
X46534Y-25514D01*
X46850Y-25829D01*
X47165Y-25514D01*
X47137Y-25418D01*
X47082Y-25399D01*
X47161Y-25366D01*
X47315Y-25211D01*
X47349Y-25130D01*
X47383Y-25211D01*
X47538Y-25365D01*
X47613Y-25397D01*
X47562Y-25418D01*
X47534Y-25514D01*
X47850Y-25829D01*
X48165Y-25514D01*
X48137Y-25418D01*
X48082Y-25399D01*
X48161Y-25366D01*
X48315Y-25211D01*
X48399Y-25009D01*
X48400Y-24791D01*
X48316Y-24588D01*
X48161Y-24434D01*
X48080Y-24400D01*
X48161Y-24366D01*
X48315Y-24211D01*
X48399Y-24009D01*
X48400Y-23791D01*
X48316Y-23588D01*
X48161Y-23434D01*
X48080Y-23400D01*
X48161Y-23366D01*
X48315Y-23211D01*
X48399Y-23009D01*
X48400Y-22791D01*
X48316Y-22588D01*
X48161Y-22434D01*
X48080Y-22400D01*
X48161Y-22366D01*
X48315Y-22211D01*
X48399Y-22009D01*
X48400Y-21791D01*
X48316Y-21588D01*
X48161Y-21434D01*
X48080Y-21400D01*
X48161Y-21366D01*
X48315Y-21211D01*
X48399Y-21009D01*
X48400Y-20791D01*
X48316Y-20588D01*
X48161Y-20434D01*
X48080Y-20400D01*
X48161Y-20366D01*
X48315Y-20211D01*
X48399Y-20009D01*
X48400Y-19791D01*
X48316Y-19588D01*
X48161Y-19434D01*
X48080Y-19400D01*
X48161Y-19366D01*
X48315Y-19211D01*
X48399Y-19009D01*
X48400Y-18791D01*
X48316Y-18588D01*
X48161Y-18434D01*
X48080Y-18400D01*
X48161Y-18366D01*
X48315Y-18211D01*
X48399Y-18009D01*
X48400Y-17791D01*
X48316Y-17588D01*
X48161Y-17434D01*
X48080Y-17400D01*
X48161Y-17366D01*
X48315Y-17211D01*
X48399Y-17009D01*
X48400Y-16791D01*
X48316Y-16588D01*
X48161Y-16434D01*
X48080Y-16400D01*
X48161Y-16366D01*
X48315Y-16211D01*
X48399Y-16009D01*
X48400Y-15791D01*
X48316Y-15588D01*
X48161Y-15434D01*
X48080Y-15400D01*
X48161Y-15366D01*
X48315Y-15211D01*
X48399Y-15009D01*
X48400Y-14791D01*
X48316Y-14588D01*
X48161Y-14434D01*
X48080Y-14400D01*
X48161Y-14366D01*
X48315Y-14211D01*
X48399Y-14009D01*
X48400Y-13791D01*
X48316Y-13588D01*
X48161Y-13434D01*
X48080Y-13400D01*
X48161Y-13366D01*
X48315Y-13211D01*
X48399Y-13009D01*
X48400Y-12791D01*
X48316Y-12588D01*
X48161Y-12434D01*
X48080Y-12400D01*
X48161Y-12366D01*
X48315Y-12211D01*
X48399Y-12009D01*
X48400Y-11791D01*
X48316Y-11588D01*
X48161Y-11434D01*
X48080Y-11400D01*
X48161Y-11366D01*
X48315Y-11211D01*
X48399Y-11009D01*
X48400Y-10791D01*
X48316Y-10588D01*
X48161Y-10434D01*
X48080Y-10400D01*
X48161Y-10366D01*
X48315Y-10211D01*
X48399Y-10009D01*
X48400Y-9791D01*
X48316Y-9588D01*
X48161Y-9434D01*
X48080Y-9400D01*
X48161Y-9366D01*
X48315Y-9211D01*
X48399Y-9009D01*
X48400Y-8791D01*
X48316Y-8588D01*
X48161Y-8434D01*
X47959Y-8350D01*
X47741Y-8349D01*
X47538Y-8433D01*
X47384Y-8588D01*
X47350Y-8669D01*
X47316Y-8588D01*
X47161Y-8434D01*
X46959Y-8350D01*
X46741Y-8349D01*
X46538Y-8433D01*
X46384Y-8588D01*
X46357Y-8653D01*
X46219Y-8320D01*
X46124Y-8225D01*
X49125Y-8225D01*
X49125Y-36265D01*
M02*
