G04 (created by PCBNEW-RS274X (2011-04-29 BZR 2986)-stable) date 11/21/2011 10:44:46 AM*
G01*
G70*
G90*
%MOIN*%
G04 Gerber Fmt 3.4, Leading zero omitted, Abs format*
%FSLAX34Y34*%
G04 APERTURE LIST*
%ADD10C,0.006000*%
%ADD11C,0.175000*%
%ADD12C,0.140000*%
%ADD13R,0.080000X0.080000*%
%ADD14C,0.080000*%
%ADD15C,0.157800*%
%ADD16R,0.045000X0.065000*%
%ADD17R,0.080000X0.100000*%
%ADD18R,0.100000X0.080000*%
%ADD19R,0.065000X0.040000*%
%ADD20R,0.090900X0.082900*%
%ADD21R,0.065000X0.045000*%
%ADD22R,0.040000X0.065000*%
%ADD23R,0.070000X0.050000*%
%ADD24R,0.050000X0.040000*%
%ADD25R,0.056000X0.068000*%
%ADD26R,0.090000X0.090000*%
%ADD27C,0.090000*%
%ADD28O,0.080000X0.120000*%
G04 APERTURE END LIST*
G54D10*
G54D11*
X10750Y-43400D03*
X47150Y-43400D03*
G54D12*
X45400Y-40100D03*
X45400Y-31500D03*
G54D13*
X44700Y-33800D03*
G54D14*
X45700Y-33800D03*
X44700Y-34800D03*
X45700Y-34800D03*
X44700Y-35800D03*
X45700Y-35800D03*
X44700Y-36800D03*
X45700Y-36800D03*
X44700Y-37800D03*
X45700Y-37800D03*
G54D15*
X12150Y-30250D03*
X12150Y-34250D03*
G54D14*
X14150Y-33250D03*
X14150Y-32250D03*
G54D16*
X36850Y-18650D03*
X36250Y-18650D03*
X35800Y-14550D03*
X35200Y-14550D03*
G54D17*
X35300Y-31500D03*
X34000Y-31500D03*
X28750Y-30500D03*
X30050Y-30500D03*
X22250Y-30500D03*
X23550Y-30500D03*
X28750Y-32500D03*
X30050Y-32500D03*
X22250Y-32500D03*
X23550Y-32500D03*
X28750Y-35000D03*
X30050Y-35000D03*
X22250Y-35000D03*
X23550Y-35000D03*
X28750Y-37000D03*
X30050Y-37000D03*
X35300Y-34750D03*
X34000Y-34750D03*
G54D18*
X39950Y-39900D03*
X39950Y-38600D03*
X32950Y-21500D03*
X32950Y-22800D03*
G54D17*
X25900Y-23950D03*
X24600Y-23950D03*
G54D18*
X34950Y-22400D03*
X34950Y-21100D03*
X37350Y-22400D03*
X37350Y-23700D03*
X42150Y-10850D03*
X42150Y-12150D03*
G54D17*
X37500Y-37150D03*
X38800Y-37150D03*
X37500Y-36000D03*
X38800Y-36000D03*
X34000Y-30250D03*
X35300Y-30250D03*
X25900Y-24950D03*
X24600Y-24950D03*
X35300Y-36000D03*
X34000Y-36000D03*
X32400Y-17850D03*
X31100Y-17850D03*
X25900Y-25950D03*
X24600Y-25950D03*
X22250Y-37000D03*
X23550Y-37000D03*
X31700Y-20350D03*
X33000Y-20350D03*
G54D19*
X25900Y-16300D03*
X28000Y-16300D03*
X25900Y-15800D03*
X25900Y-15300D03*
X25900Y-14800D03*
X28000Y-15800D03*
X28000Y-15300D03*
X28000Y-14800D03*
G54D18*
X31750Y-21500D03*
X31750Y-22800D03*
G54D17*
X25900Y-22950D03*
X24600Y-22950D03*
G54D15*
X12150Y-37350D03*
X12150Y-41350D03*
G54D14*
X14150Y-40350D03*
X14150Y-39350D03*
G54D16*
X39850Y-32650D03*
X40450Y-32650D03*
G54D20*
X39950Y-37759D03*
X39950Y-36641D03*
G54D16*
X29850Y-20850D03*
X29250Y-20850D03*
G54D21*
X36950Y-24450D03*
X36950Y-25050D03*
G54D16*
X39850Y-33850D03*
X40450Y-33850D03*
G54D18*
X36150Y-22400D03*
X36150Y-21100D03*
X43400Y-10850D03*
X43400Y-12150D03*
G54D17*
X38700Y-26650D03*
X40000Y-26650D03*
G54D19*
X34050Y-23550D03*
X34050Y-24050D03*
X34050Y-24550D03*
X34050Y-25050D03*
X34050Y-25550D03*
X34050Y-26050D03*
X34050Y-26550D03*
X36150Y-26550D03*
X36150Y-26050D03*
X36150Y-25550D03*
X36150Y-25050D03*
X36150Y-24550D03*
X36150Y-24050D03*
X36150Y-23550D03*
G54D22*
X27050Y-25650D03*
X27550Y-25650D03*
X28050Y-25650D03*
X28550Y-25650D03*
X29050Y-25650D03*
X29550Y-25650D03*
X30050Y-25650D03*
X30050Y-23550D03*
X29550Y-23550D03*
X29050Y-23550D03*
X28550Y-23550D03*
X28050Y-23550D03*
X27550Y-23550D03*
X27050Y-23550D03*
G54D23*
X44650Y-26600D03*
X44650Y-26100D03*
X44650Y-25600D03*
X44650Y-25100D03*
X44650Y-24600D03*
X44650Y-24100D03*
X44650Y-23600D03*
X44650Y-23100D03*
X44650Y-22600D03*
X44650Y-22100D03*
X44650Y-21600D03*
X44650Y-21100D03*
X40850Y-26600D03*
X40850Y-26100D03*
X40850Y-25600D03*
X40850Y-25100D03*
X40850Y-24600D03*
X40850Y-24100D03*
X40850Y-23600D03*
X40850Y-23100D03*
X40850Y-22600D03*
X40850Y-22100D03*
X40850Y-21600D03*
X40850Y-21100D03*
G54D17*
X17900Y-20450D03*
X16600Y-20450D03*
X32800Y-31500D03*
X31500Y-31500D03*
X32800Y-36000D03*
X31500Y-36000D03*
G54D16*
X29850Y-20150D03*
X29250Y-20150D03*
G54D18*
X24650Y-35000D03*
X24650Y-36000D03*
X24650Y-37000D03*
X24650Y-38000D03*
X27650Y-38000D03*
X27650Y-37000D03*
X27650Y-36000D03*
X27650Y-35000D03*
X24650Y-30500D03*
X24650Y-31500D03*
X24650Y-32500D03*
X24650Y-33500D03*
X27650Y-33500D03*
X27650Y-32500D03*
X27650Y-31500D03*
X27650Y-30500D03*
G54D19*
X37050Y-31750D03*
X37050Y-32250D03*
X37050Y-32750D03*
X37050Y-33250D03*
X37050Y-33750D03*
X37050Y-34250D03*
X37050Y-34750D03*
X39150Y-34750D03*
X39150Y-34250D03*
X39150Y-33750D03*
X39150Y-33250D03*
X39150Y-32750D03*
X39150Y-32250D03*
X39150Y-31750D03*
G54D22*
X36750Y-15850D03*
X36250Y-15850D03*
X35750Y-15850D03*
X35250Y-15850D03*
X34750Y-15850D03*
X34250Y-15850D03*
X33750Y-15850D03*
X33750Y-17950D03*
X34250Y-17950D03*
X34750Y-17950D03*
X35250Y-17950D03*
X35750Y-17950D03*
X36250Y-17950D03*
X36750Y-17950D03*
X40800Y-11750D03*
X40300Y-11750D03*
X39800Y-11750D03*
X39300Y-11750D03*
X38800Y-11750D03*
X38300Y-11750D03*
X37800Y-11750D03*
X37300Y-11750D03*
X37300Y-13750D03*
X37800Y-13750D03*
X38300Y-13750D03*
X38800Y-13750D03*
X39300Y-13750D03*
X39800Y-13750D03*
X40300Y-13750D03*
X40800Y-13750D03*
X35750Y-11800D03*
X35250Y-11800D03*
X34750Y-11800D03*
X34250Y-11800D03*
X33750Y-11800D03*
X33250Y-11800D03*
X32750Y-11800D03*
X32250Y-11800D03*
X32250Y-13800D03*
X32750Y-13800D03*
X33250Y-13800D03*
X33750Y-13800D03*
X34250Y-13800D03*
X34750Y-13800D03*
X35250Y-13800D03*
X35750Y-13800D03*
X30900Y-13800D03*
X30900Y-11700D03*
X30400Y-13800D03*
X29900Y-13800D03*
X29400Y-13800D03*
X30400Y-11700D03*
X29900Y-11700D03*
X29400Y-11700D03*
G54D24*
X29050Y-21575D03*
X29050Y-22325D03*
X30050Y-21575D03*
X29050Y-21950D03*
X30050Y-22325D03*
G54D15*
X12150Y-18450D03*
X12150Y-22450D03*
G54D14*
X14150Y-21450D03*
X14150Y-20450D03*
G54D15*
X16950Y-39250D03*
X20950Y-39250D03*
G54D14*
X19950Y-37250D03*
X18950Y-37250D03*
G54D18*
X20900Y-28350D03*
X20900Y-29650D03*
G54D21*
X19650Y-28450D03*
X19650Y-29050D03*
G54D25*
X32795Y-32750D03*
X31505Y-32750D03*
X31505Y-30250D03*
X32795Y-30250D03*
X32795Y-34750D03*
X31505Y-34750D03*
X31505Y-37250D03*
X32795Y-37250D03*
X28905Y-16950D03*
X30195Y-16950D03*
X30195Y-19350D03*
X28905Y-19350D03*
X30195Y-17750D03*
X28905Y-17750D03*
X28905Y-18550D03*
X30195Y-18550D03*
G54D26*
X40790Y-43682D03*
X39137Y-43682D03*
X37483Y-43682D03*
X35830Y-43682D03*
X34176Y-43682D03*
X32524Y-43682D03*
X30870Y-43682D03*
X29217Y-43682D03*
X27563Y-43682D03*
X25910Y-43682D03*
X40790Y-41518D03*
X39137Y-41518D03*
X37483Y-41518D03*
X35830Y-41518D03*
X34176Y-41518D03*
X32524Y-41518D03*
X30870Y-41518D03*
X29217Y-41518D03*
X27563Y-41518D03*
X25910Y-41518D03*
G54D18*
X41200Y-39900D03*
X41200Y-38600D03*
G54D20*
X41200Y-37759D03*
X41200Y-36641D03*
G54D27*
X22700Y-38800D03*
X33200Y-38800D03*
X24100Y-43100D03*
X13600Y-43100D03*
X42800Y-39350D03*
X32300Y-39350D03*
G54D28*
X36150Y-09250D03*
X37150Y-09250D03*
X38150Y-09250D03*
X39150Y-09250D03*
X40150Y-09250D03*
X41150Y-09250D03*
X42150Y-09250D03*
X43150Y-09250D03*
X45150Y-28250D03*
X44150Y-28250D03*
X43150Y-28250D03*
X42150Y-28250D03*
X38150Y-28250D03*
X36150Y-28250D03*
X35150Y-28250D03*
X39150Y-28250D03*
X40150Y-28250D03*
X41150Y-28250D03*
X34150Y-28250D03*
X33150Y-28250D03*
X32150Y-28250D03*
X29150Y-28250D03*
X30150Y-28250D03*
X31150Y-28250D03*
X27150Y-28250D03*
X26150Y-28250D03*
X25150Y-28250D03*
X23150Y-28250D03*
X22150Y-28250D03*
X34150Y-09250D03*
X33150Y-09250D03*
X32150Y-09250D03*
X31150Y-09250D03*
X30150Y-09250D03*
X29150Y-09250D03*
X28150Y-09250D03*
X27150Y-09250D03*
X25550Y-09250D03*
X24550Y-09250D03*
X23550Y-09250D03*
X22550Y-09250D03*
X21550Y-09250D03*
X20550Y-09250D03*
X19550Y-09250D03*
X18550Y-09250D03*
X24150Y-28250D03*
G54D11*
X47150Y-28250D03*
X44650Y-09250D03*
X15150Y-09250D03*
X14650Y-28250D03*
G54D14*
X46150Y-10250D03*
X47150Y-10250D03*
X46150Y-11250D03*
X47150Y-11250D03*
X46150Y-12250D03*
X47150Y-12250D03*
X46150Y-13250D03*
X47150Y-13250D03*
X46150Y-09250D03*
X47150Y-09250D03*
X47150Y-14250D03*
X46150Y-14250D03*
X46150Y-15250D03*
X47150Y-15250D03*
X46150Y-16250D03*
X47150Y-16250D03*
X46150Y-17250D03*
X47150Y-17250D03*
X46150Y-18250D03*
X47150Y-18250D03*
X46150Y-19250D03*
X47150Y-19250D03*
X46150Y-20250D03*
X47150Y-20250D03*
X46150Y-21250D03*
X47150Y-21250D03*
X46150Y-22250D03*
X47150Y-22250D03*
X46150Y-23250D03*
X47150Y-23250D03*
X46150Y-24250D03*
X47150Y-24250D03*
X46150Y-25250D03*
X47150Y-25250D03*
X46150Y-26250D03*
X47150Y-26250D03*
M02*
