G04 (created by PCBNEW (2013-07-07 BZR 4022)-stable) date 26/08/2013 5:31:51 PM*
%MOIN*%
G04 Gerber Fmt 3.4, Leading zero omitted, Abs format*
%FSLAX34Y34*%
G01*
G70*
G90*
G04 APERTURE LIST*
%ADD10C,0.00590551*%
%ADD11O,0.06X0.1*%
%ADD12C,0.155*%
%ADD13C,0.06*%
%ADD14C,0.12*%
%ADD15R,0.06X0.06*%
%ADD16C,0.1378*%
%ADD17R,0.07X0.07*%
%ADD18C,0.1181*%
%ADD19C,0.0944882*%
%ADD20C,0.0984252*%
%ADD21C,0.11811*%
%ADD22R,0.1X0.1*%
%ADD23C,0.16*%
%ADD24C,0.035*%
%ADD25C,0.023622*%
%ADD26C,0.01*%
G04 APERTURE END LIST*
G54D10*
G54D11*
X17250Y-8900D03*
X18250Y-8900D03*
X20850Y-27900D03*
X21850Y-27900D03*
X36850Y-8900D03*
X37850Y-8900D03*
X38850Y-8900D03*
X39850Y-8900D03*
X40850Y-8900D03*
X41850Y-8900D03*
X42850Y-8900D03*
X43850Y-8900D03*
X45850Y-27900D03*
X44850Y-27900D03*
X43850Y-27900D03*
X42850Y-27900D03*
X38850Y-27900D03*
X36850Y-27900D03*
X35850Y-27900D03*
X39850Y-27900D03*
X40850Y-27900D03*
X41850Y-27900D03*
X34850Y-27900D03*
X33850Y-27900D03*
X32850Y-27900D03*
X29850Y-27900D03*
X30850Y-27900D03*
X31850Y-27900D03*
X27850Y-27900D03*
X26850Y-27900D03*
X25850Y-27900D03*
X23850Y-27900D03*
X22850Y-27900D03*
X34850Y-8900D03*
X33850Y-8900D03*
X32850Y-8900D03*
X31850Y-8900D03*
X30850Y-8900D03*
X29850Y-8900D03*
X28850Y-8900D03*
X27850Y-8900D03*
X26250Y-8900D03*
X25250Y-8900D03*
X24250Y-8900D03*
X23250Y-8900D03*
X22250Y-8900D03*
X21250Y-8900D03*
X20250Y-8900D03*
X19250Y-8900D03*
X24850Y-27900D03*
G54D12*
X47850Y-27900D03*
X45350Y-8900D03*
G54D13*
X46850Y-9900D03*
X47850Y-9900D03*
X46850Y-10900D03*
X47850Y-10900D03*
X46850Y-11900D03*
X47850Y-11900D03*
X46850Y-12900D03*
X47850Y-12900D03*
X46850Y-8900D03*
X47850Y-8900D03*
X47850Y-13900D03*
X46850Y-13900D03*
X46850Y-14900D03*
X47850Y-14900D03*
X46850Y-15900D03*
X47850Y-15900D03*
X46850Y-16900D03*
X47850Y-16900D03*
X46850Y-17900D03*
X47850Y-17900D03*
X46850Y-18900D03*
X47850Y-18900D03*
X46850Y-19900D03*
X47850Y-19900D03*
X46850Y-20900D03*
X47850Y-20900D03*
X46850Y-21900D03*
X47850Y-21900D03*
X46850Y-22900D03*
X47850Y-22900D03*
X46850Y-23900D03*
X47850Y-23900D03*
X46850Y-24900D03*
X47850Y-24900D03*
X46850Y-25900D03*
X47850Y-25900D03*
G54D14*
X31150Y-32350D03*
X39750Y-32350D03*
G54D15*
X37450Y-31650D03*
G54D13*
X37450Y-32650D03*
X36450Y-31650D03*
X36450Y-32650D03*
X35450Y-31650D03*
X35450Y-32650D03*
X34450Y-31650D03*
X34450Y-32650D03*
X33450Y-31650D03*
X33450Y-32650D03*
G54D16*
X12700Y-31600D03*
X12700Y-35600D03*
G54D13*
X14700Y-34600D03*
X14700Y-33600D03*
G54D16*
X12700Y-25200D03*
X12700Y-29200D03*
G54D13*
X14700Y-28200D03*
X14700Y-27200D03*
G54D17*
X28260Y-12318D03*
X29913Y-12318D03*
X31567Y-12318D03*
X33220Y-12318D03*
X34874Y-12318D03*
X36526Y-12318D03*
X38180Y-12318D03*
X39833Y-12318D03*
X41487Y-12318D03*
X43140Y-12318D03*
X28260Y-14482D03*
X29913Y-14482D03*
X31567Y-14482D03*
X33220Y-14482D03*
X34874Y-14482D03*
X36526Y-14482D03*
X38180Y-14482D03*
X39833Y-14482D03*
X41487Y-14482D03*
X43140Y-14482D03*
G54D18*
X26409Y-14306D03*
X44991Y-14306D03*
G54D19*
X18450Y-33800D03*
G54D20*
X17450Y-32800D03*
X19450Y-32800D03*
X19450Y-34800D03*
X17450Y-34800D03*
G54D15*
X32950Y-25625D03*
G54D13*
X33950Y-25625D03*
X34950Y-25625D03*
G54D21*
X22970Y-34856D03*
G54D22*
X22970Y-29818D03*
X24624Y-29818D03*
X26276Y-29818D03*
X27930Y-29818D03*
X22970Y-31982D03*
X24624Y-31982D03*
X26276Y-31982D03*
X27930Y-31982D03*
G54D21*
X27930Y-34856D03*
X11043Y-10320D03*
G54D22*
X16082Y-10320D03*
X16082Y-11974D03*
X16082Y-13626D03*
X16082Y-15280D03*
X13918Y-10320D03*
X13918Y-11974D03*
X13918Y-13626D03*
X13918Y-15280D03*
G54D21*
X11043Y-15280D03*
X11043Y-17820D03*
G54D22*
X16082Y-17820D03*
X16082Y-19474D03*
X16082Y-21126D03*
X16082Y-22780D03*
X13918Y-17820D03*
X13918Y-19474D03*
X13918Y-21126D03*
X13918Y-22780D03*
G54D21*
X11043Y-22780D03*
G54D15*
X32937Y-23346D03*
G54D13*
X33937Y-23346D03*
X34937Y-23346D03*
G54D23*
X19530Y-30500D03*
X19520Y-11350D03*
G54D24*
X30460Y-27040D03*
X37047Y-26052D03*
X35787Y-24527D03*
X38031Y-27204D03*
X36250Y-29300D03*
X29875Y-25700D03*
X35196Y-15787D03*
X40920Y-10850D03*
X37380Y-20050D03*
X38550Y-16870D03*
X32030Y-19940D03*
X32040Y-22230D03*
X25700Y-25670D03*
X29575Y-26200D03*
X37770Y-20700D03*
X25400Y-19400D03*
X27450Y-26100D03*
X30850Y-26200D03*
X38680Y-16110D03*
X40500Y-16110D03*
X45470Y-26780D03*
X27650Y-18290D03*
X26640Y-19550D03*
X29535Y-22445D03*
X31680Y-26120D03*
X32340Y-27150D03*
X29980Y-23580D03*
X30700Y-24280D03*
X28300Y-22130D03*
X32550Y-24370D03*
X31580Y-24710D03*
X36920Y-19209D03*
X35010Y-19940D03*
X44860Y-19730D03*
X44680Y-17270D03*
X36200Y-21430D03*
X33500Y-10650D03*
X26350Y-27170D03*
X25790Y-24660D03*
X28390Y-23490D03*
X28740Y-22540D03*
X20500Y-22650D03*
X25200Y-13450D03*
X20500Y-24650D03*
X25700Y-13550D03*
X20400Y-20350D03*
X24200Y-13450D03*
X24400Y-23700D03*
X25800Y-23700D03*
X24650Y-17150D03*
X25450Y-17100D03*
X40272Y-17507D03*
X39920Y-18650D03*
X34150Y-16470D03*
X33490Y-19880D03*
X43307Y-15196D03*
X43960Y-22670D03*
X45400Y-16620D03*
X44000Y-17060D03*
X43152Y-21360D03*
X41850Y-17190D03*
X43150Y-22530D03*
X31100Y-17900D03*
X31100Y-20690D03*
G54D25*
X16082Y-17820D02*
X16082Y-17102D01*
X15090Y-11312D02*
X16082Y-10320D01*
X15090Y-16110D02*
X15090Y-11312D01*
X16082Y-17102D02*
X15090Y-16110D01*
X17432Y-10120D02*
X16282Y-10120D01*
X43140Y-12318D02*
X40942Y-10120D01*
X40942Y-10120D02*
X17432Y-10120D01*
X16282Y-10120D02*
X16082Y-10320D01*
X28400Y-30750D02*
X29100Y-30050D01*
X22970Y-29818D02*
X23902Y-30750D01*
X23902Y-30750D02*
X28400Y-30750D01*
X29570Y-27040D02*
X30460Y-27040D01*
X29100Y-27510D02*
X29570Y-27040D01*
X29100Y-30050D02*
X29100Y-27510D01*
X41190Y-21910D02*
X37047Y-26052D01*
X40655Y-15375D02*
X41190Y-15910D01*
X41190Y-15910D02*
X41190Y-21910D01*
X40655Y-15375D02*
X40655Y-13895D01*
X43140Y-12360D02*
X42150Y-13350D01*
X43140Y-12318D02*
X43140Y-12360D01*
X41200Y-13350D02*
X40655Y-13895D01*
X42150Y-13350D02*
X41200Y-13350D01*
X40655Y-13895D02*
X40650Y-13900D01*
X18188Y-28818D02*
X15090Y-25719D01*
X16082Y-21133D02*
X15090Y-22125D01*
X15090Y-22125D02*
X15090Y-25719D01*
X26276Y-29818D02*
X25276Y-28818D01*
X18188Y-28818D02*
X25276Y-28818D01*
X16082Y-21133D02*
X16082Y-21126D01*
X37480Y-27204D02*
X38031Y-27204D01*
X36456Y-26181D02*
X37480Y-27204D01*
X36456Y-25196D02*
X36456Y-26181D01*
X35787Y-24527D02*
X36456Y-25196D01*
X37925Y-27885D02*
X37925Y-27311D01*
X37925Y-27311D02*
X38031Y-27204D01*
X37925Y-27885D02*
X37925Y-28724D01*
X37349Y-29300D02*
X36250Y-29300D01*
X37925Y-28724D02*
X37349Y-29300D01*
G54D26*
X33950Y-23475D02*
X33950Y-23350D01*
G54D25*
X29913Y-12318D02*
X29913Y-12588D01*
X29913Y-12588D02*
X30675Y-13350D01*
X29913Y-12318D02*
X28260Y-12318D01*
X34950Y-22000D02*
X34950Y-23350D01*
X32239Y-19289D02*
X34950Y-22000D01*
X32239Y-13639D02*
X32239Y-19289D01*
X31950Y-13350D02*
X32239Y-13639D01*
X30675Y-13350D02*
X31950Y-13350D01*
G54D26*
X29875Y-25700D02*
X29900Y-25700D01*
X29900Y-25700D02*
X32250Y-23350D01*
X32250Y-23350D02*
X32950Y-23350D01*
G54D25*
X34950Y-25625D02*
X34950Y-24341D01*
X35708Y-16299D02*
X35196Y-15787D01*
X35708Y-23582D02*
X35708Y-16299D01*
X34950Y-24341D02*
X35708Y-23582D01*
G54D26*
X41487Y-11417D02*
X41487Y-12318D01*
X40920Y-10850D02*
X41487Y-11417D01*
X37770Y-20700D02*
X37380Y-20310D01*
X37380Y-20050D02*
X37380Y-20310D01*
X38550Y-19920D02*
X38550Y-16870D01*
X37770Y-20700D02*
X38550Y-19920D01*
X32030Y-19940D02*
X32040Y-19950D01*
X32040Y-19950D02*
X32040Y-22230D01*
X24850Y-26520D02*
X24850Y-27900D01*
X25700Y-25670D02*
X24850Y-26520D01*
X30450Y-25625D02*
X32950Y-25625D01*
X29875Y-26200D02*
X30450Y-25625D01*
X29575Y-26200D02*
X29875Y-26200D01*
G54D25*
X18825Y-15230D02*
X18825Y-20037D01*
X18825Y-20037D02*
X16082Y-22780D01*
X19848Y-15230D02*
X18825Y-15230D01*
X18825Y-15230D02*
X16132Y-15230D01*
X22325Y-12750D02*
X22325Y-12753D01*
X26300Y-13150D02*
X25900Y-12750D01*
X25900Y-12750D02*
X22325Y-12750D01*
X29913Y-14363D02*
X28700Y-13150D01*
X29913Y-14482D02*
X29913Y-14363D01*
X28700Y-13150D02*
X26300Y-13150D01*
X22325Y-12753D02*
X19848Y-15230D01*
X16132Y-15230D02*
X16082Y-15280D01*
X29913Y-14482D02*
X29913Y-14613D01*
X28503Y-29244D02*
X27930Y-29818D01*
X29913Y-14613D02*
X31570Y-16270D01*
X31570Y-22680D02*
X28503Y-25746D01*
X28503Y-25746D02*
X28503Y-29244D01*
X31570Y-16270D02*
X31570Y-22680D01*
G54D26*
X33450Y-32650D02*
X33250Y-32650D01*
X31850Y-31250D02*
X31850Y-27900D01*
X33250Y-32650D02*
X31850Y-31250D01*
X32850Y-27900D02*
X32850Y-31050D01*
X32850Y-31050D02*
X33450Y-31650D01*
X33850Y-27900D02*
X33850Y-31370D01*
X33950Y-32150D02*
X34450Y-32650D01*
X33950Y-31470D02*
X33950Y-32150D01*
X33850Y-31370D02*
X33950Y-31470D01*
X34450Y-31650D02*
X34450Y-28300D01*
X34450Y-28300D02*
X34850Y-27900D01*
X34980Y-29460D02*
X34980Y-32160D01*
X34970Y-32170D02*
X35450Y-32650D01*
X34980Y-32160D02*
X34970Y-32170D01*
X35850Y-27900D02*
X35850Y-28590D01*
X35850Y-28590D02*
X34980Y-29460D01*
X34980Y-29460D02*
X34970Y-29470D01*
X36850Y-27900D02*
X36850Y-28020D01*
X35850Y-31250D02*
X35450Y-31650D01*
X35850Y-29020D02*
X35850Y-31250D01*
X36850Y-28020D02*
X35850Y-29020D01*
X27000Y-25650D02*
X27450Y-26100D01*
X27000Y-21000D02*
X25400Y-19400D01*
X27000Y-25650D02*
X27000Y-21000D01*
X30850Y-27900D02*
X30850Y-26200D01*
X38680Y-16110D02*
X38180Y-15610D01*
X38180Y-15610D02*
X38180Y-14482D01*
X38872Y-14482D02*
X38180Y-14482D01*
X40500Y-16110D02*
X38872Y-14482D01*
X46850Y-25900D02*
X46350Y-25900D01*
X46350Y-25900D02*
X45470Y-26780D01*
X27650Y-18290D02*
X27650Y-18540D01*
X27650Y-18540D02*
X26640Y-19550D01*
X31680Y-26120D02*
X32340Y-26780D01*
X32340Y-26780D02*
X32340Y-27150D01*
X29220Y-22130D02*
X29535Y-22445D01*
X29535Y-22445D02*
X29980Y-22890D01*
X29980Y-22890D02*
X29980Y-23580D01*
X28300Y-22130D02*
X29220Y-22130D01*
X31920Y-24370D02*
X32550Y-24370D01*
X31580Y-24710D02*
X31920Y-24370D01*
X36920Y-19209D02*
X36920Y-19210D01*
X31567Y-12318D02*
X31567Y-11433D01*
X32350Y-10650D02*
X33500Y-10650D01*
X31567Y-11433D02*
X32350Y-10650D01*
X17450Y-32800D02*
X17450Y-34800D01*
X17450Y-34800D02*
X19450Y-34800D01*
X19450Y-34800D02*
X19450Y-32800D01*
X26350Y-25220D02*
X26350Y-27170D01*
X25790Y-24660D02*
X26350Y-25220D01*
X28390Y-22890D02*
X28390Y-23490D01*
X28740Y-22540D02*
X28390Y-22890D01*
X20800Y-22350D02*
X20500Y-22650D01*
X20800Y-16150D02*
X20800Y-22350D01*
X23100Y-13850D02*
X20800Y-16150D01*
X24800Y-13850D02*
X23100Y-13850D01*
X25200Y-13450D02*
X24800Y-13850D01*
X21100Y-24050D02*
X20500Y-24650D01*
X21100Y-16350D02*
X21100Y-24050D01*
X23200Y-14250D02*
X21100Y-16350D01*
X25000Y-14250D02*
X23200Y-14250D01*
X25700Y-13550D02*
X25000Y-14250D01*
X20400Y-15950D02*
X20400Y-20350D01*
X22900Y-13450D02*
X20400Y-15950D01*
X24200Y-13450D02*
X22900Y-13450D01*
X25800Y-23700D02*
X24400Y-23700D01*
X24700Y-17100D02*
X25450Y-17100D01*
X24700Y-17100D02*
X24650Y-17150D01*
X39920Y-17860D02*
X39920Y-18650D01*
X39920Y-17860D02*
X40272Y-17507D01*
X34150Y-19220D02*
X34150Y-16470D01*
X33490Y-19880D02*
X34150Y-19220D01*
X43661Y-22371D02*
X43960Y-22670D01*
X43661Y-15472D02*
X43385Y-15196D01*
X43385Y-15196D02*
X43307Y-15196D01*
X43661Y-15472D02*
X43661Y-22371D01*
X44000Y-17060D02*
X44090Y-17060D01*
X44530Y-16620D02*
X45400Y-16620D01*
X44090Y-17060D02*
X44530Y-16620D01*
X44000Y-17060D02*
X44000Y-10050D01*
X44000Y-10050D02*
X42850Y-8900D01*
X41850Y-17190D02*
X43152Y-18492D01*
X43152Y-18492D02*
X43152Y-21360D01*
X43152Y-21360D02*
X43152Y-21372D01*
X43152Y-22527D02*
X43152Y-21372D01*
X43150Y-22530D02*
X43152Y-22527D01*
X31100Y-20690D02*
X31100Y-17900D01*
G54D10*
G36*
X31201Y-22527D02*
X29165Y-24564D01*
X29165Y-22455D01*
X29100Y-22299D01*
X28981Y-22179D01*
X28860Y-22129D01*
X28860Y-14782D01*
X28860Y-14082D01*
X28822Y-13990D01*
X28751Y-13920D01*
X28659Y-13882D01*
X28560Y-13881D01*
X27860Y-13881D01*
X27768Y-13919D01*
X27698Y-13990D01*
X27660Y-14082D01*
X27659Y-14181D01*
X27659Y-14881D01*
X27697Y-14973D01*
X27768Y-15043D01*
X27860Y-15081D01*
X27959Y-15082D01*
X28659Y-15082D01*
X28751Y-15044D01*
X28821Y-14973D01*
X28859Y-14881D01*
X28860Y-14782D01*
X28860Y-22129D01*
X28824Y-22115D01*
X28655Y-22114D01*
X28499Y-22179D01*
X28379Y-22298D01*
X28315Y-22455D01*
X28314Y-22540D01*
X28177Y-22677D01*
X28112Y-22775D01*
X28090Y-22890D01*
X28090Y-23188D01*
X28029Y-23248D01*
X27965Y-23405D01*
X27964Y-23574D01*
X28029Y-23730D01*
X28148Y-23850D01*
X28305Y-23914D01*
X28474Y-23915D01*
X28630Y-23850D01*
X28750Y-23731D01*
X28814Y-23574D01*
X28815Y-23405D01*
X28750Y-23249D01*
X28690Y-23188D01*
X28690Y-23014D01*
X28739Y-22964D01*
X28824Y-22965D01*
X28980Y-22900D01*
X29100Y-22781D01*
X29164Y-22624D01*
X29165Y-22455D01*
X29165Y-24564D01*
X28242Y-25486D01*
X28163Y-25605D01*
X28135Y-25746D01*
X28135Y-27226D01*
X28060Y-27177D01*
X27875Y-27140D01*
X27875Y-26015D01*
X27810Y-25859D01*
X27691Y-25739D01*
X27534Y-25675D01*
X27449Y-25674D01*
X27300Y-25525D01*
X27300Y-21000D01*
X27299Y-20999D01*
X27277Y-20885D01*
X27212Y-20787D01*
X27212Y-20787D01*
X25875Y-19450D01*
X25875Y-17015D01*
X25810Y-16859D01*
X25691Y-16739D01*
X25534Y-16675D01*
X25365Y-16674D01*
X25209Y-16739D01*
X25148Y-16800D01*
X24901Y-16800D01*
X24891Y-16789D01*
X24734Y-16725D01*
X24565Y-16724D01*
X24409Y-16789D01*
X24289Y-16908D01*
X24225Y-17065D01*
X24224Y-17234D01*
X24289Y-17390D01*
X24408Y-17510D01*
X24565Y-17574D01*
X24734Y-17575D01*
X24890Y-17510D01*
X25001Y-17400D01*
X25148Y-17400D01*
X25208Y-17460D01*
X25365Y-17524D01*
X25534Y-17525D01*
X25690Y-17460D01*
X25810Y-17341D01*
X25874Y-17184D01*
X25875Y-17015D01*
X25875Y-19450D01*
X25824Y-19400D01*
X25825Y-19315D01*
X25760Y-19159D01*
X25641Y-19039D01*
X25484Y-18975D01*
X25315Y-18974D01*
X25159Y-19039D01*
X25039Y-19158D01*
X24975Y-19315D01*
X24974Y-19484D01*
X25039Y-19640D01*
X25158Y-19760D01*
X25315Y-19824D01*
X25400Y-19825D01*
X26700Y-21124D01*
X26700Y-25650D01*
X26722Y-25764D01*
X26787Y-25862D01*
X27025Y-26099D01*
X27024Y-26184D01*
X27089Y-26340D01*
X27208Y-26460D01*
X27365Y-26524D01*
X27534Y-26525D01*
X27690Y-26460D01*
X27810Y-26341D01*
X27874Y-26184D01*
X27875Y-26015D01*
X27875Y-27140D01*
X27850Y-27135D01*
X27639Y-27177D01*
X27461Y-27296D01*
X27346Y-27468D01*
X27338Y-27443D01*
X27203Y-27275D01*
X27014Y-27172D01*
X26985Y-27166D01*
X26900Y-27215D01*
X26900Y-27850D01*
X26907Y-27850D01*
X26907Y-27950D01*
X26900Y-27950D01*
X26900Y-28584D01*
X26985Y-28633D01*
X27014Y-28627D01*
X27203Y-28524D01*
X27338Y-28356D01*
X27346Y-28331D01*
X27461Y-28503D01*
X27639Y-28622D01*
X27850Y-28664D01*
X28060Y-28622D01*
X28135Y-28573D01*
X28135Y-29067D01*
X27380Y-29067D01*
X27288Y-29105D01*
X27218Y-29176D01*
X27180Y-29268D01*
X27179Y-29367D01*
X27179Y-30367D01*
X27185Y-30381D01*
X27020Y-30381D01*
X27025Y-30367D01*
X27026Y-30268D01*
X27026Y-29268D01*
X26988Y-29176D01*
X26917Y-29106D01*
X26825Y-29068D01*
X26800Y-29068D01*
X26800Y-28584D01*
X26800Y-27950D01*
X26400Y-27950D01*
X26300Y-27950D01*
X25900Y-27950D01*
X25900Y-28584D01*
X25985Y-28633D01*
X26014Y-28627D01*
X26203Y-28524D01*
X26338Y-28356D01*
X26350Y-28319D01*
X26361Y-28356D01*
X26496Y-28524D01*
X26685Y-28627D01*
X26714Y-28633D01*
X26800Y-28584D01*
X26800Y-29068D01*
X26726Y-29067D01*
X26046Y-29067D01*
X25537Y-28558D01*
X25417Y-28478D01*
X25276Y-28450D01*
X25274Y-28450D01*
X25353Y-28331D01*
X25361Y-28356D01*
X25496Y-28524D01*
X25685Y-28627D01*
X25714Y-28633D01*
X25800Y-28584D01*
X25800Y-27950D01*
X25792Y-27950D01*
X25792Y-27850D01*
X25800Y-27850D01*
X25800Y-27215D01*
X25714Y-27166D01*
X25685Y-27172D01*
X25496Y-27275D01*
X25361Y-27443D01*
X25353Y-27468D01*
X25238Y-27296D01*
X25150Y-27236D01*
X25150Y-26644D01*
X25699Y-26094D01*
X25784Y-26095D01*
X25940Y-26030D01*
X26050Y-25921D01*
X26050Y-26868D01*
X25989Y-26928D01*
X25925Y-27085D01*
X25924Y-27200D01*
X25900Y-27215D01*
X25900Y-27850D01*
X26300Y-27850D01*
X26400Y-27850D01*
X26800Y-27850D01*
X26800Y-27215D01*
X26774Y-27200D01*
X26775Y-27085D01*
X26710Y-26929D01*
X26650Y-26868D01*
X26650Y-25220D01*
X26627Y-25105D01*
X26562Y-25007D01*
X26562Y-25007D01*
X26225Y-24670D01*
X26225Y-23615D01*
X26160Y-23459D01*
X26041Y-23339D01*
X25884Y-23275D01*
X25715Y-23274D01*
X25559Y-23339D01*
X25498Y-23400D01*
X24701Y-23400D01*
X24641Y-23339D01*
X24484Y-23275D01*
X24315Y-23274D01*
X24159Y-23339D01*
X24039Y-23458D01*
X23975Y-23615D01*
X23974Y-23784D01*
X24039Y-23940D01*
X24158Y-24060D01*
X24315Y-24124D01*
X24484Y-24125D01*
X24640Y-24060D01*
X24701Y-24000D01*
X25498Y-24000D01*
X25558Y-24060D01*
X25715Y-24124D01*
X25884Y-24125D01*
X26040Y-24060D01*
X26160Y-23941D01*
X26224Y-23784D01*
X26225Y-23615D01*
X26225Y-24670D01*
X26214Y-24660D01*
X26215Y-24575D01*
X26150Y-24419D01*
X26031Y-24299D01*
X25874Y-24235D01*
X25705Y-24234D01*
X25549Y-24299D01*
X25429Y-24418D01*
X25365Y-24575D01*
X25364Y-24744D01*
X25429Y-24900D01*
X25548Y-25020D01*
X25705Y-25084D01*
X25790Y-25085D01*
X26050Y-25344D01*
X26050Y-25419D01*
X25941Y-25309D01*
X25784Y-25245D01*
X25615Y-25244D01*
X25459Y-25309D01*
X25339Y-25428D01*
X25275Y-25585D01*
X25274Y-25670D01*
X24637Y-26307D01*
X24572Y-26405D01*
X24550Y-26520D01*
X24550Y-27236D01*
X24461Y-27296D01*
X24350Y-27462D01*
X24238Y-27296D01*
X24060Y-27177D01*
X23850Y-27135D01*
X23639Y-27177D01*
X23461Y-27296D01*
X23350Y-27462D01*
X23238Y-27296D01*
X23060Y-27177D01*
X22850Y-27135D01*
X22639Y-27177D01*
X22461Y-27296D01*
X22350Y-27462D01*
X22238Y-27296D01*
X22060Y-27177D01*
X21850Y-27135D01*
X21639Y-27177D01*
X21461Y-27296D01*
X21350Y-27462D01*
X21238Y-27296D01*
X21060Y-27177D01*
X20850Y-27135D01*
X20639Y-27177D01*
X20461Y-27296D01*
X20341Y-27474D01*
X20300Y-27685D01*
X20300Y-28114D01*
X20341Y-28325D01*
X20425Y-28450D01*
X18341Y-28450D01*
X15458Y-25567D01*
X15458Y-23499D01*
X15532Y-23529D01*
X15631Y-23530D01*
X16631Y-23530D01*
X16723Y-23492D01*
X16793Y-23421D01*
X16831Y-23329D01*
X16832Y-23230D01*
X16832Y-22550D01*
X19085Y-20297D01*
X19165Y-20177D01*
X19193Y-20037D01*
X19193Y-15598D01*
X19848Y-15598D01*
X19989Y-15570D01*
X20109Y-15490D01*
X22481Y-13118D01*
X23930Y-13118D01*
X23898Y-13150D01*
X22900Y-13150D01*
X22785Y-13172D01*
X22687Y-13237D01*
X20187Y-15737D01*
X20122Y-15835D01*
X20100Y-15950D01*
X20100Y-20048D01*
X20039Y-20108D01*
X19975Y-20265D01*
X19974Y-20434D01*
X20039Y-20590D01*
X20158Y-20710D01*
X20315Y-20774D01*
X20484Y-20775D01*
X20500Y-20768D01*
X20500Y-22224D01*
X20415Y-22224D01*
X20259Y-22289D01*
X20139Y-22408D01*
X20075Y-22565D01*
X20074Y-22734D01*
X20139Y-22890D01*
X20258Y-23010D01*
X20415Y-23074D01*
X20584Y-23075D01*
X20740Y-23010D01*
X20800Y-22951D01*
X20800Y-23925D01*
X20500Y-24225D01*
X20415Y-24224D01*
X20259Y-24289D01*
X20139Y-24408D01*
X20075Y-24565D01*
X20074Y-24734D01*
X20139Y-24890D01*
X20258Y-25010D01*
X20415Y-25074D01*
X20584Y-25075D01*
X20740Y-25010D01*
X20860Y-24891D01*
X20924Y-24734D01*
X20925Y-24649D01*
X21312Y-24262D01*
X21312Y-24262D01*
X21377Y-24164D01*
X21399Y-24050D01*
X21400Y-24050D01*
X21400Y-16474D01*
X23324Y-14550D01*
X25000Y-14550D01*
X25000Y-14549D01*
X25114Y-14527D01*
X25114Y-14527D01*
X25212Y-14462D01*
X25591Y-14082D01*
X25568Y-14138D01*
X25568Y-14472D01*
X25696Y-14781D01*
X25932Y-15018D01*
X26241Y-15146D01*
X26575Y-15146D01*
X26884Y-15018D01*
X27121Y-14782D01*
X27249Y-14473D01*
X27249Y-14139D01*
X27121Y-13830D01*
X26885Y-13593D01*
X26703Y-13518D01*
X28547Y-13518D01*
X29312Y-14283D01*
X29312Y-14881D01*
X29350Y-14973D01*
X29421Y-15043D01*
X29513Y-15081D01*
X29612Y-15082D01*
X29861Y-15082D01*
X31201Y-16422D01*
X31201Y-17482D01*
X31184Y-17475D01*
X31015Y-17474D01*
X30859Y-17539D01*
X30739Y-17658D01*
X30675Y-17815D01*
X30674Y-17984D01*
X30739Y-18140D01*
X30800Y-18201D01*
X30800Y-20388D01*
X30739Y-20448D01*
X30675Y-20605D01*
X30674Y-20774D01*
X30739Y-20930D01*
X30858Y-21050D01*
X31015Y-21114D01*
X31184Y-21115D01*
X31201Y-21107D01*
X31201Y-22527D01*
X31201Y-22527D01*
G37*
G54D26*
X31201Y-22527D02*
X29165Y-24564D01*
X29165Y-22455D01*
X29100Y-22299D01*
X28981Y-22179D01*
X28860Y-22129D01*
X28860Y-14782D01*
X28860Y-14082D01*
X28822Y-13990D01*
X28751Y-13920D01*
X28659Y-13882D01*
X28560Y-13881D01*
X27860Y-13881D01*
X27768Y-13919D01*
X27698Y-13990D01*
X27660Y-14082D01*
X27659Y-14181D01*
X27659Y-14881D01*
X27697Y-14973D01*
X27768Y-15043D01*
X27860Y-15081D01*
X27959Y-15082D01*
X28659Y-15082D01*
X28751Y-15044D01*
X28821Y-14973D01*
X28859Y-14881D01*
X28860Y-14782D01*
X28860Y-22129D01*
X28824Y-22115D01*
X28655Y-22114D01*
X28499Y-22179D01*
X28379Y-22298D01*
X28315Y-22455D01*
X28314Y-22540D01*
X28177Y-22677D01*
X28112Y-22775D01*
X28090Y-22890D01*
X28090Y-23188D01*
X28029Y-23248D01*
X27965Y-23405D01*
X27964Y-23574D01*
X28029Y-23730D01*
X28148Y-23850D01*
X28305Y-23914D01*
X28474Y-23915D01*
X28630Y-23850D01*
X28750Y-23731D01*
X28814Y-23574D01*
X28815Y-23405D01*
X28750Y-23249D01*
X28690Y-23188D01*
X28690Y-23014D01*
X28739Y-22964D01*
X28824Y-22965D01*
X28980Y-22900D01*
X29100Y-22781D01*
X29164Y-22624D01*
X29165Y-22455D01*
X29165Y-24564D01*
X28242Y-25486D01*
X28163Y-25605D01*
X28135Y-25746D01*
X28135Y-27226D01*
X28060Y-27177D01*
X27875Y-27140D01*
X27875Y-26015D01*
X27810Y-25859D01*
X27691Y-25739D01*
X27534Y-25675D01*
X27449Y-25674D01*
X27300Y-25525D01*
X27300Y-21000D01*
X27299Y-20999D01*
X27277Y-20885D01*
X27212Y-20787D01*
X27212Y-20787D01*
X25875Y-19450D01*
X25875Y-17015D01*
X25810Y-16859D01*
X25691Y-16739D01*
X25534Y-16675D01*
X25365Y-16674D01*
X25209Y-16739D01*
X25148Y-16800D01*
X24901Y-16800D01*
X24891Y-16789D01*
X24734Y-16725D01*
X24565Y-16724D01*
X24409Y-16789D01*
X24289Y-16908D01*
X24225Y-17065D01*
X24224Y-17234D01*
X24289Y-17390D01*
X24408Y-17510D01*
X24565Y-17574D01*
X24734Y-17575D01*
X24890Y-17510D01*
X25001Y-17400D01*
X25148Y-17400D01*
X25208Y-17460D01*
X25365Y-17524D01*
X25534Y-17525D01*
X25690Y-17460D01*
X25810Y-17341D01*
X25874Y-17184D01*
X25875Y-17015D01*
X25875Y-19450D01*
X25824Y-19400D01*
X25825Y-19315D01*
X25760Y-19159D01*
X25641Y-19039D01*
X25484Y-18975D01*
X25315Y-18974D01*
X25159Y-19039D01*
X25039Y-19158D01*
X24975Y-19315D01*
X24974Y-19484D01*
X25039Y-19640D01*
X25158Y-19760D01*
X25315Y-19824D01*
X25400Y-19825D01*
X26700Y-21124D01*
X26700Y-25650D01*
X26722Y-25764D01*
X26787Y-25862D01*
X27025Y-26099D01*
X27024Y-26184D01*
X27089Y-26340D01*
X27208Y-26460D01*
X27365Y-26524D01*
X27534Y-26525D01*
X27690Y-26460D01*
X27810Y-26341D01*
X27874Y-26184D01*
X27875Y-26015D01*
X27875Y-27140D01*
X27850Y-27135D01*
X27639Y-27177D01*
X27461Y-27296D01*
X27346Y-27468D01*
X27338Y-27443D01*
X27203Y-27275D01*
X27014Y-27172D01*
X26985Y-27166D01*
X26900Y-27215D01*
X26900Y-27850D01*
X26907Y-27850D01*
X26907Y-27950D01*
X26900Y-27950D01*
X26900Y-28584D01*
X26985Y-28633D01*
X27014Y-28627D01*
X27203Y-28524D01*
X27338Y-28356D01*
X27346Y-28331D01*
X27461Y-28503D01*
X27639Y-28622D01*
X27850Y-28664D01*
X28060Y-28622D01*
X28135Y-28573D01*
X28135Y-29067D01*
X27380Y-29067D01*
X27288Y-29105D01*
X27218Y-29176D01*
X27180Y-29268D01*
X27179Y-29367D01*
X27179Y-30367D01*
X27185Y-30381D01*
X27020Y-30381D01*
X27025Y-30367D01*
X27026Y-30268D01*
X27026Y-29268D01*
X26988Y-29176D01*
X26917Y-29106D01*
X26825Y-29068D01*
X26800Y-29068D01*
X26800Y-28584D01*
X26800Y-27950D01*
X26400Y-27950D01*
X26300Y-27950D01*
X25900Y-27950D01*
X25900Y-28584D01*
X25985Y-28633D01*
X26014Y-28627D01*
X26203Y-28524D01*
X26338Y-28356D01*
X26350Y-28319D01*
X26361Y-28356D01*
X26496Y-28524D01*
X26685Y-28627D01*
X26714Y-28633D01*
X26800Y-28584D01*
X26800Y-29068D01*
X26726Y-29067D01*
X26046Y-29067D01*
X25537Y-28558D01*
X25417Y-28478D01*
X25276Y-28450D01*
X25274Y-28450D01*
X25353Y-28331D01*
X25361Y-28356D01*
X25496Y-28524D01*
X25685Y-28627D01*
X25714Y-28633D01*
X25800Y-28584D01*
X25800Y-27950D01*
X25792Y-27950D01*
X25792Y-27850D01*
X25800Y-27850D01*
X25800Y-27215D01*
X25714Y-27166D01*
X25685Y-27172D01*
X25496Y-27275D01*
X25361Y-27443D01*
X25353Y-27468D01*
X25238Y-27296D01*
X25150Y-27236D01*
X25150Y-26644D01*
X25699Y-26094D01*
X25784Y-26095D01*
X25940Y-26030D01*
X26050Y-25921D01*
X26050Y-26868D01*
X25989Y-26928D01*
X25925Y-27085D01*
X25924Y-27200D01*
X25900Y-27215D01*
X25900Y-27850D01*
X26300Y-27850D01*
X26400Y-27850D01*
X26800Y-27850D01*
X26800Y-27215D01*
X26774Y-27200D01*
X26775Y-27085D01*
X26710Y-26929D01*
X26650Y-26868D01*
X26650Y-25220D01*
X26627Y-25105D01*
X26562Y-25007D01*
X26562Y-25007D01*
X26225Y-24670D01*
X26225Y-23615D01*
X26160Y-23459D01*
X26041Y-23339D01*
X25884Y-23275D01*
X25715Y-23274D01*
X25559Y-23339D01*
X25498Y-23400D01*
X24701Y-23400D01*
X24641Y-23339D01*
X24484Y-23275D01*
X24315Y-23274D01*
X24159Y-23339D01*
X24039Y-23458D01*
X23975Y-23615D01*
X23974Y-23784D01*
X24039Y-23940D01*
X24158Y-24060D01*
X24315Y-24124D01*
X24484Y-24125D01*
X24640Y-24060D01*
X24701Y-24000D01*
X25498Y-24000D01*
X25558Y-24060D01*
X25715Y-24124D01*
X25884Y-24125D01*
X26040Y-24060D01*
X26160Y-23941D01*
X26224Y-23784D01*
X26225Y-23615D01*
X26225Y-24670D01*
X26214Y-24660D01*
X26215Y-24575D01*
X26150Y-24419D01*
X26031Y-24299D01*
X25874Y-24235D01*
X25705Y-24234D01*
X25549Y-24299D01*
X25429Y-24418D01*
X25365Y-24575D01*
X25364Y-24744D01*
X25429Y-24900D01*
X25548Y-25020D01*
X25705Y-25084D01*
X25790Y-25085D01*
X26050Y-25344D01*
X26050Y-25419D01*
X25941Y-25309D01*
X25784Y-25245D01*
X25615Y-25244D01*
X25459Y-25309D01*
X25339Y-25428D01*
X25275Y-25585D01*
X25274Y-25670D01*
X24637Y-26307D01*
X24572Y-26405D01*
X24550Y-26520D01*
X24550Y-27236D01*
X24461Y-27296D01*
X24350Y-27462D01*
X24238Y-27296D01*
X24060Y-27177D01*
X23850Y-27135D01*
X23639Y-27177D01*
X23461Y-27296D01*
X23350Y-27462D01*
X23238Y-27296D01*
X23060Y-27177D01*
X22850Y-27135D01*
X22639Y-27177D01*
X22461Y-27296D01*
X22350Y-27462D01*
X22238Y-27296D01*
X22060Y-27177D01*
X21850Y-27135D01*
X21639Y-27177D01*
X21461Y-27296D01*
X21350Y-27462D01*
X21238Y-27296D01*
X21060Y-27177D01*
X20850Y-27135D01*
X20639Y-27177D01*
X20461Y-27296D01*
X20341Y-27474D01*
X20300Y-27685D01*
X20300Y-28114D01*
X20341Y-28325D01*
X20425Y-28450D01*
X18341Y-28450D01*
X15458Y-25567D01*
X15458Y-23499D01*
X15532Y-23529D01*
X15631Y-23530D01*
X16631Y-23530D01*
X16723Y-23492D01*
X16793Y-23421D01*
X16831Y-23329D01*
X16832Y-23230D01*
X16832Y-22550D01*
X19085Y-20297D01*
X19165Y-20177D01*
X19193Y-20037D01*
X19193Y-15598D01*
X19848Y-15598D01*
X19989Y-15570D01*
X20109Y-15490D01*
X22481Y-13118D01*
X23930Y-13118D01*
X23898Y-13150D01*
X22900Y-13150D01*
X22785Y-13172D01*
X22687Y-13237D01*
X20187Y-15737D01*
X20122Y-15835D01*
X20100Y-15950D01*
X20100Y-20048D01*
X20039Y-20108D01*
X19975Y-20265D01*
X19974Y-20434D01*
X20039Y-20590D01*
X20158Y-20710D01*
X20315Y-20774D01*
X20484Y-20775D01*
X20500Y-20768D01*
X20500Y-22224D01*
X20415Y-22224D01*
X20259Y-22289D01*
X20139Y-22408D01*
X20075Y-22565D01*
X20074Y-22734D01*
X20139Y-22890D01*
X20258Y-23010D01*
X20415Y-23074D01*
X20584Y-23075D01*
X20740Y-23010D01*
X20800Y-22951D01*
X20800Y-23925D01*
X20500Y-24225D01*
X20415Y-24224D01*
X20259Y-24289D01*
X20139Y-24408D01*
X20075Y-24565D01*
X20074Y-24734D01*
X20139Y-24890D01*
X20258Y-25010D01*
X20415Y-25074D01*
X20584Y-25075D01*
X20740Y-25010D01*
X20860Y-24891D01*
X20924Y-24734D01*
X20925Y-24649D01*
X21312Y-24262D01*
X21312Y-24262D01*
X21377Y-24164D01*
X21399Y-24050D01*
X21400Y-24050D01*
X21400Y-16474D01*
X23324Y-14550D01*
X25000Y-14550D01*
X25000Y-14549D01*
X25114Y-14527D01*
X25114Y-14527D01*
X25212Y-14462D01*
X25591Y-14082D01*
X25568Y-14138D01*
X25568Y-14472D01*
X25696Y-14781D01*
X25932Y-15018D01*
X26241Y-15146D01*
X26575Y-15146D01*
X26884Y-15018D01*
X27121Y-14782D01*
X27249Y-14473D01*
X27249Y-14139D01*
X27121Y-13830D01*
X26885Y-13593D01*
X26703Y-13518D01*
X28547Y-13518D01*
X29312Y-14283D01*
X29312Y-14881D01*
X29350Y-14973D01*
X29421Y-15043D01*
X29513Y-15081D01*
X29612Y-15082D01*
X29861Y-15082D01*
X31201Y-16422D01*
X31201Y-17482D01*
X31184Y-17475D01*
X31015Y-17474D01*
X30859Y-17539D01*
X30739Y-17658D01*
X30675Y-17815D01*
X30674Y-17984D01*
X30739Y-18140D01*
X30800Y-18201D01*
X30800Y-20388D01*
X30739Y-20448D01*
X30675Y-20605D01*
X30674Y-20774D01*
X30739Y-20930D01*
X30858Y-21050D01*
X31015Y-21114D01*
X31184Y-21115D01*
X31201Y-21107D01*
X31201Y-22527D01*
G54D10*
G36*
X31871Y-16071D02*
X31830Y-16009D01*
X31830Y-16009D01*
X31517Y-15696D01*
X31517Y-15019D01*
X31517Y-14532D01*
X31517Y-14432D01*
X31517Y-13944D01*
X31454Y-13882D01*
X31167Y-13881D01*
X31075Y-13919D01*
X31005Y-13990D01*
X30967Y-14082D01*
X30966Y-14181D01*
X30967Y-14369D01*
X31029Y-14432D01*
X31517Y-14432D01*
X31517Y-14532D01*
X31029Y-14532D01*
X30967Y-14594D01*
X30966Y-14782D01*
X30967Y-14881D01*
X31005Y-14973D01*
X31075Y-15044D01*
X31167Y-15082D01*
X31454Y-15082D01*
X31517Y-15019D01*
X31517Y-15696D01*
X30513Y-14692D01*
X30513Y-14082D01*
X30475Y-13990D01*
X30404Y-13920D01*
X30312Y-13882D01*
X30213Y-13881D01*
X29952Y-13881D01*
X28960Y-12889D01*
X28840Y-12809D01*
X28823Y-12806D01*
X28859Y-12717D01*
X28859Y-12686D01*
X29312Y-12686D01*
X29312Y-12717D01*
X29350Y-12809D01*
X29421Y-12879D01*
X29513Y-12917D01*
X29612Y-12918D01*
X29722Y-12918D01*
X30414Y-13610D01*
X30534Y-13690D01*
X30675Y-13718D01*
X31797Y-13718D01*
X31871Y-13791D01*
X31871Y-13881D01*
X31679Y-13882D01*
X31617Y-13944D01*
X31617Y-14432D01*
X31624Y-14432D01*
X31624Y-14532D01*
X31617Y-14532D01*
X31617Y-15019D01*
X31679Y-15082D01*
X31871Y-15082D01*
X31871Y-16071D01*
X31871Y-16071D01*
G37*
G54D26*
X31871Y-16071D02*
X31830Y-16009D01*
X31830Y-16009D01*
X31517Y-15696D01*
X31517Y-15019D01*
X31517Y-14532D01*
X31517Y-14432D01*
X31517Y-13944D01*
X31454Y-13882D01*
X31167Y-13881D01*
X31075Y-13919D01*
X31005Y-13990D01*
X30967Y-14082D01*
X30966Y-14181D01*
X30967Y-14369D01*
X31029Y-14432D01*
X31517Y-14432D01*
X31517Y-14532D01*
X31029Y-14532D01*
X30967Y-14594D01*
X30966Y-14782D01*
X30967Y-14881D01*
X31005Y-14973D01*
X31075Y-15044D01*
X31167Y-15082D01*
X31454Y-15082D01*
X31517Y-15019D01*
X31517Y-15696D01*
X30513Y-14692D01*
X30513Y-14082D01*
X30475Y-13990D01*
X30404Y-13920D01*
X30312Y-13882D01*
X30213Y-13881D01*
X29952Y-13881D01*
X28960Y-12889D01*
X28840Y-12809D01*
X28823Y-12806D01*
X28859Y-12717D01*
X28859Y-12686D01*
X29312Y-12686D01*
X29312Y-12717D01*
X29350Y-12809D01*
X29421Y-12879D01*
X29513Y-12917D01*
X29612Y-12918D01*
X29722Y-12918D01*
X30414Y-13610D01*
X30534Y-13690D01*
X30675Y-13718D01*
X31797Y-13718D01*
X31871Y-13791D01*
X31871Y-13881D01*
X31679Y-13882D01*
X31617Y-13944D01*
X31617Y-14432D01*
X31624Y-14432D01*
X31624Y-14532D01*
X31617Y-14532D01*
X31617Y-15019D01*
X31679Y-15082D01*
X31871Y-15082D01*
X31871Y-16071D01*
G54D10*
G36*
X34581Y-22923D02*
X34471Y-23034D01*
X34437Y-23116D01*
X34403Y-23035D01*
X34248Y-22880D01*
X34046Y-22796D01*
X33828Y-22796D01*
X33625Y-22879D01*
X33487Y-23018D01*
X33487Y-22996D01*
X33449Y-22905D01*
X33378Y-22834D01*
X33286Y-22796D01*
X33187Y-22796D01*
X32587Y-22796D01*
X32495Y-22834D01*
X32425Y-22904D01*
X32387Y-22996D01*
X32387Y-23050D01*
X32250Y-23050D01*
X32135Y-23072D01*
X32037Y-23137D01*
X29900Y-25275D01*
X29790Y-25274D01*
X29634Y-25339D01*
X29514Y-25458D01*
X29450Y-25615D01*
X29449Y-25784D01*
X29452Y-25790D01*
X29334Y-25839D01*
X29214Y-25958D01*
X29150Y-26115D01*
X29149Y-26284D01*
X29214Y-26440D01*
X29333Y-26560D01*
X29490Y-26624D01*
X29659Y-26625D01*
X29815Y-26560D01*
X29876Y-26499D01*
X29989Y-26477D01*
X29989Y-26477D01*
X30087Y-26412D01*
X30454Y-26045D01*
X30425Y-26115D01*
X30424Y-26284D01*
X30489Y-26440D01*
X30550Y-26501D01*
X30550Y-26617D01*
X30544Y-26615D01*
X30375Y-26614D01*
X30237Y-26671D01*
X29570Y-26671D01*
X29429Y-26699D01*
X29309Y-26779D01*
X28871Y-27218D01*
X28871Y-25899D01*
X31830Y-22940D01*
X31830Y-22940D01*
X31830Y-22940D01*
X31910Y-22820D01*
X31938Y-22680D01*
X31938Y-22680D01*
X31938Y-22680D01*
X31938Y-22647D01*
X31955Y-22654D01*
X32124Y-22655D01*
X32280Y-22590D01*
X32400Y-22471D01*
X32464Y-22314D01*
X32465Y-22145D01*
X32400Y-21989D01*
X32340Y-21928D01*
X32340Y-20231D01*
X32390Y-20181D01*
X32454Y-20025D01*
X34581Y-22152D01*
X34581Y-22923D01*
X34581Y-22923D01*
G37*
G54D26*
X34581Y-22923D02*
X34471Y-23034D01*
X34437Y-23116D01*
X34403Y-23035D01*
X34248Y-22880D01*
X34046Y-22796D01*
X33828Y-22796D01*
X33625Y-22879D01*
X33487Y-23018D01*
X33487Y-22996D01*
X33449Y-22905D01*
X33378Y-22834D01*
X33286Y-22796D01*
X33187Y-22796D01*
X32587Y-22796D01*
X32495Y-22834D01*
X32425Y-22904D01*
X32387Y-22996D01*
X32387Y-23050D01*
X32250Y-23050D01*
X32135Y-23072D01*
X32037Y-23137D01*
X29900Y-25275D01*
X29790Y-25274D01*
X29634Y-25339D01*
X29514Y-25458D01*
X29450Y-25615D01*
X29449Y-25784D01*
X29452Y-25790D01*
X29334Y-25839D01*
X29214Y-25958D01*
X29150Y-26115D01*
X29149Y-26284D01*
X29214Y-26440D01*
X29333Y-26560D01*
X29490Y-26624D01*
X29659Y-26625D01*
X29815Y-26560D01*
X29876Y-26499D01*
X29989Y-26477D01*
X29989Y-26477D01*
X30087Y-26412D01*
X30454Y-26045D01*
X30425Y-26115D01*
X30424Y-26284D01*
X30489Y-26440D01*
X30550Y-26501D01*
X30550Y-26617D01*
X30544Y-26615D01*
X30375Y-26614D01*
X30237Y-26671D01*
X29570Y-26671D01*
X29429Y-26699D01*
X29309Y-26779D01*
X28871Y-27218D01*
X28871Y-25899D01*
X31830Y-22940D01*
X31830Y-22940D01*
X31830Y-22940D01*
X31910Y-22820D01*
X31938Y-22680D01*
X31938Y-22680D01*
X31938Y-22680D01*
X31938Y-22647D01*
X31955Y-22654D01*
X32124Y-22655D01*
X32280Y-22590D01*
X32400Y-22471D01*
X32464Y-22314D01*
X32465Y-22145D01*
X32400Y-21989D01*
X32340Y-21928D01*
X32340Y-20231D01*
X32390Y-20181D01*
X32454Y-20025D01*
X34581Y-22152D01*
X34581Y-22923D01*
G54D10*
G36*
X34874Y-23896D02*
X34689Y-24081D01*
X34609Y-24200D01*
X34581Y-24341D01*
X34581Y-25215D01*
X34484Y-25313D01*
X34450Y-25394D01*
X34416Y-25313D01*
X34261Y-25159D01*
X34059Y-25075D01*
X33841Y-25074D01*
X33638Y-25158D01*
X33500Y-25297D01*
X33500Y-25275D01*
X33462Y-25183D01*
X33391Y-25113D01*
X33299Y-25075D01*
X33200Y-25074D01*
X32600Y-25074D01*
X32508Y-25112D01*
X32438Y-25183D01*
X32400Y-25275D01*
X32400Y-25325D01*
X30699Y-25325D01*
X32374Y-23650D01*
X32386Y-23650D01*
X32386Y-23695D01*
X32424Y-23787D01*
X32495Y-23858D01*
X32587Y-23896D01*
X32686Y-23896D01*
X33286Y-23896D01*
X33378Y-23858D01*
X33448Y-23788D01*
X33486Y-23696D01*
X33486Y-23674D01*
X33625Y-23812D01*
X33827Y-23896D01*
X34045Y-23896D01*
X34248Y-23812D01*
X34403Y-23658D01*
X34436Y-23576D01*
X34470Y-23657D01*
X34625Y-23812D01*
X34827Y-23896D01*
X34874Y-23896D01*
X34874Y-23896D01*
G37*
G54D26*
X34874Y-23896D02*
X34689Y-24081D01*
X34609Y-24200D01*
X34581Y-24341D01*
X34581Y-25215D01*
X34484Y-25313D01*
X34450Y-25394D01*
X34416Y-25313D01*
X34261Y-25159D01*
X34059Y-25075D01*
X33841Y-25074D01*
X33638Y-25158D01*
X33500Y-25297D01*
X33500Y-25275D01*
X33462Y-25183D01*
X33391Y-25113D01*
X33299Y-25075D01*
X33200Y-25074D01*
X32600Y-25074D01*
X32508Y-25112D01*
X32438Y-25183D01*
X32400Y-25275D01*
X32400Y-25325D01*
X30699Y-25325D01*
X32374Y-23650D01*
X32386Y-23650D01*
X32386Y-23695D01*
X32424Y-23787D01*
X32495Y-23858D01*
X32587Y-23896D01*
X32686Y-23896D01*
X33286Y-23896D01*
X33378Y-23858D01*
X33448Y-23788D01*
X33486Y-23696D01*
X33486Y-23674D01*
X33625Y-23812D01*
X33827Y-23896D01*
X34045Y-23896D01*
X34248Y-23812D01*
X34403Y-23658D01*
X34436Y-23576D01*
X34470Y-23657D01*
X34625Y-23812D01*
X34827Y-23896D01*
X34874Y-23896D01*
G54D10*
G36*
X36900Y-27145D02*
X36850Y-27135D01*
X36639Y-27177D01*
X36461Y-27296D01*
X36350Y-27462D01*
X36238Y-27296D01*
X36060Y-27177D01*
X35850Y-27135D01*
X35639Y-27177D01*
X35461Y-27296D01*
X35350Y-27462D01*
X35238Y-27296D01*
X35060Y-27177D01*
X34850Y-27135D01*
X34639Y-27177D01*
X34461Y-27296D01*
X34350Y-27462D01*
X34238Y-27296D01*
X34060Y-27177D01*
X33850Y-27135D01*
X33639Y-27177D01*
X33461Y-27296D01*
X33350Y-27462D01*
X33238Y-27296D01*
X33060Y-27177D01*
X32850Y-27135D01*
X32639Y-27177D01*
X32461Y-27296D01*
X32350Y-27462D01*
X32238Y-27296D01*
X32060Y-27177D01*
X31850Y-27135D01*
X31639Y-27177D01*
X31461Y-27296D01*
X31350Y-27462D01*
X31238Y-27296D01*
X31150Y-27236D01*
X31150Y-26501D01*
X31210Y-26441D01*
X31274Y-26284D01*
X31275Y-26115D01*
X31210Y-25959D01*
X31175Y-25925D01*
X32399Y-25925D01*
X32399Y-25974D01*
X32437Y-26066D01*
X32508Y-26136D01*
X32600Y-26174D01*
X32699Y-26175D01*
X33299Y-26175D01*
X33391Y-26137D01*
X33461Y-26066D01*
X33499Y-25974D01*
X33499Y-25952D01*
X33638Y-26090D01*
X33840Y-26174D01*
X34058Y-26175D01*
X34261Y-26091D01*
X34415Y-25936D01*
X34449Y-25855D01*
X34483Y-25936D01*
X34638Y-26090D01*
X34840Y-26174D01*
X35058Y-26175D01*
X35261Y-26091D01*
X35415Y-25936D01*
X35499Y-25734D01*
X35500Y-25516D01*
X35416Y-25313D01*
X35318Y-25215D01*
X35318Y-24493D01*
X35362Y-24449D01*
X35362Y-24611D01*
X35426Y-24767D01*
X35546Y-24887D01*
X35684Y-24944D01*
X36088Y-25349D01*
X36088Y-26181D01*
X36116Y-26321D01*
X36196Y-26441D01*
X36900Y-27145D01*
X36900Y-27145D01*
G37*
G54D26*
X36900Y-27145D02*
X36850Y-27135D01*
X36639Y-27177D01*
X36461Y-27296D01*
X36350Y-27462D01*
X36238Y-27296D01*
X36060Y-27177D01*
X35850Y-27135D01*
X35639Y-27177D01*
X35461Y-27296D01*
X35350Y-27462D01*
X35238Y-27296D01*
X35060Y-27177D01*
X34850Y-27135D01*
X34639Y-27177D01*
X34461Y-27296D01*
X34350Y-27462D01*
X34238Y-27296D01*
X34060Y-27177D01*
X33850Y-27135D01*
X33639Y-27177D01*
X33461Y-27296D01*
X33350Y-27462D01*
X33238Y-27296D01*
X33060Y-27177D01*
X32850Y-27135D01*
X32639Y-27177D01*
X32461Y-27296D01*
X32350Y-27462D01*
X32238Y-27296D01*
X32060Y-27177D01*
X31850Y-27135D01*
X31639Y-27177D01*
X31461Y-27296D01*
X31350Y-27462D01*
X31238Y-27296D01*
X31150Y-27236D01*
X31150Y-26501D01*
X31210Y-26441D01*
X31274Y-26284D01*
X31275Y-26115D01*
X31210Y-25959D01*
X31175Y-25925D01*
X32399Y-25925D01*
X32399Y-25974D01*
X32437Y-26066D01*
X32508Y-26136D01*
X32600Y-26174D01*
X32699Y-26175D01*
X33299Y-26175D01*
X33391Y-26137D01*
X33461Y-26066D01*
X33499Y-25974D01*
X33499Y-25952D01*
X33638Y-26090D01*
X33840Y-26174D01*
X34058Y-26175D01*
X34261Y-26091D01*
X34415Y-25936D01*
X34449Y-25855D01*
X34483Y-25936D01*
X34638Y-26090D01*
X34840Y-26174D01*
X35058Y-26175D01*
X35261Y-26091D01*
X35415Y-25936D01*
X35499Y-25734D01*
X35500Y-25516D01*
X35416Y-25313D01*
X35318Y-25215D01*
X35318Y-24493D01*
X35362Y-24449D01*
X35362Y-24611D01*
X35426Y-24767D01*
X35546Y-24887D01*
X35684Y-24944D01*
X36088Y-25349D01*
X36088Y-26181D01*
X36116Y-26321D01*
X36196Y-26441D01*
X36900Y-27145D01*
G54D10*
G36*
X42539Y-12439D02*
X41997Y-12981D01*
X41200Y-12981D01*
X41199Y-12981D01*
X41059Y-13009D01*
X40939Y-13089D01*
X40939Y-13089D01*
X40433Y-13596D01*
X40433Y-12618D01*
X40433Y-11918D01*
X40395Y-11826D01*
X40324Y-11756D01*
X40232Y-11718D01*
X40133Y-11717D01*
X39433Y-11717D01*
X39341Y-11755D01*
X39271Y-11826D01*
X39233Y-11918D01*
X39232Y-12017D01*
X39232Y-12717D01*
X39270Y-12809D01*
X39341Y-12879D01*
X39433Y-12917D01*
X39532Y-12918D01*
X40232Y-12918D01*
X40324Y-12880D01*
X40394Y-12809D01*
X40432Y-12717D01*
X40433Y-12618D01*
X40433Y-13596D01*
X40394Y-13634D01*
X40394Y-13634D01*
X40389Y-13639D01*
X40309Y-13759D01*
X40281Y-13900D01*
X40282Y-13902D01*
X40232Y-13882D01*
X40133Y-13881D01*
X39433Y-13881D01*
X39341Y-13919D01*
X39271Y-13990D01*
X39233Y-14082D01*
X39232Y-14181D01*
X39232Y-14881D01*
X39270Y-14973D01*
X39341Y-15043D01*
X39433Y-15081D01*
X39532Y-15082D01*
X40232Y-15082D01*
X40286Y-15059D01*
X40286Y-15375D01*
X40314Y-15515D01*
X40394Y-15635D01*
X40821Y-16062D01*
X40821Y-21757D01*
X40697Y-21882D01*
X40697Y-17423D01*
X40632Y-17267D01*
X40513Y-17147D01*
X40357Y-17082D01*
X40187Y-17082D01*
X40031Y-17147D01*
X39912Y-17266D01*
X39847Y-17422D01*
X39847Y-17508D01*
X39707Y-17647D01*
X39642Y-17745D01*
X39620Y-17860D01*
X39620Y-18348D01*
X39559Y-18408D01*
X39495Y-18565D01*
X39494Y-18734D01*
X39559Y-18890D01*
X39678Y-19010D01*
X39835Y-19074D01*
X40004Y-19075D01*
X40160Y-19010D01*
X40280Y-18891D01*
X40344Y-18734D01*
X40345Y-18565D01*
X40280Y-18409D01*
X40220Y-18348D01*
X40220Y-17984D01*
X40271Y-17932D01*
X40356Y-17932D01*
X40512Y-17868D01*
X40632Y-17748D01*
X40697Y-17592D01*
X40697Y-17423D01*
X40697Y-21882D01*
X38975Y-23604D01*
X38975Y-16785D01*
X38910Y-16629D01*
X38791Y-16509D01*
X38780Y-16505D01*
X38780Y-14782D01*
X38780Y-14181D01*
X38780Y-12618D01*
X38780Y-12017D01*
X38779Y-11918D01*
X38741Y-11826D01*
X38671Y-11755D01*
X38579Y-11717D01*
X38292Y-11718D01*
X38230Y-11780D01*
X38230Y-12268D01*
X38717Y-12268D01*
X38780Y-12205D01*
X38780Y-12017D01*
X38780Y-12618D01*
X38780Y-12430D01*
X38717Y-12368D01*
X38230Y-12368D01*
X38230Y-12855D01*
X38292Y-12918D01*
X38579Y-12918D01*
X38671Y-12880D01*
X38741Y-12809D01*
X38779Y-12717D01*
X38780Y-12618D01*
X38780Y-14181D01*
X38779Y-14082D01*
X38741Y-13990D01*
X38671Y-13919D01*
X38579Y-13881D01*
X38292Y-13882D01*
X38230Y-13944D01*
X38230Y-14432D01*
X38717Y-14432D01*
X38780Y-14369D01*
X38780Y-14181D01*
X38780Y-14782D01*
X38780Y-14594D01*
X38717Y-14532D01*
X38230Y-14532D01*
X38230Y-15019D01*
X38292Y-15082D01*
X38579Y-15082D01*
X38671Y-15044D01*
X38741Y-14973D01*
X38779Y-14881D01*
X38780Y-14782D01*
X38780Y-16505D01*
X38634Y-16445D01*
X38465Y-16444D01*
X38309Y-16509D01*
X38189Y-16628D01*
X38130Y-16773D01*
X38130Y-15019D01*
X38130Y-14532D01*
X38130Y-14432D01*
X38130Y-13944D01*
X38130Y-12855D01*
X38130Y-12368D01*
X38130Y-12268D01*
X38130Y-11780D01*
X38067Y-11718D01*
X37780Y-11717D01*
X37688Y-11755D01*
X37618Y-11826D01*
X37580Y-11918D01*
X37579Y-12017D01*
X37580Y-12205D01*
X37642Y-12268D01*
X38130Y-12268D01*
X38130Y-12368D01*
X37642Y-12368D01*
X37580Y-12430D01*
X37579Y-12618D01*
X37580Y-12717D01*
X37618Y-12809D01*
X37688Y-12880D01*
X37780Y-12918D01*
X38067Y-12918D01*
X38130Y-12855D01*
X38130Y-13944D01*
X38067Y-13882D01*
X37780Y-13881D01*
X37688Y-13919D01*
X37618Y-13990D01*
X37580Y-14082D01*
X37579Y-14181D01*
X37580Y-14369D01*
X37642Y-14432D01*
X38130Y-14432D01*
X38130Y-14532D01*
X37642Y-14532D01*
X37580Y-14594D01*
X37579Y-14782D01*
X37580Y-14881D01*
X37618Y-14973D01*
X37688Y-15044D01*
X37780Y-15082D01*
X38067Y-15082D01*
X38130Y-15019D01*
X38130Y-16773D01*
X38125Y-16785D01*
X38124Y-16954D01*
X38189Y-17110D01*
X38250Y-17171D01*
X38250Y-19795D01*
X37770Y-20275D01*
X37769Y-20274D01*
X37753Y-20259D01*
X37804Y-20134D01*
X37805Y-19965D01*
X37740Y-19809D01*
X37621Y-19689D01*
X37464Y-19625D01*
X37295Y-19624D01*
X37139Y-19689D01*
X37126Y-19702D01*
X37126Y-14782D01*
X37126Y-14181D01*
X37126Y-12618D01*
X37126Y-11918D01*
X37088Y-11826D01*
X37017Y-11756D01*
X36925Y-11718D01*
X36826Y-11717D01*
X36126Y-11717D01*
X36034Y-11755D01*
X35964Y-11826D01*
X35926Y-11918D01*
X35925Y-12017D01*
X35925Y-12717D01*
X35963Y-12809D01*
X36034Y-12879D01*
X36126Y-12917D01*
X36225Y-12918D01*
X36925Y-12918D01*
X37017Y-12880D01*
X37087Y-12809D01*
X37125Y-12717D01*
X37126Y-12618D01*
X37126Y-14181D01*
X37125Y-14082D01*
X37087Y-13990D01*
X37017Y-13919D01*
X36925Y-13881D01*
X36638Y-13882D01*
X36576Y-13944D01*
X36576Y-14432D01*
X37063Y-14432D01*
X37126Y-14369D01*
X37126Y-14181D01*
X37126Y-14782D01*
X37126Y-14594D01*
X37063Y-14532D01*
X36576Y-14532D01*
X36576Y-15019D01*
X36638Y-15082D01*
X36925Y-15082D01*
X37017Y-15044D01*
X37087Y-14973D01*
X37125Y-14881D01*
X37126Y-14782D01*
X37126Y-19702D01*
X37019Y-19808D01*
X36955Y-19965D01*
X36954Y-20134D01*
X37019Y-20290D01*
X37090Y-20361D01*
X37090Y-20361D01*
X37102Y-20424D01*
X37167Y-20522D01*
X37345Y-20699D01*
X37344Y-20784D01*
X37409Y-20940D01*
X37528Y-21060D01*
X37685Y-21124D01*
X37854Y-21125D01*
X38010Y-21060D01*
X38130Y-20941D01*
X38194Y-20784D01*
X38195Y-20699D01*
X38762Y-20132D01*
X38762Y-20132D01*
X38827Y-20034D01*
X38849Y-19920D01*
X38850Y-19920D01*
X38850Y-17171D01*
X38910Y-17111D01*
X38974Y-16954D01*
X38975Y-16785D01*
X38975Y-23604D01*
X36943Y-25635D01*
X36824Y-25684D01*
X36824Y-25196D01*
X36796Y-25055D01*
X36716Y-24936D01*
X36476Y-24695D01*
X36476Y-15019D01*
X36476Y-14532D01*
X36476Y-14432D01*
X36476Y-13944D01*
X36413Y-13882D01*
X36126Y-13881D01*
X36034Y-13919D01*
X35964Y-13990D01*
X35926Y-14082D01*
X35925Y-14181D01*
X35926Y-14369D01*
X35988Y-14432D01*
X36476Y-14432D01*
X36476Y-14532D01*
X35988Y-14532D01*
X35926Y-14594D01*
X35925Y-14782D01*
X35926Y-14881D01*
X35964Y-14973D01*
X36034Y-15044D01*
X36126Y-15082D01*
X36413Y-15082D01*
X36476Y-15019D01*
X36476Y-24695D01*
X36204Y-24424D01*
X36147Y-24287D01*
X36028Y-24167D01*
X35872Y-24102D01*
X35709Y-24102D01*
X35968Y-23842D01*
X35968Y-23842D01*
X35968Y-23842D01*
X36048Y-23723D01*
X36076Y-23582D01*
X36076Y-16299D01*
X36048Y-16158D01*
X35968Y-16038D01*
X35968Y-16038D01*
X35613Y-15683D01*
X35557Y-15546D01*
X35474Y-15463D01*
X35474Y-14782D01*
X35474Y-14181D01*
X35474Y-12618D01*
X35474Y-12017D01*
X35473Y-11918D01*
X35435Y-11826D01*
X35365Y-11755D01*
X35273Y-11717D01*
X34986Y-11718D01*
X34924Y-11780D01*
X34924Y-12268D01*
X35411Y-12268D01*
X35474Y-12205D01*
X35474Y-12017D01*
X35474Y-12618D01*
X35474Y-12430D01*
X35411Y-12368D01*
X34924Y-12368D01*
X34924Y-12855D01*
X34986Y-12918D01*
X35273Y-12918D01*
X35365Y-12880D01*
X35435Y-12809D01*
X35473Y-12717D01*
X35474Y-12618D01*
X35474Y-14181D01*
X35473Y-14082D01*
X35435Y-13990D01*
X35365Y-13919D01*
X35273Y-13881D01*
X34986Y-13882D01*
X34924Y-13944D01*
X34924Y-14432D01*
X35411Y-14432D01*
X35474Y-14369D01*
X35474Y-14181D01*
X35474Y-14782D01*
X35474Y-14594D01*
X35411Y-14532D01*
X34924Y-14532D01*
X34924Y-15019D01*
X34986Y-15082D01*
X35273Y-15082D01*
X35365Y-15044D01*
X35435Y-14973D01*
X35473Y-14881D01*
X35474Y-14782D01*
X35474Y-15463D01*
X35437Y-15427D01*
X35281Y-15362D01*
X35112Y-15362D01*
X34956Y-15426D01*
X34836Y-15546D01*
X34824Y-15577D01*
X34824Y-15019D01*
X34824Y-14532D01*
X34824Y-14432D01*
X34824Y-13944D01*
X34824Y-12855D01*
X34824Y-12368D01*
X34824Y-12268D01*
X34824Y-11780D01*
X34761Y-11718D01*
X34474Y-11717D01*
X34382Y-11755D01*
X34312Y-11826D01*
X34274Y-11918D01*
X34273Y-12017D01*
X34274Y-12205D01*
X34336Y-12268D01*
X34824Y-12268D01*
X34824Y-12368D01*
X34336Y-12368D01*
X34274Y-12430D01*
X34273Y-12618D01*
X34274Y-12717D01*
X34312Y-12809D01*
X34382Y-12880D01*
X34474Y-12918D01*
X34761Y-12918D01*
X34824Y-12855D01*
X34824Y-13944D01*
X34761Y-13882D01*
X34474Y-13881D01*
X34382Y-13919D01*
X34312Y-13990D01*
X34274Y-14082D01*
X34273Y-14181D01*
X34274Y-14369D01*
X34336Y-14432D01*
X34824Y-14432D01*
X34824Y-14532D01*
X34336Y-14532D01*
X34274Y-14594D01*
X34273Y-14782D01*
X34274Y-14881D01*
X34312Y-14973D01*
X34382Y-15044D01*
X34474Y-15082D01*
X34761Y-15082D01*
X34824Y-15019D01*
X34824Y-15577D01*
X34771Y-15702D01*
X34771Y-15871D01*
X34836Y-16027D01*
X34955Y-16147D01*
X35093Y-16204D01*
X35340Y-16451D01*
X35340Y-22972D01*
X35318Y-22949D01*
X35318Y-22000D01*
X35290Y-21859D01*
X35210Y-21739D01*
X33716Y-20246D01*
X33730Y-20240D01*
X33850Y-20121D01*
X33914Y-19964D01*
X33915Y-19879D01*
X34362Y-19432D01*
X34362Y-19432D01*
X34427Y-19334D01*
X34449Y-19220D01*
X34450Y-19220D01*
X34450Y-16771D01*
X34510Y-16711D01*
X34574Y-16554D01*
X34575Y-16385D01*
X34510Y-16229D01*
X34391Y-16109D01*
X34234Y-16045D01*
X34065Y-16044D01*
X33909Y-16109D01*
X33820Y-16198D01*
X33820Y-14782D01*
X33820Y-14082D01*
X33820Y-12618D01*
X33820Y-11918D01*
X33782Y-11826D01*
X33711Y-11756D01*
X33619Y-11718D01*
X33520Y-11717D01*
X32820Y-11717D01*
X32728Y-11755D01*
X32658Y-11826D01*
X32620Y-11918D01*
X32619Y-12017D01*
X32619Y-12717D01*
X32657Y-12809D01*
X32728Y-12879D01*
X32820Y-12917D01*
X32919Y-12918D01*
X33619Y-12918D01*
X33711Y-12880D01*
X33781Y-12809D01*
X33819Y-12717D01*
X33820Y-12618D01*
X33820Y-14082D01*
X33782Y-13990D01*
X33711Y-13920D01*
X33619Y-13882D01*
X33520Y-13881D01*
X32820Y-13881D01*
X32728Y-13919D01*
X32658Y-13990D01*
X32620Y-14082D01*
X32619Y-14181D01*
X32619Y-14881D01*
X32657Y-14973D01*
X32728Y-15043D01*
X32820Y-15081D01*
X32919Y-15082D01*
X33619Y-15082D01*
X33711Y-15044D01*
X33781Y-14973D01*
X33819Y-14881D01*
X33820Y-14782D01*
X33820Y-16198D01*
X33789Y-16228D01*
X33725Y-16385D01*
X33724Y-16554D01*
X33789Y-16710D01*
X33850Y-16771D01*
X33850Y-19095D01*
X33490Y-19455D01*
X33405Y-19454D01*
X33249Y-19519D01*
X33129Y-19638D01*
X33123Y-19653D01*
X32607Y-19136D01*
X32607Y-13639D01*
X32607Y-13639D01*
X32607Y-13639D01*
X32602Y-13615D01*
X32579Y-13498D01*
X32499Y-13379D01*
X32499Y-13379D01*
X32210Y-13089D01*
X32167Y-13060D01*
X32167Y-12618D01*
X32167Y-12017D01*
X32166Y-11918D01*
X32128Y-11826D01*
X32058Y-11755D01*
X31966Y-11717D01*
X31679Y-11718D01*
X31617Y-11780D01*
X31617Y-12268D01*
X32104Y-12268D01*
X32167Y-12205D01*
X32167Y-12017D01*
X32167Y-12618D01*
X32167Y-12430D01*
X32104Y-12368D01*
X31617Y-12368D01*
X31617Y-12855D01*
X31679Y-12918D01*
X31966Y-12918D01*
X32058Y-12880D01*
X32128Y-12809D01*
X32166Y-12717D01*
X32167Y-12618D01*
X32167Y-13060D01*
X32090Y-13009D01*
X31950Y-12981D01*
X31517Y-12981D01*
X31517Y-12855D01*
X31517Y-12368D01*
X31517Y-12268D01*
X31517Y-11780D01*
X31454Y-11718D01*
X31167Y-11717D01*
X31075Y-11755D01*
X31005Y-11826D01*
X30967Y-11918D01*
X30966Y-12017D01*
X30967Y-12205D01*
X31029Y-12268D01*
X31517Y-12268D01*
X31517Y-12368D01*
X31029Y-12368D01*
X30967Y-12430D01*
X30966Y-12618D01*
X30967Y-12717D01*
X31005Y-12809D01*
X31075Y-12880D01*
X31167Y-12918D01*
X31454Y-12918D01*
X31517Y-12855D01*
X31517Y-12981D01*
X30827Y-12981D01*
X30513Y-12667D01*
X30513Y-12618D01*
X30513Y-11918D01*
X30475Y-11826D01*
X30404Y-11756D01*
X30312Y-11718D01*
X30213Y-11717D01*
X29513Y-11717D01*
X29421Y-11755D01*
X29351Y-11826D01*
X29313Y-11918D01*
X29313Y-11949D01*
X28860Y-11949D01*
X28860Y-11918D01*
X28822Y-11826D01*
X28751Y-11756D01*
X28659Y-11718D01*
X28560Y-11717D01*
X27860Y-11717D01*
X27768Y-11755D01*
X27698Y-11826D01*
X27660Y-11918D01*
X27659Y-12017D01*
X27659Y-12717D01*
X27686Y-12781D01*
X26452Y-12781D01*
X26160Y-12489D01*
X26040Y-12409D01*
X25900Y-12381D01*
X22325Y-12381D01*
X22184Y-12409D01*
X22064Y-12489D01*
X22057Y-12500D01*
X19696Y-14861D01*
X18825Y-14861D01*
X16832Y-14861D01*
X16832Y-14730D01*
X16794Y-14638D01*
X16723Y-14568D01*
X16631Y-14530D01*
X16532Y-14529D01*
X15532Y-14529D01*
X15458Y-14560D01*
X15458Y-14345D01*
X15532Y-14375D01*
X15631Y-14376D01*
X16631Y-14376D01*
X16723Y-14338D01*
X16793Y-14267D01*
X16831Y-14175D01*
X16832Y-14076D01*
X16832Y-13076D01*
X16794Y-12984D01*
X16723Y-12914D01*
X16631Y-12876D01*
X16532Y-12875D01*
X15532Y-12875D01*
X15458Y-12906D01*
X15458Y-12693D01*
X15532Y-12723D01*
X15631Y-12724D01*
X16631Y-12724D01*
X16723Y-12686D01*
X16793Y-12615D01*
X16831Y-12523D01*
X16832Y-12424D01*
X16832Y-11424D01*
X16794Y-11332D01*
X16723Y-11262D01*
X16631Y-11224D01*
X16532Y-11223D01*
X15698Y-11223D01*
X15852Y-11070D01*
X16631Y-11070D01*
X16723Y-11032D01*
X16793Y-10961D01*
X16831Y-10869D01*
X16832Y-10770D01*
X16832Y-10488D01*
X17432Y-10488D01*
X18897Y-10488D01*
X18630Y-10754D01*
X18470Y-11140D01*
X18469Y-11557D01*
X18629Y-11944D01*
X18924Y-12239D01*
X19310Y-12399D01*
X19727Y-12400D01*
X20114Y-12240D01*
X20409Y-11945D01*
X20569Y-11559D01*
X20570Y-11142D01*
X20410Y-10756D01*
X20143Y-10488D01*
X40682Y-10488D01*
X40679Y-10489D01*
X40559Y-10608D01*
X40495Y-10765D01*
X40494Y-10934D01*
X40559Y-11090D01*
X40678Y-11210D01*
X40835Y-11274D01*
X40920Y-11275D01*
X41187Y-11541D01*
X41187Y-11717D01*
X41087Y-11717D01*
X40995Y-11755D01*
X40925Y-11826D01*
X40887Y-11918D01*
X40886Y-12017D01*
X40886Y-12717D01*
X40924Y-12809D01*
X40995Y-12879D01*
X41087Y-12917D01*
X41186Y-12918D01*
X41886Y-12918D01*
X41978Y-12880D01*
X42048Y-12809D01*
X42086Y-12717D01*
X42087Y-12618D01*
X42087Y-11918D01*
X42049Y-11826D01*
X41978Y-11756D01*
X41886Y-11718D01*
X41787Y-11717D01*
X41787Y-11717D01*
X41787Y-11485D01*
X42539Y-12238D01*
X42539Y-12439D01*
X42539Y-12439D01*
G37*
G54D26*
X42539Y-12439D02*
X41997Y-12981D01*
X41200Y-12981D01*
X41199Y-12981D01*
X41059Y-13009D01*
X40939Y-13089D01*
X40939Y-13089D01*
X40433Y-13596D01*
X40433Y-12618D01*
X40433Y-11918D01*
X40395Y-11826D01*
X40324Y-11756D01*
X40232Y-11718D01*
X40133Y-11717D01*
X39433Y-11717D01*
X39341Y-11755D01*
X39271Y-11826D01*
X39233Y-11918D01*
X39232Y-12017D01*
X39232Y-12717D01*
X39270Y-12809D01*
X39341Y-12879D01*
X39433Y-12917D01*
X39532Y-12918D01*
X40232Y-12918D01*
X40324Y-12880D01*
X40394Y-12809D01*
X40432Y-12717D01*
X40433Y-12618D01*
X40433Y-13596D01*
X40394Y-13634D01*
X40394Y-13634D01*
X40389Y-13639D01*
X40309Y-13759D01*
X40281Y-13900D01*
X40282Y-13902D01*
X40232Y-13882D01*
X40133Y-13881D01*
X39433Y-13881D01*
X39341Y-13919D01*
X39271Y-13990D01*
X39233Y-14082D01*
X39232Y-14181D01*
X39232Y-14881D01*
X39270Y-14973D01*
X39341Y-15043D01*
X39433Y-15081D01*
X39532Y-15082D01*
X40232Y-15082D01*
X40286Y-15059D01*
X40286Y-15375D01*
X40314Y-15515D01*
X40394Y-15635D01*
X40821Y-16062D01*
X40821Y-21757D01*
X40697Y-21882D01*
X40697Y-17423D01*
X40632Y-17267D01*
X40513Y-17147D01*
X40357Y-17082D01*
X40187Y-17082D01*
X40031Y-17147D01*
X39912Y-17266D01*
X39847Y-17422D01*
X39847Y-17508D01*
X39707Y-17647D01*
X39642Y-17745D01*
X39620Y-17860D01*
X39620Y-18348D01*
X39559Y-18408D01*
X39495Y-18565D01*
X39494Y-18734D01*
X39559Y-18890D01*
X39678Y-19010D01*
X39835Y-19074D01*
X40004Y-19075D01*
X40160Y-19010D01*
X40280Y-18891D01*
X40344Y-18734D01*
X40345Y-18565D01*
X40280Y-18409D01*
X40220Y-18348D01*
X40220Y-17984D01*
X40271Y-17932D01*
X40356Y-17932D01*
X40512Y-17868D01*
X40632Y-17748D01*
X40697Y-17592D01*
X40697Y-17423D01*
X40697Y-21882D01*
X38975Y-23604D01*
X38975Y-16785D01*
X38910Y-16629D01*
X38791Y-16509D01*
X38780Y-16505D01*
X38780Y-14782D01*
X38780Y-14181D01*
X38780Y-12618D01*
X38780Y-12017D01*
X38779Y-11918D01*
X38741Y-11826D01*
X38671Y-11755D01*
X38579Y-11717D01*
X38292Y-11718D01*
X38230Y-11780D01*
X38230Y-12268D01*
X38717Y-12268D01*
X38780Y-12205D01*
X38780Y-12017D01*
X38780Y-12618D01*
X38780Y-12430D01*
X38717Y-12368D01*
X38230Y-12368D01*
X38230Y-12855D01*
X38292Y-12918D01*
X38579Y-12918D01*
X38671Y-12880D01*
X38741Y-12809D01*
X38779Y-12717D01*
X38780Y-12618D01*
X38780Y-14181D01*
X38779Y-14082D01*
X38741Y-13990D01*
X38671Y-13919D01*
X38579Y-13881D01*
X38292Y-13882D01*
X38230Y-13944D01*
X38230Y-14432D01*
X38717Y-14432D01*
X38780Y-14369D01*
X38780Y-14181D01*
X38780Y-14782D01*
X38780Y-14594D01*
X38717Y-14532D01*
X38230Y-14532D01*
X38230Y-15019D01*
X38292Y-15082D01*
X38579Y-15082D01*
X38671Y-15044D01*
X38741Y-14973D01*
X38779Y-14881D01*
X38780Y-14782D01*
X38780Y-16505D01*
X38634Y-16445D01*
X38465Y-16444D01*
X38309Y-16509D01*
X38189Y-16628D01*
X38130Y-16773D01*
X38130Y-15019D01*
X38130Y-14532D01*
X38130Y-14432D01*
X38130Y-13944D01*
X38130Y-12855D01*
X38130Y-12368D01*
X38130Y-12268D01*
X38130Y-11780D01*
X38067Y-11718D01*
X37780Y-11717D01*
X37688Y-11755D01*
X37618Y-11826D01*
X37580Y-11918D01*
X37579Y-12017D01*
X37580Y-12205D01*
X37642Y-12268D01*
X38130Y-12268D01*
X38130Y-12368D01*
X37642Y-12368D01*
X37580Y-12430D01*
X37579Y-12618D01*
X37580Y-12717D01*
X37618Y-12809D01*
X37688Y-12880D01*
X37780Y-12918D01*
X38067Y-12918D01*
X38130Y-12855D01*
X38130Y-13944D01*
X38067Y-13882D01*
X37780Y-13881D01*
X37688Y-13919D01*
X37618Y-13990D01*
X37580Y-14082D01*
X37579Y-14181D01*
X37580Y-14369D01*
X37642Y-14432D01*
X38130Y-14432D01*
X38130Y-14532D01*
X37642Y-14532D01*
X37580Y-14594D01*
X37579Y-14782D01*
X37580Y-14881D01*
X37618Y-14973D01*
X37688Y-15044D01*
X37780Y-15082D01*
X38067Y-15082D01*
X38130Y-15019D01*
X38130Y-16773D01*
X38125Y-16785D01*
X38124Y-16954D01*
X38189Y-17110D01*
X38250Y-17171D01*
X38250Y-19795D01*
X37770Y-20275D01*
X37769Y-20274D01*
X37753Y-20259D01*
X37804Y-20134D01*
X37805Y-19965D01*
X37740Y-19809D01*
X37621Y-19689D01*
X37464Y-19625D01*
X37295Y-19624D01*
X37139Y-19689D01*
X37126Y-19702D01*
X37126Y-14782D01*
X37126Y-14181D01*
X37126Y-12618D01*
X37126Y-11918D01*
X37088Y-11826D01*
X37017Y-11756D01*
X36925Y-11718D01*
X36826Y-11717D01*
X36126Y-11717D01*
X36034Y-11755D01*
X35964Y-11826D01*
X35926Y-11918D01*
X35925Y-12017D01*
X35925Y-12717D01*
X35963Y-12809D01*
X36034Y-12879D01*
X36126Y-12917D01*
X36225Y-12918D01*
X36925Y-12918D01*
X37017Y-12880D01*
X37087Y-12809D01*
X37125Y-12717D01*
X37126Y-12618D01*
X37126Y-14181D01*
X37125Y-14082D01*
X37087Y-13990D01*
X37017Y-13919D01*
X36925Y-13881D01*
X36638Y-13882D01*
X36576Y-13944D01*
X36576Y-14432D01*
X37063Y-14432D01*
X37126Y-14369D01*
X37126Y-14181D01*
X37126Y-14782D01*
X37126Y-14594D01*
X37063Y-14532D01*
X36576Y-14532D01*
X36576Y-15019D01*
X36638Y-15082D01*
X36925Y-15082D01*
X37017Y-15044D01*
X37087Y-14973D01*
X37125Y-14881D01*
X37126Y-14782D01*
X37126Y-19702D01*
X37019Y-19808D01*
X36955Y-19965D01*
X36954Y-20134D01*
X37019Y-20290D01*
X37090Y-20361D01*
X37090Y-20361D01*
X37102Y-20424D01*
X37167Y-20522D01*
X37345Y-20699D01*
X37344Y-20784D01*
X37409Y-20940D01*
X37528Y-21060D01*
X37685Y-21124D01*
X37854Y-21125D01*
X38010Y-21060D01*
X38130Y-20941D01*
X38194Y-20784D01*
X38195Y-20699D01*
X38762Y-20132D01*
X38762Y-20132D01*
X38827Y-20034D01*
X38849Y-19920D01*
X38850Y-19920D01*
X38850Y-17171D01*
X38910Y-17111D01*
X38974Y-16954D01*
X38975Y-16785D01*
X38975Y-23604D01*
X36943Y-25635D01*
X36824Y-25684D01*
X36824Y-25196D01*
X36796Y-25055D01*
X36716Y-24936D01*
X36476Y-24695D01*
X36476Y-15019D01*
X36476Y-14532D01*
X36476Y-14432D01*
X36476Y-13944D01*
X36413Y-13882D01*
X36126Y-13881D01*
X36034Y-13919D01*
X35964Y-13990D01*
X35926Y-14082D01*
X35925Y-14181D01*
X35926Y-14369D01*
X35988Y-14432D01*
X36476Y-14432D01*
X36476Y-14532D01*
X35988Y-14532D01*
X35926Y-14594D01*
X35925Y-14782D01*
X35926Y-14881D01*
X35964Y-14973D01*
X36034Y-15044D01*
X36126Y-15082D01*
X36413Y-15082D01*
X36476Y-15019D01*
X36476Y-24695D01*
X36204Y-24424D01*
X36147Y-24287D01*
X36028Y-24167D01*
X35872Y-24102D01*
X35709Y-24102D01*
X35968Y-23842D01*
X35968Y-23842D01*
X35968Y-23842D01*
X36048Y-23723D01*
X36076Y-23582D01*
X36076Y-16299D01*
X36048Y-16158D01*
X35968Y-16038D01*
X35968Y-16038D01*
X35613Y-15683D01*
X35557Y-15546D01*
X35474Y-15463D01*
X35474Y-14782D01*
X35474Y-14181D01*
X35474Y-12618D01*
X35474Y-12017D01*
X35473Y-11918D01*
X35435Y-11826D01*
X35365Y-11755D01*
X35273Y-11717D01*
X34986Y-11718D01*
X34924Y-11780D01*
X34924Y-12268D01*
X35411Y-12268D01*
X35474Y-12205D01*
X35474Y-12017D01*
X35474Y-12618D01*
X35474Y-12430D01*
X35411Y-12368D01*
X34924Y-12368D01*
X34924Y-12855D01*
X34986Y-12918D01*
X35273Y-12918D01*
X35365Y-12880D01*
X35435Y-12809D01*
X35473Y-12717D01*
X35474Y-12618D01*
X35474Y-14181D01*
X35473Y-14082D01*
X35435Y-13990D01*
X35365Y-13919D01*
X35273Y-13881D01*
X34986Y-13882D01*
X34924Y-13944D01*
X34924Y-14432D01*
X35411Y-14432D01*
X35474Y-14369D01*
X35474Y-14181D01*
X35474Y-14782D01*
X35474Y-14594D01*
X35411Y-14532D01*
X34924Y-14532D01*
X34924Y-15019D01*
X34986Y-15082D01*
X35273Y-15082D01*
X35365Y-15044D01*
X35435Y-14973D01*
X35473Y-14881D01*
X35474Y-14782D01*
X35474Y-15463D01*
X35437Y-15427D01*
X35281Y-15362D01*
X35112Y-15362D01*
X34956Y-15426D01*
X34836Y-15546D01*
X34824Y-15577D01*
X34824Y-15019D01*
X34824Y-14532D01*
X34824Y-14432D01*
X34824Y-13944D01*
X34824Y-12855D01*
X34824Y-12368D01*
X34824Y-12268D01*
X34824Y-11780D01*
X34761Y-11718D01*
X34474Y-11717D01*
X34382Y-11755D01*
X34312Y-11826D01*
X34274Y-11918D01*
X34273Y-12017D01*
X34274Y-12205D01*
X34336Y-12268D01*
X34824Y-12268D01*
X34824Y-12368D01*
X34336Y-12368D01*
X34274Y-12430D01*
X34273Y-12618D01*
X34274Y-12717D01*
X34312Y-12809D01*
X34382Y-12880D01*
X34474Y-12918D01*
X34761Y-12918D01*
X34824Y-12855D01*
X34824Y-13944D01*
X34761Y-13882D01*
X34474Y-13881D01*
X34382Y-13919D01*
X34312Y-13990D01*
X34274Y-14082D01*
X34273Y-14181D01*
X34274Y-14369D01*
X34336Y-14432D01*
X34824Y-14432D01*
X34824Y-14532D01*
X34336Y-14532D01*
X34274Y-14594D01*
X34273Y-14782D01*
X34274Y-14881D01*
X34312Y-14973D01*
X34382Y-15044D01*
X34474Y-15082D01*
X34761Y-15082D01*
X34824Y-15019D01*
X34824Y-15577D01*
X34771Y-15702D01*
X34771Y-15871D01*
X34836Y-16027D01*
X34955Y-16147D01*
X35093Y-16204D01*
X35340Y-16451D01*
X35340Y-22972D01*
X35318Y-22949D01*
X35318Y-22000D01*
X35290Y-21859D01*
X35210Y-21739D01*
X33716Y-20246D01*
X33730Y-20240D01*
X33850Y-20121D01*
X33914Y-19964D01*
X33915Y-19879D01*
X34362Y-19432D01*
X34362Y-19432D01*
X34427Y-19334D01*
X34449Y-19220D01*
X34450Y-19220D01*
X34450Y-16771D01*
X34510Y-16711D01*
X34574Y-16554D01*
X34575Y-16385D01*
X34510Y-16229D01*
X34391Y-16109D01*
X34234Y-16045D01*
X34065Y-16044D01*
X33909Y-16109D01*
X33820Y-16198D01*
X33820Y-14782D01*
X33820Y-14082D01*
X33820Y-12618D01*
X33820Y-11918D01*
X33782Y-11826D01*
X33711Y-11756D01*
X33619Y-11718D01*
X33520Y-11717D01*
X32820Y-11717D01*
X32728Y-11755D01*
X32658Y-11826D01*
X32620Y-11918D01*
X32619Y-12017D01*
X32619Y-12717D01*
X32657Y-12809D01*
X32728Y-12879D01*
X32820Y-12917D01*
X32919Y-12918D01*
X33619Y-12918D01*
X33711Y-12880D01*
X33781Y-12809D01*
X33819Y-12717D01*
X33820Y-12618D01*
X33820Y-14082D01*
X33782Y-13990D01*
X33711Y-13920D01*
X33619Y-13882D01*
X33520Y-13881D01*
X32820Y-13881D01*
X32728Y-13919D01*
X32658Y-13990D01*
X32620Y-14082D01*
X32619Y-14181D01*
X32619Y-14881D01*
X32657Y-14973D01*
X32728Y-15043D01*
X32820Y-15081D01*
X32919Y-15082D01*
X33619Y-15082D01*
X33711Y-15044D01*
X33781Y-14973D01*
X33819Y-14881D01*
X33820Y-14782D01*
X33820Y-16198D01*
X33789Y-16228D01*
X33725Y-16385D01*
X33724Y-16554D01*
X33789Y-16710D01*
X33850Y-16771D01*
X33850Y-19095D01*
X33490Y-19455D01*
X33405Y-19454D01*
X33249Y-19519D01*
X33129Y-19638D01*
X33123Y-19653D01*
X32607Y-19136D01*
X32607Y-13639D01*
X32607Y-13639D01*
X32607Y-13639D01*
X32602Y-13615D01*
X32579Y-13498D01*
X32499Y-13379D01*
X32499Y-13379D01*
X32210Y-13089D01*
X32167Y-13060D01*
X32167Y-12618D01*
X32167Y-12017D01*
X32166Y-11918D01*
X32128Y-11826D01*
X32058Y-11755D01*
X31966Y-11717D01*
X31679Y-11718D01*
X31617Y-11780D01*
X31617Y-12268D01*
X32104Y-12268D01*
X32167Y-12205D01*
X32167Y-12017D01*
X32167Y-12618D01*
X32167Y-12430D01*
X32104Y-12368D01*
X31617Y-12368D01*
X31617Y-12855D01*
X31679Y-12918D01*
X31966Y-12918D01*
X32058Y-12880D01*
X32128Y-12809D01*
X32166Y-12717D01*
X32167Y-12618D01*
X32167Y-13060D01*
X32090Y-13009D01*
X31950Y-12981D01*
X31517Y-12981D01*
X31517Y-12855D01*
X31517Y-12368D01*
X31517Y-12268D01*
X31517Y-11780D01*
X31454Y-11718D01*
X31167Y-11717D01*
X31075Y-11755D01*
X31005Y-11826D01*
X30967Y-11918D01*
X30966Y-12017D01*
X30967Y-12205D01*
X31029Y-12268D01*
X31517Y-12268D01*
X31517Y-12368D01*
X31029Y-12368D01*
X30967Y-12430D01*
X30966Y-12618D01*
X30967Y-12717D01*
X31005Y-12809D01*
X31075Y-12880D01*
X31167Y-12918D01*
X31454Y-12918D01*
X31517Y-12855D01*
X31517Y-12981D01*
X30827Y-12981D01*
X30513Y-12667D01*
X30513Y-12618D01*
X30513Y-11918D01*
X30475Y-11826D01*
X30404Y-11756D01*
X30312Y-11718D01*
X30213Y-11717D01*
X29513Y-11717D01*
X29421Y-11755D01*
X29351Y-11826D01*
X29313Y-11918D01*
X29313Y-11949D01*
X28860Y-11949D01*
X28860Y-11918D01*
X28822Y-11826D01*
X28751Y-11756D01*
X28659Y-11718D01*
X28560Y-11717D01*
X27860Y-11717D01*
X27768Y-11755D01*
X27698Y-11826D01*
X27660Y-11918D01*
X27659Y-12017D01*
X27659Y-12717D01*
X27686Y-12781D01*
X26452Y-12781D01*
X26160Y-12489D01*
X26040Y-12409D01*
X25900Y-12381D01*
X22325Y-12381D01*
X22184Y-12409D01*
X22064Y-12489D01*
X22057Y-12500D01*
X19696Y-14861D01*
X18825Y-14861D01*
X16832Y-14861D01*
X16832Y-14730D01*
X16794Y-14638D01*
X16723Y-14568D01*
X16631Y-14530D01*
X16532Y-14529D01*
X15532Y-14529D01*
X15458Y-14560D01*
X15458Y-14345D01*
X15532Y-14375D01*
X15631Y-14376D01*
X16631Y-14376D01*
X16723Y-14338D01*
X16793Y-14267D01*
X16831Y-14175D01*
X16832Y-14076D01*
X16832Y-13076D01*
X16794Y-12984D01*
X16723Y-12914D01*
X16631Y-12876D01*
X16532Y-12875D01*
X15532Y-12875D01*
X15458Y-12906D01*
X15458Y-12693D01*
X15532Y-12723D01*
X15631Y-12724D01*
X16631Y-12724D01*
X16723Y-12686D01*
X16793Y-12615D01*
X16831Y-12523D01*
X16832Y-12424D01*
X16832Y-11424D01*
X16794Y-11332D01*
X16723Y-11262D01*
X16631Y-11224D01*
X16532Y-11223D01*
X15698Y-11223D01*
X15852Y-11070D01*
X16631Y-11070D01*
X16723Y-11032D01*
X16793Y-10961D01*
X16831Y-10869D01*
X16832Y-10770D01*
X16832Y-10488D01*
X17432Y-10488D01*
X18897Y-10488D01*
X18630Y-10754D01*
X18470Y-11140D01*
X18469Y-11557D01*
X18629Y-11944D01*
X18924Y-12239D01*
X19310Y-12399D01*
X19727Y-12400D01*
X20114Y-12240D01*
X20409Y-11945D01*
X20569Y-11559D01*
X20570Y-11142D01*
X20410Y-10756D01*
X20143Y-10488D01*
X40682Y-10488D01*
X40679Y-10489D01*
X40559Y-10608D01*
X40495Y-10765D01*
X40494Y-10934D01*
X40559Y-11090D01*
X40678Y-11210D01*
X40835Y-11274D01*
X40920Y-11275D01*
X41187Y-11541D01*
X41187Y-11717D01*
X41087Y-11717D01*
X40995Y-11755D01*
X40925Y-11826D01*
X40887Y-11918D01*
X40886Y-12017D01*
X40886Y-12717D01*
X40924Y-12809D01*
X40995Y-12879D01*
X41087Y-12917D01*
X41186Y-12918D01*
X41886Y-12918D01*
X41978Y-12880D01*
X42048Y-12809D01*
X42086Y-12717D01*
X42087Y-12618D01*
X42087Y-11918D01*
X42049Y-11826D01*
X41978Y-11756D01*
X41886Y-11718D01*
X41787Y-11717D01*
X41787Y-11717D01*
X41787Y-11485D01*
X42539Y-12238D01*
X42539Y-12439D01*
G54D10*
G36*
X49125Y-36265D02*
X48875Y-36265D01*
X48875Y-27697D01*
X48719Y-27320D01*
X48431Y-27031D01*
X48404Y-27020D01*
X48404Y-25981D01*
X48393Y-25763D01*
X48331Y-25612D01*
X48235Y-25584D01*
X47920Y-25900D01*
X48235Y-26215D01*
X48331Y-26187D01*
X48404Y-25981D01*
X48404Y-27020D01*
X48165Y-26921D01*
X48165Y-26285D01*
X47850Y-25970D01*
X47779Y-26041D01*
X47779Y-25900D01*
X47464Y-25584D01*
X47368Y-25612D01*
X47351Y-25660D01*
X47331Y-25612D01*
X47235Y-25584D01*
X46920Y-25900D01*
X47235Y-26215D01*
X47331Y-26187D01*
X47348Y-26139D01*
X47368Y-26187D01*
X47464Y-26215D01*
X47779Y-25900D01*
X47779Y-26041D01*
X47534Y-26285D01*
X47562Y-26381D01*
X47768Y-26454D01*
X47986Y-26443D01*
X48137Y-26381D01*
X48165Y-26285D01*
X48165Y-26921D01*
X48054Y-26875D01*
X47647Y-26874D01*
X47270Y-27030D01*
X47165Y-27135D01*
X47165Y-26285D01*
X46850Y-25970D01*
X46779Y-26041D01*
X46779Y-25900D01*
X46464Y-25584D01*
X46368Y-25612D01*
X46295Y-25818D01*
X46306Y-26036D01*
X46368Y-26187D01*
X46464Y-26215D01*
X46779Y-25900D01*
X46779Y-26041D01*
X46534Y-26285D01*
X46562Y-26381D01*
X46768Y-26454D01*
X46986Y-26443D01*
X47137Y-26381D01*
X47165Y-26285D01*
X47165Y-27135D01*
X46981Y-27318D01*
X46825Y-27695D01*
X46824Y-28102D01*
X46980Y-28479D01*
X47268Y-28768D01*
X47645Y-28924D01*
X48052Y-28925D01*
X48429Y-28769D01*
X48718Y-28481D01*
X48874Y-28104D01*
X48875Y-27697D01*
X48875Y-36265D01*
X40600Y-36265D01*
X40600Y-32181D01*
X40471Y-31869D01*
X40232Y-31629D01*
X39919Y-31500D01*
X39581Y-31499D01*
X39269Y-31628D01*
X39029Y-31867D01*
X38900Y-32180D01*
X38899Y-32518D01*
X39028Y-32830D01*
X39267Y-33070D01*
X39580Y-33199D01*
X39918Y-33200D01*
X40230Y-33071D01*
X40470Y-32832D01*
X40599Y-32519D01*
X40600Y-32181D01*
X40600Y-36265D01*
X32000Y-36265D01*
X32000Y-32181D01*
X31871Y-31869D01*
X31632Y-31629D01*
X31319Y-31500D01*
X30981Y-31499D01*
X30669Y-31628D01*
X30429Y-31867D01*
X30300Y-32180D01*
X30299Y-32518D01*
X30428Y-32830D01*
X30667Y-33070D01*
X30980Y-33199D01*
X31318Y-33200D01*
X31630Y-33071D01*
X31870Y-32832D01*
X31999Y-32519D01*
X32000Y-32181D01*
X32000Y-36265D01*
X28770Y-36265D01*
X28770Y-34690D01*
X28680Y-34470D01*
X28680Y-32432D01*
X28680Y-31531D01*
X28679Y-31432D01*
X28641Y-31340D01*
X28571Y-31269D01*
X28479Y-31231D01*
X28042Y-31232D01*
X27980Y-31294D01*
X27980Y-31932D01*
X28617Y-31932D01*
X28680Y-31869D01*
X28680Y-31531D01*
X28680Y-32432D01*
X28680Y-32094D01*
X28617Y-32032D01*
X27980Y-32032D01*
X27980Y-32669D01*
X28042Y-32732D01*
X28479Y-32732D01*
X28571Y-32694D01*
X28641Y-32623D01*
X28679Y-32531D01*
X28680Y-32432D01*
X28680Y-34470D01*
X28643Y-34381D01*
X28406Y-34144D01*
X28097Y-34016D01*
X27880Y-34016D01*
X27880Y-32669D01*
X27880Y-32032D01*
X27880Y-31932D01*
X27880Y-31294D01*
X27817Y-31232D01*
X27380Y-31231D01*
X27288Y-31269D01*
X27218Y-31340D01*
X27180Y-31432D01*
X27179Y-31531D01*
X27180Y-31869D01*
X27242Y-31932D01*
X27880Y-31932D01*
X27880Y-32032D01*
X27242Y-32032D01*
X27180Y-32094D01*
X27179Y-32432D01*
X27180Y-32531D01*
X27218Y-32623D01*
X27288Y-32694D01*
X27380Y-32732D01*
X27817Y-32732D01*
X27880Y-32669D01*
X27880Y-34016D01*
X27763Y-34015D01*
X27454Y-34143D01*
X27217Y-34379D01*
X27089Y-34688D01*
X27089Y-35023D01*
X27217Y-35332D01*
X27453Y-35568D01*
X27762Y-35697D01*
X28096Y-35697D01*
X28405Y-35569D01*
X28642Y-35333D01*
X28770Y-35024D01*
X28770Y-34690D01*
X28770Y-36265D01*
X27026Y-36265D01*
X27026Y-32432D01*
X27026Y-31531D01*
X27025Y-31432D01*
X26987Y-31340D01*
X26917Y-31269D01*
X26825Y-31231D01*
X26388Y-31232D01*
X26326Y-31294D01*
X26326Y-31932D01*
X26963Y-31932D01*
X27026Y-31869D01*
X27026Y-31531D01*
X27026Y-32432D01*
X27026Y-32094D01*
X26963Y-32032D01*
X26326Y-32032D01*
X26326Y-32669D01*
X26388Y-32732D01*
X26825Y-32732D01*
X26917Y-32694D01*
X26987Y-32623D01*
X27025Y-32531D01*
X27026Y-32432D01*
X27026Y-36265D01*
X26226Y-36265D01*
X26226Y-32669D01*
X26226Y-32032D01*
X26226Y-31932D01*
X26226Y-31294D01*
X26163Y-31232D01*
X25726Y-31231D01*
X25634Y-31269D01*
X25564Y-31340D01*
X25526Y-31432D01*
X25525Y-31531D01*
X25526Y-31869D01*
X25588Y-31932D01*
X26226Y-31932D01*
X26226Y-32032D01*
X25588Y-32032D01*
X25526Y-32094D01*
X25525Y-32432D01*
X25526Y-32531D01*
X25564Y-32623D01*
X25634Y-32694D01*
X25726Y-32732D01*
X26163Y-32732D01*
X26226Y-32669D01*
X26226Y-36265D01*
X25374Y-36265D01*
X25374Y-32432D01*
X25374Y-31531D01*
X25373Y-31432D01*
X25335Y-31340D01*
X25265Y-31269D01*
X25173Y-31231D01*
X24736Y-31232D01*
X24674Y-31294D01*
X24674Y-31932D01*
X25311Y-31932D01*
X25374Y-31869D01*
X25374Y-31531D01*
X25374Y-32432D01*
X25374Y-32094D01*
X25311Y-32032D01*
X24674Y-32032D01*
X24674Y-32669D01*
X24736Y-32732D01*
X25173Y-32732D01*
X25265Y-32694D01*
X25335Y-32623D01*
X25373Y-32531D01*
X25374Y-32432D01*
X25374Y-36265D01*
X24574Y-36265D01*
X24574Y-32669D01*
X24574Y-32032D01*
X24574Y-31932D01*
X24574Y-31294D01*
X24511Y-31232D01*
X24074Y-31231D01*
X23982Y-31269D01*
X23912Y-31340D01*
X23874Y-31432D01*
X23873Y-31531D01*
X23874Y-31869D01*
X23936Y-31932D01*
X24574Y-31932D01*
X24574Y-32032D01*
X23936Y-32032D01*
X23874Y-32094D01*
X23873Y-32432D01*
X23874Y-32531D01*
X23912Y-32623D01*
X23982Y-32694D01*
X24074Y-32732D01*
X24511Y-32732D01*
X24574Y-32669D01*
X24574Y-36265D01*
X23810Y-36265D01*
X23810Y-34690D01*
X23720Y-34470D01*
X23720Y-32432D01*
X23720Y-31531D01*
X23719Y-31432D01*
X23681Y-31340D01*
X23611Y-31269D01*
X23519Y-31231D01*
X23082Y-31232D01*
X23020Y-31294D01*
X23020Y-31932D01*
X23657Y-31932D01*
X23720Y-31869D01*
X23720Y-31531D01*
X23720Y-32432D01*
X23720Y-32094D01*
X23657Y-32032D01*
X23020Y-32032D01*
X23020Y-32669D01*
X23082Y-32732D01*
X23519Y-32732D01*
X23611Y-32694D01*
X23681Y-32623D01*
X23719Y-32531D01*
X23720Y-32432D01*
X23720Y-34470D01*
X23683Y-34381D01*
X23446Y-34144D01*
X23137Y-34016D01*
X22920Y-34016D01*
X22920Y-32669D01*
X22920Y-32032D01*
X22920Y-31932D01*
X22920Y-31294D01*
X22857Y-31232D01*
X22420Y-31231D01*
X22328Y-31269D01*
X22258Y-31340D01*
X22220Y-31432D01*
X22219Y-31531D01*
X22220Y-31869D01*
X22282Y-31932D01*
X22920Y-31932D01*
X22920Y-32032D01*
X22282Y-32032D01*
X22220Y-32094D01*
X22219Y-32432D01*
X22220Y-32531D01*
X22258Y-32623D01*
X22328Y-32694D01*
X22420Y-32732D01*
X22857Y-32732D01*
X22920Y-32669D01*
X22920Y-34016D01*
X22803Y-34015D01*
X22494Y-34143D01*
X22257Y-34379D01*
X22129Y-34688D01*
X22129Y-35023D01*
X22257Y-35332D01*
X22493Y-35568D01*
X22802Y-35697D01*
X23136Y-35697D01*
X23445Y-35569D01*
X23682Y-35333D01*
X23810Y-35024D01*
X23810Y-34690D01*
X23810Y-36265D01*
X20580Y-36265D01*
X20580Y-30292D01*
X20420Y-29906D01*
X20125Y-29610D01*
X19739Y-29450D01*
X19322Y-29449D01*
X18936Y-29609D01*
X18640Y-29904D01*
X18480Y-30290D01*
X18479Y-30707D01*
X18639Y-31094D01*
X18934Y-31389D01*
X19320Y-31549D01*
X19737Y-31550D01*
X20124Y-31390D01*
X20419Y-31095D01*
X20579Y-30709D01*
X20580Y-30292D01*
X20580Y-36265D01*
X20195Y-36265D01*
X20195Y-34927D01*
X20195Y-32927D01*
X20187Y-32632D01*
X20090Y-32396D01*
X19974Y-32345D01*
X19904Y-32416D01*
X19904Y-32275D01*
X19853Y-32159D01*
X19577Y-32054D01*
X19282Y-32062D01*
X19046Y-32159D01*
X18995Y-32275D01*
X19450Y-32729D01*
X19904Y-32275D01*
X19904Y-32416D01*
X19520Y-32800D01*
X19974Y-33254D01*
X20090Y-33203D01*
X20195Y-32927D01*
X20195Y-34927D01*
X20187Y-34632D01*
X20090Y-34396D01*
X19974Y-34345D01*
X19904Y-34416D01*
X19904Y-34275D01*
X19853Y-34159D01*
X19577Y-34054D01*
X19282Y-34062D01*
X19090Y-34141D01*
X19172Y-33944D01*
X19172Y-33656D01*
X19089Y-33456D01*
X19322Y-33545D01*
X19617Y-33537D01*
X19853Y-33440D01*
X19904Y-33324D01*
X19450Y-32870D01*
X19444Y-32876D01*
X19373Y-32805D01*
X19379Y-32800D01*
X18925Y-32345D01*
X18809Y-32396D01*
X18704Y-32672D01*
X18712Y-32967D01*
X18791Y-33159D01*
X18594Y-33077D01*
X18306Y-33077D01*
X18106Y-33160D01*
X18195Y-32927D01*
X18187Y-32632D01*
X18090Y-32396D01*
X17974Y-32345D01*
X17904Y-32416D01*
X17904Y-32275D01*
X17853Y-32159D01*
X17577Y-32054D01*
X17282Y-32062D01*
X17046Y-32159D01*
X16995Y-32275D01*
X17450Y-32729D01*
X17904Y-32275D01*
X17904Y-32416D01*
X17520Y-32800D01*
X17526Y-32805D01*
X17455Y-32876D01*
X17450Y-32870D01*
X17379Y-32941D01*
X17379Y-32800D01*
X16925Y-32345D01*
X16809Y-32396D01*
X16704Y-32672D01*
X16712Y-32967D01*
X16809Y-33203D01*
X16925Y-33254D01*
X17379Y-32800D01*
X17379Y-32941D01*
X16995Y-33324D01*
X17046Y-33440D01*
X17322Y-33545D01*
X17617Y-33537D01*
X17809Y-33458D01*
X17727Y-33655D01*
X17727Y-33943D01*
X17810Y-34143D01*
X17577Y-34054D01*
X17282Y-34062D01*
X17046Y-34159D01*
X16995Y-34275D01*
X17450Y-34729D01*
X17455Y-34723D01*
X17526Y-34794D01*
X17520Y-34800D01*
X17974Y-35254D01*
X18090Y-35203D01*
X18195Y-34927D01*
X18187Y-34632D01*
X18108Y-34440D01*
X18305Y-34522D01*
X18593Y-34522D01*
X18793Y-34439D01*
X18704Y-34672D01*
X18712Y-34967D01*
X18809Y-35203D01*
X18925Y-35254D01*
X19379Y-34800D01*
X19373Y-34794D01*
X19444Y-34723D01*
X19450Y-34729D01*
X19904Y-34275D01*
X19904Y-34416D01*
X19520Y-34800D01*
X19974Y-35254D01*
X20090Y-35203D01*
X20195Y-34927D01*
X20195Y-36265D01*
X19904Y-36265D01*
X19904Y-35324D01*
X19450Y-34870D01*
X18995Y-35324D01*
X19046Y-35440D01*
X19322Y-35545D01*
X19617Y-35537D01*
X19853Y-35440D01*
X19904Y-35324D01*
X19904Y-36265D01*
X17904Y-36265D01*
X17904Y-35324D01*
X17450Y-34870D01*
X17379Y-34941D01*
X17379Y-34800D01*
X16925Y-34345D01*
X16809Y-34396D01*
X16704Y-34672D01*
X16712Y-34967D01*
X16809Y-35203D01*
X16925Y-35254D01*
X17379Y-34800D01*
X17379Y-34941D01*
X16995Y-35324D01*
X17046Y-35440D01*
X17322Y-35545D01*
X17617Y-35537D01*
X17853Y-35440D01*
X17904Y-35324D01*
X17904Y-36265D01*
X15254Y-36265D01*
X15254Y-34681D01*
X15254Y-28281D01*
X15250Y-28188D01*
X15250Y-27091D01*
X15166Y-26888D01*
X15011Y-26734D01*
X14809Y-26650D01*
X14668Y-26649D01*
X14668Y-23329D01*
X14668Y-22230D01*
X14668Y-21675D01*
X14668Y-20576D01*
X14668Y-20023D01*
X14668Y-18924D01*
X14668Y-18369D01*
X14668Y-17270D01*
X14668Y-15829D01*
X14668Y-14730D01*
X14668Y-14175D01*
X14668Y-13076D01*
X14668Y-12523D01*
X14668Y-11424D01*
X14668Y-10869D01*
X14668Y-9770D01*
X14630Y-9678D01*
X14559Y-9608D01*
X14467Y-9570D01*
X14368Y-9569D01*
X14030Y-9570D01*
X13968Y-9632D01*
X13968Y-10270D01*
X14605Y-10270D01*
X14668Y-10207D01*
X14668Y-9770D01*
X14668Y-10869D01*
X14668Y-10432D01*
X14605Y-10370D01*
X13968Y-10370D01*
X13968Y-11007D01*
X14030Y-11070D01*
X14368Y-11070D01*
X14467Y-11069D01*
X14559Y-11031D01*
X14630Y-10961D01*
X14668Y-10869D01*
X14668Y-11424D01*
X14630Y-11332D01*
X14559Y-11262D01*
X14467Y-11224D01*
X14368Y-11223D01*
X14030Y-11224D01*
X13968Y-11286D01*
X13968Y-11924D01*
X14605Y-11924D01*
X14668Y-11861D01*
X14668Y-11424D01*
X14668Y-12523D01*
X14668Y-12086D01*
X14605Y-12024D01*
X13968Y-12024D01*
X13968Y-12661D01*
X14030Y-12724D01*
X14368Y-12724D01*
X14467Y-12723D01*
X14559Y-12685D01*
X14630Y-12615D01*
X14668Y-12523D01*
X14668Y-13076D01*
X14630Y-12984D01*
X14559Y-12914D01*
X14467Y-12876D01*
X14368Y-12875D01*
X14030Y-12876D01*
X13968Y-12938D01*
X13968Y-13576D01*
X14605Y-13576D01*
X14668Y-13513D01*
X14668Y-13076D01*
X14668Y-14175D01*
X14668Y-13738D01*
X14605Y-13676D01*
X13968Y-13676D01*
X13968Y-14313D01*
X14030Y-14376D01*
X14368Y-14376D01*
X14467Y-14375D01*
X14559Y-14337D01*
X14630Y-14267D01*
X14668Y-14175D01*
X14668Y-14730D01*
X14630Y-14638D01*
X14559Y-14568D01*
X14467Y-14530D01*
X14368Y-14529D01*
X14030Y-14530D01*
X13968Y-14592D01*
X13968Y-15230D01*
X14605Y-15230D01*
X14668Y-15167D01*
X14668Y-14730D01*
X14668Y-15829D01*
X14668Y-15392D01*
X14605Y-15330D01*
X13968Y-15330D01*
X13968Y-15967D01*
X14030Y-16030D01*
X14368Y-16030D01*
X14467Y-16029D01*
X14559Y-15991D01*
X14630Y-15921D01*
X14668Y-15829D01*
X14668Y-17270D01*
X14630Y-17178D01*
X14559Y-17108D01*
X14467Y-17070D01*
X14368Y-17069D01*
X14030Y-17070D01*
X13968Y-17132D01*
X13968Y-17770D01*
X14605Y-17770D01*
X14668Y-17707D01*
X14668Y-17270D01*
X14668Y-18369D01*
X14668Y-17932D01*
X14605Y-17870D01*
X13968Y-17870D01*
X13968Y-18507D01*
X14030Y-18570D01*
X14368Y-18570D01*
X14467Y-18569D01*
X14559Y-18531D01*
X14630Y-18461D01*
X14668Y-18369D01*
X14668Y-18924D01*
X14630Y-18832D01*
X14559Y-18762D01*
X14467Y-18724D01*
X14368Y-18723D01*
X14030Y-18724D01*
X13968Y-18786D01*
X13968Y-19424D01*
X14605Y-19424D01*
X14668Y-19361D01*
X14668Y-18924D01*
X14668Y-20023D01*
X14668Y-19586D01*
X14605Y-19524D01*
X13968Y-19524D01*
X13968Y-20161D01*
X14030Y-20224D01*
X14368Y-20224D01*
X14467Y-20223D01*
X14559Y-20185D01*
X14630Y-20115D01*
X14668Y-20023D01*
X14668Y-20576D01*
X14630Y-20484D01*
X14559Y-20414D01*
X14467Y-20376D01*
X14368Y-20375D01*
X14030Y-20376D01*
X13968Y-20438D01*
X13968Y-21076D01*
X14605Y-21076D01*
X14668Y-21013D01*
X14668Y-20576D01*
X14668Y-21675D01*
X14668Y-21238D01*
X14605Y-21176D01*
X13968Y-21176D01*
X13968Y-21813D01*
X14030Y-21876D01*
X14368Y-21876D01*
X14467Y-21875D01*
X14559Y-21837D01*
X14630Y-21767D01*
X14668Y-21675D01*
X14668Y-22230D01*
X14630Y-22138D01*
X14559Y-22068D01*
X14467Y-22030D01*
X14368Y-22029D01*
X14030Y-22030D01*
X13968Y-22092D01*
X13968Y-22730D01*
X14605Y-22730D01*
X14668Y-22667D01*
X14668Y-22230D01*
X14668Y-23329D01*
X14668Y-22892D01*
X14605Y-22830D01*
X13968Y-22830D01*
X13968Y-23467D01*
X14030Y-23530D01*
X14368Y-23530D01*
X14467Y-23529D01*
X14559Y-23491D01*
X14630Y-23421D01*
X14668Y-23329D01*
X14668Y-26649D01*
X14591Y-26649D01*
X14388Y-26733D01*
X14234Y-26888D01*
X14150Y-27090D01*
X14149Y-27308D01*
X14233Y-27511D01*
X14388Y-27665D01*
X14463Y-27697D01*
X14412Y-27718D01*
X14384Y-27814D01*
X14700Y-28129D01*
X15015Y-27814D01*
X14987Y-27718D01*
X14932Y-27699D01*
X15011Y-27666D01*
X15165Y-27511D01*
X15249Y-27309D01*
X15250Y-27091D01*
X15250Y-28188D01*
X15243Y-28063D01*
X15181Y-27912D01*
X15085Y-27884D01*
X14770Y-28200D01*
X15085Y-28515D01*
X15181Y-28487D01*
X15254Y-28281D01*
X15254Y-34681D01*
X15250Y-34588D01*
X15250Y-33491D01*
X15166Y-33288D01*
X15015Y-33137D01*
X15015Y-28585D01*
X14700Y-28270D01*
X14629Y-28341D01*
X14629Y-28200D01*
X14314Y-27884D01*
X14218Y-27912D01*
X14145Y-28118D01*
X14156Y-28336D01*
X14218Y-28487D01*
X14314Y-28515D01*
X14629Y-28200D01*
X14629Y-28341D01*
X14384Y-28585D01*
X14412Y-28681D01*
X14618Y-28754D01*
X14836Y-28743D01*
X14987Y-28681D01*
X15015Y-28585D01*
X15015Y-33137D01*
X15011Y-33134D01*
X14809Y-33050D01*
X14591Y-33049D01*
X14388Y-33133D01*
X14234Y-33288D01*
X14150Y-33490D01*
X14149Y-33708D01*
X14233Y-33911D01*
X14388Y-34065D01*
X14463Y-34097D01*
X14412Y-34118D01*
X14384Y-34214D01*
X14700Y-34529D01*
X15015Y-34214D01*
X14987Y-34118D01*
X14932Y-34099D01*
X15011Y-34066D01*
X15165Y-33911D01*
X15249Y-33709D01*
X15250Y-33491D01*
X15250Y-34588D01*
X15243Y-34463D01*
X15181Y-34312D01*
X15085Y-34284D01*
X14770Y-34600D01*
X15085Y-34915D01*
X15181Y-34887D01*
X15254Y-34681D01*
X15254Y-36265D01*
X15015Y-36265D01*
X15015Y-34985D01*
X14700Y-34670D01*
X14629Y-34741D01*
X14629Y-34600D01*
X14314Y-34284D01*
X14218Y-34312D01*
X14145Y-34518D01*
X14156Y-34736D01*
X14218Y-34887D01*
X14314Y-34915D01*
X14629Y-34600D01*
X14629Y-34741D01*
X14384Y-34985D01*
X14412Y-35081D01*
X14618Y-35154D01*
X14836Y-35143D01*
X14987Y-35081D01*
X15015Y-34985D01*
X15015Y-36265D01*
X13868Y-36265D01*
X13868Y-23467D01*
X13868Y-22830D01*
X13868Y-22730D01*
X13868Y-22092D01*
X13868Y-21813D01*
X13868Y-21176D01*
X13868Y-21076D01*
X13868Y-20438D01*
X13868Y-20161D01*
X13868Y-19524D01*
X13868Y-19424D01*
X13868Y-18786D01*
X13868Y-18507D01*
X13868Y-17870D01*
X13868Y-17770D01*
X13868Y-17132D01*
X13868Y-15967D01*
X13868Y-15330D01*
X13868Y-15230D01*
X13868Y-14592D01*
X13868Y-14313D01*
X13868Y-13676D01*
X13868Y-13576D01*
X13868Y-12938D01*
X13868Y-12661D01*
X13868Y-12024D01*
X13868Y-11924D01*
X13868Y-11286D01*
X13868Y-11007D01*
X13868Y-10370D01*
X13868Y-10270D01*
X13868Y-9632D01*
X13805Y-9570D01*
X13467Y-9569D01*
X13368Y-9570D01*
X13276Y-9608D01*
X13205Y-9678D01*
X13167Y-9770D01*
X13168Y-10207D01*
X13230Y-10270D01*
X13868Y-10270D01*
X13868Y-10370D01*
X13230Y-10370D01*
X13168Y-10432D01*
X13167Y-10869D01*
X13205Y-10961D01*
X13276Y-11031D01*
X13368Y-11069D01*
X13467Y-11070D01*
X13805Y-11070D01*
X13868Y-11007D01*
X13868Y-11286D01*
X13805Y-11224D01*
X13467Y-11223D01*
X13368Y-11224D01*
X13276Y-11262D01*
X13205Y-11332D01*
X13167Y-11424D01*
X13168Y-11861D01*
X13230Y-11924D01*
X13868Y-11924D01*
X13868Y-12024D01*
X13230Y-12024D01*
X13168Y-12086D01*
X13167Y-12523D01*
X13205Y-12615D01*
X13276Y-12685D01*
X13368Y-12723D01*
X13467Y-12724D01*
X13805Y-12724D01*
X13868Y-12661D01*
X13868Y-12938D01*
X13805Y-12876D01*
X13467Y-12875D01*
X13368Y-12876D01*
X13276Y-12914D01*
X13205Y-12984D01*
X13167Y-13076D01*
X13168Y-13513D01*
X13230Y-13576D01*
X13868Y-13576D01*
X13868Y-13676D01*
X13230Y-13676D01*
X13168Y-13738D01*
X13167Y-14175D01*
X13205Y-14267D01*
X13276Y-14337D01*
X13368Y-14375D01*
X13467Y-14376D01*
X13805Y-14376D01*
X13868Y-14313D01*
X13868Y-14592D01*
X13805Y-14530D01*
X13467Y-14529D01*
X13368Y-14530D01*
X13276Y-14568D01*
X13205Y-14638D01*
X13167Y-14730D01*
X13168Y-15167D01*
X13230Y-15230D01*
X13868Y-15230D01*
X13868Y-15330D01*
X13230Y-15330D01*
X13168Y-15392D01*
X13167Y-15829D01*
X13205Y-15921D01*
X13276Y-15991D01*
X13368Y-16029D01*
X13467Y-16030D01*
X13805Y-16030D01*
X13868Y-15967D01*
X13868Y-17132D01*
X13805Y-17070D01*
X13467Y-17069D01*
X13368Y-17070D01*
X13276Y-17108D01*
X13205Y-17178D01*
X13167Y-17270D01*
X13168Y-17707D01*
X13230Y-17770D01*
X13868Y-17770D01*
X13868Y-17870D01*
X13230Y-17870D01*
X13168Y-17932D01*
X13167Y-18369D01*
X13205Y-18461D01*
X13276Y-18531D01*
X13368Y-18569D01*
X13467Y-18570D01*
X13805Y-18570D01*
X13868Y-18507D01*
X13868Y-18786D01*
X13805Y-18724D01*
X13467Y-18723D01*
X13368Y-18724D01*
X13276Y-18762D01*
X13205Y-18832D01*
X13167Y-18924D01*
X13168Y-19361D01*
X13230Y-19424D01*
X13868Y-19424D01*
X13868Y-19524D01*
X13230Y-19524D01*
X13168Y-19586D01*
X13167Y-20023D01*
X13205Y-20115D01*
X13276Y-20185D01*
X13368Y-20223D01*
X13467Y-20224D01*
X13805Y-20224D01*
X13868Y-20161D01*
X13868Y-20438D01*
X13805Y-20376D01*
X13467Y-20375D01*
X13368Y-20376D01*
X13276Y-20414D01*
X13205Y-20484D01*
X13167Y-20576D01*
X13168Y-21013D01*
X13230Y-21076D01*
X13868Y-21076D01*
X13868Y-21176D01*
X13230Y-21176D01*
X13168Y-21238D01*
X13167Y-21675D01*
X13205Y-21767D01*
X13276Y-21837D01*
X13368Y-21875D01*
X13467Y-21876D01*
X13805Y-21876D01*
X13868Y-21813D01*
X13868Y-22092D01*
X13805Y-22030D01*
X13467Y-22029D01*
X13368Y-22030D01*
X13276Y-22068D01*
X13205Y-22138D01*
X13167Y-22230D01*
X13168Y-22667D01*
X13230Y-22730D01*
X13868Y-22730D01*
X13868Y-22830D01*
X13230Y-22830D01*
X13168Y-22892D01*
X13167Y-23329D01*
X13205Y-23421D01*
X13276Y-23491D01*
X13368Y-23529D01*
X13467Y-23530D01*
X13805Y-23530D01*
X13868Y-23467D01*
X13868Y-36265D01*
X13362Y-36265D01*
X13495Y-36132D01*
X13638Y-35787D01*
X13639Y-35414D01*
X13639Y-31414D01*
X13639Y-29014D01*
X13639Y-25014D01*
X13496Y-24668D01*
X13232Y-24404D01*
X12887Y-24261D01*
X12514Y-24260D01*
X12168Y-24403D01*
X11904Y-24667D01*
X11884Y-24716D01*
X11884Y-22613D01*
X11884Y-17653D01*
X11884Y-15113D01*
X11884Y-10153D01*
X11756Y-9844D01*
X11520Y-9607D01*
X11211Y-9479D01*
X10876Y-9479D01*
X10567Y-9607D01*
X10331Y-9843D01*
X10202Y-10152D01*
X10202Y-10486D01*
X10330Y-10795D01*
X10566Y-11032D01*
X10875Y-11160D01*
X11209Y-11160D01*
X11518Y-11033D01*
X11755Y-10796D01*
X11883Y-10487D01*
X11884Y-10153D01*
X11884Y-15113D01*
X11756Y-14804D01*
X11520Y-14567D01*
X11211Y-14439D01*
X10876Y-14439D01*
X10567Y-14567D01*
X10331Y-14803D01*
X10202Y-15112D01*
X10202Y-15446D01*
X10330Y-15755D01*
X10566Y-15992D01*
X10875Y-16120D01*
X11209Y-16120D01*
X11518Y-15993D01*
X11755Y-15756D01*
X11883Y-15447D01*
X11884Y-15113D01*
X11884Y-17653D01*
X11756Y-17344D01*
X11520Y-17107D01*
X11211Y-16979D01*
X10876Y-16979D01*
X10567Y-17107D01*
X10331Y-17343D01*
X10202Y-17652D01*
X10202Y-17986D01*
X10330Y-18295D01*
X10566Y-18532D01*
X10875Y-18660D01*
X11209Y-18660D01*
X11518Y-18533D01*
X11755Y-18296D01*
X11883Y-17987D01*
X11884Y-17653D01*
X11884Y-22613D01*
X11756Y-22304D01*
X11520Y-22067D01*
X11211Y-21939D01*
X10876Y-21939D01*
X10567Y-22067D01*
X10331Y-22303D01*
X10202Y-22612D01*
X10202Y-22946D01*
X10330Y-23255D01*
X10566Y-23492D01*
X10875Y-23620D01*
X11209Y-23620D01*
X11518Y-23493D01*
X11755Y-23256D01*
X11883Y-22947D01*
X11884Y-22613D01*
X11884Y-24716D01*
X11761Y-25012D01*
X11760Y-25385D01*
X11903Y-25731D01*
X12167Y-25995D01*
X12512Y-26138D01*
X12885Y-26139D01*
X13231Y-25996D01*
X13495Y-25732D01*
X13638Y-25387D01*
X13639Y-25014D01*
X13639Y-29014D01*
X13496Y-28668D01*
X13232Y-28404D01*
X12887Y-28261D01*
X12514Y-28260D01*
X12168Y-28403D01*
X11904Y-28667D01*
X11761Y-29012D01*
X11760Y-29385D01*
X11903Y-29731D01*
X12167Y-29995D01*
X12512Y-30138D01*
X12885Y-30139D01*
X13231Y-29996D01*
X13495Y-29732D01*
X13638Y-29387D01*
X13639Y-29014D01*
X13639Y-31414D01*
X13496Y-31068D01*
X13232Y-30804D01*
X12887Y-30661D01*
X12514Y-30660D01*
X12168Y-30803D01*
X11904Y-31067D01*
X11761Y-31412D01*
X11760Y-31785D01*
X11903Y-32131D01*
X12167Y-32395D01*
X12512Y-32538D01*
X12885Y-32539D01*
X13231Y-32396D01*
X13495Y-32132D01*
X13638Y-31787D01*
X13639Y-31414D01*
X13639Y-35414D01*
X13496Y-35068D01*
X13232Y-34804D01*
X12887Y-34661D01*
X12514Y-34660D01*
X12168Y-34803D01*
X11904Y-35067D01*
X11761Y-35412D01*
X11760Y-35785D01*
X11903Y-36131D01*
X12037Y-36265D01*
X10025Y-36265D01*
X10025Y-8225D01*
X16967Y-8225D01*
X16861Y-8296D01*
X16741Y-8474D01*
X16700Y-8685D01*
X16700Y-9114D01*
X16741Y-9325D01*
X16861Y-9503D01*
X17039Y-9622D01*
X17250Y-9664D01*
X17460Y-9622D01*
X17638Y-9503D01*
X17750Y-9337D01*
X17861Y-9503D01*
X18039Y-9622D01*
X18250Y-9664D01*
X18460Y-9622D01*
X18638Y-9503D01*
X18750Y-9337D01*
X18861Y-9503D01*
X19039Y-9622D01*
X19250Y-9664D01*
X19460Y-9622D01*
X19638Y-9503D01*
X19753Y-9331D01*
X19761Y-9356D01*
X19896Y-9524D01*
X20085Y-9627D01*
X20114Y-9633D01*
X20200Y-9584D01*
X20200Y-8950D01*
X20192Y-8950D01*
X20192Y-8850D01*
X20200Y-8850D01*
X20200Y-8842D01*
X20300Y-8842D01*
X20300Y-8850D01*
X20307Y-8850D01*
X20307Y-8950D01*
X20300Y-8950D01*
X20300Y-9584D01*
X20385Y-9633D01*
X20414Y-9627D01*
X20603Y-9524D01*
X20738Y-9356D01*
X20746Y-9331D01*
X20861Y-9503D01*
X21039Y-9622D01*
X21250Y-9664D01*
X21460Y-9622D01*
X21638Y-9503D01*
X21750Y-9337D01*
X21861Y-9503D01*
X22039Y-9622D01*
X22250Y-9664D01*
X22460Y-9622D01*
X22638Y-9503D01*
X22750Y-9337D01*
X22861Y-9503D01*
X23039Y-9622D01*
X23250Y-9664D01*
X23460Y-9622D01*
X23638Y-9503D01*
X23750Y-9337D01*
X23861Y-9503D01*
X24039Y-9622D01*
X24250Y-9664D01*
X24460Y-9622D01*
X24638Y-9503D01*
X24750Y-9337D01*
X24861Y-9503D01*
X25039Y-9622D01*
X25250Y-9664D01*
X25460Y-9622D01*
X25638Y-9503D01*
X25750Y-9337D01*
X25861Y-9503D01*
X26039Y-9622D01*
X26250Y-9664D01*
X26460Y-9622D01*
X26638Y-9503D01*
X26758Y-9325D01*
X26800Y-9114D01*
X26800Y-8685D01*
X26758Y-8474D01*
X26638Y-8296D01*
X26532Y-8225D01*
X27567Y-8225D01*
X27461Y-8296D01*
X27341Y-8474D01*
X27300Y-8685D01*
X27300Y-9114D01*
X27341Y-9325D01*
X27461Y-9503D01*
X27639Y-9622D01*
X27850Y-9664D01*
X28060Y-9622D01*
X28238Y-9503D01*
X28350Y-9337D01*
X28461Y-9503D01*
X28639Y-9622D01*
X28850Y-9664D01*
X29060Y-9622D01*
X29238Y-9503D01*
X29350Y-9337D01*
X29461Y-9503D01*
X29639Y-9622D01*
X29850Y-9664D01*
X30060Y-9622D01*
X30238Y-9503D01*
X30350Y-9337D01*
X30461Y-9503D01*
X30639Y-9622D01*
X30850Y-9664D01*
X31060Y-9622D01*
X31238Y-9503D01*
X31350Y-9337D01*
X31461Y-9503D01*
X31639Y-9622D01*
X31850Y-9664D01*
X32060Y-9622D01*
X32238Y-9503D01*
X32350Y-9337D01*
X32461Y-9503D01*
X32639Y-9622D01*
X32850Y-9664D01*
X33060Y-9622D01*
X33238Y-9503D01*
X33350Y-9337D01*
X33461Y-9503D01*
X33639Y-9622D01*
X33850Y-9664D01*
X34060Y-9622D01*
X34238Y-9503D01*
X34350Y-9337D01*
X34461Y-9503D01*
X34639Y-9622D01*
X34850Y-9664D01*
X35060Y-9622D01*
X35238Y-9503D01*
X35358Y-9325D01*
X35400Y-9114D01*
X35400Y-8685D01*
X35358Y-8474D01*
X35238Y-8296D01*
X35132Y-8225D01*
X36567Y-8225D01*
X36461Y-8296D01*
X36341Y-8474D01*
X36300Y-8685D01*
X36300Y-9114D01*
X36341Y-9325D01*
X36461Y-9503D01*
X36639Y-9622D01*
X36850Y-9664D01*
X37060Y-9622D01*
X37238Y-9503D01*
X37350Y-9337D01*
X37461Y-9503D01*
X37639Y-9622D01*
X37850Y-9664D01*
X38060Y-9622D01*
X38238Y-9503D01*
X38350Y-9337D01*
X38461Y-9503D01*
X38639Y-9622D01*
X38850Y-9664D01*
X39060Y-9622D01*
X39238Y-9503D01*
X39350Y-9337D01*
X39461Y-9503D01*
X39639Y-9622D01*
X39850Y-9664D01*
X40060Y-9622D01*
X40238Y-9503D01*
X40350Y-9337D01*
X40461Y-9503D01*
X40639Y-9622D01*
X40850Y-9664D01*
X41060Y-9622D01*
X41238Y-9503D01*
X41350Y-9337D01*
X41461Y-9503D01*
X41639Y-9622D01*
X41850Y-9664D01*
X42060Y-9622D01*
X42238Y-9503D01*
X42350Y-9337D01*
X42461Y-9503D01*
X42639Y-9622D01*
X42850Y-9664D01*
X43060Y-9622D01*
X43113Y-9587D01*
X43700Y-10174D01*
X43700Y-11824D01*
X43631Y-11756D01*
X43539Y-11718D01*
X43440Y-11717D01*
X43060Y-11717D01*
X41202Y-9859D01*
X41082Y-9779D01*
X40942Y-9751D01*
X17432Y-9751D01*
X16824Y-9751D01*
X16794Y-9678D01*
X16723Y-9608D01*
X16631Y-9570D01*
X16532Y-9569D01*
X15532Y-9569D01*
X15440Y-9607D01*
X15370Y-9678D01*
X15332Y-9770D01*
X15331Y-9869D01*
X15331Y-10549D01*
X14829Y-11051D01*
X14749Y-11171D01*
X14721Y-11312D01*
X14721Y-16110D01*
X14749Y-16250D01*
X14829Y-16370D01*
X15530Y-17070D01*
X15440Y-17107D01*
X15370Y-17178D01*
X15332Y-17270D01*
X15331Y-17369D01*
X15331Y-18369D01*
X15369Y-18461D01*
X15440Y-18531D01*
X15532Y-18569D01*
X15631Y-18570D01*
X16631Y-18570D01*
X16723Y-18532D01*
X16793Y-18461D01*
X16831Y-18369D01*
X16832Y-18270D01*
X16832Y-17270D01*
X16794Y-17178D01*
X16723Y-17108D01*
X16631Y-17070D01*
X16532Y-17069D01*
X16443Y-17069D01*
X16422Y-16961D01*
X16342Y-16841D01*
X16342Y-16841D01*
X15529Y-16028D01*
X15532Y-16029D01*
X15631Y-16030D01*
X16631Y-16030D01*
X16723Y-15992D01*
X16793Y-15921D01*
X16831Y-15829D01*
X16832Y-15730D01*
X16832Y-15598D01*
X18456Y-15598D01*
X18456Y-19884D01*
X16832Y-21509D01*
X16832Y-20576D01*
X16832Y-19924D01*
X16832Y-18924D01*
X16794Y-18832D01*
X16723Y-18762D01*
X16631Y-18724D01*
X16532Y-18723D01*
X15532Y-18723D01*
X15440Y-18761D01*
X15370Y-18832D01*
X15332Y-18924D01*
X15331Y-19023D01*
X15331Y-20023D01*
X15369Y-20115D01*
X15440Y-20185D01*
X15532Y-20223D01*
X15631Y-20224D01*
X16631Y-20224D01*
X16723Y-20186D01*
X16793Y-20115D01*
X16831Y-20023D01*
X16832Y-19924D01*
X16832Y-20576D01*
X16794Y-20484D01*
X16723Y-20414D01*
X16631Y-20376D01*
X16532Y-20375D01*
X15532Y-20375D01*
X15440Y-20413D01*
X15370Y-20484D01*
X15332Y-20576D01*
X15331Y-20675D01*
X15331Y-21362D01*
X14829Y-21864D01*
X14749Y-21984D01*
X14721Y-22125D01*
X14721Y-25719D01*
X14749Y-25860D01*
X14829Y-25980D01*
X17928Y-29079D01*
X17928Y-29079D01*
X18048Y-29158D01*
X18188Y-29187D01*
X22253Y-29187D01*
X22220Y-29268D01*
X22219Y-29367D01*
X22219Y-30367D01*
X22257Y-30459D01*
X22328Y-30529D01*
X22420Y-30567D01*
X22519Y-30568D01*
X23199Y-30568D01*
X23641Y-31010D01*
X23641Y-31010D01*
X23761Y-31090D01*
X23902Y-31118D01*
X28400Y-31118D01*
X28540Y-31090D01*
X28660Y-31010D01*
X29360Y-30310D01*
X29360Y-30310D01*
X29360Y-30310D01*
X29440Y-30190D01*
X29468Y-30050D01*
X29468Y-30050D01*
X29468Y-30050D01*
X29468Y-28508D01*
X29639Y-28622D01*
X29850Y-28664D01*
X30060Y-28622D01*
X30238Y-28503D01*
X30350Y-28337D01*
X30461Y-28503D01*
X30639Y-28622D01*
X30850Y-28664D01*
X31060Y-28622D01*
X31238Y-28503D01*
X31350Y-28337D01*
X31461Y-28503D01*
X31550Y-28563D01*
X31550Y-31250D01*
X31572Y-31364D01*
X31637Y-31462D01*
X32899Y-32724D01*
X32899Y-32758D01*
X32983Y-32961D01*
X33138Y-33115D01*
X33340Y-33199D01*
X33558Y-33200D01*
X33761Y-33116D01*
X33915Y-32961D01*
X33949Y-32880D01*
X33983Y-32961D01*
X34138Y-33115D01*
X34340Y-33199D01*
X34558Y-33200D01*
X34761Y-33116D01*
X34915Y-32961D01*
X34949Y-32880D01*
X34983Y-32961D01*
X35138Y-33115D01*
X35340Y-33199D01*
X35558Y-33200D01*
X35761Y-33116D01*
X35915Y-32961D01*
X35949Y-32880D01*
X35983Y-32961D01*
X36138Y-33115D01*
X36340Y-33199D01*
X36558Y-33200D01*
X36761Y-33116D01*
X36915Y-32961D01*
X36949Y-32880D01*
X36983Y-32961D01*
X37138Y-33115D01*
X37340Y-33199D01*
X37558Y-33200D01*
X37761Y-33116D01*
X37915Y-32961D01*
X37999Y-32759D01*
X38000Y-32541D01*
X37916Y-32338D01*
X37777Y-32200D01*
X37799Y-32200D01*
X37891Y-32162D01*
X37961Y-32091D01*
X37999Y-31999D01*
X38000Y-31900D01*
X38000Y-31300D01*
X37962Y-31208D01*
X37891Y-31138D01*
X37799Y-31100D01*
X37700Y-31099D01*
X37100Y-31099D01*
X37008Y-31137D01*
X36938Y-31208D01*
X36900Y-31300D01*
X36899Y-31353D01*
X36835Y-31334D01*
X36520Y-31650D01*
X36835Y-31965D01*
X36899Y-31946D01*
X36899Y-31999D01*
X36937Y-32091D01*
X37008Y-32161D01*
X37100Y-32199D01*
X37122Y-32199D01*
X36984Y-32338D01*
X36950Y-32419D01*
X36916Y-32338D01*
X36761Y-32184D01*
X36686Y-32152D01*
X36737Y-32131D01*
X36765Y-32035D01*
X36450Y-31720D01*
X36134Y-32035D01*
X36162Y-32131D01*
X36217Y-32150D01*
X36138Y-32183D01*
X35984Y-32338D01*
X35950Y-32419D01*
X35916Y-32338D01*
X35761Y-32184D01*
X35680Y-32150D01*
X35761Y-32116D01*
X35915Y-31961D01*
X35947Y-31886D01*
X35968Y-31937D01*
X36064Y-31965D01*
X36379Y-31650D01*
X36373Y-31644D01*
X36444Y-31573D01*
X36450Y-31579D01*
X36765Y-31264D01*
X36737Y-31168D01*
X36531Y-31095D01*
X36313Y-31106D01*
X36162Y-31168D01*
X36150Y-31211D01*
X36150Y-29718D01*
X36165Y-29724D01*
X36334Y-29725D01*
X36472Y-29668D01*
X37349Y-29668D01*
X37490Y-29640D01*
X37610Y-29560D01*
X38185Y-28985D01*
X38185Y-28985D01*
X38185Y-28985D01*
X38265Y-28865D01*
X38293Y-28724D01*
X38293Y-28724D01*
X38293Y-28724D01*
X38293Y-27885D01*
X38293Y-27544D01*
X38336Y-27500D01*
X38300Y-27685D01*
X38300Y-28114D01*
X38341Y-28325D01*
X38461Y-28503D01*
X38639Y-28622D01*
X38850Y-28664D01*
X39060Y-28622D01*
X39238Y-28503D01*
X39350Y-28337D01*
X39461Y-28503D01*
X39639Y-28622D01*
X39850Y-28664D01*
X40060Y-28622D01*
X40238Y-28503D01*
X40350Y-28337D01*
X40461Y-28503D01*
X40639Y-28622D01*
X40850Y-28664D01*
X41060Y-28622D01*
X41238Y-28503D01*
X41350Y-28337D01*
X41461Y-28503D01*
X41639Y-28622D01*
X41850Y-28664D01*
X42060Y-28622D01*
X42238Y-28503D01*
X42350Y-28337D01*
X42461Y-28503D01*
X42639Y-28622D01*
X42850Y-28664D01*
X43060Y-28622D01*
X43238Y-28503D01*
X43350Y-28337D01*
X43461Y-28503D01*
X43639Y-28622D01*
X43850Y-28664D01*
X44060Y-28622D01*
X44238Y-28503D01*
X44350Y-28337D01*
X44461Y-28503D01*
X44639Y-28622D01*
X44850Y-28664D01*
X45060Y-28622D01*
X45238Y-28503D01*
X45350Y-28337D01*
X45461Y-28503D01*
X45639Y-28622D01*
X45850Y-28664D01*
X46060Y-28622D01*
X46238Y-28503D01*
X46358Y-28325D01*
X46400Y-28114D01*
X46400Y-27685D01*
X46358Y-27474D01*
X46238Y-27296D01*
X46060Y-27177D01*
X45850Y-27135D01*
X45639Y-27177D01*
X45461Y-27296D01*
X45350Y-27462D01*
X45238Y-27296D01*
X45060Y-27177D01*
X44850Y-27135D01*
X44639Y-27177D01*
X44461Y-27296D01*
X44350Y-27462D01*
X44238Y-27296D01*
X44060Y-27177D01*
X43850Y-27135D01*
X43639Y-27177D01*
X43461Y-27296D01*
X43350Y-27462D01*
X43238Y-27296D01*
X43060Y-27177D01*
X42850Y-27135D01*
X42639Y-27177D01*
X42461Y-27296D01*
X42350Y-27462D01*
X42238Y-27296D01*
X42060Y-27177D01*
X41850Y-27135D01*
X41639Y-27177D01*
X41461Y-27296D01*
X41350Y-27462D01*
X41238Y-27296D01*
X41060Y-27177D01*
X40850Y-27135D01*
X40639Y-27177D01*
X40461Y-27296D01*
X40350Y-27462D01*
X40238Y-27296D01*
X40060Y-27177D01*
X39850Y-27135D01*
X39639Y-27177D01*
X39461Y-27296D01*
X39350Y-27462D01*
X39238Y-27296D01*
X39060Y-27177D01*
X38850Y-27135D01*
X38639Y-27177D01*
X38461Y-27296D01*
X38441Y-27325D01*
X38456Y-27289D01*
X38456Y-27120D01*
X38392Y-26964D01*
X38272Y-26844D01*
X38116Y-26779D01*
X37947Y-26779D01*
X37809Y-26836D01*
X37632Y-26836D01*
X37232Y-26436D01*
X37287Y-26413D01*
X37407Y-26293D01*
X37464Y-26156D01*
X41450Y-22170D01*
X41450Y-22170D01*
X41450Y-22170D01*
X41530Y-22050D01*
X41558Y-21910D01*
X41558Y-17499D01*
X41608Y-17550D01*
X41765Y-17614D01*
X41850Y-17615D01*
X42852Y-18617D01*
X42852Y-21058D01*
X42792Y-21118D01*
X42727Y-21275D01*
X42727Y-21444D01*
X42792Y-21600D01*
X42852Y-21661D01*
X42852Y-22226D01*
X42789Y-22288D01*
X42725Y-22445D01*
X42724Y-22614D01*
X42789Y-22770D01*
X42908Y-22890D01*
X43065Y-22954D01*
X43234Y-22955D01*
X43390Y-22890D01*
X43510Y-22771D01*
X43534Y-22711D01*
X43534Y-22754D01*
X43599Y-22910D01*
X43718Y-23030D01*
X43875Y-23094D01*
X44044Y-23095D01*
X44200Y-23030D01*
X44320Y-22911D01*
X44384Y-22754D01*
X44385Y-22585D01*
X44320Y-22429D01*
X44201Y-22309D01*
X44044Y-22245D01*
X43961Y-22245D01*
X43961Y-17484D01*
X44084Y-17485D01*
X44240Y-17420D01*
X44360Y-17301D01*
X44421Y-17152D01*
X44654Y-16920D01*
X45098Y-16920D01*
X45158Y-16980D01*
X45315Y-17044D01*
X45484Y-17045D01*
X45640Y-16980D01*
X45760Y-16861D01*
X45824Y-16704D01*
X45825Y-16535D01*
X45760Y-16379D01*
X45641Y-16259D01*
X45484Y-16195D01*
X45315Y-16194D01*
X45159Y-16259D01*
X45098Y-16320D01*
X44530Y-16320D01*
X44415Y-16342D01*
X44317Y-16407D01*
X44300Y-16425D01*
X44300Y-14803D01*
X44514Y-15018D01*
X44823Y-15146D01*
X45157Y-15146D01*
X45466Y-15018D01*
X45703Y-14782D01*
X45831Y-14473D01*
X45831Y-14139D01*
X45703Y-13830D01*
X45467Y-13593D01*
X45158Y-13465D01*
X44824Y-13465D01*
X44515Y-13593D01*
X44300Y-13808D01*
X44300Y-10050D01*
X44299Y-10049D01*
X44277Y-9935D01*
X44212Y-9837D01*
X44212Y-9837D01*
X44007Y-9633D01*
X44060Y-9622D01*
X44238Y-9503D01*
X44358Y-9325D01*
X44377Y-9229D01*
X44480Y-9479D01*
X44768Y-9768D01*
X45145Y-9924D01*
X45552Y-9925D01*
X45929Y-9769D01*
X46218Y-9481D01*
X46357Y-9147D01*
X46383Y-9211D01*
X46538Y-9365D01*
X46619Y-9399D01*
X46538Y-9433D01*
X46384Y-9588D01*
X46300Y-9790D01*
X46299Y-10008D01*
X46383Y-10211D01*
X46538Y-10365D01*
X46619Y-10399D01*
X46538Y-10433D01*
X46384Y-10588D01*
X46300Y-10790D01*
X46299Y-11008D01*
X46383Y-11211D01*
X46538Y-11365D01*
X46619Y-11399D01*
X46538Y-11433D01*
X46384Y-11588D01*
X46300Y-11790D01*
X46299Y-12008D01*
X46383Y-12211D01*
X46538Y-12365D01*
X46619Y-12399D01*
X46538Y-12433D01*
X46384Y-12588D01*
X46300Y-12790D01*
X46299Y-13008D01*
X46383Y-13211D01*
X46538Y-13365D01*
X46619Y-13399D01*
X46538Y-13433D01*
X46384Y-13588D01*
X46300Y-13790D01*
X46299Y-14008D01*
X46383Y-14211D01*
X46538Y-14365D01*
X46619Y-14399D01*
X46538Y-14433D01*
X46384Y-14588D01*
X46300Y-14790D01*
X46299Y-15008D01*
X46383Y-15211D01*
X46538Y-15365D01*
X46619Y-15399D01*
X46538Y-15433D01*
X46384Y-15588D01*
X46300Y-15790D01*
X46299Y-16008D01*
X46383Y-16211D01*
X46538Y-16365D01*
X46619Y-16399D01*
X46538Y-16433D01*
X46384Y-16588D01*
X46300Y-16790D01*
X46299Y-17008D01*
X46383Y-17211D01*
X46538Y-17365D01*
X46619Y-17399D01*
X46538Y-17433D01*
X46384Y-17588D01*
X46300Y-17790D01*
X46299Y-18008D01*
X46383Y-18211D01*
X46538Y-18365D01*
X46619Y-18399D01*
X46538Y-18433D01*
X46384Y-18588D01*
X46300Y-18790D01*
X46299Y-19008D01*
X46383Y-19211D01*
X46538Y-19365D01*
X46619Y-19399D01*
X46538Y-19433D01*
X46384Y-19588D01*
X46300Y-19790D01*
X46299Y-20008D01*
X46383Y-20211D01*
X46538Y-20365D01*
X46619Y-20399D01*
X46538Y-20433D01*
X46384Y-20588D01*
X46300Y-20790D01*
X46299Y-21008D01*
X46383Y-21211D01*
X46538Y-21365D01*
X46619Y-21399D01*
X46538Y-21433D01*
X46384Y-21588D01*
X46300Y-21790D01*
X46299Y-22008D01*
X46383Y-22211D01*
X46538Y-22365D01*
X46619Y-22399D01*
X46538Y-22433D01*
X46384Y-22588D01*
X46300Y-22790D01*
X46299Y-23008D01*
X46383Y-23211D01*
X46538Y-23365D01*
X46619Y-23399D01*
X46538Y-23433D01*
X46384Y-23588D01*
X46300Y-23790D01*
X46299Y-24008D01*
X46383Y-24211D01*
X46538Y-24365D01*
X46619Y-24399D01*
X46538Y-24433D01*
X46384Y-24588D01*
X46300Y-24790D01*
X46299Y-25008D01*
X46383Y-25211D01*
X46538Y-25365D01*
X46613Y-25397D01*
X46562Y-25418D01*
X46534Y-25514D01*
X46850Y-25829D01*
X47165Y-25514D01*
X47137Y-25418D01*
X47082Y-25399D01*
X47161Y-25366D01*
X47315Y-25211D01*
X47349Y-25130D01*
X47383Y-25211D01*
X47538Y-25365D01*
X47613Y-25397D01*
X47562Y-25418D01*
X47534Y-25514D01*
X47850Y-25829D01*
X48165Y-25514D01*
X48137Y-25418D01*
X48082Y-25399D01*
X48161Y-25366D01*
X48315Y-25211D01*
X48399Y-25009D01*
X48400Y-24791D01*
X48316Y-24588D01*
X48161Y-24434D01*
X48080Y-24400D01*
X48161Y-24366D01*
X48315Y-24211D01*
X48399Y-24009D01*
X48400Y-23791D01*
X48316Y-23588D01*
X48161Y-23434D01*
X48080Y-23400D01*
X48161Y-23366D01*
X48315Y-23211D01*
X48399Y-23009D01*
X48400Y-22791D01*
X48316Y-22588D01*
X48161Y-22434D01*
X48080Y-22400D01*
X48161Y-22366D01*
X48315Y-22211D01*
X48399Y-22009D01*
X48400Y-21791D01*
X48316Y-21588D01*
X48161Y-21434D01*
X48080Y-21400D01*
X48161Y-21366D01*
X48315Y-21211D01*
X48399Y-21009D01*
X48400Y-20791D01*
X48316Y-20588D01*
X48161Y-20434D01*
X48080Y-20400D01*
X48161Y-20366D01*
X48315Y-20211D01*
X48399Y-20009D01*
X48400Y-19791D01*
X48316Y-19588D01*
X48161Y-19434D01*
X48080Y-19400D01*
X48161Y-19366D01*
X48315Y-19211D01*
X48399Y-19009D01*
X48400Y-18791D01*
X48316Y-18588D01*
X48161Y-18434D01*
X48080Y-18400D01*
X48161Y-18366D01*
X48315Y-18211D01*
X48399Y-18009D01*
X48400Y-17791D01*
X48316Y-17588D01*
X48161Y-17434D01*
X48080Y-17400D01*
X48161Y-17366D01*
X48315Y-17211D01*
X48399Y-17009D01*
X48400Y-16791D01*
X48316Y-16588D01*
X48161Y-16434D01*
X48080Y-16400D01*
X48161Y-16366D01*
X48315Y-16211D01*
X48399Y-16009D01*
X48400Y-15791D01*
X48316Y-15588D01*
X48161Y-15434D01*
X48080Y-15400D01*
X48161Y-15366D01*
X48315Y-15211D01*
X48399Y-15009D01*
X48400Y-14791D01*
X48316Y-14588D01*
X48161Y-14434D01*
X48080Y-14400D01*
X48161Y-14366D01*
X48315Y-14211D01*
X48399Y-14009D01*
X48400Y-13791D01*
X48316Y-13588D01*
X48161Y-13434D01*
X48080Y-13400D01*
X48161Y-13366D01*
X48315Y-13211D01*
X48399Y-13009D01*
X48400Y-12791D01*
X48316Y-12588D01*
X48161Y-12434D01*
X48080Y-12400D01*
X48161Y-12366D01*
X48315Y-12211D01*
X48399Y-12009D01*
X48400Y-11791D01*
X48316Y-11588D01*
X48161Y-11434D01*
X48080Y-11400D01*
X48161Y-11366D01*
X48315Y-11211D01*
X48399Y-11009D01*
X48400Y-10791D01*
X48316Y-10588D01*
X48161Y-10434D01*
X48080Y-10400D01*
X48161Y-10366D01*
X48315Y-10211D01*
X48399Y-10009D01*
X48400Y-9791D01*
X48316Y-9588D01*
X48161Y-9434D01*
X48080Y-9400D01*
X48161Y-9366D01*
X48315Y-9211D01*
X48399Y-9009D01*
X48400Y-8791D01*
X48316Y-8588D01*
X48161Y-8434D01*
X47959Y-8350D01*
X47741Y-8349D01*
X47538Y-8433D01*
X47384Y-8588D01*
X47350Y-8669D01*
X47316Y-8588D01*
X47161Y-8434D01*
X46959Y-8350D01*
X46741Y-8349D01*
X46538Y-8433D01*
X46384Y-8588D01*
X46357Y-8653D01*
X46219Y-8320D01*
X46124Y-8225D01*
X49125Y-8225D01*
X49125Y-36265D01*
X49125Y-36265D01*
G37*
G54D26*
X49125Y-36265D02*
X48875Y-36265D01*
X48875Y-27697D01*
X48719Y-27320D01*
X48431Y-27031D01*
X48404Y-27020D01*
X48404Y-25981D01*
X48393Y-25763D01*
X48331Y-25612D01*
X48235Y-25584D01*
X47920Y-25900D01*
X48235Y-26215D01*
X48331Y-26187D01*
X48404Y-25981D01*
X48404Y-27020D01*
X48165Y-26921D01*
X48165Y-26285D01*
X47850Y-25970D01*
X47779Y-26041D01*
X47779Y-25900D01*
X47464Y-25584D01*
X47368Y-25612D01*
X47351Y-25660D01*
X47331Y-25612D01*
X47235Y-25584D01*
X46920Y-25900D01*
X47235Y-26215D01*
X47331Y-26187D01*
X47348Y-26139D01*
X47368Y-26187D01*
X47464Y-26215D01*
X47779Y-25900D01*
X47779Y-26041D01*
X47534Y-26285D01*
X47562Y-26381D01*
X47768Y-26454D01*
X47986Y-26443D01*
X48137Y-26381D01*
X48165Y-26285D01*
X48165Y-26921D01*
X48054Y-26875D01*
X47647Y-26874D01*
X47270Y-27030D01*
X47165Y-27135D01*
X47165Y-26285D01*
X46850Y-25970D01*
X46779Y-26041D01*
X46779Y-25900D01*
X46464Y-25584D01*
X46368Y-25612D01*
X46295Y-25818D01*
X46306Y-26036D01*
X46368Y-26187D01*
X46464Y-26215D01*
X46779Y-25900D01*
X46779Y-26041D01*
X46534Y-26285D01*
X46562Y-26381D01*
X46768Y-26454D01*
X46986Y-26443D01*
X47137Y-26381D01*
X47165Y-26285D01*
X47165Y-27135D01*
X46981Y-27318D01*
X46825Y-27695D01*
X46824Y-28102D01*
X46980Y-28479D01*
X47268Y-28768D01*
X47645Y-28924D01*
X48052Y-28925D01*
X48429Y-28769D01*
X48718Y-28481D01*
X48874Y-28104D01*
X48875Y-27697D01*
X48875Y-36265D01*
X40600Y-36265D01*
X40600Y-32181D01*
X40471Y-31869D01*
X40232Y-31629D01*
X39919Y-31500D01*
X39581Y-31499D01*
X39269Y-31628D01*
X39029Y-31867D01*
X38900Y-32180D01*
X38899Y-32518D01*
X39028Y-32830D01*
X39267Y-33070D01*
X39580Y-33199D01*
X39918Y-33200D01*
X40230Y-33071D01*
X40470Y-32832D01*
X40599Y-32519D01*
X40600Y-32181D01*
X40600Y-36265D01*
X32000Y-36265D01*
X32000Y-32181D01*
X31871Y-31869D01*
X31632Y-31629D01*
X31319Y-31500D01*
X30981Y-31499D01*
X30669Y-31628D01*
X30429Y-31867D01*
X30300Y-32180D01*
X30299Y-32518D01*
X30428Y-32830D01*
X30667Y-33070D01*
X30980Y-33199D01*
X31318Y-33200D01*
X31630Y-33071D01*
X31870Y-32832D01*
X31999Y-32519D01*
X32000Y-32181D01*
X32000Y-36265D01*
X28770Y-36265D01*
X28770Y-34690D01*
X28680Y-34470D01*
X28680Y-32432D01*
X28680Y-31531D01*
X28679Y-31432D01*
X28641Y-31340D01*
X28571Y-31269D01*
X28479Y-31231D01*
X28042Y-31232D01*
X27980Y-31294D01*
X27980Y-31932D01*
X28617Y-31932D01*
X28680Y-31869D01*
X28680Y-31531D01*
X28680Y-32432D01*
X28680Y-32094D01*
X28617Y-32032D01*
X27980Y-32032D01*
X27980Y-32669D01*
X28042Y-32732D01*
X28479Y-32732D01*
X28571Y-32694D01*
X28641Y-32623D01*
X28679Y-32531D01*
X28680Y-32432D01*
X28680Y-34470D01*
X28643Y-34381D01*
X28406Y-34144D01*
X28097Y-34016D01*
X27880Y-34016D01*
X27880Y-32669D01*
X27880Y-32032D01*
X27880Y-31932D01*
X27880Y-31294D01*
X27817Y-31232D01*
X27380Y-31231D01*
X27288Y-31269D01*
X27218Y-31340D01*
X27180Y-31432D01*
X27179Y-31531D01*
X27180Y-31869D01*
X27242Y-31932D01*
X27880Y-31932D01*
X27880Y-32032D01*
X27242Y-32032D01*
X27180Y-32094D01*
X27179Y-32432D01*
X27180Y-32531D01*
X27218Y-32623D01*
X27288Y-32694D01*
X27380Y-32732D01*
X27817Y-32732D01*
X27880Y-32669D01*
X27880Y-34016D01*
X27763Y-34015D01*
X27454Y-34143D01*
X27217Y-34379D01*
X27089Y-34688D01*
X27089Y-35023D01*
X27217Y-35332D01*
X27453Y-35568D01*
X27762Y-35697D01*
X28096Y-35697D01*
X28405Y-35569D01*
X28642Y-35333D01*
X28770Y-35024D01*
X28770Y-34690D01*
X28770Y-36265D01*
X27026Y-36265D01*
X27026Y-32432D01*
X27026Y-31531D01*
X27025Y-31432D01*
X26987Y-31340D01*
X26917Y-31269D01*
X26825Y-31231D01*
X26388Y-31232D01*
X26326Y-31294D01*
X26326Y-31932D01*
X26963Y-31932D01*
X27026Y-31869D01*
X27026Y-31531D01*
X27026Y-32432D01*
X27026Y-32094D01*
X26963Y-32032D01*
X26326Y-32032D01*
X26326Y-32669D01*
X26388Y-32732D01*
X26825Y-32732D01*
X26917Y-32694D01*
X26987Y-32623D01*
X27025Y-32531D01*
X27026Y-32432D01*
X27026Y-36265D01*
X26226Y-36265D01*
X26226Y-32669D01*
X26226Y-32032D01*
X26226Y-31932D01*
X26226Y-31294D01*
X26163Y-31232D01*
X25726Y-31231D01*
X25634Y-31269D01*
X25564Y-31340D01*
X25526Y-31432D01*
X25525Y-31531D01*
X25526Y-31869D01*
X25588Y-31932D01*
X26226Y-31932D01*
X26226Y-32032D01*
X25588Y-32032D01*
X25526Y-32094D01*
X25525Y-32432D01*
X25526Y-32531D01*
X25564Y-32623D01*
X25634Y-32694D01*
X25726Y-32732D01*
X26163Y-32732D01*
X26226Y-32669D01*
X26226Y-36265D01*
X25374Y-36265D01*
X25374Y-32432D01*
X25374Y-31531D01*
X25373Y-31432D01*
X25335Y-31340D01*
X25265Y-31269D01*
X25173Y-31231D01*
X24736Y-31232D01*
X24674Y-31294D01*
X24674Y-31932D01*
X25311Y-31932D01*
X25374Y-31869D01*
X25374Y-31531D01*
X25374Y-32432D01*
X25374Y-32094D01*
X25311Y-32032D01*
X24674Y-32032D01*
X24674Y-32669D01*
X24736Y-32732D01*
X25173Y-32732D01*
X25265Y-32694D01*
X25335Y-32623D01*
X25373Y-32531D01*
X25374Y-32432D01*
X25374Y-36265D01*
X24574Y-36265D01*
X24574Y-32669D01*
X24574Y-32032D01*
X24574Y-31932D01*
X24574Y-31294D01*
X24511Y-31232D01*
X24074Y-31231D01*
X23982Y-31269D01*
X23912Y-31340D01*
X23874Y-31432D01*
X23873Y-31531D01*
X23874Y-31869D01*
X23936Y-31932D01*
X24574Y-31932D01*
X24574Y-32032D01*
X23936Y-32032D01*
X23874Y-32094D01*
X23873Y-32432D01*
X23874Y-32531D01*
X23912Y-32623D01*
X23982Y-32694D01*
X24074Y-32732D01*
X24511Y-32732D01*
X24574Y-32669D01*
X24574Y-36265D01*
X23810Y-36265D01*
X23810Y-34690D01*
X23720Y-34470D01*
X23720Y-32432D01*
X23720Y-31531D01*
X23719Y-31432D01*
X23681Y-31340D01*
X23611Y-31269D01*
X23519Y-31231D01*
X23082Y-31232D01*
X23020Y-31294D01*
X23020Y-31932D01*
X23657Y-31932D01*
X23720Y-31869D01*
X23720Y-31531D01*
X23720Y-32432D01*
X23720Y-32094D01*
X23657Y-32032D01*
X23020Y-32032D01*
X23020Y-32669D01*
X23082Y-32732D01*
X23519Y-32732D01*
X23611Y-32694D01*
X23681Y-32623D01*
X23719Y-32531D01*
X23720Y-32432D01*
X23720Y-34470D01*
X23683Y-34381D01*
X23446Y-34144D01*
X23137Y-34016D01*
X22920Y-34016D01*
X22920Y-32669D01*
X22920Y-32032D01*
X22920Y-31932D01*
X22920Y-31294D01*
X22857Y-31232D01*
X22420Y-31231D01*
X22328Y-31269D01*
X22258Y-31340D01*
X22220Y-31432D01*
X22219Y-31531D01*
X22220Y-31869D01*
X22282Y-31932D01*
X22920Y-31932D01*
X22920Y-32032D01*
X22282Y-32032D01*
X22220Y-32094D01*
X22219Y-32432D01*
X22220Y-32531D01*
X22258Y-32623D01*
X22328Y-32694D01*
X22420Y-32732D01*
X22857Y-32732D01*
X22920Y-32669D01*
X22920Y-34016D01*
X22803Y-34015D01*
X22494Y-34143D01*
X22257Y-34379D01*
X22129Y-34688D01*
X22129Y-35023D01*
X22257Y-35332D01*
X22493Y-35568D01*
X22802Y-35697D01*
X23136Y-35697D01*
X23445Y-35569D01*
X23682Y-35333D01*
X23810Y-35024D01*
X23810Y-34690D01*
X23810Y-36265D01*
X20580Y-36265D01*
X20580Y-30292D01*
X20420Y-29906D01*
X20125Y-29610D01*
X19739Y-29450D01*
X19322Y-29449D01*
X18936Y-29609D01*
X18640Y-29904D01*
X18480Y-30290D01*
X18479Y-30707D01*
X18639Y-31094D01*
X18934Y-31389D01*
X19320Y-31549D01*
X19737Y-31550D01*
X20124Y-31390D01*
X20419Y-31095D01*
X20579Y-30709D01*
X20580Y-30292D01*
X20580Y-36265D01*
X20195Y-36265D01*
X20195Y-34927D01*
X20195Y-32927D01*
X20187Y-32632D01*
X20090Y-32396D01*
X19974Y-32345D01*
X19904Y-32416D01*
X19904Y-32275D01*
X19853Y-32159D01*
X19577Y-32054D01*
X19282Y-32062D01*
X19046Y-32159D01*
X18995Y-32275D01*
X19450Y-32729D01*
X19904Y-32275D01*
X19904Y-32416D01*
X19520Y-32800D01*
X19974Y-33254D01*
X20090Y-33203D01*
X20195Y-32927D01*
X20195Y-34927D01*
X20187Y-34632D01*
X20090Y-34396D01*
X19974Y-34345D01*
X19904Y-34416D01*
X19904Y-34275D01*
X19853Y-34159D01*
X19577Y-34054D01*
X19282Y-34062D01*
X19090Y-34141D01*
X19172Y-33944D01*
X19172Y-33656D01*
X19089Y-33456D01*
X19322Y-33545D01*
X19617Y-33537D01*
X19853Y-33440D01*
X19904Y-33324D01*
X19450Y-32870D01*
X19444Y-32876D01*
X19373Y-32805D01*
X19379Y-32800D01*
X18925Y-32345D01*
X18809Y-32396D01*
X18704Y-32672D01*
X18712Y-32967D01*
X18791Y-33159D01*
X18594Y-33077D01*
X18306Y-33077D01*
X18106Y-33160D01*
X18195Y-32927D01*
X18187Y-32632D01*
X18090Y-32396D01*
X17974Y-32345D01*
X17904Y-32416D01*
X17904Y-32275D01*
X17853Y-32159D01*
X17577Y-32054D01*
X17282Y-32062D01*
X17046Y-32159D01*
X16995Y-32275D01*
X17450Y-32729D01*
X17904Y-32275D01*
X17904Y-32416D01*
X17520Y-32800D01*
X17526Y-32805D01*
X17455Y-32876D01*
X17450Y-32870D01*
X17379Y-32941D01*
X17379Y-32800D01*
X16925Y-32345D01*
X16809Y-32396D01*
X16704Y-32672D01*
X16712Y-32967D01*
X16809Y-33203D01*
X16925Y-33254D01*
X17379Y-32800D01*
X17379Y-32941D01*
X16995Y-33324D01*
X17046Y-33440D01*
X17322Y-33545D01*
X17617Y-33537D01*
X17809Y-33458D01*
X17727Y-33655D01*
X17727Y-33943D01*
X17810Y-34143D01*
X17577Y-34054D01*
X17282Y-34062D01*
X17046Y-34159D01*
X16995Y-34275D01*
X17450Y-34729D01*
X17455Y-34723D01*
X17526Y-34794D01*
X17520Y-34800D01*
X17974Y-35254D01*
X18090Y-35203D01*
X18195Y-34927D01*
X18187Y-34632D01*
X18108Y-34440D01*
X18305Y-34522D01*
X18593Y-34522D01*
X18793Y-34439D01*
X18704Y-34672D01*
X18712Y-34967D01*
X18809Y-35203D01*
X18925Y-35254D01*
X19379Y-34800D01*
X19373Y-34794D01*
X19444Y-34723D01*
X19450Y-34729D01*
X19904Y-34275D01*
X19904Y-34416D01*
X19520Y-34800D01*
X19974Y-35254D01*
X20090Y-35203D01*
X20195Y-34927D01*
X20195Y-36265D01*
X19904Y-36265D01*
X19904Y-35324D01*
X19450Y-34870D01*
X18995Y-35324D01*
X19046Y-35440D01*
X19322Y-35545D01*
X19617Y-35537D01*
X19853Y-35440D01*
X19904Y-35324D01*
X19904Y-36265D01*
X17904Y-36265D01*
X17904Y-35324D01*
X17450Y-34870D01*
X17379Y-34941D01*
X17379Y-34800D01*
X16925Y-34345D01*
X16809Y-34396D01*
X16704Y-34672D01*
X16712Y-34967D01*
X16809Y-35203D01*
X16925Y-35254D01*
X17379Y-34800D01*
X17379Y-34941D01*
X16995Y-35324D01*
X17046Y-35440D01*
X17322Y-35545D01*
X17617Y-35537D01*
X17853Y-35440D01*
X17904Y-35324D01*
X17904Y-36265D01*
X15254Y-36265D01*
X15254Y-34681D01*
X15254Y-28281D01*
X15250Y-28188D01*
X15250Y-27091D01*
X15166Y-26888D01*
X15011Y-26734D01*
X14809Y-26650D01*
X14668Y-26649D01*
X14668Y-23329D01*
X14668Y-22230D01*
X14668Y-21675D01*
X14668Y-20576D01*
X14668Y-20023D01*
X14668Y-18924D01*
X14668Y-18369D01*
X14668Y-17270D01*
X14668Y-15829D01*
X14668Y-14730D01*
X14668Y-14175D01*
X14668Y-13076D01*
X14668Y-12523D01*
X14668Y-11424D01*
X14668Y-10869D01*
X14668Y-9770D01*
X14630Y-9678D01*
X14559Y-9608D01*
X14467Y-9570D01*
X14368Y-9569D01*
X14030Y-9570D01*
X13968Y-9632D01*
X13968Y-10270D01*
X14605Y-10270D01*
X14668Y-10207D01*
X14668Y-9770D01*
X14668Y-10869D01*
X14668Y-10432D01*
X14605Y-10370D01*
X13968Y-10370D01*
X13968Y-11007D01*
X14030Y-11070D01*
X14368Y-11070D01*
X14467Y-11069D01*
X14559Y-11031D01*
X14630Y-10961D01*
X14668Y-10869D01*
X14668Y-11424D01*
X14630Y-11332D01*
X14559Y-11262D01*
X14467Y-11224D01*
X14368Y-11223D01*
X14030Y-11224D01*
X13968Y-11286D01*
X13968Y-11924D01*
X14605Y-11924D01*
X14668Y-11861D01*
X14668Y-11424D01*
X14668Y-12523D01*
X14668Y-12086D01*
X14605Y-12024D01*
X13968Y-12024D01*
X13968Y-12661D01*
X14030Y-12724D01*
X14368Y-12724D01*
X14467Y-12723D01*
X14559Y-12685D01*
X14630Y-12615D01*
X14668Y-12523D01*
X14668Y-13076D01*
X14630Y-12984D01*
X14559Y-12914D01*
X14467Y-12876D01*
X14368Y-12875D01*
X14030Y-12876D01*
X13968Y-12938D01*
X13968Y-13576D01*
X14605Y-13576D01*
X14668Y-13513D01*
X14668Y-13076D01*
X14668Y-14175D01*
X14668Y-13738D01*
X14605Y-13676D01*
X13968Y-13676D01*
X13968Y-14313D01*
X14030Y-14376D01*
X14368Y-14376D01*
X14467Y-14375D01*
X14559Y-14337D01*
X14630Y-14267D01*
X14668Y-14175D01*
X14668Y-14730D01*
X14630Y-14638D01*
X14559Y-14568D01*
X14467Y-14530D01*
X14368Y-14529D01*
X14030Y-14530D01*
X13968Y-14592D01*
X13968Y-15230D01*
X14605Y-15230D01*
X14668Y-15167D01*
X14668Y-14730D01*
X14668Y-15829D01*
X14668Y-15392D01*
X14605Y-15330D01*
X13968Y-15330D01*
X13968Y-15967D01*
X14030Y-16030D01*
X14368Y-16030D01*
X14467Y-16029D01*
X14559Y-15991D01*
X14630Y-15921D01*
X14668Y-15829D01*
X14668Y-17270D01*
X14630Y-17178D01*
X14559Y-17108D01*
X14467Y-17070D01*
X14368Y-17069D01*
X14030Y-17070D01*
X13968Y-17132D01*
X13968Y-17770D01*
X14605Y-17770D01*
X14668Y-17707D01*
X14668Y-17270D01*
X14668Y-18369D01*
X14668Y-17932D01*
X14605Y-17870D01*
X13968Y-17870D01*
X13968Y-18507D01*
X14030Y-18570D01*
X14368Y-18570D01*
X14467Y-18569D01*
X14559Y-18531D01*
X14630Y-18461D01*
X14668Y-18369D01*
X14668Y-18924D01*
X14630Y-18832D01*
X14559Y-18762D01*
X14467Y-18724D01*
X14368Y-18723D01*
X14030Y-18724D01*
X13968Y-18786D01*
X13968Y-19424D01*
X14605Y-19424D01*
X14668Y-19361D01*
X14668Y-18924D01*
X14668Y-20023D01*
X14668Y-19586D01*
X14605Y-19524D01*
X13968Y-19524D01*
X13968Y-20161D01*
X14030Y-20224D01*
X14368Y-20224D01*
X14467Y-20223D01*
X14559Y-20185D01*
X14630Y-20115D01*
X14668Y-20023D01*
X14668Y-20576D01*
X14630Y-20484D01*
X14559Y-20414D01*
X14467Y-20376D01*
X14368Y-20375D01*
X14030Y-20376D01*
X13968Y-20438D01*
X13968Y-21076D01*
X14605Y-21076D01*
X14668Y-21013D01*
X14668Y-20576D01*
X14668Y-21675D01*
X14668Y-21238D01*
X14605Y-21176D01*
X13968Y-21176D01*
X13968Y-21813D01*
X14030Y-21876D01*
X14368Y-21876D01*
X14467Y-21875D01*
X14559Y-21837D01*
X14630Y-21767D01*
X14668Y-21675D01*
X14668Y-22230D01*
X14630Y-22138D01*
X14559Y-22068D01*
X14467Y-22030D01*
X14368Y-22029D01*
X14030Y-22030D01*
X13968Y-22092D01*
X13968Y-22730D01*
X14605Y-22730D01*
X14668Y-22667D01*
X14668Y-22230D01*
X14668Y-23329D01*
X14668Y-22892D01*
X14605Y-22830D01*
X13968Y-22830D01*
X13968Y-23467D01*
X14030Y-23530D01*
X14368Y-23530D01*
X14467Y-23529D01*
X14559Y-23491D01*
X14630Y-23421D01*
X14668Y-23329D01*
X14668Y-26649D01*
X14591Y-26649D01*
X14388Y-26733D01*
X14234Y-26888D01*
X14150Y-27090D01*
X14149Y-27308D01*
X14233Y-27511D01*
X14388Y-27665D01*
X14463Y-27697D01*
X14412Y-27718D01*
X14384Y-27814D01*
X14700Y-28129D01*
X15015Y-27814D01*
X14987Y-27718D01*
X14932Y-27699D01*
X15011Y-27666D01*
X15165Y-27511D01*
X15249Y-27309D01*
X15250Y-27091D01*
X15250Y-28188D01*
X15243Y-28063D01*
X15181Y-27912D01*
X15085Y-27884D01*
X14770Y-28200D01*
X15085Y-28515D01*
X15181Y-28487D01*
X15254Y-28281D01*
X15254Y-34681D01*
X15250Y-34588D01*
X15250Y-33491D01*
X15166Y-33288D01*
X15015Y-33137D01*
X15015Y-28585D01*
X14700Y-28270D01*
X14629Y-28341D01*
X14629Y-28200D01*
X14314Y-27884D01*
X14218Y-27912D01*
X14145Y-28118D01*
X14156Y-28336D01*
X14218Y-28487D01*
X14314Y-28515D01*
X14629Y-28200D01*
X14629Y-28341D01*
X14384Y-28585D01*
X14412Y-28681D01*
X14618Y-28754D01*
X14836Y-28743D01*
X14987Y-28681D01*
X15015Y-28585D01*
X15015Y-33137D01*
X15011Y-33134D01*
X14809Y-33050D01*
X14591Y-33049D01*
X14388Y-33133D01*
X14234Y-33288D01*
X14150Y-33490D01*
X14149Y-33708D01*
X14233Y-33911D01*
X14388Y-34065D01*
X14463Y-34097D01*
X14412Y-34118D01*
X14384Y-34214D01*
X14700Y-34529D01*
X15015Y-34214D01*
X14987Y-34118D01*
X14932Y-34099D01*
X15011Y-34066D01*
X15165Y-33911D01*
X15249Y-33709D01*
X15250Y-33491D01*
X15250Y-34588D01*
X15243Y-34463D01*
X15181Y-34312D01*
X15085Y-34284D01*
X14770Y-34600D01*
X15085Y-34915D01*
X15181Y-34887D01*
X15254Y-34681D01*
X15254Y-36265D01*
X15015Y-36265D01*
X15015Y-34985D01*
X14700Y-34670D01*
X14629Y-34741D01*
X14629Y-34600D01*
X14314Y-34284D01*
X14218Y-34312D01*
X14145Y-34518D01*
X14156Y-34736D01*
X14218Y-34887D01*
X14314Y-34915D01*
X14629Y-34600D01*
X14629Y-34741D01*
X14384Y-34985D01*
X14412Y-35081D01*
X14618Y-35154D01*
X14836Y-35143D01*
X14987Y-35081D01*
X15015Y-34985D01*
X15015Y-36265D01*
X13868Y-36265D01*
X13868Y-23467D01*
X13868Y-22830D01*
X13868Y-22730D01*
X13868Y-22092D01*
X13868Y-21813D01*
X13868Y-21176D01*
X13868Y-21076D01*
X13868Y-20438D01*
X13868Y-20161D01*
X13868Y-19524D01*
X13868Y-19424D01*
X13868Y-18786D01*
X13868Y-18507D01*
X13868Y-17870D01*
X13868Y-17770D01*
X13868Y-17132D01*
X13868Y-15967D01*
X13868Y-15330D01*
X13868Y-15230D01*
X13868Y-14592D01*
X13868Y-14313D01*
X13868Y-13676D01*
X13868Y-13576D01*
X13868Y-12938D01*
X13868Y-12661D01*
X13868Y-12024D01*
X13868Y-11924D01*
X13868Y-11286D01*
X13868Y-11007D01*
X13868Y-10370D01*
X13868Y-10270D01*
X13868Y-9632D01*
X13805Y-9570D01*
X13467Y-9569D01*
X13368Y-9570D01*
X13276Y-9608D01*
X13205Y-9678D01*
X13167Y-9770D01*
X13168Y-10207D01*
X13230Y-10270D01*
X13868Y-10270D01*
X13868Y-10370D01*
X13230Y-10370D01*
X13168Y-10432D01*
X13167Y-10869D01*
X13205Y-10961D01*
X13276Y-11031D01*
X13368Y-11069D01*
X13467Y-11070D01*
X13805Y-11070D01*
X13868Y-11007D01*
X13868Y-11286D01*
X13805Y-11224D01*
X13467Y-11223D01*
X13368Y-11224D01*
X13276Y-11262D01*
X13205Y-11332D01*
X13167Y-11424D01*
X13168Y-11861D01*
X13230Y-11924D01*
X13868Y-11924D01*
X13868Y-12024D01*
X13230Y-12024D01*
X13168Y-12086D01*
X13167Y-12523D01*
X13205Y-12615D01*
X13276Y-12685D01*
X13368Y-12723D01*
X13467Y-12724D01*
X13805Y-12724D01*
X13868Y-12661D01*
X13868Y-12938D01*
X13805Y-12876D01*
X13467Y-12875D01*
X13368Y-12876D01*
X13276Y-12914D01*
X13205Y-12984D01*
X13167Y-13076D01*
X13168Y-13513D01*
X13230Y-13576D01*
X13868Y-13576D01*
X13868Y-13676D01*
X13230Y-13676D01*
X13168Y-13738D01*
X13167Y-14175D01*
X13205Y-14267D01*
X13276Y-14337D01*
X13368Y-14375D01*
X13467Y-14376D01*
X13805Y-14376D01*
X13868Y-14313D01*
X13868Y-14592D01*
X13805Y-14530D01*
X13467Y-14529D01*
X13368Y-14530D01*
X13276Y-14568D01*
X13205Y-14638D01*
X13167Y-14730D01*
X13168Y-15167D01*
X13230Y-15230D01*
X13868Y-15230D01*
X13868Y-15330D01*
X13230Y-15330D01*
X13168Y-15392D01*
X13167Y-15829D01*
X13205Y-15921D01*
X13276Y-15991D01*
X13368Y-16029D01*
X13467Y-16030D01*
X13805Y-16030D01*
X13868Y-15967D01*
X13868Y-17132D01*
X13805Y-17070D01*
X13467Y-17069D01*
X13368Y-17070D01*
X13276Y-17108D01*
X13205Y-17178D01*
X13167Y-17270D01*
X13168Y-17707D01*
X13230Y-17770D01*
X13868Y-17770D01*
X13868Y-17870D01*
X13230Y-17870D01*
X13168Y-17932D01*
X13167Y-18369D01*
X13205Y-18461D01*
X13276Y-18531D01*
X13368Y-18569D01*
X13467Y-18570D01*
X13805Y-18570D01*
X13868Y-18507D01*
X13868Y-18786D01*
X13805Y-18724D01*
X13467Y-18723D01*
X13368Y-18724D01*
X13276Y-18762D01*
X13205Y-18832D01*
X13167Y-18924D01*
X13168Y-19361D01*
X13230Y-19424D01*
X13868Y-19424D01*
X13868Y-19524D01*
X13230Y-19524D01*
X13168Y-19586D01*
X13167Y-20023D01*
X13205Y-20115D01*
X13276Y-20185D01*
X13368Y-20223D01*
X13467Y-20224D01*
X13805Y-20224D01*
X13868Y-20161D01*
X13868Y-20438D01*
X13805Y-20376D01*
X13467Y-20375D01*
X13368Y-20376D01*
X13276Y-20414D01*
X13205Y-20484D01*
X13167Y-20576D01*
X13168Y-21013D01*
X13230Y-21076D01*
X13868Y-21076D01*
X13868Y-21176D01*
X13230Y-21176D01*
X13168Y-21238D01*
X13167Y-21675D01*
X13205Y-21767D01*
X13276Y-21837D01*
X13368Y-21875D01*
X13467Y-21876D01*
X13805Y-21876D01*
X13868Y-21813D01*
X13868Y-22092D01*
X13805Y-22030D01*
X13467Y-22029D01*
X13368Y-22030D01*
X13276Y-22068D01*
X13205Y-22138D01*
X13167Y-22230D01*
X13168Y-22667D01*
X13230Y-22730D01*
X13868Y-22730D01*
X13868Y-22830D01*
X13230Y-22830D01*
X13168Y-22892D01*
X13167Y-23329D01*
X13205Y-23421D01*
X13276Y-23491D01*
X13368Y-23529D01*
X13467Y-23530D01*
X13805Y-23530D01*
X13868Y-23467D01*
X13868Y-36265D01*
X13362Y-36265D01*
X13495Y-36132D01*
X13638Y-35787D01*
X13639Y-35414D01*
X13639Y-31414D01*
X13639Y-29014D01*
X13639Y-25014D01*
X13496Y-24668D01*
X13232Y-24404D01*
X12887Y-24261D01*
X12514Y-24260D01*
X12168Y-24403D01*
X11904Y-24667D01*
X11884Y-24716D01*
X11884Y-22613D01*
X11884Y-17653D01*
X11884Y-15113D01*
X11884Y-10153D01*
X11756Y-9844D01*
X11520Y-9607D01*
X11211Y-9479D01*
X10876Y-9479D01*
X10567Y-9607D01*
X10331Y-9843D01*
X10202Y-10152D01*
X10202Y-10486D01*
X10330Y-10795D01*
X10566Y-11032D01*
X10875Y-11160D01*
X11209Y-11160D01*
X11518Y-11033D01*
X11755Y-10796D01*
X11883Y-10487D01*
X11884Y-10153D01*
X11884Y-15113D01*
X11756Y-14804D01*
X11520Y-14567D01*
X11211Y-14439D01*
X10876Y-14439D01*
X10567Y-14567D01*
X10331Y-14803D01*
X10202Y-15112D01*
X10202Y-15446D01*
X10330Y-15755D01*
X10566Y-15992D01*
X10875Y-16120D01*
X11209Y-16120D01*
X11518Y-15993D01*
X11755Y-15756D01*
X11883Y-15447D01*
X11884Y-15113D01*
X11884Y-17653D01*
X11756Y-17344D01*
X11520Y-17107D01*
X11211Y-16979D01*
X10876Y-16979D01*
X10567Y-17107D01*
X10331Y-17343D01*
X10202Y-17652D01*
X10202Y-17986D01*
X10330Y-18295D01*
X10566Y-18532D01*
X10875Y-18660D01*
X11209Y-18660D01*
X11518Y-18533D01*
X11755Y-18296D01*
X11883Y-17987D01*
X11884Y-17653D01*
X11884Y-22613D01*
X11756Y-22304D01*
X11520Y-22067D01*
X11211Y-21939D01*
X10876Y-21939D01*
X10567Y-22067D01*
X10331Y-22303D01*
X10202Y-22612D01*
X10202Y-22946D01*
X10330Y-23255D01*
X10566Y-23492D01*
X10875Y-23620D01*
X11209Y-23620D01*
X11518Y-23493D01*
X11755Y-23256D01*
X11883Y-22947D01*
X11884Y-22613D01*
X11884Y-24716D01*
X11761Y-25012D01*
X11760Y-25385D01*
X11903Y-25731D01*
X12167Y-25995D01*
X12512Y-26138D01*
X12885Y-26139D01*
X13231Y-25996D01*
X13495Y-25732D01*
X13638Y-25387D01*
X13639Y-25014D01*
X13639Y-29014D01*
X13496Y-28668D01*
X13232Y-28404D01*
X12887Y-28261D01*
X12514Y-28260D01*
X12168Y-28403D01*
X11904Y-28667D01*
X11761Y-29012D01*
X11760Y-29385D01*
X11903Y-29731D01*
X12167Y-29995D01*
X12512Y-30138D01*
X12885Y-30139D01*
X13231Y-29996D01*
X13495Y-29732D01*
X13638Y-29387D01*
X13639Y-29014D01*
X13639Y-31414D01*
X13496Y-31068D01*
X13232Y-30804D01*
X12887Y-30661D01*
X12514Y-30660D01*
X12168Y-30803D01*
X11904Y-31067D01*
X11761Y-31412D01*
X11760Y-31785D01*
X11903Y-32131D01*
X12167Y-32395D01*
X12512Y-32538D01*
X12885Y-32539D01*
X13231Y-32396D01*
X13495Y-32132D01*
X13638Y-31787D01*
X13639Y-31414D01*
X13639Y-35414D01*
X13496Y-35068D01*
X13232Y-34804D01*
X12887Y-34661D01*
X12514Y-34660D01*
X12168Y-34803D01*
X11904Y-35067D01*
X11761Y-35412D01*
X11760Y-35785D01*
X11903Y-36131D01*
X12037Y-36265D01*
X10025Y-36265D01*
X10025Y-8225D01*
X16967Y-8225D01*
X16861Y-8296D01*
X16741Y-8474D01*
X16700Y-8685D01*
X16700Y-9114D01*
X16741Y-9325D01*
X16861Y-9503D01*
X17039Y-9622D01*
X17250Y-9664D01*
X17460Y-9622D01*
X17638Y-9503D01*
X17750Y-9337D01*
X17861Y-9503D01*
X18039Y-9622D01*
X18250Y-9664D01*
X18460Y-9622D01*
X18638Y-9503D01*
X18750Y-9337D01*
X18861Y-9503D01*
X19039Y-9622D01*
X19250Y-9664D01*
X19460Y-9622D01*
X19638Y-9503D01*
X19753Y-9331D01*
X19761Y-9356D01*
X19896Y-9524D01*
X20085Y-9627D01*
X20114Y-9633D01*
X20200Y-9584D01*
X20200Y-8950D01*
X20192Y-8950D01*
X20192Y-8850D01*
X20200Y-8850D01*
X20200Y-8842D01*
X20300Y-8842D01*
X20300Y-8850D01*
X20307Y-8850D01*
X20307Y-8950D01*
X20300Y-8950D01*
X20300Y-9584D01*
X20385Y-9633D01*
X20414Y-9627D01*
X20603Y-9524D01*
X20738Y-9356D01*
X20746Y-9331D01*
X20861Y-9503D01*
X21039Y-9622D01*
X21250Y-9664D01*
X21460Y-9622D01*
X21638Y-9503D01*
X21750Y-9337D01*
X21861Y-9503D01*
X22039Y-9622D01*
X22250Y-9664D01*
X22460Y-9622D01*
X22638Y-9503D01*
X22750Y-9337D01*
X22861Y-9503D01*
X23039Y-9622D01*
X23250Y-9664D01*
X23460Y-9622D01*
X23638Y-9503D01*
X23750Y-9337D01*
X23861Y-9503D01*
X24039Y-9622D01*
X24250Y-9664D01*
X24460Y-9622D01*
X24638Y-9503D01*
X24750Y-9337D01*
X24861Y-9503D01*
X25039Y-9622D01*
X25250Y-9664D01*
X25460Y-9622D01*
X25638Y-9503D01*
X25750Y-9337D01*
X25861Y-9503D01*
X26039Y-9622D01*
X26250Y-9664D01*
X26460Y-9622D01*
X26638Y-9503D01*
X26758Y-9325D01*
X26800Y-9114D01*
X26800Y-8685D01*
X26758Y-8474D01*
X26638Y-8296D01*
X26532Y-8225D01*
X27567Y-8225D01*
X27461Y-8296D01*
X27341Y-8474D01*
X27300Y-8685D01*
X27300Y-9114D01*
X27341Y-9325D01*
X27461Y-9503D01*
X27639Y-9622D01*
X27850Y-9664D01*
X28060Y-9622D01*
X28238Y-9503D01*
X28350Y-9337D01*
X28461Y-9503D01*
X28639Y-9622D01*
X28850Y-9664D01*
X29060Y-9622D01*
X29238Y-9503D01*
X29350Y-9337D01*
X29461Y-9503D01*
X29639Y-9622D01*
X29850Y-9664D01*
X30060Y-9622D01*
X30238Y-9503D01*
X30350Y-9337D01*
X30461Y-9503D01*
X30639Y-9622D01*
X30850Y-9664D01*
X31060Y-9622D01*
X31238Y-9503D01*
X31350Y-9337D01*
X31461Y-9503D01*
X31639Y-9622D01*
X31850Y-9664D01*
X32060Y-9622D01*
X32238Y-9503D01*
X32350Y-9337D01*
X32461Y-9503D01*
X32639Y-9622D01*
X32850Y-9664D01*
X33060Y-9622D01*
X33238Y-9503D01*
X33350Y-9337D01*
X33461Y-9503D01*
X33639Y-9622D01*
X33850Y-9664D01*
X34060Y-9622D01*
X34238Y-9503D01*
X34350Y-9337D01*
X34461Y-9503D01*
X34639Y-9622D01*
X34850Y-9664D01*
X35060Y-9622D01*
X35238Y-9503D01*
X35358Y-9325D01*
X35400Y-9114D01*
X35400Y-8685D01*
X35358Y-8474D01*
X35238Y-8296D01*
X35132Y-8225D01*
X36567Y-8225D01*
X36461Y-8296D01*
X36341Y-8474D01*
X36300Y-8685D01*
X36300Y-9114D01*
X36341Y-9325D01*
X36461Y-9503D01*
X36639Y-9622D01*
X36850Y-9664D01*
X37060Y-9622D01*
X37238Y-9503D01*
X37350Y-9337D01*
X37461Y-9503D01*
X37639Y-9622D01*
X37850Y-9664D01*
X38060Y-9622D01*
X38238Y-9503D01*
X38350Y-9337D01*
X38461Y-9503D01*
X38639Y-9622D01*
X38850Y-9664D01*
X39060Y-9622D01*
X39238Y-9503D01*
X39350Y-9337D01*
X39461Y-9503D01*
X39639Y-9622D01*
X39850Y-9664D01*
X40060Y-9622D01*
X40238Y-9503D01*
X40350Y-9337D01*
X40461Y-9503D01*
X40639Y-9622D01*
X40850Y-9664D01*
X41060Y-9622D01*
X41238Y-9503D01*
X41350Y-9337D01*
X41461Y-9503D01*
X41639Y-9622D01*
X41850Y-9664D01*
X42060Y-9622D01*
X42238Y-9503D01*
X42350Y-9337D01*
X42461Y-9503D01*
X42639Y-9622D01*
X42850Y-9664D01*
X43060Y-9622D01*
X43113Y-9587D01*
X43700Y-10174D01*
X43700Y-11824D01*
X43631Y-11756D01*
X43539Y-11718D01*
X43440Y-11717D01*
X43060Y-11717D01*
X41202Y-9859D01*
X41082Y-9779D01*
X40942Y-9751D01*
X17432Y-9751D01*
X16824Y-9751D01*
X16794Y-9678D01*
X16723Y-9608D01*
X16631Y-9570D01*
X16532Y-9569D01*
X15532Y-9569D01*
X15440Y-9607D01*
X15370Y-9678D01*
X15332Y-9770D01*
X15331Y-9869D01*
X15331Y-10549D01*
X14829Y-11051D01*
X14749Y-11171D01*
X14721Y-11312D01*
X14721Y-16110D01*
X14749Y-16250D01*
X14829Y-16370D01*
X15530Y-17070D01*
X15440Y-17107D01*
X15370Y-17178D01*
X15332Y-17270D01*
X15331Y-17369D01*
X15331Y-18369D01*
X15369Y-18461D01*
X15440Y-18531D01*
X15532Y-18569D01*
X15631Y-18570D01*
X16631Y-18570D01*
X16723Y-18532D01*
X16793Y-18461D01*
X16831Y-18369D01*
X16832Y-18270D01*
X16832Y-17270D01*
X16794Y-17178D01*
X16723Y-17108D01*
X16631Y-17070D01*
X16532Y-17069D01*
X16443Y-17069D01*
X16422Y-16961D01*
X16342Y-16841D01*
X16342Y-16841D01*
X15529Y-16028D01*
X15532Y-16029D01*
X15631Y-16030D01*
X16631Y-16030D01*
X16723Y-15992D01*
X16793Y-15921D01*
X16831Y-15829D01*
X16832Y-15730D01*
X16832Y-15598D01*
X18456Y-15598D01*
X18456Y-19884D01*
X16832Y-21509D01*
X16832Y-20576D01*
X16832Y-19924D01*
X16832Y-18924D01*
X16794Y-18832D01*
X16723Y-18762D01*
X16631Y-18724D01*
X16532Y-18723D01*
X15532Y-18723D01*
X15440Y-18761D01*
X15370Y-18832D01*
X15332Y-18924D01*
X15331Y-19023D01*
X15331Y-20023D01*
X15369Y-20115D01*
X15440Y-20185D01*
X15532Y-20223D01*
X15631Y-20224D01*
X16631Y-20224D01*
X16723Y-20186D01*
X16793Y-20115D01*
X16831Y-20023D01*
X16832Y-19924D01*
X16832Y-20576D01*
X16794Y-20484D01*
X16723Y-20414D01*
X16631Y-20376D01*
X16532Y-20375D01*
X15532Y-20375D01*
X15440Y-20413D01*
X15370Y-20484D01*
X15332Y-20576D01*
X15331Y-20675D01*
X15331Y-21362D01*
X14829Y-21864D01*
X14749Y-21984D01*
X14721Y-22125D01*
X14721Y-25719D01*
X14749Y-25860D01*
X14829Y-25980D01*
X17928Y-29079D01*
X17928Y-29079D01*
X18048Y-29158D01*
X18188Y-29187D01*
X22253Y-29187D01*
X22220Y-29268D01*
X22219Y-29367D01*
X22219Y-30367D01*
X22257Y-30459D01*
X22328Y-30529D01*
X22420Y-30567D01*
X22519Y-30568D01*
X23199Y-30568D01*
X23641Y-31010D01*
X23641Y-31010D01*
X23761Y-31090D01*
X23902Y-31118D01*
X28400Y-31118D01*
X28540Y-31090D01*
X28660Y-31010D01*
X29360Y-30310D01*
X29360Y-30310D01*
X29360Y-30310D01*
X29440Y-30190D01*
X29468Y-30050D01*
X29468Y-30050D01*
X29468Y-30050D01*
X29468Y-28508D01*
X29639Y-28622D01*
X29850Y-28664D01*
X30060Y-28622D01*
X30238Y-28503D01*
X30350Y-28337D01*
X30461Y-28503D01*
X30639Y-28622D01*
X30850Y-28664D01*
X31060Y-28622D01*
X31238Y-28503D01*
X31350Y-28337D01*
X31461Y-28503D01*
X31550Y-28563D01*
X31550Y-31250D01*
X31572Y-31364D01*
X31637Y-31462D01*
X32899Y-32724D01*
X32899Y-32758D01*
X32983Y-32961D01*
X33138Y-33115D01*
X33340Y-33199D01*
X33558Y-33200D01*
X33761Y-33116D01*
X33915Y-32961D01*
X33949Y-32880D01*
X33983Y-32961D01*
X34138Y-33115D01*
X34340Y-33199D01*
X34558Y-33200D01*
X34761Y-33116D01*
X34915Y-32961D01*
X34949Y-32880D01*
X34983Y-32961D01*
X35138Y-33115D01*
X35340Y-33199D01*
X35558Y-33200D01*
X35761Y-33116D01*
X35915Y-32961D01*
X35949Y-32880D01*
X35983Y-32961D01*
X36138Y-33115D01*
X36340Y-33199D01*
X36558Y-33200D01*
X36761Y-33116D01*
X36915Y-32961D01*
X36949Y-32880D01*
X36983Y-32961D01*
X37138Y-33115D01*
X37340Y-33199D01*
X37558Y-33200D01*
X37761Y-33116D01*
X37915Y-32961D01*
X37999Y-32759D01*
X38000Y-32541D01*
X37916Y-32338D01*
X37777Y-32200D01*
X37799Y-32200D01*
X37891Y-32162D01*
X37961Y-32091D01*
X37999Y-31999D01*
X38000Y-31900D01*
X38000Y-31300D01*
X37962Y-31208D01*
X37891Y-31138D01*
X37799Y-31100D01*
X37700Y-31099D01*
X37100Y-31099D01*
X37008Y-31137D01*
X36938Y-31208D01*
X36900Y-31300D01*
X36899Y-31353D01*
X36835Y-31334D01*
X36520Y-31650D01*
X36835Y-31965D01*
X36899Y-31946D01*
X36899Y-31999D01*
X36937Y-32091D01*
X37008Y-32161D01*
X37100Y-32199D01*
X37122Y-32199D01*
X36984Y-32338D01*
X36950Y-32419D01*
X36916Y-32338D01*
X36761Y-32184D01*
X36686Y-32152D01*
X36737Y-32131D01*
X36765Y-32035D01*
X36450Y-31720D01*
X36134Y-32035D01*
X36162Y-32131D01*
X36217Y-32150D01*
X36138Y-32183D01*
X35984Y-32338D01*
X35950Y-32419D01*
X35916Y-32338D01*
X35761Y-32184D01*
X35680Y-32150D01*
X35761Y-32116D01*
X35915Y-31961D01*
X35947Y-31886D01*
X35968Y-31937D01*
X36064Y-31965D01*
X36379Y-31650D01*
X36373Y-31644D01*
X36444Y-31573D01*
X36450Y-31579D01*
X36765Y-31264D01*
X36737Y-31168D01*
X36531Y-31095D01*
X36313Y-31106D01*
X36162Y-31168D01*
X36150Y-31211D01*
X36150Y-29718D01*
X36165Y-29724D01*
X36334Y-29725D01*
X36472Y-29668D01*
X37349Y-29668D01*
X37490Y-29640D01*
X37610Y-29560D01*
X38185Y-28985D01*
X38185Y-28985D01*
X38185Y-28985D01*
X38265Y-28865D01*
X38293Y-28724D01*
X38293Y-28724D01*
X38293Y-28724D01*
X38293Y-27885D01*
X38293Y-27544D01*
X38336Y-27500D01*
X38300Y-27685D01*
X38300Y-28114D01*
X38341Y-28325D01*
X38461Y-28503D01*
X38639Y-28622D01*
X38850Y-28664D01*
X39060Y-28622D01*
X39238Y-28503D01*
X39350Y-28337D01*
X39461Y-28503D01*
X39639Y-28622D01*
X39850Y-28664D01*
X40060Y-28622D01*
X40238Y-28503D01*
X40350Y-28337D01*
X40461Y-28503D01*
X40639Y-28622D01*
X40850Y-28664D01*
X41060Y-28622D01*
X41238Y-28503D01*
X41350Y-28337D01*
X41461Y-28503D01*
X41639Y-28622D01*
X41850Y-28664D01*
X42060Y-28622D01*
X42238Y-28503D01*
X42350Y-28337D01*
X42461Y-28503D01*
X42639Y-28622D01*
X42850Y-28664D01*
X43060Y-28622D01*
X43238Y-28503D01*
X43350Y-28337D01*
X43461Y-28503D01*
X43639Y-28622D01*
X43850Y-28664D01*
X44060Y-28622D01*
X44238Y-28503D01*
X44350Y-28337D01*
X44461Y-28503D01*
X44639Y-28622D01*
X44850Y-28664D01*
X45060Y-28622D01*
X45238Y-28503D01*
X45350Y-28337D01*
X45461Y-28503D01*
X45639Y-28622D01*
X45850Y-28664D01*
X46060Y-28622D01*
X46238Y-28503D01*
X46358Y-28325D01*
X46400Y-28114D01*
X46400Y-27685D01*
X46358Y-27474D01*
X46238Y-27296D01*
X46060Y-27177D01*
X45850Y-27135D01*
X45639Y-27177D01*
X45461Y-27296D01*
X45350Y-27462D01*
X45238Y-27296D01*
X45060Y-27177D01*
X44850Y-27135D01*
X44639Y-27177D01*
X44461Y-27296D01*
X44350Y-27462D01*
X44238Y-27296D01*
X44060Y-27177D01*
X43850Y-27135D01*
X43639Y-27177D01*
X43461Y-27296D01*
X43350Y-27462D01*
X43238Y-27296D01*
X43060Y-27177D01*
X42850Y-27135D01*
X42639Y-27177D01*
X42461Y-27296D01*
X42350Y-27462D01*
X42238Y-27296D01*
X42060Y-27177D01*
X41850Y-27135D01*
X41639Y-27177D01*
X41461Y-27296D01*
X41350Y-27462D01*
X41238Y-27296D01*
X41060Y-27177D01*
X40850Y-27135D01*
X40639Y-27177D01*
X40461Y-27296D01*
X40350Y-27462D01*
X40238Y-27296D01*
X40060Y-27177D01*
X39850Y-27135D01*
X39639Y-27177D01*
X39461Y-27296D01*
X39350Y-27462D01*
X39238Y-27296D01*
X39060Y-27177D01*
X38850Y-27135D01*
X38639Y-27177D01*
X38461Y-27296D01*
X38441Y-27325D01*
X38456Y-27289D01*
X38456Y-27120D01*
X38392Y-26964D01*
X38272Y-26844D01*
X38116Y-26779D01*
X37947Y-26779D01*
X37809Y-26836D01*
X37632Y-26836D01*
X37232Y-26436D01*
X37287Y-26413D01*
X37407Y-26293D01*
X37464Y-26156D01*
X41450Y-22170D01*
X41450Y-22170D01*
X41450Y-22170D01*
X41530Y-22050D01*
X41558Y-21910D01*
X41558Y-17499D01*
X41608Y-17550D01*
X41765Y-17614D01*
X41850Y-17615D01*
X42852Y-18617D01*
X42852Y-21058D01*
X42792Y-21118D01*
X42727Y-21275D01*
X42727Y-21444D01*
X42792Y-21600D01*
X42852Y-21661D01*
X42852Y-22226D01*
X42789Y-22288D01*
X42725Y-22445D01*
X42724Y-22614D01*
X42789Y-22770D01*
X42908Y-22890D01*
X43065Y-22954D01*
X43234Y-22955D01*
X43390Y-22890D01*
X43510Y-22771D01*
X43534Y-22711D01*
X43534Y-22754D01*
X43599Y-22910D01*
X43718Y-23030D01*
X43875Y-23094D01*
X44044Y-23095D01*
X44200Y-23030D01*
X44320Y-22911D01*
X44384Y-22754D01*
X44385Y-22585D01*
X44320Y-22429D01*
X44201Y-22309D01*
X44044Y-22245D01*
X43961Y-22245D01*
X43961Y-17484D01*
X44084Y-17485D01*
X44240Y-17420D01*
X44360Y-17301D01*
X44421Y-17152D01*
X44654Y-16920D01*
X45098Y-16920D01*
X45158Y-16980D01*
X45315Y-17044D01*
X45484Y-17045D01*
X45640Y-16980D01*
X45760Y-16861D01*
X45824Y-16704D01*
X45825Y-16535D01*
X45760Y-16379D01*
X45641Y-16259D01*
X45484Y-16195D01*
X45315Y-16194D01*
X45159Y-16259D01*
X45098Y-16320D01*
X44530Y-16320D01*
X44415Y-16342D01*
X44317Y-16407D01*
X44300Y-16425D01*
X44300Y-14803D01*
X44514Y-15018D01*
X44823Y-15146D01*
X45157Y-15146D01*
X45466Y-15018D01*
X45703Y-14782D01*
X45831Y-14473D01*
X45831Y-14139D01*
X45703Y-13830D01*
X45467Y-13593D01*
X45158Y-13465D01*
X44824Y-13465D01*
X44515Y-13593D01*
X44300Y-13808D01*
X44300Y-10050D01*
X44299Y-10049D01*
X44277Y-9935D01*
X44212Y-9837D01*
X44212Y-9837D01*
X44007Y-9633D01*
X44060Y-9622D01*
X44238Y-9503D01*
X44358Y-9325D01*
X44377Y-9229D01*
X44480Y-9479D01*
X44768Y-9768D01*
X45145Y-9924D01*
X45552Y-9925D01*
X45929Y-9769D01*
X46218Y-9481D01*
X46357Y-9147D01*
X46383Y-9211D01*
X46538Y-9365D01*
X46619Y-9399D01*
X46538Y-9433D01*
X46384Y-9588D01*
X46300Y-9790D01*
X46299Y-10008D01*
X46383Y-10211D01*
X46538Y-10365D01*
X46619Y-10399D01*
X46538Y-10433D01*
X46384Y-10588D01*
X46300Y-10790D01*
X46299Y-11008D01*
X46383Y-11211D01*
X46538Y-11365D01*
X46619Y-11399D01*
X46538Y-11433D01*
X46384Y-11588D01*
X46300Y-11790D01*
X46299Y-12008D01*
X46383Y-12211D01*
X46538Y-12365D01*
X46619Y-12399D01*
X46538Y-12433D01*
X46384Y-12588D01*
X46300Y-12790D01*
X46299Y-13008D01*
X46383Y-13211D01*
X46538Y-13365D01*
X46619Y-13399D01*
X46538Y-13433D01*
X46384Y-13588D01*
X46300Y-13790D01*
X46299Y-14008D01*
X46383Y-14211D01*
X46538Y-14365D01*
X46619Y-14399D01*
X46538Y-14433D01*
X46384Y-14588D01*
X46300Y-14790D01*
X46299Y-15008D01*
X46383Y-15211D01*
X46538Y-15365D01*
X46619Y-15399D01*
X46538Y-15433D01*
X46384Y-15588D01*
X46300Y-15790D01*
X46299Y-16008D01*
X46383Y-16211D01*
X46538Y-16365D01*
X46619Y-16399D01*
X46538Y-16433D01*
X46384Y-16588D01*
X46300Y-16790D01*
X46299Y-17008D01*
X46383Y-17211D01*
X46538Y-17365D01*
X46619Y-17399D01*
X46538Y-17433D01*
X46384Y-17588D01*
X46300Y-17790D01*
X46299Y-18008D01*
X46383Y-18211D01*
X46538Y-18365D01*
X46619Y-18399D01*
X46538Y-18433D01*
X46384Y-18588D01*
X46300Y-18790D01*
X46299Y-19008D01*
X46383Y-19211D01*
X46538Y-19365D01*
X46619Y-19399D01*
X46538Y-19433D01*
X46384Y-19588D01*
X46300Y-19790D01*
X46299Y-20008D01*
X46383Y-20211D01*
X46538Y-20365D01*
X46619Y-20399D01*
X46538Y-20433D01*
X46384Y-20588D01*
X46300Y-20790D01*
X46299Y-21008D01*
X46383Y-21211D01*
X46538Y-21365D01*
X46619Y-21399D01*
X46538Y-21433D01*
X46384Y-21588D01*
X46300Y-21790D01*
X46299Y-22008D01*
X46383Y-22211D01*
X46538Y-22365D01*
X46619Y-22399D01*
X46538Y-22433D01*
X46384Y-22588D01*
X46300Y-22790D01*
X46299Y-23008D01*
X46383Y-23211D01*
X46538Y-23365D01*
X46619Y-23399D01*
X46538Y-23433D01*
X46384Y-23588D01*
X46300Y-23790D01*
X46299Y-24008D01*
X46383Y-24211D01*
X46538Y-24365D01*
X46619Y-24399D01*
X46538Y-24433D01*
X46384Y-24588D01*
X46300Y-24790D01*
X46299Y-25008D01*
X46383Y-25211D01*
X46538Y-25365D01*
X46613Y-25397D01*
X46562Y-25418D01*
X46534Y-25514D01*
X46850Y-25829D01*
X47165Y-25514D01*
X47137Y-25418D01*
X47082Y-25399D01*
X47161Y-25366D01*
X47315Y-25211D01*
X47349Y-25130D01*
X47383Y-25211D01*
X47538Y-25365D01*
X47613Y-25397D01*
X47562Y-25418D01*
X47534Y-25514D01*
X47850Y-25829D01*
X48165Y-25514D01*
X48137Y-25418D01*
X48082Y-25399D01*
X48161Y-25366D01*
X48315Y-25211D01*
X48399Y-25009D01*
X48400Y-24791D01*
X48316Y-24588D01*
X48161Y-24434D01*
X48080Y-24400D01*
X48161Y-24366D01*
X48315Y-24211D01*
X48399Y-24009D01*
X48400Y-23791D01*
X48316Y-23588D01*
X48161Y-23434D01*
X48080Y-23400D01*
X48161Y-23366D01*
X48315Y-23211D01*
X48399Y-23009D01*
X48400Y-22791D01*
X48316Y-22588D01*
X48161Y-22434D01*
X48080Y-22400D01*
X48161Y-22366D01*
X48315Y-22211D01*
X48399Y-22009D01*
X48400Y-21791D01*
X48316Y-21588D01*
X48161Y-21434D01*
X48080Y-21400D01*
X48161Y-21366D01*
X48315Y-21211D01*
X48399Y-21009D01*
X48400Y-20791D01*
X48316Y-20588D01*
X48161Y-20434D01*
X48080Y-20400D01*
X48161Y-20366D01*
X48315Y-20211D01*
X48399Y-20009D01*
X48400Y-19791D01*
X48316Y-19588D01*
X48161Y-19434D01*
X48080Y-19400D01*
X48161Y-19366D01*
X48315Y-19211D01*
X48399Y-19009D01*
X48400Y-18791D01*
X48316Y-18588D01*
X48161Y-18434D01*
X48080Y-18400D01*
X48161Y-18366D01*
X48315Y-18211D01*
X48399Y-18009D01*
X48400Y-17791D01*
X48316Y-17588D01*
X48161Y-17434D01*
X48080Y-17400D01*
X48161Y-17366D01*
X48315Y-17211D01*
X48399Y-17009D01*
X48400Y-16791D01*
X48316Y-16588D01*
X48161Y-16434D01*
X48080Y-16400D01*
X48161Y-16366D01*
X48315Y-16211D01*
X48399Y-16009D01*
X48400Y-15791D01*
X48316Y-15588D01*
X48161Y-15434D01*
X48080Y-15400D01*
X48161Y-15366D01*
X48315Y-15211D01*
X48399Y-15009D01*
X48400Y-14791D01*
X48316Y-14588D01*
X48161Y-14434D01*
X48080Y-14400D01*
X48161Y-14366D01*
X48315Y-14211D01*
X48399Y-14009D01*
X48400Y-13791D01*
X48316Y-13588D01*
X48161Y-13434D01*
X48080Y-13400D01*
X48161Y-13366D01*
X48315Y-13211D01*
X48399Y-13009D01*
X48400Y-12791D01*
X48316Y-12588D01*
X48161Y-12434D01*
X48080Y-12400D01*
X48161Y-12366D01*
X48315Y-12211D01*
X48399Y-12009D01*
X48400Y-11791D01*
X48316Y-11588D01*
X48161Y-11434D01*
X48080Y-11400D01*
X48161Y-11366D01*
X48315Y-11211D01*
X48399Y-11009D01*
X48400Y-10791D01*
X48316Y-10588D01*
X48161Y-10434D01*
X48080Y-10400D01*
X48161Y-10366D01*
X48315Y-10211D01*
X48399Y-10009D01*
X48400Y-9791D01*
X48316Y-9588D01*
X48161Y-9434D01*
X48080Y-9400D01*
X48161Y-9366D01*
X48315Y-9211D01*
X48399Y-9009D01*
X48400Y-8791D01*
X48316Y-8588D01*
X48161Y-8434D01*
X47959Y-8350D01*
X47741Y-8349D01*
X47538Y-8433D01*
X47384Y-8588D01*
X47350Y-8669D01*
X47316Y-8588D01*
X47161Y-8434D01*
X46959Y-8350D01*
X46741Y-8349D01*
X46538Y-8433D01*
X46384Y-8588D01*
X46357Y-8653D01*
X46219Y-8320D01*
X46124Y-8225D01*
X49125Y-8225D01*
X49125Y-36265D01*
M02*
