G04 (created by PCBNEW (2013-03-31 BZR 4008)-stable) date 29/05/2013 1:13:20 PM*
%MOIN*%
G04 Gerber Fmt 3.4, Leading zero omitted, Abs format*
%FSLAX34Y34*%
G01*
G70*
G90*
G04 APERTURE LIST*
%ADD10C,2.3622e-006*%
%ADD11C,0.16*%
%ADD12O,0.06X0.1*%
%ADD13C,0.155*%
%ADD14C,0.06*%
%ADD15C,0.12*%
%ADD16R,0.06X0.06*%
%ADD17C,0.11811*%
%ADD18R,0.07X0.07*%
%ADD19R,0.025X0.045*%
%ADD20R,0.08X0.06*%
%ADD21R,0.06X0.08*%
%ADD22R,0.0709X0.0629*%
%ADD23C,0.1378*%
%ADD24R,0.055X0.055*%
%ADD25C,0.055*%
%ADD26C,0.1181*%
%ADD27C,0.0944882*%
%ADD28C,0.0984252*%
%ADD29R,0.02X0.045*%
%ADD30C,0.035*%
%ADD31C,0.03*%
%ADD32C,0.01*%
G04 APERTURE END LIST*
G54D10*
G54D11*
X19525Y-30500D03*
G54D12*
X36850Y-8900D03*
X37850Y-8900D03*
X38850Y-8900D03*
X39850Y-8900D03*
X40850Y-8900D03*
X41850Y-8900D03*
X42850Y-8900D03*
X43850Y-8900D03*
X45850Y-27900D03*
X44850Y-27900D03*
X43850Y-27900D03*
X42850Y-27900D03*
X38850Y-27900D03*
X36850Y-27900D03*
X35850Y-27900D03*
X39850Y-27900D03*
X40850Y-27900D03*
X41850Y-27900D03*
X34850Y-27900D03*
X33850Y-27900D03*
X32850Y-27900D03*
X29850Y-27900D03*
X30850Y-27900D03*
X31850Y-27900D03*
X27850Y-27900D03*
X26850Y-27900D03*
X25850Y-27900D03*
X23850Y-27900D03*
X22850Y-27900D03*
X34850Y-8900D03*
X33850Y-8900D03*
X32850Y-8900D03*
X31850Y-8900D03*
X30850Y-8900D03*
X29850Y-8900D03*
X28850Y-8900D03*
X27850Y-8900D03*
X26250Y-8900D03*
X25250Y-8900D03*
X24250Y-8900D03*
X23250Y-8900D03*
X22250Y-8900D03*
X21250Y-8900D03*
X20250Y-8900D03*
X19250Y-8900D03*
X24850Y-27900D03*
G54D13*
X47850Y-27900D03*
X45350Y-8900D03*
G54D14*
X46850Y-9900D03*
X47850Y-9900D03*
X46850Y-10900D03*
X47850Y-10900D03*
X46850Y-11900D03*
X47850Y-11900D03*
X46850Y-12900D03*
X47850Y-12900D03*
X46850Y-8900D03*
X47850Y-8900D03*
X47850Y-13900D03*
X46850Y-13900D03*
X46850Y-14900D03*
X47850Y-14900D03*
X46850Y-15900D03*
X47850Y-15900D03*
X46850Y-16900D03*
X47850Y-16900D03*
X46850Y-17900D03*
X47850Y-17900D03*
X46850Y-18900D03*
X47850Y-18900D03*
X46850Y-19900D03*
X47850Y-19900D03*
X46850Y-20900D03*
X47850Y-20900D03*
X46850Y-21900D03*
X47850Y-21900D03*
X46850Y-22900D03*
X47850Y-22900D03*
X46850Y-23900D03*
X47850Y-23900D03*
X46850Y-24900D03*
X47850Y-24900D03*
X46850Y-25900D03*
X47850Y-25900D03*
G54D15*
X31150Y-32350D03*
X39750Y-32350D03*
G54D16*
X37450Y-31650D03*
G54D14*
X37450Y-32650D03*
X36450Y-31650D03*
X36450Y-32650D03*
X35450Y-31650D03*
X35450Y-32650D03*
X34450Y-31650D03*
X34450Y-32650D03*
X33450Y-31650D03*
X33450Y-32650D03*
G54D17*
X22970Y-34856D03*
G54D18*
X22970Y-29818D03*
X24624Y-29818D03*
X26276Y-29818D03*
X27930Y-29818D03*
X22970Y-31982D03*
X24624Y-31982D03*
X26276Y-31982D03*
X27930Y-31982D03*
G54D17*
X27930Y-34856D03*
G54D19*
X28150Y-21750D03*
X28750Y-21750D03*
G54D20*
X24200Y-11500D03*
X24200Y-12800D03*
G54D21*
X42800Y-30900D03*
X44100Y-30900D03*
X25050Y-23650D03*
X23750Y-23650D03*
X23750Y-22650D03*
X25050Y-22650D03*
G54D20*
X25200Y-11500D03*
X25200Y-12800D03*
G54D21*
X23750Y-25650D03*
X25050Y-25650D03*
X23750Y-24650D03*
X25050Y-24650D03*
G54D20*
X26200Y-11500D03*
X26200Y-12800D03*
G54D21*
X23750Y-20400D03*
X25050Y-20400D03*
G54D20*
X37700Y-15750D03*
X37700Y-17050D03*
G54D21*
X42800Y-29750D03*
X44100Y-29750D03*
X23750Y-18400D03*
X25050Y-18400D03*
G54D20*
X22200Y-11500D03*
X22200Y-12800D03*
G54D21*
X23750Y-16150D03*
X25050Y-16150D03*
G54D20*
X17975Y-29475D03*
X17975Y-30775D03*
G54D21*
X42800Y-33200D03*
X44100Y-33200D03*
G54D22*
X37700Y-18091D03*
X37700Y-19209D03*
G54D20*
X29950Y-24300D03*
X29950Y-23000D03*
X30950Y-24300D03*
X30950Y-23000D03*
G54D21*
X17050Y-27150D03*
X18350Y-27150D03*
G54D19*
X30000Y-15900D03*
X29400Y-15900D03*
G54D23*
X12700Y-31150D03*
X12700Y-35150D03*
G54D14*
X14700Y-34150D03*
X14700Y-33150D03*
G54D23*
X12700Y-24650D03*
X12700Y-28650D03*
G54D14*
X14700Y-27650D03*
X14700Y-26650D03*
G54D22*
X36200Y-18091D03*
X36200Y-19209D03*
G54D24*
X45200Y-30900D03*
G54D25*
X46200Y-30900D03*
X46200Y-29900D03*
G54D24*
X45200Y-34400D03*
G54D25*
X46200Y-34400D03*
X46200Y-33400D03*
G54D18*
X28260Y-12318D03*
X29913Y-12318D03*
X31567Y-12318D03*
X33220Y-12318D03*
X34874Y-12318D03*
X36526Y-12318D03*
X38180Y-12318D03*
X39833Y-12318D03*
X41487Y-12318D03*
X43140Y-12318D03*
X28260Y-14482D03*
X29913Y-14482D03*
X31567Y-14482D03*
X33220Y-14482D03*
X34874Y-14482D03*
X36526Y-14482D03*
X38180Y-14482D03*
X39833Y-14482D03*
X41487Y-14482D03*
X43140Y-14482D03*
G54D26*
X26409Y-14306D03*
X44991Y-14306D03*
G54D27*
X18450Y-33800D03*
G54D28*
X17450Y-32800D03*
X19450Y-32800D03*
X19450Y-34800D03*
X17450Y-34800D03*
G54D17*
X12243Y-9670D03*
G54D18*
X17282Y-9670D03*
X17282Y-11324D03*
X17282Y-12976D03*
X17282Y-14630D03*
X15118Y-9670D03*
X15118Y-11324D03*
X15118Y-12976D03*
X15118Y-14630D03*
G54D17*
X12243Y-14630D03*
X12243Y-17170D03*
G54D18*
X17282Y-17170D03*
X17282Y-18824D03*
X17282Y-20476D03*
X17282Y-22130D03*
X15118Y-17170D03*
X15118Y-18824D03*
X15118Y-20476D03*
X15118Y-22130D03*
G54D17*
X12243Y-22130D03*
G54D20*
X36200Y-15750D03*
X36200Y-17050D03*
G54D29*
X26150Y-21000D03*
X26650Y-21000D03*
X27150Y-21000D03*
X27650Y-21000D03*
X28150Y-21000D03*
X28650Y-21000D03*
X29150Y-21000D03*
X29150Y-18900D03*
X28650Y-18900D03*
X28150Y-18900D03*
X27650Y-18900D03*
X27150Y-18900D03*
X26650Y-18900D03*
X26150Y-18900D03*
G54D20*
X19650Y-14150D03*
X19650Y-15150D03*
X19650Y-16150D03*
X19650Y-17150D03*
X22650Y-17150D03*
X22650Y-16150D03*
X22650Y-15150D03*
X22650Y-14150D03*
X19650Y-18400D03*
X19650Y-19400D03*
X19650Y-20400D03*
X19650Y-21400D03*
X22650Y-21400D03*
X22650Y-20400D03*
X22650Y-19400D03*
X22650Y-18400D03*
X19650Y-22650D03*
X19650Y-23650D03*
X19650Y-24650D03*
X19650Y-25650D03*
X22650Y-25650D03*
X22650Y-24650D03*
X22650Y-23650D03*
X22650Y-22650D03*
X23200Y-11500D03*
X23200Y-12800D03*
G54D21*
X30350Y-17900D03*
X29050Y-17900D03*
X29050Y-16900D03*
X30350Y-16900D03*
X25050Y-21400D03*
X23750Y-21400D03*
G54D20*
X21200Y-11500D03*
X21200Y-12800D03*
G54D21*
X23750Y-14150D03*
X25050Y-14150D03*
X42800Y-34400D03*
X44100Y-34400D03*
G54D20*
X19950Y-28550D03*
X19950Y-27250D03*
X21200Y-28550D03*
X21200Y-27250D03*
G54D21*
X27200Y-22350D03*
X25900Y-22350D03*
G54D20*
X30350Y-21000D03*
X30350Y-19700D03*
X26650Y-17800D03*
X26650Y-16500D03*
G54D11*
X19525Y-11350D03*
G54D16*
X32950Y-23350D03*
G54D14*
X33950Y-23350D03*
X34950Y-23350D03*
G54D16*
X32950Y-25625D03*
G54D14*
X33950Y-25625D03*
X34950Y-25625D03*
G54D30*
X29400Y-28950D03*
X37350Y-25750D03*
X36250Y-29300D03*
X29875Y-25700D03*
X27700Y-21650D03*
X28200Y-25150D03*
X38875Y-25600D03*
X14100Y-17150D03*
X29575Y-26200D03*
X41000Y-33150D03*
X25400Y-19400D03*
X27450Y-26100D03*
X30850Y-26200D03*
X33500Y-10650D03*
X38800Y-29850D03*
X39900Y-30300D03*
X29050Y-24300D03*
X29850Y-22000D03*
X28750Y-22350D03*
X30350Y-26250D03*
X26850Y-26250D03*
X25800Y-23150D03*
X31850Y-26200D03*
X28900Y-20300D03*
X28200Y-22500D03*
X23800Y-26500D03*
X25800Y-24250D03*
X24650Y-17150D03*
X25450Y-17100D03*
X24400Y-23700D03*
X25800Y-23700D03*
X20500Y-22650D03*
X25200Y-13450D03*
X20500Y-24650D03*
X25700Y-13550D03*
X20400Y-20350D03*
X24200Y-13450D03*
G54D31*
X17282Y-9670D02*
X17230Y-9670D01*
X16200Y-16088D02*
X17282Y-17170D01*
X16200Y-10700D02*
X16200Y-16088D01*
X17230Y-9670D02*
X16200Y-10700D01*
X28700Y-28250D02*
X29400Y-28950D01*
X28700Y-27600D02*
X28700Y-28250D01*
X37350Y-25750D02*
X36200Y-26900D01*
X29400Y-26900D02*
X36200Y-26900D01*
X29400Y-26900D02*
X28700Y-27600D01*
G54D32*
X42800Y-34400D02*
X34500Y-34400D01*
X32950Y-32150D02*
X33450Y-31650D01*
X32950Y-32850D02*
X32950Y-32150D01*
X34500Y-34400D02*
X32950Y-32850D01*
X46200Y-34400D02*
X46200Y-34525D01*
X43525Y-35125D02*
X42800Y-34400D01*
X45600Y-35125D02*
X43525Y-35125D01*
X46200Y-34525D02*
X45600Y-35125D01*
X42800Y-30900D02*
X42800Y-31250D01*
X45575Y-31525D02*
X46200Y-30900D01*
X43075Y-31525D02*
X45575Y-31525D01*
X42800Y-31250D02*
X43075Y-31525D01*
G54D31*
X29075Y-29600D02*
X28375Y-28900D01*
X28375Y-28900D02*
X27194Y-28900D01*
X26276Y-29818D02*
X27194Y-28900D01*
X35950Y-29600D02*
X29075Y-29600D01*
X36250Y-29300D02*
X35950Y-29600D01*
X28260Y-12318D02*
X28260Y-14482D01*
G54D32*
X23900Y-27475D02*
X24700Y-26675D01*
X24700Y-26675D02*
X28250Y-26675D01*
X28250Y-26675D02*
X29225Y-25700D01*
X29225Y-25700D02*
X29875Y-25700D01*
X23900Y-27900D02*
X23900Y-27475D01*
X37450Y-32650D02*
X37750Y-32650D01*
X37750Y-32650D02*
X39025Y-31375D01*
X39025Y-31375D02*
X42000Y-31375D01*
X33950Y-25625D02*
X33950Y-25600D01*
X33950Y-25600D02*
X31750Y-23400D01*
X31750Y-23000D02*
X31750Y-23400D01*
X42800Y-29750D02*
X42950Y-29750D01*
X45600Y-29050D02*
X43650Y-29050D01*
X46399Y-28250D02*
X45600Y-29050D01*
X46399Y-27249D02*
X46399Y-28250D01*
X46050Y-26900D02*
X46399Y-27249D01*
X39250Y-26900D02*
X46050Y-26900D01*
X42950Y-29750D02*
X43650Y-29050D01*
X42800Y-29750D02*
X42700Y-29750D01*
X42600Y-33200D02*
X42000Y-32600D01*
X42000Y-30450D02*
X42000Y-31375D01*
X42000Y-31375D02*
X42000Y-32600D01*
X42600Y-33200D02*
X42800Y-33200D01*
X42700Y-29750D02*
X42000Y-30450D01*
X42550Y-29900D02*
X42800Y-29900D01*
X30350Y-17900D02*
X30950Y-17900D01*
X30950Y-17900D02*
X31750Y-18700D01*
X31750Y-18700D02*
X31750Y-23000D01*
X27700Y-21650D02*
X28050Y-21650D01*
X28050Y-21650D02*
X28150Y-21750D01*
X30950Y-23000D02*
X31750Y-23000D01*
X29950Y-23000D02*
X30950Y-23000D01*
X29950Y-23000D02*
X29600Y-23000D01*
X27650Y-21600D02*
X27650Y-21000D01*
X27700Y-21650D02*
X27650Y-21600D01*
X29600Y-23000D02*
X28200Y-24400D01*
X37700Y-15750D02*
X37700Y-16100D01*
X31750Y-16500D02*
X30350Y-17900D01*
X37300Y-16500D02*
X31750Y-16500D01*
X37700Y-16100D02*
X37300Y-16500D01*
X28200Y-24400D02*
X28200Y-25150D01*
G54D31*
X38875Y-25600D02*
X38875Y-25800D01*
X25756Y-30950D02*
X24624Y-29818D01*
X28675Y-30950D02*
X25756Y-30950D01*
X29350Y-30275D02*
X28675Y-30950D01*
X36175Y-30275D02*
X29350Y-30275D01*
X37925Y-28525D02*
X36175Y-30275D01*
X37925Y-26750D02*
X37925Y-28525D01*
X38875Y-25800D02*
X37925Y-26750D01*
X35575Y-25000D02*
X34950Y-25625D01*
X38275Y-25000D02*
X35575Y-25000D01*
X38875Y-25600D02*
X38275Y-25000D01*
X10950Y-31650D02*
X10950Y-20300D01*
X24624Y-29826D02*
X23550Y-30900D01*
X23550Y-30900D02*
X22450Y-30900D01*
X22450Y-30900D02*
X21200Y-32150D01*
X21200Y-32150D02*
X21200Y-34450D01*
X21200Y-34450D02*
X19800Y-35850D01*
X19800Y-35850D02*
X15150Y-35850D01*
X10950Y-20300D02*
X14100Y-17150D01*
X24624Y-29818D02*
X24624Y-29826D01*
X10950Y-31650D02*
X15150Y-35850D01*
X36200Y-15750D02*
X36200Y-15500D01*
X35700Y-13144D02*
X36526Y-12318D01*
X35700Y-15000D02*
X35700Y-13144D01*
X36200Y-15500D02*
X35700Y-15000D01*
X16458Y-18000D02*
X17282Y-18824D01*
X14600Y-18000D02*
X16458Y-18000D01*
X14100Y-17500D02*
X14600Y-18000D01*
X14100Y-17150D02*
X14100Y-17500D01*
X36526Y-12318D02*
X36526Y-12074D01*
X43950Y-13672D02*
X43140Y-14482D01*
X43950Y-11650D02*
X43950Y-13672D01*
X43700Y-11400D02*
X43950Y-11650D01*
X37200Y-11400D02*
X43700Y-11400D01*
X36526Y-12074D02*
X37200Y-11400D01*
X43140Y-14482D02*
X41487Y-14482D01*
X33220Y-12318D02*
X33220Y-12130D01*
X35358Y-11150D02*
X36526Y-12318D01*
X34200Y-11150D02*
X35358Y-11150D01*
X33220Y-12130D02*
X34200Y-11150D01*
G54D32*
X24900Y-27900D02*
X24900Y-27675D01*
X28600Y-26900D02*
X29300Y-26200D01*
X25675Y-26900D02*
X28600Y-26900D01*
X24900Y-27675D02*
X25675Y-26900D01*
X29300Y-26200D02*
X29575Y-26200D01*
X44100Y-34400D02*
X45200Y-34400D01*
X34650Y-33850D02*
X33450Y-32650D01*
X40300Y-33850D02*
X34650Y-33850D01*
X41000Y-33150D02*
X40300Y-33850D01*
X44100Y-30900D02*
X45200Y-30900D01*
X24250Y-11450D02*
X24200Y-11500D01*
X24250Y-8900D02*
X24250Y-11450D01*
X23250Y-11450D02*
X23200Y-11500D01*
X23250Y-8900D02*
X23250Y-11450D01*
X22250Y-11450D02*
X22200Y-11500D01*
X22250Y-8900D02*
X22250Y-11450D01*
X21250Y-8900D02*
X21250Y-11450D01*
X21250Y-11450D02*
X21200Y-11500D01*
X26250Y-8900D02*
X26250Y-11450D01*
X26250Y-11450D02*
X26200Y-11500D01*
X25250Y-8900D02*
X25250Y-11450D01*
X25250Y-11450D02*
X25200Y-11500D01*
X25400Y-19400D02*
X25050Y-19400D01*
X25050Y-16150D02*
X26300Y-16150D01*
X26300Y-16150D02*
X26650Y-16500D01*
X25050Y-16150D02*
X25050Y-18400D01*
X25050Y-14150D02*
X25050Y-16150D01*
X25050Y-20400D02*
X25050Y-21400D01*
X25050Y-18400D02*
X25050Y-19400D01*
X25050Y-19400D02*
X25050Y-20400D01*
X26150Y-18900D02*
X25550Y-18900D01*
X25550Y-18900D02*
X25050Y-18400D01*
X27450Y-26100D02*
X28125Y-26100D01*
X30850Y-25600D02*
X30850Y-26200D01*
X30375Y-25125D02*
X30850Y-25600D01*
X29100Y-25125D02*
X30375Y-25125D01*
X28125Y-26100D02*
X29100Y-25125D01*
X38800Y-29850D02*
X39450Y-29850D01*
X39450Y-29850D02*
X39900Y-30300D01*
X28750Y-21750D02*
X28750Y-22350D01*
X29050Y-24300D02*
X29950Y-24300D01*
X30950Y-24300D02*
X29950Y-24300D01*
X26850Y-26250D02*
X27075Y-26250D01*
X30350Y-25675D02*
X30350Y-26250D01*
X30025Y-25350D02*
X30350Y-25675D01*
X29200Y-25350D02*
X30025Y-25350D01*
X28100Y-26450D02*
X29200Y-25350D01*
X27275Y-26450D02*
X28100Y-26450D01*
X27075Y-26250D02*
X27275Y-26450D01*
X25800Y-23150D02*
X25900Y-23050D01*
X25900Y-22350D02*
X25900Y-23050D01*
X26150Y-21000D02*
X26150Y-22100D01*
X26150Y-22100D02*
X25900Y-22350D01*
X25050Y-22650D02*
X25600Y-22650D01*
X25600Y-22650D02*
X25900Y-22350D01*
X25050Y-22650D02*
X25050Y-23650D01*
X31850Y-25625D02*
X31850Y-26200D01*
X31125Y-24900D02*
X31850Y-25625D01*
X28975Y-24900D02*
X31125Y-24900D01*
X28225Y-25650D02*
X28975Y-24900D01*
X25050Y-25650D02*
X28225Y-25650D01*
X29150Y-21000D02*
X30350Y-21000D01*
X25050Y-24650D02*
X27150Y-24650D01*
X29150Y-22650D02*
X29150Y-21000D01*
X27150Y-24650D02*
X29150Y-22650D01*
X25050Y-24650D02*
X25050Y-25650D01*
X19950Y-28550D02*
X18900Y-28550D01*
X18900Y-28550D02*
X17975Y-29475D01*
X14700Y-26650D02*
X16550Y-26650D01*
X16550Y-26650D02*
X17050Y-27150D01*
X28900Y-20300D02*
X29750Y-20300D01*
X29750Y-20300D02*
X30350Y-19700D01*
X25800Y-24250D02*
X26450Y-24250D01*
X28650Y-20550D02*
X28900Y-20300D01*
X28200Y-22500D02*
X26450Y-24250D01*
X23750Y-25650D02*
X23750Y-26450D01*
X23800Y-26500D02*
X23750Y-26450D01*
X28650Y-20550D02*
X28650Y-21000D01*
X21200Y-27250D02*
X21200Y-27100D01*
X21200Y-27100D02*
X22650Y-25650D01*
X22650Y-25650D02*
X23750Y-25650D01*
X21200Y-12800D02*
X21000Y-12800D01*
X21000Y-12800D02*
X19650Y-14150D01*
X22200Y-12800D02*
X22200Y-12850D01*
X20300Y-15500D02*
X19650Y-16150D01*
X20300Y-14450D02*
X20300Y-15500D01*
X21400Y-13350D02*
X20300Y-14450D01*
X21700Y-13350D02*
X21400Y-13350D01*
X22200Y-12850D02*
X21700Y-13350D01*
X21200Y-28550D02*
X21200Y-31050D01*
X21200Y-31050D02*
X19450Y-32800D01*
X22650Y-16150D02*
X23750Y-16150D01*
X22650Y-14150D02*
X23750Y-14150D01*
X26650Y-17800D02*
X26150Y-17800D01*
X25450Y-17100D02*
X26150Y-17800D01*
X26650Y-17800D02*
X26650Y-18900D01*
X18350Y-27150D02*
X18650Y-27150D01*
X21500Y-22550D02*
X22650Y-21400D01*
X21500Y-25000D02*
X21500Y-22550D01*
X20250Y-26250D02*
X21500Y-25000D01*
X19550Y-26250D02*
X20250Y-26250D01*
X18650Y-27150D02*
X19550Y-26250D01*
X22650Y-19400D02*
X22250Y-19400D01*
X21850Y-20600D02*
X22650Y-21400D01*
X21850Y-19800D02*
X21850Y-20600D01*
X22250Y-19400D02*
X21850Y-19800D01*
X22650Y-21400D02*
X23750Y-21400D01*
X22650Y-19400D02*
X24100Y-19400D01*
X24100Y-19400D02*
X24400Y-19100D01*
X24400Y-19100D02*
X24400Y-17400D01*
X24400Y-17400D02*
X24650Y-17150D01*
X22650Y-15150D02*
X24150Y-15150D01*
X24150Y-15150D02*
X24400Y-15400D01*
X24400Y-15400D02*
X24400Y-16900D01*
X24400Y-16900D02*
X24650Y-17150D01*
X22650Y-17150D02*
X24650Y-17150D01*
X27200Y-22350D02*
X26650Y-22350D01*
X19950Y-27250D02*
X20050Y-27250D01*
X21950Y-24350D02*
X22650Y-23650D01*
X21950Y-25350D02*
X21950Y-24350D01*
X20050Y-27250D02*
X21950Y-25350D01*
X22650Y-23700D02*
X22650Y-23650D01*
X26650Y-21000D02*
X26650Y-22350D01*
X26650Y-22350D02*
X26650Y-22850D01*
X24350Y-23650D02*
X23750Y-23650D01*
X24400Y-23700D02*
X24350Y-23650D01*
X26650Y-22850D02*
X25800Y-23700D01*
X22650Y-23650D02*
X23750Y-23650D01*
X22650Y-20400D02*
X23750Y-20400D01*
X22650Y-18400D02*
X23750Y-18400D01*
X25200Y-12800D02*
X25200Y-13450D01*
X20500Y-22650D02*
X19650Y-22650D01*
X26200Y-12800D02*
X26200Y-13050D01*
X20500Y-24650D02*
X19650Y-24650D01*
X26200Y-13050D02*
X25700Y-13550D01*
X24200Y-12800D02*
X24200Y-13450D01*
X20350Y-20400D02*
X19650Y-20400D01*
X20400Y-20350D02*
X20350Y-20400D01*
X22650Y-24650D02*
X23750Y-24650D01*
X22650Y-22650D02*
X23750Y-22650D01*
X37700Y-17050D02*
X37700Y-18091D01*
X23200Y-12800D02*
X23200Y-12950D01*
X20600Y-17450D02*
X19650Y-18400D01*
X20600Y-14750D02*
X20600Y-17450D01*
X22000Y-13350D02*
X20600Y-14750D01*
X22800Y-13350D02*
X22000Y-13350D01*
X23200Y-12950D02*
X22800Y-13350D01*
X36200Y-17050D02*
X36200Y-18091D01*
X29050Y-17900D02*
X28800Y-17900D01*
X28150Y-18550D02*
X28150Y-18900D01*
X28800Y-17900D02*
X28150Y-18550D01*
X29050Y-16900D02*
X29050Y-16250D01*
X29050Y-16250D02*
X29400Y-15900D01*
X29050Y-16900D02*
X29050Y-17900D01*
X32850Y-8900D02*
X32850Y-11250D01*
X32450Y-13712D02*
X33220Y-14482D01*
X32450Y-11650D02*
X32450Y-13712D01*
X32850Y-11250D02*
X32450Y-11650D01*
X46200Y-33400D02*
X44300Y-33400D01*
X44300Y-33400D02*
X44100Y-33200D01*
X46850Y-32750D02*
X46200Y-33400D01*
X46850Y-26700D02*
X46850Y-32750D01*
X46300Y-26150D02*
X46850Y-26700D01*
X46300Y-12050D02*
X46300Y-26150D01*
X43850Y-9600D02*
X46300Y-12050D01*
X43850Y-8900D02*
X43850Y-9600D01*
X46200Y-29900D02*
X46600Y-29500D01*
X42850Y-8900D02*
X42850Y-9000D01*
X42850Y-9000D02*
X46050Y-12200D01*
X46050Y-12200D02*
X46050Y-26250D01*
X46050Y-26250D02*
X46600Y-26800D01*
X46600Y-26800D02*
X46600Y-29500D01*
X44100Y-29900D02*
X46200Y-29900D01*
X27150Y-18900D02*
X27150Y-20050D01*
X27150Y-20050D02*
X27400Y-20300D01*
X28150Y-20300D02*
X27400Y-20300D01*
X27150Y-20550D02*
X27150Y-21000D01*
X27400Y-20300D02*
X27150Y-20550D01*
X28650Y-18900D02*
X28650Y-19800D01*
X28150Y-20300D02*
X28150Y-21000D01*
X28650Y-19800D02*
X28150Y-20300D01*
X28650Y-18900D02*
X29150Y-18900D01*
X17975Y-30775D02*
X17975Y-31950D01*
X18450Y-32425D02*
X18450Y-33800D01*
X17975Y-31950D02*
X18450Y-32425D01*
X14700Y-33150D02*
X15900Y-33150D01*
X16550Y-33800D02*
X18450Y-33800D01*
X15900Y-33150D02*
X16550Y-33800D01*
G54D10*
G36*
X28850Y-22525D02*
X27025Y-24350D01*
X26774Y-24350D01*
X28199Y-22924D01*
X28284Y-22925D01*
X28440Y-22860D01*
X28560Y-22741D01*
X28624Y-22584D01*
X28625Y-22415D01*
X28560Y-22259D01*
X28491Y-22190D01*
X28575Y-22225D01*
X28637Y-22225D01*
X28700Y-22162D01*
X28700Y-21800D01*
X28692Y-21800D01*
X28692Y-21700D01*
X28700Y-21700D01*
X28700Y-21692D01*
X28800Y-21692D01*
X28800Y-21700D01*
X28807Y-21700D01*
X28807Y-21800D01*
X28800Y-21800D01*
X28800Y-22162D01*
X28850Y-22212D01*
X28850Y-22525D01*
X28850Y-22525D01*
G37*
G54D32*
X28850Y-22525D02*
X27025Y-24350D01*
X26774Y-24350D01*
X28199Y-22924D01*
X28284Y-22925D01*
X28440Y-22860D01*
X28560Y-22741D01*
X28624Y-22584D01*
X28625Y-22415D01*
X28560Y-22259D01*
X28491Y-22190D01*
X28575Y-22225D01*
X28637Y-22225D01*
X28700Y-22162D01*
X28700Y-21800D01*
X28692Y-21800D01*
X28692Y-21700D01*
X28700Y-21700D01*
X28700Y-21692D01*
X28800Y-21692D01*
X28800Y-21700D01*
X28807Y-21700D01*
X28807Y-21800D01*
X28800Y-21800D01*
X28800Y-22162D01*
X28850Y-22212D01*
X28850Y-22525D01*
G54D10*
G36*
X35818Y-12317D02*
X35474Y-12662D01*
X35474Y-12618D01*
X35474Y-12430D01*
X35411Y-12368D01*
X34924Y-12368D01*
X34924Y-12855D01*
X34986Y-12918D01*
X35261Y-12918D01*
X35238Y-12952D01*
X35199Y-13144D01*
X35200Y-13144D01*
X35200Y-13881D01*
X34986Y-13882D01*
X34924Y-13944D01*
X34924Y-14432D01*
X34931Y-14432D01*
X34931Y-14532D01*
X34924Y-14532D01*
X34924Y-15019D01*
X34986Y-15082D01*
X35216Y-15082D01*
X35238Y-15191D01*
X35346Y-15353D01*
X35449Y-15457D01*
X35449Y-15519D01*
X35449Y-16119D01*
X35483Y-16200D01*
X34824Y-16200D01*
X34824Y-15019D01*
X34824Y-14532D01*
X34824Y-14432D01*
X34824Y-13944D01*
X34824Y-12855D01*
X34824Y-12368D01*
X34824Y-12268D01*
X34824Y-11780D01*
X34761Y-11718D01*
X34474Y-11717D01*
X34382Y-11755D01*
X34312Y-11826D01*
X34274Y-11918D01*
X34273Y-12017D01*
X34274Y-12205D01*
X34336Y-12268D01*
X34824Y-12268D01*
X34824Y-12368D01*
X34336Y-12368D01*
X34274Y-12430D01*
X34273Y-12618D01*
X34274Y-12717D01*
X34312Y-12809D01*
X34382Y-12880D01*
X34474Y-12918D01*
X34761Y-12918D01*
X34824Y-12855D01*
X34824Y-13944D01*
X34761Y-13882D01*
X34474Y-13881D01*
X34382Y-13919D01*
X34312Y-13990D01*
X34274Y-14082D01*
X34273Y-14181D01*
X34274Y-14369D01*
X34336Y-14432D01*
X34824Y-14432D01*
X34824Y-14532D01*
X34336Y-14532D01*
X34274Y-14594D01*
X34273Y-14782D01*
X34274Y-14881D01*
X34312Y-14973D01*
X34382Y-15044D01*
X34474Y-15082D01*
X34761Y-15082D01*
X34824Y-15019D01*
X34824Y-16200D01*
X32167Y-16200D01*
X32167Y-14782D01*
X32167Y-14181D01*
X32166Y-14082D01*
X32128Y-13990D01*
X32058Y-13919D01*
X31966Y-13881D01*
X31679Y-13882D01*
X31617Y-13944D01*
X31617Y-14432D01*
X32104Y-14432D01*
X32167Y-14369D01*
X32167Y-14181D01*
X32167Y-14782D01*
X32167Y-14594D01*
X32104Y-14532D01*
X31617Y-14532D01*
X31617Y-15019D01*
X31679Y-15082D01*
X31966Y-15082D01*
X32058Y-15044D01*
X32128Y-14973D01*
X32166Y-14881D01*
X32167Y-14782D01*
X32167Y-16200D01*
X31750Y-16200D01*
X31635Y-16222D01*
X31537Y-16287D01*
X31517Y-16308D01*
X31517Y-15019D01*
X31517Y-14532D01*
X31517Y-14432D01*
X31517Y-13944D01*
X31517Y-12855D01*
X31517Y-12368D01*
X31517Y-12268D01*
X31517Y-11780D01*
X31454Y-11718D01*
X31167Y-11717D01*
X31075Y-11755D01*
X31005Y-11826D01*
X30967Y-11918D01*
X30966Y-12017D01*
X30967Y-12205D01*
X31029Y-12268D01*
X31517Y-12268D01*
X31517Y-12368D01*
X31029Y-12368D01*
X30967Y-12430D01*
X30966Y-12618D01*
X30967Y-12717D01*
X31005Y-12809D01*
X31075Y-12880D01*
X31167Y-12918D01*
X31454Y-12918D01*
X31517Y-12855D01*
X31517Y-13944D01*
X31454Y-13882D01*
X31167Y-13881D01*
X31075Y-13919D01*
X31005Y-13990D01*
X30967Y-14082D01*
X30966Y-14181D01*
X30967Y-14369D01*
X31029Y-14432D01*
X31517Y-14432D01*
X31517Y-14532D01*
X31029Y-14532D01*
X30967Y-14594D01*
X30966Y-14782D01*
X30967Y-14881D01*
X31005Y-14973D01*
X31075Y-15044D01*
X31167Y-15082D01*
X31454Y-15082D01*
X31517Y-15019D01*
X31517Y-16308D01*
X30900Y-16925D01*
X30900Y-16549D01*
X30899Y-16450D01*
X30861Y-16358D01*
X30791Y-16287D01*
X30699Y-16249D01*
X30613Y-16249D01*
X30613Y-14762D01*
X30613Y-14062D01*
X30613Y-12598D01*
X30613Y-11898D01*
X30559Y-11770D01*
X30461Y-11671D01*
X30332Y-11618D01*
X30193Y-11617D01*
X29493Y-11617D01*
X29365Y-11671D01*
X29266Y-11769D01*
X29213Y-11898D01*
X29212Y-12037D01*
X29212Y-12737D01*
X29266Y-12866D01*
X29364Y-12964D01*
X29493Y-13017D01*
X29632Y-13018D01*
X30332Y-13018D01*
X30461Y-12964D01*
X30559Y-12866D01*
X30612Y-12737D01*
X30613Y-12598D01*
X30613Y-14062D01*
X30559Y-13934D01*
X30461Y-13835D01*
X30332Y-13782D01*
X30193Y-13781D01*
X29493Y-13781D01*
X29365Y-13835D01*
X29266Y-13933D01*
X29213Y-14062D01*
X29212Y-14201D01*
X29212Y-14901D01*
X29266Y-15030D01*
X29364Y-15128D01*
X29493Y-15181D01*
X29632Y-15182D01*
X30332Y-15182D01*
X30461Y-15128D01*
X30559Y-15030D01*
X30612Y-14901D01*
X30613Y-14762D01*
X30613Y-16249D01*
X30462Y-16250D01*
X30400Y-16312D01*
X30400Y-16850D01*
X30837Y-16850D01*
X30900Y-16787D01*
X30900Y-16549D01*
X30900Y-16925D01*
X30856Y-16969D01*
X30837Y-16950D01*
X30400Y-16950D01*
X30400Y-16957D01*
X30300Y-16957D01*
X30300Y-16950D01*
X29862Y-16950D01*
X29800Y-17012D01*
X29799Y-17250D01*
X29800Y-17349D01*
X29820Y-17400D01*
X29800Y-17450D01*
X29799Y-17549D01*
X29799Y-18349D01*
X29837Y-18441D01*
X29908Y-18511D01*
X30000Y-18549D01*
X30099Y-18550D01*
X30699Y-18550D01*
X30791Y-18512D01*
X30861Y-18441D01*
X30899Y-18349D01*
X30900Y-18274D01*
X31450Y-18824D01*
X31450Y-22470D01*
X31399Y-22450D01*
X31300Y-22449D01*
X30500Y-22449D01*
X30449Y-22470D01*
X30399Y-22450D01*
X30300Y-22449D01*
X29500Y-22449D01*
X29450Y-22470D01*
X29450Y-21378D01*
X29461Y-21366D01*
X29489Y-21300D01*
X29699Y-21300D01*
X29699Y-21349D01*
X29737Y-21441D01*
X29808Y-21511D01*
X29900Y-21549D01*
X29999Y-21550D01*
X30799Y-21550D01*
X30891Y-21512D01*
X30961Y-21441D01*
X30999Y-21349D01*
X31000Y-21250D01*
X31000Y-20650D01*
X30962Y-20558D01*
X30891Y-20488D01*
X30799Y-20450D01*
X30700Y-20449D01*
X30024Y-20449D01*
X30224Y-20250D01*
X30799Y-20250D01*
X30891Y-20212D01*
X30961Y-20141D01*
X30999Y-20049D01*
X31000Y-19950D01*
X31000Y-19350D01*
X30962Y-19258D01*
X30891Y-19188D01*
X30799Y-19150D01*
X30700Y-19149D01*
X29900Y-19149D01*
X29808Y-19187D01*
X29738Y-19258D01*
X29700Y-19350D01*
X29699Y-19449D01*
X29699Y-19925D01*
X29625Y-20000D01*
X29201Y-20000D01*
X29141Y-19939D01*
X28984Y-19875D01*
X28935Y-19875D01*
X28949Y-19800D01*
X28950Y-19800D01*
X28950Y-19354D01*
X29000Y-19374D01*
X29099Y-19375D01*
X29299Y-19375D01*
X29391Y-19337D01*
X29461Y-19266D01*
X29499Y-19174D01*
X29500Y-19075D01*
X29500Y-18625D01*
X29462Y-18533D01*
X29455Y-18526D01*
X29491Y-18512D01*
X29561Y-18441D01*
X29599Y-18349D01*
X29600Y-18250D01*
X29600Y-17450D01*
X29579Y-17399D01*
X29599Y-17349D01*
X29600Y-17250D01*
X29600Y-16450D01*
X29568Y-16375D01*
X29574Y-16375D01*
X29666Y-16337D01*
X29700Y-16303D01*
X29733Y-16337D01*
X29825Y-16375D01*
X29831Y-16375D01*
X29800Y-16450D01*
X29799Y-16549D01*
X29800Y-16787D01*
X29862Y-16850D01*
X30300Y-16850D01*
X30300Y-16312D01*
X30295Y-16308D01*
X30336Y-16266D01*
X30374Y-16174D01*
X30375Y-16075D01*
X30375Y-15724D01*
X30374Y-15625D01*
X30336Y-15533D01*
X30266Y-15462D01*
X30174Y-15424D01*
X30112Y-15425D01*
X30050Y-15487D01*
X30050Y-15850D01*
X30312Y-15850D01*
X30375Y-15787D01*
X30375Y-15724D01*
X30375Y-16075D01*
X30375Y-16012D01*
X30312Y-15950D01*
X30050Y-15950D01*
X30050Y-15957D01*
X29950Y-15957D01*
X29950Y-15950D01*
X29942Y-15950D01*
X29942Y-15850D01*
X29950Y-15850D01*
X29950Y-15487D01*
X29887Y-15425D01*
X29825Y-15424D01*
X29733Y-15462D01*
X29700Y-15496D01*
X29666Y-15463D01*
X29574Y-15425D01*
X29475Y-15424D01*
X29225Y-15424D01*
X29133Y-15462D01*
X29063Y-15533D01*
X29025Y-15625D01*
X29024Y-15724D01*
X29024Y-15850D01*
X28960Y-15915D01*
X28960Y-14762D01*
X28960Y-14062D01*
X28906Y-13934D01*
X28808Y-13835D01*
X28760Y-13815D01*
X28760Y-12984D01*
X28808Y-12964D01*
X28906Y-12866D01*
X28959Y-12737D01*
X28960Y-12598D01*
X28960Y-11898D01*
X28906Y-11770D01*
X28808Y-11671D01*
X28679Y-11618D01*
X28540Y-11617D01*
X27840Y-11617D01*
X27712Y-11671D01*
X27613Y-11769D01*
X27560Y-11898D01*
X27559Y-12037D01*
X27559Y-12737D01*
X27613Y-12866D01*
X27711Y-12964D01*
X27760Y-12984D01*
X27760Y-13815D01*
X27712Y-13835D01*
X27613Y-13933D01*
X27560Y-14062D01*
X27559Y-14201D01*
X27559Y-14901D01*
X27613Y-15030D01*
X27711Y-15128D01*
X27840Y-15181D01*
X27979Y-15182D01*
X28679Y-15182D01*
X28808Y-15128D01*
X28906Y-15030D01*
X28959Y-14901D01*
X28960Y-14762D01*
X28960Y-15915D01*
X28837Y-16037D01*
X28772Y-16135D01*
X28750Y-16249D01*
X28700Y-16249D01*
X28608Y-16287D01*
X28538Y-16358D01*
X28500Y-16450D01*
X28499Y-16549D01*
X28499Y-17349D01*
X28520Y-17400D01*
X28500Y-17450D01*
X28499Y-17549D01*
X28499Y-17775D01*
X27937Y-18337D01*
X27872Y-18435D01*
X27869Y-18453D01*
X27799Y-18424D01*
X27762Y-18425D01*
X27700Y-18487D01*
X27700Y-18850D01*
X27707Y-18850D01*
X27707Y-18950D01*
X27700Y-18950D01*
X27700Y-19312D01*
X27762Y-19375D01*
X27799Y-19375D01*
X27891Y-19337D01*
X27899Y-19328D01*
X27908Y-19336D01*
X28000Y-19374D01*
X28099Y-19375D01*
X28299Y-19375D01*
X28350Y-19354D01*
X28350Y-19675D01*
X28025Y-20000D01*
X27524Y-20000D01*
X27450Y-19925D01*
X27450Y-19354D01*
X27500Y-19375D01*
X27537Y-19375D01*
X27600Y-19312D01*
X27600Y-18950D01*
X27592Y-18950D01*
X27592Y-18850D01*
X27600Y-18850D01*
X27600Y-18487D01*
X27537Y-18425D01*
X27500Y-18424D01*
X27408Y-18462D01*
X27400Y-18471D01*
X27391Y-18463D01*
X27299Y-18425D01*
X27200Y-18424D01*
X27000Y-18424D01*
X26950Y-18445D01*
X26950Y-18350D01*
X27099Y-18350D01*
X27191Y-18312D01*
X27261Y-18241D01*
X27299Y-18149D01*
X27300Y-18050D01*
X27300Y-17450D01*
X27262Y-17358D01*
X27191Y-17288D01*
X27099Y-17250D01*
X27000Y-17249D01*
X26200Y-17249D01*
X26108Y-17287D01*
X26085Y-17311D01*
X25874Y-17100D01*
X25875Y-17015D01*
X25810Y-16859D01*
X25691Y-16739D01*
X25563Y-16687D01*
X25599Y-16599D01*
X25600Y-16500D01*
X25600Y-16450D01*
X25999Y-16450D01*
X25999Y-16849D01*
X26037Y-16941D01*
X26108Y-17011D01*
X26200Y-17049D01*
X26299Y-17050D01*
X27099Y-17050D01*
X27191Y-17012D01*
X27261Y-16941D01*
X27299Y-16849D01*
X27300Y-16750D01*
X27300Y-16150D01*
X27262Y-16058D01*
X27191Y-15988D01*
X27099Y-15950D01*
X27000Y-15949D01*
X26524Y-15949D01*
X26512Y-15937D01*
X26414Y-15872D01*
X26300Y-15850D01*
X25600Y-15850D01*
X25600Y-15700D01*
X25562Y-15608D01*
X25491Y-15538D01*
X25399Y-15500D01*
X25350Y-15500D01*
X25350Y-14800D01*
X25399Y-14800D01*
X25491Y-14762D01*
X25561Y-14691D01*
X25599Y-14599D01*
X25600Y-14549D01*
X25696Y-14781D01*
X25932Y-15018D01*
X26241Y-15146D01*
X26575Y-15146D01*
X26884Y-15018D01*
X27121Y-14782D01*
X27249Y-14473D01*
X27249Y-14139D01*
X27121Y-13830D01*
X26885Y-13593D01*
X26576Y-13465D01*
X26242Y-13465D01*
X26185Y-13489D01*
X26324Y-13350D01*
X26649Y-13350D01*
X26741Y-13312D01*
X26811Y-13241D01*
X26849Y-13149D01*
X26850Y-13050D01*
X26850Y-12450D01*
X26812Y-12358D01*
X26741Y-12288D01*
X26649Y-12250D01*
X26550Y-12249D01*
X25750Y-12249D01*
X25699Y-12270D01*
X25649Y-12250D01*
X25550Y-12249D01*
X24750Y-12249D01*
X24699Y-12270D01*
X24649Y-12250D01*
X24550Y-12249D01*
X23750Y-12249D01*
X23699Y-12270D01*
X23649Y-12250D01*
X23550Y-12249D01*
X22750Y-12249D01*
X22699Y-12270D01*
X22649Y-12250D01*
X22550Y-12249D01*
X21750Y-12249D01*
X21699Y-12270D01*
X21649Y-12250D01*
X21550Y-12249D01*
X20750Y-12249D01*
X20658Y-12287D01*
X20588Y-12358D01*
X20550Y-12450D01*
X20549Y-12549D01*
X20549Y-12825D01*
X19775Y-13599D01*
X19200Y-13599D01*
X19108Y-13637D01*
X19038Y-13708D01*
X19000Y-13800D01*
X18999Y-13899D01*
X18999Y-14499D01*
X19037Y-14591D01*
X19096Y-14650D01*
X19037Y-14708D01*
X18999Y-14800D01*
X19000Y-15037D01*
X19062Y-15100D01*
X19600Y-15100D01*
X19600Y-15092D01*
X19700Y-15092D01*
X19700Y-15100D01*
X19707Y-15100D01*
X19707Y-15200D01*
X19700Y-15200D01*
X19700Y-15207D01*
X19600Y-15207D01*
X19600Y-15200D01*
X19062Y-15200D01*
X19000Y-15262D01*
X18999Y-15499D01*
X19037Y-15591D01*
X19096Y-15650D01*
X19038Y-15708D01*
X19000Y-15800D01*
X18999Y-15899D01*
X18999Y-16499D01*
X19037Y-16591D01*
X19096Y-16650D01*
X19037Y-16708D01*
X18999Y-16800D01*
X19000Y-17037D01*
X19062Y-17100D01*
X19600Y-17100D01*
X19600Y-17092D01*
X19700Y-17092D01*
X19700Y-17100D01*
X19707Y-17100D01*
X19707Y-17200D01*
X19700Y-17200D01*
X19700Y-17637D01*
X19762Y-17700D01*
X19925Y-17700D01*
X19775Y-17849D01*
X19600Y-17849D01*
X19600Y-17637D01*
X19600Y-17200D01*
X19062Y-17200D01*
X19000Y-17262D01*
X18999Y-17499D01*
X19037Y-17591D01*
X19108Y-17661D01*
X19200Y-17699D01*
X19299Y-17700D01*
X19537Y-17700D01*
X19600Y-17637D01*
X19600Y-17849D01*
X19200Y-17849D01*
X19108Y-17887D01*
X19038Y-17958D01*
X19000Y-18050D01*
X18999Y-18149D01*
X18999Y-18749D01*
X19037Y-18841D01*
X19096Y-18900D01*
X19037Y-18958D01*
X18999Y-19050D01*
X19000Y-19287D01*
X19062Y-19350D01*
X19600Y-19350D01*
X19600Y-19342D01*
X19700Y-19342D01*
X19700Y-19350D01*
X20237Y-19350D01*
X20300Y-19287D01*
X20300Y-19050D01*
X20262Y-18958D01*
X20203Y-18899D01*
X20261Y-18841D01*
X20299Y-18749D01*
X20300Y-18650D01*
X20300Y-18174D01*
X20812Y-17662D01*
X20812Y-17662D01*
X20877Y-17564D01*
X20899Y-17450D01*
X20900Y-17450D01*
X20900Y-14874D01*
X22018Y-13755D01*
X22000Y-13800D01*
X21999Y-13899D01*
X21999Y-14499D01*
X22037Y-14591D01*
X22096Y-14650D01*
X22038Y-14708D01*
X22000Y-14800D01*
X21999Y-14899D01*
X21999Y-15499D01*
X22037Y-15591D01*
X22096Y-15650D01*
X22038Y-15708D01*
X22000Y-15800D01*
X21999Y-15899D01*
X21999Y-16499D01*
X22037Y-16591D01*
X22096Y-16650D01*
X22038Y-16708D01*
X22000Y-16800D01*
X21999Y-16899D01*
X21999Y-17499D01*
X22037Y-17591D01*
X22108Y-17661D01*
X22200Y-17699D01*
X22299Y-17700D01*
X23099Y-17700D01*
X23191Y-17662D01*
X23261Y-17591D01*
X23299Y-17499D01*
X23299Y-17450D01*
X24100Y-17450D01*
X24100Y-17750D01*
X24099Y-17750D01*
X24000Y-17749D01*
X23400Y-17749D01*
X23308Y-17787D01*
X23238Y-17858D01*
X23215Y-17912D01*
X23191Y-17888D01*
X23099Y-17850D01*
X23000Y-17849D01*
X22200Y-17849D01*
X22108Y-17887D01*
X22038Y-17958D01*
X22000Y-18050D01*
X21999Y-18149D01*
X21999Y-18749D01*
X22037Y-18841D01*
X22096Y-18900D01*
X22038Y-18958D01*
X22000Y-19050D01*
X21999Y-19149D01*
X21999Y-19225D01*
X21637Y-19587D01*
X21572Y-19685D01*
X21550Y-19800D01*
X21550Y-20600D01*
X21572Y-20714D01*
X21637Y-20812D01*
X21999Y-21174D01*
X21999Y-21625D01*
X21287Y-22337D01*
X21222Y-22435D01*
X21200Y-22550D01*
X21200Y-24875D01*
X20925Y-25150D01*
X20925Y-24565D01*
X20925Y-22565D01*
X20860Y-22409D01*
X20825Y-22374D01*
X20825Y-20265D01*
X20760Y-20109D01*
X20641Y-19989D01*
X20484Y-19925D01*
X20315Y-19924D01*
X20253Y-19950D01*
X20203Y-19900D01*
X20262Y-19841D01*
X20300Y-19749D01*
X20300Y-19512D01*
X20237Y-19450D01*
X19700Y-19450D01*
X19700Y-19457D01*
X19600Y-19457D01*
X19600Y-19450D01*
X19062Y-19450D01*
X19000Y-19512D01*
X18999Y-19749D01*
X19037Y-19841D01*
X19096Y-19900D01*
X19038Y-19958D01*
X19000Y-20050D01*
X18999Y-20149D01*
X18999Y-20749D01*
X19037Y-20841D01*
X19096Y-20900D01*
X19037Y-20958D01*
X18999Y-21050D01*
X19000Y-21287D01*
X19062Y-21350D01*
X19600Y-21350D01*
X19600Y-21342D01*
X19700Y-21342D01*
X19700Y-21350D01*
X20237Y-21350D01*
X20300Y-21287D01*
X20300Y-21050D01*
X20262Y-20958D01*
X20203Y-20899D01*
X20261Y-20841D01*
X20293Y-20765D01*
X20315Y-20774D01*
X20484Y-20775D01*
X20640Y-20710D01*
X20760Y-20591D01*
X20824Y-20434D01*
X20825Y-20265D01*
X20825Y-22374D01*
X20741Y-22289D01*
X20584Y-22225D01*
X20415Y-22224D01*
X20300Y-22272D01*
X20300Y-21749D01*
X20300Y-21512D01*
X20237Y-21450D01*
X19700Y-21450D01*
X19700Y-21887D01*
X19762Y-21950D01*
X20000Y-21950D01*
X20099Y-21949D01*
X20191Y-21911D01*
X20262Y-21841D01*
X20300Y-21749D01*
X20300Y-22272D01*
X20290Y-22276D01*
X20262Y-22208D01*
X20191Y-22138D01*
X20099Y-22100D01*
X20000Y-22099D01*
X19600Y-22099D01*
X19600Y-21887D01*
X19600Y-21450D01*
X19062Y-21450D01*
X19000Y-21512D01*
X18999Y-21749D01*
X19037Y-21841D01*
X19108Y-21911D01*
X19200Y-21949D01*
X19299Y-21950D01*
X19537Y-21950D01*
X19600Y-21887D01*
X19600Y-22099D01*
X19200Y-22099D01*
X19108Y-22137D01*
X19038Y-22208D01*
X19000Y-22300D01*
X18999Y-22399D01*
X18999Y-22999D01*
X19037Y-23091D01*
X19096Y-23150D01*
X19037Y-23208D01*
X18999Y-23300D01*
X19000Y-23537D01*
X19062Y-23600D01*
X19600Y-23600D01*
X19600Y-23592D01*
X19700Y-23592D01*
X19700Y-23600D01*
X20237Y-23600D01*
X20300Y-23537D01*
X20300Y-23300D01*
X20262Y-23208D01*
X20203Y-23149D01*
X20261Y-23091D01*
X20290Y-23023D01*
X20415Y-23074D01*
X20584Y-23075D01*
X20740Y-23010D01*
X20860Y-22891D01*
X20924Y-22734D01*
X20925Y-22565D01*
X20925Y-24565D01*
X20860Y-24409D01*
X20741Y-24289D01*
X20584Y-24225D01*
X20415Y-24224D01*
X20290Y-24276D01*
X20262Y-24208D01*
X20203Y-24150D01*
X20262Y-24091D01*
X20300Y-23999D01*
X20300Y-23762D01*
X20237Y-23700D01*
X19700Y-23700D01*
X19700Y-23707D01*
X19600Y-23707D01*
X19600Y-23700D01*
X19062Y-23700D01*
X19000Y-23762D01*
X18999Y-23999D01*
X19037Y-24091D01*
X19096Y-24150D01*
X19038Y-24208D01*
X19000Y-24300D01*
X18999Y-24399D01*
X18999Y-24999D01*
X19037Y-25091D01*
X19096Y-25150D01*
X19037Y-25208D01*
X18999Y-25300D01*
X19000Y-25537D01*
X19062Y-25600D01*
X19600Y-25600D01*
X19600Y-25592D01*
X19700Y-25592D01*
X19700Y-25600D01*
X20237Y-25600D01*
X20300Y-25537D01*
X20300Y-25300D01*
X20262Y-25208D01*
X20203Y-25149D01*
X20261Y-25091D01*
X20290Y-25023D01*
X20415Y-25074D01*
X20584Y-25075D01*
X20740Y-25010D01*
X20860Y-24891D01*
X20924Y-24734D01*
X20925Y-24565D01*
X20925Y-25150D01*
X20300Y-25775D01*
X20300Y-25762D01*
X20237Y-25700D01*
X19700Y-25700D01*
X19700Y-25707D01*
X19600Y-25707D01*
X19600Y-25700D01*
X19062Y-25700D01*
X19000Y-25762D01*
X18999Y-25999D01*
X19037Y-26091D01*
X19108Y-26161D01*
X19182Y-26192D01*
X18814Y-26561D01*
X18791Y-26538D01*
X18699Y-26500D01*
X18600Y-26499D01*
X18000Y-26499D01*
X17982Y-26507D01*
X17982Y-22410D01*
X17982Y-21710D01*
X17982Y-20756D01*
X17982Y-20056D01*
X17928Y-19928D01*
X17830Y-19829D01*
X17701Y-19776D01*
X17562Y-19775D01*
X16862Y-19775D01*
X16734Y-19829D01*
X16635Y-19927D01*
X16582Y-20056D01*
X16581Y-20195D01*
X16581Y-20895D01*
X16635Y-21024D01*
X16733Y-21122D01*
X16862Y-21175D01*
X17001Y-21176D01*
X17701Y-21176D01*
X17830Y-21122D01*
X17928Y-21024D01*
X17981Y-20895D01*
X17982Y-20756D01*
X17982Y-21710D01*
X17928Y-21582D01*
X17830Y-21483D01*
X17701Y-21430D01*
X17562Y-21429D01*
X16862Y-21429D01*
X16734Y-21483D01*
X16635Y-21581D01*
X16582Y-21710D01*
X16581Y-21849D01*
X16581Y-22549D01*
X16635Y-22678D01*
X16733Y-22776D01*
X16862Y-22829D01*
X17001Y-22830D01*
X17701Y-22830D01*
X17830Y-22776D01*
X17928Y-22678D01*
X17981Y-22549D01*
X17982Y-22410D01*
X17982Y-26507D01*
X17908Y-26537D01*
X17838Y-26608D01*
X17800Y-26700D01*
X17799Y-26799D01*
X17799Y-27599D01*
X17837Y-27691D01*
X17908Y-27761D01*
X18000Y-27799D01*
X18099Y-27800D01*
X18699Y-27800D01*
X18791Y-27762D01*
X18861Y-27691D01*
X18899Y-27599D01*
X18900Y-27500D01*
X18900Y-27324D01*
X19300Y-26924D01*
X19299Y-26999D01*
X19299Y-27599D01*
X19337Y-27691D01*
X19408Y-27761D01*
X19500Y-27799D01*
X19599Y-27800D01*
X20399Y-27800D01*
X20491Y-27762D01*
X20561Y-27691D01*
X20574Y-27660D01*
X20587Y-27691D01*
X20658Y-27761D01*
X20750Y-27799D01*
X20849Y-27800D01*
X21649Y-27800D01*
X21741Y-27762D01*
X21811Y-27691D01*
X21849Y-27599D01*
X21850Y-27500D01*
X21850Y-26900D01*
X21842Y-26881D01*
X22524Y-26200D01*
X23099Y-26200D01*
X23191Y-26162D01*
X23215Y-26137D01*
X23237Y-26191D01*
X23308Y-26261D01*
X23400Y-26299D01*
X23422Y-26299D01*
X23375Y-26415D01*
X23374Y-26584D01*
X23439Y-26740D01*
X23558Y-26860D01*
X23715Y-26924D01*
X23884Y-26925D01*
X24040Y-26860D01*
X24160Y-26741D01*
X24224Y-26584D01*
X24225Y-26415D01*
X24165Y-26272D01*
X24191Y-26262D01*
X24261Y-26191D01*
X24299Y-26099D01*
X24300Y-26000D01*
X24300Y-25200D01*
X24279Y-25149D01*
X24299Y-25099D01*
X24300Y-25000D01*
X24300Y-24200D01*
X24279Y-24149D01*
X24293Y-24115D01*
X24315Y-24124D01*
X24484Y-24125D01*
X24506Y-24115D01*
X24520Y-24150D01*
X24500Y-24200D01*
X24499Y-24299D01*
X24499Y-25099D01*
X24520Y-25150D01*
X24500Y-25200D01*
X24499Y-25299D01*
X24499Y-26099D01*
X24537Y-26191D01*
X24608Y-26261D01*
X24700Y-26299D01*
X24799Y-26300D01*
X25399Y-26300D01*
X25491Y-26262D01*
X25561Y-26191D01*
X25599Y-26099D01*
X25600Y-26000D01*
X25600Y-25950D01*
X26548Y-25950D01*
X26489Y-26008D01*
X26425Y-26165D01*
X26424Y-26334D01*
X26441Y-26375D01*
X24700Y-26375D01*
X24585Y-26397D01*
X24487Y-26462D01*
X23806Y-27143D01*
X23639Y-27177D01*
X23461Y-27296D01*
X23350Y-27462D01*
X23238Y-27296D01*
X23060Y-27177D01*
X22850Y-27135D01*
X22639Y-27177D01*
X22461Y-27296D01*
X22341Y-27474D01*
X22300Y-27685D01*
X22300Y-28114D01*
X22341Y-28325D01*
X22461Y-28503D01*
X22639Y-28622D01*
X22850Y-28664D01*
X23060Y-28622D01*
X23238Y-28503D01*
X23350Y-28337D01*
X23461Y-28503D01*
X23639Y-28622D01*
X23850Y-28664D01*
X24060Y-28622D01*
X24238Y-28503D01*
X24350Y-28337D01*
X24461Y-28503D01*
X24639Y-28622D01*
X24850Y-28664D01*
X25060Y-28622D01*
X25238Y-28503D01*
X25353Y-28331D01*
X25361Y-28356D01*
X25496Y-28524D01*
X25685Y-28627D01*
X25714Y-28633D01*
X25800Y-28584D01*
X25800Y-27950D01*
X25792Y-27950D01*
X25792Y-27850D01*
X25800Y-27850D01*
X25800Y-27842D01*
X25900Y-27842D01*
X25900Y-27850D01*
X26300Y-27850D01*
X26400Y-27850D01*
X26800Y-27850D01*
X26800Y-27842D01*
X26900Y-27842D01*
X26900Y-27850D01*
X26907Y-27850D01*
X26907Y-27950D01*
X26900Y-27950D01*
X26900Y-27957D01*
X26800Y-27957D01*
X26800Y-27950D01*
X26400Y-27950D01*
X26300Y-27950D01*
X25900Y-27950D01*
X25900Y-28584D01*
X25985Y-28633D01*
X26014Y-28627D01*
X26203Y-28524D01*
X26338Y-28356D01*
X26350Y-28319D01*
X26361Y-28356D01*
X26496Y-28524D01*
X26685Y-28627D01*
X26714Y-28633D01*
X26799Y-28584D01*
X26799Y-28586D01*
X26268Y-29117D01*
X25856Y-29117D01*
X25728Y-29171D01*
X25629Y-29269D01*
X25576Y-29398D01*
X25575Y-29537D01*
X25575Y-30062D01*
X25324Y-29810D01*
X25324Y-29398D01*
X25270Y-29270D01*
X25172Y-29171D01*
X25043Y-29118D01*
X24904Y-29117D01*
X24204Y-29117D01*
X24076Y-29171D01*
X23977Y-29269D01*
X23924Y-29398D01*
X23923Y-29537D01*
X23923Y-29818D01*
X23670Y-30072D01*
X23670Y-29398D01*
X23616Y-29270D01*
X23518Y-29171D01*
X23389Y-29118D01*
X23250Y-29117D01*
X22550Y-29117D01*
X22422Y-29171D01*
X22323Y-29269D01*
X22270Y-29398D01*
X22269Y-29537D01*
X22269Y-30237D01*
X22323Y-30366D01*
X22372Y-30415D01*
X22258Y-30438D01*
X22096Y-30546D01*
X21475Y-31167D01*
X21477Y-31164D01*
X21499Y-31050D01*
X21500Y-31050D01*
X21500Y-29100D01*
X21649Y-29100D01*
X21741Y-29062D01*
X21811Y-28991D01*
X21849Y-28899D01*
X21850Y-28800D01*
X21850Y-28200D01*
X21812Y-28108D01*
X21741Y-28038D01*
X21649Y-28000D01*
X21550Y-27999D01*
X20750Y-27999D01*
X20658Y-28037D01*
X20588Y-28108D01*
X20575Y-28139D01*
X20562Y-28108D01*
X20491Y-28038D01*
X20399Y-28000D01*
X20300Y-27999D01*
X19500Y-27999D01*
X19408Y-28037D01*
X19338Y-28108D01*
X19300Y-28200D01*
X19300Y-28250D01*
X18900Y-28250D01*
X18785Y-28272D01*
X18687Y-28337D01*
X18100Y-28924D01*
X17600Y-28924D01*
X17600Y-27500D01*
X17600Y-26700D01*
X17562Y-26608D01*
X17491Y-26538D01*
X17399Y-26500D01*
X17300Y-26499D01*
X16824Y-26499D01*
X16762Y-26437D01*
X16664Y-26372D01*
X16550Y-26350D01*
X15718Y-26350D01*
X15718Y-22529D01*
X15718Y-21730D01*
X15718Y-20875D01*
X15718Y-20076D01*
X15718Y-19223D01*
X15718Y-18936D01*
X15655Y-18874D01*
X15168Y-18874D01*
X15168Y-19361D01*
X15230Y-19424D01*
X15418Y-19424D01*
X15517Y-19423D01*
X15609Y-19385D01*
X15680Y-19315D01*
X15718Y-19223D01*
X15718Y-20076D01*
X15680Y-19984D01*
X15609Y-19914D01*
X15517Y-19876D01*
X15418Y-19875D01*
X15230Y-19876D01*
X15168Y-19938D01*
X15168Y-20426D01*
X15655Y-20426D01*
X15718Y-20363D01*
X15718Y-20076D01*
X15718Y-20875D01*
X15718Y-20588D01*
X15655Y-20526D01*
X15168Y-20526D01*
X15168Y-21013D01*
X15230Y-21076D01*
X15418Y-21076D01*
X15517Y-21075D01*
X15609Y-21037D01*
X15680Y-20967D01*
X15718Y-20875D01*
X15718Y-21730D01*
X15680Y-21638D01*
X15609Y-21568D01*
X15517Y-21530D01*
X15418Y-21529D01*
X15230Y-21530D01*
X15168Y-21592D01*
X15168Y-22080D01*
X15655Y-22080D01*
X15718Y-22017D01*
X15718Y-21730D01*
X15718Y-22529D01*
X15718Y-22242D01*
X15655Y-22180D01*
X15168Y-22180D01*
X15168Y-22667D01*
X15230Y-22730D01*
X15418Y-22730D01*
X15517Y-22729D01*
X15609Y-22691D01*
X15680Y-22621D01*
X15718Y-22529D01*
X15718Y-26350D01*
X15171Y-26350D01*
X15166Y-26338D01*
X15068Y-26240D01*
X15068Y-22667D01*
X15068Y-22180D01*
X15068Y-22080D01*
X15068Y-21592D01*
X15068Y-21013D01*
X15068Y-20526D01*
X15068Y-20426D01*
X15068Y-19938D01*
X15068Y-19361D01*
X15068Y-18874D01*
X14580Y-18874D01*
X14518Y-18936D01*
X14517Y-19223D01*
X14555Y-19315D01*
X14626Y-19385D01*
X14718Y-19423D01*
X14817Y-19424D01*
X15005Y-19424D01*
X15068Y-19361D01*
X15068Y-19938D01*
X15005Y-19876D01*
X14817Y-19875D01*
X14718Y-19876D01*
X14626Y-19914D01*
X14555Y-19984D01*
X14517Y-20076D01*
X14518Y-20363D01*
X14580Y-20426D01*
X15068Y-20426D01*
X15068Y-20526D01*
X14580Y-20526D01*
X14518Y-20588D01*
X14517Y-20875D01*
X14555Y-20967D01*
X14626Y-21037D01*
X14718Y-21075D01*
X14817Y-21076D01*
X15005Y-21076D01*
X15068Y-21013D01*
X15068Y-21592D01*
X15005Y-21530D01*
X14817Y-21529D01*
X14718Y-21530D01*
X14626Y-21568D01*
X14555Y-21638D01*
X14517Y-21730D01*
X14518Y-22017D01*
X14580Y-22080D01*
X15068Y-22080D01*
X15068Y-22180D01*
X14580Y-22180D01*
X14518Y-22242D01*
X14517Y-22529D01*
X14555Y-22621D01*
X14626Y-22691D01*
X14718Y-22729D01*
X14817Y-22730D01*
X15005Y-22730D01*
X15068Y-22667D01*
X15068Y-26240D01*
X15011Y-26184D01*
X14809Y-26100D01*
X14591Y-26099D01*
X14388Y-26183D01*
X14234Y-26338D01*
X14150Y-26540D01*
X14149Y-26758D01*
X14233Y-26961D01*
X14388Y-27115D01*
X14463Y-27147D01*
X14412Y-27168D01*
X14384Y-27264D01*
X14700Y-27579D01*
X15015Y-27264D01*
X14987Y-27168D01*
X14932Y-27149D01*
X15011Y-27116D01*
X15165Y-26961D01*
X15170Y-26950D01*
X16425Y-26950D01*
X16499Y-27024D01*
X16499Y-27599D01*
X16537Y-27691D01*
X16608Y-27761D01*
X16700Y-27799D01*
X16799Y-27800D01*
X17399Y-27800D01*
X17491Y-27762D01*
X17561Y-27691D01*
X17599Y-27599D01*
X17600Y-27500D01*
X17600Y-28924D01*
X17525Y-28924D01*
X17433Y-28962D01*
X17363Y-29033D01*
X17325Y-29125D01*
X17324Y-29224D01*
X17324Y-29824D01*
X17362Y-29916D01*
X17433Y-29986D01*
X17525Y-30024D01*
X17624Y-30025D01*
X18424Y-30025D01*
X18516Y-29987D01*
X18586Y-29916D01*
X18624Y-29824D01*
X18625Y-29725D01*
X18625Y-29249D01*
X19024Y-28850D01*
X19299Y-28850D01*
X19299Y-28899D01*
X19337Y-28991D01*
X19408Y-29061D01*
X19500Y-29099D01*
X19599Y-29100D01*
X20399Y-29100D01*
X20491Y-29062D01*
X20561Y-28991D01*
X20574Y-28960D01*
X20587Y-28991D01*
X20658Y-29061D01*
X20750Y-29099D01*
X20849Y-29100D01*
X20900Y-29100D01*
X20900Y-30925D01*
X19718Y-32107D01*
X19598Y-32058D01*
X19303Y-32057D01*
X19030Y-32170D01*
X18821Y-32379D01*
X18750Y-32550D01*
X18750Y-32425D01*
X18727Y-32310D01*
X18662Y-32212D01*
X18662Y-32212D01*
X18275Y-31825D01*
X18275Y-31325D01*
X18424Y-31325D01*
X18516Y-31287D01*
X18586Y-31216D01*
X18624Y-31124D01*
X18625Y-31071D01*
X18634Y-31094D01*
X18929Y-31389D01*
X19315Y-31549D01*
X19732Y-31550D01*
X20119Y-31390D01*
X20414Y-31095D01*
X20574Y-30709D01*
X20575Y-30292D01*
X20415Y-29906D01*
X20120Y-29610D01*
X19734Y-29450D01*
X19317Y-29449D01*
X18931Y-29609D01*
X18635Y-29904D01*
X18490Y-30252D01*
X18424Y-30225D01*
X18325Y-30224D01*
X17525Y-30224D01*
X17433Y-30262D01*
X17363Y-30333D01*
X17325Y-30425D01*
X17324Y-30524D01*
X17324Y-31124D01*
X17362Y-31216D01*
X17433Y-31286D01*
X17525Y-31324D01*
X17624Y-31325D01*
X17675Y-31325D01*
X17675Y-31950D01*
X17697Y-32064D01*
X17729Y-32112D01*
X17598Y-32058D01*
X17303Y-32057D01*
X17030Y-32170D01*
X16821Y-32379D01*
X16708Y-32651D01*
X16707Y-32946D01*
X16820Y-33219D01*
X17029Y-33428D01*
X17200Y-33500D01*
X16674Y-33500D01*
X16112Y-32937D01*
X16014Y-32872D01*
X15900Y-32850D01*
X15254Y-32850D01*
X15254Y-27731D01*
X15243Y-27513D01*
X15181Y-27362D01*
X15085Y-27334D01*
X14770Y-27650D01*
X15085Y-27965D01*
X15181Y-27937D01*
X15254Y-27731D01*
X15254Y-32850D01*
X15171Y-32850D01*
X15166Y-32838D01*
X15015Y-32687D01*
X15015Y-28035D01*
X14700Y-27720D01*
X14629Y-27791D01*
X14629Y-27650D01*
X14314Y-27334D01*
X14218Y-27362D01*
X14145Y-27568D01*
X14156Y-27786D01*
X14218Y-27937D01*
X14314Y-27965D01*
X14629Y-27650D01*
X14629Y-27791D01*
X14384Y-28035D01*
X14412Y-28131D01*
X14618Y-28204D01*
X14836Y-28193D01*
X14987Y-28131D01*
X15015Y-28035D01*
X15015Y-32687D01*
X15011Y-32684D01*
X14809Y-32600D01*
X14591Y-32599D01*
X14388Y-32683D01*
X14234Y-32838D01*
X14150Y-33040D01*
X14149Y-33258D01*
X14233Y-33461D01*
X14388Y-33615D01*
X14463Y-33647D01*
X14412Y-33668D01*
X14384Y-33764D01*
X14700Y-34079D01*
X15015Y-33764D01*
X14987Y-33668D01*
X14932Y-33649D01*
X15011Y-33616D01*
X15165Y-33461D01*
X15170Y-33450D01*
X15775Y-33450D01*
X16337Y-34012D01*
X16337Y-34012D01*
X16435Y-34077D01*
X16550Y-34100D01*
X17200Y-34100D01*
X17030Y-34170D01*
X16821Y-34379D01*
X16708Y-34651D01*
X16707Y-34946D01*
X16820Y-35219D01*
X16950Y-35350D01*
X15357Y-35350D01*
X15254Y-35247D01*
X15254Y-34231D01*
X15243Y-34013D01*
X15181Y-33862D01*
X15085Y-33834D01*
X14770Y-34150D01*
X15085Y-34465D01*
X15181Y-34437D01*
X15254Y-34231D01*
X15254Y-35247D01*
X14707Y-34700D01*
X14836Y-34693D01*
X14987Y-34631D01*
X15015Y-34535D01*
X14700Y-34220D01*
X14694Y-34226D01*
X14623Y-34155D01*
X14629Y-34150D01*
X14314Y-33834D01*
X14218Y-33862D01*
X14145Y-34068D01*
X14148Y-34141D01*
X13639Y-33632D01*
X13639Y-30964D01*
X13639Y-28464D01*
X13639Y-24464D01*
X13496Y-24118D01*
X13232Y-23854D01*
X12887Y-23711D01*
X12514Y-23710D01*
X12168Y-23853D01*
X11904Y-24117D01*
X11761Y-24462D01*
X11760Y-24835D01*
X11903Y-25181D01*
X12167Y-25445D01*
X12512Y-25588D01*
X12885Y-25589D01*
X13231Y-25446D01*
X13495Y-25182D01*
X13638Y-24837D01*
X13639Y-24464D01*
X13639Y-28464D01*
X13496Y-28118D01*
X13232Y-27854D01*
X12887Y-27711D01*
X12514Y-27710D01*
X12168Y-27853D01*
X11904Y-28117D01*
X11761Y-28462D01*
X11760Y-28835D01*
X11903Y-29181D01*
X12167Y-29445D01*
X12512Y-29588D01*
X12885Y-29589D01*
X13231Y-29446D01*
X13495Y-29182D01*
X13638Y-28837D01*
X13639Y-28464D01*
X13639Y-30964D01*
X13496Y-30618D01*
X13232Y-30354D01*
X12887Y-30211D01*
X12514Y-30210D01*
X12168Y-30353D01*
X11904Y-30617D01*
X11761Y-30962D01*
X11760Y-31335D01*
X11903Y-31681D01*
X12167Y-31945D01*
X12512Y-32088D01*
X12885Y-32089D01*
X13231Y-31946D01*
X13495Y-31682D01*
X13638Y-31337D01*
X13639Y-30964D01*
X13639Y-33632D01*
X11450Y-31442D01*
X11450Y-22411D01*
X11530Y-22605D01*
X11766Y-22842D01*
X12075Y-22970D01*
X12409Y-22970D01*
X12718Y-22843D01*
X12955Y-22606D01*
X13083Y-22297D01*
X13084Y-21963D01*
X12956Y-21654D01*
X12720Y-21417D01*
X12411Y-21289D01*
X12076Y-21289D01*
X11767Y-21417D01*
X11531Y-21653D01*
X11450Y-21848D01*
X11450Y-20507D01*
X13924Y-18032D01*
X14246Y-18353D01*
X14246Y-18353D01*
X14408Y-18461D01*
X14517Y-18483D01*
X14518Y-18711D01*
X14580Y-18774D01*
X15068Y-18774D01*
X15068Y-18766D01*
X15168Y-18766D01*
X15168Y-18774D01*
X15655Y-18774D01*
X15718Y-18711D01*
X15718Y-18500D01*
X16250Y-18500D01*
X16581Y-18831D01*
X16581Y-19243D01*
X16635Y-19372D01*
X16733Y-19470D01*
X16862Y-19523D01*
X17001Y-19524D01*
X17701Y-19524D01*
X17830Y-19470D01*
X17928Y-19372D01*
X17981Y-19243D01*
X17982Y-19104D01*
X17982Y-18404D01*
X17928Y-18276D01*
X17830Y-18177D01*
X17701Y-18124D01*
X17562Y-18123D01*
X17289Y-18123D01*
X17035Y-17870D01*
X17701Y-17870D01*
X17830Y-17816D01*
X17928Y-17718D01*
X17981Y-17589D01*
X17982Y-17450D01*
X17982Y-16750D01*
X17928Y-16622D01*
X17830Y-16523D01*
X17701Y-16470D01*
X17562Y-16469D01*
X17289Y-16469D01*
X16700Y-15880D01*
X16700Y-15243D01*
X16733Y-15276D01*
X16862Y-15329D01*
X17001Y-15330D01*
X17701Y-15330D01*
X17830Y-15276D01*
X17928Y-15178D01*
X17981Y-15049D01*
X17982Y-14910D01*
X17982Y-14210D01*
X17928Y-14082D01*
X17830Y-13983D01*
X17701Y-13930D01*
X17562Y-13929D01*
X16862Y-13929D01*
X16734Y-13983D01*
X16700Y-14017D01*
X16700Y-13589D01*
X16733Y-13622D01*
X16862Y-13675D01*
X17001Y-13676D01*
X17701Y-13676D01*
X17830Y-13622D01*
X17928Y-13524D01*
X17981Y-13395D01*
X17982Y-13256D01*
X17982Y-12556D01*
X17928Y-12428D01*
X17830Y-12329D01*
X17701Y-12276D01*
X17562Y-12275D01*
X16862Y-12275D01*
X16734Y-12329D01*
X16700Y-12363D01*
X16700Y-11937D01*
X16733Y-11970D01*
X16862Y-12023D01*
X17001Y-12024D01*
X17701Y-12024D01*
X17830Y-11970D01*
X17928Y-11872D01*
X17981Y-11743D01*
X17982Y-11604D01*
X17982Y-10904D01*
X17928Y-10776D01*
X17830Y-10677D01*
X17701Y-10624D01*
X17562Y-10623D01*
X16983Y-10623D01*
X17237Y-10370D01*
X17701Y-10370D01*
X17830Y-10316D01*
X17928Y-10218D01*
X17981Y-10089D01*
X17982Y-9950D01*
X17982Y-9250D01*
X17928Y-9122D01*
X17830Y-9023D01*
X17701Y-8970D01*
X17562Y-8969D01*
X16862Y-8969D01*
X16734Y-9023D01*
X16635Y-9121D01*
X16582Y-9250D01*
X16581Y-9389D01*
X16581Y-9610D01*
X15846Y-10346D01*
X15738Y-10508D01*
X15718Y-10609D01*
X15718Y-10069D01*
X15718Y-9270D01*
X15680Y-9178D01*
X15609Y-9108D01*
X15517Y-9070D01*
X15418Y-9069D01*
X15230Y-9070D01*
X15168Y-9132D01*
X15168Y-9620D01*
X15655Y-9620D01*
X15718Y-9557D01*
X15718Y-9270D01*
X15718Y-10069D01*
X15718Y-9782D01*
X15655Y-9720D01*
X15168Y-9720D01*
X15168Y-10207D01*
X15230Y-10270D01*
X15418Y-10270D01*
X15517Y-10269D01*
X15609Y-10231D01*
X15680Y-10161D01*
X15718Y-10069D01*
X15718Y-10609D01*
X15699Y-10700D01*
X15700Y-10700D01*
X15700Y-10880D01*
X15680Y-10832D01*
X15609Y-10762D01*
X15517Y-10724D01*
X15418Y-10723D01*
X15230Y-10724D01*
X15168Y-10786D01*
X15168Y-11274D01*
X15175Y-11274D01*
X15175Y-11374D01*
X15168Y-11374D01*
X15168Y-11861D01*
X15230Y-11924D01*
X15418Y-11924D01*
X15517Y-11923D01*
X15609Y-11885D01*
X15680Y-11815D01*
X15700Y-11767D01*
X15700Y-12532D01*
X15680Y-12484D01*
X15609Y-12414D01*
X15517Y-12376D01*
X15418Y-12375D01*
X15230Y-12376D01*
X15168Y-12438D01*
X15168Y-12926D01*
X15175Y-12926D01*
X15175Y-13026D01*
X15168Y-13026D01*
X15168Y-13513D01*
X15230Y-13576D01*
X15418Y-13576D01*
X15517Y-13575D01*
X15609Y-13537D01*
X15680Y-13467D01*
X15700Y-13419D01*
X15700Y-14186D01*
X15680Y-14138D01*
X15609Y-14068D01*
X15517Y-14030D01*
X15418Y-14029D01*
X15230Y-14030D01*
X15168Y-14092D01*
X15168Y-14580D01*
X15175Y-14580D01*
X15175Y-14680D01*
X15168Y-14680D01*
X15168Y-15167D01*
X15230Y-15230D01*
X15418Y-15230D01*
X15517Y-15229D01*
X15609Y-15191D01*
X15680Y-15121D01*
X15700Y-15073D01*
X15700Y-16087D01*
X15699Y-16088D01*
X15738Y-16279D01*
X15846Y-16441D01*
X16581Y-17177D01*
X16581Y-17524D01*
X16458Y-17499D01*
X16457Y-17500D01*
X15718Y-17500D01*
X15718Y-16770D01*
X15680Y-16678D01*
X15609Y-16608D01*
X15517Y-16570D01*
X15418Y-16569D01*
X15230Y-16570D01*
X15168Y-16632D01*
X15168Y-17120D01*
X15655Y-17120D01*
X15718Y-17057D01*
X15718Y-16770D01*
X15718Y-17500D01*
X15718Y-17500D01*
X15718Y-17282D01*
X15655Y-17220D01*
X15168Y-17220D01*
X15168Y-17227D01*
X15068Y-17227D01*
X15068Y-17220D01*
X15060Y-17220D01*
X15060Y-17120D01*
X15068Y-17120D01*
X15068Y-16632D01*
X15068Y-15167D01*
X15068Y-14680D01*
X15068Y-14580D01*
X15068Y-14092D01*
X15068Y-13513D01*
X15068Y-13026D01*
X15068Y-12926D01*
X15068Y-12438D01*
X15068Y-11861D01*
X15068Y-11374D01*
X15068Y-11274D01*
X15068Y-10786D01*
X15068Y-10207D01*
X15068Y-9720D01*
X15068Y-9620D01*
X15068Y-9132D01*
X15005Y-9070D01*
X14817Y-9069D01*
X14718Y-9070D01*
X14626Y-9108D01*
X14555Y-9178D01*
X14517Y-9270D01*
X14518Y-9557D01*
X14580Y-9620D01*
X15068Y-9620D01*
X15068Y-9720D01*
X14580Y-9720D01*
X14518Y-9782D01*
X14517Y-10069D01*
X14555Y-10161D01*
X14626Y-10231D01*
X14718Y-10269D01*
X14817Y-10270D01*
X15005Y-10270D01*
X15068Y-10207D01*
X15068Y-10786D01*
X15005Y-10724D01*
X14817Y-10723D01*
X14718Y-10724D01*
X14626Y-10762D01*
X14555Y-10832D01*
X14517Y-10924D01*
X14518Y-11211D01*
X14580Y-11274D01*
X15068Y-11274D01*
X15068Y-11374D01*
X14580Y-11374D01*
X14518Y-11436D01*
X14517Y-11723D01*
X14555Y-11815D01*
X14626Y-11885D01*
X14718Y-11923D01*
X14817Y-11924D01*
X15005Y-11924D01*
X15068Y-11861D01*
X15068Y-12438D01*
X15005Y-12376D01*
X14817Y-12375D01*
X14718Y-12376D01*
X14626Y-12414D01*
X14555Y-12484D01*
X14517Y-12576D01*
X14518Y-12863D01*
X14580Y-12926D01*
X15068Y-12926D01*
X15068Y-13026D01*
X14580Y-13026D01*
X14518Y-13088D01*
X14517Y-13375D01*
X14555Y-13467D01*
X14626Y-13537D01*
X14718Y-13575D01*
X14817Y-13576D01*
X15005Y-13576D01*
X15068Y-13513D01*
X15068Y-14092D01*
X15005Y-14030D01*
X14817Y-14029D01*
X14718Y-14030D01*
X14626Y-14068D01*
X14555Y-14138D01*
X14517Y-14230D01*
X14518Y-14517D01*
X14580Y-14580D01*
X15068Y-14580D01*
X15068Y-14680D01*
X14580Y-14680D01*
X14518Y-14742D01*
X14517Y-15029D01*
X14555Y-15121D01*
X14626Y-15191D01*
X14718Y-15229D01*
X14817Y-15230D01*
X15005Y-15230D01*
X15068Y-15167D01*
X15068Y-16632D01*
X15005Y-16570D01*
X14817Y-16569D01*
X14718Y-16570D01*
X14626Y-16608D01*
X14555Y-16678D01*
X14517Y-16770D01*
X14517Y-16825D01*
X14397Y-16705D01*
X14204Y-16625D01*
X13996Y-16624D01*
X13803Y-16704D01*
X13655Y-16852D01*
X13629Y-16912D01*
X12997Y-17545D01*
X13083Y-17337D01*
X13084Y-17003D01*
X13084Y-14463D01*
X13084Y-9503D01*
X12956Y-9194D01*
X12720Y-8957D01*
X12411Y-8829D01*
X12076Y-8829D01*
X11767Y-8957D01*
X11531Y-9193D01*
X11402Y-9502D01*
X11402Y-9836D01*
X11530Y-10145D01*
X11766Y-10382D01*
X12075Y-10510D01*
X12409Y-10510D01*
X12718Y-10383D01*
X12955Y-10146D01*
X13083Y-9837D01*
X13084Y-9503D01*
X13084Y-14463D01*
X12956Y-14154D01*
X12720Y-13917D01*
X12411Y-13789D01*
X12076Y-13789D01*
X11767Y-13917D01*
X11531Y-14153D01*
X11402Y-14462D01*
X11402Y-14796D01*
X11530Y-15105D01*
X11766Y-15342D01*
X12075Y-15470D01*
X12409Y-15470D01*
X12718Y-15343D01*
X12955Y-15106D01*
X13083Y-14797D01*
X13084Y-14463D01*
X13084Y-17003D01*
X12956Y-16694D01*
X12720Y-16457D01*
X12411Y-16329D01*
X12076Y-16329D01*
X11767Y-16457D01*
X11531Y-16693D01*
X11402Y-17002D01*
X11402Y-17336D01*
X11530Y-17645D01*
X11766Y-17882D01*
X12075Y-18010D01*
X12409Y-18010D01*
X12618Y-17924D01*
X10596Y-19946D01*
X10488Y-20108D01*
X10449Y-20300D01*
X10450Y-20300D01*
X10450Y-31649D01*
X10449Y-31650D01*
X10488Y-31841D01*
X10596Y-32003D01*
X12803Y-34211D01*
X12514Y-34210D01*
X12168Y-34353D01*
X11904Y-34617D01*
X11761Y-34962D01*
X11760Y-35335D01*
X11903Y-35681D01*
X12047Y-35825D01*
X10025Y-35825D01*
X10025Y-8225D01*
X18967Y-8225D01*
X18861Y-8296D01*
X18741Y-8474D01*
X18700Y-8685D01*
X18700Y-9114D01*
X18741Y-9325D01*
X18861Y-9503D01*
X19039Y-9622D01*
X19250Y-9664D01*
X19460Y-9622D01*
X19638Y-9503D01*
X19753Y-9331D01*
X19761Y-9356D01*
X19896Y-9524D01*
X20085Y-9627D01*
X20114Y-9633D01*
X20200Y-9584D01*
X20200Y-8950D01*
X20192Y-8950D01*
X20192Y-8850D01*
X20200Y-8850D01*
X20200Y-8842D01*
X20300Y-8842D01*
X20300Y-8850D01*
X20307Y-8850D01*
X20307Y-8950D01*
X20300Y-8950D01*
X20300Y-9584D01*
X20385Y-9633D01*
X20414Y-9627D01*
X20603Y-9524D01*
X20738Y-9356D01*
X20746Y-9331D01*
X20861Y-9503D01*
X20950Y-9563D01*
X20950Y-10949D01*
X20750Y-10949D01*
X20658Y-10987D01*
X20588Y-11058D01*
X20564Y-11115D01*
X20415Y-10756D01*
X20120Y-10460D01*
X19734Y-10300D01*
X19317Y-10299D01*
X18931Y-10459D01*
X18635Y-10754D01*
X18475Y-11140D01*
X18474Y-11557D01*
X18634Y-11944D01*
X18929Y-12239D01*
X19315Y-12399D01*
X19732Y-12400D01*
X20119Y-12240D01*
X20414Y-11945D01*
X20549Y-11619D01*
X20549Y-11849D01*
X20587Y-11941D01*
X20658Y-12011D01*
X20750Y-12049D01*
X20849Y-12050D01*
X21649Y-12050D01*
X21700Y-12029D01*
X21750Y-12049D01*
X21849Y-12050D01*
X22649Y-12050D01*
X22700Y-12029D01*
X22750Y-12049D01*
X22849Y-12050D01*
X23649Y-12050D01*
X23700Y-12029D01*
X23750Y-12049D01*
X23849Y-12050D01*
X24649Y-12050D01*
X24700Y-12029D01*
X24750Y-12049D01*
X24849Y-12050D01*
X25649Y-12050D01*
X25700Y-12029D01*
X25750Y-12049D01*
X25849Y-12050D01*
X26649Y-12050D01*
X26741Y-12012D01*
X26811Y-11941D01*
X26849Y-11849D01*
X26850Y-11750D01*
X26850Y-11150D01*
X26812Y-11058D01*
X26741Y-10988D01*
X26649Y-10950D01*
X26550Y-10949D01*
X26550Y-10949D01*
X26550Y-9563D01*
X26638Y-9503D01*
X26758Y-9325D01*
X26800Y-9114D01*
X26800Y-8685D01*
X26758Y-8474D01*
X26638Y-8296D01*
X26532Y-8225D01*
X27567Y-8225D01*
X27461Y-8296D01*
X27341Y-8474D01*
X27300Y-8685D01*
X27300Y-9114D01*
X27341Y-9325D01*
X27461Y-9503D01*
X27639Y-9622D01*
X27850Y-9664D01*
X28060Y-9622D01*
X28238Y-9503D01*
X28350Y-9337D01*
X28461Y-9503D01*
X28639Y-9622D01*
X28850Y-9664D01*
X29060Y-9622D01*
X29238Y-9503D01*
X29350Y-9337D01*
X29461Y-9503D01*
X29639Y-9622D01*
X29850Y-9664D01*
X30060Y-9622D01*
X30238Y-9503D01*
X30350Y-9337D01*
X30461Y-9503D01*
X30639Y-9622D01*
X30850Y-9664D01*
X31060Y-9622D01*
X31238Y-9503D01*
X31350Y-9337D01*
X31461Y-9503D01*
X31639Y-9622D01*
X31850Y-9664D01*
X32060Y-9622D01*
X32238Y-9503D01*
X32350Y-9337D01*
X32461Y-9503D01*
X32550Y-9563D01*
X32550Y-11125D01*
X32237Y-11437D01*
X32172Y-11535D01*
X32150Y-11650D01*
X32150Y-11877D01*
X32128Y-11826D01*
X32058Y-11755D01*
X31966Y-11717D01*
X31679Y-11718D01*
X31617Y-11780D01*
X31617Y-12268D01*
X31624Y-12268D01*
X31624Y-12368D01*
X31617Y-12368D01*
X31617Y-12855D01*
X31679Y-12918D01*
X31966Y-12918D01*
X32058Y-12880D01*
X32128Y-12809D01*
X32150Y-12758D01*
X32150Y-13712D01*
X32172Y-13826D01*
X32237Y-13924D01*
X32619Y-14306D01*
X32619Y-14881D01*
X32657Y-14973D01*
X32728Y-15043D01*
X32820Y-15081D01*
X32919Y-15082D01*
X33619Y-15082D01*
X33711Y-15044D01*
X33781Y-14973D01*
X33819Y-14881D01*
X33820Y-14782D01*
X33820Y-14082D01*
X33782Y-13990D01*
X33711Y-13920D01*
X33619Y-13882D01*
X33520Y-13881D01*
X33044Y-13881D01*
X32750Y-13587D01*
X32750Y-12997D01*
X32800Y-13017D01*
X32939Y-13018D01*
X33639Y-13018D01*
X33768Y-12964D01*
X33866Y-12866D01*
X33919Y-12737D01*
X33920Y-12598D01*
X33920Y-12137D01*
X34407Y-11650D01*
X35150Y-11650D01*
X35218Y-11717D01*
X34986Y-11718D01*
X34924Y-11780D01*
X34924Y-12268D01*
X35411Y-12268D01*
X35474Y-12205D01*
X35474Y-12017D01*
X35474Y-11973D01*
X35818Y-12317D01*
X35818Y-12317D01*
G37*
G54D32*
X35818Y-12317D02*
X35474Y-12662D01*
X35474Y-12618D01*
X35474Y-12430D01*
X35411Y-12368D01*
X34924Y-12368D01*
X34924Y-12855D01*
X34986Y-12918D01*
X35261Y-12918D01*
X35238Y-12952D01*
X35199Y-13144D01*
X35200Y-13144D01*
X35200Y-13881D01*
X34986Y-13882D01*
X34924Y-13944D01*
X34924Y-14432D01*
X34931Y-14432D01*
X34931Y-14532D01*
X34924Y-14532D01*
X34924Y-15019D01*
X34986Y-15082D01*
X35216Y-15082D01*
X35238Y-15191D01*
X35346Y-15353D01*
X35449Y-15457D01*
X35449Y-15519D01*
X35449Y-16119D01*
X35483Y-16200D01*
X34824Y-16200D01*
X34824Y-15019D01*
X34824Y-14532D01*
X34824Y-14432D01*
X34824Y-13944D01*
X34824Y-12855D01*
X34824Y-12368D01*
X34824Y-12268D01*
X34824Y-11780D01*
X34761Y-11718D01*
X34474Y-11717D01*
X34382Y-11755D01*
X34312Y-11826D01*
X34274Y-11918D01*
X34273Y-12017D01*
X34274Y-12205D01*
X34336Y-12268D01*
X34824Y-12268D01*
X34824Y-12368D01*
X34336Y-12368D01*
X34274Y-12430D01*
X34273Y-12618D01*
X34274Y-12717D01*
X34312Y-12809D01*
X34382Y-12880D01*
X34474Y-12918D01*
X34761Y-12918D01*
X34824Y-12855D01*
X34824Y-13944D01*
X34761Y-13882D01*
X34474Y-13881D01*
X34382Y-13919D01*
X34312Y-13990D01*
X34274Y-14082D01*
X34273Y-14181D01*
X34274Y-14369D01*
X34336Y-14432D01*
X34824Y-14432D01*
X34824Y-14532D01*
X34336Y-14532D01*
X34274Y-14594D01*
X34273Y-14782D01*
X34274Y-14881D01*
X34312Y-14973D01*
X34382Y-15044D01*
X34474Y-15082D01*
X34761Y-15082D01*
X34824Y-15019D01*
X34824Y-16200D01*
X32167Y-16200D01*
X32167Y-14782D01*
X32167Y-14181D01*
X32166Y-14082D01*
X32128Y-13990D01*
X32058Y-13919D01*
X31966Y-13881D01*
X31679Y-13882D01*
X31617Y-13944D01*
X31617Y-14432D01*
X32104Y-14432D01*
X32167Y-14369D01*
X32167Y-14181D01*
X32167Y-14782D01*
X32167Y-14594D01*
X32104Y-14532D01*
X31617Y-14532D01*
X31617Y-15019D01*
X31679Y-15082D01*
X31966Y-15082D01*
X32058Y-15044D01*
X32128Y-14973D01*
X32166Y-14881D01*
X32167Y-14782D01*
X32167Y-16200D01*
X31750Y-16200D01*
X31635Y-16222D01*
X31537Y-16287D01*
X31517Y-16308D01*
X31517Y-15019D01*
X31517Y-14532D01*
X31517Y-14432D01*
X31517Y-13944D01*
X31517Y-12855D01*
X31517Y-12368D01*
X31517Y-12268D01*
X31517Y-11780D01*
X31454Y-11718D01*
X31167Y-11717D01*
X31075Y-11755D01*
X31005Y-11826D01*
X30967Y-11918D01*
X30966Y-12017D01*
X30967Y-12205D01*
X31029Y-12268D01*
X31517Y-12268D01*
X31517Y-12368D01*
X31029Y-12368D01*
X30967Y-12430D01*
X30966Y-12618D01*
X30967Y-12717D01*
X31005Y-12809D01*
X31075Y-12880D01*
X31167Y-12918D01*
X31454Y-12918D01*
X31517Y-12855D01*
X31517Y-13944D01*
X31454Y-13882D01*
X31167Y-13881D01*
X31075Y-13919D01*
X31005Y-13990D01*
X30967Y-14082D01*
X30966Y-14181D01*
X30967Y-14369D01*
X31029Y-14432D01*
X31517Y-14432D01*
X31517Y-14532D01*
X31029Y-14532D01*
X30967Y-14594D01*
X30966Y-14782D01*
X30967Y-14881D01*
X31005Y-14973D01*
X31075Y-15044D01*
X31167Y-15082D01*
X31454Y-15082D01*
X31517Y-15019D01*
X31517Y-16308D01*
X30900Y-16925D01*
X30900Y-16549D01*
X30899Y-16450D01*
X30861Y-16358D01*
X30791Y-16287D01*
X30699Y-16249D01*
X30613Y-16249D01*
X30613Y-14762D01*
X30613Y-14062D01*
X30613Y-12598D01*
X30613Y-11898D01*
X30559Y-11770D01*
X30461Y-11671D01*
X30332Y-11618D01*
X30193Y-11617D01*
X29493Y-11617D01*
X29365Y-11671D01*
X29266Y-11769D01*
X29213Y-11898D01*
X29212Y-12037D01*
X29212Y-12737D01*
X29266Y-12866D01*
X29364Y-12964D01*
X29493Y-13017D01*
X29632Y-13018D01*
X30332Y-13018D01*
X30461Y-12964D01*
X30559Y-12866D01*
X30612Y-12737D01*
X30613Y-12598D01*
X30613Y-14062D01*
X30559Y-13934D01*
X30461Y-13835D01*
X30332Y-13782D01*
X30193Y-13781D01*
X29493Y-13781D01*
X29365Y-13835D01*
X29266Y-13933D01*
X29213Y-14062D01*
X29212Y-14201D01*
X29212Y-14901D01*
X29266Y-15030D01*
X29364Y-15128D01*
X29493Y-15181D01*
X29632Y-15182D01*
X30332Y-15182D01*
X30461Y-15128D01*
X30559Y-15030D01*
X30612Y-14901D01*
X30613Y-14762D01*
X30613Y-16249D01*
X30462Y-16250D01*
X30400Y-16312D01*
X30400Y-16850D01*
X30837Y-16850D01*
X30900Y-16787D01*
X30900Y-16549D01*
X30900Y-16925D01*
X30856Y-16969D01*
X30837Y-16950D01*
X30400Y-16950D01*
X30400Y-16957D01*
X30300Y-16957D01*
X30300Y-16950D01*
X29862Y-16950D01*
X29800Y-17012D01*
X29799Y-17250D01*
X29800Y-17349D01*
X29820Y-17400D01*
X29800Y-17450D01*
X29799Y-17549D01*
X29799Y-18349D01*
X29837Y-18441D01*
X29908Y-18511D01*
X30000Y-18549D01*
X30099Y-18550D01*
X30699Y-18550D01*
X30791Y-18512D01*
X30861Y-18441D01*
X30899Y-18349D01*
X30900Y-18274D01*
X31450Y-18824D01*
X31450Y-22470D01*
X31399Y-22450D01*
X31300Y-22449D01*
X30500Y-22449D01*
X30449Y-22470D01*
X30399Y-22450D01*
X30300Y-22449D01*
X29500Y-22449D01*
X29450Y-22470D01*
X29450Y-21378D01*
X29461Y-21366D01*
X29489Y-21300D01*
X29699Y-21300D01*
X29699Y-21349D01*
X29737Y-21441D01*
X29808Y-21511D01*
X29900Y-21549D01*
X29999Y-21550D01*
X30799Y-21550D01*
X30891Y-21512D01*
X30961Y-21441D01*
X30999Y-21349D01*
X31000Y-21250D01*
X31000Y-20650D01*
X30962Y-20558D01*
X30891Y-20488D01*
X30799Y-20450D01*
X30700Y-20449D01*
X30024Y-20449D01*
X30224Y-20250D01*
X30799Y-20250D01*
X30891Y-20212D01*
X30961Y-20141D01*
X30999Y-20049D01*
X31000Y-19950D01*
X31000Y-19350D01*
X30962Y-19258D01*
X30891Y-19188D01*
X30799Y-19150D01*
X30700Y-19149D01*
X29900Y-19149D01*
X29808Y-19187D01*
X29738Y-19258D01*
X29700Y-19350D01*
X29699Y-19449D01*
X29699Y-19925D01*
X29625Y-20000D01*
X29201Y-20000D01*
X29141Y-19939D01*
X28984Y-19875D01*
X28935Y-19875D01*
X28949Y-19800D01*
X28950Y-19800D01*
X28950Y-19354D01*
X29000Y-19374D01*
X29099Y-19375D01*
X29299Y-19375D01*
X29391Y-19337D01*
X29461Y-19266D01*
X29499Y-19174D01*
X29500Y-19075D01*
X29500Y-18625D01*
X29462Y-18533D01*
X29455Y-18526D01*
X29491Y-18512D01*
X29561Y-18441D01*
X29599Y-18349D01*
X29600Y-18250D01*
X29600Y-17450D01*
X29579Y-17399D01*
X29599Y-17349D01*
X29600Y-17250D01*
X29600Y-16450D01*
X29568Y-16375D01*
X29574Y-16375D01*
X29666Y-16337D01*
X29700Y-16303D01*
X29733Y-16337D01*
X29825Y-16375D01*
X29831Y-16375D01*
X29800Y-16450D01*
X29799Y-16549D01*
X29800Y-16787D01*
X29862Y-16850D01*
X30300Y-16850D01*
X30300Y-16312D01*
X30295Y-16308D01*
X30336Y-16266D01*
X30374Y-16174D01*
X30375Y-16075D01*
X30375Y-15724D01*
X30374Y-15625D01*
X30336Y-15533D01*
X30266Y-15462D01*
X30174Y-15424D01*
X30112Y-15425D01*
X30050Y-15487D01*
X30050Y-15850D01*
X30312Y-15850D01*
X30375Y-15787D01*
X30375Y-15724D01*
X30375Y-16075D01*
X30375Y-16012D01*
X30312Y-15950D01*
X30050Y-15950D01*
X30050Y-15957D01*
X29950Y-15957D01*
X29950Y-15950D01*
X29942Y-15950D01*
X29942Y-15850D01*
X29950Y-15850D01*
X29950Y-15487D01*
X29887Y-15425D01*
X29825Y-15424D01*
X29733Y-15462D01*
X29700Y-15496D01*
X29666Y-15463D01*
X29574Y-15425D01*
X29475Y-15424D01*
X29225Y-15424D01*
X29133Y-15462D01*
X29063Y-15533D01*
X29025Y-15625D01*
X29024Y-15724D01*
X29024Y-15850D01*
X28960Y-15915D01*
X28960Y-14762D01*
X28960Y-14062D01*
X28906Y-13934D01*
X28808Y-13835D01*
X28760Y-13815D01*
X28760Y-12984D01*
X28808Y-12964D01*
X28906Y-12866D01*
X28959Y-12737D01*
X28960Y-12598D01*
X28960Y-11898D01*
X28906Y-11770D01*
X28808Y-11671D01*
X28679Y-11618D01*
X28540Y-11617D01*
X27840Y-11617D01*
X27712Y-11671D01*
X27613Y-11769D01*
X27560Y-11898D01*
X27559Y-12037D01*
X27559Y-12737D01*
X27613Y-12866D01*
X27711Y-12964D01*
X27760Y-12984D01*
X27760Y-13815D01*
X27712Y-13835D01*
X27613Y-13933D01*
X27560Y-14062D01*
X27559Y-14201D01*
X27559Y-14901D01*
X27613Y-15030D01*
X27711Y-15128D01*
X27840Y-15181D01*
X27979Y-15182D01*
X28679Y-15182D01*
X28808Y-15128D01*
X28906Y-15030D01*
X28959Y-14901D01*
X28960Y-14762D01*
X28960Y-15915D01*
X28837Y-16037D01*
X28772Y-16135D01*
X28750Y-16249D01*
X28700Y-16249D01*
X28608Y-16287D01*
X28538Y-16358D01*
X28500Y-16450D01*
X28499Y-16549D01*
X28499Y-17349D01*
X28520Y-17400D01*
X28500Y-17450D01*
X28499Y-17549D01*
X28499Y-17775D01*
X27937Y-18337D01*
X27872Y-18435D01*
X27869Y-18453D01*
X27799Y-18424D01*
X27762Y-18425D01*
X27700Y-18487D01*
X27700Y-18850D01*
X27707Y-18850D01*
X27707Y-18950D01*
X27700Y-18950D01*
X27700Y-19312D01*
X27762Y-19375D01*
X27799Y-19375D01*
X27891Y-19337D01*
X27899Y-19328D01*
X27908Y-19336D01*
X28000Y-19374D01*
X28099Y-19375D01*
X28299Y-19375D01*
X28350Y-19354D01*
X28350Y-19675D01*
X28025Y-20000D01*
X27524Y-20000D01*
X27450Y-19925D01*
X27450Y-19354D01*
X27500Y-19375D01*
X27537Y-19375D01*
X27600Y-19312D01*
X27600Y-18950D01*
X27592Y-18950D01*
X27592Y-18850D01*
X27600Y-18850D01*
X27600Y-18487D01*
X27537Y-18425D01*
X27500Y-18424D01*
X27408Y-18462D01*
X27400Y-18471D01*
X27391Y-18463D01*
X27299Y-18425D01*
X27200Y-18424D01*
X27000Y-18424D01*
X26950Y-18445D01*
X26950Y-18350D01*
X27099Y-18350D01*
X27191Y-18312D01*
X27261Y-18241D01*
X27299Y-18149D01*
X27300Y-18050D01*
X27300Y-17450D01*
X27262Y-17358D01*
X27191Y-17288D01*
X27099Y-17250D01*
X27000Y-17249D01*
X26200Y-17249D01*
X26108Y-17287D01*
X26085Y-17311D01*
X25874Y-17100D01*
X25875Y-17015D01*
X25810Y-16859D01*
X25691Y-16739D01*
X25563Y-16687D01*
X25599Y-16599D01*
X25600Y-16500D01*
X25600Y-16450D01*
X25999Y-16450D01*
X25999Y-16849D01*
X26037Y-16941D01*
X26108Y-17011D01*
X26200Y-17049D01*
X26299Y-17050D01*
X27099Y-17050D01*
X27191Y-17012D01*
X27261Y-16941D01*
X27299Y-16849D01*
X27300Y-16750D01*
X27300Y-16150D01*
X27262Y-16058D01*
X27191Y-15988D01*
X27099Y-15950D01*
X27000Y-15949D01*
X26524Y-15949D01*
X26512Y-15937D01*
X26414Y-15872D01*
X26300Y-15850D01*
X25600Y-15850D01*
X25600Y-15700D01*
X25562Y-15608D01*
X25491Y-15538D01*
X25399Y-15500D01*
X25350Y-15500D01*
X25350Y-14800D01*
X25399Y-14800D01*
X25491Y-14762D01*
X25561Y-14691D01*
X25599Y-14599D01*
X25600Y-14549D01*
X25696Y-14781D01*
X25932Y-15018D01*
X26241Y-15146D01*
X26575Y-15146D01*
X26884Y-15018D01*
X27121Y-14782D01*
X27249Y-14473D01*
X27249Y-14139D01*
X27121Y-13830D01*
X26885Y-13593D01*
X26576Y-13465D01*
X26242Y-13465D01*
X26185Y-13489D01*
X26324Y-13350D01*
X26649Y-13350D01*
X26741Y-13312D01*
X26811Y-13241D01*
X26849Y-13149D01*
X26850Y-13050D01*
X26850Y-12450D01*
X26812Y-12358D01*
X26741Y-12288D01*
X26649Y-12250D01*
X26550Y-12249D01*
X25750Y-12249D01*
X25699Y-12270D01*
X25649Y-12250D01*
X25550Y-12249D01*
X24750Y-12249D01*
X24699Y-12270D01*
X24649Y-12250D01*
X24550Y-12249D01*
X23750Y-12249D01*
X23699Y-12270D01*
X23649Y-12250D01*
X23550Y-12249D01*
X22750Y-12249D01*
X22699Y-12270D01*
X22649Y-12250D01*
X22550Y-12249D01*
X21750Y-12249D01*
X21699Y-12270D01*
X21649Y-12250D01*
X21550Y-12249D01*
X20750Y-12249D01*
X20658Y-12287D01*
X20588Y-12358D01*
X20550Y-12450D01*
X20549Y-12549D01*
X20549Y-12825D01*
X19775Y-13599D01*
X19200Y-13599D01*
X19108Y-13637D01*
X19038Y-13708D01*
X19000Y-13800D01*
X18999Y-13899D01*
X18999Y-14499D01*
X19037Y-14591D01*
X19096Y-14650D01*
X19037Y-14708D01*
X18999Y-14800D01*
X19000Y-15037D01*
X19062Y-15100D01*
X19600Y-15100D01*
X19600Y-15092D01*
X19700Y-15092D01*
X19700Y-15100D01*
X19707Y-15100D01*
X19707Y-15200D01*
X19700Y-15200D01*
X19700Y-15207D01*
X19600Y-15207D01*
X19600Y-15200D01*
X19062Y-15200D01*
X19000Y-15262D01*
X18999Y-15499D01*
X19037Y-15591D01*
X19096Y-15650D01*
X19038Y-15708D01*
X19000Y-15800D01*
X18999Y-15899D01*
X18999Y-16499D01*
X19037Y-16591D01*
X19096Y-16650D01*
X19037Y-16708D01*
X18999Y-16800D01*
X19000Y-17037D01*
X19062Y-17100D01*
X19600Y-17100D01*
X19600Y-17092D01*
X19700Y-17092D01*
X19700Y-17100D01*
X19707Y-17100D01*
X19707Y-17200D01*
X19700Y-17200D01*
X19700Y-17637D01*
X19762Y-17700D01*
X19925Y-17700D01*
X19775Y-17849D01*
X19600Y-17849D01*
X19600Y-17637D01*
X19600Y-17200D01*
X19062Y-17200D01*
X19000Y-17262D01*
X18999Y-17499D01*
X19037Y-17591D01*
X19108Y-17661D01*
X19200Y-17699D01*
X19299Y-17700D01*
X19537Y-17700D01*
X19600Y-17637D01*
X19600Y-17849D01*
X19200Y-17849D01*
X19108Y-17887D01*
X19038Y-17958D01*
X19000Y-18050D01*
X18999Y-18149D01*
X18999Y-18749D01*
X19037Y-18841D01*
X19096Y-18900D01*
X19037Y-18958D01*
X18999Y-19050D01*
X19000Y-19287D01*
X19062Y-19350D01*
X19600Y-19350D01*
X19600Y-19342D01*
X19700Y-19342D01*
X19700Y-19350D01*
X20237Y-19350D01*
X20300Y-19287D01*
X20300Y-19050D01*
X20262Y-18958D01*
X20203Y-18899D01*
X20261Y-18841D01*
X20299Y-18749D01*
X20300Y-18650D01*
X20300Y-18174D01*
X20812Y-17662D01*
X20812Y-17662D01*
X20877Y-17564D01*
X20899Y-17450D01*
X20900Y-17450D01*
X20900Y-14874D01*
X22018Y-13755D01*
X22000Y-13800D01*
X21999Y-13899D01*
X21999Y-14499D01*
X22037Y-14591D01*
X22096Y-14650D01*
X22038Y-14708D01*
X22000Y-14800D01*
X21999Y-14899D01*
X21999Y-15499D01*
X22037Y-15591D01*
X22096Y-15650D01*
X22038Y-15708D01*
X22000Y-15800D01*
X21999Y-15899D01*
X21999Y-16499D01*
X22037Y-16591D01*
X22096Y-16650D01*
X22038Y-16708D01*
X22000Y-16800D01*
X21999Y-16899D01*
X21999Y-17499D01*
X22037Y-17591D01*
X22108Y-17661D01*
X22200Y-17699D01*
X22299Y-17700D01*
X23099Y-17700D01*
X23191Y-17662D01*
X23261Y-17591D01*
X23299Y-17499D01*
X23299Y-17450D01*
X24100Y-17450D01*
X24100Y-17750D01*
X24099Y-17750D01*
X24000Y-17749D01*
X23400Y-17749D01*
X23308Y-17787D01*
X23238Y-17858D01*
X23215Y-17912D01*
X23191Y-17888D01*
X23099Y-17850D01*
X23000Y-17849D01*
X22200Y-17849D01*
X22108Y-17887D01*
X22038Y-17958D01*
X22000Y-18050D01*
X21999Y-18149D01*
X21999Y-18749D01*
X22037Y-18841D01*
X22096Y-18900D01*
X22038Y-18958D01*
X22000Y-19050D01*
X21999Y-19149D01*
X21999Y-19225D01*
X21637Y-19587D01*
X21572Y-19685D01*
X21550Y-19800D01*
X21550Y-20600D01*
X21572Y-20714D01*
X21637Y-20812D01*
X21999Y-21174D01*
X21999Y-21625D01*
X21287Y-22337D01*
X21222Y-22435D01*
X21200Y-22550D01*
X21200Y-24875D01*
X20925Y-25150D01*
X20925Y-24565D01*
X20925Y-22565D01*
X20860Y-22409D01*
X20825Y-22374D01*
X20825Y-20265D01*
X20760Y-20109D01*
X20641Y-19989D01*
X20484Y-19925D01*
X20315Y-19924D01*
X20253Y-19950D01*
X20203Y-19900D01*
X20262Y-19841D01*
X20300Y-19749D01*
X20300Y-19512D01*
X20237Y-19450D01*
X19700Y-19450D01*
X19700Y-19457D01*
X19600Y-19457D01*
X19600Y-19450D01*
X19062Y-19450D01*
X19000Y-19512D01*
X18999Y-19749D01*
X19037Y-19841D01*
X19096Y-19900D01*
X19038Y-19958D01*
X19000Y-20050D01*
X18999Y-20149D01*
X18999Y-20749D01*
X19037Y-20841D01*
X19096Y-20900D01*
X19037Y-20958D01*
X18999Y-21050D01*
X19000Y-21287D01*
X19062Y-21350D01*
X19600Y-21350D01*
X19600Y-21342D01*
X19700Y-21342D01*
X19700Y-21350D01*
X20237Y-21350D01*
X20300Y-21287D01*
X20300Y-21050D01*
X20262Y-20958D01*
X20203Y-20899D01*
X20261Y-20841D01*
X20293Y-20765D01*
X20315Y-20774D01*
X20484Y-20775D01*
X20640Y-20710D01*
X20760Y-20591D01*
X20824Y-20434D01*
X20825Y-20265D01*
X20825Y-22374D01*
X20741Y-22289D01*
X20584Y-22225D01*
X20415Y-22224D01*
X20300Y-22272D01*
X20300Y-21749D01*
X20300Y-21512D01*
X20237Y-21450D01*
X19700Y-21450D01*
X19700Y-21887D01*
X19762Y-21950D01*
X20000Y-21950D01*
X20099Y-21949D01*
X20191Y-21911D01*
X20262Y-21841D01*
X20300Y-21749D01*
X20300Y-22272D01*
X20290Y-22276D01*
X20262Y-22208D01*
X20191Y-22138D01*
X20099Y-22100D01*
X20000Y-22099D01*
X19600Y-22099D01*
X19600Y-21887D01*
X19600Y-21450D01*
X19062Y-21450D01*
X19000Y-21512D01*
X18999Y-21749D01*
X19037Y-21841D01*
X19108Y-21911D01*
X19200Y-21949D01*
X19299Y-21950D01*
X19537Y-21950D01*
X19600Y-21887D01*
X19600Y-22099D01*
X19200Y-22099D01*
X19108Y-22137D01*
X19038Y-22208D01*
X19000Y-22300D01*
X18999Y-22399D01*
X18999Y-22999D01*
X19037Y-23091D01*
X19096Y-23150D01*
X19037Y-23208D01*
X18999Y-23300D01*
X19000Y-23537D01*
X19062Y-23600D01*
X19600Y-23600D01*
X19600Y-23592D01*
X19700Y-23592D01*
X19700Y-23600D01*
X20237Y-23600D01*
X20300Y-23537D01*
X20300Y-23300D01*
X20262Y-23208D01*
X20203Y-23149D01*
X20261Y-23091D01*
X20290Y-23023D01*
X20415Y-23074D01*
X20584Y-23075D01*
X20740Y-23010D01*
X20860Y-22891D01*
X20924Y-22734D01*
X20925Y-22565D01*
X20925Y-24565D01*
X20860Y-24409D01*
X20741Y-24289D01*
X20584Y-24225D01*
X20415Y-24224D01*
X20290Y-24276D01*
X20262Y-24208D01*
X20203Y-24150D01*
X20262Y-24091D01*
X20300Y-23999D01*
X20300Y-23762D01*
X20237Y-23700D01*
X19700Y-23700D01*
X19700Y-23707D01*
X19600Y-23707D01*
X19600Y-23700D01*
X19062Y-23700D01*
X19000Y-23762D01*
X18999Y-23999D01*
X19037Y-24091D01*
X19096Y-24150D01*
X19038Y-24208D01*
X19000Y-24300D01*
X18999Y-24399D01*
X18999Y-24999D01*
X19037Y-25091D01*
X19096Y-25150D01*
X19037Y-25208D01*
X18999Y-25300D01*
X19000Y-25537D01*
X19062Y-25600D01*
X19600Y-25600D01*
X19600Y-25592D01*
X19700Y-25592D01*
X19700Y-25600D01*
X20237Y-25600D01*
X20300Y-25537D01*
X20300Y-25300D01*
X20262Y-25208D01*
X20203Y-25149D01*
X20261Y-25091D01*
X20290Y-25023D01*
X20415Y-25074D01*
X20584Y-25075D01*
X20740Y-25010D01*
X20860Y-24891D01*
X20924Y-24734D01*
X20925Y-24565D01*
X20925Y-25150D01*
X20300Y-25775D01*
X20300Y-25762D01*
X20237Y-25700D01*
X19700Y-25700D01*
X19700Y-25707D01*
X19600Y-25707D01*
X19600Y-25700D01*
X19062Y-25700D01*
X19000Y-25762D01*
X18999Y-25999D01*
X19037Y-26091D01*
X19108Y-26161D01*
X19182Y-26192D01*
X18814Y-26561D01*
X18791Y-26538D01*
X18699Y-26500D01*
X18600Y-26499D01*
X18000Y-26499D01*
X17982Y-26507D01*
X17982Y-22410D01*
X17982Y-21710D01*
X17982Y-20756D01*
X17982Y-20056D01*
X17928Y-19928D01*
X17830Y-19829D01*
X17701Y-19776D01*
X17562Y-19775D01*
X16862Y-19775D01*
X16734Y-19829D01*
X16635Y-19927D01*
X16582Y-20056D01*
X16581Y-20195D01*
X16581Y-20895D01*
X16635Y-21024D01*
X16733Y-21122D01*
X16862Y-21175D01*
X17001Y-21176D01*
X17701Y-21176D01*
X17830Y-21122D01*
X17928Y-21024D01*
X17981Y-20895D01*
X17982Y-20756D01*
X17982Y-21710D01*
X17928Y-21582D01*
X17830Y-21483D01*
X17701Y-21430D01*
X17562Y-21429D01*
X16862Y-21429D01*
X16734Y-21483D01*
X16635Y-21581D01*
X16582Y-21710D01*
X16581Y-21849D01*
X16581Y-22549D01*
X16635Y-22678D01*
X16733Y-22776D01*
X16862Y-22829D01*
X17001Y-22830D01*
X17701Y-22830D01*
X17830Y-22776D01*
X17928Y-22678D01*
X17981Y-22549D01*
X17982Y-22410D01*
X17982Y-26507D01*
X17908Y-26537D01*
X17838Y-26608D01*
X17800Y-26700D01*
X17799Y-26799D01*
X17799Y-27599D01*
X17837Y-27691D01*
X17908Y-27761D01*
X18000Y-27799D01*
X18099Y-27800D01*
X18699Y-27800D01*
X18791Y-27762D01*
X18861Y-27691D01*
X18899Y-27599D01*
X18900Y-27500D01*
X18900Y-27324D01*
X19300Y-26924D01*
X19299Y-26999D01*
X19299Y-27599D01*
X19337Y-27691D01*
X19408Y-27761D01*
X19500Y-27799D01*
X19599Y-27800D01*
X20399Y-27800D01*
X20491Y-27762D01*
X20561Y-27691D01*
X20574Y-27660D01*
X20587Y-27691D01*
X20658Y-27761D01*
X20750Y-27799D01*
X20849Y-27800D01*
X21649Y-27800D01*
X21741Y-27762D01*
X21811Y-27691D01*
X21849Y-27599D01*
X21850Y-27500D01*
X21850Y-26900D01*
X21842Y-26881D01*
X22524Y-26200D01*
X23099Y-26200D01*
X23191Y-26162D01*
X23215Y-26137D01*
X23237Y-26191D01*
X23308Y-26261D01*
X23400Y-26299D01*
X23422Y-26299D01*
X23375Y-26415D01*
X23374Y-26584D01*
X23439Y-26740D01*
X23558Y-26860D01*
X23715Y-26924D01*
X23884Y-26925D01*
X24040Y-26860D01*
X24160Y-26741D01*
X24224Y-26584D01*
X24225Y-26415D01*
X24165Y-26272D01*
X24191Y-26262D01*
X24261Y-26191D01*
X24299Y-26099D01*
X24300Y-26000D01*
X24300Y-25200D01*
X24279Y-25149D01*
X24299Y-25099D01*
X24300Y-25000D01*
X24300Y-24200D01*
X24279Y-24149D01*
X24293Y-24115D01*
X24315Y-24124D01*
X24484Y-24125D01*
X24506Y-24115D01*
X24520Y-24150D01*
X24500Y-24200D01*
X24499Y-24299D01*
X24499Y-25099D01*
X24520Y-25150D01*
X24500Y-25200D01*
X24499Y-25299D01*
X24499Y-26099D01*
X24537Y-26191D01*
X24608Y-26261D01*
X24700Y-26299D01*
X24799Y-26300D01*
X25399Y-26300D01*
X25491Y-26262D01*
X25561Y-26191D01*
X25599Y-26099D01*
X25600Y-26000D01*
X25600Y-25950D01*
X26548Y-25950D01*
X26489Y-26008D01*
X26425Y-26165D01*
X26424Y-26334D01*
X26441Y-26375D01*
X24700Y-26375D01*
X24585Y-26397D01*
X24487Y-26462D01*
X23806Y-27143D01*
X23639Y-27177D01*
X23461Y-27296D01*
X23350Y-27462D01*
X23238Y-27296D01*
X23060Y-27177D01*
X22850Y-27135D01*
X22639Y-27177D01*
X22461Y-27296D01*
X22341Y-27474D01*
X22300Y-27685D01*
X22300Y-28114D01*
X22341Y-28325D01*
X22461Y-28503D01*
X22639Y-28622D01*
X22850Y-28664D01*
X23060Y-28622D01*
X23238Y-28503D01*
X23350Y-28337D01*
X23461Y-28503D01*
X23639Y-28622D01*
X23850Y-28664D01*
X24060Y-28622D01*
X24238Y-28503D01*
X24350Y-28337D01*
X24461Y-28503D01*
X24639Y-28622D01*
X24850Y-28664D01*
X25060Y-28622D01*
X25238Y-28503D01*
X25353Y-28331D01*
X25361Y-28356D01*
X25496Y-28524D01*
X25685Y-28627D01*
X25714Y-28633D01*
X25800Y-28584D01*
X25800Y-27950D01*
X25792Y-27950D01*
X25792Y-27850D01*
X25800Y-27850D01*
X25800Y-27842D01*
X25900Y-27842D01*
X25900Y-27850D01*
X26300Y-27850D01*
X26400Y-27850D01*
X26800Y-27850D01*
X26800Y-27842D01*
X26900Y-27842D01*
X26900Y-27850D01*
X26907Y-27850D01*
X26907Y-27950D01*
X26900Y-27950D01*
X26900Y-27957D01*
X26800Y-27957D01*
X26800Y-27950D01*
X26400Y-27950D01*
X26300Y-27950D01*
X25900Y-27950D01*
X25900Y-28584D01*
X25985Y-28633D01*
X26014Y-28627D01*
X26203Y-28524D01*
X26338Y-28356D01*
X26350Y-28319D01*
X26361Y-28356D01*
X26496Y-28524D01*
X26685Y-28627D01*
X26714Y-28633D01*
X26799Y-28584D01*
X26799Y-28586D01*
X26268Y-29117D01*
X25856Y-29117D01*
X25728Y-29171D01*
X25629Y-29269D01*
X25576Y-29398D01*
X25575Y-29537D01*
X25575Y-30062D01*
X25324Y-29810D01*
X25324Y-29398D01*
X25270Y-29270D01*
X25172Y-29171D01*
X25043Y-29118D01*
X24904Y-29117D01*
X24204Y-29117D01*
X24076Y-29171D01*
X23977Y-29269D01*
X23924Y-29398D01*
X23923Y-29537D01*
X23923Y-29818D01*
X23670Y-30072D01*
X23670Y-29398D01*
X23616Y-29270D01*
X23518Y-29171D01*
X23389Y-29118D01*
X23250Y-29117D01*
X22550Y-29117D01*
X22422Y-29171D01*
X22323Y-29269D01*
X22270Y-29398D01*
X22269Y-29537D01*
X22269Y-30237D01*
X22323Y-30366D01*
X22372Y-30415D01*
X22258Y-30438D01*
X22096Y-30546D01*
X21475Y-31167D01*
X21477Y-31164D01*
X21499Y-31050D01*
X21500Y-31050D01*
X21500Y-29100D01*
X21649Y-29100D01*
X21741Y-29062D01*
X21811Y-28991D01*
X21849Y-28899D01*
X21850Y-28800D01*
X21850Y-28200D01*
X21812Y-28108D01*
X21741Y-28038D01*
X21649Y-28000D01*
X21550Y-27999D01*
X20750Y-27999D01*
X20658Y-28037D01*
X20588Y-28108D01*
X20575Y-28139D01*
X20562Y-28108D01*
X20491Y-28038D01*
X20399Y-28000D01*
X20300Y-27999D01*
X19500Y-27999D01*
X19408Y-28037D01*
X19338Y-28108D01*
X19300Y-28200D01*
X19300Y-28250D01*
X18900Y-28250D01*
X18785Y-28272D01*
X18687Y-28337D01*
X18100Y-28924D01*
X17600Y-28924D01*
X17600Y-27500D01*
X17600Y-26700D01*
X17562Y-26608D01*
X17491Y-26538D01*
X17399Y-26500D01*
X17300Y-26499D01*
X16824Y-26499D01*
X16762Y-26437D01*
X16664Y-26372D01*
X16550Y-26350D01*
X15718Y-26350D01*
X15718Y-22529D01*
X15718Y-21730D01*
X15718Y-20875D01*
X15718Y-20076D01*
X15718Y-19223D01*
X15718Y-18936D01*
X15655Y-18874D01*
X15168Y-18874D01*
X15168Y-19361D01*
X15230Y-19424D01*
X15418Y-19424D01*
X15517Y-19423D01*
X15609Y-19385D01*
X15680Y-19315D01*
X15718Y-19223D01*
X15718Y-20076D01*
X15680Y-19984D01*
X15609Y-19914D01*
X15517Y-19876D01*
X15418Y-19875D01*
X15230Y-19876D01*
X15168Y-19938D01*
X15168Y-20426D01*
X15655Y-20426D01*
X15718Y-20363D01*
X15718Y-20076D01*
X15718Y-20875D01*
X15718Y-20588D01*
X15655Y-20526D01*
X15168Y-20526D01*
X15168Y-21013D01*
X15230Y-21076D01*
X15418Y-21076D01*
X15517Y-21075D01*
X15609Y-21037D01*
X15680Y-20967D01*
X15718Y-20875D01*
X15718Y-21730D01*
X15680Y-21638D01*
X15609Y-21568D01*
X15517Y-21530D01*
X15418Y-21529D01*
X15230Y-21530D01*
X15168Y-21592D01*
X15168Y-22080D01*
X15655Y-22080D01*
X15718Y-22017D01*
X15718Y-21730D01*
X15718Y-22529D01*
X15718Y-22242D01*
X15655Y-22180D01*
X15168Y-22180D01*
X15168Y-22667D01*
X15230Y-22730D01*
X15418Y-22730D01*
X15517Y-22729D01*
X15609Y-22691D01*
X15680Y-22621D01*
X15718Y-22529D01*
X15718Y-26350D01*
X15171Y-26350D01*
X15166Y-26338D01*
X15068Y-26240D01*
X15068Y-22667D01*
X15068Y-22180D01*
X15068Y-22080D01*
X15068Y-21592D01*
X15068Y-21013D01*
X15068Y-20526D01*
X15068Y-20426D01*
X15068Y-19938D01*
X15068Y-19361D01*
X15068Y-18874D01*
X14580Y-18874D01*
X14518Y-18936D01*
X14517Y-19223D01*
X14555Y-19315D01*
X14626Y-19385D01*
X14718Y-19423D01*
X14817Y-19424D01*
X15005Y-19424D01*
X15068Y-19361D01*
X15068Y-19938D01*
X15005Y-19876D01*
X14817Y-19875D01*
X14718Y-19876D01*
X14626Y-19914D01*
X14555Y-19984D01*
X14517Y-20076D01*
X14518Y-20363D01*
X14580Y-20426D01*
X15068Y-20426D01*
X15068Y-20526D01*
X14580Y-20526D01*
X14518Y-20588D01*
X14517Y-20875D01*
X14555Y-20967D01*
X14626Y-21037D01*
X14718Y-21075D01*
X14817Y-21076D01*
X15005Y-21076D01*
X15068Y-21013D01*
X15068Y-21592D01*
X15005Y-21530D01*
X14817Y-21529D01*
X14718Y-21530D01*
X14626Y-21568D01*
X14555Y-21638D01*
X14517Y-21730D01*
X14518Y-22017D01*
X14580Y-22080D01*
X15068Y-22080D01*
X15068Y-22180D01*
X14580Y-22180D01*
X14518Y-22242D01*
X14517Y-22529D01*
X14555Y-22621D01*
X14626Y-22691D01*
X14718Y-22729D01*
X14817Y-22730D01*
X15005Y-22730D01*
X15068Y-22667D01*
X15068Y-26240D01*
X15011Y-26184D01*
X14809Y-26100D01*
X14591Y-26099D01*
X14388Y-26183D01*
X14234Y-26338D01*
X14150Y-26540D01*
X14149Y-26758D01*
X14233Y-26961D01*
X14388Y-27115D01*
X14463Y-27147D01*
X14412Y-27168D01*
X14384Y-27264D01*
X14700Y-27579D01*
X15015Y-27264D01*
X14987Y-27168D01*
X14932Y-27149D01*
X15011Y-27116D01*
X15165Y-26961D01*
X15170Y-26950D01*
X16425Y-26950D01*
X16499Y-27024D01*
X16499Y-27599D01*
X16537Y-27691D01*
X16608Y-27761D01*
X16700Y-27799D01*
X16799Y-27800D01*
X17399Y-27800D01*
X17491Y-27762D01*
X17561Y-27691D01*
X17599Y-27599D01*
X17600Y-27500D01*
X17600Y-28924D01*
X17525Y-28924D01*
X17433Y-28962D01*
X17363Y-29033D01*
X17325Y-29125D01*
X17324Y-29224D01*
X17324Y-29824D01*
X17362Y-29916D01*
X17433Y-29986D01*
X17525Y-30024D01*
X17624Y-30025D01*
X18424Y-30025D01*
X18516Y-29987D01*
X18586Y-29916D01*
X18624Y-29824D01*
X18625Y-29725D01*
X18625Y-29249D01*
X19024Y-28850D01*
X19299Y-28850D01*
X19299Y-28899D01*
X19337Y-28991D01*
X19408Y-29061D01*
X19500Y-29099D01*
X19599Y-29100D01*
X20399Y-29100D01*
X20491Y-29062D01*
X20561Y-28991D01*
X20574Y-28960D01*
X20587Y-28991D01*
X20658Y-29061D01*
X20750Y-29099D01*
X20849Y-29100D01*
X20900Y-29100D01*
X20900Y-30925D01*
X19718Y-32107D01*
X19598Y-32058D01*
X19303Y-32057D01*
X19030Y-32170D01*
X18821Y-32379D01*
X18750Y-32550D01*
X18750Y-32425D01*
X18727Y-32310D01*
X18662Y-32212D01*
X18662Y-32212D01*
X18275Y-31825D01*
X18275Y-31325D01*
X18424Y-31325D01*
X18516Y-31287D01*
X18586Y-31216D01*
X18624Y-31124D01*
X18625Y-31071D01*
X18634Y-31094D01*
X18929Y-31389D01*
X19315Y-31549D01*
X19732Y-31550D01*
X20119Y-31390D01*
X20414Y-31095D01*
X20574Y-30709D01*
X20575Y-30292D01*
X20415Y-29906D01*
X20120Y-29610D01*
X19734Y-29450D01*
X19317Y-29449D01*
X18931Y-29609D01*
X18635Y-29904D01*
X18490Y-30252D01*
X18424Y-30225D01*
X18325Y-30224D01*
X17525Y-30224D01*
X17433Y-30262D01*
X17363Y-30333D01*
X17325Y-30425D01*
X17324Y-30524D01*
X17324Y-31124D01*
X17362Y-31216D01*
X17433Y-31286D01*
X17525Y-31324D01*
X17624Y-31325D01*
X17675Y-31325D01*
X17675Y-31950D01*
X17697Y-32064D01*
X17729Y-32112D01*
X17598Y-32058D01*
X17303Y-32057D01*
X17030Y-32170D01*
X16821Y-32379D01*
X16708Y-32651D01*
X16707Y-32946D01*
X16820Y-33219D01*
X17029Y-33428D01*
X17200Y-33500D01*
X16674Y-33500D01*
X16112Y-32937D01*
X16014Y-32872D01*
X15900Y-32850D01*
X15254Y-32850D01*
X15254Y-27731D01*
X15243Y-27513D01*
X15181Y-27362D01*
X15085Y-27334D01*
X14770Y-27650D01*
X15085Y-27965D01*
X15181Y-27937D01*
X15254Y-27731D01*
X15254Y-32850D01*
X15171Y-32850D01*
X15166Y-32838D01*
X15015Y-32687D01*
X15015Y-28035D01*
X14700Y-27720D01*
X14629Y-27791D01*
X14629Y-27650D01*
X14314Y-27334D01*
X14218Y-27362D01*
X14145Y-27568D01*
X14156Y-27786D01*
X14218Y-27937D01*
X14314Y-27965D01*
X14629Y-27650D01*
X14629Y-27791D01*
X14384Y-28035D01*
X14412Y-28131D01*
X14618Y-28204D01*
X14836Y-28193D01*
X14987Y-28131D01*
X15015Y-28035D01*
X15015Y-32687D01*
X15011Y-32684D01*
X14809Y-32600D01*
X14591Y-32599D01*
X14388Y-32683D01*
X14234Y-32838D01*
X14150Y-33040D01*
X14149Y-33258D01*
X14233Y-33461D01*
X14388Y-33615D01*
X14463Y-33647D01*
X14412Y-33668D01*
X14384Y-33764D01*
X14700Y-34079D01*
X15015Y-33764D01*
X14987Y-33668D01*
X14932Y-33649D01*
X15011Y-33616D01*
X15165Y-33461D01*
X15170Y-33450D01*
X15775Y-33450D01*
X16337Y-34012D01*
X16337Y-34012D01*
X16435Y-34077D01*
X16550Y-34100D01*
X17200Y-34100D01*
X17030Y-34170D01*
X16821Y-34379D01*
X16708Y-34651D01*
X16707Y-34946D01*
X16820Y-35219D01*
X16950Y-35350D01*
X15357Y-35350D01*
X15254Y-35247D01*
X15254Y-34231D01*
X15243Y-34013D01*
X15181Y-33862D01*
X15085Y-33834D01*
X14770Y-34150D01*
X15085Y-34465D01*
X15181Y-34437D01*
X15254Y-34231D01*
X15254Y-35247D01*
X14707Y-34700D01*
X14836Y-34693D01*
X14987Y-34631D01*
X15015Y-34535D01*
X14700Y-34220D01*
X14694Y-34226D01*
X14623Y-34155D01*
X14629Y-34150D01*
X14314Y-33834D01*
X14218Y-33862D01*
X14145Y-34068D01*
X14148Y-34141D01*
X13639Y-33632D01*
X13639Y-30964D01*
X13639Y-28464D01*
X13639Y-24464D01*
X13496Y-24118D01*
X13232Y-23854D01*
X12887Y-23711D01*
X12514Y-23710D01*
X12168Y-23853D01*
X11904Y-24117D01*
X11761Y-24462D01*
X11760Y-24835D01*
X11903Y-25181D01*
X12167Y-25445D01*
X12512Y-25588D01*
X12885Y-25589D01*
X13231Y-25446D01*
X13495Y-25182D01*
X13638Y-24837D01*
X13639Y-24464D01*
X13639Y-28464D01*
X13496Y-28118D01*
X13232Y-27854D01*
X12887Y-27711D01*
X12514Y-27710D01*
X12168Y-27853D01*
X11904Y-28117D01*
X11761Y-28462D01*
X11760Y-28835D01*
X11903Y-29181D01*
X12167Y-29445D01*
X12512Y-29588D01*
X12885Y-29589D01*
X13231Y-29446D01*
X13495Y-29182D01*
X13638Y-28837D01*
X13639Y-28464D01*
X13639Y-30964D01*
X13496Y-30618D01*
X13232Y-30354D01*
X12887Y-30211D01*
X12514Y-30210D01*
X12168Y-30353D01*
X11904Y-30617D01*
X11761Y-30962D01*
X11760Y-31335D01*
X11903Y-31681D01*
X12167Y-31945D01*
X12512Y-32088D01*
X12885Y-32089D01*
X13231Y-31946D01*
X13495Y-31682D01*
X13638Y-31337D01*
X13639Y-30964D01*
X13639Y-33632D01*
X11450Y-31442D01*
X11450Y-22411D01*
X11530Y-22605D01*
X11766Y-22842D01*
X12075Y-22970D01*
X12409Y-22970D01*
X12718Y-22843D01*
X12955Y-22606D01*
X13083Y-22297D01*
X13084Y-21963D01*
X12956Y-21654D01*
X12720Y-21417D01*
X12411Y-21289D01*
X12076Y-21289D01*
X11767Y-21417D01*
X11531Y-21653D01*
X11450Y-21848D01*
X11450Y-20507D01*
X13924Y-18032D01*
X14246Y-18353D01*
X14246Y-18353D01*
X14408Y-18461D01*
X14517Y-18483D01*
X14518Y-18711D01*
X14580Y-18774D01*
X15068Y-18774D01*
X15068Y-18766D01*
X15168Y-18766D01*
X15168Y-18774D01*
X15655Y-18774D01*
X15718Y-18711D01*
X15718Y-18500D01*
X16250Y-18500D01*
X16581Y-18831D01*
X16581Y-19243D01*
X16635Y-19372D01*
X16733Y-19470D01*
X16862Y-19523D01*
X17001Y-19524D01*
X17701Y-19524D01*
X17830Y-19470D01*
X17928Y-19372D01*
X17981Y-19243D01*
X17982Y-19104D01*
X17982Y-18404D01*
X17928Y-18276D01*
X17830Y-18177D01*
X17701Y-18124D01*
X17562Y-18123D01*
X17289Y-18123D01*
X17035Y-17870D01*
X17701Y-17870D01*
X17830Y-17816D01*
X17928Y-17718D01*
X17981Y-17589D01*
X17982Y-17450D01*
X17982Y-16750D01*
X17928Y-16622D01*
X17830Y-16523D01*
X17701Y-16470D01*
X17562Y-16469D01*
X17289Y-16469D01*
X16700Y-15880D01*
X16700Y-15243D01*
X16733Y-15276D01*
X16862Y-15329D01*
X17001Y-15330D01*
X17701Y-15330D01*
X17830Y-15276D01*
X17928Y-15178D01*
X17981Y-15049D01*
X17982Y-14910D01*
X17982Y-14210D01*
X17928Y-14082D01*
X17830Y-13983D01*
X17701Y-13930D01*
X17562Y-13929D01*
X16862Y-13929D01*
X16734Y-13983D01*
X16700Y-14017D01*
X16700Y-13589D01*
X16733Y-13622D01*
X16862Y-13675D01*
X17001Y-13676D01*
X17701Y-13676D01*
X17830Y-13622D01*
X17928Y-13524D01*
X17981Y-13395D01*
X17982Y-13256D01*
X17982Y-12556D01*
X17928Y-12428D01*
X17830Y-12329D01*
X17701Y-12276D01*
X17562Y-12275D01*
X16862Y-12275D01*
X16734Y-12329D01*
X16700Y-12363D01*
X16700Y-11937D01*
X16733Y-11970D01*
X16862Y-12023D01*
X17001Y-12024D01*
X17701Y-12024D01*
X17830Y-11970D01*
X17928Y-11872D01*
X17981Y-11743D01*
X17982Y-11604D01*
X17982Y-10904D01*
X17928Y-10776D01*
X17830Y-10677D01*
X17701Y-10624D01*
X17562Y-10623D01*
X16983Y-10623D01*
X17237Y-10370D01*
X17701Y-10370D01*
X17830Y-10316D01*
X17928Y-10218D01*
X17981Y-10089D01*
X17982Y-9950D01*
X17982Y-9250D01*
X17928Y-9122D01*
X17830Y-9023D01*
X17701Y-8970D01*
X17562Y-8969D01*
X16862Y-8969D01*
X16734Y-9023D01*
X16635Y-9121D01*
X16582Y-9250D01*
X16581Y-9389D01*
X16581Y-9610D01*
X15846Y-10346D01*
X15738Y-10508D01*
X15718Y-10609D01*
X15718Y-10069D01*
X15718Y-9270D01*
X15680Y-9178D01*
X15609Y-9108D01*
X15517Y-9070D01*
X15418Y-9069D01*
X15230Y-9070D01*
X15168Y-9132D01*
X15168Y-9620D01*
X15655Y-9620D01*
X15718Y-9557D01*
X15718Y-9270D01*
X15718Y-10069D01*
X15718Y-9782D01*
X15655Y-9720D01*
X15168Y-9720D01*
X15168Y-10207D01*
X15230Y-10270D01*
X15418Y-10270D01*
X15517Y-10269D01*
X15609Y-10231D01*
X15680Y-10161D01*
X15718Y-10069D01*
X15718Y-10609D01*
X15699Y-10700D01*
X15700Y-10700D01*
X15700Y-10880D01*
X15680Y-10832D01*
X15609Y-10762D01*
X15517Y-10724D01*
X15418Y-10723D01*
X15230Y-10724D01*
X15168Y-10786D01*
X15168Y-11274D01*
X15175Y-11274D01*
X15175Y-11374D01*
X15168Y-11374D01*
X15168Y-11861D01*
X15230Y-11924D01*
X15418Y-11924D01*
X15517Y-11923D01*
X15609Y-11885D01*
X15680Y-11815D01*
X15700Y-11767D01*
X15700Y-12532D01*
X15680Y-12484D01*
X15609Y-12414D01*
X15517Y-12376D01*
X15418Y-12375D01*
X15230Y-12376D01*
X15168Y-12438D01*
X15168Y-12926D01*
X15175Y-12926D01*
X15175Y-13026D01*
X15168Y-13026D01*
X15168Y-13513D01*
X15230Y-13576D01*
X15418Y-13576D01*
X15517Y-13575D01*
X15609Y-13537D01*
X15680Y-13467D01*
X15700Y-13419D01*
X15700Y-14186D01*
X15680Y-14138D01*
X15609Y-14068D01*
X15517Y-14030D01*
X15418Y-14029D01*
X15230Y-14030D01*
X15168Y-14092D01*
X15168Y-14580D01*
X15175Y-14580D01*
X15175Y-14680D01*
X15168Y-14680D01*
X15168Y-15167D01*
X15230Y-15230D01*
X15418Y-15230D01*
X15517Y-15229D01*
X15609Y-15191D01*
X15680Y-15121D01*
X15700Y-15073D01*
X15700Y-16087D01*
X15699Y-16088D01*
X15738Y-16279D01*
X15846Y-16441D01*
X16581Y-17177D01*
X16581Y-17524D01*
X16458Y-17499D01*
X16457Y-17500D01*
X15718Y-17500D01*
X15718Y-16770D01*
X15680Y-16678D01*
X15609Y-16608D01*
X15517Y-16570D01*
X15418Y-16569D01*
X15230Y-16570D01*
X15168Y-16632D01*
X15168Y-17120D01*
X15655Y-17120D01*
X15718Y-17057D01*
X15718Y-16770D01*
X15718Y-17500D01*
X15718Y-17500D01*
X15718Y-17282D01*
X15655Y-17220D01*
X15168Y-17220D01*
X15168Y-17227D01*
X15068Y-17227D01*
X15068Y-17220D01*
X15060Y-17220D01*
X15060Y-17120D01*
X15068Y-17120D01*
X15068Y-16632D01*
X15068Y-15167D01*
X15068Y-14680D01*
X15068Y-14580D01*
X15068Y-14092D01*
X15068Y-13513D01*
X15068Y-13026D01*
X15068Y-12926D01*
X15068Y-12438D01*
X15068Y-11861D01*
X15068Y-11374D01*
X15068Y-11274D01*
X15068Y-10786D01*
X15068Y-10207D01*
X15068Y-9720D01*
X15068Y-9620D01*
X15068Y-9132D01*
X15005Y-9070D01*
X14817Y-9069D01*
X14718Y-9070D01*
X14626Y-9108D01*
X14555Y-9178D01*
X14517Y-9270D01*
X14518Y-9557D01*
X14580Y-9620D01*
X15068Y-9620D01*
X15068Y-9720D01*
X14580Y-9720D01*
X14518Y-9782D01*
X14517Y-10069D01*
X14555Y-10161D01*
X14626Y-10231D01*
X14718Y-10269D01*
X14817Y-10270D01*
X15005Y-10270D01*
X15068Y-10207D01*
X15068Y-10786D01*
X15005Y-10724D01*
X14817Y-10723D01*
X14718Y-10724D01*
X14626Y-10762D01*
X14555Y-10832D01*
X14517Y-10924D01*
X14518Y-11211D01*
X14580Y-11274D01*
X15068Y-11274D01*
X15068Y-11374D01*
X14580Y-11374D01*
X14518Y-11436D01*
X14517Y-11723D01*
X14555Y-11815D01*
X14626Y-11885D01*
X14718Y-11923D01*
X14817Y-11924D01*
X15005Y-11924D01*
X15068Y-11861D01*
X15068Y-12438D01*
X15005Y-12376D01*
X14817Y-12375D01*
X14718Y-12376D01*
X14626Y-12414D01*
X14555Y-12484D01*
X14517Y-12576D01*
X14518Y-12863D01*
X14580Y-12926D01*
X15068Y-12926D01*
X15068Y-13026D01*
X14580Y-13026D01*
X14518Y-13088D01*
X14517Y-13375D01*
X14555Y-13467D01*
X14626Y-13537D01*
X14718Y-13575D01*
X14817Y-13576D01*
X15005Y-13576D01*
X15068Y-13513D01*
X15068Y-14092D01*
X15005Y-14030D01*
X14817Y-14029D01*
X14718Y-14030D01*
X14626Y-14068D01*
X14555Y-14138D01*
X14517Y-14230D01*
X14518Y-14517D01*
X14580Y-14580D01*
X15068Y-14580D01*
X15068Y-14680D01*
X14580Y-14680D01*
X14518Y-14742D01*
X14517Y-15029D01*
X14555Y-15121D01*
X14626Y-15191D01*
X14718Y-15229D01*
X14817Y-15230D01*
X15005Y-15230D01*
X15068Y-15167D01*
X15068Y-16632D01*
X15005Y-16570D01*
X14817Y-16569D01*
X14718Y-16570D01*
X14626Y-16608D01*
X14555Y-16678D01*
X14517Y-16770D01*
X14517Y-16825D01*
X14397Y-16705D01*
X14204Y-16625D01*
X13996Y-16624D01*
X13803Y-16704D01*
X13655Y-16852D01*
X13629Y-16912D01*
X12997Y-17545D01*
X13083Y-17337D01*
X13084Y-17003D01*
X13084Y-14463D01*
X13084Y-9503D01*
X12956Y-9194D01*
X12720Y-8957D01*
X12411Y-8829D01*
X12076Y-8829D01*
X11767Y-8957D01*
X11531Y-9193D01*
X11402Y-9502D01*
X11402Y-9836D01*
X11530Y-10145D01*
X11766Y-10382D01*
X12075Y-10510D01*
X12409Y-10510D01*
X12718Y-10383D01*
X12955Y-10146D01*
X13083Y-9837D01*
X13084Y-9503D01*
X13084Y-14463D01*
X12956Y-14154D01*
X12720Y-13917D01*
X12411Y-13789D01*
X12076Y-13789D01*
X11767Y-13917D01*
X11531Y-14153D01*
X11402Y-14462D01*
X11402Y-14796D01*
X11530Y-15105D01*
X11766Y-15342D01*
X12075Y-15470D01*
X12409Y-15470D01*
X12718Y-15343D01*
X12955Y-15106D01*
X13083Y-14797D01*
X13084Y-14463D01*
X13084Y-17003D01*
X12956Y-16694D01*
X12720Y-16457D01*
X12411Y-16329D01*
X12076Y-16329D01*
X11767Y-16457D01*
X11531Y-16693D01*
X11402Y-17002D01*
X11402Y-17336D01*
X11530Y-17645D01*
X11766Y-17882D01*
X12075Y-18010D01*
X12409Y-18010D01*
X12618Y-17924D01*
X10596Y-19946D01*
X10488Y-20108D01*
X10449Y-20300D01*
X10450Y-20300D01*
X10450Y-31649D01*
X10449Y-31650D01*
X10488Y-31841D01*
X10596Y-32003D01*
X12803Y-34211D01*
X12514Y-34210D01*
X12168Y-34353D01*
X11904Y-34617D01*
X11761Y-34962D01*
X11760Y-35335D01*
X11903Y-35681D01*
X12047Y-35825D01*
X10025Y-35825D01*
X10025Y-8225D01*
X18967Y-8225D01*
X18861Y-8296D01*
X18741Y-8474D01*
X18700Y-8685D01*
X18700Y-9114D01*
X18741Y-9325D01*
X18861Y-9503D01*
X19039Y-9622D01*
X19250Y-9664D01*
X19460Y-9622D01*
X19638Y-9503D01*
X19753Y-9331D01*
X19761Y-9356D01*
X19896Y-9524D01*
X20085Y-9627D01*
X20114Y-9633D01*
X20200Y-9584D01*
X20200Y-8950D01*
X20192Y-8950D01*
X20192Y-8850D01*
X20200Y-8850D01*
X20200Y-8842D01*
X20300Y-8842D01*
X20300Y-8850D01*
X20307Y-8850D01*
X20307Y-8950D01*
X20300Y-8950D01*
X20300Y-9584D01*
X20385Y-9633D01*
X20414Y-9627D01*
X20603Y-9524D01*
X20738Y-9356D01*
X20746Y-9331D01*
X20861Y-9503D01*
X20950Y-9563D01*
X20950Y-10949D01*
X20750Y-10949D01*
X20658Y-10987D01*
X20588Y-11058D01*
X20564Y-11115D01*
X20415Y-10756D01*
X20120Y-10460D01*
X19734Y-10300D01*
X19317Y-10299D01*
X18931Y-10459D01*
X18635Y-10754D01*
X18475Y-11140D01*
X18474Y-11557D01*
X18634Y-11944D01*
X18929Y-12239D01*
X19315Y-12399D01*
X19732Y-12400D01*
X20119Y-12240D01*
X20414Y-11945D01*
X20549Y-11619D01*
X20549Y-11849D01*
X20587Y-11941D01*
X20658Y-12011D01*
X20750Y-12049D01*
X20849Y-12050D01*
X21649Y-12050D01*
X21700Y-12029D01*
X21750Y-12049D01*
X21849Y-12050D01*
X22649Y-12050D01*
X22700Y-12029D01*
X22750Y-12049D01*
X22849Y-12050D01*
X23649Y-12050D01*
X23700Y-12029D01*
X23750Y-12049D01*
X23849Y-12050D01*
X24649Y-12050D01*
X24700Y-12029D01*
X24750Y-12049D01*
X24849Y-12050D01*
X25649Y-12050D01*
X25700Y-12029D01*
X25750Y-12049D01*
X25849Y-12050D01*
X26649Y-12050D01*
X26741Y-12012D01*
X26811Y-11941D01*
X26849Y-11849D01*
X26850Y-11750D01*
X26850Y-11150D01*
X26812Y-11058D01*
X26741Y-10988D01*
X26649Y-10950D01*
X26550Y-10949D01*
X26550Y-10949D01*
X26550Y-9563D01*
X26638Y-9503D01*
X26758Y-9325D01*
X26800Y-9114D01*
X26800Y-8685D01*
X26758Y-8474D01*
X26638Y-8296D01*
X26532Y-8225D01*
X27567Y-8225D01*
X27461Y-8296D01*
X27341Y-8474D01*
X27300Y-8685D01*
X27300Y-9114D01*
X27341Y-9325D01*
X27461Y-9503D01*
X27639Y-9622D01*
X27850Y-9664D01*
X28060Y-9622D01*
X28238Y-9503D01*
X28350Y-9337D01*
X28461Y-9503D01*
X28639Y-9622D01*
X28850Y-9664D01*
X29060Y-9622D01*
X29238Y-9503D01*
X29350Y-9337D01*
X29461Y-9503D01*
X29639Y-9622D01*
X29850Y-9664D01*
X30060Y-9622D01*
X30238Y-9503D01*
X30350Y-9337D01*
X30461Y-9503D01*
X30639Y-9622D01*
X30850Y-9664D01*
X31060Y-9622D01*
X31238Y-9503D01*
X31350Y-9337D01*
X31461Y-9503D01*
X31639Y-9622D01*
X31850Y-9664D01*
X32060Y-9622D01*
X32238Y-9503D01*
X32350Y-9337D01*
X32461Y-9503D01*
X32550Y-9563D01*
X32550Y-11125D01*
X32237Y-11437D01*
X32172Y-11535D01*
X32150Y-11650D01*
X32150Y-11877D01*
X32128Y-11826D01*
X32058Y-11755D01*
X31966Y-11717D01*
X31679Y-11718D01*
X31617Y-11780D01*
X31617Y-12268D01*
X31624Y-12268D01*
X31624Y-12368D01*
X31617Y-12368D01*
X31617Y-12855D01*
X31679Y-12918D01*
X31966Y-12918D01*
X32058Y-12880D01*
X32128Y-12809D01*
X32150Y-12758D01*
X32150Y-13712D01*
X32172Y-13826D01*
X32237Y-13924D01*
X32619Y-14306D01*
X32619Y-14881D01*
X32657Y-14973D01*
X32728Y-15043D01*
X32820Y-15081D01*
X32919Y-15082D01*
X33619Y-15082D01*
X33711Y-15044D01*
X33781Y-14973D01*
X33819Y-14881D01*
X33820Y-14782D01*
X33820Y-14082D01*
X33782Y-13990D01*
X33711Y-13920D01*
X33619Y-13882D01*
X33520Y-13881D01*
X33044Y-13881D01*
X32750Y-13587D01*
X32750Y-12997D01*
X32800Y-13017D01*
X32939Y-13018D01*
X33639Y-13018D01*
X33768Y-12964D01*
X33866Y-12866D01*
X33919Y-12737D01*
X33920Y-12598D01*
X33920Y-12137D01*
X34407Y-11650D01*
X35150Y-11650D01*
X35218Y-11717D01*
X34986Y-11718D01*
X34924Y-11780D01*
X34924Y-12268D01*
X35411Y-12268D01*
X35474Y-12205D01*
X35474Y-12017D01*
X35474Y-11973D01*
X35818Y-12317D01*
G54D10*
G36*
X36885Y-25500D02*
X36879Y-25512D01*
X35992Y-26400D01*
X32227Y-26400D01*
X32274Y-26284D01*
X32275Y-26115D01*
X32210Y-25959D01*
X32150Y-25898D01*
X32150Y-25625D01*
X32127Y-25510D01*
X32062Y-25412D01*
X32062Y-25412D01*
X31470Y-24820D01*
X31491Y-24811D01*
X31562Y-24741D01*
X31600Y-24649D01*
X31600Y-23950D01*
X31562Y-23858D01*
X31491Y-23788D01*
X31399Y-23750D01*
X31300Y-23749D01*
X31062Y-23750D01*
X31000Y-23812D01*
X31000Y-24250D01*
X31537Y-24250D01*
X31600Y-24187D01*
X31600Y-23950D01*
X31600Y-24649D01*
X31600Y-24412D01*
X31537Y-24350D01*
X31000Y-24350D01*
X31000Y-24357D01*
X30900Y-24357D01*
X30900Y-24350D01*
X30900Y-24250D01*
X30900Y-23812D01*
X30837Y-23750D01*
X30599Y-23749D01*
X30500Y-23750D01*
X30450Y-23770D01*
X30399Y-23750D01*
X30300Y-23749D01*
X30062Y-23750D01*
X30000Y-23812D01*
X30000Y-24250D01*
X30362Y-24250D01*
X30537Y-24250D01*
X30900Y-24250D01*
X30900Y-24350D01*
X30537Y-24350D01*
X30362Y-24350D01*
X30000Y-24350D01*
X30000Y-24357D01*
X29900Y-24357D01*
X29900Y-24350D01*
X29900Y-24250D01*
X29900Y-23812D01*
X29837Y-23750D01*
X29599Y-23749D01*
X29500Y-23750D01*
X29408Y-23788D01*
X29337Y-23858D01*
X29299Y-23950D01*
X29300Y-24187D01*
X29362Y-24250D01*
X29900Y-24250D01*
X29900Y-24350D01*
X29362Y-24350D01*
X29300Y-24412D01*
X29299Y-24600D01*
X28975Y-24600D01*
X28860Y-24622D01*
X28762Y-24687D01*
X28550Y-24899D01*
X28500Y-24848D01*
X28500Y-24524D01*
X29481Y-23542D01*
X29500Y-23549D01*
X29599Y-23550D01*
X30399Y-23550D01*
X30450Y-23529D01*
X30500Y-23549D01*
X30599Y-23550D01*
X31399Y-23550D01*
X31475Y-23518D01*
X31537Y-23612D01*
X33000Y-25074D01*
X32600Y-25074D01*
X32508Y-25112D01*
X32438Y-25183D01*
X32400Y-25275D01*
X32399Y-25374D01*
X32399Y-25974D01*
X32437Y-26066D01*
X32508Y-26136D01*
X32600Y-26174D01*
X32699Y-26175D01*
X33299Y-26175D01*
X33391Y-26137D01*
X33461Y-26066D01*
X33499Y-25974D01*
X33499Y-25952D01*
X33638Y-26090D01*
X33840Y-26174D01*
X34058Y-26175D01*
X34261Y-26091D01*
X34387Y-25965D01*
X34398Y-25992D01*
X34581Y-26175D01*
X34820Y-26274D01*
X35078Y-26275D01*
X35317Y-26176D01*
X35500Y-25993D01*
X35599Y-25754D01*
X35599Y-25682D01*
X35782Y-25500D01*
X36885Y-25500D01*
X36885Y-25500D01*
G37*
G54D32*
X36885Y-25500D02*
X36879Y-25512D01*
X35992Y-26400D01*
X32227Y-26400D01*
X32274Y-26284D01*
X32275Y-26115D01*
X32210Y-25959D01*
X32150Y-25898D01*
X32150Y-25625D01*
X32127Y-25510D01*
X32062Y-25412D01*
X32062Y-25412D01*
X31470Y-24820D01*
X31491Y-24811D01*
X31562Y-24741D01*
X31600Y-24649D01*
X31600Y-23950D01*
X31562Y-23858D01*
X31491Y-23788D01*
X31399Y-23750D01*
X31300Y-23749D01*
X31062Y-23750D01*
X31000Y-23812D01*
X31000Y-24250D01*
X31537Y-24250D01*
X31600Y-24187D01*
X31600Y-23950D01*
X31600Y-24649D01*
X31600Y-24412D01*
X31537Y-24350D01*
X31000Y-24350D01*
X31000Y-24357D01*
X30900Y-24357D01*
X30900Y-24350D01*
X30900Y-24250D01*
X30900Y-23812D01*
X30837Y-23750D01*
X30599Y-23749D01*
X30500Y-23750D01*
X30450Y-23770D01*
X30399Y-23750D01*
X30300Y-23749D01*
X30062Y-23750D01*
X30000Y-23812D01*
X30000Y-24250D01*
X30362Y-24250D01*
X30537Y-24250D01*
X30900Y-24250D01*
X30900Y-24350D01*
X30537Y-24350D01*
X30362Y-24350D01*
X30000Y-24350D01*
X30000Y-24357D01*
X29900Y-24357D01*
X29900Y-24350D01*
X29900Y-24250D01*
X29900Y-23812D01*
X29837Y-23750D01*
X29599Y-23749D01*
X29500Y-23750D01*
X29408Y-23788D01*
X29337Y-23858D01*
X29299Y-23950D01*
X29300Y-24187D01*
X29362Y-24250D01*
X29900Y-24250D01*
X29900Y-24350D01*
X29362Y-24350D01*
X29300Y-24412D01*
X29299Y-24600D01*
X28975Y-24600D01*
X28860Y-24622D01*
X28762Y-24687D01*
X28550Y-24899D01*
X28500Y-24848D01*
X28500Y-24524D01*
X29481Y-23542D01*
X29500Y-23549D01*
X29599Y-23550D01*
X30399Y-23550D01*
X30450Y-23529D01*
X30500Y-23549D01*
X30599Y-23550D01*
X31399Y-23550D01*
X31475Y-23518D01*
X31537Y-23612D01*
X33000Y-25074D01*
X32600Y-25074D01*
X32508Y-25112D01*
X32438Y-25183D01*
X32400Y-25275D01*
X32399Y-25374D01*
X32399Y-25974D01*
X32437Y-26066D01*
X32508Y-26136D01*
X32600Y-26174D01*
X32699Y-26175D01*
X33299Y-26175D01*
X33391Y-26137D01*
X33461Y-26066D01*
X33499Y-25974D01*
X33499Y-25952D01*
X33638Y-26090D01*
X33840Y-26174D01*
X34058Y-26175D01*
X34261Y-26091D01*
X34387Y-25965D01*
X34398Y-25992D01*
X34581Y-26175D01*
X34820Y-26274D01*
X35078Y-26275D01*
X35317Y-26176D01*
X35500Y-25993D01*
X35599Y-25754D01*
X35599Y-25682D01*
X35782Y-25500D01*
X36885Y-25500D01*
G54D10*
G36*
X42346Y-33800D02*
X42288Y-33858D01*
X42250Y-33950D01*
X42249Y-34049D01*
X42249Y-34100D01*
X40455Y-34100D01*
X40512Y-34062D01*
X40999Y-33574D01*
X41084Y-33575D01*
X41240Y-33510D01*
X41360Y-33391D01*
X41424Y-33234D01*
X41425Y-33065D01*
X41360Y-32909D01*
X41241Y-32789D01*
X41084Y-32725D01*
X40915Y-32724D01*
X40759Y-32789D01*
X40639Y-32908D01*
X40575Y-33065D01*
X40574Y-33150D01*
X40175Y-33550D01*
X34774Y-33550D01*
X34426Y-33201D01*
X34586Y-33193D01*
X34737Y-33131D01*
X34765Y-33035D01*
X34450Y-32720D01*
X34444Y-32726D01*
X34373Y-32655D01*
X34379Y-32650D01*
X34064Y-32334D01*
X33968Y-32362D01*
X33949Y-32417D01*
X33916Y-32338D01*
X33761Y-32184D01*
X33680Y-32150D01*
X33761Y-32116D01*
X33915Y-31961D01*
X33949Y-31880D01*
X33983Y-31961D01*
X34138Y-32115D01*
X34213Y-32147D01*
X34162Y-32168D01*
X34134Y-32264D01*
X34450Y-32579D01*
X34765Y-32264D01*
X34737Y-32168D01*
X34682Y-32149D01*
X34761Y-32116D01*
X34915Y-31961D01*
X34949Y-31880D01*
X34983Y-31961D01*
X35138Y-32115D01*
X35219Y-32149D01*
X35138Y-32183D01*
X34984Y-32338D01*
X34952Y-32413D01*
X34931Y-32362D01*
X34835Y-32334D01*
X34520Y-32650D01*
X34835Y-32965D01*
X34931Y-32937D01*
X34950Y-32882D01*
X34983Y-32961D01*
X35138Y-33115D01*
X35340Y-33199D01*
X35558Y-33200D01*
X35761Y-33116D01*
X35915Y-32961D01*
X35949Y-32880D01*
X35983Y-32961D01*
X36138Y-33115D01*
X36340Y-33199D01*
X36558Y-33200D01*
X36761Y-33116D01*
X36915Y-32961D01*
X36949Y-32880D01*
X36983Y-32961D01*
X37138Y-33115D01*
X37340Y-33199D01*
X37558Y-33200D01*
X37761Y-33116D01*
X37915Y-32961D01*
X37955Y-32866D01*
X37962Y-32862D01*
X39149Y-31675D01*
X39223Y-31675D01*
X39029Y-31867D01*
X38900Y-32180D01*
X38899Y-32518D01*
X39028Y-32830D01*
X39267Y-33070D01*
X39580Y-33199D01*
X39918Y-33200D01*
X40230Y-33071D01*
X40470Y-32832D01*
X40599Y-32519D01*
X40600Y-32181D01*
X40471Y-31869D01*
X40277Y-31675D01*
X41700Y-31675D01*
X41700Y-32600D01*
X41722Y-32714D01*
X41787Y-32812D01*
X42249Y-33274D01*
X42249Y-33649D01*
X42287Y-33741D01*
X42346Y-33800D01*
X42346Y-33800D01*
G37*
G54D32*
X42346Y-33800D02*
X42288Y-33858D01*
X42250Y-33950D01*
X42249Y-34049D01*
X42249Y-34100D01*
X40455Y-34100D01*
X40512Y-34062D01*
X40999Y-33574D01*
X41084Y-33575D01*
X41240Y-33510D01*
X41360Y-33391D01*
X41424Y-33234D01*
X41425Y-33065D01*
X41360Y-32909D01*
X41241Y-32789D01*
X41084Y-32725D01*
X40915Y-32724D01*
X40759Y-32789D01*
X40639Y-32908D01*
X40575Y-33065D01*
X40574Y-33150D01*
X40175Y-33550D01*
X34774Y-33550D01*
X34426Y-33201D01*
X34586Y-33193D01*
X34737Y-33131D01*
X34765Y-33035D01*
X34450Y-32720D01*
X34444Y-32726D01*
X34373Y-32655D01*
X34379Y-32650D01*
X34064Y-32334D01*
X33968Y-32362D01*
X33949Y-32417D01*
X33916Y-32338D01*
X33761Y-32184D01*
X33680Y-32150D01*
X33761Y-32116D01*
X33915Y-31961D01*
X33949Y-31880D01*
X33983Y-31961D01*
X34138Y-32115D01*
X34213Y-32147D01*
X34162Y-32168D01*
X34134Y-32264D01*
X34450Y-32579D01*
X34765Y-32264D01*
X34737Y-32168D01*
X34682Y-32149D01*
X34761Y-32116D01*
X34915Y-31961D01*
X34949Y-31880D01*
X34983Y-31961D01*
X35138Y-32115D01*
X35219Y-32149D01*
X35138Y-32183D01*
X34984Y-32338D01*
X34952Y-32413D01*
X34931Y-32362D01*
X34835Y-32334D01*
X34520Y-32650D01*
X34835Y-32965D01*
X34931Y-32937D01*
X34950Y-32882D01*
X34983Y-32961D01*
X35138Y-33115D01*
X35340Y-33199D01*
X35558Y-33200D01*
X35761Y-33116D01*
X35915Y-32961D01*
X35949Y-32880D01*
X35983Y-32961D01*
X36138Y-33115D01*
X36340Y-33199D01*
X36558Y-33200D01*
X36761Y-33116D01*
X36915Y-32961D01*
X36949Y-32880D01*
X36983Y-32961D01*
X37138Y-33115D01*
X37340Y-33199D01*
X37558Y-33200D01*
X37761Y-33116D01*
X37915Y-32961D01*
X37955Y-32866D01*
X37962Y-32862D01*
X39149Y-31675D01*
X39223Y-31675D01*
X39029Y-31867D01*
X38900Y-32180D01*
X38899Y-32518D01*
X39028Y-32830D01*
X39267Y-33070D01*
X39580Y-33199D01*
X39918Y-33200D01*
X40230Y-33071D01*
X40470Y-32832D01*
X40599Y-32519D01*
X40600Y-32181D01*
X40471Y-31869D01*
X40277Y-31675D01*
X41700Y-31675D01*
X41700Y-32600D01*
X41722Y-32714D01*
X41787Y-32812D01*
X42249Y-33274D01*
X42249Y-33649D01*
X42287Y-33741D01*
X42346Y-33800D01*
G54D10*
G36*
X45750Y-13941D02*
X45703Y-13830D01*
X45467Y-13593D01*
X45158Y-13465D01*
X44824Y-13465D01*
X44515Y-13593D01*
X44450Y-13658D01*
X44450Y-11650D01*
X44411Y-11458D01*
X44303Y-11296D01*
X44303Y-11296D01*
X44053Y-11046D01*
X43891Y-10938D01*
X43700Y-10899D01*
X43699Y-10900D01*
X37200Y-10900D01*
X37200Y-10899D01*
X37008Y-10938D01*
X36846Y-11046D01*
X36403Y-11488D01*
X35711Y-10796D01*
X35549Y-10688D01*
X35358Y-10649D01*
X35357Y-10650D01*
X34200Y-10650D01*
X34008Y-10688D01*
X33846Y-10796D01*
X33846Y-10796D01*
X33024Y-11617D01*
X32906Y-11617D01*
X33062Y-11462D01*
X33062Y-11462D01*
X33127Y-11364D01*
X33149Y-11250D01*
X33150Y-11250D01*
X33150Y-9563D01*
X33238Y-9503D01*
X33350Y-9337D01*
X33461Y-9503D01*
X33639Y-9622D01*
X33850Y-9664D01*
X34060Y-9622D01*
X34238Y-9503D01*
X34350Y-9337D01*
X34461Y-9503D01*
X34639Y-9622D01*
X34850Y-9664D01*
X35060Y-9622D01*
X35238Y-9503D01*
X35358Y-9325D01*
X35400Y-9114D01*
X35400Y-8685D01*
X35358Y-8474D01*
X35238Y-8296D01*
X35132Y-8225D01*
X36567Y-8225D01*
X36461Y-8296D01*
X36341Y-8474D01*
X36300Y-8685D01*
X36300Y-9114D01*
X36341Y-9325D01*
X36461Y-9503D01*
X36639Y-9622D01*
X36850Y-9664D01*
X37060Y-9622D01*
X37238Y-9503D01*
X37350Y-9337D01*
X37461Y-9503D01*
X37639Y-9622D01*
X37850Y-9664D01*
X38060Y-9622D01*
X38238Y-9503D01*
X38350Y-9337D01*
X38461Y-9503D01*
X38639Y-9622D01*
X38850Y-9664D01*
X39060Y-9622D01*
X39238Y-9503D01*
X39350Y-9337D01*
X39461Y-9503D01*
X39639Y-9622D01*
X39850Y-9664D01*
X40060Y-9622D01*
X40238Y-9503D01*
X40350Y-9337D01*
X40461Y-9503D01*
X40639Y-9622D01*
X40850Y-9664D01*
X41060Y-9622D01*
X41238Y-9503D01*
X41350Y-9337D01*
X41461Y-9503D01*
X41639Y-9622D01*
X41850Y-9664D01*
X42060Y-9622D01*
X42238Y-9503D01*
X42350Y-9337D01*
X42461Y-9503D01*
X42639Y-9622D01*
X42850Y-9664D01*
X43050Y-9624D01*
X45750Y-12324D01*
X45750Y-13941D01*
X45750Y-13941D01*
G37*
G54D32*
X45750Y-13941D02*
X45703Y-13830D01*
X45467Y-13593D01*
X45158Y-13465D01*
X44824Y-13465D01*
X44515Y-13593D01*
X44450Y-13658D01*
X44450Y-11650D01*
X44411Y-11458D01*
X44303Y-11296D01*
X44303Y-11296D01*
X44053Y-11046D01*
X43891Y-10938D01*
X43700Y-10899D01*
X43699Y-10900D01*
X37200Y-10900D01*
X37200Y-10899D01*
X37008Y-10938D01*
X36846Y-11046D01*
X36403Y-11488D01*
X35711Y-10796D01*
X35549Y-10688D01*
X35358Y-10649D01*
X35357Y-10650D01*
X34200Y-10650D01*
X34008Y-10688D01*
X33846Y-10796D01*
X33846Y-10796D01*
X33024Y-11617D01*
X32906Y-11617D01*
X33062Y-11462D01*
X33062Y-11462D01*
X33127Y-11364D01*
X33149Y-11250D01*
X33150Y-11250D01*
X33150Y-9563D01*
X33238Y-9503D01*
X33350Y-9337D01*
X33461Y-9503D01*
X33639Y-9622D01*
X33850Y-9664D01*
X34060Y-9622D01*
X34238Y-9503D01*
X34350Y-9337D01*
X34461Y-9503D01*
X34639Y-9622D01*
X34850Y-9664D01*
X35060Y-9622D01*
X35238Y-9503D01*
X35358Y-9325D01*
X35400Y-9114D01*
X35400Y-8685D01*
X35358Y-8474D01*
X35238Y-8296D01*
X35132Y-8225D01*
X36567Y-8225D01*
X36461Y-8296D01*
X36341Y-8474D01*
X36300Y-8685D01*
X36300Y-9114D01*
X36341Y-9325D01*
X36461Y-9503D01*
X36639Y-9622D01*
X36850Y-9664D01*
X37060Y-9622D01*
X37238Y-9503D01*
X37350Y-9337D01*
X37461Y-9503D01*
X37639Y-9622D01*
X37850Y-9664D01*
X38060Y-9622D01*
X38238Y-9503D01*
X38350Y-9337D01*
X38461Y-9503D01*
X38639Y-9622D01*
X38850Y-9664D01*
X39060Y-9622D01*
X39238Y-9503D01*
X39350Y-9337D01*
X39461Y-9503D01*
X39639Y-9622D01*
X39850Y-9664D01*
X40060Y-9622D01*
X40238Y-9503D01*
X40350Y-9337D01*
X40461Y-9503D01*
X40639Y-9622D01*
X40850Y-9664D01*
X41060Y-9622D01*
X41238Y-9503D01*
X41350Y-9337D01*
X41461Y-9503D01*
X41639Y-9622D01*
X41850Y-9664D01*
X42060Y-9622D01*
X42238Y-9503D01*
X42350Y-9337D01*
X42461Y-9503D01*
X42639Y-9622D01*
X42850Y-9664D01*
X43050Y-9624D01*
X45750Y-12324D01*
X45750Y-13941D01*
G54D10*
G36*
X45975Y-26600D02*
X40433Y-26600D01*
X40433Y-14782D01*
X40433Y-14082D01*
X40395Y-13990D01*
X40324Y-13920D01*
X40232Y-13882D01*
X40133Y-13881D01*
X39433Y-13881D01*
X39341Y-13919D01*
X39271Y-13990D01*
X39233Y-14082D01*
X39232Y-14181D01*
X39232Y-14881D01*
X39270Y-14973D01*
X39341Y-15043D01*
X39433Y-15081D01*
X39532Y-15082D01*
X40232Y-15082D01*
X40324Y-15044D01*
X40394Y-14973D01*
X40432Y-14881D01*
X40433Y-14782D01*
X40433Y-26600D01*
X39250Y-26600D01*
X39135Y-26622D01*
X39037Y-26687D01*
X38972Y-26785D01*
X38950Y-26900D01*
X38972Y-27014D01*
X39037Y-27112D01*
X39135Y-27177D01*
X39250Y-27200D01*
X39605Y-27200D01*
X39461Y-27296D01*
X39350Y-27462D01*
X39238Y-27296D01*
X39060Y-27177D01*
X38850Y-27135D01*
X38639Y-27177D01*
X38461Y-27296D01*
X38425Y-27350D01*
X38425Y-26957D01*
X39228Y-26153D01*
X39228Y-26153D01*
X39228Y-26153D01*
X39336Y-25991D01*
X39375Y-25800D01*
X39375Y-25764D01*
X39399Y-25704D01*
X39400Y-25496D01*
X39320Y-25303D01*
X39172Y-25155D01*
X39112Y-25129D01*
X38780Y-24797D01*
X38780Y-14782D01*
X38780Y-14181D01*
X38780Y-12618D01*
X38780Y-12430D01*
X38717Y-12368D01*
X38230Y-12368D01*
X38230Y-12855D01*
X38292Y-12918D01*
X38579Y-12918D01*
X38671Y-12880D01*
X38741Y-12809D01*
X38779Y-12717D01*
X38780Y-12618D01*
X38780Y-14181D01*
X38779Y-14082D01*
X38741Y-13990D01*
X38671Y-13919D01*
X38579Y-13881D01*
X38292Y-13882D01*
X38230Y-13944D01*
X38230Y-14432D01*
X38717Y-14432D01*
X38780Y-14369D01*
X38780Y-14181D01*
X38780Y-14782D01*
X38780Y-14594D01*
X38717Y-14532D01*
X38230Y-14532D01*
X38230Y-15019D01*
X38292Y-15082D01*
X38579Y-15082D01*
X38671Y-15044D01*
X38741Y-14973D01*
X38779Y-14881D01*
X38780Y-14782D01*
X38780Y-24797D01*
X38628Y-24646D01*
X38466Y-24538D01*
X38304Y-24505D01*
X38304Y-19573D01*
X38304Y-19321D01*
X38242Y-19259D01*
X37750Y-19259D01*
X37750Y-19711D01*
X37812Y-19773D01*
X38004Y-19773D01*
X38104Y-19773D01*
X38196Y-19735D01*
X38266Y-19664D01*
X38304Y-19573D01*
X38304Y-24505D01*
X38275Y-24499D01*
X38274Y-24500D01*
X37650Y-24500D01*
X37650Y-19711D01*
X37650Y-19259D01*
X37158Y-19259D01*
X37095Y-19321D01*
X37095Y-19573D01*
X37133Y-19664D01*
X37203Y-19735D01*
X37295Y-19773D01*
X37395Y-19773D01*
X37587Y-19773D01*
X37650Y-19711D01*
X37650Y-24500D01*
X36804Y-24500D01*
X36804Y-19573D01*
X36804Y-19321D01*
X36742Y-19259D01*
X36250Y-19259D01*
X36250Y-19711D01*
X36312Y-19773D01*
X36504Y-19773D01*
X36604Y-19773D01*
X36696Y-19735D01*
X36766Y-19664D01*
X36804Y-19573D01*
X36804Y-24500D01*
X36150Y-24500D01*
X36150Y-19711D01*
X36150Y-19259D01*
X35658Y-19259D01*
X35595Y-19321D01*
X35595Y-19573D01*
X35633Y-19664D01*
X35703Y-19735D01*
X35795Y-19773D01*
X35895Y-19773D01*
X36087Y-19773D01*
X36150Y-19711D01*
X36150Y-24500D01*
X35575Y-24500D01*
X35575Y-24499D01*
X35383Y-24538D01*
X35221Y-24646D01*
X34892Y-24974D01*
X34821Y-24974D01*
X34582Y-25073D01*
X34399Y-25256D01*
X34387Y-25284D01*
X34261Y-25159D01*
X34059Y-25075D01*
X33849Y-25074D01*
X32674Y-23900D01*
X32699Y-23900D01*
X33299Y-23900D01*
X33391Y-23862D01*
X33461Y-23791D01*
X33499Y-23699D01*
X33499Y-23677D01*
X33638Y-23815D01*
X33840Y-23899D01*
X34058Y-23900D01*
X34261Y-23816D01*
X34387Y-23690D01*
X34398Y-23717D01*
X34581Y-23900D01*
X34820Y-23999D01*
X35078Y-24000D01*
X35317Y-23901D01*
X35500Y-23718D01*
X35599Y-23479D01*
X35600Y-23221D01*
X35501Y-22982D01*
X35318Y-22799D01*
X35079Y-22700D01*
X34821Y-22699D01*
X34582Y-22798D01*
X34399Y-22981D01*
X34387Y-23009D01*
X34261Y-22884D01*
X34059Y-22800D01*
X33841Y-22799D01*
X33638Y-22883D01*
X33500Y-23022D01*
X33500Y-23000D01*
X33462Y-22908D01*
X33391Y-22838D01*
X33299Y-22800D01*
X33200Y-22799D01*
X32600Y-22799D01*
X32508Y-22837D01*
X32438Y-22908D01*
X32400Y-23000D01*
X32399Y-23099D01*
X32399Y-23625D01*
X32050Y-23275D01*
X32050Y-23000D01*
X32050Y-18700D01*
X32049Y-18699D01*
X32027Y-18585D01*
X31962Y-18487D01*
X31962Y-18487D01*
X31162Y-17687D01*
X31064Y-17622D01*
X31053Y-17620D01*
X31874Y-16800D01*
X35549Y-16800D01*
X35549Y-17399D01*
X35587Y-17491D01*
X35658Y-17561D01*
X35692Y-17576D01*
X35633Y-17634D01*
X35595Y-17726D01*
X35595Y-17826D01*
X35595Y-18455D01*
X35633Y-18546D01*
X35703Y-18617D01*
X35782Y-18650D01*
X35703Y-18682D01*
X35633Y-18753D01*
X35595Y-18844D01*
X35595Y-19096D01*
X35658Y-19159D01*
X36150Y-19159D01*
X36150Y-19151D01*
X36250Y-19151D01*
X36250Y-19159D01*
X36742Y-19159D01*
X36804Y-19096D01*
X36804Y-18844D01*
X36766Y-18753D01*
X36696Y-18682D01*
X36617Y-18649D01*
X36695Y-18617D01*
X36766Y-18547D01*
X36804Y-18455D01*
X36804Y-18355D01*
X36804Y-17726D01*
X36766Y-17635D01*
X36707Y-17576D01*
X36741Y-17562D01*
X36811Y-17491D01*
X36849Y-17399D01*
X36850Y-17300D01*
X36850Y-16800D01*
X37049Y-16800D01*
X37049Y-17399D01*
X37087Y-17491D01*
X37158Y-17561D01*
X37192Y-17576D01*
X37133Y-17634D01*
X37095Y-17726D01*
X37095Y-17826D01*
X37095Y-18455D01*
X37133Y-18546D01*
X37203Y-18617D01*
X37282Y-18650D01*
X37203Y-18682D01*
X37133Y-18753D01*
X37095Y-18844D01*
X37095Y-19096D01*
X37158Y-19159D01*
X37650Y-19159D01*
X37650Y-19151D01*
X37750Y-19151D01*
X37750Y-19159D01*
X38242Y-19159D01*
X38304Y-19096D01*
X38304Y-18844D01*
X38266Y-18753D01*
X38196Y-18682D01*
X38117Y-18649D01*
X38195Y-18617D01*
X38266Y-18547D01*
X38304Y-18455D01*
X38304Y-18355D01*
X38304Y-17726D01*
X38266Y-17635D01*
X38207Y-17576D01*
X38241Y-17562D01*
X38311Y-17491D01*
X38349Y-17399D01*
X38350Y-17300D01*
X38350Y-16700D01*
X38312Y-16608D01*
X38241Y-16538D01*
X38149Y-16500D01*
X38050Y-16499D01*
X37724Y-16499D01*
X37912Y-16312D01*
X37912Y-16312D01*
X37920Y-16300D01*
X37920Y-16300D01*
X38149Y-16300D01*
X38241Y-16262D01*
X38311Y-16191D01*
X38349Y-16099D01*
X38350Y-16000D01*
X38350Y-15400D01*
X38312Y-15308D01*
X38241Y-15238D01*
X38149Y-15200D01*
X38130Y-15200D01*
X38130Y-15019D01*
X38130Y-14532D01*
X38130Y-14432D01*
X38130Y-13944D01*
X38130Y-12855D01*
X38130Y-12368D01*
X37642Y-12368D01*
X37580Y-12430D01*
X37579Y-12618D01*
X37580Y-12717D01*
X37618Y-12809D01*
X37688Y-12880D01*
X37780Y-12918D01*
X38067Y-12918D01*
X38130Y-12855D01*
X38130Y-13944D01*
X38067Y-13882D01*
X37780Y-13881D01*
X37688Y-13919D01*
X37618Y-13990D01*
X37580Y-14082D01*
X37579Y-14181D01*
X37580Y-14369D01*
X37642Y-14432D01*
X38130Y-14432D01*
X38130Y-14532D01*
X37642Y-14532D01*
X37580Y-14594D01*
X37579Y-14782D01*
X37580Y-14881D01*
X37618Y-14973D01*
X37688Y-15044D01*
X37780Y-15082D01*
X38067Y-15082D01*
X38130Y-15019D01*
X38130Y-15200D01*
X38050Y-15199D01*
X37250Y-15199D01*
X37158Y-15237D01*
X37126Y-15270D01*
X37126Y-14782D01*
X37126Y-14181D01*
X37125Y-14082D01*
X37087Y-13990D01*
X37017Y-13919D01*
X36925Y-13881D01*
X36638Y-13882D01*
X36576Y-13944D01*
X36576Y-14432D01*
X37063Y-14432D01*
X37126Y-14369D01*
X37126Y-14181D01*
X37126Y-14782D01*
X37126Y-14594D01*
X37063Y-14532D01*
X36576Y-14532D01*
X36576Y-15019D01*
X36638Y-15082D01*
X36925Y-15082D01*
X37017Y-15044D01*
X37087Y-14973D01*
X37125Y-14881D01*
X37126Y-14782D01*
X37126Y-15270D01*
X37088Y-15308D01*
X37050Y-15400D01*
X37049Y-15499D01*
X37049Y-16099D01*
X37087Y-16191D01*
X37096Y-16200D01*
X36916Y-16200D01*
X36949Y-16119D01*
X36950Y-15980D01*
X36950Y-15380D01*
X36896Y-15252D01*
X36798Y-15153D01*
X36669Y-15100D01*
X36530Y-15099D01*
X36507Y-15099D01*
X36451Y-15044D01*
X36476Y-15019D01*
X36476Y-14532D01*
X36468Y-14532D01*
X36468Y-14432D01*
X36476Y-14432D01*
X36476Y-13944D01*
X36413Y-13882D01*
X36200Y-13881D01*
X36200Y-13351D01*
X36533Y-13018D01*
X36945Y-13018D01*
X37074Y-12964D01*
X37172Y-12866D01*
X37225Y-12737D01*
X37226Y-12598D01*
X37226Y-12081D01*
X37407Y-11900D01*
X37587Y-11900D01*
X37580Y-11918D01*
X37579Y-12017D01*
X37580Y-12205D01*
X37642Y-12268D01*
X38130Y-12268D01*
X38130Y-12260D01*
X38230Y-12260D01*
X38230Y-12268D01*
X38717Y-12268D01*
X38780Y-12205D01*
X38780Y-12017D01*
X38779Y-11918D01*
X38772Y-11900D01*
X39240Y-11900D01*
X39233Y-11918D01*
X39232Y-12017D01*
X39232Y-12717D01*
X39270Y-12809D01*
X39341Y-12879D01*
X39433Y-12917D01*
X39532Y-12918D01*
X40232Y-12918D01*
X40324Y-12880D01*
X40394Y-12809D01*
X40432Y-12717D01*
X40433Y-12618D01*
X40433Y-11918D01*
X40425Y-11900D01*
X40894Y-11900D01*
X40887Y-11918D01*
X40886Y-12017D01*
X40886Y-12717D01*
X40924Y-12809D01*
X40995Y-12879D01*
X41087Y-12917D01*
X41186Y-12918D01*
X41886Y-12918D01*
X41978Y-12880D01*
X42048Y-12809D01*
X42086Y-12717D01*
X42087Y-12618D01*
X42087Y-11918D01*
X42079Y-11900D01*
X42440Y-11900D01*
X42439Y-12037D01*
X42439Y-12737D01*
X42493Y-12866D01*
X42591Y-12964D01*
X42720Y-13017D01*
X42859Y-13018D01*
X43450Y-13018D01*
X43450Y-13464D01*
X43132Y-13781D01*
X42720Y-13781D01*
X42592Y-13835D01*
X42493Y-13933D01*
X42473Y-13982D01*
X42153Y-13982D01*
X42133Y-13934D01*
X42035Y-13835D01*
X41906Y-13782D01*
X41767Y-13781D01*
X41067Y-13781D01*
X40939Y-13835D01*
X40840Y-13933D01*
X40787Y-14062D01*
X40786Y-14201D01*
X40786Y-14901D01*
X40840Y-15030D01*
X40938Y-15128D01*
X41067Y-15181D01*
X41206Y-15182D01*
X41906Y-15182D01*
X42035Y-15128D01*
X42133Y-15030D01*
X42153Y-14982D01*
X42473Y-14982D01*
X42493Y-15030D01*
X42591Y-15128D01*
X42720Y-15181D01*
X42859Y-15182D01*
X43559Y-15182D01*
X43688Y-15128D01*
X43786Y-15030D01*
X43839Y-14901D01*
X43840Y-14762D01*
X43840Y-14489D01*
X44150Y-14178D01*
X44150Y-14472D01*
X44278Y-14781D01*
X44514Y-15018D01*
X44823Y-15146D01*
X45157Y-15146D01*
X45466Y-15018D01*
X45703Y-14782D01*
X45750Y-14669D01*
X45750Y-26250D01*
X45772Y-26364D01*
X45837Y-26462D01*
X45975Y-26600D01*
X45975Y-26600D01*
G37*
G54D32*
X45975Y-26600D02*
X40433Y-26600D01*
X40433Y-14782D01*
X40433Y-14082D01*
X40395Y-13990D01*
X40324Y-13920D01*
X40232Y-13882D01*
X40133Y-13881D01*
X39433Y-13881D01*
X39341Y-13919D01*
X39271Y-13990D01*
X39233Y-14082D01*
X39232Y-14181D01*
X39232Y-14881D01*
X39270Y-14973D01*
X39341Y-15043D01*
X39433Y-15081D01*
X39532Y-15082D01*
X40232Y-15082D01*
X40324Y-15044D01*
X40394Y-14973D01*
X40432Y-14881D01*
X40433Y-14782D01*
X40433Y-26600D01*
X39250Y-26600D01*
X39135Y-26622D01*
X39037Y-26687D01*
X38972Y-26785D01*
X38950Y-26900D01*
X38972Y-27014D01*
X39037Y-27112D01*
X39135Y-27177D01*
X39250Y-27200D01*
X39605Y-27200D01*
X39461Y-27296D01*
X39350Y-27462D01*
X39238Y-27296D01*
X39060Y-27177D01*
X38850Y-27135D01*
X38639Y-27177D01*
X38461Y-27296D01*
X38425Y-27350D01*
X38425Y-26957D01*
X39228Y-26153D01*
X39228Y-26153D01*
X39228Y-26153D01*
X39336Y-25991D01*
X39375Y-25800D01*
X39375Y-25764D01*
X39399Y-25704D01*
X39400Y-25496D01*
X39320Y-25303D01*
X39172Y-25155D01*
X39112Y-25129D01*
X38780Y-24797D01*
X38780Y-14782D01*
X38780Y-14181D01*
X38780Y-12618D01*
X38780Y-12430D01*
X38717Y-12368D01*
X38230Y-12368D01*
X38230Y-12855D01*
X38292Y-12918D01*
X38579Y-12918D01*
X38671Y-12880D01*
X38741Y-12809D01*
X38779Y-12717D01*
X38780Y-12618D01*
X38780Y-14181D01*
X38779Y-14082D01*
X38741Y-13990D01*
X38671Y-13919D01*
X38579Y-13881D01*
X38292Y-13882D01*
X38230Y-13944D01*
X38230Y-14432D01*
X38717Y-14432D01*
X38780Y-14369D01*
X38780Y-14181D01*
X38780Y-14782D01*
X38780Y-14594D01*
X38717Y-14532D01*
X38230Y-14532D01*
X38230Y-15019D01*
X38292Y-15082D01*
X38579Y-15082D01*
X38671Y-15044D01*
X38741Y-14973D01*
X38779Y-14881D01*
X38780Y-14782D01*
X38780Y-24797D01*
X38628Y-24646D01*
X38466Y-24538D01*
X38304Y-24505D01*
X38304Y-19573D01*
X38304Y-19321D01*
X38242Y-19259D01*
X37750Y-19259D01*
X37750Y-19711D01*
X37812Y-19773D01*
X38004Y-19773D01*
X38104Y-19773D01*
X38196Y-19735D01*
X38266Y-19664D01*
X38304Y-19573D01*
X38304Y-24505D01*
X38275Y-24499D01*
X38274Y-24500D01*
X37650Y-24500D01*
X37650Y-19711D01*
X37650Y-19259D01*
X37158Y-19259D01*
X37095Y-19321D01*
X37095Y-19573D01*
X37133Y-19664D01*
X37203Y-19735D01*
X37295Y-19773D01*
X37395Y-19773D01*
X37587Y-19773D01*
X37650Y-19711D01*
X37650Y-24500D01*
X36804Y-24500D01*
X36804Y-19573D01*
X36804Y-19321D01*
X36742Y-19259D01*
X36250Y-19259D01*
X36250Y-19711D01*
X36312Y-19773D01*
X36504Y-19773D01*
X36604Y-19773D01*
X36696Y-19735D01*
X36766Y-19664D01*
X36804Y-19573D01*
X36804Y-24500D01*
X36150Y-24500D01*
X36150Y-19711D01*
X36150Y-19259D01*
X35658Y-19259D01*
X35595Y-19321D01*
X35595Y-19573D01*
X35633Y-19664D01*
X35703Y-19735D01*
X35795Y-19773D01*
X35895Y-19773D01*
X36087Y-19773D01*
X36150Y-19711D01*
X36150Y-24500D01*
X35575Y-24500D01*
X35575Y-24499D01*
X35383Y-24538D01*
X35221Y-24646D01*
X34892Y-24974D01*
X34821Y-24974D01*
X34582Y-25073D01*
X34399Y-25256D01*
X34387Y-25284D01*
X34261Y-25159D01*
X34059Y-25075D01*
X33849Y-25074D01*
X32674Y-23900D01*
X32699Y-23900D01*
X33299Y-23900D01*
X33391Y-23862D01*
X33461Y-23791D01*
X33499Y-23699D01*
X33499Y-23677D01*
X33638Y-23815D01*
X33840Y-23899D01*
X34058Y-23900D01*
X34261Y-23816D01*
X34387Y-23690D01*
X34398Y-23717D01*
X34581Y-23900D01*
X34820Y-23999D01*
X35078Y-24000D01*
X35317Y-23901D01*
X35500Y-23718D01*
X35599Y-23479D01*
X35600Y-23221D01*
X35501Y-22982D01*
X35318Y-22799D01*
X35079Y-22700D01*
X34821Y-22699D01*
X34582Y-22798D01*
X34399Y-22981D01*
X34387Y-23009D01*
X34261Y-22884D01*
X34059Y-22800D01*
X33841Y-22799D01*
X33638Y-22883D01*
X33500Y-23022D01*
X33500Y-23000D01*
X33462Y-22908D01*
X33391Y-22838D01*
X33299Y-22800D01*
X33200Y-22799D01*
X32600Y-22799D01*
X32508Y-22837D01*
X32438Y-22908D01*
X32400Y-23000D01*
X32399Y-23099D01*
X32399Y-23625D01*
X32050Y-23275D01*
X32050Y-23000D01*
X32050Y-18700D01*
X32049Y-18699D01*
X32027Y-18585D01*
X31962Y-18487D01*
X31962Y-18487D01*
X31162Y-17687D01*
X31064Y-17622D01*
X31053Y-17620D01*
X31874Y-16800D01*
X35549Y-16800D01*
X35549Y-17399D01*
X35587Y-17491D01*
X35658Y-17561D01*
X35692Y-17576D01*
X35633Y-17634D01*
X35595Y-17726D01*
X35595Y-17826D01*
X35595Y-18455D01*
X35633Y-18546D01*
X35703Y-18617D01*
X35782Y-18650D01*
X35703Y-18682D01*
X35633Y-18753D01*
X35595Y-18844D01*
X35595Y-19096D01*
X35658Y-19159D01*
X36150Y-19159D01*
X36150Y-19151D01*
X36250Y-19151D01*
X36250Y-19159D01*
X36742Y-19159D01*
X36804Y-19096D01*
X36804Y-18844D01*
X36766Y-18753D01*
X36696Y-18682D01*
X36617Y-18649D01*
X36695Y-18617D01*
X36766Y-18547D01*
X36804Y-18455D01*
X36804Y-18355D01*
X36804Y-17726D01*
X36766Y-17635D01*
X36707Y-17576D01*
X36741Y-17562D01*
X36811Y-17491D01*
X36849Y-17399D01*
X36850Y-17300D01*
X36850Y-16800D01*
X37049Y-16800D01*
X37049Y-17399D01*
X37087Y-17491D01*
X37158Y-17561D01*
X37192Y-17576D01*
X37133Y-17634D01*
X37095Y-17726D01*
X37095Y-17826D01*
X37095Y-18455D01*
X37133Y-18546D01*
X37203Y-18617D01*
X37282Y-18650D01*
X37203Y-18682D01*
X37133Y-18753D01*
X37095Y-18844D01*
X37095Y-19096D01*
X37158Y-19159D01*
X37650Y-19159D01*
X37650Y-19151D01*
X37750Y-19151D01*
X37750Y-19159D01*
X38242Y-19159D01*
X38304Y-19096D01*
X38304Y-18844D01*
X38266Y-18753D01*
X38196Y-18682D01*
X38117Y-18649D01*
X38195Y-18617D01*
X38266Y-18547D01*
X38304Y-18455D01*
X38304Y-18355D01*
X38304Y-17726D01*
X38266Y-17635D01*
X38207Y-17576D01*
X38241Y-17562D01*
X38311Y-17491D01*
X38349Y-17399D01*
X38350Y-17300D01*
X38350Y-16700D01*
X38312Y-16608D01*
X38241Y-16538D01*
X38149Y-16500D01*
X38050Y-16499D01*
X37724Y-16499D01*
X37912Y-16312D01*
X37912Y-16312D01*
X37920Y-16300D01*
X37920Y-16300D01*
X38149Y-16300D01*
X38241Y-16262D01*
X38311Y-16191D01*
X38349Y-16099D01*
X38350Y-16000D01*
X38350Y-15400D01*
X38312Y-15308D01*
X38241Y-15238D01*
X38149Y-15200D01*
X38130Y-15200D01*
X38130Y-15019D01*
X38130Y-14532D01*
X38130Y-14432D01*
X38130Y-13944D01*
X38130Y-12855D01*
X38130Y-12368D01*
X37642Y-12368D01*
X37580Y-12430D01*
X37579Y-12618D01*
X37580Y-12717D01*
X37618Y-12809D01*
X37688Y-12880D01*
X37780Y-12918D01*
X38067Y-12918D01*
X38130Y-12855D01*
X38130Y-13944D01*
X38067Y-13882D01*
X37780Y-13881D01*
X37688Y-13919D01*
X37618Y-13990D01*
X37580Y-14082D01*
X37579Y-14181D01*
X37580Y-14369D01*
X37642Y-14432D01*
X38130Y-14432D01*
X38130Y-14532D01*
X37642Y-14532D01*
X37580Y-14594D01*
X37579Y-14782D01*
X37580Y-14881D01*
X37618Y-14973D01*
X37688Y-15044D01*
X37780Y-15082D01*
X38067Y-15082D01*
X38130Y-15019D01*
X38130Y-15200D01*
X38050Y-15199D01*
X37250Y-15199D01*
X37158Y-15237D01*
X37126Y-15270D01*
X37126Y-14782D01*
X37126Y-14181D01*
X37125Y-14082D01*
X37087Y-13990D01*
X37017Y-13919D01*
X36925Y-13881D01*
X36638Y-13882D01*
X36576Y-13944D01*
X36576Y-14432D01*
X37063Y-14432D01*
X37126Y-14369D01*
X37126Y-14181D01*
X37126Y-14782D01*
X37126Y-14594D01*
X37063Y-14532D01*
X36576Y-14532D01*
X36576Y-15019D01*
X36638Y-15082D01*
X36925Y-15082D01*
X37017Y-15044D01*
X37087Y-14973D01*
X37125Y-14881D01*
X37126Y-14782D01*
X37126Y-15270D01*
X37088Y-15308D01*
X37050Y-15400D01*
X37049Y-15499D01*
X37049Y-16099D01*
X37087Y-16191D01*
X37096Y-16200D01*
X36916Y-16200D01*
X36949Y-16119D01*
X36950Y-15980D01*
X36950Y-15380D01*
X36896Y-15252D01*
X36798Y-15153D01*
X36669Y-15100D01*
X36530Y-15099D01*
X36507Y-15099D01*
X36451Y-15044D01*
X36476Y-15019D01*
X36476Y-14532D01*
X36468Y-14532D01*
X36468Y-14432D01*
X36476Y-14432D01*
X36476Y-13944D01*
X36413Y-13882D01*
X36200Y-13881D01*
X36200Y-13351D01*
X36533Y-13018D01*
X36945Y-13018D01*
X37074Y-12964D01*
X37172Y-12866D01*
X37225Y-12737D01*
X37226Y-12598D01*
X37226Y-12081D01*
X37407Y-11900D01*
X37587Y-11900D01*
X37580Y-11918D01*
X37579Y-12017D01*
X37580Y-12205D01*
X37642Y-12268D01*
X38130Y-12268D01*
X38130Y-12260D01*
X38230Y-12260D01*
X38230Y-12268D01*
X38717Y-12268D01*
X38780Y-12205D01*
X38780Y-12017D01*
X38779Y-11918D01*
X38772Y-11900D01*
X39240Y-11900D01*
X39233Y-11918D01*
X39232Y-12017D01*
X39232Y-12717D01*
X39270Y-12809D01*
X39341Y-12879D01*
X39433Y-12917D01*
X39532Y-12918D01*
X40232Y-12918D01*
X40324Y-12880D01*
X40394Y-12809D01*
X40432Y-12717D01*
X40433Y-12618D01*
X40433Y-11918D01*
X40425Y-11900D01*
X40894Y-11900D01*
X40887Y-11918D01*
X40886Y-12017D01*
X40886Y-12717D01*
X40924Y-12809D01*
X40995Y-12879D01*
X41087Y-12917D01*
X41186Y-12918D01*
X41886Y-12918D01*
X41978Y-12880D01*
X42048Y-12809D01*
X42086Y-12717D01*
X42087Y-12618D01*
X42087Y-11918D01*
X42079Y-11900D01*
X42440Y-11900D01*
X42439Y-12037D01*
X42439Y-12737D01*
X42493Y-12866D01*
X42591Y-12964D01*
X42720Y-13017D01*
X42859Y-13018D01*
X43450Y-13018D01*
X43450Y-13464D01*
X43132Y-13781D01*
X42720Y-13781D01*
X42592Y-13835D01*
X42493Y-13933D01*
X42473Y-13982D01*
X42153Y-13982D01*
X42133Y-13934D01*
X42035Y-13835D01*
X41906Y-13782D01*
X41767Y-13781D01*
X41067Y-13781D01*
X40939Y-13835D01*
X40840Y-13933D01*
X40787Y-14062D01*
X40786Y-14201D01*
X40786Y-14901D01*
X40840Y-15030D01*
X40938Y-15128D01*
X41067Y-15181D01*
X41206Y-15182D01*
X41906Y-15182D01*
X42035Y-15128D01*
X42133Y-15030D01*
X42153Y-14982D01*
X42473Y-14982D01*
X42493Y-15030D01*
X42591Y-15128D01*
X42720Y-15181D01*
X42859Y-15182D01*
X43559Y-15182D01*
X43688Y-15128D01*
X43786Y-15030D01*
X43839Y-14901D01*
X43840Y-14762D01*
X43840Y-14489D01*
X44150Y-14178D01*
X44150Y-14472D01*
X44278Y-14781D01*
X44514Y-15018D01*
X44823Y-15146D01*
X45157Y-15146D01*
X45466Y-15018D01*
X45703Y-14782D01*
X45750Y-14669D01*
X45750Y-26250D01*
X45772Y-26364D01*
X45837Y-26462D01*
X45975Y-26600D01*
G54D10*
G36*
X49125Y-35825D02*
X32000Y-35825D01*
X32000Y-32181D01*
X31871Y-31869D01*
X31632Y-31629D01*
X31319Y-31500D01*
X30981Y-31499D01*
X30669Y-31628D01*
X30429Y-31867D01*
X30300Y-32180D01*
X30299Y-32518D01*
X30428Y-32830D01*
X30667Y-33070D01*
X30980Y-33199D01*
X31318Y-33200D01*
X31630Y-33071D01*
X31870Y-32832D01*
X31999Y-32519D01*
X32000Y-32181D01*
X32000Y-35825D01*
X28770Y-35825D01*
X28770Y-34690D01*
X28643Y-34381D01*
X28530Y-34268D01*
X28530Y-32282D01*
X28530Y-32094D01*
X28467Y-32032D01*
X27980Y-32032D01*
X27980Y-32519D01*
X28042Y-32582D01*
X28329Y-32582D01*
X28421Y-32544D01*
X28491Y-32473D01*
X28529Y-32381D01*
X28530Y-32282D01*
X28530Y-34268D01*
X28406Y-34144D01*
X28097Y-34016D01*
X27880Y-34016D01*
X27880Y-32519D01*
X27880Y-32032D01*
X27392Y-32032D01*
X27330Y-32094D01*
X27329Y-32282D01*
X27330Y-32381D01*
X27368Y-32473D01*
X27438Y-32544D01*
X27530Y-32582D01*
X27817Y-32582D01*
X27880Y-32519D01*
X27880Y-34016D01*
X27763Y-34015D01*
X27454Y-34143D01*
X27217Y-34379D01*
X27089Y-34688D01*
X27089Y-35023D01*
X27217Y-35332D01*
X27453Y-35568D01*
X27762Y-35697D01*
X28096Y-35697D01*
X28405Y-35569D01*
X28642Y-35333D01*
X28770Y-35024D01*
X28770Y-34690D01*
X28770Y-35825D01*
X26876Y-35825D01*
X26876Y-32282D01*
X26876Y-32094D01*
X26813Y-32032D01*
X26326Y-32032D01*
X26326Y-32519D01*
X26388Y-32582D01*
X26675Y-32582D01*
X26767Y-32544D01*
X26837Y-32473D01*
X26875Y-32381D01*
X26876Y-32282D01*
X26876Y-35825D01*
X26226Y-35825D01*
X26226Y-32519D01*
X26226Y-32032D01*
X25738Y-32032D01*
X25676Y-32094D01*
X25675Y-32282D01*
X25676Y-32381D01*
X25714Y-32473D01*
X25784Y-32544D01*
X25876Y-32582D01*
X26163Y-32582D01*
X26226Y-32519D01*
X26226Y-35825D01*
X25224Y-35825D01*
X25224Y-32282D01*
X25224Y-31681D01*
X25223Y-31582D01*
X25185Y-31490D01*
X25115Y-31419D01*
X25023Y-31381D01*
X24736Y-31382D01*
X24674Y-31444D01*
X24674Y-31932D01*
X25161Y-31932D01*
X25224Y-31869D01*
X25224Y-31681D01*
X25224Y-32282D01*
X25224Y-32094D01*
X25161Y-32032D01*
X24674Y-32032D01*
X24674Y-32519D01*
X24736Y-32582D01*
X25023Y-32582D01*
X25115Y-32544D01*
X25185Y-32473D01*
X25223Y-32381D01*
X25224Y-32282D01*
X25224Y-35825D01*
X24574Y-35825D01*
X24574Y-32519D01*
X24574Y-32032D01*
X24574Y-31932D01*
X24574Y-31444D01*
X24511Y-31382D01*
X24224Y-31381D01*
X24132Y-31419D01*
X24062Y-31490D01*
X24024Y-31582D01*
X24023Y-31681D01*
X24024Y-31869D01*
X24086Y-31932D01*
X24574Y-31932D01*
X24574Y-32032D01*
X24086Y-32032D01*
X24024Y-32094D01*
X24023Y-32282D01*
X24024Y-32381D01*
X24062Y-32473D01*
X24132Y-32544D01*
X24224Y-32582D01*
X24511Y-32582D01*
X24574Y-32519D01*
X24574Y-35825D01*
X23810Y-35825D01*
X23810Y-34690D01*
X23683Y-34381D01*
X23570Y-34268D01*
X23570Y-32282D01*
X23570Y-32094D01*
X23507Y-32032D01*
X23020Y-32032D01*
X23020Y-32519D01*
X23082Y-32582D01*
X23369Y-32582D01*
X23461Y-32544D01*
X23531Y-32473D01*
X23569Y-32381D01*
X23570Y-32282D01*
X23570Y-34268D01*
X23446Y-34144D01*
X23137Y-34016D01*
X22920Y-34016D01*
X22920Y-32519D01*
X22920Y-32032D01*
X22432Y-32032D01*
X22370Y-32094D01*
X22369Y-32282D01*
X22370Y-32381D01*
X22408Y-32473D01*
X22478Y-32544D01*
X22570Y-32582D01*
X22857Y-32582D01*
X22920Y-32519D01*
X22920Y-34016D01*
X22803Y-34015D01*
X22494Y-34143D01*
X22257Y-34379D01*
X22129Y-34688D01*
X22129Y-35023D01*
X22257Y-35332D01*
X22493Y-35568D01*
X22802Y-35697D01*
X23136Y-35697D01*
X23445Y-35569D01*
X23682Y-35333D01*
X23810Y-35024D01*
X23810Y-34690D01*
X23810Y-35825D01*
X20532Y-35825D01*
X21553Y-34803D01*
X21553Y-34803D01*
X21553Y-34803D01*
X21661Y-34641D01*
X21700Y-34450D01*
X21700Y-32357D01*
X22369Y-31687D01*
X22370Y-31869D01*
X22432Y-31932D01*
X22920Y-31932D01*
X22920Y-31924D01*
X23020Y-31924D01*
X23020Y-31932D01*
X23507Y-31932D01*
X23570Y-31869D01*
X23570Y-31681D01*
X23569Y-31582D01*
X23531Y-31490D01*
X23461Y-31419D01*
X23413Y-31400D01*
X23549Y-31400D01*
X23550Y-31400D01*
X23550Y-31400D01*
X23741Y-31361D01*
X23903Y-31253D01*
X24628Y-30529D01*
X25402Y-31303D01*
X25402Y-31303D01*
X25564Y-31411D01*
X25564Y-31411D01*
X25717Y-31442D01*
X25754Y-31449D01*
X25714Y-31490D01*
X25676Y-31582D01*
X25675Y-31681D01*
X25676Y-31869D01*
X25738Y-31932D01*
X26226Y-31932D01*
X26226Y-31924D01*
X26326Y-31924D01*
X26326Y-31932D01*
X26813Y-31932D01*
X26876Y-31869D01*
X26876Y-31681D01*
X26875Y-31582D01*
X26837Y-31490D01*
X26797Y-31450D01*
X27408Y-31450D01*
X27368Y-31490D01*
X27330Y-31582D01*
X27329Y-31681D01*
X27330Y-31869D01*
X27392Y-31932D01*
X27880Y-31932D01*
X27880Y-31924D01*
X27980Y-31924D01*
X27980Y-31932D01*
X28467Y-31932D01*
X28530Y-31869D01*
X28530Y-31681D01*
X28529Y-31582D01*
X28491Y-31490D01*
X28451Y-31450D01*
X28674Y-31450D01*
X28675Y-31450D01*
X28675Y-31450D01*
X28866Y-31411D01*
X29028Y-31303D01*
X29557Y-30775D01*
X36174Y-30775D01*
X36175Y-30775D01*
X36175Y-30775D01*
X36366Y-30736D01*
X36528Y-30628D01*
X38278Y-28878D01*
X38278Y-28878D01*
X38278Y-28878D01*
X38386Y-28716D01*
X38425Y-28525D01*
X38425Y-28449D01*
X38461Y-28503D01*
X38639Y-28622D01*
X38850Y-28664D01*
X39060Y-28622D01*
X39238Y-28503D01*
X39350Y-28337D01*
X39461Y-28503D01*
X39639Y-28622D01*
X39850Y-28664D01*
X40060Y-28622D01*
X40238Y-28503D01*
X40350Y-28337D01*
X40461Y-28503D01*
X40639Y-28622D01*
X40850Y-28664D01*
X41060Y-28622D01*
X41238Y-28503D01*
X41350Y-28337D01*
X41461Y-28503D01*
X41639Y-28622D01*
X41850Y-28664D01*
X42060Y-28622D01*
X42238Y-28503D01*
X42350Y-28337D01*
X42461Y-28503D01*
X42639Y-28622D01*
X42850Y-28664D01*
X43060Y-28622D01*
X43238Y-28503D01*
X43350Y-28337D01*
X43461Y-28503D01*
X43639Y-28622D01*
X43850Y-28664D01*
X44060Y-28622D01*
X44238Y-28503D01*
X44350Y-28337D01*
X44461Y-28503D01*
X44639Y-28622D01*
X44850Y-28664D01*
X45060Y-28622D01*
X45238Y-28503D01*
X45350Y-28337D01*
X45461Y-28503D01*
X45617Y-28608D01*
X45475Y-28750D01*
X43650Y-28750D01*
X43535Y-28772D01*
X43437Y-28837D01*
X43168Y-29107D01*
X43149Y-29100D01*
X43050Y-29099D01*
X42450Y-29099D01*
X42358Y-29137D01*
X42288Y-29208D01*
X42250Y-29300D01*
X42249Y-29399D01*
X42249Y-29775D01*
X41787Y-30237D01*
X41722Y-30335D01*
X41700Y-30450D01*
X41700Y-31075D01*
X39025Y-31075D01*
X38910Y-31097D01*
X38812Y-31162D01*
X37999Y-31975D01*
X38000Y-31900D01*
X38000Y-31300D01*
X37962Y-31208D01*
X37891Y-31138D01*
X37799Y-31100D01*
X37700Y-31099D01*
X37100Y-31099D01*
X37008Y-31137D01*
X36938Y-31208D01*
X36900Y-31300D01*
X36899Y-31353D01*
X36835Y-31334D01*
X36765Y-31405D01*
X36765Y-31264D01*
X36737Y-31168D01*
X36531Y-31095D01*
X36313Y-31106D01*
X36162Y-31168D01*
X36134Y-31264D01*
X36450Y-31579D01*
X36765Y-31264D01*
X36765Y-31405D01*
X36520Y-31650D01*
X36835Y-31965D01*
X36899Y-31946D01*
X36899Y-31999D01*
X36937Y-32091D01*
X37008Y-32161D01*
X37100Y-32199D01*
X37122Y-32199D01*
X36984Y-32338D01*
X36950Y-32419D01*
X36916Y-32338D01*
X36761Y-32184D01*
X36686Y-32152D01*
X36737Y-32131D01*
X36765Y-32035D01*
X36450Y-31720D01*
X36134Y-32035D01*
X36162Y-32131D01*
X36217Y-32150D01*
X36138Y-32183D01*
X35984Y-32338D01*
X35950Y-32419D01*
X35916Y-32338D01*
X35761Y-32184D01*
X35680Y-32150D01*
X35761Y-32116D01*
X35915Y-31961D01*
X35947Y-31886D01*
X35968Y-31937D01*
X36064Y-31965D01*
X36379Y-31650D01*
X36064Y-31334D01*
X35968Y-31362D01*
X35949Y-31417D01*
X35916Y-31338D01*
X35761Y-31184D01*
X35559Y-31100D01*
X35341Y-31099D01*
X35138Y-31183D01*
X34984Y-31338D01*
X34950Y-31419D01*
X34916Y-31338D01*
X34761Y-31184D01*
X34559Y-31100D01*
X34341Y-31099D01*
X34138Y-31183D01*
X33984Y-31338D01*
X33950Y-31419D01*
X33916Y-31338D01*
X33761Y-31184D01*
X33559Y-31100D01*
X33341Y-31099D01*
X33138Y-31183D01*
X32984Y-31338D01*
X32900Y-31540D01*
X32899Y-31758D01*
X32904Y-31770D01*
X32737Y-31937D01*
X32672Y-32035D01*
X32650Y-32150D01*
X32650Y-32850D01*
X32672Y-32964D01*
X32737Y-33062D01*
X34287Y-34612D01*
X34287Y-34612D01*
X34385Y-34677D01*
X34499Y-34699D01*
X34500Y-34700D01*
X42249Y-34700D01*
X42249Y-34849D01*
X42287Y-34941D01*
X42358Y-35011D01*
X42450Y-35049D01*
X42549Y-35050D01*
X43025Y-35050D01*
X43312Y-35337D01*
X43312Y-35337D01*
X43410Y-35402D01*
X43525Y-35425D01*
X45600Y-35425D01*
X45600Y-35424D01*
X45714Y-35402D01*
X45714Y-35402D01*
X45812Y-35337D01*
X46224Y-34925D01*
X46303Y-34925D01*
X46497Y-34845D01*
X46644Y-34697D01*
X46724Y-34504D01*
X46725Y-34296D01*
X46645Y-34103D01*
X46497Y-33955D01*
X46364Y-33899D01*
X46497Y-33845D01*
X46644Y-33697D01*
X46724Y-33504D01*
X46725Y-33299D01*
X47062Y-32962D01*
X47062Y-32962D01*
X47127Y-32864D01*
X47149Y-32750D01*
X47150Y-32750D01*
X47150Y-28649D01*
X47268Y-28768D01*
X47645Y-28924D01*
X48052Y-28925D01*
X48429Y-28769D01*
X48718Y-28481D01*
X48874Y-28104D01*
X48875Y-27697D01*
X48719Y-27320D01*
X48431Y-27031D01*
X48404Y-27020D01*
X48404Y-25981D01*
X48393Y-25763D01*
X48331Y-25612D01*
X48235Y-25584D01*
X47920Y-25900D01*
X48235Y-26215D01*
X48331Y-26187D01*
X48404Y-25981D01*
X48404Y-27020D01*
X48165Y-26921D01*
X48165Y-26285D01*
X47850Y-25970D01*
X47779Y-26041D01*
X47779Y-25900D01*
X47464Y-25584D01*
X47368Y-25612D01*
X47351Y-25660D01*
X47331Y-25612D01*
X47235Y-25584D01*
X46920Y-25900D01*
X47235Y-26215D01*
X47331Y-26187D01*
X47348Y-26139D01*
X47368Y-26187D01*
X47464Y-26215D01*
X47779Y-25900D01*
X47779Y-26041D01*
X47534Y-26285D01*
X47562Y-26381D01*
X47768Y-26454D01*
X47986Y-26443D01*
X48137Y-26381D01*
X48165Y-26285D01*
X48165Y-26921D01*
X48054Y-26875D01*
X47647Y-26874D01*
X47270Y-27030D01*
X47150Y-27150D01*
X47150Y-26700D01*
X47127Y-26585D01*
X47062Y-26487D01*
X47062Y-26487D01*
X47008Y-26434D01*
X47137Y-26381D01*
X47165Y-26285D01*
X46850Y-25970D01*
X46844Y-25976D01*
X46773Y-25905D01*
X46779Y-25900D01*
X46773Y-25894D01*
X46844Y-25823D01*
X46850Y-25829D01*
X47165Y-25514D01*
X47137Y-25418D01*
X47082Y-25399D01*
X47161Y-25366D01*
X47315Y-25211D01*
X47349Y-25130D01*
X47383Y-25211D01*
X47538Y-25365D01*
X47613Y-25397D01*
X47562Y-25418D01*
X47534Y-25514D01*
X47850Y-25829D01*
X48165Y-25514D01*
X48137Y-25418D01*
X48082Y-25399D01*
X48161Y-25366D01*
X48315Y-25211D01*
X48399Y-25009D01*
X48400Y-24791D01*
X48316Y-24588D01*
X48161Y-24434D01*
X48080Y-24400D01*
X48161Y-24366D01*
X48315Y-24211D01*
X48399Y-24009D01*
X48400Y-23791D01*
X48316Y-23588D01*
X48161Y-23434D01*
X48080Y-23400D01*
X48161Y-23366D01*
X48315Y-23211D01*
X48399Y-23009D01*
X48400Y-22791D01*
X48316Y-22588D01*
X48161Y-22434D01*
X48080Y-22400D01*
X48161Y-22366D01*
X48315Y-22211D01*
X48399Y-22009D01*
X48400Y-21791D01*
X48316Y-21588D01*
X48161Y-21434D01*
X48080Y-21400D01*
X48161Y-21366D01*
X48315Y-21211D01*
X48399Y-21009D01*
X48400Y-20791D01*
X48316Y-20588D01*
X48161Y-20434D01*
X48080Y-20400D01*
X48161Y-20366D01*
X48315Y-20211D01*
X48399Y-20009D01*
X48400Y-19791D01*
X48316Y-19588D01*
X48161Y-19434D01*
X48080Y-19400D01*
X48161Y-19366D01*
X48315Y-19211D01*
X48399Y-19009D01*
X48400Y-18791D01*
X48316Y-18588D01*
X48161Y-18434D01*
X48080Y-18400D01*
X48161Y-18366D01*
X48315Y-18211D01*
X48399Y-18009D01*
X48400Y-17791D01*
X48316Y-17588D01*
X48161Y-17434D01*
X48080Y-17400D01*
X48161Y-17366D01*
X48315Y-17211D01*
X48399Y-17009D01*
X48400Y-16791D01*
X48316Y-16588D01*
X48161Y-16434D01*
X48080Y-16400D01*
X48161Y-16366D01*
X48315Y-16211D01*
X48399Y-16009D01*
X48400Y-15791D01*
X48316Y-15588D01*
X48161Y-15434D01*
X48080Y-15400D01*
X48161Y-15366D01*
X48315Y-15211D01*
X48399Y-15009D01*
X48400Y-14791D01*
X48316Y-14588D01*
X48161Y-14434D01*
X48080Y-14400D01*
X48161Y-14366D01*
X48315Y-14211D01*
X48399Y-14009D01*
X48400Y-13791D01*
X48316Y-13588D01*
X48161Y-13434D01*
X48080Y-13400D01*
X48161Y-13366D01*
X48315Y-13211D01*
X48399Y-13009D01*
X48400Y-12791D01*
X48316Y-12588D01*
X48161Y-12434D01*
X48080Y-12400D01*
X48161Y-12366D01*
X48315Y-12211D01*
X48399Y-12009D01*
X48400Y-11791D01*
X48316Y-11588D01*
X48161Y-11434D01*
X48080Y-11400D01*
X48161Y-11366D01*
X48315Y-11211D01*
X48399Y-11009D01*
X48400Y-10791D01*
X48316Y-10588D01*
X48161Y-10434D01*
X48080Y-10400D01*
X48161Y-10366D01*
X48315Y-10211D01*
X48399Y-10009D01*
X48400Y-9791D01*
X48316Y-9588D01*
X48161Y-9434D01*
X48080Y-9400D01*
X48161Y-9366D01*
X48315Y-9211D01*
X48399Y-9009D01*
X48400Y-8791D01*
X48316Y-8588D01*
X48161Y-8434D01*
X47959Y-8350D01*
X47741Y-8349D01*
X47538Y-8433D01*
X47384Y-8588D01*
X47350Y-8669D01*
X47316Y-8588D01*
X47161Y-8434D01*
X46959Y-8350D01*
X46741Y-8349D01*
X46538Y-8433D01*
X46384Y-8588D01*
X46357Y-8653D01*
X46219Y-8320D01*
X46124Y-8225D01*
X49125Y-8225D01*
X49125Y-35825D01*
X49125Y-35825D01*
G37*
G54D32*
X49125Y-35825D02*
X32000Y-35825D01*
X32000Y-32181D01*
X31871Y-31869D01*
X31632Y-31629D01*
X31319Y-31500D01*
X30981Y-31499D01*
X30669Y-31628D01*
X30429Y-31867D01*
X30300Y-32180D01*
X30299Y-32518D01*
X30428Y-32830D01*
X30667Y-33070D01*
X30980Y-33199D01*
X31318Y-33200D01*
X31630Y-33071D01*
X31870Y-32832D01*
X31999Y-32519D01*
X32000Y-32181D01*
X32000Y-35825D01*
X28770Y-35825D01*
X28770Y-34690D01*
X28643Y-34381D01*
X28530Y-34268D01*
X28530Y-32282D01*
X28530Y-32094D01*
X28467Y-32032D01*
X27980Y-32032D01*
X27980Y-32519D01*
X28042Y-32582D01*
X28329Y-32582D01*
X28421Y-32544D01*
X28491Y-32473D01*
X28529Y-32381D01*
X28530Y-32282D01*
X28530Y-34268D01*
X28406Y-34144D01*
X28097Y-34016D01*
X27880Y-34016D01*
X27880Y-32519D01*
X27880Y-32032D01*
X27392Y-32032D01*
X27330Y-32094D01*
X27329Y-32282D01*
X27330Y-32381D01*
X27368Y-32473D01*
X27438Y-32544D01*
X27530Y-32582D01*
X27817Y-32582D01*
X27880Y-32519D01*
X27880Y-34016D01*
X27763Y-34015D01*
X27454Y-34143D01*
X27217Y-34379D01*
X27089Y-34688D01*
X27089Y-35023D01*
X27217Y-35332D01*
X27453Y-35568D01*
X27762Y-35697D01*
X28096Y-35697D01*
X28405Y-35569D01*
X28642Y-35333D01*
X28770Y-35024D01*
X28770Y-34690D01*
X28770Y-35825D01*
X26876Y-35825D01*
X26876Y-32282D01*
X26876Y-32094D01*
X26813Y-32032D01*
X26326Y-32032D01*
X26326Y-32519D01*
X26388Y-32582D01*
X26675Y-32582D01*
X26767Y-32544D01*
X26837Y-32473D01*
X26875Y-32381D01*
X26876Y-32282D01*
X26876Y-35825D01*
X26226Y-35825D01*
X26226Y-32519D01*
X26226Y-32032D01*
X25738Y-32032D01*
X25676Y-32094D01*
X25675Y-32282D01*
X25676Y-32381D01*
X25714Y-32473D01*
X25784Y-32544D01*
X25876Y-32582D01*
X26163Y-32582D01*
X26226Y-32519D01*
X26226Y-35825D01*
X25224Y-35825D01*
X25224Y-32282D01*
X25224Y-31681D01*
X25223Y-31582D01*
X25185Y-31490D01*
X25115Y-31419D01*
X25023Y-31381D01*
X24736Y-31382D01*
X24674Y-31444D01*
X24674Y-31932D01*
X25161Y-31932D01*
X25224Y-31869D01*
X25224Y-31681D01*
X25224Y-32282D01*
X25224Y-32094D01*
X25161Y-32032D01*
X24674Y-32032D01*
X24674Y-32519D01*
X24736Y-32582D01*
X25023Y-32582D01*
X25115Y-32544D01*
X25185Y-32473D01*
X25223Y-32381D01*
X25224Y-32282D01*
X25224Y-35825D01*
X24574Y-35825D01*
X24574Y-32519D01*
X24574Y-32032D01*
X24574Y-31932D01*
X24574Y-31444D01*
X24511Y-31382D01*
X24224Y-31381D01*
X24132Y-31419D01*
X24062Y-31490D01*
X24024Y-31582D01*
X24023Y-31681D01*
X24024Y-31869D01*
X24086Y-31932D01*
X24574Y-31932D01*
X24574Y-32032D01*
X24086Y-32032D01*
X24024Y-32094D01*
X24023Y-32282D01*
X24024Y-32381D01*
X24062Y-32473D01*
X24132Y-32544D01*
X24224Y-32582D01*
X24511Y-32582D01*
X24574Y-32519D01*
X24574Y-35825D01*
X23810Y-35825D01*
X23810Y-34690D01*
X23683Y-34381D01*
X23570Y-34268D01*
X23570Y-32282D01*
X23570Y-32094D01*
X23507Y-32032D01*
X23020Y-32032D01*
X23020Y-32519D01*
X23082Y-32582D01*
X23369Y-32582D01*
X23461Y-32544D01*
X23531Y-32473D01*
X23569Y-32381D01*
X23570Y-32282D01*
X23570Y-34268D01*
X23446Y-34144D01*
X23137Y-34016D01*
X22920Y-34016D01*
X22920Y-32519D01*
X22920Y-32032D01*
X22432Y-32032D01*
X22370Y-32094D01*
X22369Y-32282D01*
X22370Y-32381D01*
X22408Y-32473D01*
X22478Y-32544D01*
X22570Y-32582D01*
X22857Y-32582D01*
X22920Y-32519D01*
X22920Y-34016D01*
X22803Y-34015D01*
X22494Y-34143D01*
X22257Y-34379D01*
X22129Y-34688D01*
X22129Y-35023D01*
X22257Y-35332D01*
X22493Y-35568D01*
X22802Y-35697D01*
X23136Y-35697D01*
X23445Y-35569D01*
X23682Y-35333D01*
X23810Y-35024D01*
X23810Y-34690D01*
X23810Y-35825D01*
X20532Y-35825D01*
X21553Y-34803D01*
X21553Y-34803D01*
X21553Y-34803D01*
X21661Y-34641D01*
X21700Y-34450D01*
X21700Y-32357D01*
X22369Y-31687D01*
X22370Y-31869D01*
X22432Y-31932D01*
X22920Y-31932D01*
X22920Y-31924D01*
X23020Y-31924D01*
X23020Y-31932D01*
X23507Y-31932D01*
X23570Y-31869D01*
X23570Y-31681D01*
X23569Y-31582D01*
X23531Y-31490D01*
X23461Y-31419D01*
X23413Y-31400D01*
X23549Y-31400D01*
X23550Y-31400D01*
X23550Y-31400D01*
X23741Y-31361D01*
X23903Y-31253D01*
X24628Y-30529D01*
X25402Y-31303D01*
X25402Y-31303D01*
X25564Y-31411D01*
X25564Y-31411D01*
X25717Y-31442D01*
X25754Y-31449D01*
X25714Y-31490D01*
X25676Y-31582D01*
X25675Y-31681D01*
X25676Y-31869D01*
X25738Y-31932D01*
X26226Y-31932D01*
X26226Y-31924D01*
X26326Y-31924D01*
X26326Y-31932D01*
X26813Y-31932D01*
X26876Y-31869D01*
X26876Y-31681D01*
X26875Y-31582D01*
X26837Y-31490D01*
X26797Y-31450D01*
X27408Y-31450D01*
X27368Y-31490D01*
X27330Y-31582D01*
X27329Y-31681D01*
X27330Y-31869D01*
X27392Y-31932D01*
X27880Y-31932D01*
X27880Y-31924D01*
X27980Y-31924D01*
X27980Y-31932D01*
X28467Y-31932D01*
X28530Y-31869D01*
X28530Y-31681D01*
X28529Y-31582D01*
X28491Y-31490D01*
X28451Y-31450D01*
X28674Y-31450D01*
X28675Y-31450D01*
X28675Y-31450D01*
X28866Y-31411D01*
X29028Y-31303D01*
X29557Y-30775D01*
X36174Y-30775D01*
X36175Y-30775D01*
X36175Y-30775D01*
X36366Y-30736D01*
X36528Y-30628D01*
X38278Y-28878D01*
X38278Y-28878D01*
X38278Y-28878D01*
X38386Y-28716D01*
X38425Y-28525D01*
X38425Y-28449D01*
X38461Y-28503D01*
X38639Y-28622D01*
X38850Y-28664D01*
X39060Y-28622D01*
X39238Y-28503D01*
X39350Y-28337D01*
X39461Y-28503D01*
X39639Y-28622D01*
X39850Y-28664D01*
X40060Y-28622D01*
X40238Y-28503D01*
X40350Y-28337D01*
X40461Y-28503D01*
X40639Y-28622D01*
X40850Y-28664D01*
X41060Y-28622D01*
X41238Y-28503D01*
X41350Y-28337D01*
X41461Y-28503D01*
X41639Y-28622D01*
X41850Y-28664D01*
X42060Y-28622D01*
X42238Y-28503D01*
X42350Y-28337D01*
X42461Y-28503D01*
X42639Y-28622D01*
X42850Y-28664D01*
X43060Y-28622D01*
X43238Y-28503D01*
X43350Y-28337D01*
X43461Y-28503D01*
X43639Y-28622D01*
X43850Y-28664D01*
X44060Y-28622D01*
X44238Y-28503D01*
X44350Y-28337D01*
X44461Y-28503D01*
X44639Y-28622D01*
X44850Y-28664D01*
X45060Y-28622D01*
X45238Y-28503D01*
X45350Y-28337D01*
X45461Y-28503D01*
X45617Y-28608D01*
X45475Y-28750D01*
X43650Y-28750D01*
X43535Y-28772D01*
X43437Y-28837D01*
X43168Y-29107D01*
X43149Y-29100D01*
X43050Y-29099D01*
X42450Y-29099D01*
X42358Y-29137D01*
X42288Y-29208D01*
X42250Y-29300D01*
X42249Y-29399D01*
X42249Y-29775D01*
X41787Y-30237D01*
X41722Y-30335D01*
X41700Y-30450D01*
X41700Y-31075D01*
X39025Y-31075D01*
X38910Y-31097D01*
X38812Y-31162D01*
X37999Y-31975D01*
X38000Y-31900D01*
X38000Y-31300D01*
X37962Y-31208D01*
X37891Y-31138D01*
X37799Y-31100D01*
X37700Y-31099D01*
X37100Y-31099D01*
X37008Y-31137D01*
X36938Y-31208D01*
X36900Y-31300D01*
X36899Y-31353D01*
X36835Y-31334D01*
X36765Y-31405D01*
X36765Y-31264D01*
X36737Y-31168D01*
X36531Y-31095D01*
X36313Y-31106D01*
X36162Y-31168D01*
X36134Y-31264D01*
X36450Y-31579D01*
X36765Y-31264D01*
X36765Y-31405D01*
X36520Y-31650D01*
X36835Y-31965D01*
X36899Y-31946D01*
X36899Y-31999D01*
X36937Y-32091D01*
X37008Y-32161D01*
X37100Y-32199D01*
X37122Y-32199D01*
X36984Y-32338D01*
X36950Y-32419D01*
X36916Y-32338D01*
X36761Y-32184D01*
X36686Y-32152D01*
X36737Y-32131D01*
X36765Y-32035D01*
X36450Y-31720D01*
X36134Y-32035D01*
X36162Y-32131D01*
X36217Y-32150D01*
X36138Y-32183D01*
X35984Y-32338D01*
X35950Y-32419D01*
X35916Y-32338D01*
X35761Y-32184D01*
X35680Y-32150D01*
X35761Y-32116D01*
X35915Y-31961D01*
X35947Y-31886D01*
X35968Y-31937D01*
X36064Y-31965D01*
X36379Y-31650D01*
X36064Y-31334D01*
X35968Y-31362D01*
X35949Y-31417D01*
X35916Y-31338D01*
X35761Y-31184D01*
X35559Y-31100D01*
X35341Y-31099D01*
X35138Y-31183D01*
X34984Y-31338D01*
X34950Y-31419D01*
X34916Y-31338D01*
X34761Y-31184D01*
X34559Y-31100D01*
X34341Y-31099D01*
X34138Y-31183D01*
X33984Y-31338D01*
X33950Y-31419D01*
X33916Y-31338D01*
X33761Y-31184D01*
X33559Y-31100D01*
X33341Y-31099D01*
X33138Y-31183D01*
X32984Y-31338D01*
X32900Y-31540D01*
X32899Y-31758D01*
X32904Y-31770D01*
X32737Y-31937D01*
X32672Y-32035D01*
X32650Y-32150D01*
X32650Y-32850D01*
X32672Y-32964D01*
X32737Y-33062D01*
X34287Y-34612D01*
X34287Y-34612D01*
X34385Y-34677D01*
X34499Y-34699D01*
X34500Y-34700D01*
X42249Y-34700D01*
X42249Y-34849D01*
X42287Y-34941D01*
X42358Y-35011D01*
X42450Y-35049D01*
X42549Y-35050D01*
X43025Y-35050D01*
X43312Y-35337D01*
X43312Y-35337D01*
X43410Y-35402D01*
X43525Y-35425D01*
X45600Y-35425D01*
X45600Y-35424D01*
X45714Y-35402D01*
X45714Y-35402D01*
X45812Y-35337D01*
X46224Y-34925D01*
X46303Y-34925D01*
X46497Y-34845D01*
X46644Y-34697D01*
X46724Y-34504D01*
X46725Y-34296D01*
X46645Y-34103D01*
X46497Y-33955D01*
X46364Y-33899D01*
X46497Y-33845D01*
X46644Y-33697D01*
X46724Y-33504D01*
X46725Y-33299D01*
X47062Y-32962D01*
X47062Y-32962D01*
X47127Y-32864D01*
X47149Y-32750D01*
X47150Y-32750D01*
X47150Y-28649D01*
X47268Y-28768D01*
X47645Y-28924D01*
X48052Y-28925D01*
X48429Y-28769D01*
X48718Y-28481D01*
X48874Y-28104D01*
X48875Y-27697D01*
X48719Y-27320D01*
X48431Y-27031D01*
X48404Y-27020D01*
X48404Y-25981D01*
X48393Y-25763D01*
X48331Y-25612D01*
X48235Y-25584D01*
X47920Y-25900D01*
X48235Y-26215D01*
X48331Y-26187D01*
X48404Y-25981D01*
X48404Y-27020D01*
X48165Y-26921D01*
X48165Y-26285D01*
X47850Y-25970D01*
X47779Y-26041D01*
X47779Y-25900D01*
X47464Y-25584D01*
X47368Y-25612D01*
X47351Y-25660D01*
X47331Y-25612D01*
X47235Y-25584D01*
X46920Y-25900D01*
X47235Y-26215D01*
X47331Y-26187D01*
X47348Y-26139D01*
X47368Y-26187D01*
X47464Y-26215D01*
X47779Y-25900D01*
X47779Y-26041D01*
X47534Y-26285D01*
X47562Y-26381D01*
X47768Y-26454D01*
X47986Y-26443D01*
X48137Y-26381D01*
X48165Y-26285D01*
X48165Y-26921D01*
X48054Y-26875D01*
X47647Y-26874D01*
X47270Y-27030D01*
X47150Y-27150D01*
X47150Y-26700D01*
X47127Y-26585D01*
X47062Y-26487D01*
X47062Y-26487D01*
X47008Y-26434D01*
X47137Y-26381D01*
X47165Y-26285D01*
X46850Y-25970D01*
X46844Y-25976D01*
X46773Y-25905D01*
X46779Y-25900D01*
X46773Y-25894D01*
X46844Y-25823D01*
X46850Y-25829D01*
X47165Y-25514D01*
X47137Y-25418D01*
X47082Y-25399D01*
X47161Y-25366D01*
X47315Y-25211D01*
X47349Y-25130D01*
X47383Y-25211D01*
X47538Y-25365D01*
X47613Y-25397D01*
X47562Y-25418D01*
X47534Y-25514D01*
X47850Y-25829D01*
X48165Y-25514D01*
X48137Y-25418D01*
X48082Y-25399D01*
X48161Y-25366D01*
X48315Y-25211D01*
X48399Y-25009D01*
X48400Y-24791D01*
X48316Y-24588D01*
X48161Y-24434D01*
X48080Y-24400D01*
X48161Y-24366D01*
X48315Y-24211D01*
X48399Y-24009D01*
X48400Y-23791D01*
X48316Y-23588D01*
X48161Y-23434D01*
X48080Y-23400D01*
X48161Y-23366D01*
X48315Y-23211D01*
X48399Y-23009D01*
X48400Y-22791D01*
X48316Y-22588D01*
X48161Y-22434D01*
X48080Y-22400D01*
X48161Y-22366D01*
X48315Y-22211D01*
X48399Y-22009D01*
X48400Y-21791D01*
X48316Y-21588D01*
X48161Y-21434D01*
X48080Y-21400D01*
X48161Y-21366D01*
X48315Y-21211D01*
X48399Y-21009D01*
X48400Y-20791D01*
X48316Y-20588D01*
X48161Y-20434D01*
X48080Y-20400D01*
X48161Y-20366D01*
X48315Y-20211D01*
X48399Y-20009D01*
X48400Y-19791D01*
X48316Y-19588D01*
X48161Y-19434D01*
X48080Y-19400D01*
X48161Y-19366D01*
X48315Y-19211D01*
X48399Y-19009D01*
X48400Y-18791D01*
X48316Y-18588D01*
X48161Y-18434D01*
X48080Y-18400D01*
X48161Y-18366D01*
X48315Y-18211D01*
X48399Y-18009D01*
X48400Y-17791D01*
X48316Y-17588D01*
X48161Y-17434D01*
X48080Y-17400D01*
X48161Y-17366D01*
X48315Y-17211D01*
X48399Y-17009D01*
X48400Y-16791D01*
X48316Y-16588D01*
X48161Y-16434D01*
X48080Y-16400D01*
X48161Y-16366D01*
X48315Y-16211D01*
X48399Y-16009D01*
X48400Y-15791D01*
X48316Y-15588D01*
X48161Y-15434D01*
X48080Y-15400D01*
X48161Y-15366D01*
X48315Y-15211D01*
X48399Y-15009D01*
X48400Y-14791D01*
X48316Y-14588D01*
X48161Y-14434D01*
X48080Y-14400D01*
X48161Y-14366D01*
X48315Y-14211D01*
X48399Y-14009D01*
X48400Y-13791D01*
X48316Y-13588D01*
X48161Y-13434D01*
X48080Y-13400D01*
X48161Y-13366D01*
X48315Y-13211D01*
X48399Y-13009D01*
X48400Y-12791D01*
X48316Y-12588D01*
X48161Y-12434D01*
X48080Y-12400D01*
X48161Y-12366D01*
X48315Y-12211D01*
X48399Y-12009D01*
X48400Y-11791D01*
X48316Y-11588D01*
X48161Y-11434D01*
X48080Y-11400D01*
X48161Y-11366D01*
X48315Y-11211D01*
X48399Y-11009D01*
X48400Y-10791D01*
X48316Y-10588D01*
X48161Y-10434D01*
X48080Y-10400D01*
X48161Y-10366D01*
X48315Y-10211D01*
X48399Y-10009D01*
X48400Y-9791D01*
X48316Y-9588D01*
X48161Y-9434D01*
X48080Y-9400D01*
X48161Y-9366D01*
X48315Y-9211D01*
X48399Y-9009D01*
X48400Y-8791D01*
X48316Y-8588D01*
X48161Y-8434D01*
X47959Y-8350D01*
X47741Y-8349D01*
X47538Y-8433D01*
X47384Y-8588D01*
X47350Y-8669D01*
X47316Y-8588D01*
X47161Y-8434D01*
X46959Y-8350D01*
X46741Y-8349D01*
X46538Y-8433D01*
X46384Y-8588D01*
X46357Y-8653D01*
X46219Y-8320D01*
X46124Y-8225D01*
X49125Y-8225D01*
X49125Y-35825D01*
M02*
