M48
INCH,TZ
T1C0.025
T2C0.032
T3C0.035
T4C0.040
T5C0.050
T6C0.059
T7C0.063
T8C0.073
T9C0.079
T10C0.098
T11C0.100
T12C0.118
T13C0.120
T14C0.125
%
T1
X20400Y-20350
X20500Y-22650
X20500Y-24650
X24200Y-13450
X24400Y-23700
X24650Y-17150
X25200Y-13450
X25400Y-19400
X25450Y-17100
X25700Y-13550
X25700Y-25670
X25790Y-24660
X25800Y-23700
X26350Y-27170
X26640Y-19550
X27450Y-26100
X27650Y-18290
X28300Y-22130
X28390Y-23490
X28740Y-22540
X29535Y-22445
X29575Y-26200
X29875Y-25700
X29980Y-23580
X30460Y-27040
X30700Y-24280
X30850Y-26200
X31100Y-17900
X31100Y-20690
X31580Y-24710
X31680Y-26120
X32030Y-19940
X32040Y-22230
X32340Y-27150
X32550Y-24370
X33490Y-19880
X33500Y-10650
X34150Y-16470
X35010Y-19940
X35197Y-15787
X35787Y-24528
X36200Y-21430
X36250Y-29300
X36920Y-19209
X37047Y-26053
X37380Y-20050
X37770Y-20700
X38031Y-27205
X38550Y-16870
X38680Y-16110
X39920Y-18650
X40272Y-17508
X40500Y-16110
X40920Y-10850
X41850Y-17190
X42690Y-23130
X43150Y-22530
X43153Y-21360
X43307Y-15197
X43960Y-22670
X44000Y-17060
X44680Y-17270
X44820Y-20505
X44860Y-19730
X45470Y-26780
T2
X17250Y-8900
X18250Y-8900
X19250Y-8900
X20250Y-8900
X20850Y-27900
X21250Y-8900
X21850Y-27900
X22250Y-8900
X22850Y-27900
X23250Y-8900
X23850Y-27900
X24250Y-8900
X24850Y-27900
X25250Y-8900
X25850Y-27900
X26250Y-8900
X26850Y-27900
X27850Y-8900
X27850Y-27900
X28850Y-8900
X29850Y-8900
X29850Y-27900
X30850Y-8900
X30850Y-27900
X31850Y-8900
X31850Y-27900
X32850Y-8900
X32850Y-27900
X33450Y-31650
X33450Y-32650
X33850Y-8900
X33850Y-27900
X34450Y-31650
X34450Y-32650
X34850Y-8900
X34850Y-27900
X35450Y-31650
X35450Y-32650
X35850Y-27900
X36450Y-31650
X36450Y-32650
X36850Y-8900
X36850Y-27900
X37450Y-31650
X37450Y-32650
X37850Y-8900
X38850Y-8900
X38850Y-27900
X39850Y-8900
X39850Y-27900
X40850Y-8900
X40850Y-27900
X41850Y-8900
X41850Y-27900
X42850Y-8900
X42850Y-27900
X43850Y-8900
X43850Y-27900
X44850Y-27900
X45850Y-27900
X46850Y-8900
X46850Y-9900
X46850Y-10900
X46850Y-11900
X46850Y-12900
X46850Y-13900
X46850Y-14900
X46850Y-15900
X46850Y-16900
X46850Y-17900
X46850Y-18900
X46850Y-19900
X46850Y-20900
X46850Y-21900
X46850Y-22900
X46850Y-23900
X46850Y-24900
X46850Y-25900
X47850Y-8900
X47850Y-9900
X47850Y-10900
X47850Y-11900
X47850Y-12900
X47850Y-13900
X47850Y-14900
X47850Y-15900
X47850Y-16900
X47850Y-17900
X47850Y-18900
X47850Y-19900
X47850Y-20900
X47850Y-21900
X47850Y-22900
X47850Y-23900
X47850Y-24900
X47850Y-25900
T3
X14700Y-27200
X14700Y-28200
X14700Y-33600
X14700Y-34600
T4
X32937Y-23346
X32950Y-25625
X33937Y-23346
X33950Y-25625
X34937Y-23346
X34950Y-25625
T5
X28260Y-12318
X28260Y-14482
X29913Y-12318
X29913Y-14482
X31567Y-12318
X31567Y-14482
X33220Y-12318
X33220Y-14482
X34874Y-12318
X34874Y-14482
X36526Y-12318
X36526Y-14482
X38180Y-12318
X38180Y-14482
X39833Y-12318
X39833Y-14482
X41487Y-12318
X41487Y-14482
X43140Y-12318
X43140Y-14482
T6
X18450Y-33800
T7
X17450Y-32800
X17450Y-34800
X19450Y-32800
X19450Y-34800
T8
X13918Y-10320
X13918Y-11974
X13918Y-13626
X13918Y-15280
X13918Y-17820
X13918Y-19474
X13918Y-21126
X13918Y-22780
X16082Y-10320
X16082Y-11974
X16082Y-13626
X16082Y-15280
X16082Y-17820
X16082Y-19474
X16082Y-21126
X16082Y-22780
X22970Y-29818
X22970Y-31982
X24624Y-29818
X24624Y-31982
X26276Y-29818
X26276Y-31982
X27930Y-29818
X27930Y-31982
T9
X12700Y-25200
X12700Y-29200
X12700Y-31600
X12700Y-35600
T10
X26409Y-14306
X44991Y-14306
T11
X31150Y-32350
X39750Y-32350
T12
X11043Y-10320
X11043Y-15280
X11043Y-17820
X11043Y-22780
X22970Y-34857
X27930Y-34857
T13
X19520Y-11350
X19530Y-30500
T14
X45350Y-8900
X47850Y-27900
M30
