G04 (created by PCBNEW (2013-03-31 BZR 4008)-stable) date 29/05/2013 1:13:20 PM*
%MOIN*%
G04 Gerber Fmt 3.4, Leading zero omitted, Abs format*
%FSLAX34Y34*%
G01*
G70*
G90*
G04 APERTURE LIST*
%ADD10C,2.3622e-006*%
%ADD11C,0.18*%
%ADD12O,0.08X0.12*%
%ADD13C,0.175*%
%ADD14C,0.08*%
%ADD15C,0.14*%
%ADD16R,0.08X0.08*%
%ADD17C,0.13811*%
%ADD18R,0.09X0.09*%
%ADD19R,0.045X0.065*%
%ADD20R,0.1X0.08*%
%ADD21R,0.08X0.1*%
%ADD22R,0.0909X0.0829*%
%ADD23C,0.1578*%
%ADD24R,0.075X0.075*%
%ADD25C,0.075*%
%ADD26C,0.1381*%
%ADD27C,0.114488*%
%ADD28C,0.118425*%
%ADD29R,0.04X0.065*%
G04 APERTURE END LIST*
G54D10*
G54D11*
X19525Y-30500D03*
G54D12*
X36850Y-8900D03*
X37850Y-8900D03*
X38850Y-8900D03*
X39850Y-8900D03*
X40850Y-8900D03*
X41850Y-8900D03*
X42850Y-8900D03*
X43850Y-8900D03*
X45850Y-27900D03*
X44850Y-27900D03*
X43850Y-27900D03*
X42850Y-27900D03*
X38850Y-27900D03*
X36850Y-27900D03*
X35850Y-27900D03*
X39850Y-27900D03*
X40850Y-27900D03*
X41850Y-27900D03*
X34850Y-27900D03*
X33850Y-27900D03*
X32850Y-27900D03*
X29850Y-27900D03*
X30850Y-27900D03*
X31850Y-27900D03*
X27850Y-27900D03*
X26850Y-27900D03*
X25850Y-27900D03*
X23850Y-27900D03*
X22850Y-27900D03*
X34850Y-8900D03*
X33850Y-8900D03*
X32850Y-8900D03*
X31850Y-8900D03*
X30850Y-8900D03*
X29850Y-8900D03*
X28850Y-8900D03*
X27850Y-8900D03*
X26250Y-8900D03*
X25250Y-8900D03*
X24250Y-8900D03*
X23250Y-8900D03*
X22250Y-8900D03*
X21250Y-8900D03*
X20250Y-8900D03*
X19250Y-8900D03*
X24850Y-27900D03*
G54D13*
X47850Y-27900D03*
X45350Y-8900D03*
G54D14*
X46850Y-9900D03*
X47850Y-9900D03*
X46850Y-10900D03*
X47850Y-10900D03*
X46850Y-11900D03*
X47850Y-11900D03*
X46850Y-12900D03*
X47850Y-12900D03*
X46850Y-8900D03*
X47850Y-8900D03*
X47850Y-13900D03*
X46850Y-13900D03*
X46850Y-14900D03*
X47850Y-14900D03*
X46850Y-15900D03*
X47850Y-15900D03*
X46850Y-16900D03*
X47850Y-16900D03*
X46850Y-17900D03*
X47850Y-17900D03*
X46850Y-18900D03*
X47850Y-18900D03*
X46850Y-19900D03*
X47850Y-19900D03*
X46850Y-20900D03*
X47850Y-20900D03*
X46850Y-21900D03*
X47850Y-21900D03*
X46850Y-22900D03*
X47850Y-22900D03*
X46850Y-23900D03*
X47850Y-23900D03*
X46850Y-24900D03*
X47850Y-24900D03*
X46850Y-25900D03*
X47850Y-25900D03*
G54D15*
X31150Y-32350D03*
X39750Y-32350D03*
G54D16*
X37450Y-31650D03*
G54D14*
X37450Y-32650D03*
X36450Y-31650D03*
X36450Y-32650D03*
X35450Y-31650D03*
X35450Y-32650D03*
X34450Y-31650D03*
X34450Y-32650D03*
X33450Y-31650D03*
X33450Y-32650D03*
G54D17*
X22970Y-34856D03*
G54D18*
X22970Y-29818D03*
X24624Y-29818D03*
X26276Y-29818D03*
X27930Y-29818D03*
X22970Y-31982D03*
X24624Y-31982D03*
X26276Y-31982D03*
X27930Y-31982D03*
G54D17*
X27930Y-34856D03*
G54D19*
X28150Y-21750D03*
X28750Y-21750D03*
G54D20*
X24200Y-11500D03*
X24200Y-12800D03*
G54D21*
X42800Y-30900D03*
X44100Y-30900D03*
X25050Y-23650D03*
X23750Y-23650D03*
X23750Y-22650D03*
X25050Y-22650D03*
G54D20*
X25200Y-11500D03*
X25200Y-12800D03*
G54D21*
X23750Y-25650D03*
X25050Y-25650D03*
X23750Y-24650D03*
X25050Y-24650D03*
G54D20*
X26200Y-11500D03*
X26200Y-12800D03*
G54D21*
X23750Y-20400D03*
X25050Y-20400D03*
G54D20*
X37700Y-15750D03*
X37700Y-17050D03*
G54D21*
X42800Y-29750D03*
X44100Y-29750D03*
X23750Y-18400D03*
X25050Y-18400D03*
G54D20*
X22200Y-11500D03*
X22200Y-12800D03*
G54D21*
X23750Y-16150D03*
X25050Y-16150D03*
G54D20*
X17975Y-29475D03*
X17975Y-30775D03*
G54D21*
X42800Y-33200D03*
X44100Y-33200D03*
G54D22*
X37700Y-18091D03*
X37700Y-19209D03*
G54D20*
X29950Y-24300D03*
X29950Y-23000D03*
X30950Y-24300D03*
X30950Y-23000D03*
G54D21*
X17050Y-27150D03*
X18350Y-27150D03*
G54D19*
X30000Y-15900D03*
X29400Y-15900D03*
G54D23*
X12700Y-31150D03*
X12700Y-35150D03*
G54D14*
X14700Y-34150D03*
X14700Y-33150D03*
G54D23*
X12700Y-24650D03*
X12700Y-28650D03*
G54D14*
X14700Y-27650D03*
X14700Y-26650D03*
G54D22*
X36200Y-18091D03*
X36200Y-19209D03*
G54D24*
X45200Y-30900D03*
G54D25*
X46200Y-30900D03*
X46200Y-29900D03*
G54D24*
X45200Y-34400D03*
G54D25*
X46200Y-34400D03*
X46200Y-33400D03*
G54D18*
X28260Y-12318D03*
X29913Y-12318D03*
X31567Y-12318D03*
X33220Y-12318D03*
X34874Y-12318D03*
X36526Y-12318D03*
X38180Y-12318D03*
X39833Y-12318D03*
X41487Y-12318D03*
X43140Y-12318D03*
X28260Y-14482D03*
X29913Y-14482D03*
X31567Y-14482D03*
X33220Y-14482D03*
X34874Y-14482D03*
X36526Y-14482D03*
X38180Y-14482D03*
X39833Y-14482D03*
X41487Y-14482D03*
X43140Y-14482D03*
G54D26*
X26409Y-14306D03*
X44991Y-14306D03*
G54D27*
X18450Y-33800D03*
G54D28*
X17450Y-32800D03*
X19450Y-32800D03*
X19450Y-34800D03*
X17450Y-34800D03*
G54D17*
X12243Y-9670D03*
G54D18*
X17282Y-9670D03*
X17282Y-11324D03*
X17282Y-12976D03*
X17282Y-14630D03*
X15118Y-9670D03*
X15118Y-11324D03*
X15118Y-12976D03*
X15118Y-14630D03*
G54D17*
X12243Y-14630D03*
X12243Y-17170D03*
G54D18*
X17282Y-17170D03*
X17282Y-18824D03*
X17282Y-20476D03*
X17282Y-22130D03*
X15118Y-17170D03*
X15118Y-18824D03*
X15118Y-20476D03*
X15118Y-22130D03*
G54D17*
X12243Y-22130D03*
G54D20*
X36200Y-15750D03*
X36200Y-17050D03*
G54D29*
X26150Y-21000D03*
X26650Y-21000D03*
X27150Y-21000D03*
X27650Y-21000D03*
X28150Y-21000D03*
X28650Y-21000D03*
X29150Y-21000D03*
X29150Y-18900D03*
X28650Y-18900D03*
X28150Y-18900D03*
X27650Y-18900D03*
X27150Y-18900D03*
X26650Y-18900D03*
X26150Y-18900D03*
G54D20*
X19650Y-14150D03*
X19650Y-15150D03*
X19650Y-16150D03*
X19650Y-17150D03*
X22650Y-17150D03*
X22650Y-16150D03*
X22650Y-15150D03*
X22650Y-14150D03*
X19650Y-18400D03*
X19650Y-19400D03*
X19650Y-20400D03*
X19650Y-21400D03*
X22650Y-21400D03*
X22650Y-20400D03*
X22650Y-19400D03*
X22650Y-18400D03*
X19650Y-22650D03*
X19650Y-23650D03*
X19650Y-24650D03*
X19650Y-25650D03*
X22650Y-25650D03*
X22650Y-24650D03*
X22650Y-23650D03*
X22650Y-22650D03*
X23200Y-11500D03*
X23200Y-12800D03*
G54D21*
X30350Y-17900D03*
X29050Y-17900D03*
X29050Y-16900D03*
X30350Y-16900D03*
X25050Y-21400D03*
X23750Y-21400D03*
G54D20*
X21200Y-11500D03*
X21200Y-12800D03*
G54D21*
X23750Y-14150D03*
X25050Y-14150D03*
X42800Y-34400D03*
X44100Y-34400D03*
G54D20*
X19950Y-28550D03*
X19950Y-27250D03*
X21200Y-28550D03*
X21200Y-27250D03*
G54D21*
X27200Y-22350D03*
X25900Y-22350D03*
G54D20*
X30350Y-21000D03*
X30350Y-19700D03*
X26650Y-17800D03*
X26650Y-16500D03*
G54D11*
X19525Y-11350D03*
G54D16*
X32950Y-23350D03*
G54D14*
X33950Y-23350D03*
X34950Y-23350D03*
G54D16*
X32950Y-25625D03*
G54D14*
X33950Y-25625D03*
X34950Y-25625D03*
M02*
