M48
INCH,TZ
T1C0.025
T2C0.032
T3C0.035
T4C0.040
T5C0.050
T6C0.059
T7C0.063
T8C0.079
T9C0.098
T10C0.100
T11C0.118
T12C0.120
T13C0.125
%
T1
X14100Y-17150
X20400Y-20350
X20500Y-22650
X20500Y-24650
X23800Y-26500
X24200Y-13450
X24400Y-23700
X24650Y-17150
X25200Y-13450
X25400Y-19400
X25450Y-17100
X25700Y-13550
X25800Y-23150
X25800Y-23700
X25800Y-24250
X26850Y-26250
X27450Y-26100
X27700Y-21650
X28200Y-22500
X28200Y-25150
X28750Y-22350
X28900Y-20300
X29050Y-24300
X29400Y-28950
X29575Y-26200
X29850Y-22000
X29875Y-25700
X30350Y-26250
X30850Y-26200
X31850Y-26200
X33500Y-10650
X36250Y-29300
X37350Y-25750
X38800Y-29850
X38875Y-25600
X39900Y-30300
X41000Y-33150
T2
X19250Y-8900
X20250Y-8900
X21250Y-8900
X22250Y-8900
X22850Y-27900
X23250Y-8900
X23850Y-27900
X24250Y-8900
X24850Y-27900
X25250Y-8900
X25850Y-27900
X26250Y-8900
X26850Y-27900
X27850Y-8900
X27850Y-27900
X28850Y-8900
X29850Y-8900
X29850Y-27900
X30850Y-8900
X30850Y-27900
X31850Y-8900
X31850Y-27900
X32850Y-8900
X32850Y-27900
X33450Y-31650
X33450Y-32650
X33850Y-8900
X33850Y-27900
X34450Y-31650
X34450Y-32650
X34850Y-8900
X34850Y-27900
X35450Y-31650
X35450Y-32650
X35850Y-27900
X36450Y-31650
X36450Y-32650
X36850Y-8900
X36850Y-27900
X37450Y-31650
X37450Y-32650
X37850Y-8900
X38850Y-8900
X38850Y-27900
X39850Y-8900
X39850Y-27900
X40850Y-8900
X40850Y-27900
X41850Y-8900
X41850Y-27900
X42850Y-8900
X42850Y-27900
X43850Y-8900
X43850Y-27900
X44850Y-27900
X45200Y-30900
X45200Y-34400
X45850Y-27900
X46200Y-29900
X46200Y-30900
X46200Y-33400
X46200Y-34400
X46850Y-8900
X46850Y-9900
X46850Y-10900
X46850Y-11900
X46850Y-12900
X46850Y-13900
X46850Y-14900
X46850Y-15900
X46850Y-16900
X46850Y-17900
X46850Y-18900
X46850Y-19900
X46850Y-20900
X46850Y-21900
X46850Y-22900
X46850Y-23900
X46850Y-24900
X46850Y-25900
X47850Y-8900
X47850Y-9900
X47850Y-10900
X47850Y-11900
X47850Y-12900
X47850Y-13900
X47850Y-14900
X47850Y-15900
X47850Y-16900
X47850Y-17900
X47850Y-18900
X47850Y-19900
X47850Y-20900
X47850Y-21900
X47850Y-22900
X47850Y-23900
X47850Y-24900
X47850Y-25900
T3
X14700Y-26650
X14700Y-27650
X14700Y-33150
X14700Y-34150
T4
X32950Y-23350
X32950Y-25625
X33950Y-23350
X33950Y-25625
X34950Y-23350
X34950Y-25625
T5
X15118Y-9670
X15118Y-11324
X15118Y-12976
X15118Y-14630
X15118Y-17170
X15118Y-18824
X15118Y-20476
X15118Y-22130
X17282Y-9670
X17282Y-11324
X17282Y-12976
X17282Y-14630
X17282Y-17170
X17282Y-18824
X17282Y-20476
X17282Y-22130
X22970Y-29818
X22970Y-31982
X24624Y-29818
X24624Y-31982
X26276Y-29818
X26276Y-31982
X27930Y-29818
X27930Y-31982
X28260Y-12318
X28260Y-14482
X29913Y-12318
X29913Y-14482
X31567Y-12318
X31567Y-14482
X33220Y-12318
X33220Y-14482
X34874Y-12318
X34874Y-14482
X36526Y-12318
X36526Y-14482
X38180Y-12318
X38180Y-14482
X39833Y-12318
X39833Y-14482
X41487Y-12318
X41487Y-14482
X43140Y-12318
X43140Y-14482
T6
X18450Y-33800
T7
X17450Y-32800
X17450Y-34800
X19450Y-32800
X19450Y-34800
T8
X12700Y-24650
X12700Y-28650
X12700Y-31150
X12700Y-35150
T9
X26409Y-14306
X44991Y-14306
T10
X31150Y-32350
X39750Y-32350
T11
X12243Y-9670
X12243Y-14630
X12243Y-17170
X12243Y-22130
X22970Y-34857
X27930Y-34857
T12
X19525Y-11350
X19525Y-30500
T13
X45350Y-8900
X47850Y-27900
M30
