G04 (created by PCBNEW (2013-03-31 BZR 4008)-stable) date 29/05/2013 1:13:20 PM*
%MOIN*%
G04 Gerber Fmt 3.4, Leading zero omitted, Abs format*
%FSLAX34Y34*%
G01*
G70*
G90*
G04 APERTURE LIST*
%ADD10C,2.3622e-006*%
%ADD11C,0.16*%
%ADD12O,0.06X0.1*%
%ADD13C,0.155*%
%ADD14C,0.06*%
%ADD15C,0.12*%
%ADD16R,0.06X0.06*%
%ADD17C,0.11811*%
%ADD18R,0.07X0.07*%
%ADD19C,0.1378*%
%ADD20R,0.055X0.055*%
%ADD21C,0.055*%
%ADD22C,0.1181*%
%ADD23C,0.0944882*%
%ADD24C,0.0984252*%
%ADD25C,0.035*%
%ADD26C,0.03*%
%ADD27C,0.01*%
G04 APERTURE END LIST*
G54D10*
G54D11*
X19525Y-30500D03*
G54D12*
X36850Y-8900D03*
X37850Y-8900D03*
X38850Y-8900D03*
X39850Y-8900D03*
X40850Y-8900D03*
X41850Y-8900D03*
X42850Y-8900D03*
X43850Y-8900D03*
X45850Y-27900D03*
X44850Y-27900D03*
X43850Y-27900D03*
X42850Y-27900D03*
X38850Y-27900D03*
X36850Y-27900D03*
X35850Y-27900D03*
X39850Y-27900D03*
X40850Y-27900D03*
X41850Y-27900D03*
X34850Y-27900D03*
X33850Y-27900D03*
X32850Y-27900D03*
X29850Y-27900D03*
X30850Y-27900D03*
X31850Y-27900D03*
X27850Y-27900D03*
X26850Y-27900D03*
X25850Y-27900D03*
X23850Y-27900D03*
X22850Y-27900D03*
X34850Y-8900D03*
X33850Y-8900D03*
X32850Y-8900D03*
X31850Y-8900D03*
X30850Y-8900D03*
X29850Y-8900D03*
X28850Y-8900D03*
X27850Y-8900D03*
X26250Y-8900D03*
X25250Y-8900D03*
X24250Y-8900D03*
X23250Y-8900D03*
X22250Y-8900D03*
X21250Y-8900D03*
X20250Y-8900D03*
X19250Y-8900D03*
X24850Y-27900D03*
G54D13*
X47850Y-27900D03*
X45350Y-8900D03*
G54D14*
X46850Y-9900D03*
X47850Y-9900D03*
X46850Y-10900D03*
X47850Y-10900D03*
X46850Y-11900D03*
X47850Y-11900D03*
X46850Y-12900D03*
X47850Y-12900D03*
X46850Y-8900D03*
X47850Y-8900D03*
X47850Y-13900D03*
X46850Y-13900D03*
X46850Y-14900D03*
X47850Y-14900D03*
X46850Y-15900D03*
X47850Y-15900D03*
X46850Y-16900D03*
X47850Y-16900D03*
X46850Y-17900D03*
X47850Y-17900D03*
X46850Y-18900D03*
X47850Y-18900D03*
X46850Y-19900D03*
X47850Y-19900D03*
X46850Y-20900D03*
X47850Y-20900D03*
X46850Y-21900D03*
X47850Y-21900D03*
X46850Y-22900D03*
X47850Y-22900D03*
X46850Y-23900D03*
X47850Y-23900D03*
X46850Y-24900D03*
X47850Y-24900D03*
X46850Y-25900D03*
X47850Y-25900D03*
G54D15*
X31150Y-32350D03*
X39750Y-32350D03*
G54D16*
X37450Y-31650D03*
G54D14*
X37450Y-32650D03*
X36450Y-31650D03*
X36450Y-32650D03*
X35450Y-31650D03*
X35450Y-32650D03*
X34450Y-31650D03*
X34450Y-32650D03*
X33450Y-31650D03*
X33450Y-32650D03*
G54D17*
X22970Y-34856D03*
G54D18*
X22970Y-29818D03*
X24624Y-29818D03*
X26276Y-29818D03*
X27930Y-29818D03*
X22970Y-31982D03*
X24624Y-31982D03*
X26276Y-31982D03*
X27930Y-31982D03*
G54D17*
X27930Y-34856D03*
G54D19*
X12700Y-31150D03*
X12700Y-35150D03*
G54D14*
X14700Y-34150D03*
X14700Y-33150D03*
G54D19*
X12700Y-24650D03*
X12700Y-28650D03*
G54D14*
X14700Y-27650D03*
X14700Y-26650D03*
G54D20*
X45200Y-30900D03*
G54D21*
X46200Y-30900D03*
X46200Y-29900D03*
G54D20*
X45200Y-34400D03*
G54D21*
X46200Y-34400D03*
X46200Y-33400D03*
G54D18*
X28260Y-12318D03*
X29913Y-12318D03*
X31567Y-12318D03*
X33220Y-12318D03*
X34874Y-12318D03*
X36526Y-12318D03*
X38180Y-12318D03*
X39833Y-12318D03*
X41487Y-12318D03*
X43140Y-12318D03*
X28260Y-14482D03*
X29913Y-14482D03*
X31567Y-14482D03*
X33220Y-14482D03*
X34874Y-14482D03*
X36526Y-14482D03*
X38180Y-14482D03*
X39833Y-14482D03*
X41487Y-14482D03*
X43140Y-14482D03*
G54D22*
X26409Y-14306D03*
X44991Y-14306D03*
G54D23*
X18450Y-33800D03*
G54D24*
X17450Y-32800D03*
X19450Y-32800D03*
X19450Y-34800D03*
X17450Y-34800D03*
G54D17*
X12243Y-9670D03*
G54D18*
X17282Y-9670D03*
X17282Y-11324D03*
X17282Y-12976D03*
X17282Y-14630D03*
X15118Y-9670D03*
X15118Y-11324D03*
X15118Y-12976D03*
X15118Y-14630D03*
G54D17*
X12243Y-14630D03*
X12243Y-17170D03*
G54D18*
X17282Y-17170D03*
X17282Y-18824D03*
X17282Y-20476D03*
X17282Y-22130D03*
X15118Y-17170D03*
X15118Y-18824D03*
X15118Y-20476D03*
X15118Y-22130D03*
G54D17*
X12243Y-22130D03*
G54D11*
X19525Y-11350D03*
G54D16*
X32950Y-23350D03*
G54D14*
X33950Y-23350D03*
X34950Y-23350D03*
G54D16*
X32950Y-25625D03*
G54D14*
X33950Y-25625D03*
X34950Y-25625D03*
G54D25*
X29400Y-28950D03*
X37350Y-25750D03*
X36250Y-29300D03*
X29875Y-25700D03*
X27700Y-21650D03*
X28200Y-25150D03*
X38875Y-25600D03*
X14100Y-17150D03*
X29575Y-26200D03*
X41000Y-33150D03*
X25400Y-19400D03*
X27450Y-26100D03*
X30850Y-26200D03*
X33500Y-10650D03*
X38800Y-29850D03*
X39900Y-30300D03*
X29050Y-24300D03*
X29850Y-22000D03*
X28750Y-22350D03*
X30350Y-26250D03*
X26850Y-26250D03*
X25800Y-23150D03*
X31850Y-26200D03*
X28900Y-20300D03*
X28200Y-22500D03*
X23800Y-26500D03*
X25800Y-24250D03*
X24650Y-17150D03*
X25450Y-17100D03*
X24400Y-23700D03*
X25800Y-23700D03*
X20500Y-22650D03*
X25200Y-13450D03*
X20500Y-24650D03*
X25700Y-13550D03*
X20400Y-20350D03*
X24200Y-13450D03*
G54D26*
X28400Y-30750D02*
X29400Y-29750D01*
X43140Y-12360D02*
X42150Y-13350D01*
X42150Y-13350D02*
X41200Y-13350D01*
X41200Y-13350D02*
X40650Y-13900D01*
X40650Y-13900D02*
X40650Y-22450D01*
X43140Y-12318D02*
X43140Y-12360D01*
X23902Y-30750D02*
X22970Y-29818D01*
X23902Y-30750D02*
X28400Y-30750D01*
X17282Y-9670D02*
X18470Y-9670D01*
X18470Y-9670D02*
X18700Y-9900D01*
X18700Y-9900D02*
X40722Y-9900D01*
X40722Y-9900D02*
X43140Y-12318D01*
X29400Y-29750D02*
X29400Y-28950D01*
X40650Y-22450D02*
X37350Y-25750D01*
G54D27*
X33450Y-27350D02*
X33450Y-27425D01*
X33450Y-24175D02*
X33450Y-27350D01*
X33950Y-23675D02*
X33450Y-24175D01*
X33950Y-23350D02*
X33950Y-23675D01*
X33350Y-27525D02*
X33350Y-31550D01*
X33450Y-27425D02*
X33350Y-27525D01*
X33350Y-31550D02*
X33450Y-31650D01*
X33350Y-31550D02*
X33450Y-31650D01*
X46400Y-28950D02*
X47500Y-30050D01*
X47500Y-30050D02*
X47500Y-30850D01*
X33950Y-23475D02*
X33950Y-23350D01*
X46200Y-30900D02*
X47500Y-30900D01*
X47500Y-30900D02*
X47500Y-30850D01*
X46850Y-34400D02*
X46200Y-34400D01*
X47500Y-33750D02*
X46850Y-34400D01*
X47500Y-30850D02*
X47500Y-33750D01*
G54D26*
X37349Y-29300D02*
X36250Y-29300D01*
X34950Y-24200D02*
X36650Y-25900D01*
X36650Y-25900D02*
X36650Y-26200D01*
X36650Y-26200D02*
X37925Y-27475D01*
X37925Y-27475D02*
X37925Y-28724D01*
X37925Y-28724D02*
X37349Y-29300D01*
X34950Y-24200D02*
X34950Y-23350D01*
X29913Y-12318D02*
X29913Y-12588D01*
X34950Y-22000D02*
X34950Y-23350D01*
X32400Y-19450D02*
X34950Y-22000D01*
X32400Y-13800D02*
X32400Y-19450D01*
X31950Y-13350D02*
X32400Y-13800D01*
X30675Y-13350D02*
X31950Y-13350D01*
X29913Y-12588D02*
X30675Y-13350D01*
X21750Y-12025D02*
X27967Y-12025D01*
X17282Y-12976D02*
X20799Y-12976D01*
X20799Y-12976D02*
X21750Y-12025D01*
X27967Y-12025D02*
X28260Y-12318D01*
X17282Y-12976D02*
X17274Y-12976D01*
X16450Y-19644D02*
X17282Y-20476D01*
X16450Y-13800D02*
X16450Y-19644D01*
X17274Y-12976D02*
X16450Y-13800D01*
X29913Y-12318D02*
X28260Y-12318D01*
G54D27*
X29875Y-25700D02*
X29900Y-25700D01*
X32250Y-23350D02*
X32950Y-23350D01*
X29900Y-25700D02*
X32250Y-23350D01*
X33950Y-25625D02*
X33950Y-26575D01*
X36925Y-32125D02*
X37450Y-32650D01*
X36200Y-32125D02*
X36925Y-32125D01*
X35925Y-31850D02*
X36200Y-32125D01*
X35925Y-31375D02*
X35925Y-31850D01*
X34375Y-29825D02*
X35925Y-31375D01*
X34375Y-27000D02*
X34375Y-29825D01*
X33950Y-26575D02*
X34375Y-27000D01*
X27700Y-24650D02*
X27700Y-21650D01*
X28200Y-25150D02*
X27700Y-24650D01*
G54D26*
X41487Y-22763D02*
X41487Y-22938D01*
X41487Y-14482D02*
X41487Y-22763D01*
X38875Y-25550D02*
X38875Y-25600D01*
X41487Y-22938D02*
X38875Y-25550D01*
X17282Y-11324D02*
X16776Y-11324D01*
X14100Y-12500D02*
X14100Y-17150D01*
X14450Y-12150D02*
X14100Y-12500D01*
X15950Y-12150D02*
X14450Y-12150D01*
X16776Y-11324D02*
X15950Y-12150D01*
G54D27*
X29575Y-26200D02*
X29875Y-26200D01*
X29875Y-26200D02*
X30450Y-25625D01*
X30450Y-25625D02*
X32950Y-25625D01*
G54D26*
X28700Y-13150D02*
X26300Y-13150D01*
X29913Y-14482D02*
X29913Y-14363D01*
X29913Y-14363D02*
X28700Y-13150D01*
X20445Y-14630D02*
X17282Y-14630D01*
X22325Y-12750D02*
X20445Y-14630D01*
X25900Y-12750D02*
X22325Y-12750D01*
X26300Y-13150D02*
X25900Y-12750D01*
X17282Y-14630D02*
X17282Y-15082D01*
X17282Y-15082D02*
X18200Y-16000D01*
X18200Y-16000D02*
X18200Y-21212D01*
X18200Y-21212D02*
X17282Y-22130D01*
X29913Y-14482D02*
X29913Y-14613D01*
X28700Y-29048D02*
X27930Y-29818D01*
X29913Y-14613D02*
X31700Y-16400D01*
X31700Y-22550D02*
X28700Y-25550D01*
X28700Y-25550D02*
X28700Y-29048D01*
X31700Y-16400D02*
X31700Y-22550D01*
G54D27*
X34450Y-31650D02*
X34950Y-32150D01*
X34950Y-33000D02*
X36350Y-34400D01*
X36350Y-34400D02*
X45200Y-34400D01*
X34950Y-32150D02*
X34950Y-33000D01*
X45200Y-30900D02*
X43250Y-30900D01*
X43250Y-30900D02*
X41000Y-33150D01*
X27000Y-25650D02*
X27450Y-26100D01*
X27000Y-21000D02*
X25400Y-19400D01*
X27000Y-25500D02*
X27000Y-21000D01*
X27000Y-25500D02*
X27000Y-25650D01*
X30850Y-27900D02*
X30850Y-26200D01*
X31567Y-12318D02*
X31567Y-11433D01*
X32350Y-10650D02*
X33500Y-10650D01*
X31567Y-11433D02*
X32350Y-10650D01*
X36450Y-30700D02*
X37300Y-29850D01*
X37300Y-29850D02*
X38800Y-29850D01*
X36450Y-31650D02*
X36450Y-30700D01*
X29050Y-24300D02*
X29850Y-23500D01*
X29850Y-23500D02*
X29850Y-22000D01*
X29100Y-22000D02*
X29850Y-22000D01*
X28750Y-22350D02*
X29100Y-22000D01*
X29850Y-26750D02*
X29850Y-27900D01*
X29850Y-26750D02*
X30350Y-26250D01*
X26150Y-23500D02*
X25800Y-23150D01*
X26850Y-26250D02*
X26150Y-25550D01*
X26150Y-25550D02*
X26150Y-23500D01*
X31850Y-27900D02*
X31850Y-26200D01*
X28900Y-20300D02*
X28200Y-21000D01*
X28200Y-21000D02*
X28200Y-22500D01*
X23800Y-26250D02*
X23800Y-26500D01*
X25800Y-24250D02*
X23800Y-26250D01*
X17450Y-32800D02*
X17450Y-34800D01*
X17450Y-34800D02*
X19450Y-34800D01*
X19450Y-34800D02*
X19450Y-32800D01*
X24700Y-17100D02*
X25450Y-17100D01*
X24700Y-17100D02*
X24650Y-17150D01*
X25800Y-23700D02*
X24400Y-23700D01*
X20800Y-22350D02*
X20500Y-22650D01*
X20800Y-16150D02*
X20800Y-22350D01*
X23100Y-13850D02*
X20800Y-16150D01*
X24800Y-13850D02*
X23100Y-13850D01*
X25200Y-13450D02*
X24800Y-13850D01*
X21100Y-24050D02*
X20500Y-24650D01*
X21100Y-16350D02*
X21100Y-24050D01*
X23200Y-14250D02*
X21100Y-16350D01*
X25000Y-14250D02*
X23200Y-14250D01*
X25700Y-13550D02*
X25000Y-14250D01*
X20400Y-15950D02*
X20400Y-20350D01*
X22900Y-13450D02*
X20400Y-15950D01*
X24200Y-13450D02*
X22900Y-13450D01*
X36450Y-32650D02*
X36450Y-32800D01*
X45950Y-33650D02*
X46200Y-33400D01*
X37300Y-33650D02*
X45950Y-33650D01*
X36450Y-32800D02*
X37300Y-33650D01*
X37450Y-31650D02*
X37600Y-31650D01*
X45750Y-29450D02*
X46200Y-29900D01*
X39800Y-29450D02*
X45750Y-29450D01*
X37600Y-31650D02*
X39800Y-29450D01*
G54D10*
G36*
X20307Y-8950D02*
X20300Y-8950D01*
X20300Y-8957D01*
X20200Y-8957D01*
X20200Y-8950D01*
X20192Y-8950D01*
X20192Y-8850D01*
X20200Y-8850D01*
X20200Y-8842D01*
X20300Y-8842D01*
X20300Y-8850D01*
X20307Y-8850D01*
X20307Y-8950D01*
X20307Y-8950D01*
G37*
G54D27*
X20307Y-8950D02*
X20300Y-8950D01*
X20300Y-8957D01*
X20200Y-8957D01*
X20200Y-8950D01*
X20192Y-8950D01*
X20192Y-8850D01*
X20200Y-8850D01*
X20200Y-8842D01*
X20300Y-8842D01*
X20300Y-8850D01*
X20307Y-8850D01*
X20307Y-8950D01*
G54D10*
G36*
X31900Y-15892D02*
X31517Y-15509D01*
X31517Y-15019D01*
X31517Y-14532D01*
X31517Y-14432D01*
X31517Y-13944D01*
X31454Y-13882D01*
X31167Y-13881D01*
X31075Y-13919D01*
X31005Y-13990D01*
X30967Y-14082D01*
X30966Y-14181D01*
X30967Y-14369D01*
X31029Y-14432D01*
X31517Y-14432D01*
X31517Y-14532D01*
X31029Y-14532D01*
X30967Y-14594D01*
X30966Y-14782D01*
X30967Y-14881D01*
X31005Y-14973D01*
X31075Y-15044D01*
X31167Y-15082D01*
X31454Y-15082D01*
X31517Y-15019D01*
X31517Y-15509D01*
X30613Y-14605D01*
X30613Y-14062D01*
X30559Y-13934D01*
X30461Y-13835D01*
X30332Y-13782D01*
X30193Y-13781D01*
X30039Y-13781D01*
X29075Y-12818D01*
X29246Y-12818D01*
X29266Y-12866D01*
X29364Y-12964D01*
X29493Y-13017D01*
X29632Y-13018D01*
X29635Y-13018D01*
X30321Y-13703D01*
X30483Y-13811D01*
X30675Y-13850D01*
X30675Y-13850D01*
X30675Y-13850D01*
X31742Y-13850D01*
X31774Y-13881D01*
X31679Y-13882D01*
X31617Y-13944D01*
X31617Y-14432D01*
X31624Y-14432D01*
X31624Y-14532D01*
X31617Y-14532D01*
X31617Y-15019D01*
X31679Y-15082D01*
X31900Y-15082D01*
X31900Y-15892D01*
X31900Y-15892D01*
G37*
G54D27*
X31900Y-15892D02*
X31517Y-15509D01*
X31517Y-15019D01*
X31517Y-14532D01*
X31517Y-14432D01*
X31517Y-13944D01*
X31454Y-13882D01*
X31167Y-13881D01*
X31075Y-13919D01*
X31005Y-13990D01*
X30967Y-14082D01*
X30966Y-14181D01*
X30967Y-14369D01*
X31029Y-14432D01*
X31517Y-14432D01*
X31517Y-14532D01*
X31029Y-14532D01*
X30967Y-14594D01*
X30966Y-14782D01*
X30967Y-14881D01*
X31005Y-14973D01*
X31075Y-15044D01*
X31167Y-15082D01*
X31454Y-15082D01*
X31517Y-15019D01*
X31517Y-15509D01*
X30613Y-14605D01*
X30613Y-14062D01*
X30559Y-13934D01*
X30461Y-13835D01*
X30332Y-13782D01*
X30193Y-13781D01*
X30039Y-13781D01*
X29075Y-12818D01*
X29246Y-12818D01*
X29266Y-12866D01*
X29364Y-12964D01*
X29493Y-13017D01*
X29632Y-13018D01*
X29635Y-13018D01*
X30321Y-13703D01*
X30483Y-13811D01*
X30675Y-13850D01*
X30675Y-13850D01*
X30675Y-13850D01*
X31742Y-13850D01*
X31774Y-13881D01*
X31679Y-13882D01*
X31617Y-13944D01*
X31617Y-14432D01*
X31624Y-14432D01*
X31624Y-14532D01*
X31617Y-14532D01*
X31617Y-15019D01*
X31679Y-15082D01*
X31900Y-15082D01*
X31900Y-15892D01*
G54D10*
G36*
X46035Y-30400D02*
X45903Y-30454D01*
X45755Y-30602D01*
X45725Y-30674D01*
X45725Y-30575D01*
X45687Y-30483D01*
X45616Y-30413D01*
X45524Y-30375D01*
X45425Y-30374D01*
X44875Y-30374D01*
X44783Y-30412D01*
X44713Y-30483D01*
X44675Y-30575D01*
X44675Y-30600D01*
X43250Y-30600D01*
X43135Y-30622D01*
X43037Y-30687D01*
X41000Y-32725D01*
X40915Y-32724D01*
X40759Y-32789D01*
X40639Y-32908D01*
X40600Y-33004D01*
X40600Y-32181D01*
X40471Y-31869D01*
X40232Y-31629D01*
X39919Y-31500D01*
X39581Y-31499D01*
X39269Y-31628D01*
X39029Y-31867D01*
X38900Y-32180D01*
X38899Y-32518D01*
X39028Y-32830D01*
X39267Y-33070D01*
X39580Y-33199D01*
X39918Y-33200D01*
X40230Y-33071D01*
X40470Y-32832D01*
X40599Y-32519D01*
X40600Y-32181D01*
X40600Y-33004D01*
X40575Y-33065D01*
X40574Y-33234D01*
X40622Y-33350D01*
X37424Y-33350D01*
X37227Y-33153D01*
X37340Y-33199D01*
X37558Y-33200D01*
X37761Y-33116D01*
X37915Y-32961D01*
X37999Y-32759D01*
X38000Y-32541D01*
X37916Y-32338D01*
X37777Y-32200D01*
X37799Y-32200D01*
X37891Y-32162D01*
X37961Y-32091D01*
X37999Y-31999D01*
X38000Y-31900D01*
X38000Y-31674D01*
X39924Y-29750D01*
X45625Y-29750D01*
X45675Y-29799D01*
X45674Y-30003D01*
X45754Y-30197D01*
X45902Y-30344D01*
X46035Y-30400D01*
X46035Y-30400D01*
G37*
G54D27*
X46035Y-30400D02*
X45903Y-30454D01*
X45755Y-30602D01*
X45725Y-30674D01*
X45725Y-30575D01*
X45687Y-30483D01*
X45616Y-30413D01*
X45524Y-30375D01*
X45425Y-30374D01*
X44875Y-30374D01*
X44783Y-30412D01*
X44713Y-30483D01*
X44675Y-30575D01*
X44675Y-30600D01*
X43250Y-30600D01*
X43135Y-30622D01*
X43037Y-30687D01*
X41000Y-32725D01*
X40915Y-32724D01*
X40759Y-32789D01*
X40639Y-32908D01*
X40600Y-33004D01*
X40600Y-32181D01*
X40471Y-31869D01*
X40232Y-31629D01*
X39919Y-31500D01*
X39581Y-31499D01*
X39269Y-31628D01*
X39029Y-31867D01*
X38900Y-32180D01*
X38899Y-32518D01*
X39028Y-32830D01*
X39267Y-33070D01*
X39580Y-33199D01*
X39918Y-33200D01*
X40230Y-33071D01*
X40470Y-32832D01*
X40599Y-32519D01*
X40600Y-32181D01*
X40600Y-33004D01*
X40575Y-33065D01*
X40574Y-33234D01*
X40622Y-33350D01*
X37424Y-33350D01*
X37227Y-33153D01*
X37340Y-33199D01*
X37558Y-33200D01*
X37761Y-33116D01*
X37915Y-32961D01*
X37999Y-32759D01*
X38000Y-32541D01*
X37916Y-32338D01*
X37777Y-32200D01*
X37799Y-32200D01*
X37891Y-32162D01*
X37961Y-32091D01*
X37999Y-31999D01*
X38000Y-31900D01*
X38000Y-31674D01*
X39924Y-29750D01*
X45625Y-29750D01*
X45675Y-29799D01*
X45674Y-30003D01*
X45754Y-30197D01*
X45902Y-30344D01*
X46035Y-30400D01*
G54D10*
G36*
X49125Y-35825D02*
X48875Y-35825D01*
X48875Y-27697D01*
X48719Y-27320D01*
X48431Y-27031D01*
X48404Y-27020D01*
X48404Y-25981D01*
X48393Y-25763D01*
X48331Y-25612D01*
X48235Y-25584D01*
X47920Y-25900D01*
X48235Y-26215D01*
X48331Y-26187D01*
X48404Y-25981D01*
X48404Y-27020D01*
X48165Y-26921D01*
X48165Y-26285D01*
X47850Y-25970D01*
X47779Y-26041D01*
X47779Y-25900D01*
X47464Y-25584D01*
X47368Y-25612D01*
X47351Y-25660D01*
X47331Y-25612D01*
X47235Y-25584D01*
X46920Y-25900D01*
X47235Y-26215D01*
X47331Y-26187D01*
X47348Y-26139D01*
X47368Y-26187D01*
X47464Y-26215D01*
X47779Y-25900D01*
X47779Y-26041D01*
X47534Y-26285D01*
X47562Y-26381D01*
X47768Y-26454D01*
X47986Y-26443D01*
X48137Y-26381D01*
X48165Y-26285D01*
X48165Y-26921D01*
X48054Y-26875D01*
X47647Y-26874D01*
X47270Y-27030D01*
X47165Y-27135D01*
X47165Y-26285D01*
X46850Y-25970D01*
X46779Y-26041D01*
X46779Y-25900D01*
X46464Y-25584D01*
X46368Y-25612D01*
X46295Y-25818D01*
X46306Y-26036D01*
X46368Y-26187D01*
X46464Y-26215D01*
X46779Y-25900D01*
X46779Y-26041D01*
X46534Y-26285D01*
X46562Y-26381D01*
X46768Y-26454D01*
X46986Y-26443D01*
X47137Y-26381D01*
X47165Y-26285D01*
X47165Y-27135D01*
X46981Y-27318D01*
X46825Y-27695D01*
X46824Y-28102D01*
X46980Y-28479D01*
X47268Y-28768D01*
X47645Y-28924D01*
X48052Y-28925D01*
X48429Y-28769D01*
X48718Y-28481D01*
X48874Y-28104D01*
X48875Y-27697D01*
X48875Y-35825D01*
X32000Y-35825D01*
X32000Y-32181D01*
X31871Y-31869D01*
X31632Y-31629D01*
X31319Y-31500D01*
X30981Y-31499D01*
X30669Y-31628D01*
X30429Y-31867D01*
X30300Y-32180D01*
X30299Y-32518D01*
X30428Y-32830D01*
X30667Y-33070D01*
X30980Y-33199D01*
X31318Y-33200D01*
X31630Y-33071D01*
X31870Y-32832D01*
X31999Y-32519D01*
X32000Y-32181D01*
X32000Y-35825D01*
X28770Y-35825D01*
X28770Y-34690D01*
X28643Y-34381D01*
X28530Y-34268D01*
X28530Y-32282D01*
X28530Y-31681D01*
X28529Y-31582D01*
X28491Y-31490D01*
X28421Y-31419D01*
X28329Y-31381D01*
X28042Y-31382D01*
X27980Y-31444D01*
X27980Y-31932D01*
X28467Y-31932D01*
X28530Y-31869D01*
X28530Y-31681D01*
X28530Y-32282D01*
X28530Y-32094D01*
X28467Y-32032D01*
X27980Y-32032D01*
X27980Y-32519D01*
X28042Y-32582D01*
X28329Y-32582D01*
X28421Y-32544D01*
X28491Y-32473D01*
X28529Y-32381D01*
X28530Y-32282D01*
X28530Y-34268D01*
X28406Y-34144D01*
X28097Y-34016D01*
X27880Y-34016D01*
X27880Y-32519D01*
X27880Y-32032D01*
X27880Y-31932D01*
X27880Y-31444D01*
X27817Y-31382D01*
X27530Y-31381D01*
X27438Y-31419D01*
X27368Y-31490D01*
X27330Y-31582D01*
X27329Y-31681D01*
X27330Y-31869D01*
X27392Y-31932D01*
X27880Y-31932D01*
X27880Y-32032D01*
X27392Y-32032D01*
X27330Y-32094D01*
X27329Y-32282D01*
X27330Y-32381D01*
X27368Y-32473D01*
X27438Y-32544D01*
X27530Y-32582D01*
X27817Y-32582D01*
X27880Y-32519D01*
X27880Y-34016D01*
X27763Y-34015D01*
X27454Y-34143D01*
X27217Y-34379D01*
X27089Y-34688D01*
X27089Y-35023D01*
X27217Y-35332D01*
X27453Y-35568D01*
X27762Y-35697D01*
X28096Y-35697D01*
X28405Y-35569D01*
X28642Y-35333D01*
X28770Y-35024D01*
X28770Y-34690D01*
X28770Y-35825D01*
X26876Y-35825D01*
X26876Y-32282D01*
X26876Y-31681D01*
X26875Y-31582D01*
X26837Y-31490D01*
X26767Y-31419D01*
X26675Y-31381D01*
X26388Y-31382D01*
X26326Y-31444D01*
X26326Y-31932D01*
X26813Y-31932D01*
X26876Y-31869D01*
X26876Y-31681D01*
X26876Y-32282D01*
X26876Y-32094D01*
X26813Y-32032D01*
X26326Y-32032D01*
X26326Y-32519D01*
X26388Y-32582D01*
X26675Y-32582D01*
X26767Y-32544D01*
X26837Y-32473D01*
X26875Y-32381D01*
X26876Y-32282D01*
X26876Y-35825D01*
X26226Y-35825D01*
X26226Y-32519D01*
X26226Y-32032D01*
X26226Y-31932D01*
X26226Y-31444D01*
X26163Y-31382D01*
X25876Y-31381D01*
X25784Y-31419D01*
X25714Y-31490D01*
X25676Y-31582D01*
X25675Y-31681D01*
X25676Y-31869D01*
X25738Y-31932D01*
X26226Y-31932D01*
X26226Y-32032D01*
X25738Y-32032D01*
X25676Y-32094D01*
X25675Y-32282D01*
X25676Y-32381D01*
X25714Y-32473D01*
X25784Y-32544D01*
X25876Y-32582D01*
X26163Y-32582D01*
X26226Y-32519D01*
X26226Y-35825D01*
X25224Y-35825D01*
X25224Y-32282D01*
X25224Y-31681D01*
X25223Y-31582D01*
X25185Y-31490D01*
X25115Y-31419D01*
X25023Y-31381D01*
X24736Y-31382D01*
X24674Y-31444D01*
X24674Y-31932D01*
X25161Y-31932D01*
X25224Y-31869D01*
X25224Y-31681D01*
X25224Y-32282D01*
X25224Y-32094D01*
X25161Y-32032D01*
X24674Y-32032D01*
X24674Y-32519D01*
X24736Y-32582D01*
X25023Y-32582D01*
X25115Y-32544D01*
X25185Y-32473D01*
X25223Y-32381D01*
X25224Y-32282D01*
X25224Y-35825D01*
X24574Y-35825D01*
X24574Y-32519D01*
X24574Y-32032D01*
X24574Y-31932D01*
X24574Y-31444D01*
X24511Y-31382D01*
X24224Y-31381D01*
X24132Y-31419D01*
X24062Y-31490D01*
X24024Y-31582D01*
X24023Y-31681D01*
X24024Y-31869D01*
X24086Y-31932D01*
X24574Y-31932D01*
X24574Y-32032D01*
X24086Y-32032D01*
X24024Y-32094D01*
X24023Y-32282D01*
X24024Y-32381D01*
X24062Y-32473D01*
X24132Y-32544D01*
X24224Y-32582D01*
X24511Y-32582D01*
X24574Y-32519D01*
X24574Y-35825D01*
X23810Y-35825D01*
X23810Y-34690D01*
X23683Y-34381D01*
X23570Y-34268D01*
X23570Y-32282D01*
X23570Y-31681D01*
X23569Y-31582D01*
X23531Y-31490D01*
X23461Y-31419D01*
X23369Y-31381D01*
X23082Y-31382D01*
X23020Y-31444D01*
X23020Y-31932D01*
X23507Y-31932D01*
X23570Y-31869D01*
X23570Y-31681D01*
X23570Y-32282D01*
X23570Y-32094D01*
X23507Y-32032D01*
X23020Y-32032D01*
X23020Y-32519D01*
X23082Y-32582D01*
X23369Y-32582D01*
X23461Y-32544D01*
X23531Y-32473D01*
X23569Y-32381D01*
X23570Y-32282D01*
X23570Y-34268D01*
X23446Y-34144D01*
X23137Y-34016D01*
X22920Y-34016D01*
X22920Y-32519D01*
X22920Y-32032D01*
X22920Y-31932D01*
X22920Y-31444D01*
X22857Y-31382D01*
X22570Y-31381D01*
X22478Y-31419D01*
X22408Y-31490D01*
X22370Y-31582D01*
X22369Y-31681D01*
X22370Y-31869D01*
X22432Y-31932D01*
X22920Y-31932D01*
X22920Y-32032D01*
X22432Y-32032D01*
X22370Y-32094D01*
X22369Y-32282D01*
X22370Y-32381D01*
X22408Y-32473D01*
X22478Y-32544D01*
X22570Y-32582D01*
X22857Y-32582D01*
X22920Y-32519D01*
X22920Y-34016D01*
X22803Y-34015D01*
X22494Y-34143D01*
X22257Y-34379D01*
X22129Y-34688D01*
X22129Y-35023D01*
X22257Y-35332D01*
X22493Y-35568D01*
X22802Y-35697D01*
X23136Y-35697D01*
X23445Y-35569D01*
X23682Y-35333D01*
X23810Y-35024D01*
X23810Y-34690D01*
X23810Y-35825D01*
X20575Y-35825D01*
X20575Y-30292D01*
X20415Y-29906D01*
X20120Y-29610D01*
X19734Y-29450D01*
X19317Y-29449D01*
X18931Y-29609D01*
X18635Y-29904D01*
X18475Y-30290D01*
X18474Y-30707D01*
X18634Y-31094D01*
X18929Y-31389D01*
X19315Y-31549D01*
X19732Y-31550D01*
X20119Y-31390D01*
X20414Y-31095D01*
X20574Y-30709D01*
X20575Y-30292D01*
X20575Y-35825D01*
X20192Y-35825D01*
X20192Y-34653D01*
X20079Y-34380D01*
X19870Y-34171D01*
X19750Y-34121D01*
X19750Y-33479D01*
X19869Y-33429D01*
X20078Y-33220D01*
X20191Y-32948D01*
X20192Y-32653D01*
X20079Y-32380D01*
X19870Y-32171D01*
X19598Y-32058D01*
X19303Y-32057D01*
X19030Y-32170D01*
X18821Y-32379D01*
X18708Y-32651D01*
X18707Y-32946D01*
X18796Y-33161D01*
X18594Y-33077D01*
X18306Y-33077D01*
X18103Y-33161D01*
X18191Y-32948D01*
X18192Y-32653D01*
X18079Y-32380D01*
X17870Y-32171D01*
X17598Y-32058D01*
X17303Y-32057D01*
X17030Y-32170D01*
X16821Y-32379D01*
X16708Y-32651D01*
X16707Y-32946D01*
X16820Y-33219D01*
X17029Y-33428D01*
X17150Y-33478D01*
X17150Y-34120D01*
X17030Y-34170D01*
X16821Y-34379D01*
X16708Y-34651D01*
X16707Y-34946D01*
X16820Y-35219D01*
X17029Y-35428D01*
X17301Y-35541D01*
X17596Y-35542D01*
X17869Y-35429D01*
X18078Y-35220D01*
X18128Y-35100D01*
X18770Y-35100D01*
X18820Y-35219D01*
X19029Y-35428D01*
X19301Y-35541D01*
X19596Y-35542D01*
X19869Y-35429D01*
X20078Y-35220D01*
X20191Y-34948D01*
X20192Y-34653D01*
X20192Y-35825D01*
X15718Y-35825D01*
X15718Y-22529D01*
X15718Y-21730D01*
X15718Y-20875D01*
X15718Y-20076D01*
X15718Y-19223D01*
X15718Y-18424D01*
X15718Y-17569D01*
X15718Y-16770D01*
X15718Y-15029D01*
X15718Y-14230D01*
X15718Y-13375D01*
X15718Y-13088D01*
X15655Y-13026D01*
X15168Y-13026D01*
X15168Y-13513D01*
X15230Y-13576D01*
X15418Y-13576D01*
X15517Y-13575D01*
X15609Y-13537D01*
X15680Y-13467D01*
X15718Y-13375D01*
X15718Y-14230D01*
X15680Y-14138D01*
X15609Y-14068D01*
X15517Y-14030D01*
X15418Y-14029D01*
X15230Y-14030D01*
X15168Y-14092D01*
X15168Y-14580D01*
X15655Y-14580D01*
X15718Y-14517D01*
X15718Y-14230D01*
X15718Y-15029D01*
X15718Y-14742D01*
X15655Y-14680D01*
X15168Y-14680D01*
X15168Y-15167D01*
X15230Y-15230D01*
X15418Y-15230D01*
X15517Y-15229D01*
X15609Y-15191D01*
X15680Y-15121D01*
X15718Y-15029D01*
X15718Y-16770D01*
X15680Y-16678D01*
X15609Y-16608D01*
X15517Y-16570D01*
X15418Y-16569D01*
X15230Y-16570D01*
X15168Y-16632D01*
X15168Y-17120D01*
X15655Y-17120D01*
X15718Y-17057D01*
X15718Y-16770D01*
X15718Y-17569D01*
X15718Y-17282D01*
X15655Y-17220D01*
X15168Y-17220D01*
X15168Y-17707D01*
X15230Y-17770D01*
X15418Y-17770D01*
X15517Y-17769D01*
X15609Y-17731D01*
X15680Y-17661D01*
X15718Y-17569D01*
X15718Y-18424D01*
X15680Y-18332D01*
X15609Y-18262D01*
X15517Y-18224D01*
X15418Y-18223D01*
X15230Y-18224D01*
X15168Y-18286D01*
X15168Y-18774D01*
X15655Y-18774D01*
X15718Y-18711D01*
X15718Y-18424D01*
X15718Y-19223D01*
X15718Y-18936D01*
X15655Y-18874D01*
X15168Y-18874D01*
X15168Y-19361D01*
X15230Y-19424D01*
X15418Y-19424D01*
X15517Y-19423D01*
X15609Y-19385D01*
X15680Y-19315D01*
X15718Y-19223D01*
X15718Y-20076D01*
X15680Y-19984D01*
X15609Y-19914D01*
X15517Y-19876D01*
X15418Y-19875D01*
X15230Y-19876D01*
X15168Y-19938D01*
X15168Y-20426D01*
X15655Y-20426D01*
X15718Y-20363D01*
X15718Y-20076D01*
X15718Y-20875D01*
X15718Y-20588D01*
X15655Y-20526D01*
X15168Y-20526D01*
X15168Y-21013D01*
X15230Y-21076D01*
X15418Y-21076D01*
X15517Y-21075D01*
X15609Y-21037D01*
X15680Y-20967D01*
X15718Y-20875D01*
X15718Y-21730D01*
X15680Y-21638D01*
X15609Y-21568D01*
X15517Y-21530D01*
X15418Y-21529D01*
X15230Y-21530D01*
X15168Y-21592D01*
X15168Y-22080D01*
X15655Y-22080D01*
X15718Y-22017D01*
X15718Y-21730D01*
X15718Y-22529D01*
X15718Y-22242D01*
X15655Y-22180D01*
X15168Y-22180D01*
X15168Y-22667D01*
X15230Y-22730D01*
X15418Y-22730D01*
X15517Y-22729D01*
X15609Y-22691D01*
X15680Y-22621D01*
X15718Y-22529D01*
X15718Y-35825D01*
X15254Y-35825D01*
X15254Y-34231D01*
X15254Y-27731D01*
X15250Y-27638D01*
X15250Y-26541D01*
X15166Y-26338D01*
X15068Y-26240D01*
X15068Y-22667D01*
X15068Y-22180D01*
X15068Y-22080D01*
X15068Y-21592D01*
X15068Y-21013D01*
X15068Y-20526D01*
X15068Y-20426D01*
X15068Y-19938D01*
X15068Y-19361D01*
X15068Y-18874D01*
X15068Y-18774D01*
X15068Y-18286D01*
X15005Y-18224D01*
X14817Y-18223D01*
X14718Y-18224D01*
X14626Y-18262D01*
X14555Y-18332D01*
X14517Y-18424D01*
X14518Y-18711D01*
X14580Y-18774D01*
X15068Y-18774D01*
X15068Y-18874D01*
X14580Y-18874D01*
X14518Y-18936D01*
X14517Y-19223D01*
X14555Y-19315D01*
X14626Y-19385D01*
X14718Y-19423D01*
X14817Y-19424D01*
X15005Y-19424D01*
X15068Y-19361D01*
X15068Y-19938D01*
X15005Y-19876D01*
X14817Y-19875D01*
X14718Y-19876D01*
X14626Y-19914D01*
X14555Y-19984D01*
X14517Y-20076D01*
X14518Y-20363D01*
X14580Y-20426D01*
X15068Y-20426D01*
X15068Y-20526D01*
X14580Y-20526D01*
X14518Y-20588D01*
X14517Y-20875D01*
X14555Y-20967D01*
X14626Y-21037D01*
X14718Y-21075D01*
X14817Y-21076D01*
X15005Y-21076D01*
X15068Y-21013D01*
X15068Y-21592D01*
X15005Y-21530D01*
X14817Y-21529D01*
X14718Y-21530D01*
X14626Y-21568D01*
X14555Y-21638D01*
X14517Y-21730D01*
X14518Y-22017D01*
X14580Y-22080D01*
X15068Y-22080D01*
X15068Y-22180D01*
X14580Y-22180D01*
X14518Y-22242D01*
X14517Y-22529D01*
X14555Y-22621D01*
X14626Y-22691D01*
X14718Y-22729D01*
X14817Y-22730D01*
X15005Y-22730D01*
X15068Y-22667D01*
X15068Y-26240D01*
X15011Y-26184D01*
X14809Y-26100D01*
X14591Y-26099D01*
X14388Y-26183D01*
X14234Y-26338D01*
X14150Y-26540D01*
X14149Y-26758D01*
X14233Y-26961D01*
X14388Y-27115D01*
X14463Y-27147D01*
X14412Y-27168D01*
X14384Y-27264D01*
X14700Y-27579D01*
X15015Y-27264D01*
X14987Y-27168D01*
X14932Y-27149D01*
X15011Y-27116D01*
X15165Y-26961D01*
X15249Y-26759D01*
X15250Y-26541D01*
X15250Y-27638D01*
X15243Y-27513D01*
X15181Y-27362D01*
X15085Y-27334D01*
X14770Y-27650D01*
X15085Y-27965D01*
X15181Y-27937D01*
X15254Y-27731D01*
X15254Y-34231D01*
X15250Y-34138D01*
X15250Y-33041D01*
X15166Y-32838D01*
X15015Y-32687D01*
X15015Y-28035D01*
X14700Y-27720D01*
X14629Y-27791D01*
X14629Y-27650D01*
X14314Y-27334D01*
X14218Y-27362D01*
X14145Y-27568D01*
X14156Y-27786D01*
X14218Y-27937D01*
X14314Y-27965D01*
X14629Y-27650D01*
X14629Y-27791D01*
X14384Y-28035D01*
X14412Y-28131D01*
X14618Y-28204D01*
X14836Y-28193D01*
X14987Y-28131D01*
X15015Y-28035D01*
X15015Y-32687D01*
X15011Y-32684D01*
X14809Y-32600D01*
X14591Y-32599D01*
X14388Y-32683D01*
X14234Y-32838D01*
X14150Y-33040D01*
X14149Y-33258D01*
X14233Y-33461D01*
X14388Y-33615D01*
X14463Y-33647D01*
X14412Y-33668D01*
X14384Y-33764D01*
X14700Y-34079D01*
X15015Y-33764D01*
X14987Y-33668D01*
X14932Y-33649D01*
X15011Y-33616D01*
X15165Y-33461D01*
X15249Y-33259D01*
X15250Y-33041D01*
X15250Y-34138D01*
X15243Y-34013D01*
X15181Y-33862D01*
X15085Y-33834D01*
X14770Y-34150D01*
X15085Y-34465D01*
X15181Y-34437D01*
X15254Y-34231D01*
X15254Y-35825D01*
X15015Y-35825D01*
X15015Y-34535D01*
X14700Y-34220D01*
X14629Y-34291D01*
X14629Y-34150D01*
X14314Y-33834D01*
X14218Y-33862D01*
X14145Y-34068D01*
X14156Y-34286D01*
X14218Y-34437D01*
X14314Y-34465D01*
X14629Y-34150D01*
X14629Y-34291D01*
X14384Y-34535D01*
X14412Y-34631D01*
X14618Y-34704D01*
X14836Y-34693D01*
X14987Y-34631D01*
X15015Y-34535D01*
X15015Y-35825D01*
X13352Y-35825D01*
X13495Y-35682D01*
X13638Y-35337D01*
X13639Y-34964D01*
X13639Y-30964D01*
X13639Y-28464D01*
X13639Y-24464D01*
X13496Y-24118D01*
X13232Y-23854D01*
X13084Y-23792D01*
X13084Y-21963D01*
X13084Y-17003D01*
X13084Y-14463D01*
X13084Y-9503D01*
X12956Y-9194D01*
X12720Y-8957D01*
X12411Y-8829D01*
X12076Y-8829D01*
X11767Y-8957D01*
X11531Y-9193D01*
X11402Y-9502D01*
X11402Y-9836D01*
X11530Y-10145D01*
X11766Y-10382D01*
X12075Y-10510D01*
X12409Y-10510D01*
X12718Y-10383D01*
X12955Y-10146D01*
X13083Y-9837D01*
X13084Y-9503D01*
X13084Y-14463D01*
X12956Y-14154D01*
X12720Y-13917D01*
X12411Y-13789D01*
X12076Y-13789D01*
X11767Y-13917D01*
X11531Y-14153D01*
X11402Y-14462D01*
X11402Y-14796D01*
X11530Y-15105D01*
X11766Y-15342D01*
X12075Y-15470D01*
X12409Y-15470D01*
X12718Y-15343D01*
X12955Y-15106D01*
X13083Y-14797D01*
X13084Y-14463D01*
X13084Y-17003D01*
X12956Y-16694D01*
X12720Y-16457D01*
X12411Y-16329D01*
X12076Y-16329D01*
X11767Y-16457D01*
X11531Y-16693D01*
X11402Y-17002D01*
X11402Y-17336D01*
X11530Y-17645D01*
X11766Y-17882D01*
X12075Y-18010D01*
X12409Y-18010D01*
X12718Y-17883D01*
X12955Y-17646D01*
X13083Y-17337D01*
X13084Y-17003D01*
X13084Y-21963D01*
X12956Y-21654D01*
X12720Y-21417D01*
X12411Y-21289D01*
X12076Y-21289D01*
X11767Y-21417D01*
X11531Y-21653D01*
X11402Y-21962D01*
X11402Y-22296D01*
X11530Y-22605D01*
X11766Y-22842D01*
X12075Y-22970D01*
X12409Y-22970D01*
X12718Y-22843D01*
X12955Y-22606D01*
X13083Y-22297D01*
X13084Y-21963D01*
X13084Y-23792D01*
X12887Y-23711D01*
X12514Y-23710D01*
X12168Y-23853D01*
X11904Y-24117D01*
X11761Y-24462D01*
X11760Y-24835D01*
X11903Y-25181D01*
X12167Y-25445D01*
X12512Y-25588D01*
X12885Y-25589D01*
X13231Y-25446D01*
X13495Y-25182D01*
X13638Y-24837D01*
X13639Y-24464D01*
X13639Y-28464D01*
X13496Y-28118D01*
X13232Y-27854D01*
X12887Y-27711D01*
X12514Y-27710D01*
X12168Y-27853D01*
X11904Y-28117D01*
X11761Y-28462D01*
X11760Y-28835D01*
X11903Y-29181D01*
X12167Y-29445D01*
X12512Y-29588D01*
X12885Y-29589D01*
X13231Y-29446D01*
X13495Y-29182D01*
X13638Y-28837D01*
X13639Y-28464D01*
X13639Y-30964D01*
X13496Y-30618D01*
X13232Y-30354D01*
X12887Y-30211D01*
X12514Y-30210D01*
X12168Y-30353D01*
X11904Y-30617D01*
X11761Y-30962D01*
X11760Y-31335D01*
X11903Y-31681D01*
X12167Y-31945D01*
X12512Y-32088D01*
X12885Y-32089D01*
X13231Y-31946D01*
X13495Y-31682D01*
X13638Y-31337D01*
X13639Y-30964D01*
X13639Y-34964D01*
X13496Y-34618D01*
X13232Y-34354D01*
X12887Y-34211D01*
X12514Y-34210D01*
X12168Y-34353D01*
X11904Y-34617D01*
X11761Y-34962D01*
X11760Y-35335D01*
X11903Y-35681D01*
X12047Y-35825D01*
X10025Y-35825D01*
X10025Y-8225D01*
X18967Y-8225D01*
X18861Y-8296D01*
X18741Y-8474D01*
X18700Y-8685D01*
X18700Y-9114D01*
X18727Y-9252D01*
X18661Y-9208D01*
X18470Y-9169D01*
X18469Y-9170D01*
X17948Y-9170D01*
X17928Y-9122D01*
X17830Y-9023D01*
X17701Y-8970D01*
X17562Y-8969D01*
X16862Y-8969D01*
X16734Y-9023D01*
X16635Y-9121D01*
X16582Y-9250D01*
X16581Y-9389D01*
X16581Y-10089D01*
X16635Y-10218D01*
X16733Y-10316D01*
X16862Y-10369D01*
X17001Y-10370D01*
X17701Y-10370D01*
X17830Y-10316D01*
X17928Y-10218D01*
X17948Y-10170D01*
X18262Y-10170D01*
X18346Y-10253D01*
X18346Y-10253D01*
X18508Y-10361D01*
X18700Y-10400D01*
X19074Y-10400D01*
X18931Y-10459D01*
X18635Y-10754D01*
X18475Y-11140D01*
X18474Y-11557D01*
X18634Y-11944D01*
X18929Y-12239D01*
X19315Y-12399D01*
X19732Y-12400D01*
X20119Y-12240D01*
X20414Y-11945D01*
X20574Y-11559D01*
X20575Y-11142D01*
X20415Y-10756D01*
X20120Y-10460D01*
X19975Y-10400D01*
X40514Y-10400D01*
X41832Y-11717D01*
X41787Y-11717D01*
X41087Y-11717D01*
X40995Y-11755D01*
X40925Y-11826D01*
X40887Y-11918D01*
X40886Y-12017D01*
X40886Y-12717D01*
X40924Y-12809D01*
X40995Y-12879D01*
X41012Y-12887D01*
X41008Y-12888D01*
X40846Y-12996D01*
X40846Y-12996D01*
X40433Y-13409D01*
X40433Y-12618D01*
X40433Y-11918D01*
X40395Y-11826D01*
X40324Y-11756D01*
X40232Y-11718D01*
X40133Y-11717D01*
X39433Y-11717D01*
X39341Y-11755D01*
X39271Y-11826D01*
X39233Y-11918D01*
X39232Y-12017D01*
X39232Y-12717D01*
X39270Y-12809D01*
X39341Y-12879D01*
X39433Y-12917D01*
X39532Y-12918D01*
X40232Y-12918D01*
X40324Y-12880D01*
X40394Y-12809D01*
X40432Y-12717D01*
X40433Y-12618D01*
X40433Y-13409D01*
X40296Y-13546D01*
X40188Y-13708D01*
X40153Y-13881D01*
X40133Y-13881D01*
X39433Y-13881D01*
X39341Y-13919D01*
X39271Y-13990D01*
X39233Y-14082D01*
X39232Y-14181D01*
X39232Y-14881D01*
X39270Y-14973D01*
X39341Y-15043D01*
X39433Y-15081D01*
X39532Y-15082D01*
X40150Y-15082D01*
X40150Y-22242D01*
X38780Y-23612D01*
X38780Y-14782D01*
X38780Y-14181D01*
X38780Y-12618D01*
X38780Y-12017D01*
X38779Y-11918D01*
X38741Y-11826D01*
X38671Y-11755D01*
X38579Y-11717D01*
X38292Y-11718D01*
X38230Y-11780D01*
X38230Y-12268D01*
X38717Y-12268D01*
X38780Y-12205D01*
X38780Y-12017D01*
X38780Y-12618D01*
X38780Y-12430D01*
X38717Y-12368D01*
X38230Y-12368D01*
X38230Y-12855D01*
X38292Y-12918D01*
X38579Y-12918D01*
X38671Y-12880D01*
X38741Y-12809D01*
X38779Y-12717D01*
X38780Y-12618D01*
X38780Y-14181D01*
X38779Y-14082D01*
X38741Y-13990D01*
X38671Y-13919D01*
X38579Y-13881D01*
X38292Y-13882D01*
X38230Y-13944D01*
X38230Y-14432D01*
X38717Y-14432D01*
X38780Y-14369D01*
X38780Y-14181D01*
X38780Y-14782D01*
X38780Y-14594D01*
X38717Y-14532D01*
X38230Y-14532D01*
X38230Y-15019D01*
X38292Y-15082D01*
X38579Y-15082D01*
X38671Y-15044D01*
X38741Y-14973D01*
X38779Y-14881D01*
X38780Y-14782D01*
X38780Y-23612D01*
X38130Y-24262D01*
X38130Y-15019D01*
X38130Y-14532D01*
X38130Y-14432D01*
X38130Y-13944D01*
X38130Y-12855D01*
X38130Y-12368D01*
X38130Y-12268D01*
X38130Y-11780D01*
X38067Y-11718D01*
X37780Y-11717D01*
X37688Y-11755D01*
X37618Y-11826D01*
X37580Y-11918D01*
X37579Y-12017D01*
X37580Y-12205D01*
X37642Y-12268D01*
X38130Y-12268D01*
X38130Y-12368D01*
X37642Y-12368D01*
X37580Y-12430D01*
X37579Y-12618D01*
X37580Y-12717D01*
X37618Y-12809D01*
X37688Y-12880D01*
X37780Y-12918D01*
X38067Y-12918D01*
X38130Y-12855D01*
X38130Y-13944D01*
X38067Y-13882D01*
X37780Y-13881D01*
X37688Y-13919D01*
X37618Y-13990D01*
X37580Y-14082D01*
X37579Y-14181D01*
X37580Y-14369D01*
X37642Y-14432D01*
X38130Y-14432D01*
X38130Y-14532D01*
X37642Y-14532D01*
X37580Y-14594D01*
X37579Y-14782D01*
X37580Y-14881D01*
X37618Y-14973D01*
X37688Y-15044D01*
X37780Y-15082D01*
X38067Y-15082D01*
X38130Y-15019D01*
X38130Y-24262D01*
X37226Y-25166D01*
X37226Y-12598D01*
X37226Y-11898D01*
X37172Y-11770D01*
X37074Y-11671D01*
X36945Y-11618D01*
X36806Y-11617D01*
X36106Y-11617D01*
X35978Y-11671D01*
X35879Y-11769D01*
X35826Y-11898D01*
X35825Y-12037D01*
X35825Y-12737D01*
X35879Y-12866D01*
X35977Y-12964D01*
X36106Y-13017D01*
X36245Y-13018D01*
X36945Y-13018D01*
X37074Y-12964D01*
X37172Y-12866D01*
X37225Y-12737D01*
X37226Y-12598D01*
X37226Y-25166D01*
X37126Y-25266D01*
X37126Y-14782D01*
X37126Y-14181D01*
X37125Y-14082D01*
X37087Y-13990D01*
X37017Y-13919D01*
X36925Y-13881D01*
X36638Y-13882D01*
X36576Y-13944D01*
X36576Y-14432D01*
X37063Y-14432D01*
X37126Y-14369D01*
X37126Y-14181D01*
X37126Y-14782D01*
X37126Y-14594D01*
X37063Y-14532D01*
X36576Y-14532D01*
X36576Y-15019D01*
X36638Y-15082D01*
X36925Y-15082D01*
X37017Y-15044D01*
X37087Y-14973D01*
X37125Y-14881D01*
X37126Y-14782D01*
X37126Y-25266D01*
X37113Y-25279D01*
X37053Y-25304D01*
X36907Y-25450D01*
X36476Y-25018D01*
X36476Y-15019D01*
X36476Y-14532D01*
X36476Y-14432D01*
X36476Y-13944D01*
X36413Y-13882D01*
X36126Y-13881D01*
X36034Y-13919D01*
X35964Y-13990D01*
X35926Y-14082D01*
X35925Y-14181D01*
X35926Y-14369D01*
X35988Y-14432D01*
X36476Y-14432D01*
X36476Y-14532D01*
X35988Y-14532D01*
X35926Y-14594D01*
X35925Y-14782D01*
X35926Y-14881D01*
X35964Y-14973D01*
X36034Y-15044D01*
X36126Y-15082D01*
X36413Y-15082D01*
X36476Y-15019D01*
X36476Y-25018D01*
X35450Y-23992D01*
X35450Y-23769D01*
X35500Y-23718D01*
X35599Y-23479D01*
X35600Y-23221D01*
X35501Y-22982D01*
X35474Y-22954D01*
X35474Y-14782D01*
X35474Y-14181D01*
X35474Y-12618D01*
X35474Y-12017D01*
X35473Y-11918D01*
X35435Y-11826D01*
X35365Y-11755D01*
X35273Y-11717D01*
X34986Y-11718D01*
X34924Y-11780D01*
X34924Y-12268D01*
X35411Y-12268D01*
X35474Y-12205D01*
X35474Y-12017D01*
X35474Y-12618D01*
X35474Y-12430D01*
X35411Y-12368D01*
X34924Y-12368D01*
X34924Y-12855D01*
X34986Y-12918D01*
X35273Y-12918D01*
X35365Y-12880D01*
X35435Y-12809D01*
X35473Y-12717D01*
X35474Y-12618D01*
X35474Y-14181D01*
X35473Y-14082D01*
X35435Y-13990D01*
X35365Y-13919D01*
X35273Y-13881D01*
X34986Y-13882D01*
X34924Y-13944D01*
X34924Y-14432D01*
X35411Y-14432D01*
X35474Y-14369D01*
X35474Y-14181D01*
X35474Y-14782D01*
X35474Y-14594D01*
X35411Y-14532D01*
X34924Y-14532D01*
X34924Y-15019D01*
X34986Y-15082D01*
X35273Y-15082D01*
X35365Y-15044D01*
X35435Y-14973D01*
X35473Y-14881D01*
X35474Y-14782D01*
X35474Y-22954D01*
X35450Y-22930D01*
X35450Y-22000D01*
X35411Y-21808D01*
X35303Y-21646D01*
X35303Y-21646D01*
X34824Y-21166D01*
X34824Y-15019D01*
X34824Y-14532D01*
X34824Y-14432D01*
X34824Y-13944D01*
X34824Y-12855D01*
X34824Y-12368D01*
X34824Y-12268D01*
X34824Y-11780D01*
X34761Y-11718D01*
X34474Y-11717D01*
X34382Y-11755D01*
X34312Y-11826D01*
X34274Y-11918D01*
X34273Y-12017D01*
X34274Y-12205D01*
X34336Y-12268D01*
X34824Y-12268D01*
X34824Y-12368D01*
X34336Y-12368D01*
X34274Y-12430D01*
X34273Y-12618D01*
X34274Y-12717D01*
X34312Y-12809D01*
X34382Y-12880D01*
X34474Y-12918D01*
X34761Y-12918D01*
X34824Y-12855D01*
X34824Y-13944D01*
X34761Y-13882D01*
X34474Y-13881D01*
X34382Y-13919D01*
X34312Y-13990D01*
X34274Y-14082D01*
X34273Y-14181D01*
X34274Y-14369D01*
X34336Y-14432D01*
X34824Y-14432D01*
X34824Y-14532D01*
X34336Y-14532D01*
X34274Y-14594D01*
X34273Y-14782D01*
X34274Y-14881D01*
X34312Y-14973D01*
X34382Y-15044D01*
X34474Y-15082D01*
X34761Y-15082D01*
X34824Y-15019D01*
X34824Y-21166D01*
X33920Y-20262D01*
X33920Y-12598D01*
X33920Y-11898D01*
X33866Y-11770D01*
X33768Y-11671D01*
X33639Y-11618D01*
X33500Y-11617D01*
X32800Y-11617D01*
X32672Y-11671D01*
X32573Y-11769D01*
X32520Y-11898D01*
X32519Y-12037D01*
X32519Y-12737D01*
X32573Y-12866D01*
X32671Y-12964D01*
X32800Y-13017D01*
X32939Y-13018D01*
X33639Y-13018D01*
X33768Y-12964D01*
X33866Y-12866D01*
X33919Y-12737D01*
X33920Y-12598D01*
X33920Y-20262D01*
X32900Y-19242D01*
X32900Y-15082D01*
X32919Y-15082D01*
X33619Y-15082D01*
X33711Y-15044D01*
X33781Y-14973D01*
X33819Y-14881D01*
X33820Y-14782D01*
X33820Y-14082D01*
X33782Y-13990D01*
X33711Y-13920D01*
X33619Y-13882D01*
X33520Y-13881D01*
X32900Y-13881D01*
X32900Y-13800D01*
X32861Y-13608D01*
X32753Y-13446D01*
X32303Y-12996D01*
X32141Y-12888D01*
X32065Y-12872D01*
X32128Y-12809D01*
X32166Y-12717D01*
X32167Y-12618D01*
X32167Y-12017D01*
X32166Y-11918D01*
X32128Y-11826D01*
X32058Y-11755D01*
X31966Y-11717D01*
X31679Y-11718D01*
X31617Y-11780D01*
X31617Y-12268D01*
X32104Y-12268D01*
X32167Y-12205D01*
X32167Y-12017D01*
X32167Y-12618D01*
X32167Y-12430D01*
X32104Y-12368D01*
X31617Y-12368D01*
X31617Y-12375D01*
X31517Y-12375D01*
X31517Y-12368D01*
X31517Y-12268D01*
X31517Y-11780D01*
X31454Y-11718D01*
X31167Y-11717D01*
X31075Y-11755D01*
X31005Y-11826D01*
X30967Y-11918D01*
X30966Y-12017D01*
X30967Y-12205D01*
X31029Y-12268D01*
X31517Y-12268D01*
X31517Y-12368D01*
X31029Y-12368D01*
X30967Y-12430D01*
X30966Y-12618D01*
X30967Y-12717D01*
X31005Y-12809D01*
X31045Y-12850D01*
X30882Y-12850D01*
X30613Y-12580D01*
X30613Y-11898D01*
X30559Y-11770D01*
X30461Y-11671D01*
X30332Y-11618D01*
X30193Y-11617D01*
X29493Y-11617D01*
X29365Y-11671D01*
X29266Y-11769D01*
X29246Y-11818D01*
X28926Y-11818D01*
X28906Y-11770D01*
X28808Y-11671D01*
X28679Y-11618D01*
X28540Y-11617D01*
X28240Y-11617D01*
X28158Y-11563D01*
X27967Y-11524D01*
X27966Y-11525D01*
X21750Y-11525D01*
X21558Y-11563D01*
X21396Y-11671D01*
X21396Y-11671D01*
X20591Y-12476D01*
X17982Y-12476D01*
X17982Y-11604D01*
X17982Y-10904D01*
X17928Y-10776D01*
X17830Y-10677D01*
X17701Y-10624D01*
X17562Y-10623D01*
X16862Y-10623D01*
X16734Y-10677D01*
X16635Y-10775D01*
X16600Y-10858D01*
X16584Y-10862D01*
X16422Y-10970D01*
X16422Y-10970D01*
X15742Y-11650D01*
X15718Y-11650D01*
X15718Y-10924D01*
X15718Y-10069D01*
X15718Y-9270D01*
X15680Y-9178D01*
X15609Y-9108D01*
X15517Y-9070D01*
X15418Y-9069D01*
X15230Y-9070D01*
X15168Y-9132D01*
X15168Y-9620D01*
X15655Y-9620D01*
X15718Y-9557D01*
X15718Y-9270D01*
X15718Y-10069D01*
X15718Y-9782D01*
X15655Y-9720D01*
X15168Y-9720D01*
X15168Y-10207D01*
X15230Y-10270D01*
X15418Y-10270D01*
X15517Y-10269D01*
X15609Y-10231D01*
X15680Y-10161D01*
X15718Y-10069D01*
X15718Y-10924D01*
X15680Y-10832D01*
X15609Y-10762D01*
X15517Y-10724D01*
X15418Y-10723D01*
X15230Y-10724D01*
X15168Y-10786D01*
X15168Y-11274D01*
X15655Y-11274D01*
X15718Y-11211D01*
X15718Y-10924D01*
X15718Y-11650D01*
X15718Y-11650D01*
X15718Y-11436D01*
X15655Y-11374D01*
X15168Y-11374D01*
X15168Y-11381D01*
X15068Y-11381D01*
X15068Y-11374D01*
X15068Y-11274D01*
X15068Y-10786D01*
X15068Y-10207D01*
X15068Y-9720D01*
X15068Y-9620D01*
X15068Y-9132D01*
X15005Y-9070D01*
X14817Y-9069D01*
X14718Y-9070D01*
X14626Y-9108D01*
X14555Y-9178D01*
X14517Y-9270D01*
X14518Y-9557D01*
X14580Y-9620D01*
X15068Y-9620D01*
X15068Y-9720D01*
X14580Y-9720D01*
X14518Y-9782D01*
X14517Y-10069D01*
X14555Y-10161D01*
X14626Y-10231D01*
X14718Y-10269D01*
X14817Y-10270D01*
X15005Y-10270D01*
X15068Y-10207D01*
X15068Y-10786D01*
X15005Y-10724D01*
X14817Y-10723D01*
X14718Y-10724D01*
X14626Y-10762D01*
X14555Y-10832D01*
X14517Y-10924D01*
X14518Y-11211D01*
X14580Y-11274D01*
X15068Y-11274D01*
X15068Y-11374D01*
X14580Y-11374D01*
X14518Y-11436D01*
X14517Y-11650D01*
X14450Y-11650D01*
X14449Y-11650D01*
X14411Y-11657D01*
X14258Y-11688D01*
X14096Y-11796D01*
X14096Y-11796D01*
X13746Y-12146D01*
X13638Y-12308D01*
X13599Y-12500D01*
X13600Y-12500D01*
X13600Y-16985D01*
X13575Y-17045D01*
X13574Y-17253D01*
X13654Y-17447D01*
X13802Y-17594D01*
X13995Y-17674D01*
X14203Y-17675D01*
X14397Y-17595D01*
X14517Y-17474D01*
X14517Y-17569D01*
X14555Y-17661D01*
X14626Y-17731D01*
X14718Y-17769D01*
X14817Y-17770D01*
X15005Y-17770D01*
X15068Y-17707D01*
X15068Y-17220D01*
X15060Y-17220D01*
X15060Y-17120D01*
X15068Y-17120D01*
X15068Y-16632D01*
X15005Y-16570D01*
X14817Y-16569D01*
X14718Y-16570D01*
X14626Y-16608D01*
X14600Y-16634D01*
X14600Y-15165D01*
X14626Y-15191D01*
X14718Y-15229D01*
X14817Y-15230D01*
X15005Y-15230D01*
X15068Y-15167D01*
X15068Y-14680D01*
X15060Y-14680D01*
X15060Y-14580D01*
X15068Y-14580D01*
X15068Y-14092D01*
X15005Y-14030D01*
X14817Y-14029D01*
X14718Y-14030D01*
X14626Y-14068D01*
X14600Y-14094D01*
X14600Y-13511D01*
X14626Y-13537D01*
X14718Y-13575D01*
X14817Y-13576D01*
X15005Y-13576D01*
X15068Y-13513D01*
X15068Y-13026D01*
X15060Y-13026D01*
X15060Y-12926D01*
X15068Y-12926D01*
X15068Y-12918D01*
X15168Y-12918D01*
X15168Y-12926D01*
X15655Y-12926D01*
X15718Y-12863D01*
X15718Y-12650D01*
X15949Y-12650D01*
X15950Y-12650D01*
X15950Y-12650D01*
X16141Y-12611D01*
X16303Y-12503D01*
X16806Y-12000D01*
X16862Y-12023D01*
X17001Y-12024D01*
X17701Y-12024D01*
X17830Y-11970D01*
X17928Y-11872D01*
X17981Y-11743D01*
X17982Y-11604D01*
X17982Y-12476D01*
X17948Y-12476D01*
X17928Y-12428D01*
X17830Y-12329D01*
X17701Y-12276D01*
X17562Y-12275D01*
X16862Y-12275D01*
X16734Y-12329D01*
X16635Y-12427D01*
X16582Y-12556D01*
X16581Y-12695D01*
X16581Y-12960D01*
X16096Y-13446D01*
X15988Y-13608D01*
X15949Y-13800D01*
X15950Y-13800D01*
X15950Y-19643D01*
X15949Y-19644D01*
X15988Y-19835D01*
X16096Y-19997D01*
X16581Y-20483D01*
X16581Y-20895D01*
X16635Y-21024D01*
X16733Y-21122D01*
X16862Y-21175D01*
X17001Y-21176D01*
X17528Y-21176D01*
X17274Y-21429D01*
X16862Y-21429D01*
X16734Y-21483D01*
X16635Y-21581D01*
X16582Y-21710D01*
X16581Y-21849D01*
X16581Y-22549D01*
X16635Y-22678D01*
X16733Y-22776D01*
X16862Y-22829D01*
X17001Y-22830D01*
X17701Y-22830D01*
X17830Y-22776D01*
X17928Y-22678D01*
X17981Y-22549D01*
X17982Y-22410D01*
X17982Y-22137D01*
X18553Y-21565D01*
X18661Y-21403D01*
X18700Y-21212D01*
X18700Y-21212D01*
X18700Y-21211D01*
X18700Y-16000D01*
X18700Y-16000D01*
X18700Y-16000D01*
X18661Y-15808D01*
X18553Y-15646D01*
X18037Y-15130D01*
X20444Y-15130D01*
X20445Y-15130D01*
X20445Y-15130D01*
X20636Y-15091D01*
X20798Y-14983D01*
X22532Y-13250D01*
X22675Y-13250D01*
X20187Y-15737D01*
X20122Y-15835D01*
X20100Y-15950D01*
X20100Y-20048D01*
X20039Y-20108D01*
X19975Y-20265D01*
X19974Y-20434D01*
X20039Y-20590D01*
X20158Y-20710D01*
X20315Y-20774D01*
X20484Y-20775D01*
X20500Y-20768D01*
X20500Y-22224D01*
X20415Y-22224D01*
X20259Y-22289D01*
X20139Y-22408D01*
X20075Y-22565D01*
X20074Y-22734D01*
X20139Y-22890D01*
X20258Y-23010D01*
X20415Y-23074D01*
X20584Y-23075D01*
X20740Y-23010D01*
X20800Y-22951D01*
X20800Y-23925D01*
X20500Y-24225D01*
X20415Y-24224D01*
X20259Y-24289D01*
X20139Y-24408D01*
X20075Y-24565D01*
X20074Y-24734D01*
X20139Y-24890D01*
X20258Y-25010D01*
X20415Y-25074D01*
X20584Y-25075D01*
X20740Y-25010D01*
X20860Y-24891D01*
X20924Y-24734D01*
X20925Y-24649D01*
X21312Y-24262D01*
X21312Y-24262D01*
X21377Y-24164D01*
X21399Y-24050D01*
X21400Y-24050D01*
X21400Y-16474D01*
X23324Y-14550D01*
X25000Y-14550D01*
X25000Y-14549D01*
X25114Y-14527D01*
X25114Y-14527D01*
X25212Y-14462D01*
X25591Y-14082D01*
X25568Y-14138D01*
X25568Y-14472D01*
X25696Y-14781D01*
X25932Y-15018D01*
X26241Y-15146D01*
X26575Y-15146D01*
X26884Y-15018D01*
X27121Y-14782D01*
X27249Y-14473D01*
X27249Y-14139D01*
X27121Y-13830D01*
X26941Y-13650D01*
X28492Y-13650D01*
X28624Y-13782D01*
X28540Y-13781D01*
X27840Y-13781D01*
X27712Y-13835D01*
X27613Y-13933D01*
X27560Y-14062D01*
X27559Y-14201D01*
X27559Y-14901D01*
X27613Y-15030D01*
X27711Y-15128D01*
X27840Y-15181D01*
X27979Y-15182D01*
X28679Y-15182D01*
X28808Y-15128D01*
X28906Y-15030D01*
X28959Y-14901D01*
X28960Y-14762D01*
X28960Y-14117D01*
X29212Y-14370D01*
X29212Y-14901D01*
X29266Y-15030D01*
X29364Y-15128D01*
X29493Y-15181D01*
X29632Y-15182D01*
X29774Y-15182D01*
X31200Y-16607D01*
X31200Y-22342D01*
X28581Y-24961D01*
X28560Y-24909D01*
X28441Y-24789D01*
X28284Y-24725D01*
X28199Y-24724D01*
X28000Y-24525D01*
X28000Y-22877D01*
X28115Y-22924D01*
X28284Y-22925D01*
X28440Y-22860D01*
X28560Y-22741D01*
X28624Y-22584D01*
X28625Y-22415D01*
X28560Y-22259D01*
X28500Y-22198D01*
X28500Y-21124D01*
X28899Y-20724D01*
X28984Y-20725D01*
X29140Y-20660D01*
X29260Y-20541D01*
X29324Y-20384D01*
X29325Y-20215D01*
X29260Y-20059D01*
X29141Y-19939D01*
X28984Y-19875D01*
X28815Y-19874D01*
X28659Y-19939D01*
X28539Y-20058D01*
X28475Y-20215D01*
X28474Y-20300D01*
X27987Y-20787D01*
X27922Y-20885D01*
X27900Y-21000D01*
X27900Y-21272D01*
X27784Y-21225D01*
X27615Y-21224D01*
X27459Y-21289D01*
X27339Y-21408D01*
X27300Y-21505D01*
X27300Y-21000D01*
X27299Y-20999D01*
X27277Y-20885D01*
X27212Y-20787D01*
X27212Y-20787D01*
X25875Y-19450D01*
X25875Y-17015D01*
X25810Y-16859D01*
X25691Y-16739D01*
X25534Y-16675D01*
X25365Y-16674D01*
X25209Y-16739D01*
X25148Y-16800D01*
X24901Y-16800D01*
X24891Y-16789D01*
X24734Y-16725D01*
X24565Y-16724D01*
X24409Y-16789D01*
X24289Y-16908D01*
X24225Y-17065D01*
X24224Y-17234D01*
X24289Y-17390D01*
X24408Y-17510D01*
X24565Y-17574D01*
X24734Y-17575D01*
X24890Y-17510D01*
X25001Y-17400D01*
X25148Y-17400D01*
X25208Y-17460D01*
X25365Y-17524D01*
X25534Y-17525D01*
X25690Y-17460D01*
X25810Y-17341D01*
X25874Y-17184D01*
X25875Y-17015D01*
X25875Y-19450D01*
X25824Y-19400D01*
X25825Y-19315D01*
X25760Y-19159D01*
X25641Y-19039D01*
X25484Y-18975D01*
X25315Y-18974D01*
X25159Y-19039D01*
X25039Y-19158D01*
X24975Y-19315D01*
X24974Y-19484D01*
X25039Y-19640D01*
X25158Y-19760D01*
X25315Y-19824D01*
X25400Y-19825D01*
X26700Y-21124D01*
X26700Y-25500D01*
X26700Y-25650D01*
X26706Y-25682D01*
X26450Y-25425D01*
X26450Y-23500D01*
X26449Y-23499D01*
X26427Y-23385D01*
X26362Y-23287D01*
X26362Y-23287D01*
X26224Y-23150D01*
X26225Y-23065D01*
X26160Y-22909D01*
X26041Y-22789D01*
X25884Y-22725D01*
X25715Y-22724D01*
X25559Y-22789D01*
X25439Y-22908D01*
X25375Y-23065D01*
X25374Y-23234D01*
X25439Y-23390D01*
X25449Y-23400D01*
X24701Y-23400D01*
X24641Y-23339D01*
X24484Y-23275D01*
X24315Y-23274D01*
X24159Y-23339D01*
X24039Y-23458D01*
X23975Y-23615D01*
X23974Y-23784D01*
X24039Y-23940D01*
X24158Y-24060D01*
X24315Y-24124D01*
X24484Y-24125D01*
X24640Y-24060D01*
X24701Y-24000D01*
X25448Y-24000D01*
X25439Y-24008D01*
X25375Y-24165D01*
X25374Y-24250D01*
X23587Y-26037D01*
X23522Y-26135D01*
X23512Y-26186D01*
X23439Y-26258D01*
X23375Y-26415D01*
X23374Y-26584D01*
X23439Y-26740D01*
X23558Y-26860D01*
X23715Y-26924D01*
X23884Y-26925D01*
X24040Y-26860D01*
X24160Y-26741D01*
X24224Y-26584D01*
X24225Y-26415D01*
X24176Y-26297D01*
X25799Y-24674D01*
X25850Y-24675D01*
X25850Y-25550D01*
X25872Y-25664D01*
X25937Y-25762D01*
X26425Y-26249D01*
X26424Y-26334D01*
X26489Y-26490D01*
X26608Y-26610D01*
X26765Y-26674D01*
X26934Y-26675D01*
X27090Y-26610D01*
X27210Y-26491D01*
X27220Y-26465D01*
X27365Y-26524D01*
X27534Y-26525D01*
X27690Y-26460D01*
X27810Y-26341D01*
X27874Y-26184D01*
X27875Y-26015D01*
X27810Y-25859D01*
X27691Y-25739D01*
X27534Y-25675D01*
X27449Y-25674D01*
X27300Y-25525D01*
X27300Y-25500D01*
X27300Y-21794D01*
X27339Y-21890D01*
X27400Y-21951D01*
X27400Y-24650D01*
X27422Y-24764D01*
X27487Y-24862D01*
X27775Y-25149D01*
X27774Y-25234D01*
X27839Y-25390D01*
X27958Y-25510D01*
X28115Y-25574D01*
X28200Y-25575D01*
X28200Y-27270D01*
X28060Y-27177D01*
X27850Y-27135D01*
X27639Y-27177D01*
X27461Y-27296D01*
X27346Y-27468D01*
X27338Y-27443D01*
X27203Y-27275D01*
X27014Y-27172D01*
X26985Y-27166D01*
X26900Y-27215D01*
X26900Y-27850D01*
X26907Y-27850D01*
X26907Y-27950D01*
X26900Y-27950D01*
X26900Y-28584D01*
X26985Y-28633D01*
X27014Y-28627D01*
X27203Y-28524D01*
X27338Y-28356D01*
X27346Y-28331D01*
X27461Y-28503D01*
X27639Y-28622D01*
X27850Y-28664D01*
X28060Y-28622D01*
X28200Y-28529D01*
X28200Y-28840D01*
X27922Y-29117D01*
X27510Y-29117D01*
X27382Y-29171D01*
X27283Y-29269D01*
X27230Y-29398D01*
X27229Y-29537D01*
X27229Y-30237D01*
X27235Y-30250D01*
X26970Y-30250D01*
X26975Y-30237D01*
X26976Y-30098D01*
X26976Y-29398D01*
X26922Y-29270D01*
X26824Y-29171D01*
X26800Y-29161D01*
X26800Y-28584D01*
X26800Y-27950D01*
X26800Y-27850D01*
X26800Y-27215D01*
X26714Y-27166D01*
X26685Y-27172D01*
X26496Y-27275D01*
X26361Y-27443D01*
X26350Y-27480D01*
X26338Y-27443D01*
X26203Y-27275D01*
X26014Y-27172D01*
X25985Y-27166D01*
X25900Y-27215D01*
X25900Y-27850D01*
X26300Y-27850D01*
X26400Y-27850D01*
X26800Y-27850D01*
X26800Y-27950D01*
X26400Y-27950D01*
X26300Y-27950D01*
X25900Y-27950D01*
X25900Y-28584D01*
X25985Y-28633D01*
X26014Y-28627D01*
X26203Y-28524D01*
X26338Y-28356D01*
X26350Y-28319D01*
X26361Y-28356D01*
X26496Y-28524D01*
X26685Y-28627D01*
X26714Y-28633D01*
X26800Y-28584D01*
X26800Y-29161D01*
X26695Y-29118D01*
X26556Y-29117D01*
X25856Y-29117D01*
X25800Y-29141D01*
X25800Y-28584D01*
X25800Y-27950D01*
X25792Y-27950D01*
X25792Y-27850D01*
X25800Y-27850D01*
X25800Y-27215D01*
X25714Y-27166D01*
X25685Y-27172D01*
X25496Y-27275D01*
X25361Y-27443D01*
X25353Y-27468D01*
X25238Y-27296D01*
X25060Y-27177D01*
X24850Y-27135D01*
X24639Y-27177D01*
X24461Y-27296D01*
X24350Y-27462D01*
X24238Y-27296D01*
X24060Y-27177D01*
X23850Y-27135D01*
X23639Y-27177D01*
X23461Y-27296D01*
X23350Y-27462D01*
X23238Y-27296D01*
X23060Y-27177D01*
X22850Y-27135D01*
X22639Y-27177D01*
X22461Y-27296D01*
X22341Y-27474D01*
X22300Y-27685D01*
X22300Y-28114D01*
X22341Y-28325D01*
X22461Y-28503D01*
X22639Y-28622D01*
X22850Y-28664D01*
X23060Y-28622D01*
X23238Y-28503D01*
X23350Y-28337D01*
X23461Y-28503D01*
X23639Y-28622D01*
X23850Y-28664D01*
X24060Y-28622D01*
X24238Y-28503D01*
X24350Y-28337D01*
X24461Y-28503D01*
X24639Y-28622D01*
X24850Y-28664D01*
X25060Y-28622D01*
X25238Y-28503D01*
X25353Y-28331D01*
X25361Y-28356D01*
X25496Y-28524D01*
X25685Y-28627D01*
X25714Y-28633D01*
X25800Y-28584D01*
X25800Y-29141D01*
X25728Y-29171D01*
X25629Y-29269D01*
X25576Y-29398D01*
X25575Y-29537D01*
X25575Y-30237D01*
X25581Y-30250D01*
X25318Y-30250D01*
X25323Y-30237D01*
X25324Y-30098D01*
X25324Y-29398D01*
X25270Y-29270D01*
X25172Y-29171D01*
X25043Y-29118D01*
X24904Y-29117D01*
X24204Y-29117D01*
X24076Y-29171D01*
X23977Y-29269D01*
X23924Y-29398D01*
X23923Y-29537D01*
X23923Y-30064D01*
X23670Y-29810D01*
X23670Y-29398D01*
X23616Y-29270D01*
X23518Y-29171D01*
X23389Y-29118D01*
X23250Y-29117D01*
X22550Y-29117D01*
X22422Y-29171D01*
X22323Y-29269D01*
X22270Y-29398D01*
X22269Y-29537D01*
X22269Y-30237D01*
X22323Y-30366D01*
X22421Y-30464D01*
X22550Y-30517D01*
X22689Y-30518D01*
X22962Y-30518D01*
X23548Y-31103D01*
X23548Y-31103D01*
X23710Y-31211D01*
X23902Y-31250D01*
X28399Y-31250D01*
X28400Y-31250D01*
X28400Y-31250D01*
X28591Y-31211D01*
X28753Y-31103D01*
X29753Y-30103D01*
X29753Y-30103D01*
X29753Y-30103D01*
X29861Y-29941D01*
X29900Y-29750D01*
X29900Y-29114D01*
X29924Y-29054D01*
X29925Y-28846D01*
X29850Y-28664D01*
X30060Y-28622D01*
X30238Y-28503D01*
X30350Y-28337D01*
X30461Y-28503D01*
X30639Y-28622D01*
X30850Y-28664D01*
X31060Y-28622D01*
X31238Y-28503D01*
X31350Y-28337D01*
X31461Y-28503D01*
X31639Y-28622D01*
X31850Y-28664D01*
X32060Y-28622D01*
X32238Y-28503D01*
X32350Y-28337D01*
X32461Y-28503D01*
X32639Y-28622D01*
X32850Y-28664D01*
X33050Y-28624D01*
X33050Y-31272D01*
X32984Y-31338D01*
X32900Y-31540D01*
X32899Y-31758D01*
X32983Y-31961D01*
X33138Y-32115D01*
X33219Y-32149D01*
X33138Y-32183D01*
X32984Y-32338D01*
X32900Y-32540D01*
X32899Y-32758D01*
X32983Y-32961D01*
X33138Y-33115D01*
X33340Y-33199D01*
X33558Y-33200D01*
X33761Y-33116D01*
X33915Y-32961D01*
X33947Y-32886D01*
X33968Y-32937D01*
X34064Y-32965D01*
X34379Y-32650D01*
X34064Y-32334D01*
X33968Y-32362D01*
X33949Y-32417D01*
X33916Y-32338D01*
X33761Y-32184D01*
X33680Y-32150D01*
X33761Y-32116D01*
X33915Y-31961D01*
X33949Y-31880D01*
X33983Y-31961D01*
X34138Y-32115D01*
X34213Y-32147D01*
X34162Y-32168D01*
X34134Y-32264D01*
X34450Y-32579D01*
X34455Y-32573D01*
X34526Y-32644D01*
X34520Y-32650D01*
X34526Y-32655D01*
X34455Y-32726D01*
X34450Y-32720D01*
X34134Y-33035D01*
X34162Y-33131D01*
X34368Y-33204D01*
X34586Y-33193D01*
X34695Y-33148D01*
X34737Y-33212D01*
X36137Y-34612D01*
X36137Y-34612D01*
X36235Y-34677D01*
X36350Y-34700D01*
X44674Y-34700D01*
X44674Y-34724D01*
X44712Y-34816D01*
X44783Y-34886D01*
X44875Y-34924D01*
X44974Y-34925D01*
X45524Y-34925D01*
X45616Y-34887D01*
X45686Y-34816D01*
X45724Y-34724D01*
X45725Y-34625D01*
X45725Y-34625D01*
X45754Y-34697D01*
X45902Y-34844D01*
X46095Y-34924D01*
X46303Y-34925D01*
X46497Y-34845D01*
X46642Y-34700D01*
X46850Y-34700D01*
X46850Y-34699D01*
X46964Y-34677D01*
X46964Y-34677D01*
X47062Y-34612D01*
X47712Y-33962D01*
X47712Y-33962D01*
X47777Y-33864D01*
X47799Y-33750D01*
X47800Y-33750D01*
X47800Y-30900D01*
X47800Y-30850D01*
X47800Y-30050D01*
X47777Y-29935D01*
X47712Y-29837D01*
X47712Y-29837D01*
X46612Y-28737D01*
X46514Y-28672D01*
X46400Y-28650D01*
X46285Y-28672D01*
X46187Y-28737D01*
X46122Y-28835D01*
X46100Y-28950D01*
X46122Y-29064D01*
X46187Y-29162D01*
X46468Y-29443D01*
X46304Y-29375D01*
X46099Y-29374D01*
X45962Y-29237D01*
X45864Y-29172D01*
X45750Y-29150D01*
X39800Y-29150D01*
X39685Y-29172D01*
X39587Y-29237D01*
X37725Y-31099D01*
X37700Y-31099D01*
X37100Y-31099D01*
X37008Y-31137D01*
X36938Y-31208D01*
X36900Y-31300D01*
X36899Y-31353D01*
X36835Y-31334D01*
X36520Y-31650D01*
X36526Y-31655D01*
X36455Y-31726D01*
X36450Y-31720D01*
X36444Y-31726D01*
X36373Y-31655D01*
X36379Y-31650D01*
X36373Y-31644D01*
X36444Y-31573D01*
X36450Y-31579D01*
X36765Y-31264D01*
X36737Y-31168D01*
X36531Y-31095D01*
X36313Y-31106D01*
X36162Y-31168D01*
X36155Y-31190D01*
X36137Y-31162D01*
X36137Y-31162D01*
X34675Y-29700D01*
X34675Y-28629D01*
X34850Y-28664D01*
X35060Y-28622D01*
X35238Y-28503D01*
X35350Y-28337D01*
X35461Y-28503D01*
X35639Y-28622D01*
X35850Y-28664D01*
X36060Y-28622D01*
X36238Y-28503D01*
X36350Y-28337D01*
X36461Y-28503D01*
X36639Y-28622D01*
X36850Y-28664D01*
X37060Y-28622D01*
X37238Y-28503D01*
X37358Y-28325D01*
X37400Y-28114D01*
X37400Y-27685D01*
X37392Y-27650D01*
X37425Y-27682D01*
X37425Y-28517D01*
X37142Y-28800D01*
X36414Y-28800D01*
X36354Y-28775D01*
X36146Y-28774D01*
X35953Y-28854D01*
X35805Y-29002D01*
X35725Y-29195D01*
X35724Y-29403D01*
X35804Y-29597D01*
X35952Y-29744D01*
X36145Y-29824D01*
X36353Y-29825D01*
X36414Y-29800D01*
X37349Y-29800D01*
X37349Y-29800D01*
X37349Y-29800D01*
X37541Y-29761D01*
X37703Y-29653D01*
X38278Y-29078D01*
X38278Y-29078D01*
X38278Y-29078D01*
X38386Y-28916D01*
X38425Y-28724D01*
X38424Y-28724D01*
X38425Y-28724D01*
X38425Y-28449D01*
X38461Y-28503D01*
X38639Y-28622D01*
X38850Y-28664D01*
X39060Y-28622D01*
X39238Y-28503D01*
X39350Y-28337D01*
X39461Y-28503D01*
X39639Y-28622D01*
X39850Y-28664D01*
X40060Y-28622D01*
X40238Y-28503D01*
X40350Y-28337D01*
X40461Y-28503D01*
X40639Y-28622D01*
X40850Y-28664D01*
X41060Y-28622D01*
X41238Y-28503D01*
X41350Y-28337D01*
X41461Y-28503D01*
X41639Y-28622D01*
X41850Y-28664D01*
X42060Y-28622D01*
X42238Y-28503D01*
X42350Y-28337D01*
X42461Y-28503D01*
X42639Y-28622D01*
X42850Y-28664D01*
X43060Y-28622D01*
X43238Y-28503D01*
X43350Y-28337D01*
X43461Y-28503D01*
X43639Y-28622D01*
X43850Y-28664D01*
X44060Y-28622D01*
X44238Y-28503D01*
X44350Y-28337D01*
X44461Y-28503D01*
X44639Y-28622D01*
X44850Y-28664D01*
X45060Y-28622D01*
X45238Y-28503D01*
X45350Y-28337D01*
X45461Y-28503D01*
X45639Y-28622D01*
X45850Y-28664D01*
X46060Y-28622D01*
X46238Y-28503D01*
X46358Y-28325D01*
X46400Y-28114D01*
X46400Y-27685D01*
X46358Y-27474D01*
X46238Y-27296D01*
X46060Y-27177D01*
X45850Y-27135D01*
X45831Y-27138D01*
X45831Y-14139D01*
X45703Y-13830D01*
X45467Y-13593D01*
X45158Y-13465D01*
X44824Y-13465D01*
X44515Y-13593D01*
X44278Y-13829D01*
X44150Y-14138D01*
X44150Y-14472D01*
X44278Y-14781D01*
X44514Y-15018D01*
X44823Y-15146D01*
X45157Y-15146D01*
X45466Y-15018D01*
X45703Y-14782D01*
X45831Y-14473D01*
X45831Y-14139D01*
X45831Y-27138D01*
X45639Y-27177D01*
X45461Y-27296D01*
X45350Y-27462D01*
X45238Y-27296D01*
X45060Y-27177D01*
X44850Y-27135D01*
X44639Y-27177D01*
X44461Y-27296D01*
X44350Y-27462D01*
X44238Y-27296D01*
X44060Y-27177D01*
X43850Y-27135D01*
X43840Y-27137D01*
X43840Y-14762D01*
X43840Y-14062D01*
X43786Y-13934D01*
X43688Y-13835D01*
X43559Y-13782D01*
X43420Y-13781D01*
X42720Y-13781D01*
X42592Y-13835D01*
X42493Y-13933D01*
X42440Y-14062D01*
X42439Y-14201D01*
X42439Y-14901D01*
X42493Y-15030D01*
X42591Y-15128D01*
X42720Y-15181D01*
X42859Y-15182D01*
X43559Y-15182D01*
X43688Y-15128D01*
X43786Y-15030D01*
X43839Y-14901D01*
X43840Y-14762D01*
X43840Y-27137D01*
X43639Y-27177D01*
X43461Y-27296D01*
X43350Y-27462D01*
X43238Y-27296D01*
X43060Y-27177D01*
X42850Y-27135D01*
X42639Y-27177D01*
X42461Y-27296D01*
X42350Y-27462D01*
X42238Y-27296D01*
X42060Y-27177D01*
X41850Y-27135D01*
X41639Y-27177D01*
X41461Y-27296D01*
X41350Y-27462D01*
X41238Y-27296D01*
X41060Y-27177D01*
X40850Y-27135D01*
X40639Y-27177D01*
X40461Y-27296D01*
X40350Y-27462D01*
X40238Y-27296D01*
X40060Y-27177D01*
X39850Y-27135D01*
X39639Y-27177D01*
X39461Y-27296D01*
X39350Y-27462D01*
X39238Y-27296D01*
X39060Y-27177D01*
X38850Y-27135D01*
X38639Y-27177D01*
X38461Y-27296D01*
X38405Y-27378D01*
X38386Y-27283D01*
X38278Y-27121D01*
X38278Y-27121D01*
X37432Y-26275D01*
X37453Y-26275D01*
X37647Y-26195D01*
X37794Y-26047D01*
X37820Y-25987D01*
X38377Y-25429D01*
X38350Y-25495D01*
X38349Y-25703D01*
X38429Y-25897D01*
X38577Y-26044D01*
X38770Y-26124D01*
X38978Y-26125D01*
X39172Y-26045D01*
X39319Y-25897D01*
X39380Y-25751D01*
X41840Y-23291D01*
X41840Y-23291D01*
X41840Y-23291D01*
X41948Y-23129D01*
X41987Y-22938D01*
X41987Y-22763D01*
X41987Y-15148D01*
X42035Y-15128D01*
X42133Y-15030D01*
X42186Y-14901D01*
X42187Y-14762D01*
X42187Y-14062D01*
X42133Y-13934D01*
X42050Y-13850D01*
X42149Y-13850D01*
X42150Y-13850D01*
X42150Y-13850D01*
X42341Y-13811D01*
X42503Y-13703D01*
X43189Y-13018D01*
X43559Y-13018D01*
X43688Y-12964D01*
X43786Y-12866D01*
X43839Y-12737D01*
X43840Y-12598D01*
X43840Y-11898D01*
X43786Y-11770D01*
X43688Y-11671D01*
X43559Y-11618D01*
X43420Y-11617D01*
X43147Y-11617D01*
X41115Y-9586D01*
X41238Y-9503D01*
X41350Y-9337D01*
X41461Y-9503D01*
X41639Y-9622D01*
X41850Y-9664D01*
X42060Y-9622D01*
X42238Y-9503D01*
X42350Y-9337D01*
X42461Y-9503D01*
X42639Y-9622D01*
X42850Y-9664D01*
X43060Y-9622D01*
X43238Y-9503D01*
X43350Y-9337D01*
X43461Y-9503D01*
X43639Y-9622D01*
X43850Y-9664D01*
X44060Y-9622D01*
X44238Y-9503D01*
X44358Y-9325D01*
X44377Y-9229D01*
X44480Y-9479D01*
X44768Y-9768D01*
X45145Y-9924D01*
X45552Y-9925D01*
X45929Y-9769D01*
X46218Y-9481D01*
X46357Y-9147D01*
X46383Y-9211D01*
X46538Y-9365D01*
X46619Y-9399D01*
X46538Y-9433D01*
X46384Y-9588D01*
X46300Y-9790D01*
X46299Y-10008D01*
X46383Y-10211D01*
X46538Y-10365D01*
X46619Y-10399D01*
X46538Y-10433D01*
X46384Y-10588D01*
X46300Y-10790D01*
X46299Y-11008D01*
X46383Y-11211D01*
X46538Y-11365D01*
X46619Y-11399D01*
X46538Y-11433D01*
X46384Y-11588D01*
X46300Y-11790D01*
X46299Y-12008D01*
X46383Y-12211D01*
X46538Y-12365D01*
X46619Y-12399D01*
X46538Y-12433D01*
X46384Y-12588D01*
X46300Y-12790D01*
X46299Y-13008D01*
X46383Y-13211D01*
X46538Y-13365D01*
X46619Y-13399D01*
X46538Y-13433D01*
X46384Y-13588D01*
X46300Y-13790D01*
X46299Y-14008D01*
X46383Y-14211D01*
X46538Y-14365D01*
X46619Y-14399D01*
X46538Y-14433D01*
X46384Y-14588D01*
X46300Y-14790D01*
X46299Y-15008D01*
X46383Y-15211D01*
X46538Y-15365D01*
X46619Y-15399D01*
X46538Y-15433D01*
X46384Y-15588D01*
X46300Y-15790D01*
X46299Y-16008D01*
X46383Y-16211D01*
X46538Y-16365D01*
X46619Y-16399D01*
X46538Y-16433D01*
X46384Y-16588D01*
X46300Y-16790D01*
X46299Y-17008D01*
X46383Y-17211D01*
X46538Y-17365D01*
X46619Y-17399D01*
X46538Y-17433D01*
X46384Y-17588D01*
X46300Y-17790D01*
X46299Y-18008D01*
X46383Y-18211D01*
X46538Y-18365D01*
X46619Y-18399D01*
X46538Y-18433D01*
X46384Y-18588D01*
X46300Y-18790D01*
X46299Y-19008D01*
X46383Y-19211D01*
X46538Y-19365D01*
X46619Y-19399D01*
X46538Y-19433D01*
X46384Y-19588D01*
X46300Y-19790D01*
X46299Y-20008D01*
X46383Y-20211D01*
X46538Y-20365D01*
X46619Y-20399D01*
X46538Y-20433D01*
X46384Y-20588D01*
X46300Y-20790D01*
X46299Y-21008D01*
X46383Y-21211D01*
X46538Y-21365D01*
X46619Y-21399D01*
X46538Y-21433D01*
X46384Y-21588D01*
X46300Y-21790D01*
X46299Y-22008D01*
X46383Y-22211D01*
X46538Y-22365D01*
X46619Y-22399D01*
X46538Y-22433D01*
X46384Y-22588D01*
X46300Y-22790D01*
X46299Y-23008D01*
X46383Y-23211D01*
X46538Y-23365D01*
X46619Y-23399D01*
X46538Y-23433D01*
X46384Y-23588D01*
X46300Y-23790D01*
X46299Y-24008D01*
X46383Y-24211D01*
X46538Y-24365D01*
X46619Y-24399D01*
X46538Y-24433D01*
X46384Y-24588D01*
X46300Y-24790D01*
X46299Y-25008D01*
X46383Y-25211D01*
X46538Y-25365D01*
X46613Y-25397D01*
X46562Y-25418D01*
X46534Y-25514D01*
X46850Y-25829D01*
X47165Y-25514D01*
X47137Y-25418D01*
X47082Y-25399D01*
X47161Y-25366D01*
X47315Y-25211D01*
X47349Y-25130D01*
X47383Y-25211D01*
X47538Y-25365D01*
X47613Y-25397D01*
X47562Y-25418D01*
X47534Y-25514D01*
X47850Y-25829D01*
X48165Y-25514D01*
X48137Y-25418D01*
X48082Y-25399D01*
X48161Y-25366D01*
X48315Y-25211D01*
X48399Y-25009D01*
X48400Y-24791D01*
X48316Y-24588D01*
X48161Y-24434D01*
X48080Y-24400D01*
X48161Y-24366D01*
X48315Y-24211D01*
X48399Y-24009D01*
X48400Y-23791D01*
X48316Y-23588D01*
X48161Y-23434D01*
X48080Y-23400D01*
X48161Y-23366D01*
X48315Y-23211D01*
X48399Y-23009D01*
X48400Y-22791D01*
X48316Y-22588D01*
X48161Y-22434D01*
X48080Y-22400D01*
X48161Y-22366D01*
X48315Y-22211D01*
X48399Y-22009D01*
X48400Y-21791D01*
X48316Y-21588D01*
X48161Y-21434D01*
X48080Y-21400D01*
X48161Y-21366D01*
X48315Y-21211D01*
X48399Y-21009D01*
X48400Y-20791D01*
X48316Y-20588D01*
X48161Y-20434D01*
X48080Y-20400D01*
X48161Y-20366D01*
X48315Y-20211D01*
X48399Y-20009D01*
X48400Y-19791D01*
X48316Y-19588D01*
X48161Y-19434D01*
X48080Y-19400D01*
X48161Y-19366D01*
X48315Y-19211D01*
X48399Y-19009D01*
X48400Y-18791D01*
X48316Y-18588D01*
X48161Y-18434D01*
X48080Y-18400D01*
X48161Y-18366D01*
X48315Y-18211D01*
X48399Y-18009D01*
X48400Y-17791D01*
X48316Y-17588D01*
X48161Y-17434D01*
X48080Y-17400D01*
X48161Y-17366D01*
X48315Y-17211D01*
X48399Y-17009D01*
X48400Y-16791D01*
X48316Y-16588D01*
X48161Y-16434D01*
X48080Y-16400D01*
X48161Y-16366D01*
X48315Y-16211D01*
X48399Y-16009D01*
X48400Y-15791D01*
X48316Y-15588D01*
X48161Y-15434D01*
X48080Y-15400D01*
X48161Y-15366D01*
X48315Y-15211D01*
X48399Y-15009D01*
X48400Y-14791D01*
X48316Y-14588D01*
X48161Y-14434D01*
X48080Y-14400D01*
X48161Y-14366D01*
X48315Y-14211D01*
X48399Y-14009D01*
X48400Y-13791D01*
X48316Y-13588D01*
X48161Y-13434D01*
X48080Y-13400D01*
X48161Y-13366D01*
X48315Y-13211D01*
X48399Y-13009D01*
X48400Y-12791D01*
X48316Y-12588D01*
X48161Y-12434D01*
X48080Y-12400D01*
X48161Y-12366D01*
X48315Y-12211D01*
X48399Y-12009D01*
X48400Y-11791D01*
X48316Y-11588D01*
X48161Y-11434D01*
X48080Y-11400D01*
X48161Y-11366D01*
X48315Y-11211D01*
X48399Y-11009D01*
X48400Y-10791D01*
X48316Y-10588D01*
X48161Y-10434D01*
X48080Y-10400D01*
X48161Y-10366D01*
X48315Y-10211D01*
X48399Y-10009D01*
X48400Y-9791D01*
X48316Y-9588D01*
X48161Y-9434D01*
X48080Y-9400D01*
X48161Y-9366D01*
X48315Y-9211D01*
X48399Y-9009D01*
X48400Y-8791D01*
X48316Y-8588D01*
X48161Y-8434D01*
X47959Y-8350D01*
X47741Y-8349D01*
X47538Y-8433D01*
X47384Y-8588D01*
X47350Y-8669D01*
X47316Y-8588D01*
X47161Y-8434D01*
X46959Y-8350D01*
X46741Y-8349D01*
X46538Y-8433D01*
X46384Y-8588D01*
X46357Y-8653D01*
X46219Y-8320D01*
X46124Y-8225D01*
X49125Y-8225D01*
X49125Y-35825D01*
X49125Y-35825D01*
G37*
G54D27*
X49125Y-35825D02*
X48875Y-35825D01*
X48875Y-27697D01*
X48719Y-27320D01*
X48431Y-27031D01*
X48404Y-27020D01*
X48404Y-25981D01*
X48393Y-25763D01*
X48331Y-25612D01*
X48235Y-25584D01*
X47920Y-25900D01*
X48235Y-26215D01*
X48331Y-26187D01*
X48404Y-25981D01*
X48404Y-27020D01*
X48165Y-26921D01*
X48165Y-26285D01*
X47850Y-25970D01*
X47779Y-26041D01*
X47779Y-25900D01*
X47464Y-25584D01*
X47368Y-25612D01*
X47351Y-25660D01*
X47331Y-25612D01*
X47235Y-25584D01*
X46920Y-25900D01*
X47235Y-26215D01*
X47331Y-26187D01*
X47348Y-26139D01*
X47368Y-26187D01*
X47464Y-26215D01*
X47779Y-25900D01*
X47779Y-26041D01*
X47534Y-26285D01*
X47562Y-26381D01*
X47768Y-26454D01*
X47986Y-26443D01*
X48137Y-26381D01*
X48165Y-26285D01*
X48165Y-26921D01*
X48054Y-26875D01*
X47647Y-26874D01*
X47270Y-27030D01*
X47165Y-27135D01*
X47165Y-26285D01*
X46850Y-25970D01*
X46779Y-26041D01*
X46779Y-25900D01*
X46464Y-25584D01*
X46368Y-25612D01*
X46295Y-25818D01*
X46306Y-26036D01*
X46368Y-26187D01*
X46464Y-26215D01*
X46779Y-25900D01*
X46779Y-26041D01*
X46534Y-26285D01*
X46562Y-26381D01*
X46768Y-26454D01*
X46986Y-26443D01*
X47137Y-26381D01*
X47165Y-26285D01*
X47165Y-27135D01*
X46981Y-27318D01*
X46825Y-27695D01*
X46824Y-28102D01*
X46980Y-28479D01*
X47268Y-28768D01*
X47645Y-28924D01*
X48052Y-28925D01*
X48429Y-28769D01*
X48718Y-28481D01*
X48874Y-28104D01*
X48875Y-27697D01*
X48875Y-35825D01*
X32000Y-35825D01*
X32000Y-32181D01*
X31871Y-31869D01*
X31632Y-31629D01*
X31319Y-31500D01*
X30981Y-31499D01*
X30669Y-31628D01*
X30429Y-31867D01*
X30300Y-32180D01*
X30299Y-32518D01*
X30428Y-32830D01*
X30667Y-33070D01*
X30980Y-33199D01*
X31318Y-33200D01*
X31630Y-33071D01*
X31870Y-32832D01*
X31999Y-32519D01*
X32000Y-32181D01*
X32000Y-35825D01*
X28770Y-35825D01*
X28770Y-34690D01*
X28643Y-34381D01*
X28530Y-34268D01*
X28530Y-32282D01*
X28530Y-31681D01*
X28529Y-31582D01*
X28491Y-31490D01*
X28421Y-31419D01*
X28329Y-31381D01*
X28042Y-31382D01*
X27980Y-31444D01*
X27980Y-31932D01*
X28467Y-31932D01*
X28530Y-31869D01*
X28530Y-31681D01*
X28530Y-32282D01*
X28530Y-32094D01*
X28467Y-32032D01*
X27980Y-32032D01*
X27980Y-32519D01*
X28042Y-32582D01*
X28329Y-32582D01*
X28421Y-32544D01*
X28491Y-32473D01*
X28529Y-32381D01*
X28530Y-32282D01*
X28530Y-34268D01*
X28406Y-34144D01*
X28097Y-34016D01*
X27880Y-34016D01*
X27880Y-32519D01*
X27880Y-32032D01*
X27880Y-31932D01*
X27880Y-31444D01*
X27817Y-31382D01*
X27530Y-31381D01*
X27438Y-31419D01*
X27368Y-31490D01*
X27330Y-31582D01*
X27329Y-31681D01*
X27330Y-31869D01*
X27392Y-31932D01*
X27880Y-31932D01*
X27880Y-32032D01*
X27392Y-32032D01*
X27330Y-32094D01*
X27329Y-32282D01*
X27330Y-32381D01*
X27368Y-32473D01*
X27438Y-32544D01*
X27530Y-32582D01*
X27817Y-32582D01*
X27880Y-32519D01*
X27880Y-34016D01*
X27763Y-34015D01*
X27454Y-34143D01*
X27217Y-34379D01*
X27089Y-34688D01*
X27089Y-35023D01*
X27217Y-35332D01*
X27453Y-35568D01*
X27762Y-35697D01*
X28096Y-35697D01*
X28405Y-35569D01*
X28642Y-35333D01*
X28770Y-35024D01*
X28770Y-34690D01*
X28770Y-35825D01*
X26876Y-35825D01*
X26876Y-32282D01*
X26876Y-31681D01*
X26875Y-31582D01*
X26837Y-31490D01*
X26767Y-31419D01*
X26675Y-31381D01*
X26388Y-31382D01*
X26326Y-31444D01*
X26326Y-31932D01*
X26813Y-31932D01*
X26876Y-31869D01*
X26876Y-31681D01*
X26876Y-32282D01*
X26876Y-32094D01*
X26813Y-32032D01*
X26326Y-32032D01*
X26326Y-32519D01*
X26388Y-32582D01*
X26675Y-32582D01*
X26767Y-32544D01*
X26837Y-32473D01*
X26875Y-32381D01*
X26876Y-32282D01*
X26876Y-35825D01*
X26226Y-35825D01*
X26226Y-32519D01*
X26226Y-32032D01*
X26226Y-31932D01*
X26226Y-31444D01*
X26163Y-31382D01*
X25876Y-31381D01*
X25784Y-31419D01*
X25714Y-31490D01*
X25676Y-31582D01*
X25675Y-31681D01*
X25676Y-31869D01*
X25738Y-31932D01*
X26226Y-31932D01*
X26226Y-32032D01*
X25738Y-32032D01*
X25676Y-32094D01*
X25675Y-32282D01*
X25676Y-32381D01*
X25714Y-32473D01*
X25784Y-32544D01*
X25876Y-32582D01*
X26163Y-32582D01*
X26226Y-32519D01*
X26226Y-35825D01*
X25224Y-35825D01*
X25224Y-32282D01*
X25224Y-31681D01*
X25223Y-31582D01*
X25185Y-31490D01*
X25115Y-31419D01*
X25023Y-31381D01*
X24736Y-31382D01*
X24674Y-31444D01*
X24674Y-31932D01*
X25161Y-31932D01*
X25224Y-31869D01*
X25224Y-31681D01*
X25224Y-32282D01*
X25224Y-32094D01*
X25161Y-32032D01*
X24674Y-32032D01*
X24674Y-32519D01*
X24736Y-32582D01*
X25023Y-32582D01*
X25115Y-32544D01*
X25185Y-32473D01*
X25223Y-32381D01*
X25224Y-32282D01*
X25224Y-35825D01*
X24574Y-35825D01*
X24574Y-32519D01*
X24574Y-32032D01*
X24574Y-31932D01*
X24574Y-31444D01*
X24511Y-31382D01*
X24224Y-31381D01*
X24132Y-31419D01*
X24062Y-31490D01*
X24024Y-31582D01*
X24023Y-31681D01*
X24024Y-31869D01*
X24086Y-31932D01*
X24574Y-31932D01*
X24574Y-32032D01*
X24086Y-32032D01*
X24024Y-32094D01*
X24023Y-32282D01*
X24024Y-32381D01*
X24062Y-32473D01*
X24132Y-32544D01*
X24224Y-32582D01*
X24511Y-32582D01*
X24574Y-32519D01*
X24574Y-35825D01*
X23810Y-35825D01*
X23810Y-34690D01*
X23683Y-34381D01*
X23570Y-34268D01*
X23570Y-32282D01*
X23570Y-31681D01*
X23569Y-31582D01*
X23531Y-31490D01*
X23461Y-31419D01*
X23369Y-31381D01*
X23082Y-31382D01*
X23020Y-31444D01*
X23020Y-31932D01*
X23507Y-31932D01*
X23570Y-31869D01*
X23570Y-31681D01*
X23570Y-32282D01*
X23570Y-32094D01*
X23507Y-32032D01*
X23020Y-32032D01*
X23020Y-32519D01*
X23082Y-32582D01*
X23369Y-32582D01*
X23461Y-32544D01*
X23531Y-32473D01*
X23569Y-32381D01*
X23570Y-32282D01*
X23570Y-34268D01*
X23446Y-34144D01*
X23137Y-34016D01*
X22920Y-34016D01*
X22920Y-32519D01*
X22920Y-32032D01*
X22920Y-31932D01*
X22920Y-31444D01*
X22857Y-31382D01*
X22570Y-31381D01*
X22478Y-31419D01*
X22408Y-31490D01*
X22370Y-31582D01*
X22369Y-31681D01*
X22370Y-31869D01*
X22432Y-31932D01*
X22920Y-31932D01*
X22920Y-32032D01*
X22432Y-32032D01*
X22370Y-32094D01*
X22369Y-32282D01*
X22370Y-32381D01*
X22408Y-32473D01*
X22478Y-32544D01*
X22570Y-32582D01*
X22857Y-32582D01*
X22920Y-32519D01*
X22920Y-34016D01*
X22803Y-34015D01*
X22494Y-34143D01*
X22257Y-34379D01*
X22129Y-34688D01*
X22129Y-35023D01*
X22257Y-35332D01*
X22493Y-35568D01*
X22802Y-35697D01*
X23136Y-35697D01*
X23445Y-35569D01*
X23682Y-35333D01*
X23810Y-35024D01*
X23810Y-34690D01*
X23810Y-35825D01*
X20575Y-35825D01*
X20575Y-30292D01*
X20415Y-29906D01*
X20120Y-29610D01*
X19734Y-29450D01*
X19317Y-29449D01*
X18931Y-29609D01*
X18635Y-29904D01*
X18475Y-30290D01*
X18474Y-30707D01*
X18634Y-31094D01*
X18929Y-31389D01*
X19315Y-31549D01*
X19732Y-31550D01*
X20119Y-31390D01*
X20414Y-31095D01*
X20574Y-30709D01*
X20575Y-30292D01*
X20575Y-35825D01*
X20192Y-35825D01*
X20192Y-34653D01*
X20079Y-34380D01*
X19870Y-34171D01*
X19750Y-34121D01*
X19750Y-33479D01*
X19869Y-33429D01*
X20078Y-33220D01*
X20191Y-32948D01*
X20192Y-32653D01*
X20079Y-32380D01*
X19870Y-32171D01*
X19598Y-32058D01*
X19303Y-32057D01*
X19030Y-32170D01*
X18821Y-32379D01*
X18708Y-32651D01*
X18707Y-32946D01*
X18796Y-33161D01*
X18594Y-33077D01*
X18306Y-33077D01*
X18103Y-33161D01*
X18191Y-32948D01*
X18192Y-32653D01*
X18079Y-32380D01*
X17870Y-32171D01*
X17598Y-32058D01*
X17303Y-32057D01*
X17030Y-32170D01*
X16821Y-32379D01*
X16708Y-32651D01*
X16707Y-32946D01*
X16820Y-33219D01*
X17029Y-33428D01*
X17150Y-33478D01*
X17150Y-34120D01*
X17030Y-34170D01*
X16821Y-34379D01*
X16708Y-34651D01*
X16707Y-34946D01*
X16820Y-35219D01*
X17029Y-35428D01*
X17301Y-35541D01*
X17596Y-35542D01*
X17869Y-35429D01*
X18078Y-35220D01*
X18128Y-35100D01*
X18770Y-35100D01*
X18820Y-35219D01*
X19029Y-35428D01*
X19301Y-35541D01*
X19596Y-35542D01*
X19869Y-35429D01*
X20078Y-35220D01*
X20191Y-34948D01*
X20192Y-34653D01*
X20192Y-35825D01*
X15718Y-35825D01*
X15718Y-22529D01*
X15718Y-21730D01*
X15718Y-20875D01*
X15718Y-20076D01*
X15718Y-19223D01*
X15718Y-18424D01*
X15718Y-17569D01*
X15718Y-16770D01*
X15718Y-15029D01*
X15718Y-14230D01*
X15718Y-13375D01*
X15718Y-13088D01*
X15655Y-13026D01*
X15168Y-13026D01*
X15168Y-13513D01*
X15230Y-13576D01*
X15418Y-13576D01*
X15517Y-13575D01*
X15609Y-13537D01*
X15680Y-13467D01*
X15718Y-13375D01*
X15718Y-14230D01*
X15680Y-14138D01*
X15609Y-14068D01*
X15517Y-14030D01*
X15418Y-14029D01*
X15230Y-14030D01*
X15168Y-14092D01*
X15168Y-14580D01*
X15655Y-14580D01*
X15718Y-14517D01*
X15718Y-14230D01*
X15718Y-15029D01*
X15718Y-14742D01*
X15655Y-14680D01*
X15168Y-14680D01*
X15168Y-15167D01*
X15230Y-15230D01*
X15418Y-15230D01*
X15517Y-15229D01*
X15609Y-15191D01*
X15680Y-15121D01*
X15718Y-15029D01*
X15718Y-16770D01*
X15680Y-16678D01*
X15609Y-16608D01*
X15517Y-16570D01*
X15418Y-16569D01*
X15230Y-16570D01*
X15168Y-16632D01*
X15168Y-17120D01*
X15655Y-17120D01*
X15718Y-17057D01*
X15718Y-16770D01*
X15718Y-17569D01*
X15718Y-17282D01*
X15655Y-17220D01*
X15168Y-17220D01*
X15168Y-17707D01*
X15230Y-17770D01*
X15418Y-17770D01*
X15517Y-17769D01*
X15609Y-17731D01*
X15680Y-17661D01*
X15718Y-17569D01*
X15718Y-18424D01*
X15680Y-18332D01*
X15609Y-18262D01*
X15517Y-18224D01*
X15418Y-18223D01*
X15230Y-18224D01*
X15168Y-18286D01*
X15168Y-18774D01*
X15655Y-18774D01*
X15718Y-18711D01*
X15718Y-18424D01*
X15718Y-19223D01*
X15718Y-18936D01*
X15655Y-18874D01*
X15168Y-18874D01*
X15168Y-19361D01*
X15230Y-19424D01*
X15418Y-19424D01*
X15517Y-19423D01*
X15609Y-19385D01*
X15680Y-19315D01*
X15718Y-19223D01*
X15718Y-20076D01*
X15680Y-19984D01*
X15609Y-19914D01*
X15517Y-19876D01*
X15418Y-19875D01*
X15230Y-19876D01*
X15168Y-19938D01*
X15168Y-20426D01*
X15655Y-20426D01*
X15718Y-20363D01*
X15718Y-20076D01*
X15718Y-20875D01*
X15718Y-20588D01*
X15655Y-20526D01*
X15168Y-20526D01*
X15168Y-21013D01*
X15230Y-21076D01*
X15418Y-21076D01*
X15517Y-21075D01*
X15609Y-21037D01*
X15680Y-20967D01*
X15718Y-20875D01*
X15718Y-21730D01*
X15680Y-21638D01*
X15609Y-21568D01*
X15517Y-21530D01*
X15418Y-21529D01*
X15230Y-21530D01*
X15168Y-21592D01*
X15168Y-22080D01*
X15655Y-22080D01*
X15718Y-22017D01*
X15718Y-21730D01*
X15718Y-22529D01*
X15718Y-22242D01*
X15655Y-22180D01*
X15168Y-22180D01*
X15168Y-22667D01*
X15230Y-22730D01*
X15418Y-22730D01*
X15517Y-22729D01*
X15609Y-22691D01*
X15680Y-22621D01*
X15718Y-22529D01*
X15718Y-35825D01*
X15254Y-35825D01*
X15254Y-34231D01*
X15254Y-27731D01*
X15250Y-27638D01*
X15250Y-26541D01*
X15166Y-26338D01*
X15068Y-26240D01*
X15068Y-22667D01*
X15068Y-22180D01*
X15068Y-22080D01*
X15068Y-21592D01*
X15068Y-21013D01*
X15068Y-20526D01*
X15068Y-20426D01*
X15068Y-19938D01*
X15068Y-19361D01*
X15068Y-18874D01*
X15068Y-18774D01*
X15068Y-18286D01*
X15005Y-18224D01*
X14817Y-18223D01*
X14718Y-18224D01*
X14626Y-18262D01*
X14555Y-18332D01*
X14517Y-18424D01*
X14518Y-18711D01*
X14580Y-18774D01*
X15068Y-18774D01*
X15068Y-18874D01*
X14580Y-18874D01*
X14518Y-18936D01*
X14517Y-19223D01*
X14555Y-19315D01*
X14626Y-19385D01*
X14718Y-19423D01*
X14817Y-19424D01*
X15005Y-19424D01*
X15068Y-19361D01*
X15068Y-19938D01*
X15005Y-19876D01*
X14817Y-19875D01*
X14718Y-19876D01*
X14626Y-19914D01*
X14555Y-19984D01*
X14517Y-20076D01*
X14518Y-20363D01*
X14580Y-20426D01*
X15068Y-20426D01*
X15068Y-20526D01*
X14580Y-20526D01*
X14518Y-20588D01*
X14517Y-20875D01*
X14555Y-20967D01*
X14626Y-21037D01*
X14718Y-21075D01*
X14817Y-21076D01*
X15005Y-21076D01*
X15068Y-21013D01*
X15068Y-21592D01*
X15005Y-21530D01*
X14817Y-21529D01*
X14718Y-21530D01*
X14626Y-21568D01*
X14555Y-21638D01*
X14517Y-21730D01*
X14518Y-22017D01*
X14580Y-22080D01*
X15068Y-22080D01*
X15068Y-22180D01*
X14580Y-22180D01*
X14518Y-22242D01*
X14517Y-22529D01*
X14555Y-22621D01*
X14626Y-22691D01*
X14718Y-22729D01*
X14817Y-22730D01*
X15005Y-22730D01*
X15068Y-22667D01*
X15068Y-26240D01*
X15011Y-26184D01*
X14809Y-26100D01*
X14591Y-26099D01*
X14388Y-26183D01*
X14234Y-26338D01*
X14150Y-26540D01*
X14149Y-26758D01*
X14233Y-26961D01*
X14388Y-27115D01*
X14463Y-27147D01*
X14412Y-27168D01*
X14384Y-27264D01*
X14700Y-27579D01*
X15015Y-27264D01*
X14987Y-27168D01*
X14932Y-27149D01*
X15011Y-27116D01*
X15165Y-26961D01*
X15249Y-26759D01*
X15250Y-26541D01*
X15250Y-27638D01*
X15243Y-27513D01*
X15181Y-27362D01*
X15085Y-27334D01*
X14770Y-27650D01*
X15085Y-27965D01*
X15181Y-27937D01*
X15254Y-27731D01*
X15254Y-34231D01*
X15250Y-34138D01*
X15250Y-33041D01*
X15166Y-32838D01*
X15015Y-32687D01*
X15015Y-28035D01*
X14700Y-27720D01*
X14629Y-27791D01*
X14629Y-27650D01*
X14314Y-27334D01*
X14218Y-27362D01*
X14145Y-27568D01*
X14156Y-27786D01*
X14218Y-27937D01*
X14314Y-27965D01*
X14629Y-27650D01*
X14629Y-27791D01*
X14384Y-28035D01*
X14412Y-28131D01*
X14618Y-28204D01*
X14836Y-28193D01*
X14987Y-28131D01*
X15015Y-28035D01*
X15015Y-32687D01*
X15011Y-32684D01*
X14809Y-32600D01*
X14591Y-32599D01*
X14388Y-32683D01*
X14234Y-32838D01*
X14150Y-33040D01*
X14149Y-33258D01*
X14233Y-33461D01*
X14388Y-33615D01*
X14463Y-33647D01*
X14412Y-33668D01*
X14384Y-33764D01*
X14700Y-34079D01*
X15015Y-33764D01*
X14987Y-33668D01*
X14932Y-33649D01*
X15011Y-33616D01*
X15165Y-33461D01*
X15249Y-33259D01*
X15250Y-33041D01*
X15250Y-34138D01*
X15243Y-34013D01*
X15181Y-33862D01*
X15085Y-33834D01*
X14770Y-34150D01*
X15085Y-34465D01*
X15181Y-34437D01*
X15254Y-34231D01*
X15254Y-35825D01*
X15015Y-35825D01*
X15015Y-34535D01*
X14700Y-34220D01*
X14629Y-34291D01*
X14629Y-34150D01*
X14314Y-33834D01*
X14218Y-33862D01*
X14145Y-34068D01*
X14156Y-34286D01*
X14218Y-34437D01*
X14314Y-34465D01*
X14629Y-34150D01*
X14629Y-34291D01*
X14384Y-34535D01*
X14412Y-34631D01*
X14618Y-34704D01*
X14836Y-34693D01*
X14987Y-34631D01*
X15015Y-34535D01*
X15015Y-35825D01*
X13352Y-35825D01*
X13495Y-35682D01*
X13638Y-35337D01*
X13639Y-34964D01*
X13639Y-30964D01*
X13639Y-28464D01*
X13639Y-24464D01*
X13496Y-24118D01*
X13232Y-23854D01*
X13084Y-23792D01*
X13084Y-21963D01*
X13084Y-17003D01*
X13084Y-14463D01*
X13084Y-9503D01*
X12956Y-9194D01*
X12720Y-8957D01*
X12411Y-8829D01*
X12076Y-8829D01*
X11767Y-8957D01*
X11531Y-9193D01*
X11402Y-9502D01*
X11402Y-9836D01*
X11530Y-10145D01*
X11766Y-10382D01*
X12075Y-10510D01*
X12409Y-10510D01*
X12718Y-10383D01*
X12955Y-10146D01*
X13083Y-9837D01*
X13084Y-9503D01*
X13084Y-14463D01*
X12956Y-14154D01*
X12720Y-13917D01*
X12411Y-13789D01*
X12076Y-13789D01*
X11767Y-13917D01*
X11531Y-14153D01*
X11402Y-14462D01*
X11402Y-14796D01*
X11530Y-15105D01*
X11766Y-15342D01*
X12075Y-15470D01*
X12409Y-15470D01*
X12718Y-15343D01*
X12955Y-15106D01*
X13083Y-14797D01*
X13084Y-14463D01*
X13084Y-17003D01*
X12956Y-16694D01*
X12720Y-16457D01*
X12411Y-16329D01*
X12076Y-16329D01*
X11767Y-16457D01*
X11531Y-16693D01*
X11402Y-17002D01*
X11402Y-17336D01*
X11530Y-17645D01*
X11766Y-17882D01*
X12075Y-18010D01*
X12409Y-18010D01*
X12718Y-17883D01*
X12955Y-17646D01*
X13083Y-17337D01*
X13084Y-17003D01*
X13084Y-21963D01*
X12956Y-21654D01*
X12720Y-21417D01*
X12411Y-21289D01*
X12076Y-21289D01*
X11767Y-21417D01*
X11531Y-21653D01*
X11402Y-21962D01*
X11402Y-22296D01*
X11530Y-22605D01*
X11766Y-22842D01*
X12075Y-22970D01*
X12409Y-22970D01*
X12718Y-22843D01*
X12955Y-22606D01*
X13083Y-22297D01*
X13084Y-21963D01*
X13084Y-23792D01*
X12887Y-23711D01*
X12514Y-23710D01*
X12168Y-23853D01*
X11904Y-24117D01*
X11761Y-24462D01*
X11760Y-24835D01*
X11903Y-25181D01*
X12167Y-25445D01*
X12512Y-25588D01*
X12885Y-25589D01*
X13231Y-25446D01*
X13495Y-25182D01*
X13638Y-24837D01*
X13639Y-24464D01*
X13639Y-28464D01*
X13496Y-28118D01*
X13232Y-27854D01*
X12887Y-27711D01*
X12514Y-27710D01*
X12168Y-27853D01*
X11904Y-28117D01*
X11761Y-28462D01*
X11760Y-28835D01*
X11903Y-29181D01*
X12167Y-29445D01*
X12512Y-29588D01*
X12885Y-29589D01*
X13231Y-29446D01*
X13495Y-29182D01*
X13638Y-28837D01*
X13639Y-28464D01*
X13639Y-30964D01*
X13496Y-30618D01*
X13232Y-30354D01*
X12887Y-30211D01*
X12514Y-30210D01*
X12168Y-30353D01*
X11904Y-30617D01*
X11761Y-30962D01*
X11760Y-31335D01*
X11903Y-31681D01*
X12167Y-31945D01*
X12512Y-32088D01*
X12885Y-32089D01*
X13231Y-31946D01*
X13495Y-31682D01*
X13638Y-31337D01*
X13639Y-30964D01*
X13639Y-34964D01*
X13496Y-34618D01*
X13232Y-34354D01*
X12887Y-34211D01*
X12514Y-34210D01*
X12168Y-34353D01*
X11904Y-34617D01*
X11761Y-34962D01*
X11760Y-35335D01*
X11903Y-35681D01*
X12047Y-35825D01*
X10025Y-35825D01*
X10025Y-8225D01*
X18967Y-8225D01*
X18861Y-8296D01*
X18741Y-8474D01*
X18700Y-8685D01*
X18700Y-9114D01*
X18727Y-9252D01*
X18661Y-9208D01*
X18470Y-9169D01*
X18469Y-9170D01*
X17948Y-9170D01*
X17928Y-9122D01*
X17830Y-9023D01*
X17701Y-8970D01*
X17562Y-8969D01*
X16862Y-8969D01*
X16734Y-9023D01*
X16635Y-9121D01*
X16582Y-9250D01*
X16581Y-9389D01*
X16581Y-10089D01*
X16635Y-10218D01*
X16733Y-10316D01*
X16862Y-10369D01*
X17001Y-10370D01*
X17701Y-10370D01*
X17830Y-10316D01*
X17928Y-10218D01*
X17948Y-10170D01*
X18262Y-10170D01*
X18346Y-10253D01*
X18346Y-10253D01*
X18508Y-10361D01*
X18700Y-10400D01*
X19074Y-10400D01*
X18931Y-10459D01*
X18635Y-10754D01*
X18475Y-11140D01*
X18474Y-11557D01*
X18634Y-11944D01*
X18929Y-12239D01*
X19315Y-12399D01*
X19732Y-12400D01*
X20119Y-12240D01*
X20414Y-11945D01*
X20574Y-11559D01*
X20575Y-11142D01*
X20415Y-10756D01*
X20120Y-10460D01*
X19975Y-10400D01*
X40514Y-10400D01*
X41832Y-11717D01*
X41787Y-11717D01*
X41087Y-11717D01*
X40995Y-11755D01*
X40925Y-11826D01*
X40887Y-11918D01*
X40886Y-12017D01*
X40886Y-12717D01*
X40924Y-12809D01*
X40995Y-12879D01*
X41012Y-12887D01*
X41008Y-12888D01*
X40846Y-12996D01*
X40846Y-12996D01*
X40433Y-13409D01*
X40433Y-12618D01*
X40433Y-11918D01*
X40395Y-11826D01*
X40324Y-11756D01*
X40232Y-11718D01*
X40133Y-11717D01*
X39433Y-11717D01*
X39341Y-11755D01*
X39271Y-11826D01*
X39233Y-11918D01*
X39232Y-12017D01*
X39232Y-12717D01*
X39270Y-12809D01*
X39341Y-12879D01*
X39433Y-12917D01*
X39532Y-12918D01*
X40232Y-12918D01*
X40324Y-12880D01*
X40394Y-12809D01*
X40432Y-12717D01*
X40433Y-12618D01*
X40433Y-13409D01*
X40296Y-13546D01*
X40188Y-13708D01*
X40153Y-13881D01*
X40133Y-13881D01*
X39433Y-13881D01*
X39341Y-13919D01*
X39271Y-13990D01*
X39233Y-14082D01*
X39232Y-14181D01*
X39232Y-14881D01*
X39270Y-14973D01*
X39341Y-15043D01*
X39433Y-15081D01*
X39532Y-15082D01*
X40150Y-15082D01*
X40150Y-22242D01*
X38780Y-23612D01*
X38780Y-14782D01*
X38780Y-14181D01*
X38780Y-12618D01*
X38780Y-12017D01*
X38779Y-11918D01*
X38741Y-11826D01*
X38671Y-11755D01*
X38579Y-11717D01*
X38292Y-11718D01*
X38230Y-11780D01*
X38230Y-12268D01*
X38717Y-12268D01*
X38780Y-12205D01*
X38780Y-12017D01*
X38780Y-12618D01*
X38780Y-12430D01*
X38717Y-12368D01*
X38230Y-12368D01*
X38230Y-12855D01*
X38292Y-12918D01*
X38579Y-12918D01*
X38671Y-12880D01*
X38741Y-12809D01*
X38779Y-12717D01*
X38780Y-12618D01*
X38780Y-14181D01*
X38779Y-14082D01*
X38741Y-13990D01*
X38671Y-13919D01*
X38579Y-13881D01*
X38292Y-13882D01*
X38230Y-13944D01*
X38230Y-14432D01*
X38717Y-14432D01*
X38780Y-14369D01*
X38780Y-14181D01*
X38780Y-14782D01*
X38780Y-14594D01*
X38717Y-14532D01*
X38230Y-14532D01*
X38230Y-15019D01*
X38292Y-15082D01*
X38579Y-15082D01*
X38671Y-15044D01*
X38741Y-14973D01*
X38779Y-14881D01*
X38780Y-14782D01*
X38780Y-23612D01*
X38130Y-24262D01*
X38130Y-15019D01*
X38130Y-14532D01*
X38130Y-14432D01*
X38130Y-13944D01*
X38130Y-12855D01*
X38130Y-12368D01*
X38130Y-12268D01*
X38130Y-11780D01*
X38067Y-11718D01*
X37780Y-11717D01*
X37688Y-11755D01*
X37618Y-11826D01*
X37580Y-11918D01*
X37579Y-12017D01*
X37580Y-12205D01*
X37642Y-12268D01*
X38130Y-12268D01*
X38130Y-12368D01*
X37642Y-12368D01*
X37580Y-12430D01*
X37579Y-12618D01*
X37580Y-12717D01*
X37618Y-12809D01*
X37688Y-12880D01*
X37780Y-12918D01*
X38067Y-12918D01*
X38130Y-12855D01*
X38130Y-13944D01*
X38067Y-13882D01*
X37780Y-13881D01*
X37688Y-13919D01*
X37618Y-13990D01*
X37580Y-14082D01*
X37579Y-14181D01*
X37580Y-14369D01*
X37642Y-14432D01*
X38130Y-14432D01*
X38130Y-14532D01*
X37642Y-14532D01*
X37580Y-14594D01*
X37579Y-14782D01*
X37580Y-14881D01*
X37618Y-14973D01*
X37688Y-15044D01*
X37780Y-15082D01*
X38067Y-15082D01*
X38130Y-15019D01*
X38130Y-24262D01*
X37226Y-25166D01*
X37226Y-12598D01*
X37226Y-11898D01*
X37172Y-11770D01*
X37074Y-11671D01*
X36945Y-11618D01*
X36806Y-11617D01*
X36106Y-11617D01*
X35978Y-11671D01*
X35879Y-11769D01*
X35826Y-11898D01*
X35825Y-12037D01*
X35825Y-12737D01*
X35879Y-12866D01*
X35977Y-12964D01*
X36106Y-13017D01*
X36245Y-13018D01*
X36945Y-13018D01*
X37074Y-12964D01*
X37172Y-12866D01*
X37225Y-12737D01*
X37226Y-12598D01*
X37226Y-25166D01*
X37126Y-25266D01*
X37126Y-14782D01*
X37126Y-14181D01*
X37125Y-14082D01*
X37087Y-13990D01*
X37017Y-13919D01*
X36925Y-13881D01*
X36638Y-13882D01*
X36576Y-13944D01*
X36576Y-14432D01*
X37063Y-14432D01*
X37126Y-14369D01*
X37126Y-14181D01*
X37126Y-14782D01*
X37126Y-14594D01*
X37063Y-14532D01*
X36576Y-14532D01*
X36576Y-15019D01*
X36638Y-15082D01*
X36925Y-15082D01*
X37017Y-15044D01*
X37087Y-14973D01*
X37125Y-14881D01*
X37126Y-14782D01*
X37126Y-25266D01*
X37113Y-25279D01*
X37053Y-25304D01*
X36907Y-25450D01*
X36476Y-25018D01*
X36476Y-15019D01*
X36476Y-14532D01*
X36476Y-14432D01*
X36476Y-13944D01*
X36413Y-13882D01*
X36126Y-13881D01*
X36034Y-13919D01*
X35964Y-13990D01*
X35926Y-14082D01*
X35925Y-14181D01*
X35926Y-14369D01*
X35988Y-14432D01*
X36476Y-14432D01*
X36476Y-14532D01*
X35988Y-14532D01*
X35926Y-14594D01*
X35925Y-14782D01*
X35926Y-14881D01*
X35964Y-14973D01*
X36034Y-15044D01*
X36126Y-15082D01*
X36413Y-15082D01*
X36476Y-15019D01*
X36476Y-25018D01*
X35450Y-23992D01*
X35450Y-23769D01*
X35500Y-23718D01*
X35599Y-23479D01*
X35600Y-23221D01*
X35501Y-22982D01*
X35474Y-22954D01*
X35474Y-14782D01*
X35474Y-14181D01*
X35474Y-12618D01*
X35474Y-12017D01*
X35473Y-11918D01*
X35435Y-11826D01*
X35365Y-11755D01*
X35273Y-11717D01*
X34986Y-11718D01*
X34924Y-11780D01*
X34924Y-12268D01*
X35411Y-12268D01*
X35474Y-12205D01*
X35474Y-12017D01*
X35474Y-12618D01*
X35474Y-12430D01*
X35411Y-12368D01*
X34924Y-12368D01*
X34924Y-12855D01*
X34986Y-12918D01*
X35273Y-12918D01*
X35365Y-12880D01*
X35435Y-12809D01*
X35473Y-12717D01*
X35474Y-12618D01*
X35474Y-14181D01*
X35473Y-14082D01*
X35435Y-13990D01*
X35365Y-13919D01*
X35273Y-13881D01*
X34986Y-13882D01*
X34924Y-13944D01*
X34924Y-14432D01*
X35411Y-14432D01*
X35474Y-14369D01*
X35474Y-14181D01*
X35474Y-14782D01*
X35474Y-14594D01*
X35411Y-14532D01*
X34924Y-14532D01*
X34924Y-15019D01*
X34986Y-15082D01*
X35273Y-15082D01*
X35365Y-15044D01*
X35435Y-14973D01*
X35473Y-14881D01*
X35474Y-14782D01*
X35474Y-22954D01*
X35450Y-22930D01*
X35450Y-22000D01*
X35411Y-21808D01*
X35303Y-21646D01*
X35303Y-21646D01*
X34824Y-21166D01*
X34824Y-15019D01*
X34824Y-14532D01*
X34824Y-14432D01*
X34824Y-13944D01*
X34824Y-12855D01*
X34824Y-12368D01*
X34824Y-12268D01*
X34824Y-11780D01*
X34761Y-11718D01*
X34474Y-11717D01*
X34382Y-11755D01*
X34312Y-11826D01*
X34274Y-11918D01*
X34273Y-12017D01*
X34274Y-12205D01*
X34336Y-12268D01*
X34824Y-12268D01*
X34824Y-12368D01*
X34336Y-12368D01*
X34274Y-12430D01*
X34273Y-12618D01*
X34274Y-12717D01*
X34312Y-12809D01*
X34382Y-12880D01*
X34474Y-12918D01*
X34761Y-12918D01*
X34824Y-12855D01*
X34824Y-13944D01*
X34761Y-13882D01*
X34474Y-13881D01*
X34382Y-13919D01*
X34312Y-13990D01*
X34274Y-14082D01*
X34273Y-14181D01*
X34274Y-14369D01*
X34336Y-14432D01*
X34824Y-14432D01*
X34824Y-14532D01*
X34336Y-14532D01*
X34274Y-14594D01*
X34273Y-14782D01*
X34274Y-14881D01*
X34312Y-14973D01*
X34382Y-15044D01*
X34474Y-15082D01*
X34761Y-15082D01*
X34824Y-15019D01*
X34824Y-21166D01*
X33920Y-20262D01*
X33920Y-12598D01*
X33920Y-11898D01*
X33866Y-11770D01*
X33768Y-11671D01*
X33639Y-11618D01*
X33500Y-11617D01*
X32800Y-11617D01*
X32672Y-11671D01*
X32573Y-11769D01*
X32520Y-11898D01*
X32519Y-12037D01*
X32519Y-12737D01*
X32573Y-12866D01*
X32671Y-12964D01*
X32800Y-13017D01*
X32939Y-13018D01*
X33639Y-13018D01*
X33768Y-12964D01*
X33866Y-12866D01*
X33919Y-12737D01*
X33920Y-12598D01*
X33920Y-20262D01*
X32900Y-19242D01*
X32900Y-15082D01*
X32919Y-15082D01*
X33619Y-15082D01*
X33711Y-15044D01*
X33781Y-14973D01*
X33819Y-14881D01*
X33820Y-14782D01*
X33820Y-14082D01*
X33782Y-13990D01*
X33711Y-13920D01*
X33619Y-13882D01*
X33520Y-13881D01*
X32900Y-13881D01*
X32900Y-13800D01*
X32861Y-13608D01*
X32753Y-13446D01*
X32303Y-12996D01*
X32141Y-12888D01*
X32065Y-12872D01*
X32128Y-12809D01*
X32166Y-12717D01*
X32167Y-12618D01*
X32167Y-12017D01*
X32166Y-11918D01*
X32128Y-11826D01*
X32058Y-11755D01*
X31966Y-11717D01*
X31679Y-11718D01*
X31617Y-11780D01*
X31617Y-12268D01*
X32104Y-12268D01*
X32167Y-12205D01*
X32167Y-12017D01*
X32167Y-12618D01*
X32167Y-12430D01*
X32104Y-12368D01*
X31617Y-12368D01*
X31617Y-12375D01*
X31517Y-12375D01*
X31517Y-12368D01*
X31517Y-12268D01*
X31517Y-11780D01*
X31454Y-11718D01*
X31167Y-11717D01*
X31075Y-11755D01*
X31005Y-11826D01*
X30967Y-11918D01*
X30966Y-12017D01*
X30967Y-12205D01*
X31029Y-12268D01*
X31517Y-12268D01*
X31517Y-12368D01*
X31029Y-12368D01*
X30967Y-12430D01*
X30966Y-12618D01*
X30967Y-12717D01*
X31005Y-12809D01*
X31045Y-12850D01*
X30882Y-12850D01*
X30613Y-12580D01*
X30613Y-11898D01*
X30559Y-11770D01*
X30461Y-11671D01*
X30332Y-11618D01*
X30193Y-11617D01*
X29493Y-11617D01*
X29365Y-11671D01*
X29266Y-11769D01*
X29246Y-11818D01*
X28926Y-11818D01*
X28906Y-11770D01*
X28808Y-11671D01*
X28679Y-11618D01*
X28540Y-11617D01*
X28240Y-11617D01*
X28158Y-11563D01*
X27967Y-11524D01*
X27966Y-11525D01*
X21750Y-11525D01*
X21558Y-11563D01*
X21396Y-11671D01*
X21396Y-11671D01*
X20591Y-12476D01*
X17982Y-12476D01*
X17982Y-11604D01*
X17982Y-10904D01*
X17928Y-10776D01*
X17830Y-10677D01*
X17701Y-10624D01*
X17562Y-10623D01*
X16862Y-10623D01*
X16734Y-10677D01*
X16635Y-10775D01*
X16600Y-10858D01*
X16584Y-10862D01*
X16422Y-10970D01*
X16422Y-10970D01*
X15742Y-11650D01*
X15718Y-11650D01*
X15718Y-10924D01*
X15718Y-10069D01*
X15718Y-9270D01*
X15680Y-9178D01*
X15609Y-9108D01*
X15517Y-9070D01*
X15418Y-9069D01*
X15230Y-9070D01*
X15168Y-9132D01*
X15168Y-9620D01*
X15655Y-9620D01*
X15718Y-9557D01*
X15718Y-9270D01*
X15718Y-10069D01*
X15718Y-9782D01*
X15655Y-9720D01*
X15168Y-9720D01*
X15168Y-10207D01*
X15230Y-10270D01*
X15418Y-10270D01*
X15517Y-10269D01*
X15609Y-10231D01*
X15680Y-10161D01*
X15718Y-10069D01*
X15718Y-10924D01*
X15680Y-10832D01*
X15609Y-10762D01*
X15517Y-10724D01*
X15418Y-10723D01*
X15230Y-10724D01*
X15168Y-10786D01*
X15168Y-11274D01*
X15655Y-11274D01*
X15718Y-11211D01*
X15718Y-10924D01*
X15718Y-11650D01*
X15718Y-11650D01*
X15718Y-11436D01*
X15655Y-11374D01*
X15168Y-11374D01*
X15168Y-11381D01*
X15068Y-11381D01*
X15068Y-11374D01*
X15068Y-11274D01*
X15068Y-10786D01*
X15068Y-10207D01*
X15068Y-9720D01*
X15068Y-9620D01*
X15068Y-9132D01*
X15005Y-9070D01*
X14817Y-9069D01*
X14718Y-9070D01*
X14626Y-9108D01*
X14555Y-9178D01*
X14517Y-9270D01*
X14518Y-9557D01*
X14580Y-9620D01*
X15068Y-9620D01*
X15068Y-9720D01*
X14580Y-9720D01*
X14518Y-9782D01*
X14517Y-10069D01*
X14555Y-10161D01*
X14626Y-10231D01*
X14718Y-10269D01*
X14817Y-10270D01*
X15005Y-10270D01*
X15068Y-10207D01*
X15068Y-10786D01*
X15005Y-10724D01*
X14817Y-10723D01*
X14718Y-10724D01*
X14626Y-10762D01*
X14555Y-10832D01*
X14517Y-10924D01*
X14518Y-11211D01*
X14580Y-11274D01*
X15068Y-11274D01*
X15068Y-11374D01*
X14580Y-11374D01*
X14518Y-11436D01*
X14517Y-11650D01*
X14450Y-11650D01*
X14449Y-11650D01*
X14411Y-11657D01*
X14258Y-11688D01*
X14096Y-11796D01*
X14096Y-11796D01*
X13746Y-12146D01*
X13638Y-12308D01*
X13599Y-12500D01*
X13600Y-12500D01*
X13600Y-16985D01*
X13575Y-17045D01*
X13574Y-17253D01*
X13654Y-17447D01*
X13802Y-17594D01*
X13995Y-17674D01*
X14203Y-17675D01*
X14397Y-17595D01*
X14517Y-17474D01*
X14517Y-17569D01*
X14555Y-17661D01*
X14626Y-17731D01*
X14718Y-17769D01*
X14817Y-17770D01*
X15005Y-17770D01*
X15068Y-17707D01*
X15068Y-17220D01*
X15060Y-17220D01*
X15060Y-17120D01*
X15068Y-17120D01*
X15068Y-16632D01*
X15005Y-16570D01*
X14817Y-16569D01*
X14718Y-16570D01*
X14626Y-16608D01*
X14600Y-16634D01*
X14600Y-15165D01*
X14626Y-15191D01*
X14718Y-15229D01*
X14817Y-15230D01*
X15005Y-15230D01*
X15068Y-15167D01*
X15068Y-14680D01*
X15060Y-14680D01*
X15060Y-14580D01*
X15068Y-14580D01*
X15068Y-14092D01*
X15005Y-14030D01*
X14817Y-14029D01*
X14718Y-14030D01*
X14626Y-14068D01*
X14600Y-14094D01*
X14600Y-13511D01*
X14626Y-13537D01*
X14718Y-13575D01*
X14817Y-13576D01*
X15005Y-13576D01*
X15068Y-13513D01*
X15068Y-13026D01*
X15060Y-13026D01*
X15060Y-12926D01*
X15068Y-12926D01*
X15068Y-12918D01*
X15168Y-12918D01*
X15168Y-12926D01*
X15655Y-12926D01*
X15718Y-12863D01*
X15718Y-12650D01*
X15949Y-12650D01*
X15950Y-12650D01*
X15950Y-12650D01*
X16141Y-12611D01*
X16303Y-12503D01*
X16806Y-12000D01*
X16862Y-12023D01*
X17001Y-12024D01*
X17701Y-12024D01*
X17830Y-11970D01*
X17928Y-11872D01*
X17981Y-11743D01*
X17982Y-11604D01*
X17982Y-12476D01*
X17948Y-12476D01*
X17928Y-12428D01*
X17830Y-12329D01*
X17701Y-12276D01*
X17562Y-12275D01*
X16862Y-12275D01*
X16734Y-12329D01*
X16635Y-12427D01*
X16582Y-12556D01*
X16581Y-12695D01*
X16581Y-12960D01*
X16096Y-13446D01*
X15988Y-13608D01*
X15949Y-13800D01*
X15950Y-13800D01*
X15950Y-19643D01*
X15949Y-19644D01*
X15988Y-19835D01*
X16096Y-19997D01*
X16581Y-20483D01*
X16581Y-20895D01*
X16635Y-21024D01*
X16733Y-21122D01*
X16862Y-21175D01*
X17001Y-21176D01*
X17528Y-21176D01*
X17274Y-21429D01*
X16862Y-21429D01*
X16734Y-21483D01*
X16635Y-21581D01*
X16582Y-21710D01*
X16581Y-21849D01*
X16581Y-22549D01*
X16635Y-22678D01*
X16733Y-22776D01*
X16862Y-22829D01*
X17001Y-22830D01*
X17701Y-22830D01*
X17830Y-22776D01*
X17928Y-22678D01*
X17981Y-22549D01*
X17982Y-22410D01*
X17982Y-22137D01*
X18553Y-21565D01*
X18661Y-21403D01*
X18700Y-21212D01*
X18700Y-21212D01*
X18700Y-21211D01*
X18700Y-16000D01*
X18700Y-16000D01*
X18700Y-16000D01*
X18661Y-15808D01*
X18553Y-15646D01*
X18037Y-15130D01*
X20444Y-15130D01*
X20445Y-15130D01*
X20445Y-15130D01*
X20636Y-15091D01*
X20798Y-14983D01*
X22532Y-13250D01*
X22675Y-13250D01*
X20187Y-15737D01*
X20122Y-15835D01*
X20100Y-15950D01*
X20100Y-20048D01*
X20039Y-20108D01*
X19975Y-20265D01*
X19974Y-20434D01*
X20039Y-20590D01*
X20158Y-20710D01*
X20315Y-20774D01*
X20484Y-20775D01*
X20500Y-20768D01*
X20500Y-22224D01*
X20415Y-22224D01*
X20259Y-22289D01*
X20139Y-22408D01*
X20075Y-22565D01*
X20074Y-22734D01*
X20139Y-22890D01*
X20258Y-23010D01*
X20415Y-23074D01*
X20584Y-23075D01*
X20740Y-23010D01*
X20800Y-22951D01*
X20800Y-23925D01*
X20500Y-24225D01*
X20415Y-24224D01*
X20259Y-24289D01*
X20139Y-24408D01*
X20075Y-24565D01*
X20074Y-24734D01*
X20139Y-24890D01*
X20258Y-25010D01*
X20415Y-25074D01*
X20584Y-25075D01*
X20740Y-25010D01*
X20860Y-24891D01*
X20924Y-24734D01*
X20925Y-24649D01*
X21312Y-24262D01*
X21312Y-24262D01*
X21377Y-24164D01*
X21399Y-24050D01*
X21400Y-24050D01*
X21400Y-16474D01*
X23324Y-14550D01*
X25000Y-14550D01*
X25000Y-14549D01*
X25114Y-14527D01*
X25114Y-14527D01*
X25212Y-14462D01*
X25591Y-14082D01*
X25568Y-14138D01*
X25568Y-14472D01*
X25696Y-14781D01*
X25932Y-15018D01*
X26241Y-15146D01*
X26575Y-15146D01*
X26884Y-15018D01*
X27121Y-14782D01*
X27249Y-14473D01*
X27249Y-14139D01*
X27121Y-13830D01*
X26941Y-13650D01*
X28492Y-13650D01*
X28624Y-13782D01*
X28540Y-13781D01*
X27840Y-13781D01*
X27712Y-13835D01*
X27613Y-13933D01*
X27560Y-14062D01*
X27559Y-14201D01*
X27559Y-14901D01*
X27613Y-15030D01*
X27711Y-15128D01*
X27840Y-15181D01*
X27979Y-15182D01*
X28679Y-15182D01*
X28808Y-15128D01*
X28906Y-15030D01*
X28959Y-14901D01*
X28960Y-14762D01*
X28960Y-14117D01*
X29212Y-14370D01*
X29212Y-14901D01*
X29266Y-15030D01*
X29364Y-15128D01*
X29493Y-15181D01*
X29632Y-15182D01*
X29774Y-15182D01*
X31200Y-16607D01*
X31200Y-22342D01*
X28581Y-24961D01*
X28560Y-24909D01*
X28441Y-24789D01*
X28284Y-24725D01*
X28199Y-24724D01*
X28000Y-24525D01*
X28000Y-22877D01*
X28115Y-22924D01*
X28284Y-22925D01*
X28440Y-22860D01*
X28560Y-22741D01*
X28624Y-22584D01*
X28625Y-22415D01*
X28560Y-22259D01*
X28500Y-22198D01*
X28500Y-21124D01*
X28899Y-20724D01*
X28984Y-20725D01*
X29140Y-20660D01*
X29260Y-20541D01*
X29324Y-20384D01*
X29325Y-20215D01*
X29260Y-20059D01*
X29141Y-19939D01*
X28984Y-19875D01*
X28815Y-19874D01*
X28659Y-19939D01*
X28539Y-20058D01*
X28475Y-20215D01*
X28474Y-20300D01*
X27987Y-20787D01*
X27922Y-20885D01*
X27900Y-21000D01*
X27900Y-21272D01*
X27784Y-21225D01*
X27615Y-21224D01*
X27459Y-21289D01*
X27339Y-21408D01*
X27300Y-21505D01*
X27300Y-21000D01*
X27299Y-20999D01*
X27277Y-20885D01*
X27212Y-20787D01*
X27212Y-20787D01*
X25875Y-19450D01*
X25875Y-17015D01*
X25810Y-16859D01*
X25691Y-16739D01*
X25534Y-16675D01*
X25365Y-16674D01*
X25209Y-16739D01*
X25148Y-16800D01*
X24901Y-16800D01*
X24891Y-16789D01*
X24734Y-16725D01*
X24565Y-16724D01*
X24409Y-16789D01*
X24289Y-16908D01*
X24225Y-17065D01*
X24224Y-17234D01*
X24289Y-17390D01*
X24408Y-17510D01*
X24565Y-17574D01*
X24734Y-17575D01*
X24890Y-17510D01*
X25001Y-17400D01*
X25148Y-17400D01*
X25208Y-17460D01*
X25365Y-17524D01*
X25534Y-17525D01*
X25690Y-17460D01*
X25810Y-17341D01*
X25874Y-17184D01*
X25875Y-17015D01*
X25875Y-19450D01*
X25824Y-19400D01*
X25825Y-19315D01*
X25760Y-19159D01*
X25641Y-19039D01*
X25484Y-18975D01*
X25315Y-18974D01*
X25159Y-19039D01*
X25039Y-19158D01*
X24975Y-19315D01*
X24974Y-19484D01*
X25039Y-19640D01*
X25158Y-19760D01*
X25315Y-19824D01*
X25400Y-19825D01*
X26700Y-21124D01*
X26700Y-25500D01*
X26700Y-25650D01*
X26706Y-25682D01*
X26450Y-25425D01*
X26450Y-23500D01*
X26449Y-23499D01*
X26427Y-23385D01*
X26362Y-23287D01*
X26362Y-23287D01*
X26224Y-23150D01*
X26225Y-23065D01*
X26160Y-22909D01*
X26041Y-22789D01*
X25884Y-22725D01*
X25715Y-22724D01*
X25559Y-22789D01*
X25439Y-22908D01*
X25375Y-23065D01*
X25374Y-23234D01*
X25439Y-23390D01*
X25449Y-23400D01*
X24701Y-23400D01*
X24641Y-23339D01*
X24484Y-23275D01*
X24315Y-23274D01*
X24159Y-23339D01*
X24039Y-23458D01*
X23975Y-23615D01*
X23974Y-23784D01*
X24039Y-23940D01*
X24158Y-24060D01*
X24315Y-24124D01*
X24484Y-24125D01*
X24640Y-24060D01*
X24701Y-24000D01*
X25448Y-24000D01*
X25439Y-24008D01*
X25375Y-24165D01*
X25374Y-24250D01*
X23587Y-26037D01*
X23522Y-26135D01*
X23512Y-26186D01*
X23439Y-26258D01*
X23375Y-26415D01*
X23374Y-26584D01*
X23439Y-26740D01*
X23558Y-26860D01*
X23715Y-26924D01*
X23884Y-26925D01*
X24040Y-26860D01*
X24160Y-26741D01*
X24224Y-26584D01*
X24225Y-26415D01*
X24176Y-26297D01*
X25799Y-24674D01*
X25850Y-24675D01*
X25850Y-25550D01*
X25872Y-25664D01*
X25937Y-25762D01*
X26425Y-26249D01*
X26424Y-26334D01*
X26489Y-26490D01*
X26608Y-26610D01*
X26765Y-26674D01*
X26934Y-26675D01*
X27090Y-26610D01*
X27210Y-26491D01*
X27220Y-26465D01*
X27365Y-26524D01*
X27534Y-26525D01*
X27690Y-26460D01*
X27810Y-26341D01*
X27874Y-26184D01*
X27875Y-26015D01*
X27810Y-25859D01*
X27691Y-25739D01*
X27534Y-25675D01*
X27449Y-25674D01*
X27300Y-25525D01*
X27300Y-25500D01*
X27300Y-21794D01*
X27339Y-21890D01*
X27400Y-21951D01*
X27400Y-24650D01*
X27422Y-24764D01*
X27487Y-24862D01*
X27775Y-25149D01*
X27774Y-25234D01*
X27839Y-25390D01*
X27958Y-25510D01*
X28115Y-25574D01*
X28200Y-25575D01*
X28200Y-27270D01*
X28060Y-27177D01*
X27850Y-27135D01*
X27639Y-27177D01*
X27461Y-27296D01*
X27346Y-27468D01*
X27338Y-27443D01*
X27203Y-27275D01*
X27014Y-27172D01*
X26985Y-27166D01*
X26900Y-27215D01*
X26900Y-27850D01*
X26907Y-27850D01*
X26907Y-27950D01*
X26900Y-27950D01*
X26900Y-28584D01*
X26985Y-28633D01*
X27014Y-28627D01*
X27203Y-28524D01*
X27338Y-28356D01*
X27346Y-28331D01*
X27461Y-28503D01*
X27639Y-28622D01*
X27850Y-28664D01*
X28060Y-28622D01*
X28200Y-28529D01*
X28200Y-28840D01*
X27922Y-29117D01*
X27510Y-29117D01*
X27382Y-29171D01*
X27283Y-29269D01*
X27230Y-29398D01*
X27229Y-29537D01*
X27229Y-30237D01*
X27235Y-30250D01*
X26970Y-30250D01*
X26975Y-30237D01*
X26976Y-30098D01*
X26976Y-29398D01*
X26922Y-29270D01*
X26824Y-29171D01*
X26800Y-29161D01*
X26800Y-28584D01*
X26800Y-27950D01*
X26800Y-27850D01*
X26800Y-27215D01*
X26714Y-27166D01*
X26685Y-27172D01*
X26496Y-27275D01*
X26361Y-27443D01*
X26350Y-27480D01*
X26338Y-27443D01*
X26203Y-27275D01*
X26014Y-27172D01*
X25985Y-27166D01*
X25900Y-27215D01*
X25900Y-27850D01*
X26300Y-27850D01*
X26400Y-27850D01*
X26800Y-27850D01*
X26800Y-27950D01*
X26400Y-27950D01*
X26300Y-27950D01*
X25900Y-27950D01*
X25900Y-28584D01*
X25985Y-28633D01*
X26014Y-28627D01*
X26203Y-28524D01*
X26338Y-28356D01*
X26350Y-28319D01*
X26361Y-28356D01*
X26496Y-28524D01*
X26685Y-28627D01*
X26714Y-28633D01*
X26800Y-28584D01*
X26800Y-29161D01*
X26695Y-29118D01*
X26556Y-29117D01*
X25856Y-29117D01*
X25800Y-29141D01*
X25800Y-28584D01*
X25800Y-27950D01*
X25792Y-27950D01*
X25792Y-27850D01*
X25800Y-27850D01*
X25800Y-27215D01*
X25714Y-27166D01*
X25685Y-27172D01*
X25496Y-27275D01*
X25361Y-27443D01*
X25353Y-27468D01*
X25238Y-27296D01*
X25060Y-27177D01*
X24850Y-27135D01*
X24639Y-27177D01*
X24461Y-27296D01*
X24350Y-27462D01*
X24238Y-27296D01*
X24060Y-27177D01*
X23850Y-27135D01*
X23639Y-27177D01*
X23461Y-27296D01*
X23350Y-27462D01*
X23238Y-27296D01*
X23060Y-27177D01*
X22850Y-27135D01*
X22639Y-27177D01*
X22461Y-27296D01*
X22341Y-27474D01*
X22300Y-27685D01*
X22300Y-28114D01*
X22341Y-28325D01*
X22461Y-28503D01*
X22639Y-28622D01*
X22850Y-28664D01*
X23060Y-28622D01*
X23238Y-28503D01*
X23350Y-28337D01*
X23461Y-28503D01*
X23639Y-28622D01*
X23850Y-28664D01*
X24060Y-28622D01*
X24238Y-28503D01*
X24350Y-28337D01*
X24461Y-28503D01*
X24639Y-28622D01*
X24850Y-28664D01*
X25060Y-28622D01*
X25238Y-28503D01*
X25353Y-28331D01*
X25361Y-28356D01*
X25496Y-28524D01*
X25685Y-28627D01*
X25714Y-28633D01*
X25800Y-28584D01*
X25800Y-29141D01*
X25728Y-29171D01*
X25629Y-29269D01*
X25576Y-29398D01*
X25575Y-29537D01*
X25575Y-30237D01*
X25581Y-30250D01*
X25318Y-30250D01*
X25323Y-30237D01*
X25324Y-30098D01*
X25324Y-29398D01*
X25270Y-29270D01*
X25172Y-29171D01*
X25043Y-29118D01*
X24904Y-29117D01*
X24204Y-29117D01*
X24076Y-29171D01*
X23977Y-29269D01*
X23924Y-29398D01*
X23923Y-29537D01*
X23923Y-30064D01*
X23670Y-29810D01*
X23670Y-29398D01*
X23616Y-29270D01*
X23518Y-29171D01*
X23389Y-29118D01*
X23250Y-29117D01*
X22550Y-29117D01*
X22422Y-29171D01*
X22323Y-29269D01*
X22270Y-29398D01*
X22269Y-29537D01*
X22269Y-30237D01*
X22323Y-30366D01*
X22421Y-30464D01*
X22550Y-30517D01*
X22689Y-30518D01*
X22962Y-30518D01*
X23548Y-31103D01*
X23548Y-31103D01*
X23710Y-31211D01*
X23902Y-31250D01*
X28399Y-31250D01*
X28400Y-31250D01*
X28400Y-31250D01*
X28591Y-31211D01*
X28753Y-31103D01*
X29753Y-30103D01*
X29753Y-30103D01*
X29753Y-30103D01*
X29861Y-29941D01*
X29900Y-29750D01*
X29900Y-29114D01*
X29924Y-29054D01*
X29925Y-28846D01*
X29850Y-28664D01*
X30060Y-28622D01*
X30238Y-28503D01*
X30350Y-28337D01*
X30461Y-28503D01*
X30639Y-28622D01*
X30850Y-28664D01*
X31060Y-28622D01*
X31238Y-28503D01*
X31350Y-28337D01*
X31461Y-28503D01*
X31639Y-28622D01*
X31850Y-28664D01*
X32060Y-28622D01*
X32238Y-28503D01*
X32350Y-28337D01*
X32461Y-28503D01*
X32639Y-28622D01*
X32850Y-28664D01*
X33050Y-28624D01*
X33050Y-31272D01*
X32984Y-31338D01*
X32900Y-31540D01*
X32899Y-31758D01*
X32983Y-31961D01*
X33138Y-32115D01*
X33219Y-32149D01*
X33138Y-32183D01*
X32984Y-32338D01*
X32900Y-32540D01*
X32899Y-32758D01*
X32983Y-32961D01*
X33138Y-33115D01*
X33340Y-33199D01*
X33558Y-33200D01*
X33761Y-33116D01*
X33915Y-32961D01*
X33947Y-32886D01*
X33968Y-32937D01*
X34064Y-32965D01*
X34379Y-32650D01*
X34064Y-32334D01*
X33968Y-32362D01*
X33949Y-32417D01*
X33916Y-32338D01*
X33761Y-32184D01*
X33680Y-32150D01*
X33761Y-32116D01*
X33915Y-31961D01*
X33949Y-31880D01*
X33983Y-31961D01*
X34138Y-32115D01*
X34213Y-32147D01*
X34162Y-32168D01*
X34134Y-32264D01*
X34450Y-32579D01*
X34455Y-32573D01*
X34526Y-32644D01*
X34520Y-32650D01*
X34526Y-32655D01*
X34455Y-32726D01*
X34450Y-32720D01*
X34134Y-33035D01*
X34162Y-33131D01*
X34368Y-33204D01*
X34586Y-33193D01*
X34695Y-33148D01*
X34737Y-33212D01*
X36137Y-34612D01*
X36137Y-34612D01*
X36235Y-34677D01*
X36350Y-34700D01*
X44674Y-34700D01*
X44674Y-34724D01*
X44712Y-34816D01*
X44783Y-34886D01*
X44875Y-34924D01*
X44974Y-34925D01*
X45524Y-34925D01*
X45616Y-34887D01*
X45686Y-34816D01*
X45724Y-34724D01*
X45725Y-34625D01*
X45725Y-34625D01*
X45754Y-34697D01*
X45902Y-34844D01*
X46095Y-34924D01*
X46303Y-34925D01*
X46497Y-34845D01*
X46642Y-34700D01*
X46850Y-34700D01*
X46850Y-34699D01*
X46964Y-34677D01*
X46964Y-34677D01*
X47062Y-34612D01*
X47712Y-33962D01*
X47712Y-33962D01*
X47777Y-33864D01*
X47799Y-33750D01*
X47800Y-33750D01*
X47800Y-30900D01*
X47800Y-30850D01*
X47800Y-30050D01*
X47777Y-29935D01*
X47712Y-29837D01*
X47712Y-29837D01*
X46612Y-28737D01*
X46514Y-28672D01*
X46400Y-28650D01*
X46285Y-28672D01*
X46187Y-28737D01*
X46122Y-28835D01*
X46100Y-28950D01*
X46122Y-29064D01*
X46187Y-29162D01*
X46468Y-29443D01*
X46304Y-29375D01*
X46099Y-29374D01*
X45962Y-29237D01*
X45864Y-29172D01*
X45750Y-29150D01*
X39800Y-29150D01*
X39685Y-29172D01*
X39587Y-29237D01*
X37725Y-31099D01*
X37700Y-31099D01*
X37100Y-31099D01*
X37008Y-31137D01*
X36938Y-31208D01*
X36900Y-31300D01*
X36899Y-31353D01*
X36835Y-31334D01*
X36520Y-31650D01*
X36526Y-31655D01*
X36455Y-31726D01*
X36450Y-31720D01*
X36444Y-31726D01*
X36373Y-31655D01*
X36379Y-31650D01*
X36373Y-31644D01*
X36444Y-31573D01*
X36450Y-31579D01*
X36765Y-31264D01*
X36737Y-31168D01*
X36531Y-31095D01*
X36313Y-31106D01*
X36162Y-31168D01*
X36155Y-31190D01*
X36137Y-31162D01*
X36137Y-31162D01*
X34675Y-29700D01*
X34675Y-28629D01*
X34850Y-28664D01*
X35060Y-28622D01*
X35238Y-28503D01*
X35350Y-28337D01*
X35461Y-28503D01*
X35639Y-28622D01*
X35850Y-28664D01*
X36060Y-28622D01*
X36238Y-28503D01*
X36350Y-28337D01*
X36461Y-28503D01*
X36639Y-28622D01*
X36850Y-28664D01*
X37060Y-28622D01*
X37238Y-28503D01*
X37358Y-28325D01*
X37400Y-28114D01*
X37400Y-27685D01*
X37392Y-27650D01*
X37425Y-27682D01*
X37425Y-28517D01*
X37142Y-28800D01*
X36414Y-28800D01*
X36354Y-28775D01*
X36146Y-28774D01*
X35953Y-28854D01*
X35805Y-29002D01*
X35725Y-29195D01*
X35724Y-29403D01*
X35804Y-29597D01*
X35952Y-29744D01*
X36145Y-29824D01*
X36353Y-29825D01*
X36414Y-29800D01*
X37349Y-29800D01*
X37349Y-29800D01*
X37349Y-29800D01*
X37541Y-29761D01*
X37703Y-29653D01*
X38278Y-29078D01*
X38278Y-29078D01*
X38278Y-29078D01*
X38386Y-28916D01*
X38425Y-28724D01*
X38424Y-28724D01*
X38425Y-28724D01*
X38425Y-28449D01*
X38461Y-28503D01*
X38639Y-28622D01*
X38850Y-28664D01*
X39060Y-28622D01*
X39238Y-28503D01*
X39350Y-28337D01*
X39461Y-28503D01*
X39639Y-28622D01*
X39850Y-28664D01*
X40060Y-28622D01*
X40238Y-28503D01*
X40350Y-28337D01*
X40461Y-28503D01*
X40639Y-28622D01*
X40850Y-28664D01*
X41060Y-28622D01*
X41238Y-28503D01*
X41350Y-28337D01*
X41461Y-28503D01*
X41639Y-28622D01*
X41850Y-28664D01*
X42060Y-28622D01*
X42238Y-28503D01*
X42350Y-28337D01*
X42461Y-28503D01*
X42639Y-28622D01*
X42850Y-28664D01*
X43060Y-28622D01*
X43238Y-28503D01*
X43350Y-28337D01*
X43461Y-28503D01*
X43639Y-28622D01*
X43850Y-28664D01*
X44060Y-28622D01*
X44238Y-28503D01*
X44350Y-28337D01*
X44461Y-28503D01*
X44639Y-28622D01*
X44850Y-28664D01*
X45060Y-28622D01*
X45238Y-28503D01*
X45350Y-28337D01*
X45461Y-28503D01*
X45639Y-28622D01*
X45850Y-28664D01*
X46060Y-28622D01*
X46238Y-28503D01*
X46358Y-28325D01*
X46400Y-28114D01*
X46400Y-27685D01*
X46358Y-27474D01*
X46238Y-27296D01*
X46060Y-27177D01*
X45850Y-27135D01*
X45831Y-27138D01*
X45831Y-14139D01*
X45703Y-13830D01*
X45467Y-13593D01*
X45158Y-13465D01*
X44824Y-13465D01*
X44515Y-13593D01*
X44278Y-13829D01*
X44150Y-14138D01*
X44150Y-14472D01*
X44278Y-14781D01*
X44514Y-15018D01*
X44823Y-15146D01*
X45157Y-15146D01*
X45466Y-15018D01*
X45703Y-14782D01*
X45831Y-14473D01*
X45831Y-14139D01*
X45831Y-27138D01*
X45639Y-27177D01*
X45461Y-27296D01*
X45350Y-27462D01*
X45238Y-27296D01*
X45060Y-27177D01*
X44850Y-27135D01*
X44639Y-27177D01*
X44461Y-27296D01*
X44350Y-27462D01*
X44238Y-27296D01*
X44060Y-27177D01*
X43850Y-27135D01*
X43840Y-27137D01*
X43840Y-14762D01*
X43840Y-14062D01*
X43786Y-13934D01*
X43688Y-13835D01*
X43559Y-13782D01*
X43420Y-13781D01*
X42720Y-13781D01*
X42592Y-13835D01*
X42493Y-13933D01*
X42440Y-14062D01*
X42439Y-14201D01*
X42439Y-14901D01*
X42493Y-15030D01*
X42591Y-15128D01*
X42720Y-15181D01*
X42859Y-15182D01*
X43559Y-15182D01*
X43688Y-15128D01*
X43786Y-15030D01*
X43839Y-14901D01*
X43840Y-14762D01*
X43840Y-27137D01*
X43639Y-27177D01*
X43461Y-27296D01*
X43350Y-27462D01*
X43238Y-27296D01*
X43060Y-27177D01*
X42850Y-27135D01*
X42639Y-27177D01*
X42461Y-27296D01*
X42350Y-27462D01*
X42238Y-27296D01*
X42060Y-27177D01*
X41850Y-27135D01*
X41639Y-27177D01*
X41461Y-27296D01*
X41350Y-27462D01*
X41238Y-27296D01*
X41060Y-27177D01*
X40850Y-27135D01*
X40639Y-27177D01*
X40461Y-27296D01*
X40350Y-27462D01*
X40238Y-27296D01*
X40060Y-27177D01*
X39850Y-27135D01*
X39639Y-27177D01*
X39461Y-27296D01*
X39350Y-27462D01*
X39238Y-27296D01*
X39060Y-27177D01*
X38850Y-27135D01*
X38639Y-27177D01*
X38461Y-27296D01*
X38405Y-27378D01*
X38386Y-27283D01*
X38278Y-27121D01*
X38278Y-27121D01*
X37432Y-26275D01*
X37453Y-26275D01*
X37647Y-26195D01*
X37794Y-26047D01*
X37820Y-25987D01*
X38377Y-25429D01*
X38350Y-25495D01*
X38349Y-25703D01*
X38429Y-25897D01*
X38577Y-26044D01*
X38770Y-26124D01*
X38978Y-26125D01*
X39172Y-26045D01*
X39319Y-25897D01*
X39380Y-25751D01*
X41840Y-23291D01*
X41840Y-23291D01*
X41840Y-23291D01*
X41948Y-23129D01*
X41987Y-22938D01*
X41987Y-22763D01*
X41987Y-15148D01*
X42035Y-15128D01*
X42133Y-15030D01*
X42186Y-14901D01*
X42187Y-14762D01*
X42187Y-14062D01*
X42133Y-13934D01*
X42050Y-13850D01*
X42149Y-13850D01*
X42150Y-13850D01*
X42150Y-13850D01*
X42341Y-13811D01*
X42503Y-13703D01*
X43189Y-13018D01*
X43559Y-13018D01*
X43688Y-12964D01*
X43786Y-12866D01*
X43839Y-12737D01*
X43840Y-12598D01*
X43840Y-11898D01*
X43786Y-11770D01*
X43688Y-11671D01*
X43559Y-11618D01*
X43420Y-11617D01*
X43147Y-11617D01*
X41115Y-9586D01*
X41238Y-9503D01*
X41350Y-9337D01*
X41461Y-9503D01*
X41639Y-9622D01*
X41850Y-9664D01*
X42060Y-9622D01*
X42238Y-9503D01*
X42350Y-9337D01*
X42461Y-9503D01*
X42639Y-9622D01*
X42850Y-9664D01*
X43060Y-9622D01*
X43238Y-9503D01*
X43350Y-9337D01*
X43461Y-9503D01*
X43639Y-9622D01*
X43850Y-9664D01*
X44060Y-9622D01*
X44238Y-9503D01*
X44358Y-9325D01*
X44377Y-9229D01*
X44480Y-9479D01*
X44768Y-9768D01*
X45145Y-9924D01*
X45552Y-9925D01*
X45929Y-9769D01*
X46218Y-9481D01*
X46357Y-9147D01*
X46383Y-9211D01*
X46538Y-9365D01*
X46619Y-9399D01*
X46538Y-9433D01*
X46384Y-9588D01*
X46300Y-9790D01*
X46299Y-10008D01*
X46383Y-10211D01*
X46538Y-10365D01*
X46619Y-10399D01*
X46538Y-10433D01*
X46384Y-10588D01*
X46300Y-10790D01*
X46299Y-11008D01*
X46383Y-11211D01*
X46538Y-11365D01*
X46619Y-11399D01*
X46538Y-11433D01*
X46384Y-11588D01*
X46300Y-11790D01*
X46299Y-12008D01*
X46383Y-12211D01*
X46538Y-12365D01*
X46619Y-12399D01*
X46538Y-12433D01*
X46384Y-12588D01*
X46300Y-12790D01*
X46299Y-13008D01*
X46383Y-13211D01*
X46538Y-13365D01*
X46619Y-13399D01*
X46538Y-13433D01*
X46384Y-13588D01*
X46300Y-13790D01*
X46299Y-14008D01*
X46383Y-14211D01*
X46538Y-14365D01*
X46619Y-14399D01*
X46538Y-14433D01*
X46384Y-14588D01*
X46300Y-14790D01*
X46299Y-15008D01*
X46383Y-15211D01*
X46538Y-15365D01*
X46619Y-15399D01*
X46538Y-15433D01*
X46384Y-15588D01*
X46300Y-15790D01*
X46299Y-16008D01*
X46383Y-16211D01*
X46538Y-16365D01*
X46619Y-16399D01*
X46538Y-16433D01*
X46384Y-16588D01*
X46300Y-16790D01*
X46299Y-17008D01*
X46383Y-17211D01*
X46538Y-17365D01*
X46619Y-17399D01*
X46538Y-17433D01*
X46384Y-17588D01*
X46300Y-17790D01*
X46299Y-18008D01*
X46383Y-18211D01*
X46538Y-18365D01*
X46619Y-18399D01*
X46538Y-18433D01*
X46384Y-18588D01*
X46300Y-18790D01*
X46299Y-19008D01*
X46383Y-19211D01*
X46538Y-19365D01*
X46619Y-19399D01*
X46538Y-19433D01*
X46384Y-19588D01*
X46300Y-19790D01*
X46299Y-20008D01*
X46383Y-20211D01*
X46538Y-20365D01*
X46619Y-20399D01*
X46538Y-20433D01*
X46384Y-20588D01*
X46300Y-20790D01*
X46299Y-21008D01*
X46383Y-21211D01*
X46538Y-21365D01*
X46619Y-21399D01*
X46538Y-21433D01*
X46384Y-21588D01*
X46300Y-21790D01*
X46299Y-22008D01*
X46383Y-22211D01*
X46538Y-22365D01*
X46619Y-22399D01*
X46538Y-22433D01*
X46384Y-22588D01*
X46300Y-22790D01*
X46299Y-23008D01*
X46383Y-23211D01*
X46538Y-23365D01*
X46619Y-23399D01*
X46538Y-23433D01*
X46384Y-23588D01*
X46300Y-23790D01*
X46299Y-24008D01*
X46383Y-24211D01*
X46538Y-24365D01*
X46619Y-24399D01*
X46538Y-24433D01*
X46384Y-24588D01*
X46300Y-24790D01*
X46299Y-25008D01*
X46383Y-25211D01*
X46538Y-25365D01*
X46613Y-25397D01*
X46562Y-25418D01*
X46534Y-25514D01*
X46850Y-25829D01*
X47165Y-25514D01*
X47137Y-25418D01*
X47082Y-25399D01*
X47161Y-25366D01*
X47315Y-25211D01*
X47349Y-25130D01*
X47383Y-25211D01*
X47538Y-25365D01*
X47613Y-25397D01*
X47562Y-25418D01*
X47534Y-25514D01*
X47850Y-25829D01*
X48165Y-25514D01*
X48137Y-25418D01*
X48082Y-25399D01*
X48161Y-25366D01*
X48315Y-25211D01*
X48399Y-25009D01*
X48400Y-24791D01*
X48316Y-24588D01*
X48161Y-24434D01*
X48080Y-24400D01*
X48161Y-24366D01*
X48315Y-24211D01*
X48399Y-24009D01*
X48400Y-23791D01*
X48316Y-23588D01*
X48161Y-23434D01*
X48080Y-23400D01*
X48161Y-23366D01*
X48315Y-23211D01*
X48399Y-23009D01*
X48400Y-22791D01*
X48316Y-22588D01*
X48161Y-22434D01*
X48080Y-22400D01*
X48161Y-22366D01*
X48315Y-22211D01*
X48399Y-22009D01*
X48400Y-21791D01*
X48316Y-21588D01*
X48161Y-21434D01*
X48080Y-21400D01*
X48161Y-21366D01*
X48315Y-21211D01*
X48399Y-21009D01*
X48400Y-20791D01*
X48316Y-20588D01*
X48161Y-20434D01*
X48080Y-20400D01*
X48161Y-20366D01*
X48315Y-20211D01*
X48399Y-20009D01*
X48400Y-19791D01*
X48316Y-19588D01*
X48161Y-19434D01*
X48080Y-19400D01*
X48161Y-19366D01*
X48315Y-19211D01*
X48399Y-19009D01*
X48400Y-18791D01*
X48316Y-18588D01*
X48161Y-18434D01*
X48080Y-18400D01*
X48161Y-18366D01*
X48315Y-18211D01*
X48399Y-18009D01*
X48400Y-17791D01*
X48316Y-17588D01*
X48161Y-17434D01*
X48080Y-17400D01*
X48161Y-17366D01*
X48315Y-17211D01*
X48399Y-17009D01*
X48400Y-16791D01*
X48316Y-16588D01*
X48161Y-16434D01*
X48080Y-16400D01*
X48161Y-16366D01*
X48315Y-16211D01*
X48399Y-16009D01*
X48400Y-15791D01*
X48316Y-15588D01*
X48161Y-15434D01*
X48080Y-15400D01*
X48161Y-15366D01*
X48315Y-15211D01*
X48399Y-15009D01*
X48400Y-14791D01*
X48316Y-14588D01*
X48161Y-14434D01*
X48080Y-14400D01*
X48161Y-14366D01*
X48315Y-14211D01*
X48399Y-14009D01*
X48400Y-13791D01*
X48316Y-13588D01*
X48161Y-13434D01*
X48080Y-13400D01*
X48161Y-13366D01*
X48315Y-13211D01*
X48399Y-13009D01*
X48400Y-12791D01*
X48316Y-12588D01*
X48161Y-12434D01*
X48080Y-12400D01*
X48161Y-12366D01*
X48315Y-12211D01*
X48399Y-12009D01*
X48400Y-11791D01*
X48316Y-11588D01*
X48161Y-11434D01*
X48080Y-11400D01*
X48161Y-11366D01*
X48315Y-11211D01*
X48399Y-11009D01*
X48400Y-10791D01*
X48316Y-10588D01*
X48161Y-10434D01*
X48080Y-10400D01*
X48161Y-10366D01*
X48315Y-10211D01*
X48399Y-10009D01*
X48400Y-9791D01*
X48316Y-9588D01*
X48161Y-9434D01*
X48080Y-9400D01*
X48161Y-9366D01*
X48315Y-9211D01*
X48399Y-9009D01*
X48400Y-8791D01*
X48316Y-8588D01*
X48161Y-8434D01*
X47959Y-8350D01*
X47741Y-8349D01*
X47538Y-8433D01*
X47384Y-8588D01*
X47350Y-8669D01*
X47316Y-8588D01*
X47161Y-8434D01*
X46959Y-8350D01*
X46741Y-8349D01*
X46538Y-8433D01*
X46384Y-8588D01*
X46357Y-8653D01*
X46219Y-8320D01*
X46124Y-8225D01*
X49125Y-8225D01*
X49125Y-35825D01*
M02*
