G04 (created by PCBNEW-RS274X (2011-04-29 BZR 2986)-stable) date 11/21/2011 10:44:46 AM*
G01*
G70*
G90*
%MOIN*%
G04 Gerber Fmt 3.4, Leading zero omitted, Abs format*
%FSLAX34Y34*%
G04 APERTURE LIST*
%ADD10C,0.006000*%
%ADD11C,0.175000*%
%ADD12C,0.140000*%
%ADD13R,0.080000X0.080000*%
%ADD14C,0.080000*%
%ADD15C,0.157800*%
%ADD16R,0.045000X0.065000*%
%ADD17R,0.065000X0.045000*%
%ADD18R,0.100000X0.080000*%
%ADD19R,0.035000X0.070000*%
%ADD20R,0.090000X0.090000*%
%ADD21C,0.090000*%
%ADD22O,0.080000X0.120000*%
G04 APERTURE END LIST*
G54D10*
G54D11*
X10750Y-43400D03*
X47150Y-43400D03*
G54D12*
X45400Y-40100D03*
X45400Y-31500D03*
G54D13*
X44700Y-33800D03*
G54D14*
X45700Y-33800D03*
X44700Y-34800D03*
X45700Y-34800D03*
X44700Y-35800D03*
X45700Y-35800D03*
X44700Y-36800D03*
X45700Y-36800D03*
X44700Y-37800D03*
X45700Y-37800D03*
G54D15*
X12150Y-30250D03*
X12150Y-34250D03*
G54D14*
X14150Y-33250D03*
X14150Y-32250D03*
G54D16*
X40550Y-12950D03*
X39950Y-12950D03*
G54D17*
X41800Y-14300D03*
X41800Y-13700D03*
G54D16*
X37750Y-33650D03*
X38350Y-33650D03*
G54D18*
X18950Y-39600D03*
X18950Y-38300D03*
G54D15*
X12150Y-37350D03*
X12150Y-41350D03*
G54D14*
X14150Y-40350D03*
X14150Y-39350D03*
G54D17*
X28550Y-24850D03*
X28550Y-24250D03*
G54D16*
X34800Y-25500D03*
X35400Y-25500D03*
G54D17*
X29250Y-13100D03*
X29250Y-12500D03*
X30950Y-13050D03*
X30950Y-12450D03*
X43950Y-24750D03*
X43950Y-25350D03*
G54D19*
X42416Y-13150D03*
X42672Y-13150D03*
X42928Y-13150D03*
X43184Y-13150D03*
X43184Y-14850D03*
X42928Y-14850D03*
X42672Y-14850D03*
X42416Y-14850D03*
G54D15*
X12150Y-18450D03*
X12150Y-22450D03*
G54D14*
X14150Y-21450D03*
X14150Y-20450D03*
G54D15*
X16950Y-39250D03*
X20950Y-39250D03*
G54D14*
X19950Y-37250D03*
X18950Y-37250D03*
G54D20*
X40790Y-43682D03*
X39137Y-43682D03*
X37483Y-43682D03*
X35830Y-43682D03*
X34176Y-43682D03*
X32524Y-43682D03*
X30870Y-43682D03*
X29217Y-43682D03*
X27563Y-43682D03*
X25910Y-43682D03*
X40790Y-41518D03*
X39137Y-41518D03*
X37483Y-41518D03*
X35830Y-41518D03*
X34176Y-41518D03*
X32524Y-41518D03*
X30870Y-41518D03*
X29217Y-41518D03*
X27563Y-41518D03*
X25910Y-41518D03*
G54D21*
X22700Y-38800D03*
X33200Y-38800D03*
X24100Y-43100D03*
X13600Y-43100D03*
X42800Y-39350D03*
X32300Y-39350D03*
G54D22*
X36150Y-09250D03*
X37150Y-09250D03*
X38150Y-09250D03*
X39150Y-09250D03*
X40150Y-09250D03*
X41150Y-09250D03*
X42150Y-09250D03*
X43150Y-09250D03*
X45150Y-28250D03*
X44150Y-28250D03*
X43150Y-28250D03*
X42150Y-28250D03*
X38150Y-28250D03*
X36150Y-28250D03*
X35150Y-28250D03*
X39150Y-28250D03*
X40150Y-28250D03*
X41150Y-28250D03*
X34150Y-28250D03*
X33150Y-28250D03*
X32150Y-28250D03*
X29150Y-28250D03*
X30150Y-28250D03*
X31150Y-28250D03*
X27150Y-28250D03*
X26150Y-28250D03*
X25150Y-28250D03*
X23150Y-28250D03*
X22150Y-28250D03*
X34150Y-09250D03*
X33150Y-09250D03*
X32150Y-09250D03*
X31150Y-09250D03*
X30150Y-09250D03*
X29150Y-09250D03*
X28150Y-09250D03*
X27150Y-09250D03*
X25550Y-09250D03*
X24550Y-09250D03*
X23550Y-09250D03*
X22550Y-09250D03*
X21550Y-09250D03*
X20550Y-09250D03*
X19550Y-09250D03*
X18550Y-09250D03*
X24150Y-28250D03*
G54D11*
X47150Y-28250D03*
X44650Y-09250D03*
X15150Y-09250D03*
X14650Y-28250D03*
G54D14*
X46150Y-10250D03*
X47150Y-10250D03*
X46150Y-11250D03*
X47150Y-11250D03*
X46150Y-12250D03*
X47150Y-12250D03*
X46150Y-13250D03*
X47150Y-13250D03*
X46150Y-09250D03*
X47150Y-09250D03*
X47150Y-14250D03*
X46150Y-14250D03*
X46150Y-15250D03*
X47150Y-15250D03*
X46150Y-16250D03*
X47150Y-16250D03*
X46150Y-17250D03*
X47150Y-17250D03*
X46150Y-18250D03*
X47150Y-18250D03*
X46150Y-19250D03*
X47150Y-19250D03*
X46150Y-20250D03*
X47150Y-20250D03*
X46150Y-21250D03*
X47150Y-21250D03*
X46150Y-22250D03*
X47150Y-22250D03*
X46150Y-23250D03*
X47150Y-23250D03*
X46150Y-24250D03*
X47150Y-24250D03*
X46150Y-25250D03*
X47150Y-25250D03*
X46150Y-26250D03*
X47150Y-26250D03*
M02*
