M48
;DRILL file {Pcbnew (2011-11-27 BZR 3249)-stable} date 15/05/2012 4:09:30 PM
;FORMAT={-:-/ absolute / inch / decimal}
FMAT,2
INCH,TZ
T1C0.025
T2C0.032
T3C0.035
T4C0.050
T5C0.079
T6C0.098
T7C0.100
T8C0.125
%
G90
G05
M72
T1
X1.460Y4.235
X1.625Y2.425
X1.923Y2.045
X2.445Y1.135
X2.530Y3.935
X2.695Y3.225
X2.725Y1.475
X2.800Y1.245
X2.805Y1.585
X2.805Y2.510
X2.925Y1.625
X2.975Y1.310
X3.005Y2.355
X3.015Y1.695
X3.045Y1.475
X3.050Y1.245
X3.050Y1.310
X3.105Y1.585
X3.165Y1.245
X3.175Y2.145
X3.255Y1.553
X3.345Y2.505
X3.405Y2.555
X3.415Y2.405
X3.425Y1.585
X3.515Y2.735
X3.555Y2.505
X3.605Y3.555
X3.615Y2.355
X3.615Y2.555
X3.655Y1.475
X3.655Y2.305
X3.705Y3.325
X3.735Y1.175
X3.835Y2.415
X3.835Y2.465
X3.850Y3.360
X3.850Y3.915
X3.855Y1.235
X3.875Y2.315
X3.905Y2.365
X3.945Y3.055
X3.985Y1.375
X3.985Y3.385
X4.025Y1.475
X4.085Y2.415
X4.085Y2.465
X4.085Y2.510
X4.085Y2.560
X4.085Y2.610
X4.100Y1.310
X4.120Y1.375
X4.125Y2.715
X4.145Y2.475
X4.165Y3.335
X4.165Y3.435
X4.200Y3.005
X4.305Y2.375
X4.305Y2.475
X4.465Y2.465
X4.465Y2.565
X4.525Y2.285
X4.710Y3.385
T2
X1.855Y0.925
X1.955Y0.925
X2.055Y0.925
X2.155Y0.925
X2.215Y2.825
X2.255Y0.925
X2.315Y2.825
X2.355Y0.925
X2.415Y2.825
X2.455Y0.925
X2.515Y2.825
X2.555Y0.925
X2.615Y2.825
X2.715Y0.925
X2.715Y2.825
X2.815Y0.925
X2.915Y0.925
X2.915Y2.825
X3.015Y0.925
X3.015Y2.825
X3.115Y0.925
X3.115Y2.825
X3.215Y0.925
X3.215Y2.825
X3.315Y0.925
X3.315Y2.825
X3.415Y0.925
X3.415Y2.825
X3.515Y2.825
X3.615Y0.925
X3.615Y2.825
X3.715Y0.925
X3.815Y0.925
X3.815Y2.825
X3.915Y0.925
X3.915Y2.825
X4.015Y0.925
X4.015Y2.825
X4.115Y0.925
X4.115Y2.825
X4.215Y0.925
X4.215Y2.825
X4.315Y0.925
X4.315Y2.825
X4.415Y2.825
X4.470Y3.380
X4.470Y3.480
X4.470Y3.580
X4.470Y3.680
X4.470Y3.780
X4.515Y2.825
X4.570Y3.380
X4.570Y3.480
X4.570Y3.580
X4.570Y3.680
X4.570Y3.780
X4.615Y0.925
X4.615Y1.025
X4.615Y1.125
X4.615Y1.225
X4.615Y1.325
X4.615Y1.425
X4.615Y1.525
X4.615Y1.625
X4.615Y1.725
X4.615Y1.825
X4.615Y1.925
X4.615Y2.025
X4.615Y2.125
X4.615Y2.225
X4.615Y2.325
X4.615Y2.425
X4.615Y2.525
X4.615Y2.625
X4.715Y0.925
X4.715Y1.025
X4.715Y1.125
X4.715Y1.225
X4.715Y1.325
X4.715Y1.425
X4.715Y1.525
X4.715Y1.625
X4.715Y1.725
X4.715Y1.825
X4.715Y1.925
X4.715Y2.025
X4.715Y2.125
X4.715Y2.225
X4.715Y2.325
X4.715Y2.425
X4.715Y2.525
X4.715Y2.625
T3
X1.415Y2.045
X1.415Y2.145
X1.415Y3.225
X1.415Y3.325
X1.415Y3.935
X1.415Y4.035
X1.895Y3.725
X1.995Y3.725
T4
X2.591Y4.152
X2.591Y4.368
X2.756Y4.152
X2.756Y4.368
X2.922Y4.152
X2.922Y4.368
X3.087Y4.152
X3.087Y4.368
X3.252Y4.152
X3.252Y4.368
X3.418Y4.152
X3.418Y4.368
X3.583Y4.152
X3.583Y4.368
X3.748Y4.152
X3.748Y4.368
X3.914Y4.152
X3.914Y4.368
X4.079Y4.152
X4.079Y4.368
T5
X1.215Y1.845
X1.215Y2.245
X1.215Y3.025
X1.215Y3.425
X1.215Y3.735
X1.215Y4.135
X1.695Y3.925
X2.095Y3.925
T6
X2.406Y4.169
X4.264Y4.169
T7
X4.540Y3.150
X4.540Y4.010
T8
X1.465Y2.825
X1.515Y0.925
X4.465Y0.925
X4.715Y2.825
T0
M30
