G04 (created by PCBNEW-RS274X (2011-11-27 BZR 3249)-stable) date 15/05/2012 4:09:25 PM*
G01*
G70*
G90*
%MOIN*%
G04 Gerber Fmt 3.4, Leading zero omitted, Abs format*
%FSLAX34Y34*%
G04 APERTURE LIST*
%ADD10C,0.006000*%
%ADD11C,0.120000*%
%ADD12R,0.060000X0.060000*%
%ADD13C,0.060000*%
%ADD14C,0.137800*%
%ADD15R,0.025000X0.045000*%
%ADD16R,0.045000X0.025000*%
%ADD17R,0.060000X0.080000*%
%ADD18R,0.015000X0.050000*%
%ADD19O,0.060000X0.100000*%
%ADD20C,0.155000*%
%ADD21R,0.070000X0.070000*%
%ADD22C,0.118100*%
%ADD23C,0.035000*%
%ADD24C,0.030000*%
%ADD25C,0.010000*%
G04 APERTURE END LIST*
G54D10*
G54D11*
X45400Y-40100D03*
X45400Y-31500D03*
G54D12*
X44700Y-33800D03*
G54D13*
X45700Y-33800D03*
X44700Y-34800D03*
X45700Y-34800D03*
X44700Y-35800D03*
X45700Y-35800D03*
X44700Y-36800D03*
X45700Y-36800D03*
X44700Y-37800D03*
X45700Y-37800D03*
G54D14*
X12150Y-30250D03*
X12150Y-34250D03*
G54D13*
X14150Y-33250D03*
X14150Y-32250D03*
G54D15*
X40550Y-12950D03*
X39950Y-12950D03*
G54D16*
X41800Y-14300D03*
X41800Y-13700D03*
G54D15*
X37750Y-33650D03*
X38350Y-33650D03*
G54D14*
X12150Y-37350D03*
X12150Y-41350D03*
G54D13*
X14150Y-40350D03*
X14150Y-39350D03*
G54D15*
X34800Y-25500D03*
X35400Y-25500D03*
G54D17*
X17850Y-20450D03*
X16550Y-20450D03*
G54D16*
X29250Y-13100D03*
X29250Y-12500D03*
X30950Y-13050D03*
X30950Y-12450D03*
X43950Y-24750D03*
X43950Y-25350D03*
G54D18*
X42416Y-13150D03*
X42672Y-13150D03*
X42928Y-13150D03*
X43184Y-13150D03*
X43184Y-14850D03*
X42928Y-14850D03*
X42672Y-14850D03*
X42416Y-14850D03*
G54D14*
X12150Y-18450D03*
X12150Y-22450D03*
G54D13*
X14150Y-21450D03*
X14150Y-20450D03*
G54D14*
X16950Y-39250D03*
X20950Y-39250D03*
G54D13*
X19950Y-37250D03*
X18950Y-37250D03*
G54D19*
X36150Y-09250D03*
X37150Y-09250D03*
X38150Y-09250D03*
X39150Y-09250D03*
X40150Y-09250D03*
X41150Y-09250D03*
X42150Y-09250D03*
X43150Y-09250D03*
X45150Y-28250D03*
X44150Y-28250D03*
X43150Y-28250D03*
X42150Y-28250D03*
X38150Y-28250D03*
X36150Y-28250D03*
X35150Y-28250D03*
X39150Y-28250D03*
X40150Y-28250D03*
X41150Y-28250D03*
X34150Y-28250D03*
X33150Y-28250D03*
X32150Y-28250D03*
X29150Y-28250D03*
X30150Y-28250D03*
X31150Y-28250D03*
X27150Y-28250D03*
X26150Y-28250D03*
X25150Y-28250D03*
X23150Y-28250D03*
X22150Y-28250D03*
X34150Y-09250D03*
X33150Y-09250D03*
X32150Y-09250D03*
X31150Y-09250D03*
X30150Y-09250D03*
X29150Y-09250D03*
X28150Y-09250D03*
X27150Y-09250D03*
X25550Y-09250D03*
X24550Y-09250D03*
X23550Y-09250D03*
X22550Y-09250D03*
X21550Y-09250D03*
X20550Y-09250D03*
X19550Y-09250D03*
X18550Y-09250D03*
X24150Y-28250D03*
G54D20*
X47150Y-28250D03*
X44650Y-09250D03*
X15150Y-09250D03*
X14650Y-28250D03*
G54D13*
X46150Y-10250D03*
X47150Y-10250D03*
X46150Y-11250D03*
X47150Y-11250D03*
X46150Y-12250D03*
X47150Y-12250D03*
X46150Y-13250D03*
X47150Y-13250D03*
X46150Y-09250D03*
X47150Y-09250D03*
X47150Y-14250D03*
X46150Y-14250D03*
X46150Y-15250D03*
X47150Y-15250D03*
X46150Y-16250D03*
X47150Y-16250D03*
X46150Y-17250D03*
X47150Y-17250D03*
X46150Y-18250D03*
X47150Y-18250D03*
X46150Y-19250D03*
X47150Y-19250D03*
X46150Y-20250D03*
X47150Y-20250D03*
X46150Y-21250D03*
X47150Y-21250D03*
X46150Y-22250D03*
X47150Y-22250D03*
X46150Y-23250D03*
X47150Y-23250D03*
X46150Y-24250D03*
X47150Y-24250D03*
X46150Y-25250D03*
X47150Y-25250D03*
X46150Y-26250D03*
X47150Y-26250D03*
G54D21*
X40790Y-43682D03*
X39137Y-43682D03*
X37483Y-43682D03*
X35830Y-43682D03*
X34176Y-43682D03*
X32524Y-43682D03*
X30870Y-43682D03*
X29217Y-43682D03*
X27563Y-43682D03*
X25910Y-43682D03*
X40790Y-41518D03*
X39137Y-41518D03*
X37483Y-41518D03*
X35830Y-41518D03*
X34176Y-41518D03*
X32524Y-41518D03*
X30870Y-41518D03*
X29217Y-41518D03*
X27563Y-41518D03*
X25910Y-41518D03*
G54D22*
X42641Y-41694D03*
X24059Y-41694D03*
G54D23*
X43050Y-23750D03*
X27250Y-14750D03*
X33450Y-25050D03*
X41000Y-13100D03*
X43050Y-24750D03*
X30450Y-14750D03*
X36550Y-14750D03*
X37050Y-33250D03*
X41200Y-13750D03*
X42000Y-30050D03*
X40850Y-25100D03*
X38500Y-39150D03*
X28050Y-25100D03*
X40250Y-14750D03*
X44650Y-24650D03*
X30500Y-13100D03*
X38550Y-12350D03*
X32550Y-15525D03*
X34250Y-15850D03*
X31650Y-12450D03*
X39850Y-13750D03*
X24450Y-11350D03*
X35550Y-25050D03*
X30500Y-12450D03*
X38350Y-24150D03*
X41450Y-24750D03*
X16250Y-24250D03*
X44650Y-25650D03*
X28000Y-12450D03*
X37350Y-11750D03*
X40850Y-24150D03*
X41250Y-27150D03*
X38500Y-33600D03*
X36050Y-35550D03*
X40850Y-26100D03*
X34050Y-25550D03*
X34150Y-24050D03*
X39050Y-23650D03*
X36150Y-23550D03*
X38750Y-23150D03*
X36550Y-23050D03*
X26950Y-32250D03*
X39450Y-30550D03*
X38350Y-24650D03*
X40850Y-24650D03*
X39850Y-33850D03*
X14600Y-42350D03*
X45250Y-22850D03*
X47100Y-33850D03*
X29250Y-16250D03*
X30150Y-16950D03*
X35150Y-27350D03*
X31750Y-21450D03*
X29750Y-13100D03*
X40850Y-25600D03*
X36150Y-25550D03*
X41650Y-34350D03*
X30050Y-23550D03*
X41650Y-33350D03*
X25300Y-39350D03*
X19225Y-20450D03*
X28050Y-15850D03*
X31050Y-15850D03*
G54D24*
X40790Y-41518D02*
X40790Y-43682D01*
G54D25*
X41000Y-13100D02*
X40850Y-12950D01*
X40250Y-14750D02*
X36550Y-14750D01*
X43050Y-24750D02*
X43050Y-23750D01*
X37450Y-24550D02*
X38000Y-25100D01*
X41750Y-14300D02*
X41200Y-13750D01*
X41800Y-14300D02*
X41750Y-14300D01*
X40850Y-12950D02*
X40550Y-12950D01*
X35350Y-24550D02*
X37450Y-24550D01*
X38000Y-25100D02*
X40850Y-25100D01*
X36550Y-14750D02*
X30450Y-14750D01*
X37050Y-33250D02*
X37450Y-33650D01*
X42416Y-14850D02*
X42672Y-14850D01*
X34350Y-25050D02*
X34800Y-25500D01*
X30550Y-13050D02*
X30950Y-13050D01*
X34850Y-25050D02*
X35350Y-24550D01*
X33450Y-25050D02*
X34350Y-25050D01*
X30450Y-14750D02*
X27250Y-14750D01*
X33400Y-25100D02*
X33450Y-25050D01*
X34650Y-25050D02*
X34850Y-25050D01*
X43950Y-24750D02*
X43050Y-24750D01*
X43950Y-24750D02*
X44550Y-24750D01*
X28050Y-25100D02*
X33400Y-25100D01*
X37750Y-38400D02*
X37750Y-33650D01*
X38500Y-39150D02*
X37750Y-38400D01*
X44550Y-24750D02*
X44650Y-24650D01*
X39350Y-30050D02*
X42000Y-30050D01*
X42416Y-14850D02*
X42350Y-14850D01*
X37450Y-33650D02*
X37750Y-33650D01*
X42350Y-14850D02*
X41800Y-14300D01*
X37050Y-33250D02*
X37050Y-32350D01*
X34350Y-25050D02*
X34650Y-25050D01*
X37050Y-32350D02*
X39350Y-30050D01*
X30500Y-13100D02*
X30550Y-13050D01*
X41450Y-15350D02*
X39850Y-13750D01*
X42928Y-14850D02*
X42928Y-15272D01*
X32550Y-15525D02*
X32875Y-15850D01*
X32875Y-15850D02*
X34250Y-15850D01*
X42850Y-15350D02*
X41450Y-15350D01*
X38450Y-12450D02*
X31650Y-12450D01*
X42928Y-15272D02*
X42850Y-15350D01*
X38550Y-12350D02*
X38450Y-12450D01*
X24450Y-11350D02*
X24550Y-11250D01*
X24550Y-11250D02*
X24550Y-09250D01*
X35400Y-25500D02*
X35400Y-25200D01*
X35400Y-25200D02*
X35550Y-25050D01*
X29250Y-12500D02*
X28050Y-12500D01*
X22750Y-24250D02*
X16250Y-24250D01*
X13150Y-39950D02*
X13150Y-34250D01*
X29300Y-12450D02*
X29250Y-12500D01*
X44700Y-34800D02*
X45700Y-35800D01*
X42150Y-32250D02*
X44700Y-34800D01*
X38450Y-33650D02*
X38500Y-33600D01*
X38350Y-33650D02*
X38450Y-33650D01*
X38550Y-11750D02*
X37350Y-11750D01*
X42050Y-32250D02*
X41750Y-31950D01*
X28050Y-12500D02*
X28000Y-12450D01*
X41250Y-27150D02*
X41250Y-24950D01*
X39750Y-12950D02*
X38550Y-11750D01*
X28050Y-24250D02*
X22750Y-24250D01*
X28550Y-24250D02*
X28050Y-24250D01*
X30500Y-12450D02*
X30950Y-12450D01*
X42416Y-13150D02*
X42416Y-13516D01*
X30500Y-12450D02*
X29300Y-12450D01*
X41800Y-13700D02*
X41866Y-13700D01*
X44150Y-25550D02*
X44250Y-25650D01*
X43050Y-13650D02*
X43184Y-13516D01*
X39950Y-12650D02*
X40250Y-12350D01*
X42550Y-13650D02*
X43050Y-13650D01*
X40250Y-12350D02*
X40750Y-12350D01*
X40750Y-12350D02*
X41800Y-13400D01*
X38350Y-24150D02*
X40850Y-24150D01*
X45700Y-36800D02*
X45700Y-35800D01*
X42050Y-32250D02*
X42150Y-32250D01*
X41250Y-24950D02*
X41450Y-24750D01*
X13550Y-40350D02*
X13150Y-39950D01*
X13150Y-34250D02*
X14150Y-33250D01*
X14150Y-40350D02*
X13550Y-40350D01*
X43184Y-13516D02*
X43184Y-13150D01*
X43950Y-25350D02*
X44150Y-25550D01*
X41800Y-13400D02*
X41800Y-13700D01*
X45700Y-37800D02*
X45700Y-36800D01*
X39950Y-12950D02*
X39950Y-12650D01*
X39950Y-12950D02*
X39750Y-12950D01*
X42416Y-13516D02*
X42550Y-13650D01*
X44250Y-25650D02*
X44650Y-25650D01*
X41866Y-13700D02*
X42416Y-13150D01*
X40450Y-31950D02*
X41750Y-31950D01*
X29150Y-28650D02*
X29150Y-28250D01*
X36050Y-35550D02*
X29150Y-28650D01*
X34175Y-25550D02*
X34600Y-25975D01*
X34600Y-25975D02*
X40725Y-25975D01*
X40725Y-25975D02*
X40850Y-26100D01*
X34050Y-25550D02*
X34175Y-25550D01*
X36150Y-24050D02*
X34150Y-24050D01*
X39050Y-23650D02*
X36550Y-23650D01*
X36550Y-23650D02*
X36150Y-24050D01*
X38650Y-23050D02*
X36550Y-23050D01*
X38750Y-23150D02*
X38650Y-23050D01*
X14150Y-32250D02*
X26950Y-32250D01*
X16550Y-20450D02*
X14150Y-20450D01*
X39450Y-33450D02*
X39450Y-30550D01*
X39850Y-33850D02*
X39450Y-33450D01*
X38350Y-24650D02*
X40850Y-24650D01*
X24050Y-12700D02*
X25550Y-11200D01*
X16000Y-12700D02*
X24050Y-12700D01*
X14600Y-42350D02*
X10450Y-38200D01*
X10450Y-38200D02*
X10450Y-18250D01*
X10450Y-18250D02*
X16000Y-12700D01*
X25550Y-11200D02*
X25550Y-09250D01*
X46150Y-25250D02*
X46050Y-25250D01*
X45250Y-24450D02*
X45250Y-22850D01*
X46050Y-25250D02*
X45250Y-24450D01*
X43150Y-12350D02*
X42928Y-12572D01*
X42928Y-12572D02*
X42928Y-13150D01*
X43150Y-09250D02*
X43150Y-12350D01*
X45700Y-34800D02*
X46150Y-34800D01*
X46150Y-34800D02*
X47100Y-33850D01*
X42150Y-09250D02*
X42150Y-12050D01*
X42150Y-12050D02*
X42672Y-12572D01*
X42672Y-12572D02*
X42672Y-13150D01*
X29950Y-16950D02*
X30150Y-16950D01*
X29250Y-16250D02*
X29950Y-16950D01*
X41650Y-34350D02*
X41650Y-33350D01*
X29750Y-13100D02*
X29250Y-13100D01*
X35150Y-27350D02*
X32850Y-27350D01*
X40800Y-25550D02*
X36150Y-25550D01*
X40850Y-25600D02*
X40800Y-25550D01*
X31750Y-21850D02*
X30050Y-23550D01*
X32850Y-27350D02*
X32150Y-28050D01*
X32150Y-28050D02*
X32150Y-28250D01*
X31750Y-21850D02*
X31750Y-21450D01*
X18950Y-39100D02*
X20100Y-40250D01*
X20100Y-40250D02*
X24400Y-40250D01*
X24400Y-40250D02*
X25300Y-39350D01*
X18950Y-37250D02*
X18950Y-39100D01*
X17850Y-20450D02*
X19225Y-20450D01*
X31050Y-15850D02*
X28050Y-15850D01*
G54D10*
G36*
X40640Y-25350D02*
X36410Y-25350D01*
X36335Y-25275D01*
X36215Y-25225D01*
X36086Y-25225D01*
X35966Y-25274D01*
X35875Y-25365D01*
X35825Y-25485D01*
X35825Y-25614D01*
X35874Y-25734D01*
X35915Y-25775D01*
X35774Y-25775D01*
X35774Y-25676D01*
X35775Y-25612D01*
X35775Y-25388D01*
X35774Y-25324D01*
X35774Y-25225D01*
X35736Y-25134D01*
X35666Y-25064D01*
X35574Y-25026D01*
X35512Y-25025D01*
X35450Y-25087D01*
X35450Y-25450D01*
X35713Y-25450D01*
X35775Y-25388D01*
X35775Y-25612D01*
X35713Y-25550D01*
X35500Y-25550D01*
X35450Y-25550D01*
X35350Y-25550D01*
X35350Y-25450D01*
X35350Y-25400D01*
X35350Y-25087D01*
X35288Y-25025D01*
X35226Y-25026D01*
X35134Y-25064D01*
X35064Y-25134D01*
X35043Y-25182D01*
X35021Y-25160D01*
X35432Y-24750D01*
X37367Y-24750D01*
X37858Y-25241D01*
X37859Y-25241D01*
X37923Y-25285D01*
X37999Y-25299D01*
X38000Y-25300D01*
X40590Y-25300D01*
X40640Y-25350D01*
X40640Y-25350D01*
G37*
G54D25*
X40640Y-25350D02*
X36410Y-25350D01*
X36335Y-25275D01*
X36215Y-25225D01*
X36086Y-25225D01*
X35966Y-25274D01*
X35875Y-25365D01*
X35825Y-25485D01*
X35825Y-25614D01*
X35874Y-25734D01*
X35915Y-25775D01*
X35774Y-25775D01*
X35774Y-25676D01*
X35775Y-25612D01*
X35775Y-25388D01*
X35774Y-25324D01*
X35774Y-25225D01*
X35736Y-25134D01*
X35666Y-25064D01*
X35574Y-25026D01*
X35512Y-25025D01*
X35450Y-25087D01*
X35450Y-25450D01*
X35713Y-25450D01*
X35775Y-25388D01*
X35775Y-25612D01*
X35713Y-25550D01*
X35500Y-25550D01*
X35450Y-25550D01*
X35350Y-25550D01*
X35350Y-25450D01*
X35350Y-25400D01*
X35350Y-25087D01*
X35288Y-25025D01*
X35226Y-25026D01*
X35134Y-25064D01*
X35064Y-25134D01*
X35043Y-25182D01*
X35021Y-25160D01*
X35432Y-24750D01*
X37367Y-24750D01*
X37858Y-25241D01*
X37859Y-25241D01*
X37923Y-25285D01*
X37999Y-25299D01*
X38000Y-25300D01*
X40590Y-25300D01*
X40640Y-25350D01*
G54D10*
G36*
X48925Y-44525D02*
X48075Y-44525D01*
X48075Y-28435D01*
X48075Y-28067D01*
X47935Y-27727D01*
X47693Y-27485D01*
X47693Y-26329D01*
X47682Y-26116D01*
X47622Y-25969D01*
X47599Y-25962D01*
X47599Y-25340D01*
X47599Y-25161D01*
X47599Y-24340D01*
X47599Y-24161D01*
X47599Y-23340D01*
X47599Y-23161D01*
X47599Y-22340D01*
X47599Y-22161D01*
X47599Y-21340D01*
X47599Y-21161D01*
X47599Y-20340D01*
X47599Y-20161D01*
X47599Y-19340D01*
X47599Y-19161D01*
X47599Y-18340D01*
X47599Y-18161D01*
X47599Y-17340D01*
X47599Y-17161D01*
X47599Y-16340D01*
X47599Y-16161D01*
X47599Y-15340D01*
X47599Y-15161D01*
X47599Y-14340D01*
X47599Y-14161D01*
X47599Y-13340D01*
X47599Y-13161D01*
X47599Y-12340D01*
X47599Y-12161D01*
X47599Y-11340D01*
X47599Y-11161D01*
X47599Y-10340D01*
X47599Y-10161D01*
X47599Y-09340D01*
X47599Y-09161D01*
X47531Y-08996D01*
X47405Y-08870D01*
X47240Y-08801D01*
X47061Y-08801D01*
X46896Y-08869D01*
X46770Y-08995D01*
X46701Y-09160D01*
X46701Y-09339D01*
X46769Y-09504D01*
X46895Y-09630D01*
X47060Y-09699D01*
X47239Y-09699D01*
X47404Y-09631D01*
X47530Y-09505D01*
X47599Y-09340D01*
X47599Y-10161D01*
X47531Y-09996D01*
X47405Y-09870D01*
X47240Y-09801D01*
X47061Y-09801D01*
X46896Y-09869D01*
X46770Y-09995D01*
X46701Y-10160D01*
X46701Y-10339D01*
X46769Y-10504D01*
X46895Y-10630D01*
X47060Y-10699D01*
X47239Y-10699D01*
X47404Y-10631D01*
X47530Y-10505D01*
X47599Y-10340D01*
X47599Y-11161D01*
X47531Y-10996D01*
X47405Y-10870D01*
X47240Y-10801D01*
X47061Y-10801D01*
X46896Y-10869D01*
X46770Y-10995D01*
X46701Y-11160D01*
X46701Y-11339D01*
X46769Y-11504D01*
X46895Y-11630D01*
X47060Y-11699D01*
X47239Y-11699D01*
X47404Y-11631D01*
X47530Y-11505D01*
X47599Y-11340D01*
X47599Y-12161D01*
X47531Y-11996D01*
X47405Y-11870D01*
X47240Y-11801D01*
X47061Y-11801D01*
X46896Y-11869D01*
X46770Y-11995D01*
X46701Y-12160D01*
X46701Y-12339D01*
X46769Y-12504D01*
X46895Y-12630D01*
X47060Y-12699D01*
X47239Y-12699D01*
X47404Y-12631D01*
X47530Y-12505D01*
X47599Y-12340D01*
X47599Y-13161D01*
X47531Y-12996D01*
X47405Y-12870D01*
X47240Y-12801D01*
X47061Y-12801D01*
X46896Y-12869D01*
X46770Y-12995D01*
X46701Y-13160D01*
X46701Y-13339D01*
X46769Y-13504D01*
X46895Y-13630D01*
X47060Y-13699D01*
X47239Y-13699D01*
X47404Y-13631D01*
X47530Y-13505D01*
X47599Y-13340D01*
X47599Y-14161D01*
X47531Y-13996D01*
X47405Y-13870D01*
X47240Y-13801D01*
X47061Y-13801D01*
X46896Y-13869D01*
X46770Y-13995D01*
X46701Y-14160D01*
X46701Y-14339D01*
X46769Y-14504D01*
X46895Y-14630D01*
X47060Y-14699D01*
X47239Y-14699D01*
X47404Y-14631D01*
X47530Y-14505D01*
X47599Y-14340D01*
X47599Y-15161D01*
X47531Y-14996D01*
X47405Y-14870D01*
X47240Y-14801D01*
X47061Y-14801D01*
X46896Y-14869D01*
X46770Y-14995D01*
X46701Y-15160D01*
X46701Y-15339D01*
X46769Y-15504D01*
X46895Y-15630D01*
X47060Y-15699D01*
X47239Y-15699D01*
X47404Y-15631D01*
X47530Y-15505D01*
X47599Y-15340D01*
X47599Y-16161D01*
X47531Y-15996D01*
X47405Y-15870D01*
X47240Y-15801D01*
X47061Y-15801D01*
X46896Y-15869D01*
X46770Y-15995D01*
X46701Y-16160D01*
X46701Y-16339D01*
X46769Y-16504D01*
X46895Y-16630D01*
X47060Y-16699D01*
X47239Y-16699D01*
X47404Y-16631D01*
X47530Y-16505D01*
X47599Y-16340D01*
X47599Y-17161D01*
X47531Y-16996D01*
X47405Y-16870D01*
X47240Y-16801D01*
X47061Y-16801D01*
X46896Y-16869D01*
X46770Y-16995D01*
X46701Y-17160D01*
X46701Y-17339D01*
X46769Y-17504D01*
X46895Y-17630D01*
X47060Y-17699D01*
X47239Y-17699D01*
X47404Y-17631D01*
X47530Y-17505D01*
X47599Y-17340D01*
X47599Y-18161D01*
X47531Y-17996D01*
X47405Y-17870D01*
X47240Y-17801D01*
X47061Y-17801D01*
X46896Y-17869D01*
X46770Y-17995D01*
X46701Y-18160D01*
X46701Y-18339D01*
X46769Y-18504D01*
X46895Y-18630D01*
X47060Y-18699D01*
X47239Y-18699D01*
X47404Y-18631D01*
X47530Y-18505D01*
X47599Y-18340D01*
X47599Y-19161D01*
X47531Y-18996D01*
X47405Y-18870D01*
X47240Y-18801D01*
X47061Y-18801D01*
X46896Y-18869D01*
X46770Y-18995D01*
X46701Y-19160D01*
X46701Y-19339D01*
X46769Y-19504D01*
X46895Y-19630D01*
X47060Y-19699D01*
X47239Y-19699D01*
X47404Y-19631D01*
X47530Y-19505D01*
X47599Y-19340D01*
X47599Y-20161D01*
X47531Y-19996D01*
X47405Y-19870D01*
X47240Y-19801D01*
X47061Y-19801D01*
X46896Y-19869D01*
X46770Y-19995D01*
X46701Y-20160D01*
X46701Y-20339D01*
X46769Y-20504D01*
X46895Y-20630D01*
X47060Y-20699D01*
X47239Y-20699D01*
X47404Y-20631D01*
X47530Y-20505D01*
X47599Y-20340D01*
X47599Y-21161D01*
X47531Y-20996D01*
X47405Y-20870D01*
X47240Y-20801D01*
X47061Y-20801D01*
X46896Y-20869D01*
X46770Y-20995D01*
X46701Y-21160D01*
X46701Y-21339D01*
X46769Y-21504D01*
X46895Y-21630D01*
X47060Y-21699D01*
X47239Y-21699D01*
X47404Y-21631D01*
X47530Y-21505D01*
X47599Y-21340D01*
X47599Y-22161D01*
X47531Y-21996D01*
X47405Y-21870D01*
X47240Y-21801D01*
X47061Y-21801D01*
X46896Y-21869D01*
X46770Y-21995D01*
X46701Y-22160D01*
X46701Y-22339D01*
X46769Y-22504D01*
X46895Y-22630D01*
X47060Y-22699D01*
X47239Y-22699D01*
X47404Y-22631D01*
X47530Y-22505D01*
X47599Y-22340D01*
X47599Y-23161D01*
X47531Y-22996D01*
X47405Y-22870D01*
X47240Y-22801D01*
X47061Y-22801D01*
X46896Y-22869D01*
X46770Y-22995D01*
X46701Y-23160D01*
X46701Y-23339D01*
X46769Y-23504D01*
X46895Y-23630D01*
X47060Y-23699D01*
X47239Y-23699D01*
X47404Y-23631D01*
X47530Y-23505D01*
X47599Y-23340D01*
X47599Y-24161D01*
X47531Y-23996D01*
X47405Y-23870D01*
X47240Y-23801D01*
X47061Y-23801D01*
X46896Y-23869D01*
X46770Y-23995D01*
X46701Y-24160D01*
X46701Y-24339D01*
X46769Y-24504D01*
X46895Y-24630D01*
X47060Y-24699D01*
X47239Y-24699D01*
X47404Y-24631D01*
X47530Y-24505D01*
X47599Y-24340D01*
X47599Y-25161D01*
X47531Y-24996D01*
X47405Y-24870D01*
X47240Y-24801D01*
X47061Y-24801D01*
X46896Y-24869D01*
X46770Y-24995D01*
X46701Y-25160D01*
X46701Y-25339D01*
X46769Y-25504D01*
X46895Y-25630D01*
X47060Y-25699D01*
X47239Y-25699D01*
X47404Y-25631D01*
X47530Y-25505D01*
X47599Y-25340D01*
X47599Y-25962D01*
X47528Y-25942D01*
X47458Y-26012D01*
X47458Y-25872D01*
X47431Y-25778D01*
X47229Y-25707D01*
X47016Y-25718D01*
X46869Y-25778D01*
X46842Y-25872D01*
X47150Y-26179D01*
X47458Y-25872D01*
X47458Y-26012D01*
X47221Y-26250D01*
X47528Y-26558D01*
X47622Y-26531D01*
X47693Y-26329D01*
X47693Y-27485D01*
X47675Y-27467D01*
X47458Y-27376D01*
X47458Y-26628D01*
X47150Y-26321D01*
X47079Y-26391D01*
X47079Y-26250D01*
X46772Y-25942D01*
X46678Y-25969D01*
X46652Y-26042D01*
X46622Y-25969D01*
X46599Y-25962D01*
X46599Y-25340D01*
X46599Y-25161D01*
X46599Y-24340D01*
X46599Y-24161D01*
X46599Y-23340D01*
X46599Y-23161D01*
X46599Y-22340D01*
X46599Y-22161D01*
X46599Y-21340D01*
X46599Y-21161D01*
X46599Y-20340D01*
X46599Y-20161D01*
X46599Y-19340D01*
X46599Y-19161D01*
X46599Y-18340D01*
X46599Y-18161D01*
X46599Y-17340D01*
X46599Y-17161D01*
X46599Y-16340D01*
X46599Y-16161D01*
X46599Y-15340D01*
X46599Y-15161D01*
X46599Y-14340D01*
X46599Y-14161D01*
X46599Y-13340D01*
X46599Y-13161D01*
X46599Y-12340D01*
X46599Y-12161D01*
X46599Y-11340D01*
X46599Y-11161D01*
X46599Y-10340D01*
X46599Y-10161D01*
X46599Y-09340D01*
X46599Y-09161D01*
X46531Y-08996D01*
X46405Y-08870D01*
X46240Y-08801D01*
X46061Y-08801D01*
X45896Y-08869D01*
X45770Y-08995D01*
X45701Y-09160D01*
X45701Y-09339D01*
X45769Y-09504D01*
X45895Y-09630D01*
X46060Y-09699D01*
X46239Y-09699D01*
X46404Y-09631D01*
X46530Y-09505D01*
X46599Y-09340D01*
X46599Y-10161D01*
X46531Y-09996D01*
X46405Y-09870D01*
X46240Y-09801D01*
X46061Y-09801D01*
X45896Y-09869D01*
X45770Y-09995D01*
X45701Y-10160D01*
X45701Y-10339D01*
X45769Y-10504D01*
X45895Y-10630D01*
X46060Y-10699D01*
X46239Y-10699D01*
X46404Y-10631D01*
X46530Y-10505D01*
X46599Y-10340D01*
X46599Y-11161D01*
X46531Y-10996D01*
X46405Y-10870D01*
X46240Y-10801D01*
X46061Y-10801D01*
X45896Y-10869D01*
X45770Y-10995D01*
X45701Y-11160D01*
X45701Y-11339D01*
X45769Y-11504D01*
X45895Y-11630D01*
X46060Y-11699D01*
X46239Y-11699D01*
X46404Y-11631D01*
X46530Y-11505D01*
X46599Y-11340D01*
X46599Y-12161D01*
X46531Y-11996D01*
X46405Y-11870D01*
X46240Y-11801D01*
X46061Y-11801D01*
X45896Y-11869D01*
X45770Y-11995D01*
X45701Y-12160D01*
X45701Y-12339D01*
X45769Y-12504D01*
X45895Y-12630D01*
X46060Y-12699D01*
X46239Y-12699D01*
X46404Y-12631D01*
X46530Y-12505D01*
X46599Y-12340D01*
X46599Y-13161D01*
X46531Y-12996D01*
X46405Y-12870D01*
X46240Y-12801D01*
X46061Y-12801D01*
X45896Y-12869D01*
X45770Y-12995D01*
X45701Y-13160D01*
X45701Y-13339D01*
X45769Y-13504D01*
X45895Y-13630D01*
X46060Y-13699D01*
X46239Y-13699D01*
X46404Y-13631D01*
X46530Y-13505D01*
X46599Y-13340D01*
X46599Y-14161D01*
X46531Y-13996D01*
X46405Y-13870D01*
X46240Y-13801D01*
X46061Y-13801D01*
X45896Y-13869D01*
X45770Y-13995D01*
X45701Y-14160D01*
X45701Y-14339D01*
X45769Y-14504D01*
X45895Y-14630D01*
X46060Y-14699D01*
X46239Y-14699D01*
X46404Y-14631D01*
X46530Y-14505D01*
X46599Y-14340D01*
X46599Y-15161D01*
X46531Y-14996D01*
X46405Y-14870D01*
X46240Y-14801D01*
X46061Y-14801D01*
X45896Y-14869D01*
X45770Y-14995D01*
X45701Y-15160D01*
X45701Y-15339D01*
X45769Y-15504D01*
X45895Y-15630D01*
X46060Y-15699D01*
X46239Y-15699D01*
X46404Y-15631D01*
X46530Y-15505D01*
X46599Y-15340D01*
X46599Y-16161D01*
X46531Y-15996D01*
X46405Y-15870D01*
X46240Y-15801D01*
X46061Y-15801D01*
X45896Y-15869D01*
X45770Y-15995D01*
X45701Y-16160D01*
X45701Y-16339D01*
X45769Y-16504D01*
X45895Y-16630D01*
X46060Y-16699D01*
X46239Y-16699D01*
X46404Y-16631D01*
X46530Y-16505D01*
X46599Y-16340D01*
X46599Y-17161D01*
X46531Y-16996D01*
X46405Y-16870D01*
X46240Y-16801D01*
X46061Y-16801D01*
X45896Y-16869D01*
X45770Y-16995D01*
X45701Y-17160D01*
X45701Y-17339D01*
X45769Y-17504D01*
X45895Y-17630D01*
X46060Y-17699D01*
X46239Y-17699D01*
X46404Y-17631D01*
X46530Y-17505D01*
X46599Y-17340D01*
X46599Y-18161D01*
X46531Y-17996D01*
X46405Y-17870D01*
X46240Y-17801D01*
X46061Y-17801D01*
X45896Y-17869D01*
X45770Y-17995D01*
X45701Y-18160D01*
X45701Y-18339D01*
X45769Y-18504D01*
X45895Y-18630D01*
X46060Y-18699D01*
X46239Y-18699D01*
X46404Y-18631D01*
X46530Y-18505D01*
X46599Y-18340D01*
X46599Y-19161D01*
X46531Y-18996D01*
X46405Y-18870D01*
X46240Y-18801D01*
X46061Y-18801D01*
X45896Y-18869D01*
X45770Y-18995D01*
X45701Y-19160D01*
X45701Y-19339D01*
X45769Y-19504D01*
X45895Y-19630D01*
X46060Y-19699D01*
X46239Y-19699D01*
X46404Y-19631D01*
X46530Y-19505D01*
X46599Y-19340D01*
X46599Y-20161D01*
X46531Y-19996D01*
X46405Y-19870D01*
X46240Y-19801D01*
X46061Y-19801D01*
X45896Y-19869D01*
X45770Y-19995D01*
X45701Y-20160D01*
X45701Y-20339D01*
X45769Y-20504D01*
X45895Y-20630D01*
X46060Y-20699D01*
X46239Y-20699D01*
X46404Y-20631D01*
X46530Y-20505D01*
X46599Y-20340D01*
X46599Y-21161D01*
X46531Y-20996D01*
X46405Y-20870D01*
X46240Y-20801D01*
X46061Y-20801D01*
X45896Y-20869D01*
X45770Y-20995D01*
X45701Y-21160D01*
X45701Y-21339D01*
X45769Y-21504D01*
X45895Y-21630D01*
X46060Y-21699D01*
X46239Y-21699D01*
X46404Y-21631D01*
X46530Y-21505D01*
X46599Y-21340D01*
X46599Y-22161D01*
X46531Y-21996D01*
X46405Y-21870D01*
X46240Y-21801D01*
X46061Y-21801D01*
X45896Y-21869D01*
X45770Y-21995D01*
X45701Y-22160D01*
X45701Y-22339D01*
X45769Y-22504D01*
X45895Y-22630D01*
X46060Y-22699D01*
X46239Y-22699D01*
X46404Y-22631D01*
X46530Y-22505D01*
X46599Y-22340D01*
X46599Y-23161D01*
X46531Y-22996D01*
X46405Y-22870D01*
X46240Y-22801D01*
X46061Y-22801D01*
X45896Y-22869D01*
X45770Y-22995D01*
X45701Y-23160D01*
X45701Y-23339D01*
X45769Y-23504D01*
X45895Y-23630D01*
X46060Y-23699D01*
X46239Y-23699D01*
X46404Y-23631D01*
X46530Y-23505D01*
X46599Y-23340D01*
X46599Y-24161D01*
X46531Y-23996D01*
X46405Y-23870D01*
X46240Y-23801D01*
X46061Y-23801D01*
X45896Y-23869D01*
X45770Y-23995D01*
X45701Y-24160D01*
X45701Y-24339D01*
X45769Y-24504D01*
X45895Y-24630D01*
X46060Y-24699D01*
X46239Y-24699D01*
X46404Y-24631D01*
X46530Y-24505D01*
X46599Y-24340D01*
X46599Y-25161D01*
X46531Y-24996D01*
X46405Y-24870D01*
X46240Y-24801D01*
X46061Y-24801D01*
X45935Y-24852D01*
X45450Y-24367D01*
X45450Y-23110D01*
X45525Y-23035D01*
X45575Y-22915D01*
X45575Y-22786D01*
X45526Y-22666D01*
X45435Y-22575D01*
X45315Y-22525D01*
X45186Y-22525D01*
X45066Y-22574D01*
X44975Y-22665D01*
X44925Y-22785D01*
X44925Y-22914D01*
X44974Y-23034D01*
X45050Y-23110D01*
X45050Y-24450D01*
X45065Y-24527D01*
X45109Y-24591D01*
X45701Y-25183D01*
X45701Y-25339D01*
X45769Y-25504D01*
X45895Y-25630D01*
X46060Y-25699D01*
X46239Y-25699D01*
X46404Y-25631D01*
X46530Y-25505D01*
X46599Y-25340D01*
X46599Y-25962D01*
X46528Y-25942D01*
X46458Y-26012D01*
X46458Y-25872D01*
X46431Y-25778D01*
X46229Y-25707D01*
X46016Y-25718D01*
X45869Y-25778D01*
X45842Y-25872D01*
X46150Y-26179D01*
X46458Y-25872D01*
X46458Y-26012D01*
X46221Y-26250D01*
X46528Y-26558D01*
X46622Y-26531D01*
X46647Y-26457D01*
X46678Y-26531D01*
X46772Y-26558D01*
X47079Y-26250D01*
X47079Y-26391D01*
X46842Y-26628D01*
X46869Y-26722D01*
X47071Y-26793D01*
X47284Y-26782D01*
X47431Y-26722D01*
X47458Y-26628D01*
X47458Y-27376D01*
X47335Y-27325D01*
X46967Y-27325D01*
X46627Y-27465D01*
X46458Y-27634D01*
X46458Y-26628D01*
X46150Y-26321D01*
X46079Y-26391D01*
X46079Y-26250D01*
X45772Y-25942D01*
X45678Y-25969D01*
X45607Y-26171D01*
X45618Y-26384D01*
X45678Y-26531D01*
X45772Y-26558D01*
X46079Y-26250D01*
X46079Y-26391D01*
X45842Y-26628D01*
X45869Y-26722D01*
X46071Y-26793D01*
X46284Y-26782D01*
X46431Y-26722D01*
X46458Y-26628D01*
X46458Y-27634D01*
X46367Y-27725D01*
X46225Y-28065D01*
X46225Y-28433D01*
X46365Y-28773D01*
X46625Y-29033D01*
X46965Y-29175D01*
X47333Y-29175D01*
X47673Y-29035D01*
X47933Y-28775D01*
X48075Y-28435D01*
X48075Y-44525D01*
X47425Y-44525D01*
X47425Y-33915D01*
X47425Y-33786D01*
X47376Y-33666D01*
X47285Y-33575D01*
X47165Y-33525D01*
X47036Y-33525D01*
X46916Y-33574D01*
X46825Y-33665D01*
X46775Y-33785D01*
X46775Y-33892D01*
X46092Y-34574D01*
X46081Y-34546D01*
X45955Y-34420D01*
X45927Y-34408D01*
X46068Y-34350D01*
X46250Y-34168D01*
X46349Y-33929D01*
X46349Y-33671D01*
X46250Y-33432D01*
X46149Y-33331D01*
X46149Y-31650D01*
X46149Y-31352D01*
X46035Y-31077D01*
X45825Y-30866D01*
X45591Y-30768D01*
X45591Y-28550D01*
X45591Y-28375D01*
X45591Y-27951D01*
X45524Y-27789D01*
X45400Y-27665D01*
X45238Y-27597D01*
X45063Y-27597D01*
X44975Y-27633D01*
X44975Y-24715D01*
X44975Y-24586D01*
X44926Y-24466D01*
X44835Y-24375D01*
X44715Y-24325D01*
X44586Y-24325D01*
X44466Y-24374D01*
X44375Y-24465D01*
X44339Y-24550D01*
X44305Y-24550D01*
X44301Y-24540D01*
X44259Y-24498D01*
X44204Y-24476D01*
X44145Y-24476D01*
X43695Y-24476D01*
X43640Y-24499D01*
X43598Y-24541D01*
X43594Y-24550D01*
X43591Y-24550D01*
X43591Y-09550D01*
X43591Y-09375D01*
X43591Y-08951D01*
X43524Y-08789D01*
X43400Y-08665D01*
X43238Y-08597D01*
X43063Y-08597D01*
X42901Y-08664D01*
X42777Y-08788D01*
X42709Y-08950D01*
X42709Y-09125D01*
X42709Y-09549D01*
X42776Y-09711D01*
X42900Y-09835D01*
X42950Y-09855D01*
X42950Y-12267D01*
X42800Y-12417D01*
X42350Y-11967D01*
X42350Y-09856D01*
X42399Y-09836D01*
X42523Y-09712D01*
X42591Y-09550D01*
X42591Y-09375D01*
X42591Y-08951D01*
X42524Y-08789D01*
X42400Y-08665D01*
X42238Y-08597D01*
X42063Y-08597D01*
X41901Y-08664D01*
X41777Y-08788D01*
X41709Y-08950D01*
X41709Y-09125D01*
X41709Y-09549D01*
X41776Y-09711D01*
X41900Y-09835D01*
X41950Y-09855D01*
X41950Y-12050D01*
X41965Y-12127D01*
X42009Y-12191D01*
X42472Y-12654D01*
X42472Y-12693D01*
X42453Y-12712D01*
X42453Y-12858D01*
X42448Y-12871D01*
X42448Y-12930D01*
X42448Y-13430D01*
X42453Y-13441D01*
X42453Y-13588D01*
X42515Y-13650D01*
X42540Y-13649D01*
X42632Y-13611D01*
X42694Y-13549D01*
X42777Y-13549D01*
X42799Y-13539D01*
X42824Y-13549D01*
X42883Y-13549D01*
X42906Y-13549D01*
X42968Y-13611D01*
X43060Y-13649D01*
X43085Y-13650D01*
X43147Y-13588D01*
X43147Y-13441D01*
X43152Y-13429D01*
X43152Y-13370D01*
X43152Y-12870D01*
X43147Y-12858D01*
X43147Y-12712D01*
X43128Y-12693D01*
X43128Y-12654D01*
X43291Y-12492D01*
X43291Y-12491D01*
X43335Y-12427D01*
X43349Y-12351D01*
X43350Y-12350D01*
X43350Y-09856D01*
X43399Y-09836D01*
X43523Y-09712D01*
X43591Y-09550D01*
X43591Y-24550D01*
X43509Y-24550D01*
X43509Y-13262D01*
X43509Y-13038D01*
X43508Y-12949D01*
X43508Y-12850D01*
X43470Y-12759D01*
X43400Y-12689D01*
X43308Y-12651D01*
X43283Y-12650D01*
X43221Y-12712D01*
X43221Y-13100D01*
X43447Y-13100D01*
X43509Y-13038D01*
X43509Y-13262D01*
X43447Y-13200D01*
X43221Y-13200D01*
X43221Y-13588D01*
X43283Y-13650D01*
X43308Y-13649D01*
X43400Y-13611D01*
X43470Y-13541D01*
X43508Y-13450D01*
X43508Y-13351D01*
X43509Y-13262D01*
X43509Y-24550D01*
X43408Y-24550D01*
X43408Y-15129D01*
X43408Y-15070D01*
X43408Y-14570D01*
X43385Y-14515D01*
X43343Y-14473D01*
X43288Y-14451D01*
X43229Y-14451D01*
X43079Y-14451D01*
X43056Y-14460D01*
X43032Y-14451D01*
X42973Y-14451D01*
X42823Y-14451D01*
X42800Y-14460D01*
X42776Y-14451D01*
X42717Y-14451D01*
X42567Y-14451D01*
X42544Y-14460D01*
X42520Y-14451D01*
X42461Y-14451D01*
X42379Y-14451D01*
X42379Y-13588D01*
X42379Y-13200D01*
X42379Y-13100D01*
X42379Y-12712D01*
X42317Y-12650D01*
X42292Y-12651D01*
X42200Y-12689D01*
X42130Y-12759D01*
X42092Y-12850D01*
X42092Y-12949D01*
X42091Y-13038D01*
X42153Y-13100D01*
X42379Y-13100D01*
X42379Y-13200D01*
X42153Y-13200D01*
X42091Y-13262D01*
X42091Y-13333D01*
X42075Y-13326D01*
X41976Y-13326D01*
X41912Y-13325D01*
X41850Y-13387D01*
X41850Y-13650D01*
X42213Y-13650D01*
X42236Y-13626D01*
X42292Y-13649D01*
X42317Y-13650D01*
X42379Y-13588D01*
X42379Y-14451D01*
X42311Y-14451D01*
X42256Y-14473D01*
X42174Y-14391D01*
X42174Y-14145D01*
X42151Y-14090D01*
X42117Y-14056D01*
X42166Y-14036D01*
X42236Y-13966D01*
X42274Y-13874D01*
X42275Y-13812D01*
X42213Y-13750D01*
X41900Y-13750D01*
X41850Y-13750D01*
X41750Y-13750D01*
X41750Y-13650D01*
X41750Y-13600D01*
X41750Y-13387D01*
X41688Y-13325D01*
X41624Y-13326D01*
X41591Y-13326D01*
X41591Y-09550D01*
X41591Y-09375D01*
X41591Y-08951D01*
X41524Y-08789D01*
X41400Y-08665D01*
X41238Y-08597D01*
X41063Y-08597D01*
X40901Y-08664D01*
X40777Y-08788D01*
X40709Y-08950D01*
X40709Y-09125D01*
X40709Y-09549D01*
X40776Y-09711D01*
X40900Y-09835D01*
X41062Y-09903D01*
X41237Y-09903D01*
X41399Y-09836D01*
X41523Y-09712D01*
X41591Y-09550D01*
X41591Y-13326D01*
X41525Y-13326D01*
X41434Y-13364D01*
X41364Y-13434D01*
X41352Y-13461D01*
X41325Y-13449D01*
X41325Y-13165D01*
X41325Y-13036D01*
X41276Y-12916D01*
X41185Y-12825D01*
X41065Y-12775D01*
X40941Y-12775D01*
X40927Y-12765D01*
X40850Y-12750D01*
X40824Y-12750D01*
X40824Y-12695D01*
X40801Y-12640D01*
X40759Y-12598D01*
X40704Y-12576D01*
X40645Y-12576D01*
X40591Y-12576D01*
X40591Y-09550D01*
X40591Y-09375D01*
X40591Y-08951D01*
X40524Y-08789D01*
X40400Y-08665D01*
X40238Y-08597D01*
X40063Y-08597D01*
X39901Y-08664D01*
X39777Y-08788D01*
X39709Y-08950D01*
X39709Y-09125D01*
X39709Y-09549D01*
X39776Y-09711D01*
X39900Y-09835D01*
X40062Y-09903D01*
X40237Y-09903D01*
X40399Y-09836D01*
X40523Y-09712D01*
X40591Y-09550D01*
X40591Y-12576D01*
X40395Y-12576D01*
X40340Y-12599D01*
X40306Y-12632D01*
X40286Y-12584D01*
X40216Y-12514D01*
X40124Y-12476D01*
X40062Y-12475D01*
X40000Y-12537D01*
X40000Y-12850D01*
X40000Y-12900D01*
X40000Y-13000D01*
X40000Y-13050D01*
X40000Y-13363D01*
X40062Y-13425D01*
X40124Y-13424D01*
X40216Y-13386D01*
X40286Y-13316D01*
X40306Y-13267D01*
X40341Y-13302D01*
X40396Y-13324D01*
X40455Y-13324D01*
X40705Y-13324D01*
X40746Y-13306D01*
X40815Y-13375D01*
X40935Y-13425D01*
X41064Y-13425D01*
X41184Y-13376D01*
X41275Y-13285D01*
X41325Y-13165D01*
X41325Y-13449D01*
X41265Y-13425D01*
X41136Y-13425D01*
X41016Y-13474D01*
X40925Y-13565D01*
X40875Y-13685D01*
X40875Y-13814D01*
X40924Y-13934D01*
X41015Y-14025D01*
X41135Y-14075D01*
X41242Y-14075D01*
X41426Y-14258D01*
X41426Y-14455D01*
X41449Y-14510D01*
X41491Y-14552D01*
X41546Y-14574D01*
X41605Y-14574D01*
X41791Y-14574D01*
X42192Y-14974D01*
X42192Y-15130D01*
X42200Y-15150D01*
X41532Y-15150D01*
X40175Y-13792D01*
X40175Y-13686D01*
X40126Y-13566D01*
X40035Y-13475D01*
X39915Y-13425D01*
X39838Y-13425D01*
X39900Y-13363D01*
X39900Y-13000D01*
X39900Y-12900D01*
X39900Y-12537D01*
X39838Y-12475D01*
X39776Y-12476D01*
X39684Y-12514D01*
X39614Y-12584D01*
X39591Y-12639D01*
X39591Y-09550D01*
X39591Y-09375D01*
X39591Y-08951D01*
X39524Y-08789D01*
X39400Y-08665D01*
X39238Y-08597D01*
X39063Y-08597D01*
X38901Y-08664D01*
X38777Y-08788D01*
X38709Y-08950D01*
X38709Y-09125D01*
X38709Y-09549D01*
X38776Y-09711D01*
X38900Y-09835D01*
X39062Y-09903D01*
X39237Y-09903D01*
X39399Y-09836D01*
X39523Y-09712D01*
X39591Y-09550D01*
X39591Y-12639D01*
X39576Y-12675D01*
X39576Y-12774D01*
X39575Y-12838D01*
X39637Y-12900D01*
X39900Y-12900D01*
X39900Y-13000D01*
X39637Y-13000D01*
X39575Y-13062D01*
X39576Y-13126D01*
X39576Y-13225D01*
X39614Y-13316D01*
X39684Y-13386D01*
X39776Y-13424D01*
X39838Y-13425D01*
X39786Y-13425D01*
X39666Y-13474D01*
X39575Y-13565D01*
X39525Y-13685D01*
X39525Y-13814D01*
X39574Y-13934D01*
X39665Y-14025D01*
X39785Y-14075D01*
X39892Y-14075D01*
X40242Y-14425D01*
X40186Y-14425D01*
X40066Y-14474D01*
X39990Y-14550D01*
X38875Y-14550D01*
X38875Y-12415D01*
X38875Y-12286D01*
X38826Y-12166D01*
X38735Y-12075D01*
X38615Y-12025D01*
X38591Y-12025D01*
X38591Y-09550D01*
X38591Y-09375D01*
X38591Y-08951D01*
X38524Y-08789D01*
X38400Y-08665D01*
X38238Y-08597D01*
X38063Y-08597D01*
X37901Y-08664D01*
X37777Y-08788D01*
X37709Y-08950D01*
X37709Y-09125D01*
X37709Y-09549D01*
X37776Y-09711D01*
X37900Y-09835D01*
X38062Y-09903D01*
X38237Y-09903D01*
X38399Y-09836D01*
X38523Y-09712D01*
X38591Y-09550D01*
X38591Y-12025D01*
X38486Y-12025D01*
X38366Y-12074D01*
X38275Y-12165D01*
X38239Y-12250D01*
X37591Y-12250D01*
X37591Y-09550D01*
X37591Y-09375D01*
X37591Y-08951D01*
X37524Y-08789D01*
X37400Y-08665D01*
X37238Y-08597D01*
X37063Y-08597D01*
X36901Y-08664D01*
X36777Y-08788D01*
X36709Y-08950D01*
X36709Y-09125D01*
X36709Y-09549D01*
X36776Y-09711D01*
X36900Y-09835D01*
X37062Y-09903D01*
X37237Y-09903D01*
X37399Y-09836D01*
X37523Y-09712D01*
X37591Y-09550D01*
X37591Y-12250D01*
X36591Y-12250D01*
X36591Y-09550D01*
X36591Y-09375D01*
X36591Y-08951D01*
X36524Y-08789D01*
X36400Y-08665D01*
X36238Y-08597D01*
X36063Y-08597D01*
X35901Y-08664D01*
X35777Y-08788D01*
X35709Y-08950D01*
X35709Y-09125D01*
X35709Y-09549D01*
X35776Y-09711D01*
X35900Y-09835D01*
X36062Y-09903D01*
X36237Y-09903D01*
X36399Y-09836D01*
X36523Y-09712D01*
X36591Y-09550D01*
X36591Y-12250D01*
X34591Y-12250D01*
X34591Y-09550D01*
X34591Y-09375D01*
X34591Y-08951D01*
X34524Y-08789D01*
X34400Y-08665D01*
X34238Y-08597D01*
X34063Y-08597D01*
X33901Y-08664D01*
X33777Y-08788D01*
X33709Y-08950D01*
X33709Y-09125D01*
X33709Y-09549D01*
X33776Y-09711D01*
X33900Y-09835D01*
X34062Y-09903D01*
X34237Y-09903D01*
X34399Y-09836D01*
X34523Y-09712D01*
X34591Y-09550D01*
X34591Y-12250D01*
X33591Y-12250D01*
X33591Y-09550D01*
X33591Y-09375D01*
X33591Y-08951D01*
X33524Y-08789D01*
X33400Y-08665D01*
X33238Y-08597D01*
X33063Y-08597D01*
X32901Y-08664D01*
X32777Y-08788D01*
X32709Y-08950D01*
X32709Y-09125D01*
X32709Y-09549D01*
X32776Y-09711D01*
X32900Y-09835D01*
X33062Y-09903D01*
X33237Y-09903D01*
X33399Y-09836D01*
X33523Y-09712D01*
X33591Y-09550D01*
X33591Y-12250D01*
X32591Y-12250D01*
X32591Y-09550D01*
X32591Y-09375D01*
X32591Y-08951D01*
X32524Y-08789D01*
X32400Y-08665D01*
X32238Y-08597D01*
X32063Y-08597D01*
X31901Y-08664D01*
X31777Y-08788D01*
X31709Y-08950D01*
X31709Y-09125D01*
X31709Y-09549D01*
X31776Y-09711D01*
X31900Y-09835D01*
X32062Y-09903D01*
X32237Y-09903D01*
X32399Y-09836D01*
X32523Y-09712D01*
X32591Y-09550D01*
X32591Y-12250D01*
X31910Y-12250D01*
X31835Y-12175D01*
X31715Y-12125D01*
X31591Y-12125D01*
X31591Y-09550D01*
X31591Y-09375D01*
X31591Y-08951D01*
X31524Y-08789D01*
X31400Y-08665D01*
X31238Y-08597D01*
X31063Y-08597D01*
X30901Y-08664D01*
X30777Y-08788D01*
X30709Y-08950D01*
X30709Y-09125D01*
X30709Y-09549D01*
X30776Y-09711D01*
X30900Y-09835D01*
X31062Y-09903D01*
X31237Y-09903D01*
X31399Y-09836D01*
X31523Y-09712D01*
X31591Y-09550D01*
X31591Y-12125D01*
X31586Y-12125D01*
X31466Y-12174D01*
X31406Y-12233D01*
X31386Y-12184D01*
X31316Y-12114D01*
X31225Y-12076D01*
X31126Y-12076D01*
X31062Y-12075D01*
X31000Y-12137D01*
X31000Y-12350D01*
X31000Y-12400D01*
X31000Y-12500D01*
X30900Y-12500D01*
X30900Y-12400D01*
X30900Y-12137D01*
X30838Y-12075D01*
X30774Y-12076D01*
X30675Y-12076D01*
X30591Y-12111D01*
X30591Y-09550D01*
X30591Y-09375D01*
X30591Y-08951D01*
X30524Y-08789D01*
X30400Y-08665D01*
X30238Y-08597D01*
X30063Y-08597D01*
X29901Y-08664D01*
X29777Y-08788D01*
X29709Y-08950D01*
X29709Y-09125D01*
X29709Y-09549D01*
X29776Y-09711D01*
X29900Y-09835D01*
X30062Y-09903D01*
X30237Y-09903D01*
X30399Y-09836D01*
X30523Y-09712D01*
X30591Y-09550D01*
X30591Y-12111D01*
X30584Y-12114D01*
X30514Y-12184D01*
X30476Y-12276D01*
X30475Y-12338D01*
X30537Y-12400D01*
X30900Y-12400D01*
X30900Y-12500D01*
X30850Y-12500D01*
X30537Y-12500D01*
X30475Y-12562D01*
X30476Y-12624D01*
X30514Y-12716D01*
X30578Y-12780D01*
X30565Y-12775D01*
X30436Y-12775D01*
X30316Y-12824D01*
X30225Y-12915D01*
X30175Y-13035D01*
X30175Y-13164D01*
X30224Y-13284D01*
X30315Y-13375D01*
X30435Y-13425D01*
X30564Y-13425D01*
X30684Y-13376D01*
X30736Y-13324D01*
X30755Y-13324D01*
X31205Y-13324D01*
X31260Y-13301D01*
X31302Y-13259D01*
X31324Y-13204D01*
X31324Y-13145D01*
X31324Y-12895D01*
X31301Y-12840D01*
X31267Y-12806D01*
X31316Y-12786D01*
X31386Y-12716D01*
X31406Y-12666D01*
X31465Y-12725D01*
X31585Y-12775D01*
X31714Y-12775D01*
X31834Y-12726D01*
X31910Y-12650D01*
X38425Y-12650D01*
X38485Y-12675D01*
X38614Y-12675D01*
X38734Y-12626D01*
X38825Y-12535D01*
X38875Y-12415D01*
X38875Y-14550D01*
X36810Y-14550D01*
X36735Y-14475D01*
X36615Y-14425D01*
X36486Y-14425D01*
X36366Y-14474D01*
X36290Y-14550D01*
X30710Y-14550D01*
X30635Y-14475D01*
X30515Y-14425D01*
X30386Y-14425D01*
X30266Y-14474D01*
X30190Y-14550D01*
X30075Y-14550D01*
X30075Y-13165D01*
X30075Y-13036D01*
X30026Y-12916D01*
X29935Y-12825D01*
X29815Y-12775D01*
X29686Y-12775D01*
X29670Y-12781D01*
X29686Y-12766D01*
X29724Y-12674D01*
X29725Y-12612D01*
X29725Y-12388D01*
X29724Y-12326D01*
X29686Y-12234D01*
X29616Y-12164D01*
X29591Y-12153D01*
X29591Y-09550D01*
X29591Y-09375D01*
X29591Y-08951D01*
X29524Y-08789D01*
X29400Y-08665D01*
X29238Y-08597D01*
X29063Y-08597D01*
X28901Y-08664D01*
X28777Y-08788D01*
X28709Y-08950D01*
X28709Y-09125D01*
X28709Y-09549D01*
X28776Y-09711D01*
X28900Y-09835D01*
X29062Y-09903D01*
X29237Y-09903D01*
X29399Y-09836D01*
X29523Y-09712D01*
X29591Y-09550D01*
X29591Y-12153D01*
X29525Y-12126D01*
X29426Y-12126D01*
X29362Y-12125D01*
X29300Y-12187D01*
X29300Y-12450D01*
X29663Y-12450D01*
X29725Y-12388D01*
X29725Y-12612D01*
X29663Y-12550D01*
X29350Y-12550D01*
X29300Y-12550D01*
X29200Y-12550D01*
X29200Y-12450D01*
X29200Y-12187D01*
X29138Y-12125D01*
X29074Y-12126D01*
X28975Y-12126D01*
X28884Y-12164D01*
X28814Y-12234D01*
X28776Y-12326D01*
X28775Y-12388D01*
X28837Y-12450D01*
X29200Y-12450D01*
X29200Y-12550D01*
X29150Y-12550D01*
X28837Y-12550D01*
X28775Y-12612D01*
X28776Y-12674D01*
X28814Y-12766D01*
X28884Y-12836D01*
X28932Y-12856D01*
X28898Y-12891D01*
X28876Y-12946D01*
X28876Y-13005D01*
X28876Y-13255D01*
X28899Y-13310D01*
X28941Y-13352D01*
X28996Y-13374D01*
X29055Y-13374D01*
X29505Y-13374D01*
X29546Y-13356D01*
X29565Y-13375D01*
X29685Y-13425D01*
X29814Y-13425D01*
X29934Y-13376D01*
X30025Y-13285D01*
X30075Y-13165D01*
X30075Y-14550D01*
X28591Y-14550D01*
X28591Y-09550D01*
X28591Y-09375D01*
X28591Y-08951D01*
X28524Y-08789D01*
X28400Y-08665D01*
X28238Y-08597D01*
X28063Y-08597D01*
X27901Y-08664D01*
X27777Y-08788D01*
X27709Y-08950D01*
X27709Y-09125D01*
X27709Y-09549D01*
X27776Y-09711D01*
X27900Y-09835D01*
X28062Y-09903D01*
X28237Y-09903D01*
X28399Y-09836D01*
X28523Y-09712D01*
X28591Y-09550D01*
X28591Y-14550D01*
X27591Y-14550D01*
X27591Y-09550D01*
X27591Y-09375D01*
X27591Y-08951D01*
X27524Y-08789D01*
X27400Y-08665D01*
X27238Y-08597D01*
X27063Y-08597D01*
X26901Y-08664D01*
X26777Y-08788D01*
X26709Y-08950D01*
X26709Y-09125D01*
X26709Y-09549D01*
X26776Y-09711D01*
X26900Y-09835D01*
X27062Y-09903D01*
X27237Y-09903D01*
X27399Y-09836D01*
X27523Y-09712D01*
X27591Y-09550D01*
X27591Y-14550D01*
X27510Y-14550D01*
X27435Y-14475D01*
X27315Y-14425D01*
X27186Y-14425D01*
X27066Y-14474D01*
X26975Y-14565D01*
X26925Y-14685D01*
X26925Y-14814D01*
X26974Y-14934D01*
X27065Y-15025D01*
X27185Y-15075D01*
X27314Y-15075D01*
X27434Y-15026D01*
X27510Y-14950D01*
X30190Y-14950D01*
X30265Y-15025D01*
X30385Y-15075D01*
X30514Y-15075D01*
X30634Y-15026D01*
X30710Y-14950D01*
X36290Y-14950D01*
X36365Y-15025D01*
X36485Y-15075D01*
X36614Y-15075D01*
X36734Y-15026D01*
X36810Y-14950D01*
X39990Y-14950D01*
X40065Y-15025D01*
X40185Y-15075D01*
X40314Y-15075D01*
X40434Y-15026D01*
X40525Y-14935D01*
X40575Y-14815D01*
X40575Y-14757D01*
X41308Y-15491D01*
X41309Y-15491D01*
X41373Y-15535D01*
X41449Y-15549D01*
X41450Y-15550D01*
X42850Y-15550D01*
X42850Y-15549D01*
X42926Y-15535D01*
X42927Y-15535D01*
X42991Y-15491D01*
X43069Y-15414D01*
X43069Y-15413D01*
X43113Y-15349D01*
X43127Y-15272D01*
X43128Y-15272D01*
X43128Y-15249D01*
X43139Y-15249D01*
X43289Y-15249D01*
X43344Y-15226D01*
X43386Y-15184D01*
X43408Y-15129D01*
X43408Y-24550D01*
X43310Y-24550D01*
X43250Y-24490D01*
X43250Y-24010D01*
X43325Y-23935D01*
X43375Y-23815D01*
X43375Y-23686D01*
X43326Y-23566D01*
X43235Y-23475D01*
X43115Y-23425D01*
X42986Y-23425D01*
X42866Y-23474D01*
X42775Y-23565D01*
X42725Y-23685D01*
X42725Y-23814D01*
X42774Y-23934D01*
X42850Y-24010D01*
X42850Y-24490D01*
X42775Y-24565D01*
X42725Y-24685D01*
X42725Y-24814D01*
X42774Y-24934D01*
X42865Y-25025D01*
X42985Y-25075D01*
X43114Y-25075D01*
X43234Y-25026D01*
X43310Y-24950D01*
X43594Y-24950D01*
X43599Y-24960D01*
X43632Y-24993D01*
X43584Y-25014D01*
X43514Y-25084D01*
X43476Y-25176D01*
X43475Y-25238D01*
X43537Y-25300D01*
X43850Y-25300D01*
X43900Y-25300D01*
X44000Y-25300D01*
X44050Y-25300D01*
X44363Y-25300D01*
X44425Y-25238D01*
X44424Y-25176D01*
X44386Y-25084D01*
X44316Y-25014D01*
X44267Y-24993D01*
X44302Y-24959D01*
X44305Y-24950D01*
X44525Y-24950D01*
X44585Y-24975D01*
X44714Y-24975D01*
X44834Y-24926D01*
X44925Y-24835D01*
X44975Y-24715D01*
X44975Y-27633D01*
X44901Y-27664D01*
X44777Y-27788D01*
X44709Y-27950D01*
X44709Y-28125D01*
X44709Y-28549D01*
X44776Y-28711D01*
X44900Y-28835D01*
X45062Y-28903D01*
X45237Y-28903D01*
X45399Y-28836D01*
X45523Y-28712D01*
X45591Y-28550D01*
X45591Y-30768D01*
X45550Y-30751D01*
X45252Y-30751D01*
X44977Y-30865D01*
X44766Y-31075D01*
X44651Y-31350D01*
X44651Y-31648D01*
X44765Y-31923D01*
X44975Y-32134D01*
X45250Y-32249D01*
X45548Y-32249D01*
X45823Y-32135D01*
X46034Y-31925D01*
X46149Y-31650D01*
X46149Y-33331D01*
X46068Y-33250D01*
X45829Y-33151D01*
X45571Y-33151D01*
X45332Y-33250D01*
X45150Y-33432D01*
X45141Y-33452D01*
X45126Y-33415D01*
X45084Y-33373D01*
X45029Y-33351D01*
X44970Y-33351D01*
X44591Y-33351D01*
X44591Y-28550D01*
X44591Y-28375D01*
X44591Y-27951D01*
X44524Y-27789D01*
X44425Y-27690D01*
X44425Y-25462D01*
X44363Y-25400D01*
X44000Y-25400D01*
X44000Y-25663D01*
X44062Y-25725D01*
X44126Y-25724D01*
X44225Y-25724D01*
X44316Y-25686D01*
X44386Y-25616D01*
X44424Y-25524D01*
X44425Y-25462D01*
X44425Y-27690D01*
X44400Y-27665D01*
X44238Y-27597D01*
X44063Y-27597D01*
X43901Y-27664D01*
X43900Y-27665D01*
X43900Y-25663D01*
X43900Y-25400D01*
X43537Y-25400D01*
X43475Y-25462D01*
X43476Y-25524D01*
X43514Y-25616D01*
X43584Y-25686D01*
X43675Y-25724D01*
X43774Y-25724D01*
X43838Y-25725D01*
X43900Y-25663D01*
X43900Y-27665D01*
X43777Y-27788D01*
X43709Y-27950D01*
X43709Y-28125D01*
X43709Y-28549D01*
X43776Y-28711D01*
X43900Y-28835D01*
X44062Y-28903D01*
X44237Y-28903D01*
X44399Y-28836D01*
X44523Y-28712D01*
X44591Y-28550D01*
X44591Y-33351D01*
X44370Y-33351D01*
X44315Y-33374D01*
X44273Y-33416D01*
X44251Y-33471D01*
X44251Y-33530D01*
X44251Y-34130D01*
X44274Y-34185D01*
X44316Y-34227D01*
X44371Y-34249D01*
X44430Y-34249D01*
X45030Y-34249D01*
X45085Y-34226D01*
X45127Y-34184D01*
X45141Y-34147D01*
X45150Y-34168D01*
X45332Y-34350D01*
X45472Y-34408D01*
X45446Y-34419D01*
X45320Y-34545D01*
X45251Y-34710D01*
X45251Y-34889D01*
X45319Y-35054D01*
X45445Y-35180D01*
X45610Y-35249D01*
X45789Y-35249D01*
X45954Y-35181D01*
X46080Y-35055D01*
X46103Y-35000D01*
X46150Y-35000D01*
X46150Y-34999D01*
X46226Y-34985D01*
X46227Y-34985D01*
X46291Y-34941D01*
X47057Y-34175D01*
X47164Y-34175D01*
X47284Y-34126D01*
X47375Y-34035D01*
X47425Y-33915D01*
X47425Y-44525D01*
X46243Y-44525D01*
X46243Y-37879D01*
X46243Y-36879D01*
X46243Y-35879D01*
X46232Y-35666D01*
X46172Y-35519D01*
X46078Y-35492D01*
X46008Y-35562D01*
X46008Y-35422D01*
X45981Y-35328D01*
X45779Y-35257D01*
X45566Y-35268D01*
X45419Y-35328D01*
X45392Y-35422D01*
X45700Y-35729D01*
X46008Y-35422D01*
X46008Y-35562D01*
X45771Y-35800D01*
X46078Y-36108D01*
X46172Y-36081D01*
X46243Y-35879D01*
X46243Y-36879D01*
X46232Y-36666D01*
X46172Y-36519D01*
X46078Y-36492D01*
X46008Y-36562D01*
X46008Y-36422D01*
X45981Y-36328D01*
X45907Y-36302D01*
X45981Y-36272D01*
X46008Y-36178D01*
X45700Y-35871D01*
X45392Y-36178D01*
X45419Y-36272D01*
X45492Y-36297D01*
X45419Y-36328D01*
X45392Y-36422D01*
X45700Y-36729D01*
X46008Y-36422D01*
X46008Y-36562D01*
X45771Y-36800D01*
X46078Y-37108D01*
X46172Y-37081D01*
X46243Y-36879D01*
X46243Y-37879D01*
X46232Y-37666D01*
X46172Y-37519D01*
X46078Y-37492D01*
X46008Y-37562D01*
X46008Y-37422D01*
X45981Y-37328D01*
X45907Y-37302D01*
X45981Y-37272D01*
X46008Y-37178D01*
X45700Y-36871D01*
X45392Y-37178D01*
X45419Y-37272D01*
X45492Y-37297D01*
X45419Y-37328D01*
X45392Y-37422D01*
X45700Y-37729D01*
X46008Y-37422D01*
X46008Y-37562D01*
X45771Y-37800D01*
X46078Y-38108D01*
X46172Y-38081D01*
X46243Y-37879D01*
X46243Y-44525D01*
X46149Y-44525D01*
X46149Y-40250D01*
X46149Y-39952D01*
X46035Y-39677D01*
X46008Y-39649D01*
X46008Y-38178D01*
X45700Y-37871D01*
X45629Y-37941D01*
X45629Y-37800D01*
X45322Y-37492D01*
X45279Y-37504D01*
X45250Y-37432D01*
X45118Y-37300D01*
X45250Y-37168D01*
X45279Y-37095D01*
X45322Y-37108D01*
X45629Y-36800D01*
X45322Y-36492D01*
X45279Y-36504D01*
X45250Y-36432D01*
X45118Y-36300D01*
X45250Y-36168D01*
X45279Y-36095D01*
X45322Y-36108D01*
X45629Y-35800D01*
X45322Y-35492D01*
X45279Y-35504D01*
X45250Y-35432D01*
X45243Y-35425D01*
X45243Y-34879D01*
X45232Y-34666D01*
X45172Y-34519D01*
X45078Y-34492D01*
X45008Y-34562D01*
X45008Y-34422D01*
X44981Y-34328D01*
X44779Y-34257D01*
X44566Y-34268D01*
X44419Y-34328D01*
X44392Y-34422D01*
X44700Y-34729D01*
X45008Y-34422D01*
X45008Y-34562D01*
X44771Y-34800D01*
X45078Y-35108D01*
X45172Y-35081D01*
X45243Y-34879D01*
X45243Y-35425D01*
X45068Y-35250D01*
X44995Y-35220D01*
X45008Y-35178D01*
X44700Y-34871D01*
X44629Y-34941D01*
X44629Y-34800D01*
X44322Y-34492D01*
X44228Y-34519D01*
X44157Y-34721D01*
X44168Y-34934D01*
X44228Y-35081D01*
X44322Y-35108D01*
X44629Y-34800D01*
X44629Y-34941D01*
X44392Y-35178D01*
X44404Y-35220D01*
X44332Y-35250D01*
X44150Y-35432D01*
X44051Y-35671D01*
X44051Y-35929D01*
X44150Y-36168D01*
X44282Y-36300D01*
X44150Y-36432D01*
X44051Y-36671D01*
X44051Y-36929D01*
X44150Y-37168D01*
X44282Y-37300D01*
X44150Y-37432D01*
X44051Y-37671D01*
X44051Y-37929D01*
X44150Y-38168D01*
X44332Y-38350D01*
X44571Y-38449D01*
X44829Y-38449D01*
X45068Y-38350D01*
X45250Y-38168D01*
X45279Y-38095D01*
X45322Y-38108D01*
X45629Y-37800D01*
X45629Y-37941D01*
X45392Y-38178D01*
X45419Y-38272D01*
X45621Y-38343D01*
X45834Y-38332D01*
X45981Y-38272D01*
X46008Y-38178D01*
X46008Y-39649D01*
X45825Y-39466D01*
X45550Y-39351D01*
X45252Y-39351D01*
X44977Y-39465D01*
X44766Y-39675D01*
X44651Y-39950D01*
X44651Y-40248D01*
X44765Y-40523D01*
X44975Y-40734D01*
X45250Y-40849D01*
X45548Y-40849D01*
X45823Y-40735D01*
X46034Y-40525D01*
X46149Y-40250D01*
X46149Y-44525D01*
X43591Y-44525D01*
X43591Y-28550D01*
X43591Y-28375D01*
X43591Y-27951D01*
X43524Y-27789D01*
X43400Y-27665D01*
X43238Y-27597D01*
X43063Y-27597D01*
X42901Y-27664D01*
X42777Y-27788D01*
X42709Y-27950D01*
X42709Y-28125D01*
X42709Y-28549D01*
X42776Y-28711D01*
X42900Y-28835D01*
X43062Y-28903D01*
X43237Y-28903D01*
X43399Y-28836D01*
X43523Y-28712D01*
X43591Y-28550D01*
X43591Y-44525D01*
X43381Y-44525D01*
X43381Y-41842D01*
X43381Y-41548D01*
X43269Y-41276D01*
X43061Y-41068D01*
X42789Y-40954D01*
X42591Y-40954D01*
X42591Y-28550D01*
X42591Y-28375D01*
X42591Y-27951D01*
X42524Y-27789D01*
X42400Y-27665D01*
X42238Y-27597D01*
X42063Y-27597D01*
X41901Y-27664D01*
X41777Y-27788D01*
X41709Y-27950D01*
X41709Y-28125D01*
X41709Y-28549D01*
X41776Y-28711D01*
X41900Y-28835D01*
X42062Y-28903D01*
X42237Y-28903D01*
X42399Y-28836D01*
X42523Y-28712D01*
X42591Y-28550D01*
X42591Y-40954D01*
X42495Y-40954D01*
X42325Y-41024D01*
X42325Y-30115D01*
X42325Y-29986D01*
X42276Y-29866D01*
X42185Y-29775D01*
X42065Y-29725D01*
X41936Y-29725D01*
X41816Y-29774D01*
X41740Y-29850D01*
X41591Y-29850D01*
X41591Y-28550D01*
X41591Y-28375D01*
X41591Y-27951D01*
X41524Y-27789D01*
X41400Y-27665D01*
X41238Y-27597D01*
X41175Y-27597D01*
X41175Y-26165D01*
X41175Y-26036D01*
X41126Y-25916D01*
X41060Y-25850D01*
X41125Y-25785D01*
X41175Y-25665D01*
X41175Y-25536D01*
X41126Y-25416D01*
X41060Y-25350D01*
X41125Y-25285D01*
X41175Y-25165D01*
X41175Y-25036D01*
X41126Y-24916D01*
X41085Y-24875D01*
X41125Y-24835D01*
X41175Y-24715D01*
X41175Y-24586D01*
X41126Y-24466D01*
X41035Y-24375D01*
X40915Y-24325D01*
X40786Y-24325D01*
X40666Y-24374D01*
X40590Y-24450D01*
X39375Y-24450D01*
X39375Y-23715D01*
X39375Y-23586D01*
X39326Y-23466D01*
X39235Y-23375D01*
X39115Y-23325D01*
X39029Y-23325D01*
X39075Y-23215D01*
X39075Y-23086D01*
X39026Y-22966D01*
X38935Y-22875D01*
X38815Y-22825D01*
X38686Y-22825D01*
X38624Y-22850D01*
X36810Y-22850D01*
X36735Y-22775D01*
X36615Y-22725D01*
X36486Y-22725D01*
X36366Y-22774D01*
X36275Y-22865D01*
X36225Y-22985D01*
X36225Y-23114D01*
X36274Y-23234D01*
X36300Y-23260D01*
X36215Y-23225D01*
X36086Y-23225D01*
X35966Y-23274D01*
X35875Y-23365D01*
X35825Y-23485D01*
X35825Y-23614D01*
X35874Y-23734D01*
X35965Y-23825D01*
X36025Y-23850D01*
X34575Y-23850D01*
X34575Y-15915D01*
X34575Y-15786D01*
X34526Y-15666D01*
X34435Y-15575D01*
X34315Y-15525D01*
X34186Y-15525D01*
X34066Y-15574D01*
X33990Y-15650D01*
X32957Y-15650D01*
X32875Y-15567D01*
X32875Y-15461D01*
X32826Y-15341D01*
X32735Y-15250D01*
X32615Y-15200D01*
X32486Y-15200D01*
X32366Y-15249D01*
X32275Y-15340D01*
X32225Y-15460D01*
X32225Y-15589D01*
X32274Y-15709D01*
X32365Y-15800D01*
X32485Y-15850D01*
X32592Y-15850D01*
X32733Y-15991D01*
X32734Y-15991D01*
X32798Y-16035D01*
X32875Y-16050D01*
X33990Y-16050D01*
X34065Y-16125D01*
X34185Y-16175D01*
X34314Y-16175D01*
X34434Y-16126D01*
X34525Y-16035D01*
X34575Y-15915D01*
X34575Y-23850D01*
X34410Y-23850D01*
X34335Y-23775D01*
X34215Y-23725D01*
X34086Y-23725D01*
X33966Y-23774D01*
X33875Y-23865D01*
X33825Y-23985D01*
X33825Y-24114D01*
X33874Y-24234D01*
X33965Y-24325D01*
X34085Y-24375D01*
X34214Y-24375D01*
X34334Y-24326D01*
X34410Y-24250D01*
X36150Y-24250D01*
X36150Y-24249D01*
X36226Y-24235D01*
X36227Y-24235D01*
X36291Y-24191D01*
X36632Y-23850D01*
X38790Y-23850D01*
X38865Y-23925D01*
X38985Y-23975D01*
X39114Y-23975D01*
X39234Y-23926D01*
X39325Y-23835D01*
X39375Y-23715D01*
X39375Y-24450D01*
X38610Y-24450D01*
X38535Y-24375D01*
X38415Y-24325D01*
X38286Y-24325D01*
X38166Y-24374D01*
X38075Y-24465D01*
X38025Y-24585D01*
X38025Y-24714D01*
X38074Y-24834D01*
X38140Y-24900D01*
X38082Y-24900D01*
X37591Y-24409D01*
X37527Y-24365D01*
X37450Y-24350D01*
X35350Y-24350D01*
X35273Y-24365D01*
X35209Y-24409D01*
X34768Y-24850D01*
X34650Y-24850D01*
X34350Y-24850D01*
X33710Y-24850D01*
X33635Y-24775D01*
X33515Y-24725D01*
X33386Y-24725D01*
X33266Y-24774D01*
X33175Y-24865D01*
X33160Y-24900D01*
X32075Y-24900D01*
X32075Y-21515D01*
X32075Y-21386D01*
X32026Y-21266D01*
X31935Y-21175D01*
X31815Y-21125D01*
X31686Y-21125D01*
X31566Y-21174D01*
X31475Y-21265D01*
X31425Y-21385D01*
X31425Y-21514D01*
X31474Y-21634D01*
X31550Y-21710D01*
X31550Y-21767D01*
X31375Y-21942D01*
X31375Y-15915D01*
X31375Y-15786D01*
X31326Y-15666D01*
X31235Y-15575D01*
X31115Y-15525D01*
X30986Y-15525D01*
X30866Y-15574D01*
X30790Y-15650D01*
X28310Y-15650D01*
X28235Y-15575D01*
X28115Y-15525D01*
X27986Y-15525D01*
X27866Y-15574D01*
X27775Y-15665D01*
X27725Y-15785D01*
X27725Y-15914D01*
X27774Y-16034D01*
X27865Y-16125D01*
X27985Y-16175D01*
X28114Y-16175D01*
X28234Y-16126D01*
X28310Y-16050D01*
X28990Y-16050D01*
X28975Y-16065D01*
X28925Y-16185D01*
X28925Y-16314D01*
X28974Y-16434D01*
X29065Y-16525D01*
X29185Y-16575D01*
X29292Y-16575D01*
X29808Y-17091D01*
X29809Y-17091D01*
X29873Y-17135D01*
X29875Y-17135D01*
X29965Y-17225D01*
X30085Y-17275D01*
X30214Y-17275D01*
X30334Y-17226D01*
X30425Y-17135D01*
X30475Y-17015D01*
X30475Y-16886D01*
X30426Y-16766D01*
X30335Y-16675D01*
X30215Y-16625D01*
X30086Y-16625D01*
X29966Y-16674D01*
X29961Y-16678D01*
X29575Y-16292D01*
X29575Y-16186D01*
X29526Y-16066D01*
X29510Y-16050D01*
X30790Y-16050D01*
X30865Y-16125D01*
X30985Y-16175D01*
X31114Y-16175D01*
X31234Y-16126D01*
X31325Y-16035D01*
X31375Y-15915D01*
X31375Y-21942D01*
X30092Y-23225D01*
X29986Y-23225D01*
X29866Y-23274D01*
X29775Y-23365D01*
X29725Y-23485D01*
X29725Y-23614D01*
X29774Y-23734D01*
X29865Y-23825D01*
X29985Y-23875D01*
X30114Y-23875D01*
X30234Y-23826D01*
X30325Y-23735D01*
X30375Y-23615D01*
X30375Y-23507D01*
X31891Y-21992D01*
X31891Y-21991D01*
X31913Y-21959D01*
X31935Y-21927D01*
X31935Y-21926D01*
X31949Y-21850D01*
X31950Y-21850D01*
X31950Y-21710D01*
X32025Y-21635D01*
X32075Y-21515D01*
X32075Y-24900D01*
X28310Y-24900D01*
X28235Y-24825D01*
X28115Y-24775D01*
X27986Y-24775D01*
X27866Y-24824D01*
X27775Y-24915D01*
X27725Y-25035D01*
X27725Y-25164D01*
X27774Y-25284D01*
X27865Y-25375D01*
X27985Y-25425D01*
X28114Y-25425D01*
X28234Y-25376D01*
X28310Y-25300D01*
X33240Y-25300D01*
X33265Y-25325D01*
X33385Y-25375D01*
X33514Y-25375D01*
X33634Y-25326D01*
X33710Y-25250D01*
X33924Y-25250D01*
X33866Y-25274D01*
X33775Y-25365D01*
X33725Y-25485D01*
X33725Y-25614D01*
X33774Y-25734D01*
X33865Y-25825D01*
X33985Y-25875D01*
X34114Y-25875D01*
X34187Y-25844D01*
X34459Y-26116D01*
X34523Y-26160D01*
X34524Y-26160D01*
X34600Y-26175D01*
X40529Y-26175D01*
X40574Y-26284D01*
X40665Y-26375D01*
X40785Y-26425D01*
X40914Y-26425D01*
X41034Y-26376D01*
X41125Y-26285D01*
X41175Y-26165D01*
X41175Y-27597D01*
X41063Y-27597D01*
X40901Y-27664D01*
X40777Y-27788D01*
X40709Y-27950D01*
X40709Y-28125D01*
X40709Y-28549D01*
X40776Y-28711D01*
X40900Y-28835D01*
X41062Y-28903D01*
X41237Y-28903D01*
X41399Y-28836D01*
X41523Y-28712D01*
X41591Y-28550D01*
X41591Y-29850D01*
X40591Y-29850D01*
X40591Y-28550D01*
X40591Y-28375D01*
X40591Y-27951D01*
X40524Y-27789D01*
X40400Y-27665D01*
X40238Y-27597D01*
X40063Y-27597D01*
X39901Y-27664D01*
X39777Y-27788D01*
X39709Y-27950D01*
X39709Y-28125D01*
X39709Y-28549D01*
X39776Y-28711D01*
X39900Y-28835D01*
X40062Y-28903D01*
X40237Y-28903D01*
X40399Y-28836D01*
X40523Y-28712D01*
X40591Y-28550D01*
X40591Y-29850D01*
X39591Y-29850D01*
X39591Y-28550D01*
X39591Y-28375D01*
X39591Y-27951D01*
X39524Y-27789D01*
X39400Y-27665D01*
X39238Y-27597D01*
X39063Y-27597D01*
X38901Y-27664D01*
X38777Y-27788D01*
X38709Y-27950D01*
X38709Y-28125D01*
X38709Y-28549D01*
X38776Y-28711D01*
X38900Y-28835D01*
X39062Y-28903D01*
X39237Y-28903D01*
X39399Y-28836D01*
X39523Y-28712D01*
X39591Y-28550D01*
X39591Y-29850D01*
X39350Y-29850D01*
X39273Y-29865D01*
X39208Y-29909D01*
X38591Y-30526D01*
X38591Y-28550D01*
X38591Y-28375D01*
X38591Y-27951D01*
X38524Y-27789D01*
X38400Y-27665D01*
X38238Y-27597D01*
X38063Y-27597D01*
X37901Y-27664D01*
X37777Y-27788D01*
X37709Y-27950D01*
X37709Y-28125D01*
X37709Y-28549D01*
X37776Y-28711D01*
X37900Y-28835D01*
X38062Y-28903D01*
X38237Y-28903D01*
X38399Y-28836D01*
X38523Y-28712D01*
X38591Y-28550D01*
X38591Y-30526D01*
X36909Y-32209D01*
X36865Y-32273D01*
X36850Y-32350D01*
X36850Y-32990D01*
X36775Y-33065D01*
X36725Y-33185D01*
X36725Y-33314D01*
X36774Y-33434D01*
X36865Y-33525D01*
X36985Y-33575D01*
X37092Y-33575D01*
X37308Y-33791D01*
X37309Y-33791D01*
X37373Y-33835D01*
X37450Y-33850D01*
X37476Y-33850D01*
X37476Y-33905D01*
X37499Y-33960D01*
X37541Y-34002D01*
X37550Y-34005D01*
X37550Y-38400D01*
X37565Y-38477D01*
X37609Y-38541D01*
X38175Y-39107D01*
X38175Y-39214D01*
X38224Y-39334D01*
X38315Y-39425D01*
X38435Y-39475D01*
X38564Y-39475D01*
X38684Y-39426D01*
X38775Y-39335D01*
X38825Y-39215D01*
X38825Y-39086D01*
X38776Y-38966D01*
X38725Y-38915D01*
X38725Y-33762D01*
X38725Y-33538D01*
X38724Y-33474D01*
X38724Y-33375D01*
X38686Y-33284D01*
X38616Y-33214D01*
X38524Y-33176D01*
X38462Y-33175D01*
X38400Y-33237D01*
X38400Y-33600D01*
X38663Y-33600D01*
X38725Y-33538D01*
X38725Y-33762D01*
X38663Y-33700D01*
X38400Y-33700D01*
X38400Y-34063D01*
X38462Y-34125D01*
X38524Y-34124D01*
X38616Y-34086D01*
X38686Y-34016D01*
X38724Y-33925D01*
X38724Y-33826D01*
X38725Y-33762D01*
X38725Y-38915D01*
X38685Y-38875D01*
X38565Y-38825D01*
X38457Y-38825D01*
X37950Y-38317D01*
X37950Y-34005D01*
X37960Y-34001D01*
X37993Y-33967D01*
X38014Y-34016D01*
X38084Y-34086D01*
X38176Y-34124D01*
X38238Y-34125D01*
X38300Y-34063D01*
X38300Y-33750D01*
X38300Y-33700D01*
X38300Y-33600D01*
X38300Y-33550D01*
X38300Y-33237D01*
X38238Y-33175D01*
X38176Y-33176D01*
X38084Y-33214D01*
X38014Y-33284D01*
X37993Y-33332D01*
X37959Y-33298D01*
X37904Y-33276D01*
X37845Y-33276D01*
X37595Y-33276D01*
X37540Y-33299D01*
X37498Y-33341D01*
X37476Y-33394D01*
X37375Y-33292D01*
X37375Y-33186D01*
X37326Y-33066D01*
X37250Y-32990D01*
X37250Y-32432D01*
X39125Y-30557D01*
X39125Y-30614D01*
X39174Y-30734D01*
X39250Y-30810D01*
X39250Y-33450D01*
X39265Y-33527D01*
X39309Y-33591D01*
X39525Y-33807D01*
X39525Y-33914D01*
X39574Y-34034D01*
X39665Y-34125D01*
X39785Y-34175D01*
X39914Y-34175D01*
X40034Y-34126D01*
X40125Y-34035D01*
X40175Y-33915D01*
X40175Y-33786D01*
X40126Y-33666D01*
X40035Y-33575D01*
X39915Y-33525D01*
X39807Y-33525D01*
X39650Y-33367D01*
X39650Y-30810D01*
X39725Y-30735D01*
X39775Y-30615D01*
X39775Y-30486D01*
X39726Y-30366D01*
X39635Y-30275D01*
X39575Y-30250D01*
X41740Y-30250D01*
X41815Y-30325D01*
X41935Y-30375D01*
X42064Y-30375D01*
X42184Y-30326D01*
X42275Y-30235D01*
X42325Y-30115D01*
X42325Y-41024D01*
X42223Y-41066D01*
X42015Y-41274D01*
X41975Y-41369D01*
X41975Y-34415D01*
X41975Y-34286D01*
X41926Y-34166D01*
X41850Y-34090D01*
X41850Y-33610D01*
X41925Y-33535D01*
X41975Y-33415D01*
X41975Y-33286D01*
X41926Y-33166D01*
X41835Y-33075D01*
X41715Y-33025D01*
X41586Y-33025D01*
X41466Y-33074D01*
X41375Y-33165D01*
X41325Y-33285D01*
X41325Y-33414D01*
X41374Y-33534D01*
X41450Y-33610D01*
X41450Y-34090D01*
X41375Y-34165D01*
X41325Y-34285D01*
X41325Y-34414D01*
X41374Y-34534D01*
X41465Y-34625D01*
X41585Y-34675D01*
X41714Y-34675D01*
X41834Y-34626D01*
X41925Y-34535D01*
X41975Y-34415D01*
X41975Y-41369D01*
X41901Y-41546D01*
X41901Y-41840D01*
X42013Y-42112D01*
X42221Y-42320D01*
X42493Y-42434D01*
X42787Y-42434D01*
X43059Y-42322D01*
X43267Y-42114D01*
X43381Y-41842D01*
X43381Y-44525D01*
X41489Y-44525D01*
X41489Y-44102D01*
X41489Y-43963D01*
X41489Y-43263D01*
X41436Y-43135D01*
X41338Y-43036D01*
X41290Y-43016D01*
X41290Y-42183D01*
X41337Y-42164D01*
X41436Y-42066D01*
X41489Y-41938D01*
X41489Y-41799D01*
X41489Y-41099D01*
X41436Y-40971D01*
X41338Y-40872D01*
X41210Y-40819D01*
X41071Y-40819D01*
X40371Y-40819D01*
X40243Y-40872D01*
X40144Y-40970D01*
X40091Y-41098D01*
X40091Y-41237D01*
X40091Y-41937D01*
X40144Y-42065D01*
X40242Y-42164D01*
X40290Y-42183D01*
X40290Y-43016D01*
X40243Y-43036D01*
X40144Y-43134D01*
X40091Y-43262D01*
X40091Y-43401D01*
X40091Y-44101D01*
X40144Y-44229D01*
X40242Y-44328D01*
X40370Y-44381D01*
X40509Y-44381D01*
X41209Y-44381D01*
X41337Y-44328D01*
X41436Y-44230D01*
X41489Y-44102D01*
X41489Y-44525D01*
X39836Y-44525D01*
X39836Y-44102D01*
X39836Y-43963D01*
X39836Y-43263D01*
X39783Y-43135D01*
X39685Y-43036D01*
X39636Y-43015D01*
X39636Y-41897D01*
X39636Y-41838D01*
X39636Y-41138D01*
X39613Y-41083D01*
X39571Y-41041D01*
X39516Y-41019D01*
X39457Y-41019D01*
X38757Y-41019D01*
X38702Y-41042D01*
X38660Y-41084D01*
X38638Y-41139D01*
X38638Y-41198D01*
X38638Y-41898D01*
X38661Y-41953D01*
X38703Y-41995D01*
X38758Y-42017D01*
X38817Y-42017D01*
X39517Y-42017D01*
X39572Y-41994D01*
X39614Y-41952D01*
X39636Y-41897D01*
X39636Y-43015D01*
X39557Y-42983D01*
X39418Y-42983D01*
X38718Y-42983D01*
X38590Y-43036D01*
X38491Y-43134D01*
X38438Y-43262D01*
X38438Y-43401D01*
X38438Y-44101D01*
X38491Y-44229D01*
X38589Y-44328D01*
X38717Y-44381D01*
X38856Y-44381D01*
X39556Y-44381D01*
X39684Y-44328D01*
X39783Y-44230D01*
X39836Y-44102D01*
X39836Y-44525D01*
X38083Y-44525D01*
X38083Y-43794D01*
X38083Y-43570D01*
X38083Y-41630D01*
X38083Y-41406D01*
X38082Y-41217D01*
X38082Y-41118D01*
X38044Y-41027D01*
X37974Y-40957D01*
X37882Y-40919D01*
X37595Y-40918D01*
X37533Y-40980D01*
X37533Y-41468D01*
X38021Y-41468D01*
X38083Y-41406D01*
X38083Y-41630D01*
X38021Y-41568D01*
X37533Y-41568D01*
X37533Y-42056D01*
X37595Y-42118D01*
X37882Y-42117D01*
X37974Y-42079D01*
X38044Y-42009D01*
X38082Y-41918D01*
X38082Y-41819D01*
X38083Y-41630D01*
X38083Y-43570D01*
X38082Y-43381D01*
X38082Y-43282D01*
X38044Y-43191D01*
X37974Y-43121D01*
X37882Y-43083D01*
X37595Y-43082D01*
X37533Y-43144D01*
X37533Y-43632D01*
X38021Y-43632D01*
X38083Y-43570D01*
X38083Y-43794D01*
X38021Y-43732D01*
X37533Y-43732D01*
X37533Y-44220D01*
X37595Y-44282D01*
X37882Y-44281D01*
X37974Y-44243D01*
X38044Y-44173D01*
X38082Y-44082D01*
X38082Y-43983D01*
X38083Y-43794D01*
X38083Y-44525D01*
X37433Y-44525D01*
X37433Y-44220D01*
X37433Y-43732D01*
X37433Y-43632D01*
X37433Y-43144D01*
X37433Y-42056D01*
X37433Y-41568D01*
X37433Y-41468D01*
X37433Y-40980D01*
X37371Y-40918D01*
X37084Y-40919D01*
X36992Y-40957D01*
X36922Y-41027D01*
X36884Y-41118D01*
X36884Y-41217D01*
X36883Y-41406D01*
X36945Y-41468D01*
X37433Y-41468D01*
X37433Y-41568D01*
X36945Y-41568D01*
X36883Y-41630D01*
X36884Y-41819D01*
X36884Y-41918D01*
X36922Y-42009D01*
X36992Y-42079D01*
X37084Y-42117D01*
X37371Y-42118D01*
X37433Y-42056D01*
X37433Y-43144D01*
X37371Y-43082D01*
X37084Y-43083D01*
X36992Y-43121D01*
X36922Y-43191D01*
X36884Y-43282D01*
X36884Y-43381D01*
X36883Y-43570D01*
X36945Y-43632D01*
X37433Y-43632D01*
X37433Y-43732D01*
X36945Y-43732D01*
X36883Y-43794D01*
X36884Y-43983D01*
X36884Y-44082D01*
X36922Y-44173D01*
X36992Y-44243D01*
X37084Y-44281D01*
X37371Y-44282D01*
X37433Y-44220D01*
X37433Y-44525D01*
X36591Y-44525D01*
X36591Y-28550D01*
X36591Y-28375D01*
X36591Y-27951D01*
X36524Y-27789D01*
X36400Y-27665D01*
X36238Y-27597D01*
X36063Y-27597D01*
X35901Y-27664D01*
X35777Y-27788D01*
X35709Y-27950D01*
X35709Y-28125D01*
X35709Y-28549D01*
X35776Y-28711D01*
X35900Y-28835D01*
X36062Y-28903D01*
X36237Y-28903D01*
X36399Y-28836D01*
X36523Y-28712D01*
X36591Y-28550D01*
X36591Y-44525D01*
X36529Y-44525D01*
X36529Y-44102D01*
X36529Y-43963D01*
X36529Y-43263D01*
X36476Y-43135D01*
X36378Y-43036D01*
X36375Y-43034D01*
X36375Y-35615D01*
X36375Y-35486D01*
X36326Y-35366D01*
X36235Y-35275D01*
X36115Y-35225D01*
X36007Y-35225D01*
X35591Y-34809D01*
X35591Y-28550D01*
X35591Y-28375D01*
X35591Y-27951D01*
X35524Y-27789D01*
X35400Y-27665D01*
X35320Y-27631D01*
X35334Y-27626D01*
X35425Y-27535D01*
X35475Y-27415D01*
X35475Y-27286D01*
X35426Y-27166D01*
X35335Y-27075D01*
X35215Y-27025D01*
X35086Y-27025D01*
X34966Y-27074D01*
X34890Y-27150D01*
X32850Y-27150D01*
X32773Y-27165D01*
X32708Y-27209D01*
X32296Y-27621D01*
X32238Y-27597D01*
X32063Y-27597D01*
X31901Y-27664D01*
X31777Y-27788D01*
X31709Y-27950D01*
X31709Y-28125D01*
X31709Y-28549D01*
X31776Y-28711D01*
X31900Y-28835D01*
X32062Y-28903D01*
X32237Y-28903D01*
X32399Y-28836D01*
X32523Y-28712D01*
X32591Y-28550D01*
X32591Y-28375D01*
X32591Y-27951D01*
X32573Y-27908D01*
X32932Y-27550D01*
X34890Y-27550D01*
X34965Y-27625D01*
X34980Y-27631D01*
X34901Y-27664D01*
X34777Y-27788D01*
X34709Y-27950D01*
X34709Y-28125D01*
X34709Y-28549D01*
X34776Y-28711D01*
X34900Y-28835D01*
X35062Y-28903D01*
X35237Y-28903D01*
X35399Y-28836D01*
X35523Y-28712D01*
X35591Y-28550D01*
X35591Y-34809D01*
X34591Y-33809D01*
X34591Y-28550D01*
X34591Y-28375D01*
X34591Y-27951D01*
X34524Y-27789D01*
X34400Y-27665D01*
X34238Y-27597D01*
X34063Y-27597D01*
X33901Y-27664D01*
X33777Y-27788D01*
X33709Y-27950D01*
X33709Y-28125D01*
X33709Y-28549D01*
X33776Y-28711D01*
X33900Y-28835D01*
X34062Y-28903D01*
X34237Y-28903D01*
X34399Y-28836D01*
X34523Y-28712D01*
X34591Y-28550D01*
X34591Y-33809D01*
X33591Y-32809D01*
X33591Y-28550D01*
X33591Y-28375D01*
X33591Y-27951D01*
X33524Y-27789D01*
X33400Y-27665D01*
X33238Y-27597D01*
X33063Y-27597D01*
X32901Y-27664D01*
X32777Y-27788D01*
X32709Y-27950D01*
X32709Y-28125D01*
X32709Y-28549D01*
X32776Y-28711D01*
X32900Y-28835D01*
X33062Y-28903D01*
X33237Y-28903D01*
X33399Y-28836D01*
X33523Y-28712D01*
X33591Y-28550D01*
X33591Y-32809D01*
X31591Y-30809D01*
X31591Y-28550D01*
X31591Y-28375D01*
X31591Y-27951D01*
X31524Y-27789D01*
X31400Y-27665D01*
X31238Y-27597D01*
X31063Y-27597D01*
X30901Y-27664D01*
X30777Y-27788D01*
X30709Y-27950D01*
X30709Y-28125D01*
X30709Y-28549D01*
X30776Y-28711D01*
X30900Y-28835D01*
X31062Y-28903D01*
X31237Y-28903D01*
X31399Y-28836D01*
X31523Y-28712D01*
X31591Y-28550D01*
X31591Y-30809D01*
X30591Y-29809D01*
X30591Y-28550D01*
X30591Y-28375D01*
X30591Y-27951D01*
X30524Y-27789D01*
X30400Y-27665D01*
X30238Y-27597D01*
X30063Y-27597D01*
X29901Y-27664D01*
X29777Y-27788D01*
X29709Y-27950D01*
X29709Y-28125D01*
X29709Y-28549D01*
X29776Y-28711D01*
X29900Y-28835D01*
X30062Y-28903D01*
X30237Y-28903D01*
X30399Y-28836D01*
X30523Y-28712D01*
X30591Y-28550D01*
X30591Y-29809D01*
X29508Y-28726D01*
X29523Y-28712D01*
X29591Y-28550D01*
X29591Y-28375D01*
X29591Y-27951D01*
X29524Y-27789D01*
X29400Y-27665D01*
X29238Y-27597D01*
X29063Y-27597D01*
X28901Y-27664D01*
X28777Y-27788D01*
X28709Y-27950D01*
X28709Y-28125D01*
X28709Y-28549D01*
X28776Y-28711D01*
X28900Y-28835D01*
X29062Y-28903D01*
X29121Y-28903D01*
X35725Y-35507D01*
X35725Y-35614D01*
X35774Y-35734D01*
X35865Y-35825D01*
X35985Y-35875D01*
X36114Y-35875D01*
X36234Y-35826D01*
X36325Y-35735D01*
X36375Y-35615D01*
X36375Y-43034D01*
X36329Y-43015D01*
X36329Y-41897D01*
X36329Y-41838D01*
X36329Y-41138D01*
X36306Y-41083D01*
X36264Y-41041D01*
X36209Y-41019D01*
X36150Y-41019D01*
X35450Y-41019D01*
X35395Y-41042D01*
X35353Y-41084D01*
X35331Y-41139D01*
X35331Y-41198D01*
X35331Y-41898D01*
X35354Y-41953D01*
X35396Y-41995D01*
X35451Y-42017D01*
X35510Y-42017D01*
X36210Y-42017D01*
X36265Y-41994D01*
X36307Y-41952D01*
X36329Y-41897D01*
X36329Y-43015D01*
X36250Y-42983D01*
X36111Y-42983D01*
X35411Y-42983D01*
X35283Y-43036D01*
X35184Y-43134D01*
X35131Y-43262D01*
X35131Y-43401D01*
X35131Y-44101D01*
X35184Y-44229D01*
X35282Y-44328D01*
X35410Y-44381D01*
X35549Y-44381D01*
X36249Y-44381D01*
X36377Y-44328D01*
X36476Y-44230D01*
X36529Y-44102D01*
X36529Y-44525D01*
X34776Y-44525D01*
X34776Y-43794D01*
X34776Y-43570D01*
X34776Y-41630D01*
X34776Y-41406D01*
X34775Y-41217D01*
X34775Y-41118D01*
X34737Y-41027D01*
X34667Y-40957D01*
X34575Y-40919D01*
X34288Y-40918D01*
X34226Y-40980D01*
X34226Y-41468D01*
X34714Y-41468D01*
X34776Y-41406D01*
X34776Y-41630D01*
X34714Y-41568D01*
X34226Y-41568D01*
X34226Y-42056D01*
X34288Y-42118D01*
X34575Y-42117D01*
X34667Y-42079D01*
X34737Y-42009D01*
X34775Y-41918D01*
X34775Y-41819D01*
X34776Y-41630D01*
X34776Y-43570D01*
X34775Y-43381D01*
X34775Y-43282D01*
X34737Y-43191D01*
X34667Y-43121D01*
X34575Y-43083D01*
X34288Y-43082D01*
X34226Y-43144D01*
X34226Y-43632D01*
X34714Y-43632D01*
X34776Y-43570D01*
X34776Y-43794D01*
X34714Y-43732D01*
X34226Y-43732D01*
X34226Y-44220D01*
X34288Y-44282D01*
X34575Y-44281D01*
X34667Y-44243D01*
X34737Y-44173D01*
X34775Y-44082D01*
X34775Y-43983D01*
X34776Y-43794D01*
X34776Y-44525D01*
X34126Y-44525D01*
X34126Y-44220D01*
X34126Y-43732D01*
X34126Y-43632D01*
X34126Y-43144D01*
X34126Y-42056D01*
X34126Y-41568D01*
X34126Y-41468D01*
X34126Y-40980D01*
X34064Y-40918D01*
X33777Y-40919D01*
X33685Y-40957D01*
X33615Y-41027D01*
X33577Y-41118D01*
X33577Y-41217D01*
X33576Y-41406D01*
X33638Y-41468D01*
X34126Y-41468D01*
X34126Y-41568D01*
X33638Y-41568D01*
X33576Y-41630D01*
X33577Y-41819D01*
X33577Y-41918D01*
X33615Y-42009D01*
X33685Y-42079D01*
X33777Y-42117D01*
X34064Y-42118D01*
X34126Y-42056D01*
X34126Y-43144D01*
X34064Y-43082D01*
X33777Y-43083D01*
X33685Y-43121D01*
X33615Y-43191D01*
X33577Y-43282D01*
X33577Y-43381D01*
X33576Y-43570D01*
X33638Y-43632D01*
X34126Y-43632D01*
X34126Y-43732D01*
X33638Y-43732D01*
X33576Y-43794D01*
X33577Y-43983D01*
X33577Y-44082D01*
X33615Y-44173D01*
X33685Y-44243D01*
X33777Y-44281D01*
X34064Y-44282D01*
X34126Y-44220D01*
X34126Y-44525D01*
X33223Y-44525D01*
X33223Y-44102D01*
X33223Y-43963D01*
X33223Y-43263D01*
X33170Y-43135D01*
X33124Y-43088D01*
X33124Y-41630D01*
X33124Y-41406D01*
X33123Y-41217D01*
X33123Y-41118D01*
X33085Y-41027D01*
X33015Y-40957D01*
X32923Y-40919D01*
X32636Y-40918D01*
X32574Y-40980D01*
X32574Y-41468D01*
X33062Y-41468D01*
X33124Y-41406D01*
X33124Y-41630D01*
X33062Y-41568D01*
X32574Y-41568D01*
X32574Y-42056D01*
X32636Y-42118D01*
X32923Y-42117D01*
X33015Y-42079D01*
X33085Y-42009D01*
X33123Y-41918D01*
X33123Y-41819D01*
X33124Y-41630D01*
X33124Y-43088D01*
X33072Y-43036D01*
X32944Y-42983D01*
X32805Y-42983D01*
X32474Y-42983D01*
X32474Y-42056D01*
X32474Y-41568D01*
X32474Y-41468D01*
X32474Y-40980D01*
X32412Y-40918D01*
X32125Y-40919D01*
X32033Y-40957D01*
X31963Y-41027D01*
X31925Y-41118D01*
X31925Y-41217D01*
X31924Y-41406D01*
X31986Y-41468D01*
X32474Y-41468D01*
X32474Y-41568D01*
X31986Y-41568D01*
X31924Y-41630D01*
X31925Y-41819D01*
X31925Y-41918D01*
X31963Y-42009D01*
X32033Y-42079D01*
X32125Y-42117D01*
X32412Y-42118D01*
X32474Y-42056D01*
X32474Y-42983D01*
X32105Y-42983D01*
X31977Y-43036D01*
X31878Y-43134D01*
X31825Y-43262D01*
X31825Y-43401D01*
X31825Y-44101D01*
X31878Y-44229D01*
X31976Y-44328D01*
X32104Y-44381D01*
X32243Y-44381D01*
X32943Y-44381D01*
X33071Y-44328D01*
X33170Y-44230D01*
X33223Y-44102D01*
X33223Y-44525D01*
X31470Y-44525D01*
X31470Y-43794D01*
X31470Y-43570D01*
X31470Y-41630D01*
X31470Y-41406D01*
X31469Y-41217D01*
X31469Y-41118D01*
X31431Y-41027D01*
X31361Y-40957D01*
X31269Y-40919D01*
X30982Y-40918D01*
X30920Y-40980D01*
X30920Y-41468D01*
X31408Y-41468D01*
X31470Y-41406D01*
X31470Y-41630D01*
X31408Y-41568D01*
X30920Y-41568D01*
X30920Y-42056D01*
X30982Y-42118D01*
X31269Y-42117D01*
X31361Y-42079D01*
X31431Y-42009D01*
X31469Y-41918D01*
X31469Y-41819D01*
X31470Y-41630D01*
X31470Y-43570D01*
X31469Y-43381D01*
X31469Y-43282D01*
X31431Y-43191D01*
X31361Y-43121D01*
X31269Y-43083D01*
X30982Y-43082D01*
X30920Y-43144D01*
X30920Y-43632D01*
X31408Y-43632D01*
X31470Y-43570D01*
X31470Y-43794D01*
X31408Y-43732D01*
X30920Y-43732D01*
X30920Y-44220D01*
X30982Y-44282D01*
X31269Y-44281D01*
X31361Y-44243D01*
X31431Y-44173D01*
X31469Y-44082D01*
X31469Y-43983D01*
X31470Y-43794D01*
X31470Y-44525D01*
X30820Y-44525D01*
X30820Y-44220D01*
X30820Y-43732D01*
X30820Y-43632D01*
X30820Y-43144D01*
X30820Y-42056D01*
X30820Y-41568D01*
X30820Y-41468D01*
X30820Y-40980D01*
X30758Y-40918D01*
X30471Y-40919D01*
X30379Y-40957D01*
X30309Y-41027D01*
X30271Y-41118D01*
X30271Y-41217D01*
X30270Y-41406D01*
X30332Y-41468D01*
X30820Y-41468D01*
X30820Y-41568D01*
X30332Y-41568D01*
X30270Y-41630D01*
X30271Y-41819D01*
X30271Y-41918D01*
X30309Y-42009D01*
X30379Y-42079D01*
X30471Y-42117D01*
X30758Y-42118D01*
X30820Y-42056D01*
X30820Y-43144D01*
X30758Y-43082D01*
X30471Y-43083D01*
X30379Y-43121D01*
X30309Y-43191D01*
X30271Y-43282D01*
X30271Y-43381D01*
X30270Y-43570D01*
X30332Y-43632D01*
X30820Y-43632D01*
X30820Y-43732D01*
X30332Y-43732D01*
X30270Y-43794D01*
X30271Y-43983D01*
X30271Y-44082D01*
X30309Y-44173D01*
X30379Y-44243D01*
X30471Y-44281D01*
X30758Y-44282D01*
X30820Y-44220D01*
X30820Y-44525D01*
X29716Y-44525D01*
X29716Y-44061D01*
X29716Y-44002D01*
X29716Y-43302D01*
X29716Y-41897D01*
X29716Y-41838D01*
X29716Y-41138D01*
X29693Y-41083D01*
X29651Y-41041D01*
X29596Y-41019D01*
X29537Y-41019D01*
X28837Y-41019D01*
X28782Y-41042D01*
X28740Y-41084D01*
X28718Y-41139D01*
X28718Y-41198D01*
X28718Y-41898D01*
X28741Y-41953D01*
X28783Y-41995D01*
X28838Y-42017D01*
X28897Y-42017D01*
X29597Y-42017D01*
X29652Y-41994D01*
X29694Y-41952D01*
X29716Y-41897D01*
X29716Y-43302D01*
X29693Y-43247D01*
X29651Y-43205D01*
X29596Y-43183D01*
X29537Y-43183D01*
X28837Y-43183D01*
X28782Y-43206D01*
X28740Y-43248D01*
X28718Y-43303D01*
X28718Y-43362D01*
X28718Y-44062D01*
X28741Y-44117D01*
X28783Y-44159D01*
X28838Y-44181D01*
X28897Y-44181D01*
X29597Y-44181D01*
X29652Y-44158D01*
X29694Y-44116D01*
X29716Y-44061D01*
X29716Y-44525D01*
X28262Y-44525D01*
X28262Y-41938D01*
X28262Y-41799D01*
X28262Y-41099D01*
X28209Y-40971D01*
X28200Y-40961D01*
X28200Y-36450D01*
X28200Y-31050D01*
X27591Y-31050D01*
X27591Y-28550D01*
X27591Y-28375D01*
X27591Y-27951D01*
X27524Y-27789D01*
X27400Y-27665D01*
X27238Y-27597D01*
X27063Y-27597D01*
X26901Y-27664D01*
X26777Y-27788D01*
X26709Y-27950D01*
X26709Y-28125D01*
X26709Y-28549D01*
X26776Y-28711D01*
X26900Y-28835D01*
X27062Y-28903D01*
X27237Y-28903D01*
X27399Y-28836D01*
X27523Y-28712D01*
X27591Y-28550D01*
X27591Y-31050D01*
X27100Y-31050D01*
X27100Y-31800D01*
X26700Y-31800D01*
X26700Y-28500D01*
X26700Y-28300D01*
X26700Y-28200D01*
X26700Y-28000D01*
X26639Y-27793D01*
X26503Y-27625D01*
X26313Y-27522D01*
X26285Y-27518D01*
X26200Y-27565D01*
X26200Y-28200D01*
X26700Y-28200D01*
X26700Y-28300D01*
X26200Y-28300D01*
X26200Y-28935D01*
X26285Y-28982D01*
X26313Y-28978D01*
X26503Y-28875D01*
X26639Y-28707D01*
X26700Y-28500D01*
X26700Y-31800D01*
X26100Y-31800D01*
X26100Y-28935D01*
X26100Y-28300D01*
X26100Y-28200D01*
X26100Y-27565D01*
X26015Y-27518D01*
X25991Y-27521D01*
X25991Y-09550D01*
X25991Y-09375D01*
X25991Y-08951D01*
X25924Y-08789D01*
X25800Y-08665D01*
X25638Y-08597D01*
X25463Y-08597D01*
X25301Y-08664D01*
X25177Y-08788D01*
X25109Y-08950D01*
X25109Y-09125D01*
X25109Y-09549D01*
X25176Y-09711D01*
X25300Y-09835D01*
X25350Y-09855D01*
X25350Y-11117D01*
X24991Y-11476D01*
X24991Y-09550D01*
X24991Y-09375D01*
X24991Y-08951D01*
X24924Y-08789D01*
X24800Y-08665D01*
X24638Y-08597D01*
X24463Y-08597D01*
X24301Y-08664D01*
X24177Y-08788D01*
X24109Y-08950D01*
X24109Y-09125D01*
X24109Y-09549D01*
X24176Y-09711D01*
X24300Y-09835D01*
X24350Y-09855D01*
X24350Y-11039D01*
X24266Y-11074D01*
X24175Y-11165D01*
X24125Y-11285D01*
X24125Y-11414D01*
X24174Y-11534D01*
X24265Y-11625D01*
X24385Y-11675D01*
X24514Y-11675D01*
X24634Y-11626D01*
X24725Y-11535D01*
X24775Y-11415D01*
X24775Y-11286D01*
X24750Y-11224D01*
X24750Y-09856D01*
X24799Y-09836D01*
X24923Y-09712D01*
X24991Y-09550D01*
X24991Y-11476D01*
X23991Y-12476D01*
X23991Y-09550D01*
X23991Y-09375D01*
X23991Y-08951D01*
X23924Y-08789D01*
X23800Y-08665D01*
X23638Y-08597D01*
X23463Y-08597D01*
X23301Y-08664D01*
X23177Y-08788D01*
X23109Y-08950D01*
X23109Y-09125D01*
X23109Y-09549D01*
X23176Y-09711D01*
X23300Y-09835D01*
X23462Y-09903D01*
X23637Y-09903D01*
X23799Y-09836D01*
X23923Y-09712D01*
X23991Y-09550D01*
X23991Y-12476D01*
X23967Y-12500D01*
X22991Y-12500D01*
X22991Y-09550D01*
X22991Y-09375D01*
X22991Y-08951D01*
X22924Y-08789D01*
X22800Y-08665D01*
X22638Y-08597D01*
X22463Y-08597D01*
X22301Y-08664D01*
X22177Y-08788D01*
X22109Y-08950D01*
X22109Y-09125D01*
X22109Y-09549D01*
X22176Y-09711D01*
X22300Y-09835D01*
X22462Y-09903D01*
X22637Y-09903D01*
X22799Y-09836D01*
X22923Y-09712D01*
X22991Y-09550D01*
X22991Y-12500D01*
X21991Y-12500D01*
X21991Y-09550D01*
X21991Y-09375D01*
X21991Y-08951D01*
X21924Y-08789D01*
X21800Y-08665D01*
X21638Y-08597D01*
X21463Y-08597D01*
X21301Y-08664D01*
X21177Y-08788D01*
X21109Y-08950D01*
X21109Y-09125D01*
X21109Y-09549D01*
X21176Y-09711D01*
X21300Y-09835D01*
X21462Y-09903D01*
X21637Y-09903D01*
X21799Y-09836D01*
X21923Y-09712D01*
X21991Y-09550D01*
X21991Y-12500D01*
X20991Y-12500D01*
X20991Y-09550D01*
X20991Y-09375D01*
X20991Y-08951D01*
X20924Y-08789D01*
X20800Y-08665D01*
X20638Y-08597D01*
X20463Y-08597D01*
X20301Y-08664D01*
X20177Y-08788D01*
X20109Y-08950D01*
X20109Y-09125D01*
X20109Y-09549D01*
X20176Y-09711D01*
X20300Y-09835D01*
X20462Y-09903D01*
X20637Y-09903D01*
X20799Y-09836D01*
X20923Y-09712D01*
X20991Y-09550D01*
X20991Y-12500D01*
X20100Y-12500D01*
X20100Y-09500D01*
X20100Y-09300D01*
X20100Y-09200D01*
X20100Y-09000D01*
X20039Y-08793D01*
X19903Y-08625D01*
X19713Y-08522D01*
X19685Y-08518D01*
X19600Y-08565D01*
X19600Y-09200D01*
X20100Y-09200D01*
X20100Y-09300D01*
X19600Y-09300D01*
X19600Y-09935D01*
X19685Y-09982D01*
X19713Y-09978D01*
X19903Y-09875D01*
X20039Y-09707D01*
X20100Y-09500D01*
X20100Y-12500D01*
X19500Y-12500D01*
X19500Y-09935D01*
X19500Y-09300D01*
X19500Y-09200D01*
X19500Y-08565D01*
X19415Y-08518D01*
X19387Y-08522D01*
X19197Y-08625D01*
X19061Y-08793D01*
X19000Y-09000D01*
X19000Y-09200D01*
X19500Y-09200D01*
X19500Y-09300D01*
X19000Y-09300D01*
X19000Y-09500D01*
X19061Y-09707D01*
X19197Y-09875D01*
X19387Y-09978D01*
X19415Y-09982D01*
X19500Y-09935D01*
X19500Y-12500D01*
X18991Y-12500D01*
X18991Y-09550D01*
X18991Y-09375D01*
X18991Y-08951D01*
X18924Y-08789D01*
X18800Y-08665D01*
X18638Y-08597D01*
X18463Y-08597D01*
X18301Y-08664D01*
X18177Y-08788D01*
X18109Y-08950D01*
X18109Y-09125D01*
X18109Y-09549D01*
X18176Y-09711D01*
X18300Y-09835D01*
X18462Y-09903D01*
X18637Y-09903D01*
X18799Y-09836D01*
X18923Y-09712D01*
X18991Y-09550D01*
X18991Y-12500D01*
X16000Y-12500D01*
X15923Y-12515D01*
X15858Y-12559D01*
X10309Y-18109D01*
X10265Y-18173D01*
X10250Y-18250D01*
X10250Y-38200D01*
X10265Y-38277D01*
X10309Y-38341D01*
X12592Y-40625D01*
X12318Y-40511D01*
X11984Y-40511D01*
X11676Y-40638D01*
X11439Y-40874D01*
X11311Y-41182D01*
X11311Y-41516D01*
X11438Y-41824D01*
X11674Y-42061D01*
X11982Y-42189D01*
X12316Y-42189D01*
X12624Y-42062D01*
X12861Y-41826D01*
X12989Y-41518D01*
X12989Y-41184D01*
X12875Y-40907D01*
X14275Y-42307D01*
X14275Y-42414D01*
X14324Y-42534D01*
X14415Y-42625D01*
X14535Y-42675D01*
X14664Y-42675D01*
X14784Y-42626D01*
X14875Y-42535D01*
X14925Y-42415D01*
X14925Y-42286D01*
X14876Y-42166D01*
X14785Y-42075D01*
X14693Y-42036D01*
X14693Y-40429D01*
X14693Y-33329D01*
X14682Y-33116D01*
X14622Y-32969D01*
X14528Y-32942D01*
X14458Y-33012D01*
X14458Y-32872D01*
X14431Y-32778D01*
X14229Y-32707D01*
X14016Y-32718D01*
X13869Y-32778D01*
X13842Y-32872D01*
X14150Y-33179D01*
X14458Y-32872D01*
X14458Y-33012D01*
X14221Y-33250D01*
X14528Y-33558D01*
X14622Y-33531D01*
X14693Y-33329D01*
X14693Y-40429D01*
X14682Y-40216D01*
X14622Y-40069D01*
X14599Y-40062D01*
X14599Y-39440D01*
X14599Y-39261D01*
X14531Y-39096D01*
X14458Y-39023D01*
X14458Y-33628D01*
X14150Y-33321D01*
X14079Y-33391D01*
X14079Y-33250D01*
X13772Y-32942D01*
X13678Y-32969D01*
X13607Y-33171D01*
X13618Y-33384D01*
X13678Y-33531D01*
X13772Y-33558D01*
X14079Y-33250D01*
X14079Y-33391D01*
X13842Y-33628D01*
X13869Y-33722D01*
X14071Y-33793D01*
X14284Y-33782D01*
X14431Y-33722D01*
X14458Y-33628D01*
X14458Y-39023D01*
X14405Y-38970D01*
X14240Y-38901D01*
X14061Y-38901D01*
X13896Y-38969D01*
X13770Y-39095D01*
X13701Y-39260D01*
X13701Y-39439D01*
X13769Y-39604D01*
X13895Y-39730D01*
X14060Y-39799D01*
X14239Y-39799D01*
X14404Y-39731D01*
X14530Y-39605D01*
X14599Y-39440D01*
X14599Y-40062D01*
X14528Y-40042D01*
X14458Y-40112D01*
X14458Y-39972D01*
X14431Y-39878D01*
X14229Y-39807D01*
X14016Y-39818D01*
X13869Y-39878D01*
X13842Y-39972D01*
X14150Y-40279D01*
X14458Y-39972D01*
X14458Y-40112D01*
X14221Y-40350D01*
X14528Y-40658D01*
X14622Y-40631D01*
X14693Y-40429D01*
X14693Y-42036D01*
X14665Y-42025D01*
X14557Y-42025D01*
X14458Y-41925D01*
X14458Y-40728D01*
X14150Y-40421D01*
X14079Y-40491D01*
X14079Y-40350D01*
X13772Y-40042D01*
X13678Y-40069D01*
X13607Y-40271D01*
X13618Y-40484D01*
X13678Y-40631D01*
X13772Y-40658D01*
X14079Y-40350D01*
X14079Y-40491D01*
X13842Y-40728D01*
X13869Y-40822D01*
X14071Y-40893D01*
X14284Y-40882D01*
X14431Y-40822D01*
X14458Y-40728D01*
X14458Y-41925D01*
X12989Y-40456D01*
X12989Y-37518D01*
X12989Y-37184D01*
X12989Y-34418D01*
X12989Y-34084D01*
X12989Y-30418D01*
X12989Y-30084D01*
X12989Y-22618D01*
X12989Y-22284D01*
X12989Y-18618D01*
X12989Y-18284D01*
X12862Y-17976D01*
X12626Y-17739D01*
X12318Y-17611D01*
X11984Y-17611D01*
X11676Y-17738D01*
X11439Y-17974D01*
X11311Y-18282D01*
X11311Y-18616D01*
X11438Y-18924D01*
X11674Y-19161D01*
X11982Y-19289D01*
X12316Y-19289D01*
X12624Y-19162D01*
X12861Y-18926D01*
X12989Y-18618D01*
X12989Y-22284D01*
X12862Y-21976D01*
X12626Y-21739D01*
X12318Y-21611D01*
X11984Y-21611D01*
X11676Y-21738D01*
X11439Y-21974D01*
X11311Y-22282D01*
X11311Y-22616D01*
X11438Y-22924D01*
X11674Y-23161D01*
X11982Y-23289D01*
X12316Y-23289D01*
X12624Y-23162D01*
X12861Y-22926D01*
X12989Y-22618D01*
X12989Y-30084D01*
X12862Y-29776D01*
X12626Y-29539D01*
X12318Y-29411D01*
X11984Y-29411D01*
X11676Y-29538D01*
X11439Y-29774D01*
X11311Y-30082D01*
X11311Y-30416D01*
X11438Y-30724D01*
X11674Y-30961D01*
X11982Y-31089D01*
X12316Y-31089D01*
X12624Y-30962D01*
X12861Y-30726D01*
X12989Y-30418D01*
X12989Y-34084D01*
X12862Y-33776D01*
X12626Y-33539D01*
X12318Y-33411D01*
X11984Y-33411D01*
X11676Y-33538D01*
X11439Y-33774D01*
X11311Y-34082D01*
X11311Y-34416D01*
X11438Y-34724D01*
X11674Y-34961D01*
X11982Y-35089D01*
X12316Y-35089D01*
X12624Y-34962D01*
X12861Y-34726D01*
X12989Y-34418D01*
X12989Y-37184D01*
X12862Y-36876D01*
X12626Y-36639D01*
X12318Y-36511D01*
X11984Y-36511D01*
X11676Y-36638D01*
X11439Y-36874D01*
X11311Y-37182D01*
X11311Y-37516D01*
X11438Y-37824D01*
X11674Y-38061D01*
X11982Y-38189D01*
X12316Y-38189D01*
X12624Y-38062D01*
X12861Y-37826D01*
X12989Y-37518D01*
X12989Y-40456D01*
X10650Y-38117D01*
X10650Y-18332D01*
X16082Y-12900D01*
X24050Y-12900D01*
X24050Y-12899D01*
X24126Y-12885D01*
X24127Y-12885D01*
X24191Y-12841D01*
X25691Y-11342D01*
X25691Y-11341D01*
X25735Y-11277D01*
X25749Y-11200D01*
X25750Y-11200D01*
X25750Y-09856D01*
X25799Y-09836D01*
X25923Y-09712D01*
X25991Y-09550D01*
X25991Y-27521D01*
X25987Y-27522D01*
X25797Y-27625D01*
X25661Y-27793D01*
X25650Y-27830D01*
X25639Y-27793D01*
X25503Y-27625D01*
X25313Y-27522D01*
X25285Y-27518D01*
X25200Y-27565D01*
X25200Y-28200D01*
X25600Y-28200D01*
X25700Y-28200D01*
X26100Y-28200D01*
X26100Y-28300D01*
X25700Y-28300D01*
X25600Y-28300D01*
X25200Y-28300D01*
X25200Y-28935D01*
X25285Y-28982D01*
X25313Y-28978D01*
X25503Y-28875D01*
X25639Y-28707D01*
X25650Y-28669D01*
X25661Y-28707D01*
X25797Y-28875D01*
X25987Y-28978D01*
X26015Y-28982D01*
X26100Y-28935D01*
X26100Y-31800D01*
X25100Y-31800D01*
X25100Y-28935D01*
X25100Y-28300D01*
X25100Y-28200D01*
X25100Y-27565D01*
X25015Y-27518D01*
X24987Y-27522D01*
X24797Y-27625D01*
X24661Y-27793D01*
X24600Y-28000D01*
X24600Y-28200D01*
X25100Y-28200D01*
X25100Y-28300D01*
X24600Y-28300D01*
X24600Y-28500D01*
X24661Y-28707D01*
X24797Y-28875D01*
X24987Y-28978D01*
X25015Y-28982D01*
X25100Y-28935D01*
X25100Y-31800D01*
X24591Y-31800D01*
X24591Y-28550D01*
X24591Y-28375D01*
X24591Y-27951D01*
X24524Y-27789D01*
X24400Y-27665D01*
X24238Y-27597D01*
X24063Y-27597D01*
X23901Y-27664D01*
X23777Y-27788D01*
X23709Y-27950D01*
X23709Y-28125D01*
X23709Y-28549D01*
X23776Y-28711D01*
X23900Y-28835D01*
X24062Y-28903D01*
X24237Y-28903D01*
X24399Y-28836D01*
X24523Y-28712D01*
X24591Y-28550D01*
X24591Y-31800D01*
X23591Y-31800D01*
X23591Y-28550D01*
X23591Y-28375D01*
X23591Y-27951D01*
X23524Y-27789D01*
X23400Y-27665D01*
X23238Y-27597D01*
X23063Y-27597D01*
X22901Y-27664D01*
X22777Y-27788D01*
X22709Y-27950D01*
X22709Y-28125D01*
X22709Y-28549D01*
X22776Y-28711D01*
X22900Y-28835D01*
X23062Y-28903D01*
X23237Y-28903D01*
X23399Y-28836D01*
X23523Y-28712D01*
X23591Y-28550D01*
X23591Y-31800D01*
X22591Y-31800D01*
X22591Y-28550D01*
X22591Y-28375D01*
X22591Y-27951D01*
X22524Y-27789D01*
X22400Y-27665D01*
X22238Y-27597D01*
X22063Y-27597D01*
X21901Y-27664D01*
X21777Y-27788D01*
X21709Y-27950D01*
X21709Y-28125D01*
X21709Y-28549D01*
X21776Y-28711D01*
X21900Y-28835D01*
X22062Y-28903D01*
X22237Y-28903D01*
X22399Y-28836D01*
X22523Y-28712D01*
X22591Y-28550D01*
X22591Y-31800D01*
X19550Y-31800D01*
X19550Y-20515D01*
X19550Y-20386D01*
X19501Y-20266D01*
X19410Y-20175D01*
X19290Y-20125D01*
X19161Y-20125D01*
X19041Y-20174D01*
X18965Y-20250D01*
X18299Y-20250D01*
X18299Y-20020D01*
X18276Y-19965D01*
X18234Y-19923D01*
X18179Y-19901D01*
X18120Y-19901D01*
X17520Y-19901D01*
X17465Y-19924D01*
X17423Y-19966D01*
X17401Y-20021D01*
X17401Y-20080D01*
X17401Y-20880D01*
X17424Y-20935D01*
X17466Y-20977D01*
X17521Y-20999D01*
X17580Y-20999D01*
X18180Y-20999D01*
X18235Y-20976D01*
X18277Y-20934D01*
X18299Y-20879D01*
X18299Y-20820D01*
X18299Y-20650D01*
X18965Y-20650D01*
X19040Y-20725D01*
X19160Y-20775D01*
X19289Y-20775D01*
X19409Y-20726D01*
X19500Y-20635D01*
X19550Y-20515D01*
X19550Y-31800D01*
X16999Y-31800D01*
X16999Y-20879D01*
X16999Y-20820D01*
X16999Y-20020D01*
X16976Y-19965D01*
X16934Y-19923D01*
X16879Y-19901D01*
X16820Y-19901D01*
X16220Y-19901D01*
X16165Y-19924D01*
X16123Y-19966D01*
X16101Y-20021D01*
X16101Y-20080D01*
X16101Y-20250D01*
X14553Y-20250D01*
X14531Y-20196D01*
X14405Y-20070D01*
X14240Y-20001D01*
X14061Y-20001D01*
X13896Y-20069D01*
X13770Y-20195D01*
X13701Y-20360D01*
X13701Y-20539D01*
X13769Y-20704D01*
X13895Y-20830D01*
X14060Y-20899D01*
X14239Y-20899D01*
X14404Y-20831D01*
X14530Y-20705D01*
X14553Y-20650D01*
X16101Y-20650D01*
X16101Y-20880D01*
X16124Y-20935D01*
X16166Y-20977D01*
X16221Y-20999D01*
X16280Y-20999D01*
X16880Y-20999D01*
X16935Y-20976D01*
X16977Y-20934D01*
X16999Y-20879D01*
X16999Y-31800D01*
X15575Y-31800D01*
X15575Y-28435D01*
X15575Y-28067D01*
X15435Y-27727D01*
X15175Y-27467D01*
X14835Y-27325D01*
X14693Y-27325D01*
X14693Y-21529D01*
X14682Y-21316D01*
X14622Y-21169D01*
X14528Y-21142D01*
X14458Y-21212D01*
X14458Y-21072D01*
X14431Y-20978D01*
X14229Y-20907D01*
X14016Y-20918D01*
X13869Y-20978D01*
X13842Y-21072D01*
X14150Y-21379D01*
X14458Y-21072D01*
X14458Y-21212D01*
X14221Y-21450D01*
X14528Y-21758D01*
X14622Y-21731D01*
X14693Y-21529D01*
X14693Y-27325D01*
X14467Y-27325D01*
X14458Y-27328D01*
X14458Y-21828D01*
X14150Y-21521D01*
X14079Y-21591D01*
X14079Y-21450D01*
X13772Y-21142D01*
X13678Y-21169D01*
X13607Y-21371D01*
X13618Y-21584D01*
X13678Y-21731D01*
X13772Y-21758D01*
X14079Y-21450D01*
X14079Y-21591D01*
X13842Y-21828D01*
X13869Y-21922D01*
X14071Y-21993D01*
X14284Y-21982D01*
X14431Y-21922D01*
X14458Y-21828D01*
X14458Y-27328D01*
X14127Y-27465D01*
X13867Y-27725D01*
X13725Y-28065D01*
X13725Y-28433D01*
X13865Y-28773D01*
X14125Y-29033D01*
X14465Y-29175D01*
X14833Y-29175D01*
X15173Y-29035D01*
X15433Y-28775D01*
X15575Y-28435D01*
X15575Y-31800D01*
X13750Y-31800D01*
X13750Y-32042D01*
X13701Y-32160D01*
X13701Y-32339D01*
X13750Y-32457D01*
X13750Y-32650D01*
X13942Y-32650D01*
X14060Y-32699D01*
X14239Y-32699D01*
X14357Y-32650D01*
X26550Y-32650D01*
X26550Y-36450D01*
X28200Y-36450D01*
X28200Y-40961D01*
X28111Y-40872D01*
X27983Y-40819D01*
X27844Y-40819D01*
X27144Y-40819D01*
X27016Y-40872D01*
X26917Y-40970D01*
X26864Y-41098D01*
X26864Y-41237D01*
X26864Y-41937D01*
X26917Y-42065D01*
X27015Y-42164D01*
X27143Y-42217D01*
X27282Y-42217D01*
X27982Y-42217D01*
X28110Y-42164D01*
X28200Y-42074D01*
X28209Y-42066D01*
X28262Y-41938D01*
X28262Y-44525D01*
X28200Y-44525D01*
X28062Y-44525D01*
X28062Y-44061D01*
X28062Y-44002D01*
X28062Y-43302D01*
X28039Y-43247D01*
X27997Y-43205D01*
X27942Y-43183D01*
X27883Y-43183D01*
X27183Y-43183D01*
X27128Y-43206D01*
X27086Y-43248D01*
X27064Y-43303D01*
X27064Y-43362D01*
X27064Y-44062D01*
X27087Y-44117D01*
X27129Y-44159D01*
X27184Y-44181D01*
X27243Y-44181D01*
X27943Y-44181D01*
X27998Y-44158D01*
X28040Y-44116D01*
X28062Y-44061D01*
X28062Y-44525D01*
X26609Y-44525D01*
X26609Y-41938D01*
X26609Y-41799D01*
X26609Y-41099D01*
X26556Y-40971D01*
X26458Y-40872D01*
X26330Y-40819D01*
X26191Y-40819D01*
X25625Y-40819D01*
X25625Y-39415D01*
X25625Y-39286D01*
X25576Y-39166D01*
X25485Y-39075D01*
X25365Y-39025D01*
X25236Y-39025D01*
X25116Y-39074D01*
X25025Y-39165D01*
X24975Y-39285D01*
X24975Y-39392D01*
X24317Y-40050D01*
X21210Y-40050D01*
X21424Y-39962D01*
X21661Y-39726D01*
X21789Y-39418D01*
X21789Y-39084D01*
X21662Y-38776D01*
X21426Y-38539D01*
X21118Y-38411D01*
X20784Y-38411D01*
X20493Y-38530D01*
X20493Y-37329D01*
X20482Y-37116D01*
X20422Y-36969D01*
X20328Y-36942D01*
X20258Y-37012D01*
X20258Y-36872D01*
X20231Y-36778D01*
X20029Y-36707D01*
X19816Y-36718D01*
X19669Y-36778D01*
X19642Y-36872D01*
X19950Y-37179D01*
X20258Y-36872D01*
X20258Y-37012D01*
X20021Y-37250D01*
X20328Y-37558D01*
X20422Y-37531D01*
X20493Y-37329D01*
X20493Y-38530D01*
X20476Y-38538D01*
X20258Y-38755D01*
X20258Y-37628D01*
X19950Y-37321D01*
X19879Y-37391D01*
X19879Y-37250D01*
X19572Y-36942D01*
X19478Y-36969D01*
X19407Y-37171D01*
X19418Y-37384D01*
X19478Y-37531D01*
X19572Y-37558D01*
X19879Y-37250D01*
X19879Y-37391D01*
X19642Y-37628D01*
X19669Y-37722D01*
X19871Y-37793D01*
X20084Y-37782D01*
X20231Y-37722D01*
X20258Y-37628D01*
X20258Y-38755D01*
X20239Y-38774D01*
X20111Y-39082D01*
X20111Y-39416D01*
X20238Y-39724D01*
X20474Y-39961D01*
X20688Y-40050D01*
X20182Y-40050D01*
X19150Y-39017D01*
X19150Y-37653D01*
X19204Y-37631D01*
X19330Y-37505D01*
X19399Y-37340D01*
X19399Y-37161D01*
X19331Y-36996D01*
X19205Y-36870D01*
X19040Y-36801D01*
X18861Y-36801D01*
X18696Y-36869D01*
X18570Y-36995D01*
X18501Y-37160D01*
X18501Y-37339D01*
X18569Y-37504D01*
X18695Y-37630D01*
X18750Y-37653D01*
X18750Y-39100D01*
X18765Y-39177D01*
X18809Y-39241D01*
X19958Y-40391D01*
X19959Y-40391D01*
X20023Y-40435D01*
X20100Y-40450D01*
X24400Y-40450D01*
X24400Y-40449D01*
X24476Y-40435D01*
X24477Y-40435D01*
X24541Y-40391D01*
X25257Y-39675D01*
X25364Y-39675D01*
X25484Y-39626D01*
X25575Y-39535D01*
X25625Y-39415D01*
X25625Y-40819D01*
X25491Y-40819D01*
X25363Y-40872D01*
X25264Y-40970D01*
X25211Y-41098D01*
X25211Y-41237D01*
X25211Y-41937D01*
X25264Y-42065D01*
X25362Y-42164D01*
X25490Y-42217D01*
X25629Y-42217D01*
X26329Y-42217D01*
X26457Y-42164D01*
X26556Y-42066D01*
X26609Y-41938D01*
X26609Y-44525D01*
X26409Y-44525D01*
X26409Y-44061D01*
X26409Y-44002D01*
X26409Y-43302D01*
X26386Y-43247D01*
X26344Y-43205D01*
X26289Y-43183D01*
X26230Y-43183D01*
X25530Y-43183D01*
X25475Y-43206D01*
X25433Y-43248D01*
X25411Y-43303D01*
X25411Y-43362D01*
X25411Y-44062D01*
X25434Y-44117D01*
X25476Y-44159D01*
X25531Y-44181D01*
X25590Y-44181D01*
X26290Y-44181D01*
X26345Y-44158D01*
X26387Y-44116D01*
X26409Y-44061D01*
X26409Y-44525D01*
X24799Y-44525D01*
X24799Y-41842D01*
X24799Y-41548D01*
X24687Y-41276D01*
X24479Y-41068D01*
X24207Y-40954D01*
X23913Y-40954D01*
X23641Y-41066D01*
X23433Y-41274D01*
X23319Y-41546D01*
X23319Y-41840D01*
X23431Y-42112D01*
X23639Y-42320D01*
X23911Y-42434D01*
X24205Y-42434D01*
X24477Y-42322D01*
X24685Y-42114D01*
X24799Y-41842D01*
X24799Y-44525D01*
X17789Y-44525D01*
X17789Y-39418D01*
X17789Y-39084D01*
X17662Y-38776D01*
X17426Y-38539D01*
X17118Y-38411D01*
X16784Y-38411D01*
X16476Y-38538D01*
X16239Y-38774D01*
X16111Y-39082D01*
X16111Y-39416D01*
X16238Y-39724D01*
X16474Y-39961D01*
X16782Y-40089D01*
X17116Y-40089D01*
X17424Y-39962D01*
X17661Y-39726D01*
X17789Y-39418D01*
X17789Y-44525D01*
X09375Y-44525D01*
X09375Y-08475D01*
X14617Y-08475D01*
X14367Y-08725D01*
X14225Y-09065D01*
X14225Y-09433D01*
X14365Y-09773D01*
X14625Y-10033D01*
X14965Y-10175D01*
X15333Y-10175D01*
X15673Y-10035D01*
X15933Y-09775D01*
X16075Y-09435D01*
X16075Y-09067D01*
X15935Y-08727D01*
X15683Y-08475D01*
X44117Y-08475D01*
X43867Y-08725D01*
X43725Y-09065D01*
X43725Y-09433D01*
X43865Y-09773D01*
X44125Y-10033D01*
X44465Y-10175D01*
X44833Y-10175D01*
X45173Y-10035D01*
X45433Y-09775D01*
X45575Y-09435D01*
X45575Y-09067D01*
X45435Y-08727D01*
X45183Y-08475D01*
X48925Y-08475D01*
X48925Y-44525D01*
X48925Y-44525D01*
G37*
G54D25*
X48925Y-44525D02*
X48075Y-44525D01*
X48075Y-28435D01*
X48075Y-28067D01*
X47935Y-27727D01*
X47693Y-27485D01*
X47693Y-26329D01*
X47682Y-26116D01*
X47622Y-25969D01*
X47599Y-25962D01*
X47599Y-25340D01*
X47599Y-25161D01*
X47599Y-24340D01*
X47599Y-24161D01*
X47599Y-23340D01*
X47599Y-23161D01*
X47599Y-22340D01*
X47599Y-22161D01*
X47599Y-21340D01*
X47599Y-21161D01*
X47599Y-20340D01*
X47599Y-20161D01*
X47599Y-19340D01*
X47599Y-19161D01*
X47599Y-18340D01*
X47599Y-18161D01*
X47599Y-17340D01*
X47599Y-17161D01*
X47599Y-16340D01*
X47599Y-16161D01*
X47599Y-15340D01*
X47599Y-15161D01*
X47599Y-14340D01*
X47599Y-14161D01*
X47599Y-13340D01*
X47599Y-13161D01*
X47599Y-12340D01*
X47599Y-12161D01*
X47599Y-11340D01*
X47599Y-11161D01*
X47599Y-10340D01*
X47599Y-10161D01*
X47599Y-09340D01*
X47599Y-09161D01*
X47531Y-08996D01*
X47405Y-08870D01*
X47240Y-08801D01*
X47061Y-08801D01*
X46896Y-08869D01*
X46770Y-08995D01*
X46701Y-09160D01*
X46701Y-09339D01*
X46769Y-09504D01*
X46895Y-09630D01*
X47060Y-09699D01*
X47239Y-09699D01*
X47404Y-09631D01*
X47530Y-09505D01*
X47599Y-09340D01*
X47599Y-10161D01*
X47531Y-09996D01*
X47405Y-09870D01*
X47240Y-09801D01*
X47061Y-09801D01*
X46896Y-09869D01*
X46770Y-09995D01*
X46701Y-10160D01*
X46701Y-10339D01*
X46769Y-10504D01*
X46895Y-10630D01*
X47060Y-10699D01*
X47239Y-10699D01*
X47404Y-10631D01*
X47530Y-10505D01*
X47599Y-10340D01*
X47599Y-11161D01*
X47531Y-10996D01*
X47405Y-10870D01*
X47240Y-10801D01*
X47061Y-10801D01*
X46896Y-10869D01*
X46770Y-10995D01*
X46701Y-11160D01*
X46701Y-11339D01*
X46769Y-11504D01*
X46895Y-11630D01*
X47060Y-11699D01*
X47239Y-11699D01*
X47404Y-11631D01*
X47530Y-11505D01*
X47599Y-11340D01*
X47599Y-12161D01*
X47531Y-11996D01*
X47405Y-11870D01*
X47240Y-11801D01*
X47061Y-11801D01*
X46896Y-11869D01*
X46770Y-11995D01*
X46701Y-12160D01*
X46701Y-12339D01*
X46769Y-12504D01*
X46895Y-12630D01*
X47060Y-12699D01*
X47239Y-12699D01*
X47404Y-12631D01*
X47530Y-12505D01*
X47599Y-12340D01*
X47599Y-13161D01*
X47531Y-12996D01*
X47405Y-12870D01*
X47240Y-12801D01*
X47061Y-12801D01*
X46896Y-12869D01*
X46770Y-12995D01*
X46701Y-13160D01*
X46701Y-13339D01*
X46769Y-13504D01*
X46895Y-13630D01*
X47060Y-13699D01*
X47239Y-13699D01*
X47404Y-13631D01*
X47530Y-13505D01*
X47599Y-13340D01*
X47599Y-14161D01*
X47531Y-13996D01*
X47405Y-13870D01*
X47240Y-13801D01*
X47061Y-13801D01*
X46896Y-13869D01*
X46770Y-13995D01*
X46701Y-14160D01*
X46701Y-14339D01*
X46769Y-14504D01*
X46895Y-14630D01*
X47060Y-14699D01*
X47239Y-14699D01*
X47404Y-14631D01*
X47530Y-14505D01*
X47599Y-14340D01*
X47599Y-15161D01*
X47531Y-14996D01*
X47405Y-14870D01*
X47240Y-14801D01*
X47061Y-14801D01*
X46896Y-14869D01*
X46770Y-14995D01*
X46701Y-15160D01*
X46701Y-15339D01*
X46769Y-15504D01*
X46895Y-15630D01*
X47060Y-15699D01*
X47239Y-15699D01*
X47404Y-15631D01*
X47530Y-15505D01*
X47599Y-15340D01*
X47599Y-16161D01*
X47531Y-15996D01*
X47405Y-15870D01*
X47240Y-15801D01*
X47061Y-15801D01*
X46896Y-15869D01*
X46770Y-15995D01*
X46701Y-16160D01*
X46701Y-16339D01*
X46769Y-16504D01*
X46895Y-16630D01*
X47060Y-16699D01*
X47239Y-16699D01*
X47404Y-16631D01*
X47530Y-16505D01*
X47599Y-16340D01*
X47599Y-17161D01*
X47531Y-16996D01*
X47405Y-16870D01*
X47240Y-16801D01*
X47061Y-16801D01*
X46896Y-16869D01*
X46770Y-16995D01*
X46701Y-17160D01*
X46701Y-17339D01*
X46769Y-17504D01*
X46895Y-17630D01*
X47060Y-17699D01*
X47239Y-17699D01*
X47404Y-17631D01*
X47530Y-17505D01*
X47599Y-17340D01*
X47599Y-18161D01*
X47531Y-17996D01*
X47405Y-17870D01*
X47240Y-17801D01*
X47061Y-17801D01*
X46896Y-17869D01*
X46770Y-17995D01*
X46701Y-18160D01*
X46701Y-18339D01*
X46769Y-18504D01*
X46895Y-18630D01*
X47060Y-18699D01*
X47239Y-18699D01*
X47404Y-18631D01*
X47530Y-18505D01*
X47599Y-18340D01*
X47599Y-19161D01*
X47531Y-18996D01*
X47405Y-18870D01*
X47240Y-18801D01*
X47061Y-18801D01*
X46896Y-18869D01*
X46770Y-18995D01*
X46701Y-19160D01*
X46701Y-19339D01*
X46769Y-19504D01*
X46895Y-19630D01*
X47060Y-19699D01*
X47239Y-19699D01*
X47404Y-19631D01*
X47530Y-19505D01*
X47599Y-19340D01*
X47599Y-20161D01*
X47531Y-19996D01*
X47405Y-19870D01*
X47240Y-19801D01*
X47061Y-19801D01*
X46896Y-19869D01*
X46770Y-19995D01*
X46701Y-20160D01*
X46701Y-20339D01*
X46769Y-20504D01*
X46895Y-20630D01*
X47060Y-20699D01*
X47239Y-20699D01*
X47404Y-20631D01*
X47530Y-20505D01*
X47599Y-20340D01*
X47599Y-21161D01*
X47531Y-20996D01*
X47405Y-20870D01*
X47240Y-20801D01*
X47061Y-20801D01*
X46896Y-20869D01*
X46770Y-20995D01*
X46701Y-21160D01*
X46701Y-21339D01*
X46769Y-21504D01*
X46895Y-21630D01*
X47060Y-21699D01*
X47239Y-21699D01*
X47404Y-21631D01*
X47530Y-21505D01*
X47599Y-21340D01*
X47599Y-22161D01*
X47531Y-21996D01*
X47405Y-21870D01*
X47240Y-21801D01*
X47061Y-21801D01*
X46896Y-21869D01*
X46770Y-21995D01*
X46701Y-22160D01*
X46701Y-22339D01*
X46769Y-22504D01*
X46895Y-22630D01*
X47060Y-22699D01*
X47239Y-22699D01*
X47404Y-22631D01*
X47530Y-22505D01*
X47599Y-22340D01*
X47599Y-23161D01*
X47531Y-22996D01*
X47405Y-22870D01*
X47240Y-22801D01*
X47061Y-22801D01*
X46896Y-22869D01*
X46770Y-22995D01*
X46701Y-23160D01*
X46701Y-23339D01*
X46769Y-23504D01*
X46895Y-23630D01*
X47060Y-23699D01*
X47239Y-23699D01*
X47404Y-23631D01*
X47530Y-23505D01*
X47599Y-23340D01*
X47599Y-24161D01*
X47531Y-23996D01*
X47405Y-23870D01*
X47240Y-23801D01*
X47061Y-23801D01*
X46896Y-23869D01*
X46770Y-23995D01*
X46701Y-24160D01*
X46701Y-24339D01*
X46769Y-24504D01*
X46895Y-24630D01*
X47060Y-24699D01*
X47239Y-24699D01*
X47404Y-24631D01*
X47530Y-24505D01*
X47599Y-24340D01*
X47599Y-25161D01*
X47531Y-24996D01*
X47405Y-24870D01*
X47240Y-24801D01*
X47061Y-24801D01*
X46896Y-24869D01*
X46770Y-24995D01*
X46701Y-25160D01*
X46701Y-25339D01*
X46769Y-25504D01*
X46895Y-25630D01*
X47060Y-25699D01*
X47239Y-25699D01*
X47404Y-25631D01*
X47530Y-25505D01*
X47599Y-25340D01*
X47599Y-25962D01*
X47528Y-25942D01*
X47458Y-26012D01*
X47458Y-25872D01*
X47431Y-25778D01*
X47229Y-25707D01*
X47016Y-25718D01*
X46869Y-25778D01*
X46842Y-25872D01*
X47150Y-26179D01*
X47458Y-25872D01*
X47458Y-26012D01*
X47221Y-26250D01*
X47528Y-26558D01*
X47622Y-26531D01*
X47693Y-26329D01*
X47693Y-27485D01*
X47675Y-27467D01*
X47458Y-27376D01*
X47458Y-26628D01*
X47150Y-26321D01*
X47079Y-26391D01*
X47079Y-26250D01*
X46772Y-25942D01*
X46678Y-25969D01*
X46652Y-26042D01*
X46622Y-25969D01*
X46599Y-25962D01*
X46599Y-25340D01*
X46599Y-25161D01*
X46599Y-24340D01*
X46599Y-24161D01*
X46599Y-23340D01*
X46599Y-23161D01*
X46599Y-22340D01*
X46599Y-22161D01*
X46599Y-21340D01*
X46599Y-21161D01*
X46599Y-20340D01*
X46599Y-20161D01*
X46599Y-19340D01*
X46599Y-19161D01*
X46599Y-18340D01*
X46599Y-18161D01*
X46599Y-17340D01*
X46599Y-17161D01*
X46599Y-16340D01*
X46599Y-16161D01*
X46599Y-15340D01*
X46599Y-15161D01*
X46599Y-14340D01*
X46599Y-14161D01*
X46599Y-13340D01*
X46599Y-13161D01*
X46599Y-12340D01*
X46599Y-12161D01*
X46599Y-11340D01*
X46599Y-11161D01*
X46599Y-10340D01*
X46599Y-10161D01*
X46599Y-09340D01*
X46599Y-09161D01*
X46531Y-08996D01*
X46405Y-08870D01*
X46240Y-08801D01*
X46061Y-08801D01*
X45896Y-08869D01*
X45770Y-08995D01*
X45701Y-09160D01*
X45701Y-09339D01*
X45769Y-09504D01*
X45895Y-09630D01*
X46060Y-09699D01*
X46239Y-09699D01*
X46404Y-09631D01*
X46530Y-09505D01*
X46599Y-09340D01*
X46599Y-10161D01*
X46531Y-09996D01*
X46405Y-09870D01*
X46240Y-09801D01*
X46061Y-09801D01*
X45896Y-09869D01*
X45770Y-09995D01*
X45701Y-10160D01*
X45701Y-10339D01*
X45769Y-10504D01*
X45895Y-10630D01*
X46060Y-10699D01*
X46239Y-10699D01*
X46404Y-10631D01*
X46530Y-10505D01*
X46599Y-10340D01*
X46599Y-11161D01*
X46531Y-10996D01*
X46405Y-10870D01*
X46240Y-10801D01*
X46061Y-10801D01*
X45896Y-10869D01*
X45770Y-10995D01*
X45701Y-11160D01*
X45701Y-11339D01*
X45769Y-11504D01*
X45895Y-11630D01*
X46060Y-11699D01*
X46239Y-11699D01*
X46404Y-11631D01*
X46530Y-11505D01*
X46599Y-11340D01*
X46599Y-12161D01*
X46531Y-11996D01*
X46405Y-11870D01*
X46240Y-11801D01*
X46061Y-11801D01*
X45896Y-11869D01*
X45770Y-11995D01*
X45701Y-12160D01*
X45701Y-12339D01*
X45769Y-12504D01*
X45895Y-12630D01*
X46060Y-12699D01*
X46239Y-12699D01*
X46404Y-12631D01*
X46530Y-12505D01*
X46599Y-12340D01*
X46599Y-13161D01*
X46531Y-12996D01*
X46405Y-12870D01*
X46240Y-12801D01*
X46061Y-12801D01*
X45896Y-12869D01*
X45770Y-12995D01*
X45701Y-13160D01*
X45701Y-13339D01*
X45769Y-13504D01*
X45895Y-13630D01*
X46060Y-13699D01*
X46239Y-13699D01*
X46404Y-13631D01*
X46530Y-13505D01*
X46599Y-13340D01*
X46599Y-14161D01*
X46531Y-13996D01*
X46405Y-13870D01*
X46240Y-13801D01*
X46061Y-13801D01*
X45896Y-13869D01*
X45770Y-13995D01*
X45701Y-14160D01*
X45701Y-14339D01*
X45769Y-14504D01*
X45895Y-14630D01*
X46060Y-14699D01*
X46239Y-14699D01*
X46404Y-14631D01*
X46530Y-14505D01*
X46599Y-14340D01*
X46599Y-15161D01*
X46531Y-14996D01*
X46405Y-14870D01*
X46240Y-14801D01*
X46061Y-14801D01*
X45896Y-14869D01*
X45770Y-14995D01*
X45701Y-15160D01*
X45701Y-15339D01*
X45769Y-15504D01*
X45895Y-15630D01*
X46060Y-15699D01*
X46239Y-15699D01*
X46404Y-15631D01*
X46530Y-15505D01*
X46599Y-15340D01*
X46599Y-16161D01*
X46531Y-15996D01*
X46405Y-15870D01*
X46240Y-15801D01*
X46061Y-15801D01*
X45896Y-15869D01*
X45770Y-15995D01*
X45701Y-16160D01*
X45701Y-16339D01*
X45769Y-16504D01*
X45895Y-16630D01*
X46060Y-16699D01*
X46239Y-16699D01*
X46404Y-16631D01*
X46530Y-16505D01*
X46599Y-16340D01*
X46599Y-17161D01*
X46531Y-16996D01*
X46405Y-16870D01*
X46240Y-16801D01*
X46061Y-16801D01*
X45896Y-16869D01*
X45770Y-16995D01*
X45701Y-17160D01*
X45701Y-17339D01*
X45769Y-17504D01*
X45895Y-17630D01*
X46060Y-17699D01*
X46239Y-17699D01*
X46404Y-17631D01*
X46530Y-17505D01*
X46599Y-17340D01*
X46599Y-18161D01*
X46531Y-17996D01*
X46405Y-17870D01*
X46240Y-17801D01*
X46061Y-17801D01*
X45896Y-17869D01*
X45770Y-17995D01*
X45701Y-18160D01*
X45701Y-18339D01*
X45769Y-18504D01*
X45895Y-18630D01*
X46060Y-18699D01*
X46239Y-18699D01*
X46404Y-18631D01*
X46530Y-18505D01*
X46599Y-18340D01*
X46599Y-19161D01*
X46531Y-18996D01*
X46405Y-18870D01*
X46240Y-18801D01*
X46061Y-18801D01*
X45896Y-18869D01*
X45770Y-18995D01*
X45701Y-19160D01*
X45701Y-19339D01*
X45769Y-19504D01*
X45895Y-19630D01*
X46060Y-19699D01*
X46239Y-19699D01*
X46404Y-19631D01*
X46530Y-19505D01*
X46599Y-19340D01*
X46599Y-20161D01*
X46531Y-19996D01*
X46405Y-19870D01*
X46240Y-19801D01*
X46061Y-19801D01*
X45896Y-19869D01*
X45770Y-19995D01*
X45701Y-20160D01*
X45701Y-20339D01*
X45769Y-20504D01*
X45895Y-20630D01*
X46060Y-20699D01*
X46239Y-20699D01*
X46404Y-20631D01*
X46530Y-20505D01*
X46599Y-20340D01*
X46599Y-21161D01*
X46531Y-20996D01*
X46405Y-20870D01*
X46240Y-20801D01*
X46061Y-20801D01*
X45896Y-20869D01*
X45770Y-20995D01*
X45701Y-21160D01*
X45701Y-21339D01*
X45769Y-21504D01*
X45895Y-21630D01*
X46060Y-21699D01*
X46239Y-21699D01*
X46404Y-21631D01*
X46530Y-21505D01*
X46599Y-21340D01*
X46599Y-22161D01*
X46531Y-21996D01*
X46405Y-21870D01*
X46240Y-21801D01*
X46061Y-21801D01*
X45896Y-21869D01*
X45770Y-21995D01*
X45701Y-22160D01*
X45701Y-22339D01*
X45769Y-22504D01*
X45895Y-22630D01*
X46060Y-22699D01*
X46239Y-22699D01*
X46404Y-22631D01*
X46530Y-22505D01*
X46599Y-22340D01*
X46599Y-23161D01*
X46531Y-22996D01*
X46405Y-22870D01*
X46240Y-22801D01*
X46061Y-22801D01*
X45896Y-22869D01*
X45770Y-22995D01*
X45701Y-23160D01*
X45701Y-23339D01*
X45769Y-23504D01*
X45895Y-23630D01*
X46060Y-23699D01*
X46239Y-23699D01*
X46404Y-23631D01*
X46530Y-23505D01*
X46599Y-23340D01*
X46599Y-24161D01*
X46531Y-23996D01*
X46405Y-23870D01*
X46240Y-23801D01*
X46061Y-23801D01*
X45896Y-23869D01*
X45770Y-23995D01*
X45701Y-24160D01*
X45701Y-24339D01*
X45769Y-24504D01*
X45895Y-24630D01*
X46060Y-24699D01*
X46239Y-24699D01*
X46404Y-24631D01*
X46530Y-24505D01*
X46599Y-24340D01*
X46599Y-25161D01*
X46531Y-24996D01*
X46405Y-24870D01*
X46240Y-24801D01*
X46061Y-24801D01*
X45935Y-24852D01*
X45450Y-24367D01*
X45450Y-23110D01*
X45525Y-23035D01*
X45575Y-22915D01*
X45575Y-22786D01*
X45526Y-22666D01*
X45435Y-22575D01*
X45315Y-22525D01*
X45186Y-22525D01*
X45066Y-22574D01*
X44975Y-22665D01*
X44925Y-22785D01*
X44925Y-22914D01*
X44974Y-23034D01*
X45050Y-23110D01*
X45050Y-24450D01*
X45065Y-24527D01*
X45109Y-24591D01*
X45701Y-25183D01*
X45701Y-25339D01*
X45769Y-25504D01*
X45895Y-25630D01*
X46060Y-25699D01*
X46239Y-25699D01*
X46404Y-25631D01*
X46530Y-25505D01*
X46599Y-25340D01*
X46599Y-25962D01*
X46528Y-25942D01*
X46458Y-26012D01*
X46458Y-25872D01*
X46431Y-25778D01*
X46229Y-25707D01*
X46016Y-25718D01*
X45869Y-25778D01*
X45842Y-25872D01*
X46150Y-26179D01*
X46458Y-25872D01*
X46458Y-26012D01*
X46221Y-26250D01*
X46528Y-26558D01*
X46622Y-26531D01*
X46647Y-26457D01*
X46678Y-26531D01*
X46772Y-26558D01*
X47079Y-26250D01*
X47079Y-26391D01*
X46842Y-26628D01*
X46869Y-26722D01*
X47071Y-26793D01*
X47284Y-26782D01*
X47431Y-26722D01*
X47458Y-26628D01*
X47458Y-27376D01*
X47335Y-27325D01*
X46967Y-27325D01*
X46627Y-27465D01*
X46458Y-27634D01*
X46458Y-26628D01*
X46150Y-26321D01*
X46079Y-26391D01*
X46079Y-26250D01*
X45772Y-25942D01*
X45678Y-25969D01*
X45607Y-26171D01*
X45618Y-26384D01*
X45678Y-26531D01*
X45772Y-26558D01*
X46079Y-26250D01*
X46079Y-26391D01*
X45842Y-26628D01*
X45869Y-26722D01*
X46071Y-26793D01*
X46284Y-26782D01*
X46431Y-26722D01*
X46458Y-26628D01*
X46458Y-27634D01*
X46367Y-27725D01*
X46225Y-28065D01*
X46225Y-28433D01*
X46365Y-28773D01*
X46625Y-29033D01*
X46965Y-29175D01*
X47333Y-29175D01*
X47673Y-29035D01*
X47933Y-28775D01*
X48075Y-28435D01*
X48075Y-44525D01*
X47425Y-44525D01*
X47425Y-33915D01*
X47425Y-33786D01*
X47376Y-33666D01*
X47285Y-33575D01*
X47165Y-33525D01*
X47036Y-33525D01*
X46916Y-33574D01*
X46825Y-33665D01*
X46775Y-33785D01*
X46775Y-33892D01*
X46092Y-34574D01*
X46081Y-34546D01*
X45955Y-34420D01*
X45927Y-34408D01*
X46068Y-34350D01*
X46250Y-34168D01*
X46349Y-33929D01*
X46349Y-33671D01*
X46250Y-33432D01*
X46149Y-33331D01*
X46149Y-31650D01*
X46149Y-31352D01*
X46035Y-31077D01*
X45825Y-30866D01*
X45591Y-30768D01*
X45591Y-28550D01*
X45591Y-28375D01*
X45591Y-27951D01*
X45524Y-27789D01*
X45400Y-27665D01*
X45238Y-27597D01*
X45063Y-27597D01*
X44975Y-27633D01*
X44975Y-24715D01*
X44975Y-24586D01*
X44926Y-24466D01*
X44835Y-24375D01*
X44715Y-24325D01*
X44586Y-24325D01*
X44466Y-24374D01*
X44375Y-24465D01*
X44339Y-24550D01*
X44305Y-24550D01*
X44301Y-24540D01*
X44259Y-24498D01*
X44204Y-24476D01*
X44145Y-24476D01*
X43695Y-24476D01*
X43640Y-24499D01*
X43598Y-24541D01*
X43594Y-24550D01*
X43591Y-24550D01*
X43591Y-09550D01*
X43591Y-09375D01*
X43591Y-08951D01*
X43524Y-08789D01*
X43400Y-08665D01*
X43238Y-08597D01*
X43063Y-08597D01*
X42901Y-08664D01*
X42777Y-08788D01*
X42709Y-08950D01*
X42709Y-09125D01*
X42709Y-09549D01*
X42776Y-09711D01*
X42900Y-09835D01*
X42950Y-09855D01*
X42950Y-12267D01*
X42800Y-12417D01*
X42350Y-11967D01*
X42350Y-09856D01*
X42399Y-09836D01*
X42523Y-09712D01*
X42591Y-09550D01*
X42591Y-09375D01*
X42591Y-08951D01*
X42524Y-08789D01*
X42400Y-08665D01*
X42238Y-08597D01*
X42063Y-08597D01*
X41901Y-08664D01*
X41777Y-08788D01*
X41709Y-08950D01*
X41709Y-09125D01*
X41709Y-09549D01*
X41776Y-09711D01*
X41900Y-09835D01*
X41950Y-09855D01*
X41950Y-12050D01*
X41965Y-12127D01*
X42009Y-12191D01*
X42472Y-12654D01*
X42472Y-12693D01*
X42453Y-12712D01*
X42453Y-12858D01*
X42448Y-12871D01*
X42448Y-12930D01*
X42448Y-13430D01*
X42453Y-13441D01*
X42453Y-13588D01*
X42515Y-13650D01*
X42540Y-13649D01*
X42632Y-13611D01*
X42694Y-13549D01*
X42777Y-13549D01*
X42799Y-13539D01*
X42824Y-13549D01*
X42883Y-13549D01*
X42906Y-13549D01*
X42968Y-13611D01*
X43060Y-13649D01*
X43085Y-13650D01*
X43147Y-13588D01*
X43147Y-13441D01*
X43152Y-13429D01*
X43152Y-13370D01*
X43152Y-12870D01*
X43147Y-12858D01*
X43147Y-12712D01*
X43128Y-12693D01*
X43128Y-12654D01*
X43291Y-12492D01*
X43291Y-12491D01*
X43335Y-12427D01*
X43349Y-12351D01*
X43350Y-12350D01*
X43350Y-09856D01*
X43399Y-09836D01*
X43523Y-09712D01*
X43591Y-09550D01*
X43591Y-24550D01*
X43509Y-24550D01*
X43509Y-13262D01*
X43509Y-13038D01*
X43508Y-12949D01*
X43508Y-12850D01*
X43470Y-12759D01*
X43400Y-12689D01*
X43308Y-12651D01*
X43283Y-12650D01*
X43221Y-12712D01*
X43221Y-13100D01*
X43447Y-13100D01*
X43509Y-13038D01*
X43509Y-13262D01*
X43447Y-13200D01*
X43221Y-13200D01*
X43221Y-13588D01*
X43283Y-13650D01*
X43308Y-13649D01*
X43400Y-13611D01*
X43470Y-13541D01*
X43508Y-13450D01*
X43508Y-13351D01*
X43509Y-13262D01*
X43509Y-24550D01*
X43408Y-24550D01*
X43408Y-15129D01*
X43408Y-15070D01*
X43408Y-14570D01*
X43385Y-14515D01*
X43343Y-14473D01*
X43288Y-14451D01*
X43229Y-14451D01*
X43079Y-14451D01*
X43056Y-14460D01*
X43032Y-14451D01*
X42973Y-14451D01*
X42823Y-14451D01*
X42800Y-14460D01*
X42776Y-14451D01*
X42717Y-14451D01*
X42567Y-14451D01*
X42544Y-14460D01*
X42520Y-14451D01*
X42461Y-14451D01*
X42379Y-14451D01*
X42379Y-13588D01*
X42379Y-13200D01*
X42379Y-13100D01*
X42379Y-12712D01*
X42317Y-12650D01*
X42292Y-12651D01*
X42200Y-12689D01*
X42130Y-12759D01*
X42092Y-12850D01*
X42092Y-12949D01*
X42091Y-13038D01*
X42153Y-13100D01*
X42379Y-13100D01*
X42379Y-13200D01*
X42153Y-13200D01*
X42091Y-13262D01*
X42091Y-13333D01*
X42075Y-13326D01*
X41976Y-13326D01*
X41912Y-13325D01*
X41850Y-13387D01*
X41850Y-13650D01*
X42213Y-13650D01*
X42236Y-13626D01*
X42292Y-13649D01*
X42317Y-13650D01*
X42379Y-13588D01*
X42379Y-14451D01*
X42311Y-14451D01*
X42256Y-14473D01*
X42174Y-14391D01*
X42174Y-14145D01*
X42151Y-14090D01*
X42117Y-14056D01*
X42166Y-14036D01*
X42236Y-13966D01*
X42274Y-13874D01*
X42275Y-13812D01*
X42213Y-13750D01*
X41900Y-13750D01*
X41850Y-13750D01*
X41750Y-13750D01*
X41750Y-13650D01*
X41750Y-13600D01*
X41750Y-13387D01*
X41688Y-13325D01*
X41624Y-13326D01*
X41591Y-13326D01*
X41591Y-09550D01*
X41591Y-09375D01*
X41591Y-08951D01*
X41524Y-08789D01*
X41400Y-08665D01*
X41238Y-08597D01*
X41063Y-08597D01*
X40901Y-08664D01*
X40777Y-08788D01*
X40709Y-08950D01*
X40709Y-09125D01*
X40709Y-09549D01*
X40776Y-09711D01*
X40900Y-09835D01*
X41062Y-09903D01*
X41237Y-09903D01*
X41399Y-09836D01*
X41523Y-09712D01*
X41591Y-09550D01*
X41591Y-13326D01*
X41525Y-13326D01*
X41434Y-13364D01*
X41364Y-13434D01*
X41352Y-13461D01*
X41325Y-13449D01*
X41325Y-13165D01*
X41325Y-13036D01*
X41276Y-12916D01*
X41185Y-12825D01*
X41065Y-12775D01*
X40941Y-12775D01*
X40927Y-12765D01*
X40850Y-12750D01*
X40824Y-12750D01*
X40824Y-12695D01*
X40801Y-12640D01*
X40759Y-12598D01*
X40704Y-12576D01*
X40645Y-12576D01*
X40591Y-12576D01*
X40591Y-09550D01*
X40591Y-09375D01*
X40591Y-08951D01*
X40524Y-08789D01*
X40400Y-08665D01*
X40238Y-08597D01*
X40063Y-08597D01*
X39901Y-08664D01*
X39777Y-08788D01*
X39709Y-08950D01*
X39709Y-09125D01*
X39709Y-09549D01*
X39776Y-09711D01*
X39900Y-09835D01*
X40062Y-09903D01*
X40237Y-09903D01*
X40399Y-09836D01*
X40523Y-09712D01*
X40591Y-09550D01*
X40591Y-12576D01*
X40395Y-12576D01*
X40340Y-12599D01*
X40306Y-12632D01*
X40286Y-12584D01*
X40216Y-12514D01*
X40124Y-12476D01*
X40062Y-12475D01*
X40000Y-12537D01*
X40000Y-12850D01*
X40000Y-12900D01*
X40000Y-13000D01*
X40000Y-13050D01*
X40000Y-13363D01*
X40062Y-13425D01*
X40124Y-13424D01*
X40216Y-13386D01*
X40286Y-13316D01*
X40306Y-13267D01*
X40341Y-13302D01*
X40396Y-13324D01*
X40455Y-13324D01*
X40705Y-13324D01*
X40746Y-13306D01*
X40815Y-13375D01*
X40935Y-13425D01*
X41064Y-13425D01*
X41184Y-13376D01*
X41275Y-13285D01*
X41325Y-13165D01*
X41325Y-13449D01*
X41265Y-13425D01*
X41136Y-13425D01*
X41016Y-13474D01*
X40925Y-13565D01*
X40875Y-13685D01*
X40875Y-13814D01*
X40924Y-13934D01*
X41015Y-14025D01*
X41135Y-14075D01*
X41242Y-14075D01*
X41426Y-14258D01*
X41426Y-14455D01*
X41449Y-14510D01*
X41491Y-14552D01*
X41546Y-14574D01*
X41605Y-14574D01*
X41791Y-14574D01*
X42192Y-14974D01*
X42192Y-15130D01*
X42200Y-15150D01*
X41532Y-15150D01*
X40175Y-13792D01*
X40175Y-13686D01*
X40126Y-13566D01*
X40035Y-13475D01*
X39915Y-13425D01*
X39838Y-13425D01*
X39900Y-13363D01*
X39900Y-13000D01*
X39900Y-12900D01*
X39900Y-12537D01*
X39838Y-12475D01*
X39776Y-12476D01*
X39684Y-12514D01*
X39614Y-12584D01*
X39591Y-12639D01*
X39591Y-09550D01*
X39591Y-09375D01*
X39591Y-08951D01*
X39524Y-08789D01*
X39400Y-08665D01*
X39238Y-08597D01*
X39063Y-08597D01*
X38901Y-08664D01*
X38777Y-08788D01*
X38709Y-08950D01*
X38709Y-09125D01*
X38709Y-09549D01*
X38776Y-09711D01*
X38900Y-09835D01*
X39062Y-09903D01*
X39237Y-09903D01*
X39399Y-09836D01*
X39523Y-09712D01*
X39591Y-09550D01*
X39591Y-12639D01*
X39576Y-12675D01*
X39576Y-12774D01*
X39575Y-12838D01*
X39637Y-12900D01*
X39900Y-12900D01*
X39900Y-13000D01*
X39637Y-13000D01*
X39575Y-13062D01*
X39576Y-13126D01*
X39576Y-13225D01*
X39614Y-13316D01*
X39684Y-13386D01*
X39776Y-13424D01*
X39838Y-13425D01*
X39786Y-13425D01*
X39666Y-13474D01*
X39575Y-13565D01*
X39525Y-13685D01*
X39525Y-13814D01*
X39574Y-13934D01*
X39665Y-14025D01*
X39785Y-14075D01*
X39892Y-14075D01*
X40242Y-14425D01*
X40186Y-14425D01*
X40066Y-14474D01*
X39990Y-14550D01*
X38875Y-14550D01*
X38875Y-12415D01*
X38875Y-12286D01*
X38826Y-12166D01*
X38735Y-12075D01*
X38615Y-12025D01*
X38591Y-12025D01*
X38591Y-09550D01*
X38591Y-09375D01*
X38591Y-08951D01*
X38524Y-08789D01*
X38400Y-08665D01*
X38238Y-08597D01*
X38063Y-08597D01*
X37901Y-08664D01*
X37777Y-08788D01*
X37709Y-08950D01*
X37709Y-09125D01*
X37709Y-09549D01*
X37776Y-09711D01*
X37900Y-09835D01*
X38062Y-09903D01*
X38237Y-09903D01*
X38399Y-09836D01*
X38523Y-09712D01*
X38591Y-09550D01*
X38591Y-12025D01*
X38486Y-12025D01*
X38366Y-12074D01*
X38275Y-12165D01*
X38239Y-12250D01*
X37591Y-12250D01*
X37591Y-09550D01*
X37591Y-09375D01*
X37591Y-08951D01*
X37524Y-08789D01*
X37400Y-08665D01*
X37238Y-08597D01*
X37063Y-08597D01*
X36901Y-08664D01*
X36777Y-08788D01*
X36709Y-08950D01*
X36709Y-09125D01*
X36709Y-09549D01*
X36776Y-09711D01*
X36900Y-09835D01*
X37062Y-09903D01*
X37237Y-09903D01*
X37399Y-09836D01*
X37523Y-09712D01*
X37591Y-09550D01*
X37591Y-12250D01*
X36591Y-12250D01*
X36591Y-09550D01*
X36591Y-09375D01*
X36591Y-08951D01*
X36524Y-08789D01*
X36400Y-08665D01*
X36238Y-08597D01*
X36063Y-08597D01*
X35901Y-08664D01*
X35777Y-08788D01*
X35709Y-08950D01*
X35709Y-09125D01*
X35709Y-09549D01*
X35776Y-09711D01*
X35900Y-09835D01*
X36062Y-09903D01*
X36237Y-09903D01*
X36399Y-09836D01*
X36523Y-09712D01*
X36591Y-09550D01*
X36591Y-12250D01*
X34591Y-12250D01*
X34591Y-09550D01*
X34591Y-09375D01*
X34591Y-08951D01*
X34524Y-08789D01*
X34400Y-08665D01*
X34238Y-08597D01*
X34063Y-08597D01*
X33901Y-08664D01*
X33777Y-08788D01*
X33709Y-08950D01*
X33709Y-09125D01*
X33709Y-09549D01*
X33776Y-09711D01*
X33900Y-09835D01*
X34062Y-09903D01*
X34237Y-09903D01*
X34399Y-09836D01*
X34523Y-09712D01*
X34591Y-09550D01*
X34591Y-12250D01*
X33591Y-12250D01*
X33591Y-09550D01*
X33591Y-09375D01*
X33591Y-08951D01*
X33524Y-08789D01*
X33400Y-08665D01*
X33238Y-08597D01*
X33063Y-08597D01*
X32901Y-08664D01*
X32777Y-08788D01*
X32709Y-08950D01*
X32709Y-09125D01*
X32709Y-09549D01*
X32776Y-09711D01*
X32900Y-09835D01*
X33062Y-09903D01*
X33237Y-09903D01*
X33399Y-09836D01*
X33523Y-09712D01*
X33591Y-09550D01*
X33591Y-12250D01*
X32591Y-12250D01*
X32591Y-09550D01*
X32591Y-09375D01*
X32591Y-08951D01*
X32524Y-08789D01*
X32400Y-08665D01*
X32238Y-08597D01*
X32063Y-08597D01*
X31901Y-08664D01*
X31777Y-08788D01*
X31709Y-08950D01*
X31709Y-09125D01*
X31709Y-09549D01*
X31776Y-09711D01*
X31900Y-09835D01*
X32062Y-09903D01*
X32237Y-09903D01*
X32399Y-09836D01*
X32523Y-09712D01*
X32591Y-09550D01*
X32591Y-12250D01*
X31910Y-12250D01*
X31835Y-12175D01*
X31715Y-12125D01*
X31591Y-12125D01*
X31591Y-09550D01*
X31591Y-09375D01*
X31591Y-08951D01*
X31524Y-08789D01*
X31400Y-08665D01*
X31238Y-08597D01*
X31063Y-08597D01*
X30901Y-08664D01*
X30777Y-08788D01*
X30709Y-08950D01*
X30709Y-09125D01*
X30709Y-09549D01*
X30776Y-09711D01*
X30900Y-09835D01*
X31062Y-09903D01*
X31237Y-09903D01*
X31399Y-09836D01*
X31523Y-09712D01*
X31591Y-09550D01*
X31591Y-12125D01*
X31586Y-12125D01*
X31466Y-12174D01*
X31406Y-12233D01*
X31386Y-12184D01*
X31316Y-12114D01*
X31225Y-12076D01*
X31126Y-12076D01*
X31062Y-12075D01*
X31000Y-12137D01*
X31000Y-12350D01*
X31000Y-12400D01*
X31000Y-12500D01*
X30900Y-12500D01*
X30900Y-12400D01*
X30900Y-12137D01*
X30838Y-12075D01*
X30774Y-12076D01*
X30675Y-12076D01*
X30591Y-12111D01*
X30591Y-09550D01*
X30591Y-09375D01*
X30591Y-08951D01*
X30524Y-08789D01*
X30400Y-08665D01*
X30238Y-08597D01*
X30063Y-08597D01*
X29901Y-08664D01*
X29777Y-08788D01*
X29709Y-08950D01*
X29709Y-09125D01*
X29709Y-09549D01*
X29776Y-09711D01*
X29900Y-09835D01*
X30062Y-09903D01*
X30237Y-09903D01*
X30399Y-09836D01*
X30523Y-09712D01*
X30591Y-09550D01*
X30591Y-12111D01*
X30584Y-12114D01*
X30514Y-12184D01*
X30476Y-12276D01*
X30475Y-12338D01*
X30537Y-12400D01*
X30900Y-12400D01*
X30900Y-12500D01*
X30850Y-12500D01*
X30537Y-12500D01*
X30475Y-12562D01*
X30476Y-12624D01*
X30514Y-12716D01*
X30578Y-12780D01*
X30565Y-12775D01*
X30436Y-12775D01*
X30316Y-12824D01*
X30225Y-12915D01*
X30175Y-13035D01*
X30175Y-13164D01*
X30224Y-13284D01*
X30315Y-13375D01*
X30435Y-13425D01*
X30564Y-13425D01*
X30684Y-13376D01*
X30736Y-13324D01*
X30755Y-13324D01*
X31205Y-13324D01*
X31260Y-13301D01*
X31302Y-13259D01*
X31324Y-13204D01*
X31324Y-13145D01*
X31324Y-12895D01*
X31301Y-12840D01*
X31267Y-12806D01*
X31316Y-12786D01*
X31386Y-12716D01*
X31406Y-12666D01*
X31465Y-12725D01*
X31585Y-12775D01*
X31714Y-12775D01*
X31834Y-12726D01*
X31910Y-12650D01*
X38425Y-12650D01*
X38485Y-12675D01*
X38614Y-12675D01*
X38734Y-12626D01*
X38825Y-12535D01*
X38875Y-12415D01*
X38875Y-14550D01*
X36810Y-14550D01*
X36735Y-14475D01*
X36615Y-14425D01*
X36486Y-14425D01*
X36366Y-14474D01*
X36290Y-14550D01*
X30710Y-14550D01*
X30635Y-14475D01*
X30515Y-14425D01*
X30386Y-14425D01*
X30266Y-14474D01*
X30190Y-14550D01*
X30075Y-14550D01*
X30075Y-13165D01*
X30075Y-13036D01*
X30026Y-12916D01*
X29935Y-12825D01*
X29815Y-12775D01*
X29686Y-12775D01*
X29670Y-12781D01*
X29686Y-12766D01*
X29724Y-12674D01*
X29725Y-12612D01*
X29725Y-12388D01*
X29724Y-12326D01*
X29686Y-12234D01*
X29616Y-12164D01*
X29591Y-12153D01*
X29591Y-09550D01*
X29591Y-09375D01*
X29591Y-08951D01*
X29524Y-08789D01*
X29400Y-08665D01*
X29238Y-08597D01*
X29063Y-08597D01*
X28901Y-08664D01*
X28777Y-08788D01*
X28709Y-08950D01*
X28709Y-09125D01*
X28709Y-09549D01*
X28776Y-09711D01*
X28900Y-09835D01*
X29062Y-09903D01*
X29237Y-09903D01*
X29399Y-09836D01*
X29523Y-09712D01*
X29591Y-09550D01*
X29591Y-12153D01*
X29525Y-12126D01*
X29426Y-12126D01*
X29362Y-12125D01*
X29300Y-12187D01*
X29300Y-12450D01*
X29663Y-12450D01*
X29725Y-12388D01*
X29725Y-12612D01*
X29663Y-12550D01*
X29350Y-12550D01*
X29300Y-12550D01*
X29200Y-12550D01*
X29200Y-12450D01*
X29200Y-12187D01*
X29138Y-12125D01*
X29074Y-12126D01*
X28975Y-12126D01*
X28884Y-12164D01*
X28814Y-12234D01*
X28776Y-12326D01*
X28775Y-12388D01*
X28837Y-12450D01*
X29200Y-12450D01*
X29200Y-12550D01*
X29150Y-12550D01*
X28837Y-12550D01*
X28775Y-12612D01*
X28776Y-12674D01*
X28814Y-12766D01*
X28884Y-12836D01*
X28932Y-12856D01*
X28898Y-12891D01*
X28876Y-12946D01*
X28876Y-13005D01*
X28876Y-13255D01*
X28899Y-13310D01*
X28941Y-13352D01*
X28996Y-13374D01*
X29055Y-13374D01*
X29505Y-13374D01*
X29546Y-13356D01*
X29565Y-13375D01*
X29685Y-13425D01*
X29814Y-13425D01*
X29934Y-13376D01*
X30025Y-13285D01*
X30075Y-13165D01*
X30075Y-14550D01*
X28591Y-14550D01*
X28591Y-09550D01*
X28591Y-09375D01*
X28591Y-08951D01*
X28524Y-08789D01*
X28400Y-08665D01*
X28238Y-08597D01*
X28063Y-08597D01*
X27901Y-08664D01*
X27777Y-08788D01*
X27709Y-08950D01*
X27709Y-09125D01*
X27709Y-09549D01*
X27776Y-09711D01*
X27900Y-09835D01*
X28062Y-09903D01*
X28237Y-09903D01*
X28399Y-09836D01*
X28523Y-09712D01*
X28591Y-09550D01*
X28591Y-14550D01*
X27591Y-14550D01*
X27591Y-09550D01*
X27591Y-09375D01*
X27591Y-08951D01*
X27524Y-08789D01*
X27400Y-08665D01*
X27238Y-08597D01*
X27063Y-08597D01*
X26901Y-08664D01*
X26777Y-08788D01*
X26709Y-08950D01*
X26709Y-09125D01*
X26709Y-09549D01*
X26776Y-09711D01*
X26900Y-09835D01*
X27062Y-09903D01*
X27237Y-09903D01*
X27399Y-09836D01*
X27523Y-09712D01*
X27591Y-09550D01*
X27591Y-14550D01*
X27510Y-14550D01*
X27435Y-14475D01*
X27315Y-14425D01*
X27186Y-14425D01*
X27066Y-14474D01*
X26975Y-14565D01*
X26925Y-14685D01*
X26925Y-14814D01*
X26974Y-14934D01*
X27065Y-15025D01*
X27185Y-15075D01*
X27314Y-15075D01*
X27434Y-15026D01*
X27510Y-14950D01*
X30190Y-14950D01*
X30265Y-15025D01*
X30385Y-15075D01*
X30514Y-15075D01*
X30634Y-15026D01*
X30710Y-14950D01*
X36290Y-14950D01*
X36365Y-15025D01*
X36485Y-15075D01*
X36614Y-15075D01*
X36734Y-15026D01*
X36810Y-14950D01*
X39990Y-14950D01*
X40065Y-15025D01*
X40185Y-15075D01*
X40314Y-15075D01*
X40434Y-15026D01*
X40525Y-14935D01*
X40575Y-14815D01*
X40575Y-14757D01*
X41308Y-15491D01*
X41309Y-15491D01*
X41373Y-15535D01*
X41449Y-15549D01*
X41450Y-15550D01*
X42850Y-15550D01*
X42850Y-15549D01*
X42926Y-15535D01*
X42927Y-15535D01*
X42991Y-15491D01*
X43069Y-15414D01*
X43069Y-15413D01*
X43113Y-15349D01*
X43127Y-15272D01*
X43128Y-15272D01*
X43128Y-15249D01*
X43139Y-15249D01*
X43289Y-15249D01*
X43344Y-15226D01*
X43386Y-15184D01*
X43408Y-15129D01*
X43408Y-24550D01*
X43310Y-24550D01*
X43250Y-24490D01*
X43250Y-24010D01*
X43325Y-23935D01*
X43375Y-23815D01*
X43375Y-23686D01*
X43326Y-23566D01*
X43235Y-23475D01*
X43115Y-23425D01*
X42986Y-23425D01*
X42866Y-23474D01*
X42775Y-23565D01*
X42725Y-23685D01*
X42725Y-23814D01*
X42774Y-23934D01*
X42850Y-24010D01*
X42850Y-24490D01*
X42775Y-24565D01*
X42725Y-24685D01*
X42725Y-24814D01*
X42774Y-24934D01*
X42865Y-25025D01*
X42985Y-25075D01*
X43114Y-25075D01*
X43234Y-25026D01*
X43310Y-24950D01*
X43594Y-24950D01*
X43599Y-24960D01*
X43632Y-24993D01*
X43584Y-25014D01*
X43514Y-25084D01*
X43476Y-25176D01*
X43475Y-25238D01*
X43537Y-25300D01*
X43850Y-25300D01*
X43900Y-25300D01*
X44000Y-25300D01*
X44050Y-25300D01*
X44363Y-25300D01*
X44425Y-25238D01*
X44424Y-25176D01*
X44386Y-25084D01*
X44316Y-25014D01*
X44267Y-24993D01*
X44302Y-24959D01*
X44305Y-24950D01*
X44525Y-24950D01*
X44585Y-24975D01*
X44714Y-24975D01*
X44834Y-24926D01*
X44925Y-24835D01*
X44975Y-24715D01*
X44975Y-27633D01*
X44901Y-27664D01*
X44777Y-27788D01*
X44709Y-27950D01*
X44709Y-28125D01*
X44709Y-28549D01*
X44776Y-28711D01*
X44900Y-28835D01*
X45062Y-28903D01*
X45237Y-28903D01*
X45399Y-28836D01*
X45523Y-28712D01*
X45591Y-28550D01*
X45591Y-30768D01*
X45550Y-30751D01*
X45252Y-30751D01*
X44977Y-30865D01*
X44766Y-31075D01*
X44651Y-31350D01*
X44651Y-31648D01*
X44765Y-31923D01*
X44975Y-32134D01*
X45250Y-32249D01*
X45548Y-32249D01*
X45823Y-32135D01*
X46034Y-31925D01*
X46149Y-31650D01*
X46149Y-33331D01*
X46068Y-33250D01*
X45829Y-33151D01*
X45571Y-33151D01*
X45332Y-33250D01*
X45150Y-33432D01*
X45141Y-33452D01*
X45126Y-33415D01*
X45084Y-33373D01*
X45029Y-33351D01*
X44970Y-33351D01*
X44591Y-33351D01*
X44591Y-28550D01*
X44591Y-28375D01*
X44591Y-27951D01*
X44524Y-27789D01*
X44425Y-27690D01*
X44425Y-25462D01*
X44363Y-25400D01*
X44000Y-25400D01*
X44000Y-25663D01*
X44062Y-25725D01*
X44126Y-25724D01*
X44225Y-25724D01*
X44316Y-25686D01*
X44386Y-25616D01*
X44424Y-25524D01*
X44425Y-25462D01*
X44425Y-27690D01*
X44400Y-27665D01*
X44238Y-27597D01*
X44063Y-27597D01*
X43901Y-27664D01*
X43900Y-27665D01*
X43900Y-25663D01*
X43900Y-25400D01*
X43537Y-25400D01*
X43475Y-25462D01*
X43476Y-25524D01*
X43514Y-25616D01*
X43584Y-25686D01*
X43675Y-25724D01*
X43774Y-25724D01*
X43838Y-25725D01*
X43900Y-25663D01*
X43900Y-27665D01*
X43777Y-27788D01*
X43709Y-27950D01*
X43709Y-28125D01*
X43709Y-28549D01*
X43776Y-28711D01*
X43900Y-28835D01*
X44062Y-28903D01*
X44237Y-28903D01*
X44399Y-28836D01*
X44523Y-28712D01*
X44591Y-28550D01*
X44591Y-33351D01*
X44370Y-33351D01*
X44315Y-33374D01*
X44273Y-33416D01*
X44251Y-33471D01*
X44251Y-33530D01*
X44251Y-34130D01*
X44274Y-34185D01*
X44316Y-34227D01*
X44371Y-34249D01*
X44430Y-34249D01*
X45030Y-34249D01*
X45085Y-34226D01*
X45127Y-34184D01*
X45141Y-34147D01*
X45150Y-34168D01*
X45332Y-34350D01*
X45472Y-34408D01*
X45446Y-34419D01*
X45320Y-34545D01*
X45251Y-34710D01*
X45251Y-34889D01*
X45319Y-35054D01*
X45445Y-35180D01*
X45610Y-35249D01*
X45789Y-35249D01*
X45954Y-35181D01*
X46080Y-35055D01*
X46103Y-35000D01*
X46150Y-35000D01*
X46150Y-34999D01*
X46226Y-34985D01*
X46227Y-34985D01*
X46291Y-34941D01*
X47057Y-34175D01*
X47164Y-34175D01*
X47284Y-34126D01*
X47375Y-34035D01*
X47425Y-33915D01*
X47425Y-44525D01*
X46243Y-44525D01*
X46243Y-37879D01*
X46243Y-36879D01*
X46243Y-35879D01*
X46232Y-35666D01*
X46172Y-35519D01*
X46078Y-35492D01*
X46008Y-35562D01*
X46008Y-35422D01*
X45981Y-35328D01*
X45779Y-35257D01*
X45566Y-35268D01*
X45419Y-35328D01*
X45392Y-35422D01*
X45700Y-35729D01*
X46008Y-35422D01*
X46008Y-35562D01*
X45771Y-35800D01*
X46078Y-36108D01*
X46172Y-36081D01*
X46243Y-35879D01*
X46243Y-36879D01*
X46232Y-36666D01*
X46172Y-36519D01*
X46078Y-36492D01*
X46008Y-36562D01*
X46008Y-36422D01*
X45981Y-36328D01*
X45907Y-36302D01*
X45981Y-36272D01*
X46008Y-36178D01*
X45700Y-35871D01*
X45392Y-36178D01*
X45419Y-36272D01*
X45492Y-36297D01*
X45419Y-36328D01*
X45392Y-36422D01*
X45700Y-36729D01*
X46008Y-36422D01*
X46008Y-36562D01*
X45771Y-36800D01*
X46078Y-37108D01*
X46172Y-37081D01*
X46243Y-36879D01*
X46243Y-37879D01*
X46232Y-37666D01*
X46172Y-37519D01*
X46078Y-37492D01*
X46008Y-37562D01*
X46008Y-37422D01*
X45981Y-37328D01*
X45907Y-37302D01*
X45981Y-37272D01*
X46008Y-37178D01*
X45700Y-36871D01*
X45392Y-37178D01*
X45419Y-37272D01*
X45492Y-37297D01*
X45419Y-37328D01*
X45392Y-37422D01*
X45700Y-37729D01*
X46008Y-37422D01*
X46008Y-37562D01*
X45771Y-37800D01*
X46078Y-38108D01*
X46172Y-38081D01*
X46243Y-37879D01*
X46243Y-44525D01*
X46149Y-44525D01*
X46149Y-40250D01*
X46149Y-39952D01*
X46035Y-39677D01*
X46008Y-39649D01*
X46008Y-38178D01*
X45700Y-37871D01*
X45629Y-37941D01*
X45629Y-37800D01*
X45322Y-37492D01*
X45279Y-37504D01*
X45250Y-37432D01*
X45118Y-37300D01*
X45250Y-37168D01*
X45279Y-37095D01*
X45322Y-37108D01*
X45629Y-36800D01*
X45322Y-36492D01*
X45279Y-36504D01*
X45250Y-36432D01*
X45118Y-36300D01*
X45250Y-36168D01*
X45279Y-36095D01*
X45322Y-36108D01*
X45629Y-35800D01*
X45322Y-35492D01*
X45279Y-35504D01*
X45250Y-35432D01*
X45243Y-35425D01*
X45243Y-34879D01*
X45232Y-34666D01*
X45172Y-34519D01*
X45078Y-34492D01*
X45008Y-34562D01*
X45008Y-34422D01*
X44981Y-34328D01*
X44779Y-34257D01*
X44566Y-34268D01*
X44419Y-34328D01*
X44392Y-34422D01*
X44700Y-34729D01*
X45008Y-34422D01*
X45008Y-34562D01*
X44771Y-34800D01*
X45078Y-35108D01*
X45172Y-35081D01*
X45243Y-34879D01*
X45243Y-35425D01*
X45068Y-35250D01*
X44995Y-35220D01*
X45008Y-35178D01*
X44700Y-34871D01*
X44629Y-34941D01*
X44629Y-34800D01*
X44322Y-34492D01*
X44228Y-34519D01*
X44157Y-34721D01*
X44168Y-34934D01*
X44228Y-35081D01*
X44322Y-35108D01*
X44629Y-34800D01*
X44629Y-34941D01*
X44392Y-35178D01*
X44404Y-35220D01*
X44332Y-35250D01*
X44150Y-35432D01*
X44051Y-35671D01*
X44051Y-35929D01*
X44150Y-36168D01*
X44282Y-36300D01*
X44150Y-36432D01*
X44051Y-36671D01*
X44051Y-36929D01*
X44150Y-37168D01*
X44282Y-37300D01*
X44150Y-37432D01*
X44051Y-37671D01*
X44051Y-37929D01*
X44150Y-38168D01*
X44332Y-38350D01*
X44571Y-38449D01*
X44829Y-38449D01*
X45068Y-38350D01*
X45250Y-38168D01*
X45279Y-38095D01*
X45322Y-38108D01*
X45629Y-37800D01*
X45629Y-37941D01*
X45392Y-38178D01*
X45419Y-38272D01*
X45621Y-38343D01*
X45834Y-38332D01*
X45981Y-38272D01*
X46008Y-38178D01*
X46008Y-39649D01*
X45825Y-39466D01*
X45550Y-39351D01*
X45252Y-39351D01*
X44977Y-39465D01*
X44766Y-39675D01*
X44651Y-39950D01*
X44651Y-40248D01*
X44765Y-40523D01*
X44975Y-40734D01*
X45250Y-40849D01*
X45548Y-40849D01*
X45823Y-40735D01*
X46034Y-40525D01*
X46149Y-40250D01*
X46149Y-44525D01*
X43591Y-44525D01*
X43591Y-28550D01*
X43591Y-28375D01*
X43591Y-27951D01*
X43524Y-27789D01*
X43400Y-27665D01*
X43238Y-27597D01*
X43063Y-27597D01*
X42901Y-27664D01*
X42777Y-27788D01*
X42709Y-27950D01*
X42709Y-28125D01*
X42709Y-28549D01*
X42776Y-28711D01*
X42900Y-28835D01*
X43062Y-28903D01*
X43237Y-28903D01*
X43399Y-28836D01*
X43523Y-28712D01*
X43591Y-28550D01*
X43591Y-44525D01*
X43381Y-44525D01*
X43381Y-41842D01*
X43381Y-41548D01*
X43269Y-41276D01*
X43061Y-41068D01*
X42789Y-40954D01*
X42591Y-40954D01*
X42591Y-28550D01*
X42591Y-28375D01*
X42591Y-27951D01*
X42524Y-27789D01*
X42400Y-27665D01*
X42238Y-27597D01*
X42063Y-27597D01*
X41901Y-27664D01*
X41777Y-27788D01*
X41709Y-27950D01*
X41709Y-28125D01*
X41709Y-28549D01*
X41776Y-28711D01*
X41900Y-28835D01*
X42062Y-28903D01*
X42237Y-28903D01*
X42399Y-28836D01*
X42523Y-28712D01*
X42591Y-28550D01*
X42591Y-40954D01*
X42495Y-40954D01*
X42325Y-41024D01*
X42325Y-30115D01*
X42325Y-29986D01*
X42276Y-29866D01*
X42185Y-29775D01*
X42065Y-29725D01*
X41936Y-29725D01*
X41816Y-29774D01*
X41740Y-29850D01*
X41591Y-29850D01*
X41591Y-28550D01*
X41591Y-28375D01*
X41591Y-27951D01*
X41524Y-27789D01*
X41400Y-27665D01*
X41238Y-27597D01*
X41175Y-27597D01*
X41175Y-26165D01*
X41175Y-26036D01*
X41126Y-25916D01*
X41060Y-25850D01*
X41125Y-25785D01*
X41175Y-25665D01*
X41175Y-25536D01*
X41126Y-25416D01*
X41060Y-25350D01*
X41125Y-25285D01*
X41175Y-25165D01*
X41175Y-25036D01*
X41126Y-24916D01*
X41085Y-24875D01*
X41125Y-24835D01*
X41175Y-24715D01*
X41175Y-24586D01*
X41126Y-24466D01*
X41035Y-24375D01*
X40915Y-24325D01*
X40786Y-24325D01*
X40666Y-24374D01*
X40590Y-24450D01*
X39375Y-24450D01*
X39375Y-23715D01*
X39375Y-23586D01*
X39326Y-23466D01*
X39235Y-23375D01*
X39115Y-23325D01*
X39029Y-23325D01*
X39075Y-23215D01*
X39075Y-23086D01*
X39026Y-22966D01*
X38935Y-22875D01*
X38815Y-22825D01*
X38686Y-22825D01*
X38624Y-22850D01*
X36810Y-22850D01*
X36735Y-22775D01*
X36615Y-22725D01*
X36486Y-22725D01*
X36366Y-22774D01*
X36275Y-22865D01*
X36225Y-22985D01*
X36225Y-23114D01*
X36274Y-23234D01*
X36300Y-23260D01*
X36215Y-23225D01*
X36086Y-23225D01*
X35966Y-23274D01*
X35875Y-23365D01*
X35825Y-23485D01*
X35825Y-23614D01*
X35874Y-23734D01*
X35965Y-23825D01*
X36025Y-23850D01*
X34575Y-23850D01*
X34575Y-15915D01*
X34575Y-15786D01*
X34526Y-15666D01*
X34435Y-15575D01*
X34315Y-15525D01*
X34186Y-15525D01*
X34066Y-15574D01*
X33990Y-15650D01*
X32957Y-15650D01*
X32875Y-15567D01*
X32875Y-15461D01*
X32826Y-15341D01*
X32735Y-15250D01*
X32615Y-15200D01*
X32486Y-15200D01*
X32366Y-15249D01*
X32275Y-15340D01*
X32225Y-15460D01*
X32225Y-15589D01*
X32274Y-15709D01*
X32365Y-15800D01*
X32485Y-15850D01*
X32592Y-15850D01*
X32733Y-15991D01*
X32734Y-15991D01*
X32798Y-16035D01*
X32875Y-16050D01*
X33990Y-16050D01*
X34065Y-16125D01*
X34185Y-16175D01*
X34314Y-16175D01*
X34434Y-16126D01*
X34525Y-16035D01*
X34575Y-15915D01*
X34575Y-23850D01*
X34410Y-23850D01*
X34335Y-23775D01*
X34215Y-23725D01*
X34086Y-23725D01*
X33966Y-23774D01*
X33875Y-23865D01*
X33825Y-23985D01*
X33825Y-24114D01*
X33874Y-24234D01*
X33965Y-24325D01*
X34085Y-24375D01*
X34214Y-24375D01*
X34334Y-24326D01*
X34410Y-24250D01*
X36150Y-24250D01*
X36150Y-24249D01*
X36226Y-24235D01*
X36227Y-24235D01*
X36291Y-24191D01*
X36632Y-23850D01*
X38790Y-23850D01*
X38865Y-23925D01*
X38985Y-23975D01*
X39114Y-23975D01*
X39234Y-23926D01*
X39325Y-23835D01*
X39375Y-23715D01*
X39375Y-24450D01*
X38610Y-24450D01*
X38535Y-24375D01*
X38415Y-24325D01*
X38286Y-24325D01*
X38166Y-24374D01*
X38075Y-24465D01*
X38025Y-24585D01*
X38025Y-24714D01*
X38074Y-24834D01*
X38140Y-24900D01*
X38082Y-24900D01*
X37591Y-24409D01*
X37527Y-24365D01*
X37450Y-24350D01*
X35350Y-24350D01*
X35273Y-24365D01*
X35209Y-24409D01*
X34768Y-24850D01*
X34650Y-24850D01*
X34350Y-24850D01*
X33710Y-24850D01*
X33635Y-24775D01*
X33515Y-24725D01*
X33386Y-24725D01*
X33266Y-24774D01*
X33175Y-24865D01*
X33160Y-24900D01*
X32075Y-24900D01*
X32075Y-21515D01*
X32075Y-21386D01*
X32026Y-21266D01*
X31935Y-21175D01*
X31815Y-21125D01*
X31686Y-21125D01*
X31566Y-21174D01*
X31475Y-21265D01*
X31425Y-21385D01*
X31425Y-21514D01*
X31474Y-21634D01*
X31550Y-21710D01*
X31550Y-21767D01*
X31375Y-21942D01*
X31375Y-15915D01*
X31375Y-15786D01*
X31326Y-15666D01*
X31235Y-15575D01*
X31115Y-15525D01*
X30986Y-15525D01*
X30866Y-15574D01*
X30790Y-15650D01*
X28310Y-15650D01*
X28235Y-15575D01*
X28115Y-15525D01*
X27986Y-15525D01*
X27866Y-15574D01*
X27775Y-15665D01*
X27725Y-15785D01*
X27725Y-15914D01*
X27774Y-16034D01*
X27865Y-16125D01*
X27985Y-16175D01*
X28114Y-16175D01*
X28234Y-16126D01*
X28310Y-16050D01*
X28990Y-16050D01*
X28975Y-16065D01*
X28925Y-16185D01*
X28925Y-16314D01*
X28974Y-16434D01*
X29065Y-16525D01*
X29185Y-16575D01*
X29292Y-16575D01*
X29808Y-17091D01*
X29809Y-17091D01*
X29873Y-17135D01*
X29875Y-17135D01*
X29965Y-17225D01*
X30085Y-17275D01*
X30214Y-17275D01*
X30334Y-17226D01*
X30425Y-17135D01*
X30475Y-17015D01*
X30475Y-16886D01*
X30426Y-16766D01*
X30335Y-16675D01*
X30215Y-16625D01*
X30086Y-16625D01*
X29966Y-16674D01*
X29961Y-16678D01*
X29575Y-16292D01*
X29575Y-16186D01*
X29526Y-16066D01*
X29510Y-16050D01*
X30790Y-16050D01*
X30865Y-16125D01*
X30985Y-16175D01*
X31114Y-16175D01*
X31234Y-16126D01*
X31325Y-16035D01*
X31375Y-15915D01*
X31375Y-21942D01*
X30092Y-23225D01*
X29986Y-23225D01*
X29866Y-23274D01*
X29775Y-23365D01*
X29725Y-23485D01*
X29725Y-23614D01*
X29774Y-23734D01*
X29865Y-23825D01*
X29985Y-23875D01*
X30114Y-23875D01*
X30234Y-23826D01*
X30325Y-23735D01*
X30375Y-23615D01*
X30375Y-23507D01*
X31891Y-21992D01*
X31891Y-21991D01*
X31913Y-21959D01*
X31935Y-21927D01*
X31935Y-21926D01*
X31949Y-21850D01*
X31950Y-21850D01*
X31950Y-21710D01*
X32025Y-21635D01*
X32075Y-21515D01*
X32075Y-24900D01*
X28310Y-24900D01*
X28235Y-24825D01*
X28115Y-24775D01*
X27986Y-24775D01*
X27866Y-24824D01*
X27775Y-24915D01*
X27725Y-25035D01*
X27725Y-25164D01*
X27774Y-25284D01*
X27865Y-25375D01*
X27985Y-25425D01*
X28114Y-25425D01*
X28234Y-25376D01*
X28310Y-25300D01*
X33240Y-25300D01*
X33265Y-25325D01*
X33385Y-25375D01*
X33514Y-25375D01*
X33634Y-25326D01*
X33710Y-25250D01*
X33924Y-25250D01*
X33866Y-25274D01*
X33775Y-25365D01*
X33725Y-25485D01*
X33725Y-25614D01*
X33774Y-25734D01*
X33865Y-25825D01*
X33985Y-25875D01*
X34114Y-25875D01*
X34187Y-25844D01*
X34459Y-26116D01*
X34523Y-26160D01*
X34524Y-26160D01*
X34600Y-26175D01*
X40529Y-26175D01*
X40574Y-26284D01*
X40665Y-26375D01*
X40785Y-26425D01*
X40914Y-26425D01*
X41034Y-26376D01*
X41125Y-26285D01*
X41175Y-26165D01*
X41175Y-27597D01*
X41063Y-27597D01*
X40901Y-27664D01*
X40777Y-27788D01*
X40709Y-27950D01*
X40709Y-28125D01*
X40709Y-28549D01*
X40776Y-28711D01*
X40900Y-28835D01*
X41062Y-28903D01*
X41237Y-28903D01*
X41399Y-28836D01*
X41523Y-28712D01*
X41591Y-28550D01*
X41591Y-29850D01*
X40591Y-29850D01*
X40591Y-28550D01*
X40591Y-28375D01*
X40591Y-27951D01*
X40524Y-27789D01*
X40400Y-27665D01*
X40238Y-27597D01*
X40063Y-27597D01*
X39901Y-27664D01*
X39777Y-27788D01*
X39709Y-27950D01*
X39709Y-28125D01*
X39709Y-28549D01*
X39776Y-28711D01*
X39900Y-28835D01*
X40062Y-28903D01*
X40237Y-28903D01*
X40399Y-28836D01*
X40523Y-28712D01*
X40591Y-28550D01*
X40591Y-29850D01*
X39591Y-29850D01*
X39591Y-28550D01*
X39591Y-28375D01*
X39591Y-27951D01*
X39524Y-27789D01*
X39400Y-27665D01*
X39238Y-27597D01*
X39063Y-27597D01*
X38901Y-27664D01*
X38777Y-27788D01*
X38709Y-27950D01*
X38709Y-28125D01*
X38709Y-28549D01*
X38776Y-28711D01*
X38900Y-28835D01*
X39062Y-28903D01*
X39237Y-28903D01*
X39399Y-28836D01*
X39523Y-28712D01*
X39591Y-28550D01*
X39591Y-29850D01*
X39350Y-29850D01*
X39273Y-29865D01*
X39208Y-29909D01*
X38591Y-30526D01*
X38591Y-28550D01*
X38591Y-28375D01*
X38591Y-27951D01*
X38524Y-27789D01*
X38400Y-27665D01*
X38238Y-27597D01*
X38063Y-27597D01*
X37901Y-27664D01*
X37777Y-27788D01*
X37709Y-27950D01*
X37709Y-28125D01*
X37709Y-28549D01*
X37776Y-28711D01*
X37900Y-28835D01*
X38062Y-28903D01*
X38237Y-28903D01*
X38399Y-28836D01*
X38523Y-28712D01*
X38591Y-28550D01*
X38591Y-30526D01*
X36909Y-32209D01*
X36865Y-32273D01*
X36850Y-32350D01*
X36850Y-32990D01*
X36775Y-33065D01*
X36725Y-33185D01*
X36725Y-33314D01*
X36774Y-33434D01*
X36865Y-33525D01*
X36985Y-33575D01*
X37092Y-33575D01*
X37308Y-33791D01*
X37309Y-33791D01*
X37373Y-33835D01*
X37450Y-33850D01*
X37476Y-33850D01*
X37476Y-33905D01*
X37499Y-33960D01*
X37541Y-34002D01*
X37550Y-34005D01*
X37550Y-38400D01*
X37565Y-38477D01*
X37609Y-38541D01*
X38175Y-39107D01*
X38175Y-39214D01*
X38224Y-39334D01*
X38315Y-39425D01*
X38435Y-39475D01*
X38564Y-39475D01*
X38684Y-39426D01*
X38775Y-39335D01*
X38825Y-39215D01*
X38825Y-39086D01*
X38776Y-38966D01*
X38725Y-38915D01*
X38725Y-33762D01*
X38725Y-33538D01*
X38724Y-33474D01*
X38724Y-33375D01*
X38686Y-33284D01*
X38616Y-33214D01*
X38524Y-33176D01*
X38462Y-33175D01*
X38400Y-33237D01*
X38400Y-33600D01*
X38663Y-33600D01*
X38725Y-33538D01*
X38725Y-33762D01*
X38663Y-33700D01*
X38400Y-33700D01*
X38400Y-34063D01*
X38462Y-34125D01*
X38524Y-34124D01*
X38616Y-34086D01*
X38686Y-34016D01*
X38724Y-33925D01*
X38724Y-33826D01*
X38725Y-33762D01*
X38725Y-38915D01*
X38685Y-38875D01*
X38565Y-38825D01*
X38457Y-38825D01*
X37950Y-38317D01*
X37950Y-34005D01*
X37960Y-34001D01*
X37993Y-33967D01*
X38014Y-34016D01*
X38084Y-34086D01*
X38176Y-34124D01*
X38238Y-34125D01*
X38300Y-34063D01*
X38300Y-33750D01*
X38300Y-33700D01*
X38300Y-33600D01*
X38300Y-33550D01*
X38300Y-33237D01*
X38238Y-33175D01*
X38176Y-33176D01*
X38084Y-33214D01*
X38014Y-33284D01*
X37993Y-33332D01*
X37959Y-33298D01*
X37904Y-33276D01*
X37845Y-33276D01*
X37595Y-33276D01*
X37540Y-33299D01*
X37498Y-33341D01*
X37476Y-33394D01*
X37375Y-33292D01*
X37375Y-33186D01*
X37326Y-33066D01*
X37250Y-32990D01*
X37250Y-32432D01*
X39125Y-30557D01*
X39125Y-30614D01*
X39174Y-30734D01*
X39250Y-30810D01*
X39250Y-33450D01*
X39265Y-33527D01*
X39309Y-33591D01*
X39525Y-33807D01*
X39525Y-33914D01*
X39574Y-34034D01*
X39665Y-34125D01*
X39785Y-34175D01*
X39914Y-34175D01*
X40034Y-34126D01*
X40125Y-34035D01*
X40175Y-33915D01*
X40175Y-33786D01*
X40126Y-33666D01*
X40035Y-33575D01*
X39915Y-33525D01*
X39807Y-33525D01*
X39650Y-33367D01*
X39650Y-30810D01*
X39725Y-30735D01*
X39775Y-30615D01*
X39775Y-30486D01*
X39726Y-30366D01*
X39635Y-30275D01*
X39575Y-30250D01*
X41740Y-30250D01*
X41815Y-30325D01*
X41935Y-30375D01*
X42064Y-30375D01*
X42184Y-30326D01*
X42275Y-30235D01*
X42325Y-30115D01*
X42325Y-41024D01*
X42223Y-41066D01*
X42015Y-41274D01*
X41975Y-41369D01*
X41975Y-34415D01*
X41975Y-34286D01*
X41926Y-34166D01*
X41850Y-34090D01*
X41850Y-33610D01*
X41925Y-33535D01*
X41975Y-33415D01*
X41975Y-33286D01*
X41926Y-33166D01*
X41835Y-33075D01*
X41715Y-33025D01*
X41586Y-33025D01*
X41466Y-33074D01*
X41375Y-33165D01*
X41325Y-33285D01*
X41325Y-33414D01*
X41374Y-33534D01*
X41450Y-33610D01*
X41450Y-34090D01*
X41375Y-34165D01*
X41325Y-34285D01*
X41325Y-34414D01*
X41374Y-34534D01*
X41465Y-34625D01*
X41585Y-34675D01*
X41714Y-34675D01*
X41834Y-34626D01*
X41925Y-34535D01*
X41975Y-34415D01*
X41975Y-41369D01*
X41901Y-41546D01*
X41901Y-41840D01*
X42013Y-42112D01*
X42221Y-42320D01*
X42493Y-42434D01*
X42787Y-42434D01*
X43059Y-42322D01*
X43267Y-42114D01*
X43381Y-41842D01*
X43381Y-44525D01*
X41489Y-44525D01*
X41489Y-44102D01*
X41489Y-43963D01*
X41489Y-43263D01*
X41436Y-43135D01*
X41338Y-43036D01*
X41290Y-43016D01*
X41290Y-42183D01*
X41337Y-42164D01*
X41436Y-42066D01*
X41489Y-41938D01*
X41489Y-41799D01*
X41489Y-41099D01*
X41436Y-40971D01*
X41338Y-40872D01*
X41210Y-40819D01*
X41071Y-40819D01*
X40371Y-40819D01*
X40243Y-40872D01*
X40144Y-40970D01*
X40091Y-41098D01*
X40091Y-41237D01*
X40091Y-41937D01*
X40144Y-42065D01*
X40242Y-42164D01*
X40290Y-42183D01*
X40290Y-43016D01*
X40243Y-43036D01*
X40144Y-43134D01*
X40091Y-43262D01*
X40091Y-43401D01*
X40091Y-44101D01*
X40144Y-44229D01*
X40242Y-44328D01*
X40370Y-44381D01*
X40509Y-44381D01*
X41209Y-44381D01*
X41337Y-44328D01*
X41436Y-44230D01*
X41489Y-44102D01*
X41489Y-44525D01*
X39836Y-44525D01*
X39836Y-44102D01*
X39836Y-43963D01*
X39836Y-43263D01*
X39783Y-43135D01*
X39685Y-43036D01*
X39636Y-43015D01*
X39636Y-41897D01*
X39636Y-41838D01*
X39636Y-41138D01*
X39613Y-41083D01*
X39571Y-41041D01*
X39516Y-41019D01*
X39457Y-41019D01*
X38757Y-41019D01*
X38702Y-41042D01*
X38660Y-41084D01*
X38638Y-41139D01*
X38638Y-41198D01*
X38638Y-41898D01*
X38661Y-41953D01*
X38703Y-41995D01*
X38758Y-42017D01*
X38817Y-42017D01*
X39517Y-42017D01*
X39572Y-41994D01*
X39614Y-41952D01*
X39636Y-41897D01*
X39636Y-43015D01*
X39557Y-42983D01*
X39418Y-42983D01*
X38718Y-42983D01*
X38590Y-43036D01*
X38491Y-43134D01*
X38438Y-43262D01*
X38438Y-43401D01*
X38438Y-44101D01*
X38491Y-44229D01*
X38589Y-44328D01*
X38717Y-44381D01*
X38856Y-44381D01*
X39556Y-44381D01*
X39684Y-44328D01*
X39783Y-44230D01*
X39836Y-44102D01*
X39836Y-44525D01*
X38083Y-44525D01*
X38083Y-43794D01*
X38083Y-43570D01*
X38083Y-41630D01*
X38083Y-41406D01*
X38082Y-41217D01*
X38082Y-41118D01*
X38044Y-41027D01*
X37974Y-40957D01*
X37882Y-40919D01*
X37595Y-40918D01*
X37533Y-40980D01*
X37533Y-41468D01*
X38021Y-41468D01*
X38083Y-41406D01*
X38083Y-41630D01*
X38021Y-41568D01*
X37533Y-41568D01*
X37533Y-42056D01*
X37595Y-42118D01*
X37882Y-42117D01*
X37974Y-42079D01*
X38044Y-42009D01*
X38082Y-41918D01*
X38082Y-41819D01*
X38083Y-41630D01*
X38083Y-43570D01*
X38082Y-43381D01*
X38082Y-43282D01*
X38044Y-43191D01*
X37974Y-43121D01*
X37882Y-43083D01*
X37595Y-43082D01*
X37533Y-43144D01*
X37533Y-43632D01*
X38021Y-43632D01*
X38083Y-43570D01*
X38083Y-43794D01*
X38021Y-43732D01*
X37533Y-43732D01*
X37533Y-44220D01*
X37595Y-44282D01*
X37882Y-44281D01*
X37974Y-44243D01*
X38044Y-44173D01*
X38082Y-44082D01*
X38082Y-43983D01*
X38083Y-43794D01*
X38083Y-44525D01*
X37433Y-44525D01*
X37433Y-44220D01*
X37433Y-43732D01*
X37433Y-43632D01*
X37433Y-43144D01*
X37433Y-42056D01*
X37433Y-41568D01*
X37433Y-41468D01*
X37433Y-40980D01*
X37371Y-40918D01*
X37084Y-40919D01*
X36992Y-40957D01*
X36922Y-41027D01*
X36884Y-41118D01*
X36884Y-41217D01*
X36883Y-41406D01*
X36945Y-41468D01*
X37433Y-41468D01*
X37433Y-41568D01*
X36945Y-41568D01*
X36883Y-41630D01*
X36884Y-41819D01*
X36884Y-41918D01*
X36922Y-42009D01*
X36992Y-42079D01*
X37084Y-42117D01*
X37371Y-42118D01*
X37433Y-42056D01*
X37433Y-43144D01*
X37371Y-43082D01*
X37084Y-43083D01*
X36992Y-43121D01*
X36922Y-43191D01*
X36884Y-43282D01*
X36884Y-43381D01*
X36883Y-43570D01*
X36945Y-43632D01*
X37433Y-43632D01*
X37433Y-43732D01*
X36945Y-43732D01*
X36883Y-43794D01*
X36884Y-43983D01*
X36884Y-44082D01*
X36922Y-44173D01*
X36992Y-44243D01*
X37084Y-44281D01*
X37371Y-44282D01*
X37433Y-44220D01*
X37433Y-44525D01*
X36591Y-44525D01*
X36591Y-28550D01*
X36591Y-28375D01*
X36591Y-27951D01*
X36524Y-27789D01*
X36400Y-27665D01*
X36238Y-27597D01*
X36063Y-27597D01*
X35901Y-27664D01*
X35777Y-27788D01*
X35709Y-27950D01*
X35709Y-28125D01*
X35709Y-28549D01*
X35776Y-28711D01*
X35900Y-28835D01*
X36062Y-28903D01*
X36237Y-28903D01*
X36399Y-28836D01*
X36523Y-28712D01*
X36591Y-28550D01*
X36591Y-44525D01*
X36529Y-44525D01*
X36529Y-44102D01*
X36529Y-43963D01*
X36529Y-43263D01*
X36476Y-43135D01*
X36378Y-43036D01*
X36375Y-43034D01*
X36375Y-35615D01*
X36375Y-35486D01*
X36326Y-35366D01*
X36235Y-35275D01*
X36115Y-35225D01*
X36007Y-35225D01*
X35591Y-34809D01*
X35591Y-28550D01*
X35591Y-28375D01*
X35591Y-27951D01*
X35524Y-27789D01*
X35400Y-27665D01*
X35320Y-27631D01*
X35334Y-27626D01*
X35425Y-27535D01*
X35475Y-27415D01*
X35475Y-27286D01*
X35426Y-27166D01*
X35335Y-27075D01*
X35215Y-27025D01*
X35086Y-27025D01*
X34966Y-27074D01*
X34890Y-27150D01*
X32850Y-27150D01*
X32773Y-27165D01*
X32708Y-27209D01*
X32296Y-27621D01*
X32238Y-27597D01*
X32063Y-27597D01*
X31901Y-27664D01*
X31777Y-27788D01*
X31709Y-27950D01*
X31709Y-28125D01*
X31709Y-28549D01*
X31776Y-28711D01*
X31900Y-28835D01*
X32062Y-28903D01*
X32237Y-28903D01*
X32399Y-28836D01*
X32523Y-28712D01*
X32591Y-28550D01*
X32591Y-28375D01*
X32591Y-27951D01*
X32573Y-27908D01*
X32932Y-27550D01*
X34890Y-27550D01*
X34965Y-27625D01*
X34980Y-27631D01*
X34901Y-27664D01*
X34777Y-27788D01*
X34709Y-27950D01*
X34709Y-28125D01*
X34709Y-28549D01*
X34776Y-28711D01*
X34900Y-28835D01*
X35062Y-28903D01*
X35237Y-28903D01*
X35399Y-28836D01*
X35523Y-28712D01*
X35591Y-28550D01*
X35591Y-34809D01*
X34591Y-33809D01*
X34591Y-28550D01*
X34591Y-28375D01*
X34591Y-27951D01*
X34524Y-27789D01*
X34400Y-27665D01*
X34238Y-27597D01*
X34063Y-27597D01*
X33901Y-27664D01*
X33777Y-27788D01*
X33709Y-27950D01*
X33709Y-28125D01*
X33709Y-28549D01*
X33776Y-28711D01*
X33900Y-28835D01*
X34062Y-28903D01*
X34237Y-28903D01*
X34399Y-28836D01*
X34523Y-28712D01*
X34591Y-28550D01*
X34591Y-33809D01*
X33591Y-32809D01*
X33591Y-28550D01*
X33591Y-28375D01*
X33591Y-27951D01*
X33524Y-27789D01*
X33400Y-27665D01*
X33238Y-27597D01*
X33063Y-27597D01*
X32901Y-27664D01*
X32777Y-27788D01*
X32709Y-27950D01*
X32709Y-28125D01*
X32709Y-28549D01*
X32776Y-28711D01*
X32900Y-28835D01*
X33062Y-28903D01*
X33237Y-28903D01*
X33399Y-28836D01*
X33523Y-28712D01*
X33591Y-28550D01*
X33591Y-32809D01*
X31591Y-30809D01*
X31591Y-28550D01*
X31591Y-28375D01*
X31591Y-27951D01*
X31524Y-27789D01*
X31400Y-27665D01*
X31238Y-27597D01*
X31063Y-27597D01*
X30901Y-27664D01*
X30777Y-27788D01*
X30709Y-27950D01*
X30709Y-28125D01*
X30709Y-28549D01*
X30776Y-28711D01*
X30900Y-28835D01*
X31062Y-28903D01*
X31237Y-28903D01*
X31399Y-28836D01*
X31523Y-28712D01*
X31591Y-28550D01*
X31591Y-30809D01*
X30591Y-29809D01*
X30591Y-28550D01*
X30591Y-28375D01*
X30591Y-27951D01*
X30524Y-27789D01*
X30400Y-27665D01*
X30238Y-27597D01*
X30063Y-27597D01*
X29901Y-27664D01*
X29777Y-27788D01*
X29709Y-27950D01*
X29709Y-28125D01*
X29709Y-28549D01*
X29776Y-28711D01*
X29900Y-28835D01*
X30062Y-28903D01*
X30237Y-28903D01*
X30399Y-28836D01*
X30523Y-28712D01*
X30591Y-28550D01*
X30591Y-29809D01*
X29508Y-28726D01*
X29523Y-28712D01*
X29591Y-28550D01*
X29591Y-28375D01*
X29591Y-27951D01*
X29524Y-27789D01*
X29400Y-27665D01*
X29238Y-27597D01*
X29063Y-27597D01*
X28901Y-27664D01*
X28777Y-27788D01*
X28709Y-27950D01*
X28709Y-28125D01*
X28709Y-28549D01*
X28776Y-28711D01*
X28900Y-28835D01*
X29062Y-28903D01*
X29121Y-28903D01*
X35725Y-35507D01*
X35725Y-35614D01*
X35774Y-35734D01*
X35865Y-35825D01*
X35985Y-35875D01*
X36114Y-35875D01*
X36234Y-35826D01*
X36325Y-35735D01*
X36375Y-35615D01*
X36375Y-43034D01*
X36329Y-43015D01*
X36329Y-41897D01*
X36329Y-41838D01*
X36329Y-41138D01*
X36306Y-41083D01*
X36264Y-41041D01*
X36209Y-41019D01*
X36150Y-41019D01*
X35450Y-41019D01*
X35395Y-41042D01*
X35353Y-41084D01*
X35331Y-41139D01*
X35331Y-41198D01*
X35331Y-41898D01*
X35354Y-41953D01*
X35396Y-41995D01*
X35451Y-42017D01*
X35510Y-42017D01*
X36210Y-42017D01*
X36265Y-41994D01*
X36307Y-41952D01*
X36329Y-41897D01*
X36329Y-43015D01*
X36250Y-42983D01*
X36111Y-42983D01*
X35411Y-42983D01*
X35283Y-43036D01*
X35184Y-43134D01*
X35131Y-43262D01*
X35131Y-43401D01*
X35131Y-44101D01*
X35184Y-44229D01*
X35282Y-44328D01*
X35410Y-44381D01*
X35549Y-44381D01*
X36249Y-44381D01*
X36377Y-44328D01*
X36476Y-44230D01*
X36529Y-44102D01*
X36529Y-44525D01*
X34776Y-44525D01*
X34776Y-43794D01*
X34776Y-43570D01*
X34776Y-41630D01*
X34776Y-41406D01*
X34775Y-41217D01*
X34775Y-41118D01*
X34737Y-41027D01*
X34667Y-40957D01*
X34575Y-40919D01*
X34288Y-40918D01*
X34226Y-40980D01*
X34226Y-41468D01*
X34714Y-41468D01*
X34776Y-41406D01*
X34776Y-41630D01*
X34714Y-41568D01*
X34226Y-41568D01*
X34226Y-42056D01*
X34288Y-42118D01*
X34575Y-42117D01*
X34667Y-42079D01*
X34737Y-42009D01*
X34775Y-41918D01*
X34775Y-41819D01*
X34776Y-41630D01*
X34776Y-43570D01*
X34775Y-43381D01*
X34775Y-43282D01*
X34737Y-43191D01*
X34667Y-43121D01*
X34575Y-43083D01*
X34288Y-43082D01*
X34226Y-43144D01*
X34226Y-43632D01*
X34714Y-43632D01*
X34776Y-43570D01*
X34776Y-43794D01*
X34714Y-43732D01*
X34226Y-43732D01*
X34226Y-44220D01*
X34288Y-44282D01*
X34575Y-44281D01*
X34667Y-44243D01*
X34737Y-44173D01*
X34775Y-44082D01*
X34775Y-43983D01*
X34776Y-43794D01*
X34776Y-44525D01*
X34126Y-44525D01*
X34126Y-44220D01*
X34126Y-43732D01*
X34126Y-43632D01*
X34126Y-43144D01*
X34126Y-42056D01*
X34126Y-41568D01*
X34126Y-41468D01*
X34126Y-40980D01*
X34064Y-40918D01*
X33777Y-40919D01*
X33685Y-40957D01*
X33615Y-41027D01*
X33577Y-41118D01*
X33577Y-41217D01*
X33576Y-41406D01*
X33638Y-41468D01*
X34126Y-41468D01*
X34126Y-41568D01*
X33638Y-41568D01*
X33576Y-41630D01*
X33577Y-41819D01*
X33577Y-41918D01*
X33615Y-42009D01*
X33685Y-42079D01*
X33777Y-42117D01*
X34064Y-42118D01*
X34126Y-42056D01*
X34126Y-43144D01*
X34064Y-43082D01*
X33777Y-43083D01*
X33685Y-43121D01*
X33615Y-43191D01*
X33577Y-43282D01*
X33577Y-43381D01*
X33576Y-43570D01*
X33638Y-43632D01*
X34126Y-43632D01*
X34126Y-43732D01*
X33638Y-43732D01*
X33576Y-43794D01*
X33577Y-43983D01*
X33577Y-44082D01*
X33615Y-44173D01*
X33685Y-44243D01*
X33777Y-44281D01*
X34064Y-44282D01*
X34126Y-44220D01*
X34126Y-44525D01*
X33223Y-44525D01*
X33223Y-44102D01*
X33223Y-43963D01*
X33223Y-43263D01*
X33170Y-43135D01*
X33124Y-43088D01*
X33124Y-41630D01*
X33124Y-41406D01*
X33123Y-41217D01*
X33123Y-41118D01*
X33085Y-41027D01*
X33015Y-40957D01*
X32923Y-40919D01*
X32636Y-40918D01*
X32574Y-40980D01*
X32574Y-41468D01*
X33062Y-41468D01*
X33124Y-41406D01*
X33124Y-41630D01*
X33062Y-41568D01*
X32574Y-41568D01*
X32574Y-42056D01*
X32636Y-42118D01*
X32923Y-42117D01*
X33015Y-42079D01*
X33085Y-42009D01*
X33123Y-41918D01*
X33123Y-41819D01*
X33124Y-41630D01*
X33124Y-43088D01*
X33072Y-43036D01*
X32944Y-42983D01*
X32805Y-42983D01*
X32474Y-42983D01*
X32474Y-42056D01*
X32474Y-41568D01*
X32474Y-41468D01*
X32474Y-40980D01*
X32412Y-40918D01*
X32125Y-40919D01*
X32033Y-40957D01*
X31963Y-41027D01*
X31925Y-41118D01*
X31925Y-41217D01*
X31924Y-41406D01*
X31986Y-41468D01*
X32474Y-41468D01*
X32474Y-41568D01*
X31986Y-41568D01*
X31924Y-41630D01*
X31925Y-41819D01*
X31925Y-41918D01*
X31963Y-42009D01*
X32033Y-42079D01*
X32125Y-42117D01*
X32412Y-42118D01*
X32474Y-42056D01*
X32474Y-42983D01*
X32105Y-42983D01*
X31977Y-43036D01*
X31878Y-43134D01*
X31825Y-43262D01*
X31825Y-43401D01*
X31825Y-44101D01*
X31878Y-44229D01*
X31976Y-44328D01*
X32104Y-44381D01*
X32243Y-44381D01*
X32943Y-44381D01*
X33071Y-44328D01*
X33170Y-44230D01*
X33223Y-44102D01*
X33223Y-44525D01*
X31470Y-44525D01*
X31470Y-43794D01*
X31470Y-43570D01*
X31470Y-41630D01*
X31470Y-41406D01*
X31469Y-41217D01*
X31469Y-41118D01*
X31431Y-41027D01*
X31361Y-40957D01*
X31269Y-40919D01*
X30982Y-40918D01*
X30920Y-40980D01*
X30920Y-41468D01*
X31408Y-41468D01*
X31470Y-41406D01*
X31470Y-41630D01*
X31408Y-41568D01*
X30920Y-41568D01*
X30920Y-42056D01*
X30982Y-42118D01*
X31269Y-42117D01*
X31361Y-42079D01*
X31431Y-42009D01*
X31469Y-41918D01*
X31469Y-41819D01*
X31470Y-41630D01*
X31470Y-43570D01*
X31469Y-43381D01*
X31469Y-43282D01*
X31431Y-43191D01*
X31361Y-43121D01*
X31269Y-43083D01*
X30982Y-43082D01*
X30920Y-43144D01*
X30920Y-43632D01*
X31408Y-43632D01*
X31470Y-43570D01*
X31470Y-43794D01*
X31408Y-43732D01*
X30920Y-43732D01*
X30920Y-44220D01*
X30982Y-44282D01*
X31269Y-44281D01*
X31361Y-44243D01*
X31431Y-44173D01*
X31469Y-44082D01*
X31469Y-43983D01*
X31470Y-43794D01*
X31470Y-44525D01*
X30820Y-44525D01*
X30820Y-44220D01*
X30820Y-43732D01*
X30820Y-43632D01*
X30820Y-43144D01*
X30820Y-42056D01*
X30820Y-41568D01*
X30820Y-41468D01*
X30820Y-40980D01*
X30758Y-40918D01*
X30471Y-40919D01*
X30379Y-40957D01*
X30309Y-41027D01*
X30271Y-41118D01*
X30271Y-41217D01*
X30270Y-41406D01*
X30332Y-41468D01*
X30820Y-41468D01*
X30820Y-41568D01*
X30332Y-41568D01*
X30270Y-41630D01*
X30271Y-41819D01*
X30271Y-41918D01*
X30309Y-42009D01*
X30379Y-42079D01*
X30471Y-42117D01*
X30758Y-42118D01*
X30820Y-42056D01*
X30820Y-43144D01*
X30758Y-43082D01*
X30471Y-43083D01*
X30379Y-43121D01*
X30309Y-43191D01*
X30271Y-43282D01*
X30271Y-43381D01*
X30270Y-43570D01*
X30332Y-43632D01*
X30820Y-43632D01*
X30820Y-43732D01*
X30332Y-43732D01*
X30270Y-43794D01*
X30271Y-43983D01*
X30271Y-44082D01*
X30309Y-44173D01*
X30379Y-44243D01*
X30471Y-44281D01*
X30758Y-44282D01*
X30820Y-44220D01*
X30820Y-44525D01*
X29716Y-44525D01*
X29716Y-44061D01*
X29716Y-44002D01*
X29716Y-43302D01*
X29716Y-41897D01*
X29716Y-41838D01*
X29716Y-41138D01*
X29693Y-41083D01*
X29651Y-41041D01*
X29596Y-41019D01*
X29537Y-41019D01*
X28837Y-41019D01*
X28782Y-41042D01*
X28740Y-41084D01*
X28718Y-41139D01*
X28718Y-41198D01*
X28718Y-41898D01*
X28741Y-41953D01*
X28783Y-41995D01*
X28838Y-42017D01*
X28897Y-42017D01*
X29597Y-42017D01*
X29652Y-41994D01*
X29694Y-41952D01*
X29716Y-41897D01*
X29716Y-43302D01*
X29693Y-43247D01*
X29651Y-43205D01*
X29596Y-43183D01*
X29537Y-43183D01*
X28837Y-43183D01*
X28782Y-43206D01*
X28740Y-43248D01*
X28718Y-43303D01*
X28718Y-43362D01*
X28718Y-44062D01*
X28741Y-44117D01*
X28783Y-44159D01*
X28838Y-44181D01*
X28897Y-44181D01*
X29597Y-44181D01*
X29652Y-44158D01*
X29694Y-44116D01*
X29716Y-44061D01*
X29716Y-44525D01*
X28262Y-44525D01*
X28262Y-41938D01*
X28262Y-41799D01*
X28262Y-41099D01*
X28209Y-40971D01*
X28200Y-40961D01*
X28200Y-36450D01*
X28200Y-31050D01*
X27591Y-31050D01*
X27591Y-28550D01*
X27591Y-28375D01*
X27591Y-27951D01*
X27524Y-27789D01*
X27400Y-27665D01*
X27238Y-27597D01*
X27063Y-27597D01*
X26901Y-27664D01*
X26777Y-27788D01*
X26709Y-27950D01*
X26709Y-28125D01*
X26709Y-28549D01*
X26776Y-28711D01*
X26900Y-28835D01*
X27062Y-28903D01*
X27237Y-28903D01*
X27399Y-28836D01*
X27523Y-28712D01*
X27591Y-28550D01*
X27591Y-31050D01*
X27100Y-31050D01*
X27100Y-31800D01*
X26700Y-31800D01*
X26700Y-28500D01*
X26700Y-28300D01*
X26700Y-28200D01*
X26700Y-28000D01*
X26639Y-27793D01*
X26503Y-27625D01*
X26313Y-27522D01*
X26285Y-27518D01*
X26200Y-27565D01*
X26200Y-28200D01*
X26700Y-28200D01*
X26700Y-28300D01*
X26200Y-28300D01*
X26200Y-28935D01*
X26285Y-28982D01*
X26313Y-28978D01*
X26503Y-28875D01*
X26639Y-28707D01*
X26700Y-28500D01*
X26700Y-31800D01*
X26100Y-31800D01*
X26100Y-28935D01*
X26100Y-28300D01*
X26100Y-28200D01*
X26100Y-27565D01*
X26015Y-27518D01*
X25991Y-27521D01*
X25991Y-09550D01*
X25991Y-09375D01*
X25991Y-08951D01*
X25924Y-08789D01*
X25800Y-08665D01*
X25638Y-08597D01*
X25463Y-08597D01*
X25301Y-08664D01*
X25177Y-08788D01*
X25109Y-08950D01*
X25109Y-09125D01*
X25109Y-09549D01*
X25176Y-09711D01*
X25300Y-09835D01*
X25350Y-09855D01*
X25350Y-11117D01*
X24991Y-11476D01*
X24991Y-09550D01*
X24991Y-09375D01*
X24991Y-08951D01*
X24924Y-08789D01*
X24800Y-08665D01*
X24638Y-08597D01*
X24463Y-08597D01*
X24301Y-08664D01*
X24177Y-08788D01*
X24109Y-08950D01*
X24109Y-09125D01*
X24109Y-09549D01*
X24176Y-09711D01*
X24300Y-09835D01*
X24350Y-09855D01*
X24350Y-11039D01*
X24266Y-11074D01*
X24175Y-11165D01*
X24125Y-11285D01*
X24125Y-11414D01*
X24174Y-11534D01*
X24265Y-11625D01*
X24385Y-11675D01*
X24514Y-11675D01*
X24634Y-11626D01*
X24725Y-11535D01*
X24775Y-11415D01*
X24775Y-11286D01*
X24750Y-11224D01*
X24750Y-09856D01*
X24799Y-09836D01*
X24923Y-09712D01*
X24991Y-09550D01*
X24991Y-11476D01*
X23991Y-12476D01*
X23991Y-09550D01*
X23991Y-09375D01*
X23991Y-08951D01*
X23924Y-08789D01*
X23800Y-08665D01*
X23638Y-08597D01*
X23463Y-08597D01*
X23301Y-08664D01*
X23177Y-08788D01*
X23109Y-08950D01*
X23109Y-09125D01*
X23109Y-09549D01*
X23176Y-09711D01*
X23300Y-09835D01*
X23462Y-09903D01*
X23637Y-09903D01*
X23799Y-09836D01*
X23923Y-09712D01*
X23991Y-09550D01*
X23991Y-12476D01*
X23967Y-12500D01*
X22991Y-12500D01*
X22991Y-09550D01*
X22991Y-09375D01*
X22991Y-08951D01*
X22924Y-08789D01*
X22800Y-08665D01*
X22638Y-08597D01*
X22463Y-08597D01*
X22301Y-08664D01*
X22177Y-08788D01*
X22109Y-08950D01*
X22109Y-09125D01*
X22109Y-09549D01*
X22176Y-09711D01*
X22300Y-09835D01*
X22462Y-09903D01*
X22637Y-09903D01*
X22799Y-09836D01*
X22923Y-09712D01*
X22991Y-09550D01*
X22991Y-12500D01*
X21991Y-12500D01*
X21991Y-09550D01*
X21991Y-09375D01*
X21991Y-08951D01*
X21924Y-08789D01*
X21800Y-08665D01*
X21638Y-08597D01*
X21463Y-08597D01*
X21301Y-08664D01*
X21177Y-08788D01*
X21109Y-08950D01*
X21109Y-09125D01*
X21109Y-09549D01*
X21176Y-09711D01*
X21300Y-09835D01*
X21462Y-09903D01*
X21637Y-09903D01*
X21799Y-09836D01*
X21923Y-09712D01*
X21991Y-09550D01*
X21991Y-12500D01*
X20991Y-12500D01*
X20991Y-09550D01*
X20991Y-09375D01*
X20991Y-08951D01*
X20924Y-08789D01*
X20800Y-08665D01*
X20638Y-08597D01*
X20463Y-08597D01*
X20301Y-08664D01*
X20177Y-08788D01*
X20109Y-08950D01*
X20109Y-09125D01*
X20109Y-09549D01*
X20176Y-09711D01*
X20300Y-09835D01*
X20462Y-09903D01*
X20637Y-09903D01*
X20799Y-09836D01*
X20923Y-09712D01*
X20991Y-09550D01*
X20991Y-12500D01*
X20100Y-12500D01*
X20100Y-09500D01*
X20100Y-09300D01*
X20100Y-09200D01*
X20100Y-09000D01*
X20039Y-08793D01*
X19903Y-08625D01*
X19713Y-08522D01*
X19685Y-08518D01*
X19600Y-08565D01*
X19600Y-09200D01*
X20100Y-09200D01*
X20100Y-09300D01*
X19600Y-09300D01*
X19600Y-09935D01*
X19685Y-09982D01*
X19713Y-09978D01*
X19903Y-09875D01*
X20039Y-09707D01*
X20100Y-09500D01*
X20100Y-12500D01*
X19500Y-12500D01*
X19500Y-09935D01*
X19500Y-09300D01*
X19500Y-09200D01*
X19500Y-08565D01*
X19415Y-08518D01*
X19387Y-08522D01*
X19197Y-08625D01*
X19061Y-08793D01*
X19000Y-09000D01*
X19000Y-09200D01*
X19500Y-09200D01*
X19500Y-09300D01*
X19000Y-09300D01*
X19000Y-09500D01*
X19061Y-09707D01*
X19197Y-09875D01*
X19387Y-09978D01*
X19415Y-09982D01*
X19500Y-09935D01*
X19500Y-12500D01*
X18991Y-12500D01*
X18991Y-09550D01*
X18991Y-09375D01*
X18991Y-08951D01*
X18924Y-08789D01*
X18800Y-08665D01*
X18638Y-08597D01*
X18463Y-08597D01*
X18301Y-08664D01*
X18177Y-08788D01*
X18109Y-08950D01*
X18109Y-09125D01*
X18109Y-09549D01*
X18176Y-09711D01*
X18300Y-09835D01*
X18462Y-09903D01*
X18637Y-09903D01*
X18799Y-09836D01*
X18923Y-09712D01*
X18991Y-09550D01*
X18991Y-12500D01*
X16000Y-12500D01*
X15923Y-12515D01*
X15858Y-12559D01*
X10309Y-18109D01*
X10265Y-18173D01*
X10250Y-18250D01*
X10250Y-38200D01*
X10265Y-38277D01*
X10309Y-38341D01*
X12592Y-40625D01*
X12318Y-40511D01*
X11984Y-40511D01*
X11676Y-40638D01*
X11439Y-40874D01*
X11311Y-41182D01*
X11311Y-41516D01*
X11438Y-41824D01*
X11674Y-42061D01*
X11982Y-42189D01*
X12316Y-42189D01*
X12624Y-42062D01*
X12861Y-41826D01*
X12989Y-41518D01*
X12989Y-41184D01*
X12875Y-40907D01*
X14275Y-42307D01*
X14275Y-42414D01*
X14324Y-42534D01*
X14415Y-42625D01*
X14535Y-42675D01*
X14664Y-42675D01*
X14784Y-42626D01*
X14875Y-42535D01*
X14925Y-42415D01*
X14925Y-42286D01*
X14876Y-42166D01*
X14785Y-42075D01*
X14693Y-42036D01*
X14693Y-40429D01*
X14693Y-33329D01*
X14682Y-33116D01*
X14622Y-32969D01*
X14528Y-32942D01*
X14458Y-33012D01*
X14458Y-32872D01*
X14431Y-32778D01*
X14229Y-32707D01*
X14016Y-32718D01*
X13869Y-32778D01*
X13842Y-32872D01*
X14150Y-33179D01*
X14458Y-32872D01*
X14458Y-33012D01*
X14221Y-33250D01*
X14528Y-33558D01*
X14622Y-33531D01*
X14693Y-33329D01*
X14693Y-40429D01*
X14682Y-40216D01*
X14622Y-40069D01*
X14599Y-40062D01*
X14599Y-39440D01*
X14599Y-39261D01*
X14531Y-39096D01*
X14458Y-39023D01*
X14458Y-33628D01*
X14150Y-33321D01*
X14079Y-33391D01*
X14079Y-33250D01*
X13772Y-32942D01*
X13678Y-32969D01*
X13607Y-33171D01*
X13618Y-33384D01*
X13678Y-33531D01*
X13772Y-33558D01*
X14079Y-33250D01*
X14079Y-33391D01*
X13842Y-33628D01*
X13869Y-33722D01*
X14071Y-33793D01*
X14284Y-33782D01*
X14431Y-33722D01*
X14458Y-33628D01*
X14458Y-39023D01*
X14405Y-38970D01*
X14240Y-38901D01*
X14061Y-38901D01*
X13896Y-38969D01*
X13770Y-39095D01*
X13701Y-39260D01*
X13701Y-39439D01*
X13769Y-39604D01*
X13895Y-39730D01*
X14060Y-39799D01*
X14239Y-39799D01*
X14404Y-39731D01*
X14530Y-39605D01*
X14599Y-39440D01*
X14599Y-40062D01*
X14528Y-40042D01*
X14458Y-40112D01*
X14458Y-39972D01*
X14431Y-39878D01*
X14229Y-39807D01*
X14016Y-39818D01*
X13869Y-39878D01*
X13842Y-39972D01*
X14150Y-40279D01*
X14458Y-39972D01*
X14458Y-40112D01*
X14221Y-40350D01*
X14528Y-40658D01*
X14622Y-40631D01*
X14693Y-40429D01*
X14693Y-42036D01*
X14665Y-42025D01*
X14557Y-42025D01*
X14458Y-41925D01*
X14458Y-40728D01*
X14150Y-40421D01*
X14079Y-40491D01*
X14079Y-40350D01*
X13772Y-40042D01*
X13678Y-40069D01*
X13607Y-40271D01*
X13618Y-40484D01*
X13678Y-40631D01*
X13772Y-40658D01*
X14079Y-40350D01*
X14079Y-40491D01*
X13842Y-40728D01*
X13869Y-40822D01*
X14071Y-40893D01*
X14284Y-40882D01*
X14431Y-40822D01*
X14458Y-40728D01*
X14458Y-41925D01*
X12989Y-40456D01*
X12989Y-37518D01*
X12989Y-37184D01*
X12989Y-34418D01*
X12989Y-34084D01*
X12989Y-30418D01*
X12989Y-30084D01*
X12989Y-22618D01*
X12989Y-22284D01*
X12989Y-18618D01*
X12989Y-18284D01*
X12862Y-17976D01*
X12626Y-17739D01*
X12318Y-17611D01*
X11984Y-17611D01*
X11676Y-17738D01*
X11439Y-17974D01*
X11311Y-18282D01*
X11311Y-18616D01*
X11438Y-18924D01*
X11674Y-19161D01*
X11982Y-19289D01*
X12316Y-19289D01*
X12624Y-19162D01*
X12861Y-18926D01*
X12989Y-18618D01*
X12989Y-22284D01*
X12862Y-21976D01*
X12626Y-21739D01*
X12318Y-21611D01*
X11984Y-21611D01*
X11676Y-21738D01*
X11439Y-21974D01*
X11311Y-22282D01*
X11311Y-22616D01*
X11438Y-22924D01*
X11674Y-23161D01*
X11982Y-23289D01*
X12316Y-23289D01*
X12624Y-23162D01*
X12861Y-22926D01*
X12989Y-22618D01*
X12989Y-30084D01*
X12862Y-29776D01*
X12626Y-29539D01*
X12318Y-29411D01*
X11984Y-29411D01*
X11676Y-29538D01*
X11439Y-29774D01*
X11311Y-30082D01*
X11311Y-30416D01*
X11438Y-30724D01*
X11674Y-30961D01*
X11982Y-31089D01*
X12316Y-31089D01*
X12624Y-30962D01*
X12861Y-30726D01*
X12989Y-30418D01*
X12989Y-34084D01*
X12862Y-33776D01*
X12626Y-33539D01*
X12318Y-33411D01*
X11984Y-33411D01*
X11676Y-33538D01*
X11439Y-33774D01*
X11311Y-34082D01*
X11311Y-34416D01*
X11438Y-34724D01*
X11674Y-34961D01*
X11982Y-35089D01*
X12316Y-35089D01*
X12624Y-34962D01*
X12861Y-34726D01*
X12989Y-34418D01*
X12989Y-37184D01*
X12862Y-36876D01*
X12626Y-36639D01*
X12318Y-36511D01*
X11984Y-36511D01*
X11676Y-36638D01*
X11439Y-36874D01*
X11311Y-37182D01*
X11311Y-37516D01*
X11438Y-37824D01*
X11674Y-38061D01*
X11982Y-38189D01*
X12316Y-38189D01*
X12624Y-38062D01*
X12861Y-37826D01*
X12989Y-37518D01*
X12989Y-40456D01*
X10650Y-38117D01*
X10650Y-18332D01*
X16082Y-12900D01*
X24050Y-12900D01*
X24050Y-12899D01*
X24126Y-12885D01*
X24127Y-12885D01*
X24191Y-12841D01*
X25691Y-11342D01*
X25691Y-11341D01*
X25735Y-11277D01*
X25749Y-11200D01*
X25750Y-11200D01*
X25750Y-09856D01*
X25799Y-09836D01*
X25923Y-09712D01*
X25991Y-09550D01*
X25991Y-27521D01*
X25987Y-27522D01*
X25797Y-27625D01*
X25661Y-27793D01*
X25650Y-27830D01*
X25639Y-27793D01*
X25503Y-27625D01*
X25313Y-27522D01*
X25285Y-27518D01*
X25200Y-27565D01*
X25200Y-28200D01*
X25600Y-28200D01*
X25700Y-28200D01*
X26100Y-28200D01*
X26100Y-28300D01*
X25700Y-28300D01*
X25600Y-28300D01*
X25200Y-28300D01*
X25200Y-28935D01*
X25285Y-28982D01*
X25313Y-28978D01*
X25503Y-28875D01*
X25639Y-28707D01*
X25650Y-28669D01*
X25661Y-28707D01*
X25797Y-28875D01*
X25987Y-28978D01*
X26015Y-28982D01*
X26100Y-28935D01*
X26100Y-31800D01*
X25100Y-31800D01*
X25100Y-28935D01*
X25100Y-28300D01*
X25100Y-28200D01*
X25100Y-27565D01*
X25015Y-27518D01*
X24987Y-27522D01*
X24797Y-27625D01*
X24661Y-27793D01*
X24600Y-28000D01*
X24600Y-28200D01*
X25100Y-28200D01*
X25100Y-28300D01*
X24600Y-28300D01*
X24600Y-28500D01*
X24661Y-28707D01*
X24797Y-28875D01*
X24987Y-28978D01*
X25015Y-28982D01*
X25100Y-28935D01*
X25100Y-31800D01*
X24591Y-31800D01*
X24591Y-28550D01*
X24591Y-28375D01*
X24591Y-27951D01*
X24524Y-27789D01*
X24400Y-27665D01*
X24238Y-27597D01*
X24063Y-27597D01*
X23901Y-27664D01*
X23777Y-27788D01*
X23709Y-27950D01*
X23709Y-28125D01*
X23709Y-28549D01*
X23776Y-28711D01*
X23900Y-28835D01*
X24062Y-28903D01*
X24237Y-28903D01*
X24399Y-28836D01*
X24523Y-28712D01*
X24591Y-28550D01*
X24591Y-31800D01*
X23591Y-31800D01*
X23591Y-28550D01*
X23591Y-28375D01*
X23591Y-27951D01*
X23524Y-27789D01*
X23400Y-27665D01*
X23238Y-27597D01*
X23063Y-27597D01*
X22901Y-27664D01*
X22777Y-27788D01*
X22709Y-27950D01*
X22709Y-28125D01*
X22709Y-28549D01*
X22776Y-28711D01*
X22900Y-28835D01*
X23062Y-28903D01*
X23237Y-28903D01*
X23399Y-28836D01*
X23523Y-28712D01*
X23591Y-28550D01*
X23591Y-31800D01*
X22591Y-31800D01*
X22591Y-28550D01*
X22591Y-28375D01*
X22591Y-27951D01*
X22524Y-27789D01*
X22400Y-27665D01*
X22238Y-27597D01*
X22063Y-27597D01*
X21901Y-27664D01*
X21777Y-27788D01*
X21709Y-27950D01*
X21709Y-28125D01*
X21709Y-28549D01*
X21776Y-28711D01*
X21900Y-28835D01*
X22062Y-28903D01*
X22237Y-28903D01*
X22399Y-28836D01*
X22523Y-28712D01*
X22591Y-28550D01*
X22591Y-31800D01*
X19550Y-31800D01*
X19550Y-20515D01*
X19550Y-20386D01*
X19501Y-20266D01*
X19410Y-20175D01*
X19290Y-20125D01*
X19161Y-20125D01*
X19041Y-20174D01*
X18965Y-20250D01*
X18299Y-20250D01*
X18299Y-20020D01*
X18276Y-19965D01*
X18234Y-19923D01*
X18179Y-19901D01*
X18120Y-19901D01*
X17520Y-19901D01*
X17465Y-19924D01*
X17423Y-19966D01*
X17401Y-20021D01*
X17401Y-20080D01*
X17401Y-20880D01*
X17424Y-20935D01*
X17466Y-20977D01*
X17521Y-20999D01*
X17580Y-20999D01*
X18180Y-20999D01*
X18235Y-20976D01*
X18277Y-20934D01*
X18299Y-20879D01*
X18299Y-20820D01*
X18299Y-20650D01*
X18965Y-20650D01*
X19040Y-20725D01*
X19160Y-20775D01*
X19289Y-20775D01*
X19409Y-20726D01*
X19500Y-20635D01*
X19550Y-20515D01*
X19550Y-31800D01*
X16999Y-31800D01*
X16999Y-20879D01*
X16999Y-20820D01*
X16999Y-20020D01*
X16976Y-19965D01*
X16934Y-19923D01*
X16879Y-19901D01*
X16820Y-19901D01*
X16220Y-19901D01*
X16165Y-19924D01*
X16123Y-19966D01*
X16101Y-20021D01*
X16101Y-20080D01*
X16101Y-20250D01*
X14553Y-20250D01*
X14531Y-20196D01*
X14405Y-20070D01*
X14240Y-20001D01*
X14061Y-20001D01*
X13896Y-20069D01*
X13770Y-20195D01*
X13701Y-20360D01*
X13701Y-20539D01*
X13769Y-20704D01*
X13895Y-20830D01*
X14060Y-20899D01*
X14239Y-20899D01*
X14404Y-20831D01*
X14530Y-20705D01*
X14553Y-20650D01*
X16101Y-20650D01*
X16101Y-20880D01*
X16124Y-20935D01*
X16166Y-20977D01*
X16221Y-20999D01*
X16280Y-20999D01*
X16880Y-20999D01*
X16935Y-20976D01*
X16977Y-20934D01*
X16999Y-20879D01*
X16999Y-31800D01*
X15575Y-31800D01*
X15575Y-28435D01*
X15575Y-28067D01*
X15435Y-27727D01*
X15175Y-27467D01*
X14835Y-27325D01*
X14693Y-27325D01*
X14693Y-21529D01*
X14682Y-21316D01*
X14622Y-21169D01*
X14528Y-21142D01*
X14458Y-21212D01*
X14458Y-21072D01*
X14431Y-20978D01*
X14229Y-20907D01*
X14016Y-20918D01*
X13869Y-20978D01*
X13842Y-21072D01*
X14150Y-21379D01*
X14458Y-21072D01*
X14458Y-21212D01*
X14221Y-21450D01*
X14528Y-21758D01*
X14622Y-21731D01*
X14693Y-21529D01*
X14693Y-27325D01*
X14467Y-27325D01*
X14458Y-27328D01*
X14458Y-21828D01*
X14150Y-21521D01*
X14079Y-21591D01*
X14079Y-21450D01*
X13772Y-21142D01*
X13678Y-21169D01*
X13607Y-21371D01*
X13618Y-21584D01*
X13678Y-21731D01*
X13772Y-21758D01*
X14079Y-21450D01*
X14079Y-21591D01*
X13842Y-21828D01*
X13869Y-21922D01*
X14071Y-21993D01*
X14284Y-21982D01*
X14431Y-21922D01*
X14458Y-21828D01*
X14458Y-27328D01*
X14127Y-27465D01*
X13867Y-27725D01*
X13725Y-28065D01*
X13725Y-28433D01*
X13865Y-28773D01*
X14125Y-29033D01*
X14465Y-29175D01*
X14833Y-29175D01*
X15173Y-29035D01*
X15433Y-28775D01*
X15575Y-28435D01*
X15575Y-31800D01*
X13750Y-31800D01*
X13750Y-32042D01*
X13701Y-32160D01*
X13701Y-32339D01*
X13750Y-32457D01*
X13750Y-32650D01*
X13942Y-32650D01*
X14060Y-32699D01*
X14239Y-32699D01*
X14357Y-32650D01*
X26550Y-32650D01*
X26550Y-36450D01*
X28200Y-36450D01*
X28200Y-40961D01*
X28111Y-40872D01*
X27983Y-40819D01*
X27844Y-40819D01*
X27144Y-40819D01*
X27016Y-40872D01*
X26917Y-40970D01*
X26864Y-41098D01*
X26864Y-41237D01*
X26864Y-41937D01*
X26917Y-42065D01*
X27015Y-42164D01*
X27143Y-42217D01*
X27282Y-42217D01*
X27982Y-42217D01*
X28110Y-42164D01*
X28200Y-42074D01*
X28209Y-42066D01*
X28262Y-41938D01*
X28262Y-44525D01*
X28200Y-44525D01*
X28062Y-44525D01*
X28062Y-44061D01*
X28062Y-44002D01*
X28062Y-43302D01*
X28039Y-43247D01*
X27997Y-43205D01*
X27942Y-43183D01*
X27883Y-43183D01*
X27183Y-43183D01*
X27128Y-43206D01*
X27086Y-43248D01*
X27064Y-43303D01*
X27064Y-43362D01*
X27064Y-44062D01*
X27087Y-44117D01*
X27129Y-44159D01*
X27184Y-44181D01*
X27243Y-44181D01*
X27943Y-44181D01*
X27998Y-44158D01*
X28040Y-44116D01*
X28062Y-44061D01*
X28062Y-44525D01*
X26609Y-44525D01*
X26609Y-41938D01*
X26609Y-41799D01*
X26609Y-41099D01*
X26556Y-40971D01*
X26458Y-40872D01*
X26330Y-40819D01*
X26191Y-40819D01*
X25625Y-40819D01*
X25625Y-39415D01*
X25625Y-39286D01*
X25576Y-39166D01*
X25485Y-39075D01*
X25365Y-39025D01*
X25236Y-39025D01*
X25116Y-39074D01*
X25025Y-39165D01*
X24975Y-39285D01*
X24975Y-39392D01*
X24317Y-40050D01*
X21210Y-40050D01*
X21424Y-39962D01*
X21661Y-39726D01*
X21789Y-39418D01*
X21789Y-39084D01*
X21662Y-38776D01*
X21426Y-38539D01*
X21118Y-38411D01*
X20784Y-38411D01*
X20493Y-38530D01*
X20493Y-37329D01*
X20482Y-37116D01*
X20422Y-36969D01*
X20328Y-36942D01*
X20258Y-37012D01*
X20258Y-36872D01*
X20231Y-36778D01*
X20029Y-36707D01*
X19816Y-36718D01*
X19669Y-36778D01*
X19642Y-36872D01*
X19950Y-37179D01*
X20258Y-36872D01*
X20258Y-37012D01*
X20021Y-37250D01*
X20328Y-37558D01*
X20422Y-37531D01*
X20493Y-37329D01*
X20493Y-38530D01*
X20476Y-38538D01*
X20258Y-38755D01*
X20258Y-37628D01*
X19950Y-37321D01*
X19879Y-37391D01*
X19879Y-37250D01*
X19572Y-36942D01*
X19478Y-36969D01*
X19407Y-37171D01*
X19418Y-37384D01*
X19478Y-37531D01*
X19572Y-37558D01*
X19879Y-37250D01*
X19879Y-37391D01*
X19642Y-37628D01*
X19669Y-37722D01*
X19871Y-37793D01*
X20084Y-37782D01*
X20231Y-37722D01*
X20258Y-37628D01*
X20258Y-38755D01*
X20239Y-38774D01*
X20111Y-39082D01*
X20111Y-39416D01*
X20238Y-39724D01*
X20474Y-39961D01*
X20688Y-40050D01*
X20182Y-40050D01*
X19150Y-39017D01*
X19150Y-37653D01*
X19204Y-37631D01*
X19330Y-37505D01*
X19399Y-37340D01*
X19399Y-37161D01*
X19331Y-36996D01*
X19205Y-36870D01*
X19040Y-36801D01*
X18861Y-36801D01*
X18696Y-36869D01*
X18570Y-36995D01*
X18501Y-37160D01*
X18501Y-37339D01*
X18569Y-37504D01*
X18695Y-37630D01*
X18750Y-37653D01*
X18750Y-39100D01*
X18765Y-39177D01*
X18809Y-39241D01*
X19958Y-40391D01*
X19959Y-40391D01*
X20023Y-40435D01*
X20100Y-40450D01*
X24400Y-40450D01*
X24400Y-40449D01*
X24476Y-40435D01*
X24477Y-40435D01*
X24541Y-40391D01*
X25257Y-39675D01*
X25364Y-39675D01*
X25484Y-39626D01*
X25575Y-39535D01*
X25625Y-39415D01*
X25625Y-40819D01*
X25491Y-40819D01*
X25363Y-40872D01*
X25264Y-40970D01*
X25211Y-41098D01*
X25211Y-41237D01*
X25211Y-41937D01*
X25264Y-42065D01*
X25362Y-42164D01*
X25490Y-42217D01*
X25629Y-42217D01*
X26329Y-42217D01*
X26457Y-42164D01*
X26556Y-42066D01*
X26609Y-41938D01*
X26609Y-44525D01*
X26409Y-44525D01*
X26409Y-44061D01*
X26409Y-44002D01*
X26409Y-43302D01*
X26386Y-43247D01*
X26344Y-43205D01*
X26289Y-43183D01*
X26230Y-43183D01*
X25530Y-43183D01*
X25475Y-43206D01*
X25433Y-43248D01*
X25411Y-43303D01*
X25411Y-43362D01*
X25411Y-44062D01*
X25434Y-44117D01*
X25476Y-44159D01*
X25531Y-44181D01*
X25590Y-44181D01*
X26290Y-44181D01*
X26345Y-44158D01*
X26387Y-44116D01*
X26409Y-44061D01*
X26409Y-44525D01*
X24799Y-44525D01*
X24799Y-41842D01*
X24799Y-41548D01*
X24687Y-41276D01*
X24479Y-41068D01*
X24207Y-40954D01*
X23913Y-40954D01*
X23641Y-41066D01*
X23433Y-41274D01*
X23319Y-41546D01*
X23319Y-41840D01*
X23431Y-42112D01*
X23639Y-42320D01*
X23911Y-42434D01*
X24205Y-42434D01*
X24477Y-42322D01*
X24685Y-42114D01*
X24799Y-41842D01*
X24799Y-44525D01*
X17789Y-44525D01*
X17789Y-39418D01*
X17789Y-39084D01*
X17662Y-38776D01*
X17426Y-38539D01*
X17118Y-38411D01*
X16784Y-38411D01*
X16476Y-38538D01*
X16239Y-38774D01*
X16111Y-39082D01*
X16111Y-39416D01*
X16238Y-39724D01*
X16474Y-39961D01*
X16782Y-40089D01*
X17116Y-40089D01*
X17424Y-39962D01*
X17661Y-39726D01*
X17789Y-39418D01*
X17789Y-44525D01*
X09375Y-44525D01*
X09375Y-08475D01*
X14617Y-08475D01*
X14367Y-08725D01*
X14225Y-09065D01*
X14225Y-09433D01*
X14365Y-09773D01*
X14625Y-10033D01*
X14965Y-10175D01*
X15333Y-10175D01*
X15673Y-10035D01*
X15933Y-09775D01*
X16075Y-09435D01*
X16075Y-09067D01*
X15935Y-08727D01*
X15683Y-08475D01*
X44117Y-08475D01*
X43867Y-08725D01*
X43725Y-09065D01*
X43725Y-09433D01*
X43865Y-09773D01*
X44125Y-10033D01*
X44465Y-10175D01*
X44833Y-10175D01*
X45173Y-10035D01*
X45433Y-09775D01*
X45575Y-09435D01*
X45575Y-09067D01*
X45435Y-08727D01*
X45183Y-08475D01*
X48925Y-08475D01*
X48925Y-44525D01*
M02*
