G04 (created by PCBNEW (2013-07-07 BZR 4022)-stable) date 28/05/2014 12:36:17 AM*
%MOIN*%
G04 Gerber Fmt 3.4, Leading zero omitted, Abs format*
%FSLAX34Y34*%
G01*
G70*
G90*
G04 APERTURE LIST*
%ADD10C,0.00590551*%
%ADD11R,0.06X0.08*%
%ADD12R,0.08X0.06*%
%ADD13R,0.0629X0.0709*%
%ADD14R,0.02X0.045*%
%ADD15R,0.0315X0.0394*%
%ADD16R,0.0394X0.0315*%
%ADD17R,0.02X0.05*%
G04 APERTURE END LIST*
G54D10*
G54D11*
X40752Y-24085D03*
X42052Y-24085D03*
X40752Y-22885D03*
X42052Y-22885D03*
X40850Y-20225D03*
X42150Y-20225D03*
X40850Y-21375D03*
X42150Y-21375D03*
G54D12*
X24200Y-11500D03*
X24200Y-12800D03*
G54D11*
X25050Y-23650D03*
X23750Y-23650D03*
X23750Y-22650D03*
X25050Y-22650D03*
G54D12*
X25200Y-11500D03*
X25200Y-12800D03*
G54D11*
X23750Y-25650D03*
X25050Y-25650D03*
X23750Y-24650D03*
X25050Y-24650D03*
G54D12*
X26200Y-11500D03*
X26200Y-12800D03*
G54D11*
X23750Y-20400D03*
X25050Y-20400D03*
X30150Y-17050D03*
X31450Y-17050D03*
X23750Y-18400D03*
X25050Y-18400D03*
G54D12*
X22200Y-11500D03*
X22200Y-12800D03*
G54D11*
X23750Y-16150D03*
X25050Y-16150D03*
G54D12*
X17975Y-29475D03*
X17975Y-30775D03*
G54D13*
X32316Y-17050D03*
X33434Y-17050D03*
G54D11*
X17050Y-27150D03*
X18350Y-27150D03*
G54D13*
X32316Y-15950D03*
X33434Y-15950D03*
G54D11*
X30150Y-15950D03*
X31450Y-15950D03*
G54D14*
X26150Y-21000D03*
X26650Y-21000D03*
X27150Y-21000D03*
X27650Y-21000D03*
X28150Y-21000D03*
X28650Y-21000D03*
X29150Y-21000D03*
X29150Y-18900D03*
X28650Y-18900D03*
X28150Y-18900D03*
X27650Y-18900D03*
X27150Y-18900D03*
X26650Y-18900D03*
X26150Y-18900D03*
G54D12*
X19650Y-14150D03*
X19650Y-15150D03*
X19650Y-16150D03*
X19650Y-17150D03*
X22650Y-17150D03*
X22650Y-16150D03*
X22650Y-15150D03*
X22650Y-14150D03*
X19650Y-18400D03*
X19650Y-19400D03*
X19650Y-20400D03*
X19650Y-21400D03*
X22650Y-21400D03*
X22650Y-20400D03*
X22650Y-19400D03*
X22650Y-18400D03*
X19650Y-22650D03*
X19650Y-23650D03*
X19650Y-24650D03*
X19650Y-25650D03*
X22650Y-25650D03*
X22650Y-24650D03*
X22650Y-23650D03*
X22650Y-22650D03*
X23200Y-11500D03*
X23200Y-12800D03*
G54D11*
X28930Y-17725D03*
X27630Y-17725D03*
X27630Y-16680D03*
X28930Y-16680D03*
X25050Y-21400D03*
X23750Y-21400D03*
G54D12*
X21200Y-11500D03*
X21200Y-12800D03*
G54D11*
X23750Y-14150D03*
X25050Y-14150D03*
G54D12*
X19950Y-28550D03*
X19950Y-27250D03*
G54D11*
X27215Y-22920D03*
X25915Y-22920D03*
G54D12*
X26580Y-18110D03*
X26580Y-16810D03*
G54D11*
X44862Y-18897D03*
X43562Y-18897D03*
X41397Y-18897D03*
X42697Y-18897D03*
G54D12*
X40450Y-18925D03*
X40450Y-17625D03*
G54D14*
X41846Y-17792D03*
X42346Y-17792D03*
X42846Y-17792D03*
X43346Y-17792D03*
X43846Y-17792D03*
X44346Y-17792D03*
X44846Y-17792D03*
X44846Y-15692D03*
X44346Y-15692D03*
X43846Y-15692D03*
X43346Y-15692D03*
X42846Y-15692D03*
X42346Y-15692D03*
X41846Y-15692D03*
X30125Y-20975D03*
X30625Y-20975D03*
X31125Y-20975D03*
X31625Y-20975D03*
X32125Y-20975D03*
X32625Y-20975D03*
X33125Y-20975D03*
X33125Y-18875D03*
X32625Y-18875D03*
X32125Y-18875D03*
X31625Y-18875D03*
X31125Y-18875D03*
X30625Y-18875D03*
X30125Y-18875D03*
G54D11*
X35775Y-10625D03*
X34475Y-10625D03*
G54D15*
X43630Y-23127D03*
X44005Y-23993D03*
X43255Y-23993D03*
X44370Y-20457D03*
X44745Y-21323D03*
X43995Y-21323D03*
G54D16*
X38903Y-16275D03*
X38037Y-16650D03*
X38037Y-15900D03*
G54D12*
X48630Y-30205D03*
X48630Y-31505D03*
X42260Y-32770D03*
X42260Y-31470D03*
X42260Y-29290D03*
X42260Y-30590D03*
G54D17*
X47690Y-29260D03*
X47190Y-29260D03*
X46690Y-29260D03*
X46190Y-29260D03*
X45690Y-29260D03*
X45190Y-29260D03*
X44690Y-29260D03*
X44190Y-29260D03*
X43690Y-29260D03*
X43190Y-29260D03*
X43190Y-33060D03*
X43690Y-33060D03*
X44190Y-33060D03*
X44690Y-33060D03*
X45190Y-33060D03*
X45690Y-33060D03*
X46190Y-33060D03*
X46690Y-33060D03*
X47190Y-33060D03*
X47690Y-33060D03*
G54D11*
X40720Y-29070D03*
X39420Y-29070D03*
X26755Y-21875D03*
X28055Y-21875D03*
X28140Y-15630D03*
X26840Y-15630D03*
X30155Y-18050D03*
X31455Y-18050D03*
X40990Y-15780D03*
X39690Y-15780D03*
M02*
