G04 (created by PCBNEW (2013-07-07 BZR 4022)-stable) date 03/02/2014 5:41:12 PM*
%MOIN*%
G04 Gerber Fmt 3.4, Leading zero omitted, Abs format*
%FSLAX34Y34*%
G01*
G70*
G90*
G04 APERTURE LIST*
%ADD10C,0.00590551*%
%ADD11C,0.06*%
%ADD12O,0.06X0.1*%
%ADD13C,0.155*%
%ADD14R,0.06X0.08*%
%ADD15C,0.12*%
%ADD16R,0.06X0.06*%
%ADD17R,0.025X0.045*%
%ADD18R,0.08X0.06*%
%ADD19R,0.0629X0.0709*%
%ADD20C,0.1378*%
%ADD21R,0.07X0.07*%
%ADD22C,0.1181*%
%ADD23C,0.0944882*%
%ADD24C,0.0984252*%
%ADD25R,0.02X0.045*%
%ADD26C,0.11811*%
%ADD27R,0.1X0.1*%
%ADD28R,0.045X0.025*%
%ADD29R,0.0315X0.0394*%
%ADD30R,0.0394X0.0315*%
%ADD31C,0.035*%
%ADD32C,0.023622*%
%ADD33C,0.01*%
G04 APERTURE END LIST*
G54D10*
G54D11*
X35900Y-18900D03*
X34900Y-18900D03*
X34900Y-17900D03*
X35900Y-17900D03*
X35900Y-16900D03*
X34900Y-16900D03*
G54D12*
X17250Y-8900D03*
X18250Y-8900D03*
X20850Y-27900D03*
X21850Y-27900D03*
X36850Y-8900D03*
X37850Y-8900D03*
X38850Y-8900D03*
X39850Y-8900D03*
X40850Y-8900D03*
X41850Y-8900D03*
X42850Y-8900D03*
X43850Y-8900D03*
X45850Y-27900D03*
X44850Y-27900D03*
X43850Y-27900D03*
X42850Y-27900D03*
X38850Y-27900D03*
X36850Y-27900D03*
X35850Y-27900D03*
X39850Y-27900D03*
X40850Y-27900D03*
X41850Y-27900D03*
X34850Y-27900D03*
X33850Y-27900D03*
X32850Y-27900D03*
X29850Y-27900D03*
X30850Y-27900D03*
X31850Y-27900D03*
X27850Y-27900D03*
X26850Y-27900D03*
X25850Y-27900D03*
X23850Y-27900D03*
X22850Y-27900D03*
X34850Y-8900D03*
X33850Y-8900D03*
X32850Y-8900D03*
X31850Y-8900D03*
X30850Y-8900D03*
X29850Y-8900D03*
X28850Y-8900D03*
X27850Y-8900D03*
X26250Y-8900D03*
X25250Y-8900D03*
X24250Y-8900D03*
X23250Y-8900D03*
X22250Y-8900D03*
X21250Y-8900D03*
X20250Y-8900D03*
X19250Y-8900D03*
X24850Y-27900D03*
G54D13*
X47850Y-27900D03*
X45350Y-8900D03*
G54D11*
X46850Y-9900D03*
X47850Y-9900D03*
X46850Y-10900D03*
X47850Y-10900D03*
X46850Y-11900D03*
X47850Y-11900D03*
X46850Y-12900D03*
X47850Y-12900D03*
X46850Y-8900D03*
X47850Y-8900D03*
X47850Y-13900D03*
X46850Y-13900D03*
X46850Y-14900D03*
X47850Y-14900D03*
X46850Y-15900D03*
X47850Y-15900D03*
X46850Y-16900D03*
X47850Y-16900D03*
X46850Y-17900D03*
X47850Y-17900D03*
X46850Y-18900D03*
X47850Y-18900D03*
X46850Y-19900D03*
X47850Y-19900D03*
X46850Y-20900D03*
X47850Y-20900D03*
X46850Y-21900D03*
X47850Y-21900D03*
X46850Y-22900D03*
X47850Y-22900D03*
X46850Y-23900D03*
X47850Y-23900D03*
X46850Y-24900D03*
X47850Y-24900D03*
X46850Y-25900D03*
X47850Y-25900D03*
G54D14*
X40752Y-24085D03*
X42052Y-24085D03*
X40752Y-22885D03*
X42052Y-22885D03*
X40850Y-20225D03*
X42150Y-20225D03*
X40850Y-21375D03*
X42150Y-21375D03*
G54D15*
X31150Y-32350D03*
X39750Y-32350D03*
G54D16*
X37450Y-31650D03*
G54D11*
X37450Y-32650D03*
X36450Y-31650D03*
X36450Y-32650D03*
X35450Y-31650D03*
X35450Y-32650D03*
X34450Y-31650D03*
X34450Y-32650D03*
X33450Y-31650D03*
X33450Y-32650D03*
G54D17*
X27455Y-21614D03*
X28055Y-21614D03*
G54D18*
X24200Y-11500D03*
X24200Y-12800D03*
G54D14*
X25050Y-23650D03*
X23750Y-23650D03*
X23750Y-22650D03*
X25050Y-22650D03*
G54D18*
X25200Y-11500D03*
X25200Y-12800D03*
G54D14*
X23750Y-25650D03*
X25050Y-25650D03*
X23750Y-24650D03*
X25050Y-24650D03*
G54D18*
X26200Y-11500D03*
X26200Y-12800D03*
G54D14*
X23750Y-20400D03*
X25050Y-20400D03*
X30150Y-17050D03*
X31450Y-17050D03*
X23750Y-18400D03*
X25050Y-18400D03*
G54D18*
X22200Y-11500D03*
X22200Y-12800D03*
G54D14*
X23750Y-16150D03*
X25050Y-16150D03*
G54D18*
X17975Y-29475D03*
X17975Y-30775D03*
G54D19*
X32316Y-17050D03*
X33434Y-17050D03*
G54D14*
X17050Y-27150D03*
X18350Y-27150D03*
G54D17*
X28550Y-15700D03*
X27950Y-15700D03*
G54D20*
X12700Y-31600D03*
X12700Y-35600D03*
G54D11*
X14700Y-34600D03*
X14700Y-33600D03*
G54D20*
X12700Y-25200D03*
X12700Y-29200D03*
G54D11*
X14700Y-28200D03*
X14700Y-27200D03*
G54D19*
X32316Y-15950D03*
X33434Y-15950D03*
G54D21*
X28260Y-12318D03*
X29913Y-12318D03*
X31567Y-12318D03*
X33220Y-12318D03*
X34874Y-12318D03*
X36526Y-12318D03*
X38180Y-12318D03*
X39833Y-12318D03*
X41487Y-12318D03*
X43140Y-12318D03*
X28260Y-14482D03*
X29913Y-14482D03*
X31567Y-14482D03*
X33220Y-14482D03*
X34874Y-14482D03*
X36526Y-14482D03*
X38180Y-14482D03*
X39833Y-14482D03*
X41487Y-14482D03*
X43140Y-14482D03*
G54D22*
X26409Y-14306D03*
X44991Y-14306D03*
G54D23*
X18450Y-33800D03*
G54D24*
X17450Y-32800D03*
X19450Y-32800D03*
X19450Y-34800D03*
X17450Y-34800D03*
G54D14*
X30150Y-15950D03*
X31450Y-15950D03*
G54D25*
X26150Y-21000D03*
X26650Y-21000D03*
X27150Y-21000D03*
X27650Y-21000D03*
X28150Y-21000D03*
X28650Y-21000D03*
X29150Y-21000D03*
X29150Y-18900D03*
X28650Y-18900D03*
X28150Y-18900D03*
X27650Y-18900D03*
X27150Y-18900D03*
X26650Y-18900D03*
X26150Y-18900D03*
G54D18*
X19650Y-14150D03*
X19650Y-15150D03*
X19650Y-16150D03*
X19650Y-17150D03*
X22650Y-17150D03*
X22650Y-16150D03*
X22650Y-15150D03*
X22650Y-14150D03*
X19650Y-18400D03*
X19650Y-19400D03*
X19650Y-20400D03*
X19650Y-21400D03*
X22650Y-21400D03*
X22650Y-20400D03*
X22650Y-19400D03*
X22650Y-18400D03*
X19650Y-22650D03*
X19650Y-23650D03*
X19650Y-24650D03*
X19650Y-25650D03*
X22650Y-25650D03*
X22650Y-24650D03*
X22650Y-23650D03*
X22650Y-22650D03*
X23200Y-11500D03*
X23200Y-12800D03*
G54D14*
X28950Y-17520D03*
X27650Y-17520D03*
X27650Y-16475D03*
X28950Y-16475D03*
X25050Y-21400D03*
X23750Y-21400D03*
G54D18*
X21200Y-11500D03*
X21200Y-12800D03*
G54D14*
X23750Y-14150D03*
X25050Y-14150D03*
G54D18*
X19950Y-28550D03*
X19950Y-27250D03*
G54D14*
X27224Y-22637D03*
X25924Y-22637D03*
G54D18*
X26650Y-17800D03*
X26650Y-16500D03*
G54D14*
X44862Y-18897D03*
X43562Y-18897D03*
X41397Y-18897D03*
X42697Y-18897D03*
G54D18*
X40450Y-18925D03*
X40450Y-17625D03*
G54D25*
X41846Y-17792D03*
X42346Y-17792D03*
X42846Y-17792D03*
X43346Y-17792D03*
X43846Y-17792D03*
X44346Y-17792D03*
X44846Y-17792D03*
X44846Y-15692D03*
X44346Y-15692D03*
X43846Y-15692D03*
X43346Y-15692D03*
X42846Y-15692D03*
X42346Y-15692D03*
X41846Y-15692D03*
X30125Y-20975D03*
X30625Y-20975D03*
X31125Y-20975D03*
X31625Y-20975D03*
X32125Y-20975D03*
X32625Y-20975D03*
X33125Y-20975D03*
X33125Y-18875D03*
X32625Y-18875D03*
X32125Y-18875D03*
X31625Y-18875D03*
X31125Y-18875D03*
X30625Y-18875D03*
X30125Y-18875D03*
G54D26*
X22970Y-34856D03*
G54D27*
X22970Y-29818D03*
X24624Y-29818D03*
X26276Y-29818D03*
X27930Y-29818D03*
X22970Y-31982D03*
X24624Y-31982D03*
X26276Y-31982D03*
X27930Y-31982D03*
G54D26*
X27930Y-34856D03*
X11043Y-10320D03*
G54D27*
X16082Y-10320D03*
X16082Y-11974D03*
X16082Y-13626D03*
X16082Y-15280D03*
X13918Y-10320D03*
X13918Y-11974D03*
X13918Y-13626D03*
X13918Y-15280D03*
G54D26*
X11043Y-15280D03*
X11043Y-17820D03*
G54D27*
X16082Y-17820D03*
X16082Y-19474D03*
X16082Y-21126D03*
X16082Y-22780D03*
X13918Y-17820D03*
X13918Y-19474D03*
X13918Y-21126D03*
X13918Y-22780D03*
G54D26*
X11043Y-22780D03*
G54D14*
X35775Y-10625D03*
X34475Y-10625D03*
G54D17*
X30375Y-18175D03*
X30975Y-18175D03*
G54D28*
X40990Y-15700D03*
X40990Y-16300D03*
G54D29*
X43630Y-23127D03*
X44005Y-23993D03*
X43255Y-23993D03*
X44370Y-20457D03*
X44745Y-21323D03*
X43995Y-21323D03*
G54D30*
X40283Y-16780D03*
X39417Y-17155D03*
X39417Y-16405D03*
G54D16*
X29975Y-24800D03*
G54D11*
X29975Y-23800D03*
X29975Y-22800D03*
G54D16*
X38200Y-22400D03*
G54D11*
X38200Y-21400D03*
X38200Y-20400D03*
G54D16*
X31400Y-24800D03*
G54D11*
X31400Y-23800D03*
X31400Y-22800D03*
G54D16*
X39600Y-22400D03*
G54D11*
X39600Y-21400D03*
X39600Y-20400D03*
G54D16*
X36800Y-22400D03*
G54D11*
X36800Y-21400D03*
X36800Y-20400D03*
G54D16*
X36000Y-24500D03*
X37000Y-24500D03*
G54D31*
X17625Y-17850D03*
X17200Y-28625D03*
X39625Y-25625D03*
X38950Y-24975D03*
X31100Y-15150D03*
X31625Y-20600D03*
X31375Y-28450D03*
X36175Y-30275D03*
X36175Y-29100D03*
X30500Y-15650D03*
X40920Y-10850D03*
X28925Y-20325D03*
X29300Y-18350D03*
X39050Y-17900D03*
X39025Y-19125D03*
X41625Y-16275D03*
X41250Y-17975D03*
X25700Y-25670D03*
X25400Y-19400D03*
X27450Y-26100D03*
X30850Y-26200D03*
X30925Y-29075D03*
X18250Y-17150D03*
X16575Y-16475D03*
X45470Y-26780D03*
X33800Y-10300D03*
X31550Y-10250D03*
X35875Y-9475D03*
X30000Y-19850D03*
X28525Y-20050D03*
X33925Y-22025D03*
X34825Y-22075D03*
X33925Y-24300D03*
X33850Y-18025D03*
X33700Y-20975D03*
X33700Y-19025D03*
X28375Y-16475D03*
X27375Y-18425D03*
X27975Y-22175D03*
X27825Y-19650D03*
X38680Y-16110D03*
X40500Y-16110D03*
X44860Y-19730D03*
X44680Y-17270D03*
X26350Y-27170D03*
X25790Y-24660D03*
X20500Y-22650D03*
X25200Y-13450D03*
X20500Y-24650D03*
X25700Y-13550D03*
X20400Y-20350D03*
X24200Y-13450D03*
X24650Y-17150D03*
X25450Y-17100D03*
X24400Y-23700D03*
X25800Y-23700D03*
X42100Y-18925D03*
X36400Y-20925D03*
X29500Y-21025D03*
X29300Y-19425D03*
X39400Y-15575D03*
X38800Y-19850D03*
X43975Y-24650D03*
X39625Y-24200D03*
X43675Y-19875D03*
X43307Y-15196D03*
X43960Y-22670D03*
X44000Y-17060D03*
X39225Y-23775D03*
X43152Y-21360D03*
X41850Y-17190D03*
X43150Y-22530D03*
X41525Y-19950D03*
X39825Y-19500D03*
X29600Y-18000D03*
X29650Y-20225D03*
G54D32*
X17625Y-17850D02*
X17875Y-18100D01*
X17875Y-18100D02*
X17875Y-26225D01*
X17875Y-26225D02*
X17700Y-26400D01*
X17700Y-26400D02*
X17700Y-28125D01*
X17700Y-28125D02*
X17200Y-28625D01*
X38031Y-27204D02*
X38031Y-29368D01*
X35950Y-29600D02*
X29305Y-29600D01*
X29305Y-29600D02*
X28730Y-29025D01*
X28730Y-29025D02*
X27069Y-29025D01*
X26276Y-29818D02*
X27069Y-29025D01*
X38031Y-27204D02*
X39618Y-25618D01*
X37800Y-29600D02*
X35950Y-29600D01*
X38031Y-29368D02*
X37800Y-29600D01*
X36800Y-22400D02*
X36800Y-22825D01*
X39625Y-25625D02*
X39618Y-25618D01*
X16082Y-21126D02*
X15761Y-21126D01*
X15075Y-14633D02*
X16082Y-13626D01*
X15075Y-20440D02*
X15075Y-14633D01*
X15761Y-21126D02*
X15075Y-20440D01*
X43255Y-23993D02*
X43255Y-24195D01*
X42520Y-24930D02*
X40306Y-24930D01*
X43255Y-24195D02*
X42520Y-24930D01*
X43995Y-21323D02*
X43995Y-21403D01*
X43321Y-22076D02*
X41420Y-22076D01*
X43995Y-21403D02*
X43321Y-22076D01*
X40133Y-25103D02*
X40130Y-25100D01*
X41420Y-22076D02*
X41420Y-23417D01*
X41420Y-23417D02*
X40752Y-24085D01*
X41106Y-22076D02*
X41420Y-22076D01*
X40752Y-21722D02*
X40752Y-21372D01*
X40752Y-21722D02*
X41106Y-22076D01*
X40752Y-24085D02*
X40752Y-24432D01*
X40752Y-24483D02*
X40752Y-24085D01*
X39618Y-25618D02*
X40133Y-25103D01*
X40133Y-25103D02*
X40306Y-24930D01*
X40306Y-24930D02*
X40752Y-24483D01*
X36800Y-22825D02*
X37775Y-23800D01*
X31400Y-23800D02*
X37775Y-23800D01*
X37775Y-23800D02*
X38950Y-24975D01*
X28260Y-14560D02*
X28850Y-15150D01*
X28850Y-15150D02*
X31100Y-15150D01*
X28260Y-14560D02*
X28260Y-14482D01*
X28260Y-12318D02*
X28260Y-14482D01*
G54D33*
X31375Y-28450D02*
X31250Y-28575D01*
X23850Y-27900D02*
X24525Y-28575D01*
X24525Y-28575D02*
X31250Y-28575D01*
X31625Y-20975D02*
X31625Y-20600D01*
G54D32*
X30000Y-23800D02*
X30575Y-23800D01*
X30725Y-25175D02*
X30950Y-25400D01*
X30725Y-23950D02*
X30725Y-25175D01*
X30575Y-23800D02*
X30725Y-23950D01*
X38650Y-25400D02*
X38912Y-25662D01*
X30950Y-25400D02*
X38650Y-25400D01*
X37519Y-27055D02*
X37519Y-28430D01*
X39637Y-24937D02*
X38912Y-25662D01*
X38912Y-25662D02*
X37519Y-27055D01*
X32362Y-30275D02*
X36175Y-30275D01*
X25406Y-30600D02*
X24624Y-29818D01*
X29025Y-30600D02*
X25406Y-30600D01*
X29350Y-30275D02*
X29025Y-30600D01*
X32362Y-30275D02*
X29350Y-30275D01*
X36850Y-29100D02*
X36175Y-29100D01*
X37519Y-28430D02*
X36850Y-29100D01*
X36800Y-20400D02*
X37075Y-20400D01*
X37525Y-22825D02*
X39637Y-24937D01*
X37525Y-20850D02*
X37525Y-22825D01*
X37075Y-20400D02*
X37525Y-20850D01*
X40100Y-23537D02*
X40752Y-22885D01*
X40100Y-24475D02*
X40100Y-23537D01*
X39637Y-24937D02*
X40100Y-24475D01*
X40752Y-20222D02*
X40427Y-20222D01*
X40427Y-20222D02*
X40250Y-20400D01*
X40250Y-20400D02*
X40250Y-22382D01*
X40250Y-22382D02*
X40752Y-22885D01*
X16082Y-19474D02*
X16276Y-19474D01*
X24624Y-30026D02*
X23750Y-30900D01*
X23750Y-30900D02*
X22450Y-30900D01*
X13856Y-34906D02*
X14800Y-35850D01*
X19800Y-35850D02*
X14800Y-35850D01*
X21200Y-34450D02*
X19800Y-35850D01*
X21200Y-32150D02*
X21200Y-34450D01*
X22450Y-30900D02*
X21200Y-32150D01*
X24624Y-29818D02*
X24624Y-30026D01*
X16276Y-19474D02*
X17312Y-20510D01*
X17312Y-20510D02*
X17312Y-23525D01*
X17312Y-23525D02*
X13860Y-26977D01*
X13860Y-26977D02*
X13860Y-34902D01*
X13860Y-34902D02*
X13856Y-34906D01*
X16082Y-11974D02*
X16744Y-11974D01*
X17070Y-18486D02*
X16082Y-19474D01*
X17070Y-12300D02*
X17070Y-18486D01*
X16744Y-11974D02*
X17070Y-12300D01*
X40752Y-20222D02*
X40902Y-20222D01*
X30150Y-15950D02*
X30200Y-15950D01*
X30200Y-15950D02*
X30500Y-15650D01*
X30150Y-15950D02*
X30150Y-15925D01*
X36526Y-12318D02*
X36526Y-12074D01*
X43950Y-13672D02*
X43140Y-14482D01*
X43950Y-11650D02*
X43950Y-13672D01*
X43925Y-11625D02*
X43950Y-11650D01*
X36975Y-11625D02*
X43925Y-11625D01*
X36526Y-12074D02*
X36975Y-11625D01*
X43140Y-14482D02*
X41487Y-14482D01*
X33220Y-12318D02*
X33220Y-12130D01*
X35858Y-11650D02*
X36526Y-12318D01*
X33700Y-11650D02*
X35858Y-11650D01*
X33220Y-12130D02*
X33700Y-11650D01*
G54D33*
X35775Y-10625D02*
X40695Y-10625D01*
X40695Y-10625D02*
X40920Y-10850D01*
X30000Y-24800D02*
X27375Y-24800D01*
X27375Y-24800D02*
X24850Y-27325D01*
X30125Y-18875D02*
X29825Y-18875D01*
X29825Y-18875D02*
X29300Y-18350D01*
X40450Y-18925D02*
X39225Y-18925D01*
X30400Y-17775D02*
X30375Y-17750D01*
X32925Y-17775D02*
X30400Y-17775D01*
X34650Y-19500D02*
X32925Y-17775D01*
X36342Y-19500D02*
X34650Y-19500D01*
X36392Y-19449D02*
X36342Y-19500D01*
X37500Y-19449D02*
X36392Y-19449D01*
X39050Y-17900D02*
X37500Y-19449D01*
X39225Y-18925D02*
X39025Y-19125D01*
X28975Y-20575D02*
X28975Y-20375D01*
X28975Y-20375D02*
X28925Y-20325D01*
X27650Y-21000D02*
X27650Y-20875D01*
X29725Y-20575D02*
X30125Y-20975D01*
X27950Y-20575D02*
X28975Y-20575D01*
X28975Y-20575D02*
X29725Y-20575D01*
X27650Y-20875D02*
X27950Y-20575D01*
X30375Y-18175D02*
X30375Y-17750D01*
X30375Y-17750D02*
X30375Y-17275D01*
X30375Y-17275D02*
X30150Y-17050D01*
X41397Y-18897D02*
X41397Y-18122D01*
X41846Y-16053D02*
X41846Y-15692D01*
X41625Y-16275D02*
X41846Y-16053D01*
X41397Y-18122D02*
X41250Y-17975D01*
X41397Y-18897D02*
X40477Y-18897D01*
X40477Y-18897D02*
X40450Y-18925D01*
X24850Y-27325D02*
X24850Y-27900D01*
X30125Y-18875D02*
X30125Y-18425D01*
X30125Y-18425D02*
X30375Y-18175D01*
X40988Y-15692D02*
X41846Y-15692D01*
X40985Y-15695D02*
X40988Y-15692D01*
X27455Y-21614D02*
X27455Y-21665D01*
X25050Y-25650D02*
X25680Y-25650D01*
X25680Y-25650D02*
X25700Y-25670D01*
X27455Y-21614D02*
X27455Y-21194D01*
X27455Y-21194D02*
X27650Y-21000D01*
X26200Y-11500D02*
X29425Y-11500D01*
X30850Y-10075D02*
X30850Y-8900D01*
X29425Y-11500D02*
X30850Y-10075D01*
X25200Y-11500D02*
X25200Y-11450D01*
X29850Y-10325D02*
X29850Y-8900D01*
X29200Y-10975D02*
X29850Y-10325D01*
X25675Y-10975D02*
X29200Y-10975D01*
X25200Y-11450D02*
X25675Y-10975D01*
X24200Y-11500D02*
X24200Y-11300D01*
X28850Y-10050D02*
X28850Y-8900D01*
X28125Y-10774D02*
X28850Y-10050D01*
X24725Y-10774D02*
X28125Y-10774D01*
X24200Y-11300D02*
X24725Y-10774D01*
X23200Y-11500D02*
X23200Y-11300D01*
X27850Y-9875D02*
X27850Y-8900D01*
X27175Y-10550D02*
X27850Y-9875D01*
X23950Y-10550D02*
X27175Y-10550D01*
X23200Y-11300D02*
X23950Y-10550D01*
X22200Y-11500D02*
X22200Y-11325D01*
X26250Y-9750D02*
X26250Y-8900D01*
X25650Y-10349D02*
X26250Y-9750D01*
X23175Y-10349D02*
X25650Y-10349D01*
X22200Y-11325D02*
X23175Y-10349D01*
X21200Y-11500D02*
X21200Y-11325D01*
X25250Y-9475D02*
X25250Y-8900D01*
X24600Y-10125D02*
X25250Y-9475D01*
X22400Y-10125D02*
X24600Y-10125D01*
X21200Y-11325D02*
X22400Y-10125D01*
X25400Y-19400D02*
X25050Y-19400D01*
X25050Y-16150D02*
X26300Y-16150D01*
X26300Y-16150D02*
X26650Y-16500D01*
X25050Y-16150D02*
X25050Y-18400D01*
X25050Y-14150D02*
X25050Y-16150D01*
X25050Y-20400D02*
X25050Y-21400D01*
X25050Y-18400D02*
X25050Y-19400D01*
X25050Y-19400D02*
X25050Y-20400D01*
X26150Y-18900D02*
X25550Y-18900D01*
X25550Y-18900D02*
X25050Y-18400D01*
X27450Y-26100D02*
X28125Y-26100D01*
X30850Y-25850D02*
X30850Y-26200D01*
X30314Y-25314D02*
X30850Y-25850D01*
X28910Y-25314D02*
X30314Y-25314D01*
X28125Y-26100D02*
X28910Y-25314D01*
X19650Y-17150D02*
X18250Y-17150D01*
X31567Y-12318D02*
X31567Y-10267D01*
X31567Y-10267D02*
X31550Y-10250D01*
X30000Y-19850D02*
X28725Y-19850D01*
X31125Y-19075D02*
X30350Y-19850D01*
X30350Y-19850D02*
X30000Y-19850D01*
X31125Y-18875D02*
X31125Y-19075D01*
X28725Y-19850D02*
X28525Y-20050D01*
X33925Y-22025D02*
X34775Y-22025D01*
X34775Y-22025D02*
X34825Y-22075D01*
X33434Y-17609D02*
X33434Y-17050D01*
X33850Y-18025D02*
X33434Y-17609D01*
X33125Y-20975D02*
X33700Y-20975D01*
X33550Y-18875D02*
X33125Y-18875D01*
X33700Y-19025D02*
X33550Y-18875D01*
X28950Y-16475D02*
X28375Y-16475D01*
X27650Y-18900D02*
X27650Y-18700D01*
X27650Y-18700D02*
X27375Y-18425D01*
X33125Y-18875D02*
X33125Y-19000D01*
X33125Y-19000D02*
X32850Y-19275D01*
X32850Y-19275D02*
X31950Y-19275D01*
X31950Y-19275D02*
X31625Y-18950D01*
X31625Y-18950D02*
X31625Y-18875D01*
X31625Y-18875D02*
X31125Y-18875D01*
X32625Y-20975D02*
X33125Y-20975D01*
X27650Y-18900D02*
X27650Y-19475D01*
X28055Y-22094D02*
X28055Y-21614D01*
X27975Y-22175D02*
X28055Y-22094D01*
X27650Y-19475D02*
X27825Y-19650D01*
X31125Y-18875D02*
X31125Y-18325D01*
X31125Y-18325D02*
X30975Y-18175D01*
X28950Y-16475D02*
X28950Y-16100D01*
X28950Y-16100D02*
X28550Y-15700D01*
X39417Y-17155D02*
X39417Y-17107D01*
X38680Y-16370D02*
X38680Y-16110D01*
X39417Y-17107D02*
X38680Y-16370D01*
X40990Y-16300D02*
X40690Y-16300D01*
X40690Y-16300D02*
X40500Y-16110D01*
X44862Y-18897D02*
X44862Y-19727D01*
X44862Y-19727D02*
X44860Y-19730D01*
X44846Y-17792D02*
X44846Y-17446D01*
X44680Y-17280D02*
X44680Y-17270D01*
X44846Y-17446D02*
X44680Y-17280D01*
X25050Y-24650D02*
X25780Y-24650D01*
X29070Y-27120D02*
X29850Y-27900D01*
X26400Y-27120D02*
X29070Y-27120D01*
X26350Y-27170D02*
X26400Y-27120D01*
X25780Y-24650D02*
X25790Y-24660D01*
X25050Y-24650D02*
X25050Y-23650D01*
X25050Y-22650D02*
X25912Y-22650D01*
X26150Y-22412D02*
X26150Y-21000D01*
X25912Y-22650D02*
X26150Y-22412D01*
X25050Y-22650D02*
X25050Y-23650D01*
X28150Y-21000D02*
X28150Y-21100D01*
X27775Y-22875D02*
X27775Y-24105D01*
X28450Y-22200D02*
X27775Y-22875D01*
X28450Y-21400D02*
X28450Y-22200D01*
X28150Y-21100D02*
X28450Y-21400D01*
X28150Y-21000D02*
X28150Y-21080D01*
X23900Y-25650D02*
X24550Y-26300D01*
X23900Y-25650D02*
X23750Y-25650D01*
X25580Y-26300D02*
X27775Y-24105D01*
X24550Y-26300D02*
X25580Y-26300D01*
X23750Y-25650D02*
X23750Y-25730D01*
X21850Y-27630D02*
X21850Y-27900D01*
X23750Y-25730D02*
X21850Y-27630D01*
X19950Y-28550D02*
X18900Y-28550D01*
X18900Y-28550D02*
X17975Y-29475D01*
X22650Y-18400D02*
X23750Y-18400D01*
X25200Y-12800D02*
X25200Y-13450D01*
X20500Y-22650D02*
X19650Y-22650D01*
X26200Y-12800D02*
X26200Y-13050D01*
X20500Y-24650D02*
X19650Y-24650D01*
X26200Y-13050D02*
X25700Y-13550D01*
X22650Y-24650D02*
X23750Y-24650D01*
X22650Y-22650D02*
X23750Y-22650D01*
X31450Y-17050D02*
X32316Y-17050D01*
X22650Y-20400D02*
X23750Y-20400D01*
X31450Y-15950D02*
X32316Y-15950D01*
X24200Y-12800D02*
X24200Y-13450D01*
X20350Y-20400D02*
X19650Y-20400D01*
X20400Y-20350D02*
X20350Y-20400D01*
X23200Y-12800D02*
X23200Y-12950D01*
X20600Y-17450D02*
X19650Y-18400D01*
X20600Y-14750D02*
X20600Y-17450D01*
X22000Y-13350D02*
X20600Y-14750D01*
X22800Y-13350D02*
X22000Y-13350D01*
X23200Y-12950D02*
X22800Y-13350D01*
X28150Y-18900D02*
X28150Y-18625D01*
X27650Y-18125D02*
X27650Y-17520D01*
X28150Y-18625D02*
X27650Y-18125D01*
X27650Y-16475D02*
X27650Y-16000D01*
X27650Y-16000D02*
X27950Y-15700D01*
X27650Y-17520D02*
X27650Y-16475D01*
X26650Y-17800D02*
X26150Y-17800D01*
X25450Y-17100D02*
X26150Y-17800D01*
X26650Y-17800D02*
X26650Y-18900D01*
X18350Y-27150D02*
X18650Y-27150D01*
X21500Y-22550D02*
X22650Y-21400D01*
X21500Y-25000D02*
X21500Y-22550D01*
X20250Y-26250D02*
X21500Y-25000D01*
X19550Y-26250D02*
X20250Y-26250D01*
X18650Y-27150D02*
X19550Y-26250D01*
X22650Y-19400D02*
X22250Y-19400D01*
X21850Y-20600D02*
X22650Y-21400D01*
X21850Y-19800D02*
X21850Y-20600D01*
X22250Y-19400D02*
X21850Y-19800D01*
X22650Y-21400D02*
X23750Y-21400D01*
X22650Y-19400D02*
X24100Y-19400D01*
X24100Y-19400D02*
X24400Y-19100D01*
X24400Y-19100D02*
X24400Y-17400D01*
X24400Y-17400D02*
X24650Y-17150D01*
X22650Y-15150D02*
X24150Y-15150D01*
X24150Y-15150D02*
X24400Y-15400D01*
X24400Y-15400D02*
X24400Y-16900D01*
X24400Y-16900D02*
X24650Y-17150D01*
X22650Y-17150D02*
X24650Y-17150D01*
X22650Y-25650D02*
X22250Y-25650D01*
X22250Y-25650D02*
X21950Y-25350D01*
X26650Y-22677D02*
X27185Y-22677D01*
X27185Y-22677D02*
X27224Y-22637D01*
X19950Y-27250D02*
X20050Y-27250D01*
X21950Y-24350D02*
X22650Y-23650D01*
X21950Y-25350D02*
X21950Y-24350D01*
X20050Y-27250D02*
X21950Y-25350D01*
X22650Y-23700D02*
X22650Y-23650D01*
X26650Y-21000D02*
X26650Y-22677D01*
X26650Y-22677D02*
X26650Y-22850D01*
X24350Y-23650D02*
X23750Y-23650D01*
X24400Y-23700D02*
X24350Y-23650D01*
X26650Y-22850D02*
X25800Y-23700D01*
X22650Y-23650D02*
X23750Y-23650D01*
X22200Y-12800D02*
X22200Y-12850D01*
X20300Y-15500D02*
X19650Y-16150D01*
X20300Y-14450D02*
X20300Y-15500D01*
X21400Y-13350D02*
X20300Y-14450D01*
X21700Y-13350D02*
X21400Y-13350D01*
X22200Y-12850D02*
X21700Y-13350D01*
X21200Y-12800D02*
X21000Y-12800D01*
X21000Y-12800D02*
X19650Y-14150D01*
X22650Y-16150D02*
X23750Y-16150D01*
X22650Y-14150D02*
X23750Y-14150D01*
X14700Y-27200D02*
X17000Y-27200D01*
X17000Y-27200D02*
X17050Y-27150D01*
X34875Y-21625D02*
X35700Y-21625D01*
X28650Y-21150D02*
X29125Y-21625D01*
X29125Y-21625D02*
X34875Y-21625D01*
X28650Y-21000D02*
X28650Y-21150D01*
X42127Y-18897D02*
X42697Y-18897D01*
X42100Y-18925D02*
X42127Y-18897D01*
X35700Y-21625D02*
X36400Y-20925D01*
X42697Y-18897D02*
X43562Y-18897D01*
X40450Y-17625D02*
X39850Y-17625D01*
X32125Y-20750D02*
X32125Y-20975D01*
X32300Y-20575D02*
X32125Y-20750D01*
X35550Y-20575D02*
X32300Y-20575D01*
X36475Y-19649D02*
X35550Y-20575D01*
X37825Y-19649D02*
X36475Y-19649D01*
X39850Y-17625D02*
X37825Y-19649D01*
X40283Y-16780D02*
X40283Y-17458D01*
X40283Y-17458D02*
X40450Y-17625D01*
X40283Y-16780D02*
X41695Y-16780D01*
X41695Y-16780D02*
X42485Y-15989D01*
X42346Y-15692D02*
X42346Y-15850D01*
X44346Y-16787D02*
X44346Y-17792D01*
X43937Y-16377D02*
X44346Y-16787D01*
X42874Y-16377D02*
X43937Y-16377D01*
X42346Y-15850D02*
X42485Y-15989D01*
X42485Y-15989D02*
X42874Y-16377D01*
X29475Y-21000D02*
X29500Y-21025D01*
X30625Y-19075D02*
X30325Y-19375D01*
X30325Y-19375D02*
X29750Y-19375D01*
X30625Y-19075D02*
X30625Y-18875D01*
X29350Y-19375D02*
X29750Y-19375D01*
X29300Y-19425D02*
X29350Y-19375D01*
X29150Y-21000D02*
X29475Y-21000D01*
X39596Y-15771D02*
X39696Y-15771D01*
X39400Y-15575D02*
X39596Y-15771D01*
X36575Y-19850D02*
X38800Y-19850D01*
X35025Y-21400D02*
X36575Y-19850D01*
X29875Y-21400D02*
X35025Y-21400D01*
X29475Y-21000D02*
X29875Y-21400D01*
X39421Y-16047D02*
X39421Y-16400D01*
X39421Y-16400D02*
X39417Y-16405D01*
X43846Y-17792D02*
X43846Y-17862D01*
X42846Y-15917D02*
X42846Y-15692D01*
X43070Y-16141D02*
X42846Y-15917D01*
X44015Y-16141D02*
X43070Y-16141D01*
X45157Y-17283D02*
X44015Y-16141D01*
X45157Y-18110D02*
X45157Y-17283D01*
X45078Y-18188D02*
X45157Y-18110D01*
X44173Y-18188D02*
X45078Y-18188D01*
X43846Y-17862D02*
X44173Y-18188D01*
X42846Y-15562D02*
X42846Y-15692D01*
X42559Y-15275D02*
X42846Y-15562D01*
X40193Y-15275D02*
X42559Y-15275D01*
X39421Y-16047D02*
X39696Y-15771D01*
X39696Y-15771D02*
X40193Y-15275D01*
X32850Y-10800D02*
X34300Y-10800D01*
X34300Y-10800D02*
X34475Y-10625D01*
X32850Y-8900D02*
X32850Y-9930D01*
X32850Y-9930D02*
X32850Y-10800D01*
X32850Y-10800D02*
X32850Y-10900D01*
X32850Y-10900D02*
X32850Y-11250D01*
X32450Y-13712D02*
X33220Y-14482D01*
X32450Y-11650D02*
X32450Y-13712D01*
X32850Y-11250D02*
X32450Y-11650D01*
X43846Y-15692D02*
X43846Y-14303D01*
X44488Y-9538D02*
X43850Y-8900D01*
X44488Y-13661D02*
X44488Y-9538D01*
X43846Y-14303D02*
X44488Y-13661D01*
X43846Y-15692D02*
X44346Y-15692D01*
X39600Y-22400D02*
X39600Y-24175D01*
X44005Y-24620D02*
X44005Y-23993D01*
X43975Y-24650D02*
X44005Y-24620D01*
X39600Y-24175D02*
X39625Y-24200D01*
X44005Y-23993D02*
X44005Y-23905D01*
X42597Y-23540D02*
X42052Y-24085D01*
X43640Y-23540D02*
X42597Y-23540D01*
X44005Y-23905D02*
X43640Y-23540D01*
X45433Y-22564D02*
X45433Y-17244D01*
X44005Y-23993D02*
X45433Y-22564D01*
X44846Y-16657D02*
X45433Y-17244D01*
X44846Y-16657D02*
X44846Y-15692D01*
X39600Y-20400D02*
X39600Y-20350D01*
X43400Y-19600D02*
X43675Y-19875D01*
X40350Y-19600D02*
X43400Y-19600D01*
X39600Y-20350D02*
X40350Y-19600D01*
X43630Y-23127D02*
X43630Y-23000D01*
X43630Y-23000D02*
X43960Y-22670D01*
X43630Y-23127D02*
X42690Y-23127D01*
X42690Y-23127D02*
X42294Y-23127D01*
X42294Y-23127D02*
X42052Y-22885D01*
X42294Y-23127D02*
X42052Y-22885D01*
X43960Y-22670D02*
X43960Y-22797D01*
X43307Y-15196D02*
X43346Y-15236D01*
X43346Y-15692D02*
X43346Y-15236D01*
X43630Y-23000D02*
X43630Y-23186D01*
X42353Y-23186D02*
X42052Y-22885D01*
X42252Y-23085D02*
X42052Y-22885D01*
X42846Y-17543D02*
X42846Y-17792D01*
X44000Y-17060D02*
X43990Y-17070D01*
X43990Y-17070D02*
X43320Y-17070D01*
X43320Y-17070D02*
X42846Y-17543D01*
X42846Y-17792D02*
X42346Y-17792D01*
X43152Y-21360D02*
X42165Y-21360D01*
X42165Y-21360D02*
X42150Y-21375D01*
X38200Y-22400D02*
X38200Y-22750D01*
X38200Y-22750D02*
X39225Y-23775D01*
X44745Y-21323D02*
X44745Y-21335D01*
X44745Y-21335D02*
X43550Y-22530D01*
X43550Y-22530D02*
X43600Y-22480D01*
X43140Y-21372D02*
X43152Y-21360D01*
X44656Y-21254D02*
X44656Y-21424D01*
X41846Y-17193D02*
X41850Y-17190D01*
X41846Y-17193D02*
X41846Y-17792D01*
X43550Y-22530D02*
X43150Y-22530D01*
X42150Y-20225D02*
X41800Y-20225D01*
X41800Y-20225D02*
X41525Y-19950D01*
X38200Y-20400D02*
X38725Y-20400D01*
X39625Y-19500D02*
X39825Y-19500D01*
X38725Y-20400D02*
X39625Y-19500D01*
X44054Y-20222D02*
X44135Y-20222D01*
X44135Y-20222D02*
X44370Y-20457D01*
X44054Y-18425D02*
X44054Y-20222D01*
X42052Y-20222D02*
X44054Y-20222D01*
X43346Y-17792D02*
X43346Y-17913D01*
X43937Y-18307D02*
X44054Y-18425D01*
X44054Y-18425D02*
X44055Y-18425D01*
X43740Y-18307D02*
X43937Y-18307D01*
X43346Y-17913D02*
X43740Y-18307D01*
X29650Y-20225D02*
X29725Y-20225D01*
X29120Y-17520D02*
X29600Y-18000D01*
X28950Y-17520D02*
X29120Y-17520D01*
X30625Y-20750D02*
X30625Y-20975D01*
X30450Y-20575D02*
X30625Y-20750D01*
X30075Y-20575D02*
X30450Y-20575D01*
X29725Y-20225D02*
X30075Y-20575D01*
X30625Y-20975D02*
X31125Y-20975D01*
X30625Y-20925D02*
X30625Y-20975D01*
X26775Y-20100D02*
X27950Y-20100D01*
X28650Y-19175D02*
X28650Y-18900D01*
X28650Y-19400D02*
X28650Y-19175D01*
X27950Y-20100D02*
X28650Y-19400D01*
X27150Y-18900D02*
X27150Y-19075D01*
X27150Y-19075D02*
X26775Y-19450D01*
X26775Y-19450D02*
X26775Y-19700D01*
X27150Y-20825D02*
X27150Y-21000D01*
X26775Y-20275D02*
X26775Y-20450D01*
X26775Y-19700D02*
X26775Y-20100D01*
X26775Y-20100D02*
X26775Y-20275D01*
X26775Y-20450D02*
X27150Y-20825D01*
X28650Y-18900D02*
X29150Y-18900D01*
X14700Y-33600D02*
X18250Y-33600D01*
X18250Y-33600D02*
X18450Y-33800D01*
X17975Y-30775D02*
X17975Y-31950D01*
X18450Y-32425D02*
X18450Y-33800D01*
X17975Y-31950D02*
X18450Y-32425D01*
G54D10*
G36*
X16701Y-17099D02*
X16631Y-17070D01*
X16532Y-17069D01*
X15532Y-17069D01*
X15443Y-17106D01*
X15443Y-15993D01*
X15532Y-16029D01*
X15631Y-16030D01*
X16631Y-16030D01*
X16701Y-16000D01*
X16701Y-17099D01*
X16701Y-17099D01*
G37*
G54D33*
X16701Y-17099D02*
X16631Y-17070D01*
X16532Y-17069D01*
X15532Y-17069D01*
X15443Y-17106D01*
X15443Y-15993D01*
X15532Y-16029D01*
X15631Y-16030D01*
X16631Y-16030D01*
X16701Y-16000D01*
X16701Y-17099D01*
G54D10*
G36*
X26698Y-28875D02*
X26505Y-29067D01*
X25726Y-29067D01*
X25634Y-29105D01*
X25564Y-29176D01*
X25526Y-29268D01*
X25525Y-29367D01*
X25525Y-30199D01*
X25374Y-30047D01*
X25374Y-29268D01*
X25336Y-29176D01*
X25265Y-29106D01*
X25173Y-29068D01*
X25074Y-29067D01*
X24074Y-29067D01*
X23982Y-29105D01*
X23912Y-29176D01*
X23874Y-29268D01*
X23873Y-29367D01*
X23873Y-30255D01*
X23690Y-30438D01*
X23719Y-30367D01*
X23720Y-30268D01*
X23720Y-29268D01*
X23682Y-29176D01*
X23611Y-29106D01*
X23519Y-29068D01*
X23420Y-29067D01*
X22420Y-29067D01*
X22328Y-29105D01*
X22258Y-29176D01*
X22220Y-29268D01*
X22219Y-29367D01*
X22219Y-30367D01*
X22257Y-30459D01*
X22328Y-30529D01*
X22371Y-30547D01*
X22309Y-30559D01*
X22189Y-30639D01*
X20939Y-31889D01*
X20859Y-32009D01*
X20831Y-32150D01*
X20831Y-34297D01*
X20192Y-34937D01*
X20195Y-34927D01*
X20195Y-32927D01*
X20187Y-32632D01*
X20090Y-32396D01*
X19974Y-32345D01*
X19904Y-32416D01*
X19904Y-32275D01*
X19853Y-32159D01*
X19577Y-32054D01*
X19282Y-32062D01*
X19046Y-32159D01*
X18995Y-32275D01*
X19450Y-32729D01*
X19904Y-32275D01*
X19904Y-32416D01*
X19520Y-32800D01*
X19974Y-33254D01*
X20090Y-33203D01*
X20195Y-32927D01*
X20195Y-34927D01*
X20187Y-34632D01*
X20090Y-34396D01*
X19974Y-34345D01*
X19520Y-34800D01*
X19526Y-34805D01*
X19455Y-34876D01*
X19450Y-34870D01*
X18995Y-35324D01*
X19046Y-35440D01*
X19155Y-35481D01*
X17752Y-35481D01*
X17853Y-35440D01*
X17904Y-35324D01*
X17450Y-34870D01*
X17379Y-34941D01*
X17379Y-34800D01*
X16925Y-34345D01*
X16809Y-34396D01*
X16704Y-34672D01*
X16712Y-34967D01*
X16809Y-35203D01*
X16925Y-35254D01*
X17379Y-34800D01*
X17379Y-34941D01*
X16995Y-35324D01*
X17046Y-35440D01*
X17155Y-35481D01*
X15254Y-35481D01*
X15254Y-34681D01*
X15243Y-34463D01*
X15181Y-34312D01*
X15085Y-34284D01*
X14770Y-34600D01*
X15085Y-34915D01*
X15181Y-34887D01*
X15254Y-34681D01*
X15254Y-35481D01*
X14952Y-35481D01*
X14625Y-35154D01*
X14836Y-35143D01*
X14987Y-35081D01*
X15015Y-34985D01*
X14700Y-34670D01*
X14694Y-34676D01*
X14623Y-34605D01*
X14629Y-34600D01*
X14314Y-34284D01*
X14228Y-34309D01*
X14228Y-33898D01*
X14233Y-33911D01*
X14388Y-34065D01*
X14463Y-34097D01*
X14412Y-34118D01*
X14384Y-34214D01*
X14700Y-34529D01*
X15015Y-34214D01*
X14987Y-34118D01*
X14932Y-34099D01*
X15011Y-34066D01*
X15165Y-33911D01*
X15170Y-33900D01*
X17727Y-33900D01*
X17727Y-33943D01*
X17810Y-34143D01*
X17577Y-34054D01*
X17282Y-34062D01*
X17046Y-34159D01*
X16995Y-34275D01*
X17450Y-34729D01*
X17455Y-34723D01*
X17526Y-34794D01*
X17520Y-34800D01*
X17974Y-35254D01*
X18090Y-35203D01*
X18195Y-34927D01*
X18187Y-34632D01*
X18108Y-34440D01*
X18305Y-34522D01*
X18593Y-34522D01*
X18793Y-34439D01*
X18704Y-34672D01*
X18712Y-34967D01*
X18809Y-35203D01*
X18925Y-35254D01*
X19379Y-34800D01*
X19373Y-34794D01*
X19444Y-34723D01*
X19450Y-34729D01*
X19904Y-34275D01*
X19853Y-34159D01*
X19577Y-34054D01*
X19282Y-34062D01*
X19090Y-34141D01*
X19172Y-33944D01*
X19172Y-33656D01*
X19089Y-33456D01*
X19322Y-33545D01*
X19617Y-33537D01*
X19853Y-33440D01*
X19904Y-33324D01*
X19450Y-32870D01*
X19444Y-32876D01*
X19373Y-32805D01*
X19379Y-32800D01*
X18925Y-32345D01*
X18809Y-32396D01*
X18750Y-32552D01*
X18750Y-32425D01*
X18727Y-32310D01*
X18662Y-32212D01*
X18662Y-32212D01*
X18275Y-31825D01*
X18275Y-31325D01*
X18424Y-31325D01*
X18516Y-31287D01*
X18586Y-31216D01*
X18624Y-31124D01*
X18625Y-31025D01*
X18625Y-30425D01*
X18587Y-30333D01*
X18516Y-30263D01*
X18424Y-30225D01*
X18325Y-30224D01*
X17525Y-30224D01*
X17433Y-30262D01*
X17363Y-30333D01*
X17325Y-30425D01*
X17324Y-30524D01*
X17324Y-31124D01*
X17362Y-31216D01*
X17433Y-31286D01*
X17525Y-31324D01*
X17624Y-31325D01*
X17675Y-31325D01*
X17675Y-31950D01*
X17697Y-32064D01*
X17729Y-32112D01*
X17577Y-32054D01*
X17282Y-32062D01*
X17046Y-32159D01*
X16995Y-32275D01*
X17450Y-32729D01*
X17455Y-32723D01*
X17526Y-32794D01*
X17520Y-32800D01*
X17526Y-32805D01*
X17455Y-32876D01*
X17450Y-32870D01*
X17444Y-32876D01*
X17379Y-32811D01*
X17373Y-32805D01*
X17379Y-32800D01*
X16925Y-32345D01*
X16809Y-32396D01*
X16704Y-32672D01*
X16712Y-32967D01*
X16809Y-33203D01*
X16925Y-33254D01*
X16880Y-33298D01*
X16881Y-33300D01*
X15254Y-33300D01*
X15254Y-28281D01*
X15243Y-28063D01*
X15181Y-27912D01*
X15085Y-27884D01*
X14770Y-28200D01*
X15085Y-28515D01*
X15181Y-28487D01*
X15254Y-28281D01*
X15254Y-33300D01*
X15171Y-33300D01*
X15166Y-33288D01*
X15015Y-33137D01*
X15015Y-28585D01*
X14700Y-28270D01*
X14384Y-28585D01*
X14412Y-28681D01*
X14618Y-28754D01*
X14836Y-28743D01*
X14987Y-28681D01*
X15015Y-28585D01*
X15015Y-33137D01*
X15011Y-33134D01*
X14809Y-33050D01*
X14591Y-33049D01*
X14388Y-33133D01*
X14234Y-33288D01*
X14228Y-33302D01*
X14228Y-28490D01*
X14314Y-28515D01*
X14629Y-28200D01*
X14314Y-27884D01*
X14228Y-27909D01*
X14228Y-27498D01*
X14233Y-27511D01*
X14388Y-27665D01*
X14463Y-27697D01*
X14412Y-27718D01*
X14384Y-27814D01*
X14700Y-28129D01*
X15015Y-27814D01*
X14987Y-27718D01*
X14932Y-27699D01*
X15011Y-27666D01*
X15165Y-27511D01*
X15170Y-27500D01*
X16499Y-27500D01*
X16499Y-27599D01*
X16537Y-27691D01*
X16608Y-27761D01*
X16700Y-27799D01*
X16799Y-27800D01*
X17331Y-27800D01*
X17331Y-27972D01*
X17096Y-28207D01*
X16959Y-28264D01*
X16839Y-28383D01*
X16775Y-28540D01*
X16774Y-28709D01*
X16839Y-28865D01*
X16958Y-28985D01*
X17115Y-29049D01*
X17284Y-29050D01*
X17390Y-29006D01*
X17363Y-29033D01*
X17325Y-29125D01*
X17324Y-29224D01*
X17324Y-29824D01*
X17362Y-29916D01*
X17433Y-29986D01*
X17525Y-30024D01*
X17624Y-30025D01*
X18424Y-30025D01*
X18516Y-29987D01*
X18586Y-29916D01*
X18624Y-29824D01*
X18625Y-29725D01*
X18625Y-29249D01*
X19024Y-28850D01*
X19299Y-28850D01*
X19299Y-28899D01*
X19337Y-28991D01*
X19408Y-29061D01*
X19500Y-29099D01*
X19599Y-29100D01*
X20399Y-29100D01*
X20491Y-29062D01*
X20561Y-28991D01*
X20599Y-28899D01*
X20600Y-28800D01*
X20600Y-28596D01*
X20639Y-28622D01*
X20850Y-28664D01*
X21060Y-28622D01*
X21238Y-28503D01*
X21350Y-28337D01*
X21461Y-28503D01*
X21639Y-28622D01*
X21850Y-28664D01*
X22060Y-28622D01*
X22238Y-28503D01*
X22350Y-28337D01*
X22461Y-28503D01*
X22639Y-28622D01*
X22850Y-28664D01*
X23060Y-28622D01*
X23238Y-28503D01*
X23350Y-28337D01*
X23461Y-28503D01*
X23639Y-28622D01*
X23850Y-28664D01*
X24060Y-28622D01*
X24113Y-28587D01*
X24312Y-28787D01*
X24410Y-28852D01*
X24525Y-28875D01*
X26698Y-28875D01*
X26698Y-28875D01*
G37*
G54D33*
X26698Y-28875D02*
X26505Y-29067D01*
X25726Y-29067D01*
X25634Y-29105D01*
X25564Y-29176D01*
X25526Y-29268D01*
X25525Y-29367D01*
X25525Y-30199D01*
X25374Y-30047D01*
X25374Y-29268D01*
X25336Y-29176D01*
X25265Y-29106D01*
X25173Y-29068D01*
X25074Y-29067D01*
X24074Y-29067D01*
X23982Y-29105D01*
X23912Y-29176D01*
X23874Y-29268D01*
X23873Y-29367D01*
X23873Y-30255D01*
X23690Y-30438D01*
X23719Y-30367D01*
X23720Y-30268D01*
X23720Y-29268D01*
X23682Y-29176D01*
X23611Y-29106D01*
X23519Y-29068D01*
X23420Y-29067D01*
X22420Y-29067D01*
X22328Y-29105D01*
X22258Y-29176D01*
X22220Y-29268D01*
X22219Y-29367D01*
X22219Y-30367D01*
X22257Y-30459D01*
X22328Y-30529D01*
X22371Y-30547D01*
X22309Y-30559D01*
X22189Y-30639D01*
X20939Y-31889D01*
X20859Y-32009D01*
X20831Y-32150D01*
X20831Y-34297D01*
X20192Y-34937D01*
X20195Y-34927D01*
X20195Y-32927D01*
X20187Y-32632D01*
X20090Y-32396D01*
X19974Y-32345D01*
X19904Y-32416D01*
X19904Y-32275D01*
X19853Y-32159D01*
X19577Y-32054D01*
X19282Y-32062D01*
X19046Y-32159D01*
X18995Y-32275D01*
X19450Y-32729D01*
X19904Y-32275D01*
X19904Y-32416D01*
X19520Y-32800D01*
X19974Y-33254D01*
X20090Y-33203D01*
X20195Y-32927D01*
X20195Y-34927D01*
X20187Y-34632D01*
X20090Y-34396D01*
X19974Y-34345D01*
X19520Y-34800D01*
X19526Y-34805D01*
X19455Y-34876D01*
X19450Y-34870D01*
X18995Y-35324D01*
X19046Y-35440D01*
X19155Y-35481D01*
X17752Y-35481D01*
X17853Y-35440D01*
X17904Y-35324D01*
X17450Y-34870D01*
X17379Y-34941D01*
X17379Y-34800D01*
X16925Y-34345D01*
X16809Y-34396D01*
X16704Y-34672D01*
X16712Y-34967D01*
X16809Y-35203D01*
X16925Y-35254D01*
X17379Y-34800D01*
X17379Y-34941D01*
X16995Y-35324D01*
X17046Y-35440D01*
X17155Y-35481D01*
X15254Y-35481D01*
X15254Y-34681D01*
X15243Y-34463D01*
X15181Y-34312D01*
X15085Y-34284D01*
X14770Y-34600D01*
X15085Y-34915D01*
X15181Y-34887D01*
X15254Y-34681D01*
X15254Y-35481D01*
X14952Y-35481D01*
X14625Y-35154D01*
X14836Y-35143D01*
X14987Y-35081D01*
X15015Y-34985D01*
X14700Y-34670D01*
X14694Y-34676D01*
X14623Y-34605D01*
X14629Y-34600D01*
X14314Y-34284D01*
X14228Y-34309D01*
X14228Y-33898D01*
X14233Y-33911D01*
X14388Y-34065D01*
X14463Y-34097D01*
X14412Y-34118D01*
X14384Y-34214D01*
X14700Y-34529D01*
X15015Y-34214D01*
X14987Y-34118D01*
X14932Y-34099D01*
X15011Y-34066D01*
X15165Y-33911D01*
X15170Y-33900D01*
X17727Y-33900D01*
X17727Y-33943D01*
X17810Y-34143D01*
X17577Y-34054D01*
X17282Y-34062D01*
X17046Y-34159D01*
X16995Y-34275D01*
X17450Y-34729D01*
X17455Y-34723D01*
X17526Y-34794D01*
X17520Y-34800D01*
X17974Y-35254D01*
X18090Y-35203D01*
X18195Y-34927D01*
X18187Y-34632D01*
X18108Y-34440D01*
X18305Y-34522D01*
X18593Y-34522D01*
X18793Y-34439D01*
X18704Y-34672D01*
X18712Y-34967D01*
X18809Y-35203D01*
X18925Y-35254D01*
X19379Y-34800D01*
X19373Y-34794D01*
X19444Y-34723D01*
X19450Y-34729D01*
X19904Y-34275D01*
X19853Y-34159D01*
X19577Y-34054D01*
X19282Y-34062D01*
X19090Y-34141D01*
X19172Y-33944D01*
X19172Y-33656D01*
X19089Y-33456D01*
X19322Y-33545D01*
X19617Y-33537D01*
X19853Y-33440D01*
X19904Y-33324D01*
X19450Y-32870D01*
X19444Y-32876D01*
X19373Y-32805D01*
X19379Y-32800D01*
X18925Y-32345D01*
X18809Y-32396D01*
X18750Y-32552D01*
X18750Y-32425D01*
X18727Y-32310D01*
X18662Y-32212D01*
X18662Y-32212D01*
X18275Y-31825D01*
X18275Y-31325D01*
X18424Y-31325D01*
X18516Y-31287D01*
X18586Y-31216D01*
X18624Y-31124D01*
X18625Y-31025D01*
X18625Y-30425D01*
X18587Y-30333D01*
X18516Y-30263D01*
X18424Y-30225D01*
X18325Y-30224D01*
X17525Y-30224D01*
X17433Y-30262D01*
X17363Y-30333D01*
X17325Y-30425D01*
X17324Y-30524D01*
X17324Y-31124D01*
X17362Y-31216D01*
X17433Y-31286D01*
X17525Y-31324D01*
X17624Y-31325D01*
X17675Y-31325D01*
X17675Y-31950D01*
X17697Y-32064D01*
X17729Y-32112D01*
X17577Y-32054D01*
X17282Y-32062D01*
X17046Y-32159D01*
X16995Y-32275D01*
X17450Y-32729D01*
X17455Y-32723D01*
X17526Y-32794D01*
X17520Y-32800D01*
X17526Y-32805D01*
X17455Y-32876D01*
X17450Y-32870D01*
X17444Y-32876D01*
X17379Y-32811D01*
X17373Y-32805D01*
X17379Y-32800D01*
X16925Y-32345D01*
X16809Y-32396D01*
X16704Y-32672D01*
X16712Y-32967D01*
X16809Y-33203D01*
X16925Y-33254D01*
X16880Y-33298D01*
X16881Y-33300D01*
X15254Y-33300D01*
X15254Y-28281D01*
X15243Y-28063D01*
X15181Y-27912D01*
X15085Y-27884D01*
X14770Y-28200D01*
X15085Y-28515D01*
X15181Y-28487D01*
X15254Y-28281D01*
X15254Y-33300D01*
X15171Y-33300D01*
X15166Y-33288D01*
X15015Y-33137D01*
X15015Y-28585D01*
X14700Y-28270D01*
X14384Y-28585D01*
X14412Y-28681D01*
X14618Y-28754D01*
X14836Y-28743D01*
X14987Y-28681D01*
X15015Y-28585D01*
X15015Y-33137D01*
X15011Y-33134D01*
X14809Y-33050D01*
X14591Y-33049D01*
X14388Y-33133D01*
X14234Y-33288D01*
X14228Y-33302D01*
X14228Y-28490D01*
X14314Y-28515D01*
X14629Y-28200D01*
X14314Y-27884D01*
X14228Y-27909D01*
X14228Y-27498D01*
X14233Y-27511D01*
X14388Y-27665D01*
X14463Y-27697D01*
X14412Y-27718D01*
X14384Y-27814D01*
X14700Y-28129D01*
X15015Y-27814D01*
X14987Y-27718D01*
X14932Y-27699D01*
X15011Y-27666D01*
X15165Y-27511D01*
X15170Y-27500D01*
X16499Y-27500D01*
X16499Y-27599D01*
X16537Y-27691D01*
X16608Y-27761D01*
X16700Y-27799D01*
X16799Y-27800D01*
X17331Y-27800D01*
X17331Y-27972D01*
X17096Y-28207D01*
X16959Y-28264D01*
X16839Y-28383D01*
X16775Y-28540D01*
X16774Y-28709D01*
X16839Y-28865D01*
X16958Y-28985D01*
X17115Y-29049D01*
X17284Y-29050D01*
X17390Y-29006D01*
X17363Y-29033D01*
X17325Y-29125D01*
X17324Y-29224D01*
X17324Y-29824D01*
X17362Y-29916D01*
X17433Y-29986D01*
X17525Y-30024D01*
X17624Y-30025D01*
X18424Y-30025D01*
X18516Y-29987D01*
X18586Y-29916D01*
X18624Y-29824D01*
X18625Y-29725D01*
X18625Y-29249D01*
X19024Y-28850D01*
X19299Y-28850D01*
X19299Y-28899D01*
X19337Y-28991D01*
X19408Y-29061D01*
X19500Y-29099D01*
X19599Y-29100D01*
X20399Y-29100D01*
X20491Y-29062D01*
X20561Y-28991D01*
X20599Y-28899D01*
X20600Y-28800D01*
X20600Y-28596D01*
X20639Y-28622D01*
X20850Y-28664D01*
X21060Y-28622D01*
X21238Y-28503D01*
X21350Y-28337D01*
X21461Y-28503D01*
X21639Y-28622D01*
X21850Y-28664D01*
X22060Y-28622D01*
X22238Y-28503D01*
X22350Y-28337D01*
X22461Y-28503D01*
X22639Y-28622D01*
X22850Y-28664D01*
X23060Y-28622D01*
X23238Y-28503D01*
X23350Y-28337D01*
X23461Y-28503D01*
X23639Y-28622D01*
X23850Y-28664D01*
X24060Y-28622D01*
X24113Y-28587D01*
X24312Y-28787D01*
X24410Y-28852D01*
X24525Y-28875D01*
X26698Y-28875D01*
G54D10*
G36*
X27525Y-18424D02*
X27500Y-18424D01*
X27408Y-18462D01*
X27400Y-18471D01*
X27391Y-18463D01*
X27299Y-18425D01*
X27200Y-18424D01*
X27000Y-18424D01*
X26950Y-18445D01*
X26950Y-18350D01*
X27099Y-18350D01*
X27191Y-18312D01*
X27261Y-18241D01*
X27292Y-18166D01*
X27300Y-18169D01*
X27358Y-18170D01*
X27372Y-18239D01*
X27437Y-18337D01*
X27525Y-18424D01*
X27525Y-18424D01*
G37*
G54D33*
X27525Y-18424D02*
X27500Y-18424D01*
X27408Y-18462D01*
X27400Y-18471D01*
X27391Y-18463D01*
X27299Y-18425D01*
X27200Y-18424D01*
X27000Y-18424D01*
X26950Y-18445D01*
X26950Y-18350D01*
X27099Y-18350D01*
X27191Y-18312D01*
X27261Y-18241D01*
X27292Y-18166D01*
X27300Y-18169D01*
X27358Y-18170D01*
X27372Y-18239D01*
X27437Y-18337D01*
X27525Y-18424D01*
G54D10*
G36*
X28150Y-22075D02*
X27774Y-22450D01*
X27774Y-22188D01*
X27736Y-22096D01*
X27700Y-22060D01*
X27722Y-22051D01*
X27755Y-22017D01*
X27789Y-22051D01*
X27881Y-22089D01*
X27943Y-22089D01*
X28005Y-22026D01*
X28005Y-21664D01*
X27998Y-21664D01*
X27998Y-21564D01*
X28005Y-21564D01*
X28005Y-21556D01*
X28105Y-21556D01*
X28105Y-21564D01*
X28113Y-21564D01*
X28113Y-21664D01*
X28105Y-21664D01*
X28105Y-22026D01*
X28150Y-22070D01*
X28150Y-22075D01*
X28150Y-22075D01*
G37*
G54D33*
X28150Y-22075D02*
X27774Y-22450D01*
X27774Y-22188D01*
X27736Y-22096D01*
X27700Y-22060D01*
X27722Y-22051D01*
X27755Y-22017D01*
X27789Y-22051D01*
X27881Y-22089D01*
X27943Y-22089D01*
X28005Y-22026D01*
X28005Y-21664D01*
X27998Y-21664D01*
X27998Y-21564D01*
X28005Y-21564D01*
X28005Y-21556D01*
X28105Y-21556D01*
X28105Y-21564D01*
X28113Y-21564D01*
X28113Y-21664D01*
X28105Y-21664D01*
X28105Y-22026D01*
X28150Y-22070D01*
X28150Y-22075D01*
G54D10*
G36*
X28250Y-19375D02*
X27825Y-19800D01*
X27075Y-19800D01*
X27075Y-19700D01*
X27075Y-19574D01*
X27274Y-19375D01*
X27299Y-19375D01*
X27391Y-19337D01*
X27400Y-19328D01*
X27408Y-19337D01*
X27500Y-19375D01*
X27537Y-19375D01*
X27600Y-19312D01*
X27600Y-18950D01*
X27592Y-18950D01*
X27592Y-18850D01*
X27600Y-18850D01*
X27600Y-18842D01*
X27700Y-18842D01*
X27700Y-18850D01*
X27707Y-18850D01*
X27707Y-18950D01*
X27700Y-18950D01*
X27700Y-19312D01*
X27762Y-19375D01*
X27799Y-19375D01*
X27891Y-19337D01*
X27899Y-19328D01*
X27908Y-19336D01*
X28000Y-19374D01*
X28099Y-19375D01*
X28250Y-19375D01*
X28250Y-19375D01*
G37*
G54D33*
X28250Y-19375D02*
X27825Y-19800D01*
X27075Y-19800D01*
X27075Y-19700D01*
X27075Y-19574D01*
X27274Y-19375D01*
X27299Y-19375D01*
X27391Y-19337D01*
X27400Y-19328D01*
X27408Y-19337D01*
X27500Y-19375D01*
X27537Y-19375D01*
X27600Y-19312D01*
X27600Y-18950D01*
X27592Y-18950D01*
X27592Y-18850D01*
X27600Y-18850D01*
X27600Y-18842D01*
X27700Y-18842D01*
X27700Y-18850D01*
X27707Y-18850D01*
X27707Y-18950D01*
X27700Y-18950D01*
X27700Y-19312D01*
X27762Y-19375D01*
X27799Y-19375D01*
X27891Y-19337D01*
X27899Y-19328D01*
X27908Y-19336D01*
X28000Y-19374D01*
X28099Y-19375D01*
X28250Y-19375D01*
G54D10*
G36*
X29646Y-16499D02*
X29638Y-16508D01*
X29600Y-16600D01*
X29599Y-16699D01*
X29599Y-17499D01*
X29631Y-17575D01*
X29599Y-17574D01*
X29500Y-17475D01*
X29500Y-17070D01*
X29469Y-16997D01*
X29499Y-16924D01*
X29500Y-16825D01*
X29500Y-16124D01*
X29499Y-16025D01*
X29461Y-15933D01*
X29391Y-15862D01*
X29299Y-15824D01*
X29062Y-15825D01*
X29000Y-15887D01*
X29000Y-16425D01*
X29437Y-16425D01*
X29500Y-16362D01*
X29500Y-16124D01*
X29500Y-16825D01*
X29500Y-16587D01*
X29437Y-16525D01*
X29000Y-16525D01*
X29000Y-16532D01*
X28900Y-16532D01*
X28900Y-16525D01*
X28462Y-16525D01*
X28400Y-16587D01*
X28399Y-16825D01*
X28400Y-16924D01*
X28430Y-16997D01*
X28400Y-17070D01*
X28399Y-17169D01*
X28399Y-17969D01*
X28437Y-18061D01*
X28508Y-18131D01*
X28600Y-18169D01*
X28699Y-18170D01*
X28914Y-18170D01*
X28875Y-18265D01*
X28874Y-18434D01*
X28885Y-18460D01*
X28799Y-18425D01*
X28700Y-18424D01*
X28500Y-18424D01*
X28408Y-18462D01*
X28400Y-18470D01*
X28362Y-18412D01*
X28362Y-18412D01*
X28084Y-18135D01*
X28091Y-18132D01*
X28161Y-18061D01*
X28199Y-17969D01*
X28200Y-17870D01*
X28200Y-17070D01*
X28169Y-16997D01*
X28199Y-16924D01*
X28200Y-16825D01*
X28200Y-16143D01*
X28216Y-16137D01*
X28250Y-16103D01*
X28283Y-16137D01*
X28375Y-16175D01*
X28399Y-16175D01*
X28400Y-16362D01*
X28462Y-16425D01*
X28900Y-16425D01*
X28900Y-16035D01*
X28924Y-15974D01*
X28925Y-15875D01*
X28925Y-15812D01*
X28862Y-15750D01*
X28600Y-15750D01*
X28600Y-15757D01*
X28500Y-15757D01*
X28500Y-15750D01*
X28492Y-15750D01*
X28492Y-15650D01*
X28500Y-15650D01*
X28500Y-15642D01*
X28600Y-15642D01*
X28600Y-15650D01*
X28862Y-15650D01*
X28925Y-15587D01*
X28925Y-15524D01*
X28925Y-15518D01*
X29600Y-15518D01*
X29599Y-15599D01*
X29599Y-16399D01*
X29637Y-16491D01*
X29646Y-16499D01*
X29646Y-16499D01*
G37*
G54D33*
X29646Y-16499D02*
X29638Y-16508D01*
X29600Y-16600D01*
X29599Y-16699D01*
X29599Y-17499D01*
X29631Y-17575D01*
X29599Y-17574D01*
X29500Y-17475D01*
X29500Y-17070D01*
X29469Y-16997D01*
X29499Y-16924D01*
X29500Y-16825D01*
X29500Y-16124D01*
X29499Y-16025D01*
X29461Y-15933D01*
X29391Y-15862D01*
X29299Y-15824D01*
X29062Y-15825D01*
X29000Y-15887D01*
X29000Y-16425D01*
X29437Y-16425D01*
X29500Y-16362D01*
X29500Y-16124D01*
X29500Y-16825D01*
X29500Y-16587D01*
X29437Y-16525D01*
X29000Y-16525D01*
X29000Y-16532D01*
X28900Y-16532D01*
X28900Y-16525D01*
X28462Y-16525D01*
X28400Y-16587D01*
X28399Y-16825D01*
X28400Y-16924D01*
X28430Y-16997D01*
X28400Y-17070D01*
X28399Y-17169D01*
X28399Y-17969D01*
X28437Y-18061D01*
X28508Y-18131D01*
X28600Y-18169D01*
X28699Y-18170D01*
X28914Y-18170D01*
X28875Y-18265D01*
X28874Y-18434D01*
X28885Y-18460D01*
X28799Y-18425D01*
X28700Y-18424D01*
X28500Y-18424D01*
X28408Y-18462D01*
X28400Y-18470D01*
X28362Y-18412D01*
X28362Y-18412D01*
X28084Y-18135D01*
X28091Y-18132D01*
X28161Y-18061D01*
X28199Y-17969D01*
X28200Y-17870D01*
X28200Y-17070D01*
X28169Y-16997D01*
X28199Y-16924D01*
X28200Y-16825D01*
X28200Y-16143D01*
X28216Y-16137D01*
X28250Y-16103D01*
X28283Y-16137D01*
X28375Y-16175D01*
X28399Y-16175D01*
X28400Y-16362D01*
X28462Y-16425D01*
X28900Y-16425D01*
X28900Y-16035D01*
X28924Y-15974D01*
X28925Y-15875D01*
X28925Y-15812D01*
X28862Y-15750D01*
X28600Y-15750D01*
X28600Y-15757D01*
X28500Y-15757D01*
X28500Y-15750D01*
X28492Y-15750D01*
X28492Y-15650D01*
X28500Y-15650D01*
X28500Y-15642D01*
X28600Y-15642D01*
X28600Y-15650D01*
X28862Y-15650D01*
X28925Y-15587D01*
X28925Y-15524D01*
X28925Y-15518D01*
X29600Y-15518D01*
X29599Y-15599D01*
X29599Y-16399D01*
X29637Y-16491D01*
X29646Y-16499D01*
G54D10*
G36*
X35125Y-20875D02*
X34900Y-21100D01*
X33475Y-21100D01*
X33475Y-21087D01*
X33412Y-21025D01*
X33175Y-21025D01*
X33175Y-21032D01*
X33075Y-21032D01*
X33075Y-21025D01*
X32912Y-21025D01*
X32837Y-21025D01*
X32675Y-21025D01*
X32675Y-21032D01*
X32575Y-21032D01*
X32575Y-21025D01*
X32567Y-21025D01*
X32567Y-20925D01*
X32575Y-20925D01*
X32575Y-20917D01*
X32675Y-20917D01*
X32675Y-20925D01*
X32837Y-20925D01*
X32912Y-20925D01*
X33075Y-20925D01*
X33075Y-20917D01*
X33175Y-20917D01*
X33175Y-20925D01*
X33412Y-20925D01*
X33462Y-20875D01*
X35125Y-20875D01*
X35125Y-20875D01*
G37*
G54D33*
X35125Y-20875D02*
X34900Y-21100D01*
X33475Y-21100D01*
X33475Y-21087D01*
X33412Y-21025D01*
X33175Y-21025D01*
X33175Y-21032D01*
X33075Y-21032D01*
X33075Y-21025D01*
X32912Y-21025D01*
X32837Y-21025D01*
X32675Y-21025D01*
X32675Y-21032D01*
X32575Y-21032D01*
X32575Y-21025D01*
X32567Y-21025D01*
X32567Y-20925D01*
X32575Y-20925D01*
X32575Y-20917D01*
X32675Y-20917D01*
X32675Y-20925D01*
X32837Y-20925D01*
X32912Y-20925D01*
X33075Y-20925D01*
X33075Y-20917D01*
X33175Y-20917D01*
X33175Y-20925D01*
X33412Y-20925D01*
X33462Y-20875D01*
X35125Y-20875D01*
G54D10*
G36*
X35606Y-25031D02*
X31950Y-25031D01*
X31950Y-24450D01*
X31912Y-24358D01*
X31841Y-24288D01*
X31749Y-24250D01*
X31727Y-24250D01*
X31809Y-24168D01*
X35450Y-24168D01*
X35449Y-24249D01*
X35449Y-24849D01*
X35487Y-24941D01*
X35558Y-25011D01*
X35606Y-25031D01*
X35606Y-25031D01*
G37*
G54D33*
X35606Y-25031D02*
X31950Y-25031D01*
X31950Y-24450D01*
X31912Y-24358D01*
X31841Y-24288D01*
X31749Y-24250D01*
X31727Y-24250D01*
X31809Y-24168D01*
X35450Y-24168D01*
X35449Y-24249D01*
X35449Y-24849D01*
X35487Y-24941D01*
X35558Y-25011D01*
X35606Y-25031D01*
G54D10*
G36*
X35900Y-19800D02*
X35425Y-20275D01*
X33475Y-20275D01*
X33475Y-19050D01*
X33475Y-18987D01*
X33412Y-18925D01*
X33175Y-18925D01*
X33175Y-19287D01*
X33237Y-19350D01*
X33274Y-19350D01*
X33366Y-19312D01*
X33436Y-19241D01*
X33474Y-19149D01*
X33475Y-19050D01*
X33475Y-20275D01*
X33075Y-20275D01*
X33075Y-19287D01*
X33075Y-18925D01*
X33067Y-18925D01*
X33067Y-18825D01*
X33075Y-18825D01*
X33075Y-18462D01*
X33012Y-18400D01*
X32975Y-18399D01*
X32883Y-18437D01*
X32875Y-18446D01*
X32866Y-18438D01*
X32774Y-18400D01*
X32675Y-18399D01*
X32475Y-18399D01*
X32383Y-18437D01*
X32375Y-18446D01*
X32366Y-18438D01*
X32274Y-18400D01*
X32175Y-18399D01*
X31975Y-18399D01*
X31883Y-18437D01*
X31875Y-18446D01*
X31866Y-18437D01*
X31774Y-18399D01*
X31737Y-18400D01*
X31675Y-18462D01*
X31675Y-18825D01*
X31682Y-18825D01*
X31682Y-18925D01*
X31675Y-18925D01*
X31675Y-19287D01*
X31737Y-19350D01*
X31774Y-19350D01*
X31866Y-19312D01*
X31874Y-19303D01*
X31883Y-19311D01*
X31975Y-19349D01*
X32074Y-19350D01*
X32274Y-19350D01*
X32366Y-19312D01*
X32374Y-19303D01*
X32383Y-19311D01*
X32475Y-19349D01*
X32574Y-19350D01*
X32774Y-19350D01*
X32866Y-19312D01*
X32875Y-19303D01*
X32883Y-19312D01*
X32975Y-19350D01*
X33012Y-19350D01*
X33075Y-19287D01*
X33075Y-20275D01*
X32300Y-20275D01*
X32185Y-20297D01*
X32087Y-20362D01*
X32016Y-20434D01*
X31985Y-20359D01*
X31866Y-20239D01*
X31709Y-20175D01*
X31575Y-20174D01*
X31575Y-19287D01*
X31575Y-18925D01*
X31412Y-18925D01*
X31337Y-18925D01*
X31175Y-18925D01*
X31175Y-19287D01*
X31237Y-19350D01*
X31274Y-19350D01*
X31366Y-19312D01*
X31375Y-19303D01*
X31383Y-19312D01*
X31475Y-19350D01*
X31512Y-19350D01*
X31575Y-19287D01*
X31575Y-20174D01*
X31540Y-20174D01*
X31384Y-20239D01*
X31264Y-20358D01*
X31206Y-20499D01*
X31175Y-20499D01*
X30975Y-20499D01*
X30883Y-20537D01*
X30875Y-20546D01*
X30866Y-20538D01*
X30816Y-20517D01*
X30662Y-20362D01*
X30564Y-20297D01*
X30450Y-20275D01*
X30199Y-20275D01*
X30075Y-20150D01*
X30075Y-20140D01*
X30010Y-19984D01*
X29891Y-19864D01*
X29734Y-19800D01*
X29565Y-19799D01*
X29409Y-19864D01*
X29289Y-19983D01*
X29259Y-20058D01*
X29166Y-19964D01*
X29009Y-19900D01*
X28840Y-19899D01*
X28684Y-19964D01*
X28564Y-20083D01*
X28500Y-20240D01*
X28500Y-20275D01*
X28199Y-20275D01*
X28862Y-19612D01*
X28862Y-19612D01*
X28896Y-19560D01*
X28939Y-19665D01*
X29058Y-19785D01*
X29215Y-19849D01*
X29384Y-19850D01*
X29540Y-19785D01*
X29651Y-19675D01*
X29750Y-19675D01*
X30325Y-19675D01*
X30325Y-19674D01*
X30439Y-19652D01*
X30439Y-19652D01*
X30537Y-19587D01*
X30774Y-19350D01*
X30774Y-19350D01*
X30866Y-19312D01*
X30875Y-19303D01*
X30883Y-19312D01*
X30975Y-19350D01*
X31012Y-19350D01*
X31075Y-19287D01*
X31075Y-18925D01*
X31067Y-18925D01*
X31067Y-18825D01*
X31075Y-18825D01*
X31075Y-18817D01*
X31175Y-18817D01*
X31175Y-18825D01*
X31337Y-18825D01*
X31412Y-18825D01*
X31575Y-18825D01*
X31575Y-18462D01*
X31512Y-18400D01*
X31475Y-18399D01*
X31383Y-18437D01*
X31375Y-18446D01*
X31366Y-18437D01*
X31349Y-18431D01*
X31350Y-18350D01*
X31350Y-18287D01*
X31287Y-18225D01*
X31025Y-18225D01*
X31025Y-18232D01*
X30925Y-18232D01*
X30925Y-18225D01*
X30917Y-18225D01*
X30917Y-18125D01*
X30925Y-18125D01*
X30925Y-18117D01*
X31025Y-18117D01*
X31025Y-18125D01*
X31287Y-18125D01*
X31337Y-18075D01*
X32800Y-18075D01*
X33181Y-18455D01*
X33175Y-18462D01*
X33175Y-18825D01*
X33412Y-18825D01*
X33475Y-18762D01*
X33475Y-18749D01*
X34437Y-19712D01*
X34437Y-19712D01*
X34535Y-19777D01*
X34649Y-19799D01*
X34650Y-19800D01*
X35900Y-19800D01*
X35900Y-19800D01*
G37*
G54D33*
X35900Y-19800D02*
X35425Y-20275D01*
X33475Y-20275D01*
X33475Y-19050D01*
X33475Y-18987D01*
X33412Y-18925D01*
X33175Y-18925D01*
X33175Y-19287D01*
X33237Y-19350D01*
X33274Y-19350D01*
X33366Y-19312D01*
X33436Y-19241D01*
X33474Y-19149D01*
X33475Y-19050D01*
X33475Y-20275D01*
X33075Y-20275D01*
X33075Y-19287D01*
X33075Y-18925D01*
X33067Y-18925D01*
X33067Y-18825D01*
X33075Y-18825D01*
X33075Y-18462D01*
X33012Y-18400D01*
X32975Y-18399D01*
X32883Y-18437D01*
X32875Y-18446D01*
X32866Y-18438D01*
X32774Y-18400D01*
X32675Y-18399D01*
X32475Y-18399D01*
X32383Y-18437D01*
X32375Y-18446D01*
X32366Y-18438D01*
X32274Y-18400D01*
X32175Y-18399D01*
X31975Y-18399D01*
X31883Y-18437D01*
X31875Y-18446D01*
X31866Y-18437D01*
X31774Y-18399D01*
X31737Y-18400D01*
X31675Y-18462D01*
X31675Y-18825D01*
X31682Y-18825D01*
X31682Y-18925D01*
X31675Y-18925D01*
X31675Y-19287D01*
X31737Y-19350D01*
X31774Y-19350D01*
X31866Y-19312D01*
X31874Y-19303D01*
X31883Y-19311D01*
X31975Y-19349D01*
X32074Y-19350D01*
X32274Y-19350D01*
X32366Y-19312D01*
X32374Y-19303D01*
X32383Y-19311D01*
X32475Y-19349D01*
X32574Y-19350D01*
X32774Y-19350D01*
X32866Y-19312D01*
X32875Y-19303D01*
X32883Y-19312D01*
X32975Y-19350D01*
X33012Y-19350D01*
X33075Y-19287D01*
X33075Y-20275D01*
X32300Y-20275D01*
X32185Y-20297D01*
X32087Y-20362D01*
X32016Y-20434D01*
X31985Y-20359D01*
X31866Y-20239D01*
X31709Y-20175D01*
X31575Y-20174D01*
X31575Y-19287D01*
X31575Y-18925D01*
X31412Y-18925D01*
X31337Y-18925D01*
X31175Y-18925D01*
X31175Y-19287D01*
X31237Y-19350D01*
X31274Y-19350D01*
X31366Y-19312D01*
X31375Y-19303D01*
X31383Y-19312D01*
X31475Y-19350D01*
X31512Y-19350D01*
X31575Y-19287D01*
X31575Y-20174D01*
X31540Y-20174D01*
X31384Y-20239D01*
X31264Y-20358D01*
X31206Y-20499D01*
X31175Y-20499D01*
X30975Y-20499D01*
X30883Y-20537D01*
X30875Y-20546D01*
X30866Y-20538D01*
X30816Y-20517D01*
X30662Y-20362D01*
X30564Y-20297D01*
X30450Y-20275D01*
X30199Y-20275D01*
X30075Y-20150D01*
X30075Y-20140D01*
X30010Y-19984D01*
X29891Y-19864D01*
X29734Y-19800D01*
X29565Y-19799D01*
X29409Y-19864D01*
X29289Y-19983D01*
X29259Y-20058D01*
X29166Y-19964D01*
X29009Y-19900D01*
X28840Y-19899D01*
X28684Y-19964D01*
X28564Y-20083D01*
X28500Y-20240D01*
X28500Y-20275D01*
X28199Y-20275D01*
X28862Y-19612D01*
X28862Y-19612D01*
X28896Y-19560D01*
X28939Y-19665D01*
X29058Y-19785D01*
X29215Y-19849D01*
X29384Y-19850D01*
X29540Y-19785D01*
X29651Y-19675D01*
X29750Y-19675D01*
X30325Y-19675D01*
X30325Y-19674D01*
X30439Y-19652D01*
X30439Y-19652D01*
X30537Y-19587D01*
X30774Y-19350D01*
X30774Y-19350D01*
X30866Y-19312D01*
X30875Y-19303D01*
X30883Y-19312D01*
X30975Y-19350D01*
X31012Y-19350D01*
X31075Y-19287D01*
X31075Y-18925D01*
X31067Y-18925D01*
X31067Y-18825D01*
X31075Y-18825D01*
X31075Y-18817D01*
X31175Y-18817D01*
X31175Y-18825D01*
X31337Y-18825D01*
X31412Y-18825D01*
X31575Y-18825D01*
X31575Y-18462D01*
X31512Y-18400D01*
X31475Y-18399D01*
X31383Y-18437D01*
X31375Y-18446D01*
X31366Y-18437D01*
X31349Y-18431D01*
X31350Y-18350D01*
X31350Y-18287D01*
X31287Y-18225D01*
X31025Y-18225D01*
X31025Y-18232D01*
X30925Y-18232D01*
X30925Y-18225D01*
X30917Y-18225D01*
X30917Y-18125D01*
X30925Y-18125D01*
X30925Y-18117D01*
X31025Y-18117D01*
X31025Y-18125D01*
X31287Y-18125D01*
X31337Y-18075D01*
X32800Y-18075D01*
X33181Y-18455D01*
X33175Y-18462D01*
X33175Y-18825D01*
X33412Y-18825D01*
X33475Y-18762D01*
X33475Y-18749D01*
X34437Y-19712D01*
X34437Y-19712D01*
X34535Y-19777D01*
X34649Y-19799D01*
X34650Y-19800D01*
X35900Y-19800D01*
G54D10*
G36*
X36778Y-28650D02*
X36697Y-28731D01*
X36396Y-28731D01*
X36259Y-28675D01*
X36090Y-28674D01*
X35934Y-28739D01*
X35814Y-28858D01*
X35750Y-29015D01*
X35749Y-29184D01*
X35769Y-29231D01*
X29457Y-29231D01*
X29100Y-28875D01*
X31250Y-28875D01*
X31250Y-28874D01*
X31277Y-28869D01*
X31290Y-28874D01*
X31459Y-28875D01*
X31615Y-28810D01*
X31735Y-28691D01*
X31753Y-28645D01*
X31850Y-28664D01*
X32060Y-28622D01*
X32238Y-28503D01*
X32350Y-28337D01*
X32461Y-28503D01*
X32639Y-28622D01*
X32850Y-28664D01*
X33060Y-28622D01*
X33238Y-28503D01*
X33350Y-28337D01*
X33461Y-28503D01*
X33639Y-28622D01*
X33850Y-28664D01*
X34060Y-28622D01*
X34238Y-28503D01*
X34350Y-28337D01*
X34461Y-28503D01*
X34639Y-28622D01*
X34850Y-28664D01*
X35060Y-28622D01*
X35238Y-28503D01*
X35350Y-28337D01*
X35461Y-28503D01*
X35639Y-28622D01*
X35850Y-28664D01*
X36060Y-28622D01*
X36238Y-28503D01*
X36350Y-28337D01*
X36461Y-28503D01*
X36639Y-28622D01*
X36778Y-28650D01*
X36778Y-28650D01*
G37*
G54D33*
X36778Y-28650D02*
X36697Y-28731D01*
X36396Y-28731D01*
X36259Y-28675D01*
X36090Y-28674D01*
X35934Y-28739D01*
X35814Y-28858D01*
X35750Y-29015D01*
X35749Y-29184D01*
X35769Y-29231D01*
X29457Y-29231D01*
X29100Y-28875D01*
X31250Y-28875D01*
X31250Y-28874D01*
X31277Y-28869D01*
X31290Y-28874D01*
X31459Y-28875D01*
X31615Y-28810D01*
X31735Y-28691D01*
X31753Y-28645D01*
X31850Y-28664D01*
X32060Y-28622D01*
X32238Y-28503D01*
X32350Y-28337D01*
X32461Y-28503D01*
X32639Y-28622D01*
X32850Y-28664D01*
X33060Y-28622D01*
X33238Y-28503D01*
X33350Y-28337D01*
X33461Y-28503D01*
X33639Y-28622D01*
X33850Y-28664D01*
X34060Y-28622D01*
X34238Y-28503D01*
X34350Y-28337D01*
X34461Y-28503D01*
X34639Y-28622D01*
X34850Y-28664D01*
X35060Y-28622D01*
X35238Y-28503D01*
X35350Y-28337D01*
X35461Y-28503D01*
X35639Y-28622D01*
X35850Y-28664D01*
X36060Y-28622D01*
X36238Y-28503D01*
X36350Y-28337D01*
X36461Y-28503D01*
X36639Y-28622D01*
X36778Y-28650D01*
G54D10*
G36*
X36886Y-23431D02*
X31809Y-23431D01*
X31711Y-23334D01*
X31630Y-23300D01*
X31711Y-23266D01*
X31865Y-23111D01*
X31949Y-22909D01*
X31950Y-22691D01*
X31866Y-22488D01*
X31711Y-22334D01*
X31509Y-22250D01*
X31291Y-22249D01*
X31088Y-22333D01*
X30934Y-22488D01*
X30850Y-22690D01*
X30849Y-22908D01*
X30933Y-23111D01*
X31088Y-23265D01*
X31169Y-23299D01*
X31088Y-23333D01*
X30934Y-23488D01*
X30889Y-23594D01*
X30835Y-23539D01*
X30715Y-23459D01*
X30575Y-23431D01*
X30384Y-23431D01*
X30286Y-23334D01*
X30205Y-23300D01*
X30286Y-23266D01*
X30440Y-23111D01*
X30524Y-22909D01*
X30525Y-22691D01*
X30441Y-22488D01*
X30286Y-22334D01*
X30084Y-22250D01*
X29866Y-22249D01*
X29663Y-22333D01*
X29509Y-22488D01*
X29425Y-22690D01*
X29424Y-22908D01*
X29508Y-23111D01*
X29663Y-23265D01*
X29744Y-23299D01*
X29663Y-23333D01*
X29509Y-23488D01*
X29425Y-23690D01*
X29424Y-23908D01*
X29508Y-24111D01*
X29647Y-24249D01*
X29625Y-24249D01*
X29533Y-24287D01*
X29463Y-24358D01*
X29425Y-24450D01*
X29425Y-24500D01*
X27804Y-24500D01*
X27987Y-24317D01*
X27987Y-24317D01*
X28052Y-24219D01*
X28074Y-24105D01*
X28075Y-24105D01*
X28075Y-22999D01*
X28662Y-22412D01*
X28727Y-22314D01*
X28749Y-22200D01*
X28750Y-22200D01*
X28750Y-21674D01*
X28912Y-21837D01*
X28912Y-21837D01*
X29010Y-21902D01*
X29125Y-21925D01*
X34875Y-21925D01*
X35700Y-21925D01*
X35700Y-21924D01*
X35814Y-21902D01*
X35814Y-21902D01*
X35912Y-21837D01*
X36249Y-21499D01*
X36249Y-21508D01*
X36333Y-21711D01*
X36472Y-21849D01*
X36450Y-21849D01*
X36358Y-21887D01*
X36288Y-21958D01*
X36250Y-22050D01*
X36249Y-22149D01*
X36249Y-22749D01*
X36287Y-22841D01*
X36358Y-22911D01*
X36450Y-22949D01*
X36456Y-22949D01*
X36459Y-22965D01*
X36539Y-23085D01*
X36886Y-23431D01*
X36886Y-23431D01*
G37*
G54D33*
X36886Y-23431D02*
X31809Y-23431D01*
X31711Y-23334D01*
X31630Y-23300D01*
X31711Y-23266D01*
X31865Y-23111D01*
X31949Y-22909D01*
X31950Y-22691D01*
X31866Y-22488D01*
X31711Y-22334D01*
X31509Y-22250D01*
X31291Y-22249D01*
X31088Y-22333D01*
X30934Y-22488D01*
X30850Y-22690D01*
X30849Y-22908D01*
X30933Y-23111D01*
X31088Y-23265D01*
X31169Y-23299D01*
X31088Y-23333D01*
X30934Y-23488D01*
X30889Y-23594D01*
X30835Y-23539D01*
X30715Y-23459D01*
X30575Y-23431D01*
X30384Y-23431D01*
X30286Y-23334D01*
X30205Y-23300D01*
X30286Y-23266D01*
X30440Y-23111D01*
X30524Y-22909D01*
X30525Y-22691D01*
X30441Y-22488D01*
X30286Y-22334D01*
X30084Y-22250D01*
X29866Y-22249D01*
X29663Y-22333D01*
X29509Y-22488D01*
X29425Y-22690D01*
X29424Y-22908D01*
X29508Y-23111D01*
X29663Y-23265D01*
X29744Y-23299D01*
X29663Y-23333D01*
X29509Y-23488D01*
X29425Y-23690D01*
X29424Y-23908D01*
X29508Y-24111D01*
X29647Y-24249D01*
X29625Y-24249D01*
X29533Y-24287D01*
X29463Y-24358D01*
X29425Y-24450D01*
X29425Y-24500D01*
X27804Y-24500D01*
X27987Y-24317D01*
X27987Y-24317D01*
X28052Y-24219D01*
X28074Y-24105D01*
X28075Y-24105D01*
X28075Y-22999D01*
X28662Y-22412D01*
X28727Y-22314D01*
X28749Y-22200D01*
X28750Y-22200D01*
X28750Y-21674D01*
X28912Y-21837D01*
X28912Y-21837D01*
X29010Y-21902D01*
X29125Y-21925D01*
X34875Y-21925D01*
X35700Y-21925D01*
X35700Y-21924D01*
X35814Y-21902D01*
X35814Y-21902D01*
X35912Y-21837D01*
X36249Y-21499D01*
X36249Y-21508D01*
X36333Y-21711D01*
X36472Y-21849D01*
X36450Y-21849D01*
X36358Y-21887D01*
X36288Y-21958D01*
X36250Y-22050D01*
X36249Y-22149D01*
X36249Y-22749D01*
X36287Y-22841D01*
X36358Y-22911D01*
X36450Y-22949D01*
X36456Y-22949D01*
X36459Y-22965D01*
X36539Y-23085D01*
X36886Y-23431D01*
G54D10*
G36*
X38286Y-25768D02*
X37259Y-26795D01*
X37179Y-26914D01*
X37151Y-27055D01*
X37151Y-27238D01*
X37060Y-27177D01*
X36850Y-27135D01*
X36639Y-27177D01*
X36461Y-27296D01*
X36350Y-27462D01*
X36238Y-27296D01*
X36060Y-27177D01*
X35850Y-27135D01*
X35639Y-27177D01*
X35461Y-27296D01*
X35350Y-27462D01*
X35238Y-27296D01*
X35060Y-27177D01*
X34850Y-27135D01*
X34639Y-27177D01*
X34461Y-27296D01*
X34350Y-27462D01*
X34238Y-27296D01*
X34060Y-27177D01*
X33850Y-27135D01*
X33639Y-27177D01*
X33461Y-27296D01*
X33350Y-27462D01*
X33238Y-27296D01*
X33060Y-27177D01*
X32850Y-27135D01*
X32639Y-27177D01*
X32461Y-27296D01*
X32350Y-27462D01*
X32238Y-27296D01*
X32060Y-27177D01*
X31850Y-27135D01*
X31639Y-27177D01*
X31461Y-27296D01*
X31350Y-27462D01*
X31238Y-27296D01*
X31060Y-27177D01*
X30850Y-27135D01*
X30639Y-27177D01*
X30461Y-27296D01*
X30350Y-27462D01*
X30238Y-27296D01*
X30060Y-27177D01*
X29850Y-27135D01*
X29639Y-27177D01*
X29586Y-27212D01*
X29282Y-26907D01*
X29184Y-26842D01*
X29070Y-26820D01*
X26601Y-26820D01*
X26591Y-26809D01*
X26434Y-26745D01*
X26265Y-26744D01*
X26109Y-26809D01*
X25989Y-26928D01*
X25925Y-27085D01*
X25924Y-27200D01*
X25900Y-27215D01*
X25900Y-27850D01*
X26300Y-27850D01*
X26400Y-27850D01*
X26800Y-27850D01*
X26800Y-27842D01*
X26900Y-27842D01*
X26900Y-27850D01*
X26907Y-27850D01*
X26907Y-27950D01*
X26900Y-27950D01*
X26900Y-27957D01*
X26800Y-27957D01*
X26800Y-27950D01*
X26400Y-27950D01*
X26300Y-27950D01*
X25900Y-27950D01*
X25900Y-27957D01*
X25800Y-27957D01*
X25800Y-27950D01*
X25792Y-27950D01*
X25792Y-27850D01*
X25800Y-27850D01*
X25800Y-27215D01*
X25714Y-27166D01*
X25685Y-27172D01*
X25496Y-27275D01*
X25361Y-27443D01*
X25353Y-27468D01*
X25264Y-27334D01*
X27499Y-25100D01*
X28702Y-25100D01*
X28697Y-25102D01*
X28000Y-25800D01*
X27751Y-25800D01*
X27691Y-25739D01*
X27534Y-25675D01*
X27365Y-25674D01*
X27209Y-25739D01*
X27089Y-25858D01*
X27025Y-26015D01*
X27024Y-26184D01*
X27089Y-26340D01*
X27208Y-26460D01*
X27365Y-26524D01*
X27534Y-26525D01*
X27690Y-26460D01*
X27751Y-26400D01*
X28125Y-26400D01*
X28125Y-26399D01*
X28239Y-26377D01*
X28239Y-26377D01*
X28337Y-26312D01*
X29034Y-25614D01*
X30190Y-25614D01*
X30512Y-25936D01*
X30489Y-25958D01*
X30425Y-26115D01*
X30424Y-26284D01*
X30489Y-26440D01*
X30608Y-26560D01*
X30765Y-26624D01*
X30934Y-26625D01*
X31090Y-26560D01*
X31210Y-26441D01*
X31274Y-26284D01*
X31275Y-26115D01*
X31210Y-25959D01*
X31150Y-25898D01*
X31150Y-25850D01*
X31133Y-25768D01*
X38286Y-25768D01*
X38286Y-25768D01*
G37*
G54D33*
X38286Y-25768D02*
X37259Y-26795D01*
X37179Y-26914D01*
X37151Y-27055D01*
X37151Y-27238D01*
X37060Y-27177D01*
X36850Y-27135D01*
X36639Y-27177D01*
X36461Y-27296D01*
X36350Y-27462D01*
X36238Y-27296D01*
X36060Y-27177D01*
X35850Y-27135D01*
X35639Y-27177D01*
X35461Y-27296D01*
X35350Y-27462D01*
X35238Y-27296D01*
X35060Y-27177D01*
X34850Y-27135D01*
X34639Y-27177D01*
X34461Y-27296D01*
X34350Y-27462D01*
X34238Y-27296D01*
X34060Y-27177D01*
X33850Y-27135D01*
X33639Y-27177D01*
X33461Y-27296D01*
X33350Y-27462D01*
X33238Y-27296D01*
X33060Y-27177D01*
X32850Y-27135D01*
X32639Y-27177D01*
X32461Y-27296D01*
X32350Y-27462D01*
X32238Y-27296D01*
X32060Y-27177D01*
X31850Y-27135D01*
X31639Y-27177D01*
X31461Y-27296D01*
X31350Y-27462D01*
X31238Y-27296D01*
X31060Y-27177D01*
X30850Y-27135D01*
X30639Y-27177D01*
X30461Y-27296D01*
X30350Y-27462D01*
X30238Y-27296D01*
X30060Y-27177D01*
X29850Y-27135D01*
X29639Y-27177D01*
X29586Y-27212D01*
X29282Y-26907D01*
X29184Y-26842D01*
X29070Y-26820D01*
X26601Y-26820D01*
X26591Y-26809D01*
X26434Y-26745D01*
X26265Y-26744D01*
X26109Y-26809D01*
X25989Y-26928D01*
X25925Y-27085D01*
X25924Y-27200D01*
X25900Y-27215D01*
X25900Y-27850D01*
X26300Y-27850D01*
X26400Y-27850D01*
X26800Y-27850D01*
X26800Y-27842D01*
X26900Y-27842D01*
X26900Y-27850D01*
X26907Y-27850D01*
X26907Y-27950D01*
X26900Y-27950D01*
X26900Y-27957D01*
X26800Y-27957D01*
X26800Y-27950D01*
X26400Y-27950D01*
X26300Y-27950D01*
X25900Y-27950D01*
X25900Y-27957D01*
X25800Y-27957D01*
X25800Y-27950D01*
X25792Y-27950D01*
X25792Y-27850D01*
X25800Y-27850D01*
X25800Y-27215D01*
X25714Y-27166D01*
X25685Y-27172D01*
X25496Y-27275D01*
X25361Y-27443D01*
X25353Y-27468D01*
X25264Y-27334D01*
X27499Y-25100D01*
X28702Y-25100D01*
X28697Y-25102D01*
X28000Y-25800D01*
X27751Y-25800D01*
X27691Y-25739D01*
X27534Y-25675D01*
X27365Y-25674D01*
X27209Y-25739D01*
X27089Y-25858D01*
X27025Y-26015D01*
X27024Y-26184D01*
X27089Y-26340D01*
X27208Y-26460D01*
X27365Y-26524D01*
X27534Y-26525D01*
X27690Y-26460D01*
X27751Y-26400D01*
X28125Y-26400D01*
X28125Y-26399D01*
X28239Y-26377D01*
X28239Y-26377D01*
X28337Y-26312D01*
X29034Y-25614D01*
X30190Y-25614D01*
X30512Y-25936D01*
X30489Y-25958D01*
X30425Y-26115D01*
X30424Y-26284D01*
X30489Y-26440D01*
X30608Y-26560D01*
X30765Y-26624D01*
X30934Y-26625D01*
X31090Y-26560D01*
X31210Y-26441D01*
X31274Y-26284D01*
X31275Y-26115D01*
X31210Y-25959D01*
X31150Y-25898D01*
X31150Y-25850D01*
X31133Y-25768D01*
X38286Y-25768D01*
G54D10*
G36*
X41047Y-16350D02*
X41040Y-16350D01*
X41040Y-16357D01*
X40940Y-16357D01*
X40940Y-16350D01*
X40577Y-16350D01*
X40547Y-16379D01*
X40529Y-16372D01*
X40430Y-16372D01*
X40036Y-16372D01*
X39944Y-16410D01*
X39874Y-16480D01*
X39864Y-16505D01*
X39864Y-16197D01*
X39826Y-16106D01*
X39806Y-16086D01*
X39908Y-15983D01*
X39908Y-15983D01*
X39908Y-15983D01*
X40317Y-15575D01*
X40514Y-15575D01*
X40514Y-15624D01*
X40514Y-15874D01*
X40552Y-15966D01*
X40586Y-16000D01*
X40552Y-16033D01*
X40514Y-16125D01*
X40515Y-16187D01*
X40577Y-16250D01*
X40940Y-16250D01*
X40940Y-16242D01*
X41040Y-16242D01*
X41040Y-16250D01*
X41047Y-16250D01*
X41047Y-16350D01*
X41047Y-16350D01*
G37*
G54D33*
X41047Y-16350D02*
X41040Y-16350D01*
X41040Y-16357D01*
X40940Y-16357D01*
X40940Y-16350D01*
X40577Y-16350D01*
X40547Y-16379D01*
X40529Y-16372D01*
X40430Y-16372D01*
X40036Y-16372D01*
X39944Y-16410D01*
X39874Y-16480D01*
X39864Y-16505D01*
X39864Y-16197D01*
X39826Y-16106D01*
X39806Y-16086D01*
X39908Y-15983D01*
X39908Y-15983D01*
X39908Y-15983D01*
X40317Y-15575D01*
X40514Y-15575D01*
X40514Y-15624D01*
X40514Y-15874D01*
X40552Y-15966D01*
X40586Y-16000D01*
X40552Y-16033D01*
X40514Y-16125D01*
X40515Y-16187D01*
X40577Y-16250D01*
X40940Y-16250D01*
X40940Y-16242D01*
X41040Y-16242D01*
X41040Y-16250D01*
X41047Y-16250D01*
X41047Y-16350D01*
G54D10*
G36*
X43581Y-13519D02*
X43219Y-13881D01*
X42740Y-13881D01*
X42648Y-13919D01*
X42578Y-13990D01*
X42540Y-14082D01*
X42540Y-14113D01*
X42087Y-14113D01*
X42087Y-14082D01*
X42049Y-13990D01*
X41978Y-13920D01*
X41886Y-13882D01*
X41787Y-13881D01*
X41087Y-13881D01*
X40995Y-13919D01*
X40925Y-13990D01*
X40887Y-14082D01*
X40886Y-14181D01*
X40886Y-14881D01*
X40924Y-14973D01*
X40927Y-14975D01*
X40393Y-14975D01*
X40394Y-14973D01*
X40432Y-14881D01*
X40433Y-14782D01*
X40433Y-14082D01*
X40395Y-13990D01*
X40324Y-13920D01*
X40232Y-13882D01*
X40133Y-13881D01*
X39433Y-13881D01*
X39341Y-13919D01*
X39271Y-13990D01*
X39233Y-14082D01*
X39232Y-14181D01*
X39232Y-14881D01*
X39270Y-14973D01*
X39341Y-15043D01*
X39433Y-15081D01*
X39532Y-15082D01*
X39962Y-15082D01*
X39735Y-15309D01*
X39641Y-15214D01*
X39484Y-15150D01*
X39315Y-15149D01*
X39159Y-15214D01*
X39039Y-15333D01*
X38975Y-15490D01*
X38974Y-15659D01*
X39039Y-15815D01*
X39149Y-15925D01*
X39144Y-15932D01*
X39127Y-16015D01*
X39078Y-16035D01*
X39008Y-16105D01*
X38970Y-16197D01*
X38969Y-16297D01*
X38969Y-16612D01*
X39007Y-16703D01*
X39078Y-16774D01*
X39091Y-16780D01*
X39078Y-16785D01*
X39007Y-16856D01*
X38969Y-16947D01*
X38970Y-17042D01*
X39032Y-17105D01*
X39367Y-17105D01*
X39367Y-17097D01*
X39467Y-17097D01*
X39467Y-17105D01*
X39801Y-17105D01*
X39860Y-17046D01*
X39873Y-17078D01*
X39908Y-17113D01*
X39838Y-17183D01*
X39821Y-17224D01*
X39801Y-17205D01*
X39467Y-17205D01*
X39467Y-17500D01*
X39508Y-17541D01*
X39400Y-17649D01*
X39309Y-17557D01*
X39367Y-17500D01*
X39367Y-17205D01*
X39032Y-17205D01*
X38970Y-17267D01*
X38969Y-17362D01*
X39007Y-17453D01*
X39028Y-17474D01*
X38965Y-17474D01*
X38809Y-17539D01*
X38780Y-17568D01*
X38780Y-14782D01*
X38780Y-14181D01*
X38780Y-12618D01*
X38780Y-12430D01*
X38717Y-12368D01*
X38230Y-12368D01*
X38230Y-12855D01*
X38292Y-12918D01*
X38579Y-12918D01*
X38671Y-12880D01*
X38741Y-12809D01*
X38779Y-12717D01*
X38780Y-12618D01*
X38780Y-14181D01*
X38779Y-14082D01*
X38741Y-13990D01*
X38671Y-13919D01*
X38579Y-13881D01*
X38292Y-13882D01*
X38230Y-13944D01*
X38230Y-14432D01*
X38717Y-14432D01*
X38780Y-14369D01*
X38780Y-14181D01*
X38780Y-14782D01*
X38780Y-14594D01*
X38717Y-14532D01*
X38230Y-14532D01*
X38230Y-15019D01*
X38292Y-15082D01*
X38579Y-15082D01*
X38671Y-15044D01*
X38741Y-14973D01*
X38779Y-14881D01*
X38780Y-14782D01*
X38780Y-17568D01*
X38689Y-17658D01*
X38625Y-17815D01*
X38624Y-17900D01*
X38130Y-18395D01*
X38130Y-15019D01*
X38130Y-14532D01*
X38130Y-14432D01*
X38130Y-13944D01*
X38130Y-12855D01*
X38130Y-12368D01*
X37642Y-12368D01*
X37580Y-12430D01*
X37579Y-12618D01*
X37580Y-12717D01*
X37618Y-12809D01*
X37688Y-12880D01*
X37780Y-12918D01*
X38067Y-12918D01*
X38130Y-12855D01*
X38130Y-13944D01*
X38067Y-13882D01*
X37780Y-13881D01*
X37688Y-13919D01*
X37618Y-13990D01*
X37580Y-14082D01*
X37579Y-14181D01*
X37580Y-14369D01*
X37642Y-14432D01*
X38130Y-14432D01*
X38130Y-14532D01*
X37642Y-14532D01*
X37580Y-14594D01*
X37579Y-14782D01*
X37580Y-14881D01*
X37618Y-14973D01*
X37688Y-15044D01*
X37780Y-15082D01*
X38067Y-15082D01*
X38130Y-15019D01*
X38130Y-18395D01*
X37375Y-19149D01*
X37126Y-19149D01*
X37126Y-14782D01*
X37126Y-14181D01*
X37125Y-14082D01*
X37087Y-13990D01*
X37017Y-13919D01*
X36925Y-13881D01*
X36638Y-13882D01*
X36576Y-13944D01*
X36576Y-14432D01*
X37063Y-14432D01*
X37126Y-14369D01*
X37126Y-14181D01*
X37126Y-14782D01*
X37126Y-14594D01*
X37063Y-14532D01*
X36576Y-14532D01*
X36576Y-15019D01*
X36638Y-15082D01*
X36925Y-15082D01*
X37017Y-15044D01*
X37087Y-14973D01*
X37125Y-14881D01*
X37126Y-14782D01*
X37126Y-19149D01*
X36476Y-19149D01*
X36476Y-15019D01*
X36476Y-14532D01*
X36476Y-14432D01*
X36476Y-13944D01*
X36413Y-13882D01*
X36126Y-13881D01*
X36034Y-13919D01*
X35964Y-13990D01*
X35926Y-14082D01*
X35925Y-14181D01*
X35926Y-14369D01*
X35988Y-14432D01*
X36476Y-14432D01*
X36476Y-14532D01*
X35988Y-14532D01*
X35926Y-14594D01*
X35925Y-14782D01*
X35926Y-14881D01*
X35964Y-14973D01*
X36034Y-15044D01*
X36126Y-15082D01*
X36413Y-15082D01*
X36476Y-15019D01*
X36476Y-19149D01*
X36394Y-19149D01*
X36454Y-18981D01*
X36443Y-18763D01*
X36381Y-18612D01*
X36285Y-18584D01*
X35970Y-18900D01*
X35976Y-18905D01*
X35905Y-18976D01*
X35900Y-18970D01*
X35894Y-18976D01*
X35823Y-18905D01*
X35829Y-18900D01*
X35514Y-18584D01*
X35418Y-18612D01*
X35399Y-18667D01*
X35366Y-18588D01*
X35211Y-18434D01*
X35130Y-18400D01*
X35211Y-18366D01*
X35365Y-18211D01*
X35399Y-18130D01*
X35433Y-18211D01*
X35588Y-18365D01*
X35663Y-18397D01*
X35612Y-18418D01*
X35584Y-18514D01*
X35900Y-18829D01*
X36215Y-18514D01*
X36187Y-18418D01*
X36132Y-18399D01*
X36211Y-18366D01*
X36365Y-18211D01*
X36449Y-18009D01*
X36450Y-17791D01*
X36366Y-17588D01*
X36211Y-17434D01*
X36130Y-17400D01*
X36211Y-17366D01*
X36365Y-17211D01*
X36449Y-17009D01*
X36450Y-16791D01*
X36366Y-16588D01*
X36211Y-16434D01*
X36009Y-16350D01*
X35791Y-16349D01*
X35588Y-16433D01*
X35474Y-16548D01*
X35474Y-14782D01*
X35474Y-14181D01*
X35474Y-12618D01*
X35474Y-12430D01*
X35411Y-12368D01*
X34924Y-12368D01*
X34924Y-12855D01*
X34986Y-12918D01*
X35273Y-12918D01*
X35365Y-12880D01*
X35435Y-12809D01*
X35473Y-12717D01*
X35474Y-12618D01*
X35474Y-14181D01*
X35473Y-14082D01*
X35435Y-13990D01*
X35365Y-13919D01*
X35273Y-13881D01*
X34986Y-13882D01*
X34924Y-13944D01*
X34924Y-14432D01*
X35411Y-14432D01*
X35474Y-14369D01*
X35474Y-14181D01*
X35474Y-14782D01*
X35474Y-14594D01*
X35411Y-14532D01*
X34924Y-14532D01*
X34924Y-15019D01*
X34986Y-15082D01*
X35273Y-15082D01*
X35365Y-15044D01*
X35435Y-14973D01*
X35473Y-14881D01*
X35474Y-14782D01*
X35474Y-16548D01*
X35434Y-16588D01*
X35400Y-16669D01*
X35366Y-16588D01*
X35211Y-16434D01*
X35009Y-16350D01*
X34824Y-16349D01*
X34824Y-15019D01*
X34824Y-14532D01*
X34824Y-14432D01*
X34824Y-13944D01*
X34824Y-12855D01*
X34824Y-12368D01*
X34336Y-12368D01*
X34274Y-12430D01*
X34273Y-12618D01*
X34274Y-12717D01*
X34312Y-12809D01*
X34382Y-12880D01*
X34474Y-12918D01*
X34761Y-12918D01*
X34824Y-12855D01*
X34824Y-13944D01*
X34761Y-13882D01*
X34474Y-13881D01*
X34382Y-13919D01*
X34312Y-13990D01*
X34274Y-14082D01*
X34273Y-14181D01*
X34274Y-14369D01*
X34336Y-14432D01*
X34824Y-14432D01*
X34824Y-14532D01*
X34336Y-14532D01*
X34274Y-14594D01*
X34273Y-14782D01*
X34274Y-14881D01*
X34312Y-14973D01*
X34382Y-15044D01*
X34474Y-15082D01*
X34761Y-15082D01*
X34824Y-15019D01*
X34824Y-16349D01*
X34791Y-16349D01*
X34588Y-16433D01*
X34434Y-16588D01*
X34350Y-16790D01*
X34349Y-17008D01*
X34433Y-17211D01*
X34588Y-17365D01*
X34669Y-17399D01*
X34588Y-17433D01*
X34434Y-17588D01*
X34350Y-17790D01*
X34349Y-18008D01*
X34433Y-18211D01*
X34588Y-18365D01*
X34669Y-18399D01*
X34588Y-18433D01*
X34434Y-18588D01*
X34354Y-18780D01*
X33998Y-18424D01*
X33998Y-17354D01*
X33998Y-16745D01*
X33998Y-16645D01*
X33960Y-16553D01*
X33906Y-16500D01*
X33960Y-16446D01*
X33998Y-16354D01*
X33998Y-16254D01*
X33998Y-15645D01*
X33998Y-15545D01*
X33960Y-15453D01*
X33889Y-15383D01*
X33798Y-15345D01*
X33546Y-15345D01*
X33484Y-15408D01*
X33484Y-15900D01*
X33936Y-15900D01*
X33998Y-15837D01*
X33998Y-15645D01*
X33998Y-16254D01*
X33998Y-16062D01*
X33936Y-16000D01*
X33484Y-16000D01*
X33484Y-16492D01*
X33492Y-16500D01*
X33484Y-16508D01*
X33484Y-17000D01*
X33936Y-17000D01*
X33998Y-16937D01*
X33998Y-16745D01*
X33998Y-17354D01*
X33998Y-17162D01*
X33936Y-17100D01*
X33484Y-17100D01*
X33484Y-17592D01*
X33546Y-17654D01*
X33798Y-17654D01*
X33889Y-17616D01*
X33960Y-17546D01*
X33998Y-17454D01*
X33998Y-17354D01*
X33998Y-18424D01*
X33228Y-17654D01*
X33321Y-17654D01*
X33384Y-17592D01*
X33384Y-17100D01*
X33376Y-17100D01*
X33376Y-17000D01*
X33384Y-17000D01*
X33384Y-16508D01*
X33376Y-16500D01*
X33384Y-16492D01*
X33384Y-16000D01*
X33376Y-16000D01*
X33376Y-15900D01*
X33384Y-15900D01*
X33384Y-15408D01*
X33321Y-15345D01*
X33069Y-15345D01*
X32978Y-15383D01*
X32907Y-15453D01*
X32874Y-15532D01*
X32842Y-15454D01*
X32772Y-15383D01*
X32680Y-15345D01*
X32580Y-15345D01*
X32167Y-15345D01*
X32167Y-14782D01*
X32167Y-14181D01*
X32166Y-14082D01*
X32128Y-13990D01*
X32058Y-13919D01*
X31966Y-13881D01*
X31679Y-13882D01*
X31617Y-13944D01*
X31617Y-14432D01*
X32104Y-14432D01*
X32167Y-14369D01*
X32167Y-14181D01*
X32167Y-14782D01*
X32167Y-14594D01*
X32104Y-14532D01*
X31617Y-14532D01*
X31617Y-15019D01*
X31679Y-15082D01*
X31966Y-15082D01*
X32058Y-15044D01*
X32128Y-14973D01*
X32166Y-14881D01*
X32167Y-14782D01*
X32167Y-15345D01*
X31951Y-15345D01*
X31914Y-15360D01*
X31891Y-15338D01*
X31799Y-15300D01*
X31700Y-15299D01*
X31497Y-15299D01*
X31524Y-15234D01*
X31525Y-15065D01*
X31509Y-15027D01*
X31517Y-15019D01*
X31517Y-14532D01*
X31517Y-14432D01*
X31517Y-13944D01*
X31517Y-12855D01*
X31517Y-12368D01*
X31517Y-12268D01*
X31517Y-11780D01*
X31454Y-11718D01*
X31167Y-11717D01*
X31075Y-11755D01*
X31005Y-11826D01*
X30967Y-11918D01*
X30966Y-12017D01*
X30967Y-12205D01*
X31029Y-12268D01*
X31517Y-12268D01*
X31517Y-12368D01*
X31029Y-12368D01*
X30967Y-12430D01*
X30966Y-12618D01*
X30967Y-12717D01*
X31005Y-12809D01*
X31075Y-12880D01*
X31167Y-12918D01*
X31454Y-12918D01*
X31517Y-12855D01*
X31517Y-13944D01*
X31454Y-13882D01*
X31167Y-13881D01*
X31075Y-13919D01*
X31005Y-13990D01*
X30967Y-14082D01*
X30966Y-14181D01*
X30967Y-14369D01*
X31029Y-14432D01*
X31517Y-14432D01*
X31517Y-14532D01*
X31029Y-14532D01*
X30967Y-14594D01*
X30966Y-14745D01*
X30877Y-14781D01*
X30513Y-14781D01*
X30513Y-14082D01*
X30475Y-13990D01*
X30404Y-13920D01*
X30312Y-13882D01*
X30213Y-13881D01*
X29513Y-13881D01*
X29421Y-13919D01*
X29351Y-13990D01*
X29313Y-14082D01*
X29312Y-14181D01*
X29312Y-14781D01*
X29002Y-14781D01*
X28860Y-14639D01*
X28860Y-14082D01*
X28822Y-13990D01*
X28751Y-13920D01*
X28659Y-13882D01*
X28628Y-13882D01*
X28628Y-12918D01*
X28659Y-12918D01*
X28751Y-12880D01*
X28821Y-12809D01*
X28859Y-12717D01*
X28860Y-12618D01*
X28860Y-11918D01*
X28822Y-11826D01*
X28795Y-11800D01*
X29377Y-11800D01*
X29351Y-11826D01*
X29313Y-11918D01*
X29312Y-12017D01*
X29312Y-12717D01*
X29350Y-12809D01*
X29421Y-12879D01*
X29513Y-12917D01*
X29612Y-12918D01*
X30312Y-12918D01*
X30404Y-12880D01*
X30474Y-12809D01*
X30512Y-12717D01*
X30513Y-12618D01*
X30513Y-11918D01*
X30475Y-11826D01*
X30404Y-11756D01*
X30312Y-11718D01*
X30213Y-11717D01*
X29628Y-11717D01*
X29637Y-11712D01*
X31062Y-10287D01*
X31062Y-10287D01*
X31127Y-10189D01*
X31149Y-10075D01*
X31150Y-10075D01*
X31150Y-9563D01*
X31238Y-9503D01*
X31350Y-9337D01*
X31461Y-9503D01*
X31639Y-9622D01*
X31850Y-9664D01*
X32060Y-9622D01*
X32238Y-9503D01*
X32350Y-9337D01*
X32461Y-9503D01*
X32550Y-9563D01*
X32550Y-9930D01*
X32550Y-10800D01*
X32550Y-10900D01*
X32550Y-11125D01*
X32237Y-11437D01*
X32172Y-11535D01*
X32150Y-11650D01*
X32150Y-11877D01*
X32128Y-11826D01*
X32058Y-11755D01*
X31966Y-11717D01*
X31679Y-11718D01*
X31617Y-11780D01*
X31617Y-12268D01*
X31624Y-12268D01*
X31624Y-12368D01*
X31617Y-12368D01*
X31617Y-12855D01*
X31679Y-12918D01*
X31966Y-12918D01*
X32058Y-12880D01*
X32128Y-12809D01*
X32150Y-12758D01*
X32150Y-13712D01*
X32172Y-13826D01*
X32237Y-13924D01*
X32619Y-14306D01*
X32619Y-14881D01*
X32657Y-14973D01*
X32728Y-15043D01*
X32820Y-15081D01*
X32919Y-15082D01*
X33619Y-15082D01*
X33711Y-15044D01*
X33781Y-14973D01*
X33819Y-14881D01*
X33820Y-14782D01*
X33820Y-14082D01*
X33782Y-13990D01*
X33711Y-13920D01*
X33619Y-13882D01*
X33520Y-13881D01*
X33044Y-13881D01*
X32750Y-13587D01*
X32750Y-12888D01*
X32820Y-12917D01*
X32919Y-12918D01*
X33619Y-12918D01*
X33711Y-12880D01*
X33781Y-12809D01*
X33819Y-12717D01*
X33820Y-12618D01*
X33820Y-12050D01*
X33852Y-12018D01*
X34273Y-12018D01*
X34274Y-12205D01*
X34336Y-12268D01*
X34824Y-12268D01*
X34824Y-12260D01*
X34924Y-12260D01*
X34924Y-12268D01*
X35411Y-12268D01*
X35474Y-12205D01*
X35474Y-12018D01*
X35705Y-12018D01*
X35925Y-12238D01*
X35925Y-12717D01*
X35963Y-12809D01*
X36034Y-12879D01*
X36126Y-12917D01*
X36225Y-12918D01*
X36925Y-12918D01*
X37017Y-12880D01*
X37087Y-12809D01*
X37125Y-12717D01*
X37126Y-12618D01*
X37126Y-11994D01*
X37127Y-11993D01*
X37579Y-11993D01*
X37579Y-12017D01*
X37580Y-12205D01*
X37642Y-12268D01*
X38130Y-12268D01*
X38130Y-12260D01*
X38230Y-12260D01*
X38230Y-12268D01*
X38717Y-12268D01*
X38780Y-12205D01*
X38780Y-12017D01*
X38780Y-11993D01*
X39232Y-11993D01*
X39232Y-12017D01*
X39232Y-12717D01*
X39270Y-12809D01*
X39341Y-12879D01*
X39433Y-12917D01*
X39532Y-12918D01*
X40232Y-12918D01*
X40324Y-12880D01*
X40394Y-12809D01*
X40432Y-12717D01*
X40433Y-12618D01*
X40433Y-11993D01*
X40886Y-11993D01*
X40886Y-12017D01*
X40886Y-12717D01*
X40924Y-12809D01*
X40995Y-12879D01*
X41087Y-12917D01*
X41186Y-12918D01*
X41886Y-12918D01*
X41978Y-12880D01*
X42048Y-12809D01*
X42086Y-12717D01*
X42087Y-12618D01*
X42087Y-11993D01*
X42539Y-11993D01*
X42539Y-12017D01*
X42539Y-12717D01*
X42577Y-12809D01*
X42648Y-12879D01*
X42740Y-12917D01*
X42839Y-12918D01*
X43539Y-12918D01*
X43581Y-12900D01*
X43581Y-13519D01*
X43581Y-13519D01*
G37*
G54D33*
X43581Y-13519D02*
X43219Y-13881D01*
X42740Y-13881D01*
X42648Y-13919D01*
X42578Y-13990D01*
X42540Y-14082D01*
X42540Y-14113D01*
X42087Y-14113D01*
X42087Y-14082D01*
X42049Y-13990D01*
X41978Y-13920D01*
X41886Y-13882D01*
X41787Y-13881D01*
X41087Y-13881D01*
X40995Y-13919D01*
X40925Y-13990D01*
X40887Y-14082D01*
X40886Y-14181D01*
X40886Y-14881D01*
X40924Y-14973D01*
X40927Y-14975D01*
X40393Y-14975D01*
X40394Y-14973D01*
X40432Y-14881D01*
X40433Y-14782D01*
X40433Y-14082D01*
X40395Y-13990D01*
X40324Y-13920D01*
X40232Y-13882D01*
X40133Y-13881D01*
X39433Y-13881D01*
X39341Y-13919D01*
X39271Y-13990D01*
X39233Y-14082D01*
X39232Y-14181D01*
X39232Y-14881D01*
X39270Y-14973D01*
X39341Y-15043D01*
X39433Y-15081D01*
X39532Y-15082D01*
X39962Y-15082D01*
X39735Y-15309D01*
X39641Y-15214D01*
X39484Y-15150D01*
X39315Y-15149D01*
X39159Y-15214D01*
X39039Y-15333D01*
X38975Y-15490D01*
X38974Y-15659D01*
X39039Y-15815D01*
X39149Y-15925D01*
X39144Y-15932D01*
X39127Y-16015D01*
X39078Y-16035D01*
X39008Y-16105D01*
X38970Y-16197D01*
X38969Y-16297D01*
X38969Y-16612D01*
X39007Y-16703D01*
X39078Y-16774D01*
X39091Y-16780D01*
X39078Y-16785D01*
X39007Y-16856D01*
X38969Y-16947D01*
X38970Y-17042D01*
X39032Y-17105D01*
X39367Y-17105D01*
X39367Y-17097D01*
X39467Y-17097D01*
X39467Y-17105D01*
X39801Y-17105D01*
X39860Y-17046D01*
X39873Y-17078D01*
X39908Y-17113D01*
X39838Y-17183D01*
X39821Y-17224D01*
X39801Y-17205D01*
X39467Y-17205D01*
X39467Y-17500D01*
X39508Y-17541D01*
X39400Y-17649D01*
X39309Y-17557D01*
X39367Y-17500D01*
X39367Y-17205D01*
X39032Y-17205D01*
X38970Y-17267D01*
X38969Y-17362D01*
X39007Y-17453D01*
X39028Y-17474D01*
X38965Y-17474D01*
X38809Y-17539D01*
X38780Y-17568D01*
X38780Y-14782D01*
X38780Y-14181D01*
X38780Y-12618D01*
X38780Y-12430D01*
X38717Y-12368D01*
X38230Y-12368D01*
X38230Y-12855D01*
X38292Y-12918D01*
X38579Y-12918D01*
X38671Y-12880D01*
X38741Y-12809D01*
X38779Y-12717D01*
X38780Y-12618D01*
X38780Y-14181D01*
X38779Y-14082D01*
X38741Y-13990D01*
X38671Y-13919D01*
X38579Y-13881D01*
X38292Y-13882D01*
X38230Y-13944D01*
X38230Y-14432D01*
X38717Y-14432D01*
X38780Y-14369D01*
X38780Y-14181D01*
X38780Y-14782D01*
X38780Y-14594D01*
X38717Y-14532D01*
X38230Y-14532D01*
X38230Y-15019D01*
X38292Y-15082D01*
X38579Y-15082D01*
X38671Y-15044D01*
X38741Y-14973D01*
X38779Y-14881D01*
X38780Y-14782D01*
X38780Y-17568D01*
X38689Y-17658D01*
X38625Y-17815D01*
X38624Y-17900D01*
X38130Y-18395D01*
X38130Y-15019D01*
X38130Y-14532D01*
X38130Y-14432D01*
X38130Y-13944D01*
X38130Y-12855D01*
X38130Y-12368D01*
X37642Y-12368D01*
X37580Y-12430D01*
X37579Y-12618D01*
X37580Y-12717D01*
X37618Y-12809D01*
X37688Y-12880D01*
X37780Y-12918D01*
X38067Y-12918D01*
X38130Y-12855D01*
X38130Y-13944D01*
X38067Y-13882D01*
X37780Y-13881D01*
X37688Y-13919D01*
X37618Y-13990D01*
X37580Y-14082D01*
X37579Y-14181D01*
X37580Y-14369D01*
X37642Y-14432D01*
X38130Y-14432D01*
X38130Y-14532D01*
X37642Y-14532D01*
X37580Y-14594D01*
X37579Y-14782D01*
X37580Y-14881D01*
X37618Y-14973D01*
X37688Y-15044D01*
X37780Y-15082D01*
X38067Y-15082D01*
X38130Y-15019D01*
X38130Y-18395D01*
X37375Y-19149D01*
X37126Y-19149D01*
X37126Y-14782D01*
X37126Y-14181D01*
X37125Y-14082D01*
X37087Y-13990D01*
X37017Y-13919D01*
X36925Y-13881D01*
X36638Y-13882D01*
X36576Y-13944D01*
X36576Y-14432D01*
X37063Y-14432D01*
X37126Y-14369D01*
X37126Y-14181D01*
X37126Y-14782D01*
X37126Y-14594D01*
X37063Y-14532D01*
X36576Y-14532D01*
X36576Y-15019D01*
X36638Y-15082D01*
X36925Y-15082D01*
X37017Y-15044D01*
X37087Y-14973D01*
X37125Y-14881D01*
X37126Y-14782D01*
X37126Y-19149D01*
X36476Y-19149D01*
X36476Y-15019D01*
X36476Y-14532D01*
X36476Y-14432D01*
X36476Y-13944D01*
X36413Y-13882D01*
X36126Y-13881D01*
X36034Y-13919D01*
X35964Y-13990D01*
X35926Y-14082D01*
X35925Y-14181D01*
X35926Y-14369D01*
X35988Y-14432D01*
X36476Y-14432D01*
X36476Y-14532D01*
X35988Y-14532D01*
X35926Y-14594D01*
X35925Y-14782D01*
X35926Y-14881D01*
X35964Y-14973D01*
X36034Y-15044D01*
X36126Y-15082D01*
X36413Y-15082D01*
X36476Y-15019D01*
X36476Y-19149D01*
X36394Y-19149D01*
X36454Y-18981D01*
X36443Y-18763D01*
X36381Y-18612D01*
X36285Y-18584D01*
X35970Y-18900D01*
X35976Y-18905D01*
X35905Y-18976D01*
X35900Y-18970D01*
X35894Y-18976D01*
X35823Y-18905D01*
X35829Y-18900D01*
X35514Y-18584D01*
X35418Y-18612D01*
X35399Y-18667D01*
X35366Y-18588D01*
X35211Y-18434D01*
X35130Y-18400D01*
X35211Y-18366D01*
X35365Y-18211D01*
X35399Y-18130D01*
X35433Y-18211D01*
X35588Y-18365D01*
X35663Y-18397D01*
X35612Y-18418D01*
X35584Y-18514D01*
X35900Y-18829D01*
X36215Y-18514D01*
X36187Y-18418D01*
X36132Y-18399D01*
X36211Y-18366D01*
X36365Y-18211D01*
X36449Y-18009D01*
X36450Y-17791D01*
X36366Y-17588D01*
X36211Y-17434D01*
X36130Y-17400D01*
X36211Y-17366D01*
X36365Y-17211D01*
X36449Y-17009D01*
X36450Y-16791D01*
X36366Y-16588D01*
X36211Y-16434D01*
X36009Y-16350D01*
X35791Y-16349D01*
X35588Y-16433D01*
X35474Y-16548D01*
X35474Y-14782D01*
X35474Y-14181D01*
X35474Y-12618D01*
X35474Y-12430D01*
X35411Y-12368D01*
X34924Y-12368D01*
X34924Y-12855D01*
X34986Y-12918D01*
X35273Y-12918D01*
X35365Y-12880D01*
X35435Y-12809D01*
X35473Y-12717D01*
X35474Y-12618D01*
X35474Y-14181D01*
X35473Y-14082D01*
X35435Y-13990D01*
X35365Y-13919D01*
X35273Y-13881D01*
X34986Y-13882D01*
X34924Y-13944D01*
X34924Y-14432D01*
X35411Y-14432D01*
X35474Y-14369D01*
X35474Y-14181D01*
X35474Y-14782D01*
X35474Y-14594D01*
X35411Y-14532D01*
X34924Y-14532D01*
X34924Y-15019D01*
X34986Y-15082D01*
X35273Y-15082D01*
X35365Y-15044D01*
X35435Y-14973D01*
X35473Y-14881D01*
X35474Y-14782D01*
X35474Y-16548D01*
X35434Y-16588D01*
X35400Y-16669D01*
X35366Y-16588D01*
X35211Y-16434D01*
X35009Y-16350D01*
X34824Y-16349D01*
X34824Y-15019D01*
X34824Y-14532D01*
X34824Y-14432D01*
X34824Y-13944D01*
X34824Y-12855D01*
X34824Y-12368D01*
X34336Y-12368D01*
X34274Y-12430D01*
X34273Y-12618D01*
X34274Y-12717D01*
X34312Y-12809D01*
X34382Y-12880D01*
X34474Y-12918D01*
X34761Y-12918D01*
X34824Y-12855D01*
X34824Y-13944D01*
X34761Y-13882D01*
X34474Y-13881D01*
X34382Y-13919D01*
X34312Y-13990D01*
X34274Y-14082D01*
X34273Y-14181D01*
X34274Y-14369D01*
X34336Y-14432D01*
X34824Y-14432D01*
X34824Y-14532D01*
X34336Y-14532D01*
X34274Y-14594D01*
X34273Y-14782D01*
X34274Y-14881D01*
X34312Y-14973D01*
X34382Y-15044D01*
X34474Y-15082D01*
X34761Y-15082D01*
X34824Y-15019D01*
X34824Y-16349D01*
X34791Y-16349D01*
X34588Y-16433D01*
X34434Y-16588D01*
X34350Y-16790D01*
X34349Y-17008D01*
X34433Y-17211D01*
X34588Y-17365D01*
X34669Y-17399D01*
X34588Y-17433D01*
X34434Y-17588D01*
X34350Y-17790D01*
X34349Y-18008D01*
X34433Y-18211D01*
X34588Y-18365D01*
X34669Y-18399D01*
X34588Y-18433D01*
X34434Y-18588D01*
X34354Y-18780D01*
X33998Y-18424D01*
X33998Y-17354D01*
X33998Y-16745D01*
X33998Y-16645D01*
X33960Y-16553D01*
X33906Y-16500D01*
X33960Y-16446D01*
X33998Y-16354D01*
X33998Y-16254D01*
X33998Y-15645D01*
X33998Y-15545D01*
X33960Y-15453D01*
X33889Y-15383D01*
X33798Y-15345D01*
X33546Y-15345D01*
X33484Y-15408D01*
X33484Y-15900D01*
X33936Y-15900D01*
X33998Y-15837D01*
X33998Y-15645D01*
X33998Y-16254D01*
X33998Y-16062D01*
X33936Y-16000D01*
X33484Y-16000D01*
X33484Y-16492D01*
X33492Y-16500D01*
X33484Y-16508D01*
X33484Y-17000D01*
X33936Y-17000D01*
X33998Y-16937D01*
X33998Y-16745D01*
X33998Y-17354D01*
X33998Y-17162D01*
X33936Y-17100D01*
X33484Y-17100D01*
X33484Y-17592D01*
X33546Y-17654D01*
X33798Y-17654D01*
X33889Y-17616D01*
X33960Y-17546D01*
X33998Y-17454D01*
X33998Y-17354D01*
X33998Y-18424D01*
X33228Y-17654D01*
X33321Y-17654D01*
X33384Y-17592D01*
X33384Y-17100D01*
X33376Y-17100D01*
X33376Y-17000D01*
X33384Y-17000D01*
X33384Y-16508D01*
X33376Y-16500D01*
X33384Y-16492D01*
X33384Y-16000D01*
X33376Y-16000D01*
X33376Y-15900D01*
X33384Y-15900D01*
X33384Y-15408D01*
X33321Y-15345D01*
X33069Y-15345D01*
X32978Y-15383D01*
X32907Y-15453D01*
X32874Y-15532D01*
X32842Y-15454D01*
X32772Y-15383D01*
X32680Y-15345D01*
X32580Y-15345D01*
X32167Y-15345D01*
X32167Y-14782D01*
X32167Y-14181D01*
X32166Y-14082D01*
X32128Y-13990D01*
X32058Y-13919D01*
X31966Y-13881D01*
X31679Y-13882D01*
X31617Y-13944D01*
X31617Y-14432D01*
X32104Y-14432D01*
X32167Y-14369D01*
X32167Y-14181D01*
X32167Y-14782D01*
X32167Y-14594D01*
X32104Y-14532D01*
X31617Y-14532D01*
X31617Y-15019D01*
X31679Y-15082D01*
X31966Y-15082D01*
X32058Y-15044D01*
X32128Y-14973D01*
X32166Y-14881D01*
X32167Y-14782D01*
X32167Y-15345D01*
X31951Y-15345D01*
X31914Y-15360D01*
X31891Y-15338D01*
X31799Y-15300D01*
X31700Y-15299D01*
X31497Y-15299D01*
X31524Y-15234D01*
X31525Y-15065D01*
X31509Y-15027D01*
X31517Y-15019D01*
X31517Y-14532D01*
X31517Y-14432D01*
X31517Y-13944D01*
X31517Y-12855D01*
X31517Y-12368D01*
X31517Y-12268D01*
X31517Y-11780D01*
X31454Y-11718D01*
X31167Y-11717D01*
X31075Y-11755D01*
X31005Y-11826D01*
X30967Y-11918D01*
X30966Y-12017D01*
X30967Y-12205D01*
X31029Y-12268D01*
X31517Y-12268D01*
X31517Y-12368D01*
X31029Y-12368D01*
X30967Y-12430D01*
X30966Y-12618D01*
X30967Y-12717D01*
X31005Y-12809D01*
X31075Y-12880D01*
X31167Y-12918D01*
X31454Y-12918D01*
X31517Y-12855D01*
X31517Y-13944D01*
X31454Y-13882D01*
X31167Y-13881D01*
X31075Y-13919D01*
X31005Y-13990D01*
X30967Y-14082D01*
X30966Y-14181D01*
X30967Y-14369D01*
X31029Y-14432D01*
X31517Y-14432D01*
X31517Y-14532D01*
X31029Y-14532D01*
X30967Y-14594D01*
X30966Y-14745D01*
X30877Y-14781D01*
X30513Y-14781D01*
X30513Y-14082D01*
X30475Y-13990D01*
X30404Y-13920D01*
X30312Y-13882D01*
X30213Y-13881D01*
X29513Y-13881D01*
X29421Y-13919D01*
X29351Y-13990D01*
X29313Y-14082D01*
X29312Y-14181D01*
X29312Y-14781D01*
X29002Y-14781D01*
X28860Y-14639D01*
X28860Y-14082D01*
X28822Y-13990D01*
X28751Y-13920D01*
X28659Y-13882D01*
X28628Y-13882D01*
X28628Y-12918D01*
X28659Y-12918D01*
X28751Y-12880D01*
X28821Y-12809D01*
X28859Y-12717D01*
X28860Y-12618D01*
X28860Y-11918D01*
X28822Y-11826D01*
X28795Y-11800D01*
X29377Y-11800D01*
X29351Y-11826D01*
X29313Y-11918D01*
X29312Y-12017D01*
X29312Y-12717D01*
X29350Y-12809D01*
X29421Y-12879D01*
X29513Y-12917D01*
X29612Y-12918D01*
X30312Y-12918D01*
X30404Y-12880D01*
X30474Y-12809D01*
X30512Y-12717D01*
X30513Y-12618D01*
X30513Y-11918D01*
X30475Y-11826D01*
X30404Y-11756D01*
X30312Y-11718D01*
X30213Y-11717D01*
X29628Y-11717D01*
X29637Y-11712D01*
X31062Y-10287D01*
X31062Y-10287D01*
X31127Y-10189D01*
X31149Y-10075D01*
X31150Y-10075D01*
X31150Y-9563D01*
X31238Y-9503D01*
X31350Y-9337D01*
X31461Y-9503D01*
X31639Y-9622D01*
X31850Y-9664D01*
X32060Y-9622D01*
X32238Y-9503D01*
X32350Y-9337D01*
X32461Y-9503D01*
X32550Y-9563D01*
X32550Y-9930D01*
X32550Y-10800D01*
X32550Y-10900D01*
X32550Y-11125D01*
X32237Y-11437D01*
X32172Y-11535D01*
X32150Y-11650D01*
X32150Y-11877D01*
X32128Y-11826D01*
X32058Y-11755D01*
X31966Y-11717D01*
X31679Y-11718D01*
X31617Y-11780D01*
X31617Y-12268D01*
X31624Y-12268D01*
X31624Y-12368D01*
X31617Y-12368D01*
X31617Y-12855D01*
X31679Y-12918D01*
X31966Y-12918D01*
X32058Y-12880D01*
X32128Y-12809D01*
X32150Y-12758D01*
X32150Y-13712D01*
X32172Y-13826D01*
X32237Y-13924D01*
X32619Y-14306D01*
X32619Y-14881D01*
X32657Y-14973D01*
X32728Y-15043D01*
X32820Y-15081D01*
X32919Y-15082D01*
X33619Y-15082D01*
X33711Y-15044D01*
X33781Y-14973D01*
X33819Y-14881D01*
X33820Y-14782D01*
X33820Y-14082D01*
X33782Y-13990D01*
X33711Y-13920D01*
X33619Y-13882D01*
X33520Y-13881D01*
X33044Y-13881D01*
X32750Y-13587D01*
X32750Y-12888D01*
X32820Y-12917D01*
X32919Y-12918D01*
X33619Y-12918D01*
X33711Y-12880D01*
X33781Y-12809D01*
X33819Y-12717D01*
X33820Y-12618D01*
X33820Y-12050D01*
X33852Y-12018D01*
X34273Y-12018D01*
X34274Y-12205D01*
X34336Y-12268D01*
X34824Y-12268D01*
X34824Y-12260D01*
X34924Y-12260D01*
X34924Y-12268D01*
X35411Y-12268D01*
X35474Y-12205D01*
X35474Y-12018D01*
X35705Y-12018D01*
X35925Y-12238D01*
X35925Y-12717D01*
X35963Y-12809D01*
X36034Y-12879D01*
X36126Y-12917D01*
X36225Y-12918D01*
X36925Y-12918D01*
X37017Y-12880D01*
X37087Y-12809D01*
X37125Y-12717D01*
X37126Y-12618D01*
X37126Y-11994D01*
X37127Y-11993D01*
X37579Y-11993D01*
X37579Y-12017D01*
X37580Y-12205D01*
X37642Y-12268D01*
X38130Y-12268D01*
X38130Y-12260D01*
X38230Y-12260D01*
X38230Y-12268D01*
X38717Y-12268D01*
X38780Y-12205D01*
X38780Y-12017D01*
X38780Y-11993D01*
X39232Y-11993D01*
X39232Y-12017D01*
X39232Y-12717D01*
X39270Y-12809D01*
X39341Y-12879D01*
X39433Y-12917D01*
X39532Y-12918D01*
X40232Y-12918D01*
X40324Y-12880D01*
X40394Y-12809D01*
X40432Y-12717D01*
X40433Y-12618D01*
X40433Y-11993D01*
X40886Y-11993D01*
X40886Y-12017D01*
X40886Y-12717D01*
X40924Y-12809D01*
X40995Y-12879D01*
X41087Y-12917D01*
X41186Y-12918D01*
X41886Y-12918D01*
X41978Y-12880D01*
X42048Y-12809D01*
X42086Y-12717D01*
X42087Y-12618D01*
X42087Y-11993D01*
X42539Y-11993D01*
X42539Y-12017D01*
X42539Y-12717D01*
X42577Y-12809D01*
X42648Y-12879D01*
X42740Y-12917D01*
X42839Y-12918D01*
X43539Y-12918D01*
X43581Y-12900D01*
X43581Y-13519D01*
G54D10*
G36*
X44188Y-11367D02*
X44185Y-11364D01*
X44065Y-11284D01*
X43925Y-11256D01*
X41048Y-11256D01*
X41160Y-11210D01*
X41280Y-11091D01*
X41344Y-10934D01*
X41345Y-10765D01*
X41280Y-10609D01*
X41161Y-10489D01*
X41004Y-10425D01*
X40919Y-10424D01*
X40907Y-10412D01*
X40809Y-10347D01*
X40695Y-10325D01*
X36325Y-10325D01*
X36325Y-10175D01*
X36287Y-10083D01*
X36216Y-10013D01*
X36124Y-9975D01*
X36025Y-9974D01*
X35425Y-9974D01*
X35333Y-10012D01*
X35263Y-10083D01*
X35225Y-10175D01*
X35224Y-10274D01*
X35224Y-11074D01*
X35262Y-11166D01*
X35333Y-11236D01*
X35425Y-11274D01*
X35524Y-11275D01*
X36124Y-11275D01*
X36216Y-11237D01*
X36286Y-11166D01*
X36324Y-11074D01*
X36325Y-10975D01*
X36325Y-10925D01*
X40494Y-10925D01*
X40494Y-10934D01*
X40559Y-11090D01*
X40678Y-11210D01*
X40791Y-11256D01*
X36975Y-11256D01*
X36974Y-11256D01*
X36951Y-11261D01*
X36834Y-11284D01*
X36714Y-11364D01*
X36714Y-11364D01*
X36714Y-11364D01*
X36404Y-11675D01*
X36118Y-11389D01*
X35998Y-11309D01*
X35858Y-11281D01*
X33700Y-11281D01*
X33559Y-11309D01*
X33439Y-11389D01*
X33111Y-11717D01*
X32820Y-11717D01*
X32796Y-11727D01*
X33062Y-11462D01*
X33062Y-11462D01*
X33127Y-11364D01*
X33149Y-11250D01*
X33150Y-11250D01*
X33150Y-11100D01*
X33935Y-11100D01*
X33962Y-11166D01*
X34033Y-11236D01*
X34125Y-11274D01*
X34224Y-11275D01*
X34824Y-11275D01*
X34916Y-11237D01*
X34986Y-11166D01*
X35024Y-11074D01*
X35025Y-10975D01*
X35025Y-10175D01*
X34987Y-10083D01*
X34916Y-10013D01*
X34824Y-9975D01*
X34725Y-9974D01*
X34125Y-9974D01*
X34033Y-10012D01*
X33963Y-10083D01*
X33925Y-10175D01*
X33924Y-10274D01*
X33924Y-10500D01*
X33150Y-10500D01*
X33150Y-9930D01*
X33150Y-9563D01*
X33238Y-9503D01*
X33350Y-9337D01*
X33461Y-9503D01*
X33639Y-9622D01*
X33850Y-9664D01*
X34060Y-9622D01*
X34238Y-9503D01*
X34350Y-9337D01*
X34461Y-9503D01*
X34639Y-9622D01*
X34850Y-9664D01*
X35060Y-9622D01*
X35238Y-9503D01*
X35358Y-9325D01*
X35400Y-9114D01*
X35400Y-8685D01*
X35358Y-8474D01*
X35238Y-8296D01*
X35132Y-8225D01*
X36567Y-8225D01*
X36461Y-8296D01*
X36341Y-8474D01*
X36300Y-8685D01*
X36300Y-9114D01*
X36341Y-9325D01*
X36461Y-9503D01*
X36639Y-9622D01*
X36850Y-9664D01*
X37060Y-9622D01*
X37238Y-9503D01*
X37350Y-9337D01*
X37461Y-9503D01*
X37639Y-9622D01*
X37850Y-9664D01*
X38060Y-9622D01*
X38238Y-9503D01*
X38350Y-9337D01*
X38461Y-9503D01*
X38639Y-9622D01*
X38850Y-9664D01*
X39060Y-9622D01*
X39238Y-9503D01*
X39350Y-9337D01*
X39461Y-9503D01*
X39639Y-9622D01*
X39850Y-9664D01*
X40060Y-9622D01*
X40238Y-9503D01*
X40350Y-9337D01*
X40461Y-9503D01*
X40639Y-9622D01*
X40850Y-9664D01*
X41060Y-9622D01*
X41238Y-9503D01*
X41350Y-9337D01*
X41461Y-9503D01*
X41639Y-9622D01*
X41850Y-9664D01*
X42060Y-9622D01*
X42238Y-9503D01*
X42350Y-9337D01*
X42461Y-9503D01*
X42639Y-9622D01*
X42850Y-9664D01*
X43060Y-9622D01*
X43238Y-9503D01*
X43350Y-9337D01*
X43461Y-9503D01*
X43639Y-9622D01*
X43850Y-9664D01*
X44060Y-9622D01*
X44113Y-9587D01*
X44188Y-9662D01*
X44188Y-11367D01*
X44188Y-11367D01*
G37*
G54D33*
X44188Y-11367D02*
X44185Y-11364D01*
X44065Y-11284D01*
X43925Y-11256D01*
X41048Y-11256D01*
X41160Y-11210D01*
X41280Y-11091D01*
X41344Y-10934D01*
X41345Y-10765D01*
X41280Y-10609D01*
X41161Y-10489D01*
X41004Y-10425D01*
X40919Y-10424D01*
X40907Y-10412D01*
X40809Y-10347D01*
X40695Y-10325D01*
X36325Y-10325D01*
X36325Y-10175D01*
X36287Y-10083D01*
X36216Y-10013D01*
X36124Y-9975D01*
X36025Y-9974D01*
X35425Y-9974D01*
X35333Y-10012D01*
X35263Y-10083D01*
X35225Y-10175D01*
X35224Y-10274D01*
X35224Y-11074D01*
X35262Y-11166D01*
X35333Y-11236D01*
X35425Y-11274D01*
X35524Y-11275D01*
X36124Y-11275D01*
X36216Y-11237D01*
X36286Y-11166D01*
X36324Y-11074D01*
X36325Y-10975D01*
X36325Y-10925D01*
X40494Y-10925D01*
X40494Y-10934D01*
X40559Y-11090D01*
X40678Y-11210D01*
X40791Y-11256D01*
X36975Y-11256D01*
X36974Y-11256D01*
X36951Y-11261D01*
X36834Y-11284D01*
X36714Y-11364D01*
X36714Y-11364D01*
X36714Y-11364D01*
X36404Y-11675D01*
X36118Y-11389D01*
X35998Y-11309D01*
X35858Y-11281D01*
X33700Y-11281D01*
X33559Y-11309D01*
X33439Y-11389D01*
X33111Y-11717D01*
X32820Y-11717D01*
X32796Y-11727D01*
X33062Y-11462D01*
X33062Y-11462D01*
X33127Y-11364D01*
X33149Y-11250D01*
X33150Y-11250D01*
X33150Y-11100D01*
X33935Y-11100D01*
X33962Y-11166D01*
X34033Y-11236D01*
X34125Y-11274D01*
X34224Y-11275D01*
X34824Y-11275D01*
X34916Y-11237D01*
X34986Y-11166D01*
X35024Y-11074D01*
X35025Y-10975D01*
X35025Y-10175D01*
X34987Y-10083D01*
X34916Y-10013D01*
X34824Y-9975D01*
X34725Y-9974D01*
X34125Y-9974D01*
X34033Y-10012D01*
X33963Y-10083D01*
X33925Y-10175D01*
X33924Y-10274D01*
X33924Y-10500D01*
X33150Y-10500D01*
X33150Y-9930D01*
X33150Y-9563D01*
X33238Y-9503D01*
X33350Y-9337D01*
X33461Y-9503D01*
X33639Y-9622D01*
X33850Y-9664D01*
X34060Y-9622D01*
X34238Y-9503D01*
X34350Y-9337D01*
X34461Y-9503D01*
X34639Y-9622D01*
X34850Y-9664D01*
X35060Y-9622D01*
X35238Y-9503D01*
X35358Y-9325D01*
X35400Y-9114D01*
X35400Y-8685D01*
X35358Y-8474D01*
X35238Y-8296D01*
X35132Y-8225D01*
X36567Y-8225D01*
X36461Y-8296D01*
X36341Y-8474D01*
X36300Y-8685D01*
X36300Y-9114D01*
X36341Y-9325D01*
X36461Y-9503D01*
X36639Y-9622D01*
X36850Y-9664D01*
X37060Y-9622D01*
X37238Y-9503D01*
X37350Y-9337D01*
X37461Y-9503D01*
X37639Y-9622D01*
X37850Y-9664D01*
X38060Y-9622D01*
X38238Y-9503D01*
X38350Y-9337D01*
X38461Y-9503D01*
X38639Y-9622D01*
X38850Y-9664D01*
X39060Y-9622D01*
X39238Y-9503D01*
X39350Y-9337D01*
X39461Y-9503D01*
X39639Y-9622D01*
X39850Y-9664D01*
X40060Y-9622D01*
X40238Y-9503D01*
X40350Y-9337D01*
X40461Y-9503D01*
X40639Y-9622D01*
X40850Y-9664D01*
X41060Y-9622D01*
X41238Y-9503D01*
X41350Y-9337D01*
X41461Y-9503D01*
X41639Y-9622D01*
X41850Y-9664D01*
X42060Y-9622D01*
X42238Y-9503D01*
X42350Y-9337D01*
X42461Y-9503D01*
X42639Y-9622D01*
X42850Y-9664D01*
X43060Y-9622D01*
X43238Y-9503D01*
X43350Y-9337D01*
X43461Y-9503D01*
X43639Y-9622D01*
X43850Y-9664D01*
X44060Y-9622D01*
X44113Y-9587D01*
X44188Y-9662D01*
X44188Y-11367D01*
G54D10*
G36*
X44796Y-17380D02*
X44733Y-17317D01*
X44696Y-17317D01*
X44646Y-17338D01*
X44646Y-17196D01*
X44796Y-17346D01*
X44796Y-17380D01*
X44796Y-17380D01*
G37*
G54D33*
X44796Y-17380D02*
X44733Y-17317D01*
X44696Y-17317D01*
X44646Y-17338D01*
X44646Y-17196D01*
X44796Y-17346D01*
X44796Y-17380D01*
G54D10*
G36*
X44857Y-17850D02*
X44796Y-17850D01*
X44796Y-17842D01*
X44788Y-17842D01*
X44788Y-17742D01*
X44796Y-17742D01*
X44796Y-17735D01*
X44857Y-17735D01*
X44857Y-17850D01*
X44857Y-17850D01*
G37*
G54D33*
X44857Y-17850D02*
X44796Y-17850D01*
X44796Y-17842D01*
X44788Y-17842D01*
X44788Y-17742D01*
X44796Y-17742D01*
X44796Y-17735D01*
X44857Y-17735D01*
X44857Y-17850D01*
G54D10*
G36*
X45133Y-21029D02*
X45114Y-20984D01*
X45044Y-20914D01*
X44952Y-20876D01*
X44852Y-20875D01*
X44644Y-20875D01*
X44668Y-20866D01*
X44739Y-20795D01*
X44777Y-20703D01*
X44777Y-20604D01*
X44777Y-20210D01*
X44739Y-20118D01*
X44669Y-20048D01*
X44577Y-20010D01*
X44477Y-20009D01*
X44354Y-20009D01*
X44354Y-19443D01*
X44421Y-19509D01*
X44513Y-19547D01*
X44750Y-19547D01*
X44812Y-19485D01*
X44812Y-18947D01*
X44804Y-18947D01*
X44804Y-18847D01*
X44812Y-18847D01*
X44812Y-18839D01*
X44912Y-18839D01*
X44912Y-18847D01*
X44920Y-18847D01*
X44920Y-18947D01*
X44912Y-18947D01*
X44912Y-19485D01*
X44975Y-19547D01*
X45133Y-19547D01*
X45133Y-21029D01*
X45133Y-21029D01*
G37*
G54D33*
X45133Y-21029D02*
X45114Y-20984D01*
X45044Y-20914D01*
X44952Y-20876D01*
X44852Y-20875D01*
X44644Y-20875D01*
X44668Y-20866D01*
X44739Y-20795D01*
X44777Y-20703D01*
X44777Y-20604D01*
X44777Y-20210D01*
X44739Y-20118D01*
X44669Y-20048D01*
X44577Y-20010D01*
X44477Y-20009D01*
X44354Y-20009D01*
X44354Y-19443D01*
X44421Y-19509D01*
X44513Y-19547D01*
X44750Y-19547D01*
X44812Y-19485D01*
X44812Y-18947D01*
X44804Y-18947D01*
X44804Y-18847D01*
X44812Y-18847D01*
X44812Y-18839D01*
X44912Y-18839D01*
X44912Y-18847D01*
X44920Y-18847D01*
X44920Y-18947D01*
X44912Y-18947D01*
X44912Y-19485D01*
X44975Y-19547D01*
X45133Y-19547D01*
X45133Y-21029D01*
G54D10*
G36*
X49125Y-36265D02*
X48875Y-36265D01*
X48875Y-27697D01*
X48719Y-27320D01*
X48431Y-27031D01*
X48404Y-27020D01*
X48404Y-25981D01*
X48393Y-25763D01*
X48331Y-25612D01*
X48235Y-25584D01*
X47920Y-25900D01*
X48235Y-26215D01*
X48331Y-26187D01*
X48404Y-25981D01*
X48404Y-27020D01*
X48165Y-26921D01*
X48165Y-26285D01*
X47850Y-25970D01*
X47779Y-26041D01*
X47779Y-25900D01*
X47464Y-25584D01*
X47368Y-25612D01*
X47351Y-25660D01*
X47331Y-25612D01*
X47235Y-25584D01*
X46920Y-25900D01*
X47235Y-26215D01*
X47331Y-26187D01*
X47348Y-26139D01*
X47368Y-26187D01*
X47464Y-26215D01*
X47779Y-25900D01*
X47779Y-26041D01*
X47534Y-26285D01*
X47562Y-26381D01*
X47768Y-26454D01*
X47986Y-26443D01*
X48137Y-26381D01*
X48165Y-26285D01*
X48165Y-26921D01*
X48054Y-26875D01*
X47647Y-26874D01*
X47270Y-27030D01*
X47165Y-27135D01*
X47165Y-26285D01*
X46850Y-25970D01*
X46779Y-26041D01*
X46779Y-25900D01*
X46464Y-25584D01*
X46368Y-25612D01*
X46295Y-25818D01*
X46306Y-26036D01*
X46368Y-26187D01*
X46464Y-26215D01*
X46779Y-25900D01*
X46779Y-26041D01*
X46534Y-26285D01*
X46562Y-26381D01*
X46768Y-26454D01*
X46986Y-26443D01*
X47137Y-26381D01*
X47165Y-26285D01*
X47165Y-27135D01*
X46981Y-27318D01*
X46825Y-27695D01*
X46824Y-28102D01*
X46980Y-28479D01*
X47268Y-28768D01*
X47645Y-28924D01*
X48052Y-28925D01*
X48429Y-28769D01*
X48718Y-28481D01*
X48874Y-28104D01*
X48875Y-27697D01*
X48875Y-36265D01*
X40600Y-36265D01*
X40600Y-32181D01*
X40471Y-31869D01*
X40232Y-31629D01*
X39919Y-31500D01*
X39581Y-31499D01*
X39269Y-31628D01*
X39029Y-31867D01*
X38900Y-32180D01*
X38899Y-32518D01*
X39028Y-32830D01*
X39267Y-33070D01*
X39580Y-33199D01*
X39918Y-33200D01*
X40230Y-33071D01*
X40470Y-32832D01*
X40599Y-32519D01*
X40600Y-32181D01*
X40600Y-36265D01*
X38000Y-36265D01*
X38000Y-32541D01*
X37916Y-32338D01*
X37777Y-32200D01*
X37799Y-32200D01*
X37891Y-32162D01*
X37961Y-32091D01*
X37999Y-31999D01*
X38000Y-31900D01*
X38000Y-31300D01*
X37962Y-31208D01*
X37891Y-31138D01*
X37799Y-31100D01*
X37700Y-31099D01*
X37100Y-31099D01*
X37008Y-31137D01*
X36938Y-31208D01*
X36900Y-31300D01*
X36899Y-31353D01*
X36835Y-31334D01*
X36765Y-31405D01*
X36765Y-31264D01*
X36737Y-31168D01*
X36531Y-31095D01*
X36313Y-31106D01*
X36162Y-31168D01*
X36134Y-31264D01*
X36450Y-31579D01*
X36765Y-31264D01*
X36765Y-31405D01*
X36520Y-31650D01*
X36835Y-31965D01*
X36899Y-31946D01*
X36899Y-31999D01*
X36937Y-32091D01*
X37008Y-32161D01*
X37100Y-32199D01*
X37122Y-32199D01*
X36984Y-32338D01*
X36950Y-32419D01*
X36916Y-32338D01*
X36761Y-32184D01*
X36686Y-32152D01*
X36737Y-32131D01*
X36765Y-32035D01*
X36450Y-31720D01*
X36134Y-32035D01*
X36162Y-32131D01*
X36217Y-32150D01*
X36138Y-32183D01*
X35984Y-32338D01*
X35950Y-32419D01*
X35916Y-32338D01*
X35761Y-32184D01*
X35680Y-32150D01*
X35761Y-32116D01*
X35915Y-31961D01*
X35947Y-31886D01*
X35968Y-31937D01*
X36064Y-31965D01*
X36379Y-31650D01*
X36064Y-31334D01*
X35968Y-31362D01*
X35949Y-31417D01*
X35916Y-31338D01*
X35761Y-31184D01*
X35559Y-31100D01*
X35341Y-31099D01*
X35138Y-31183D01*
X34984Y-31338D01*
X34950Y-31419D01*
X34916Y-31338D01*
X34761Y-31184D01*
X34559Y-31100D01*
X34341Y-31099D01*
X34138Y-31183D01*
X33984Y-31338D01*
X33950Y-31419D01*
X33916Y-31338D01*
X33761Y-31184D01*
X33559Y-31100D01*
X33341Y-31099D01*
X33138Y-31183D01*
X32984Y-31338D01*
X32900Y-31540D01*
X32899Y-31758D01*
X32983Y-31961D01*
X33138Y-32115D01*
X33219Y-32149D01*
X33138Y-32183D01*
X32984Y-32338D01*
X32900Y-32540D01*
X32899Y-32758D01*
X32983Y-32961D01*
X33138Y-33115D01*
X33340Y-33199D01*
X33558Y-33200D01*
X33761Y-33116D01*
X33915Y-32961D01*
X33949Y-32880D01*
X33983Y-32961D01*
X34138Y-33115D01*
X34340Y-33199D01*
X34558Y-33200D01*
X34761Y-33116D01*
X34915Y-32961D01*
X34949Y-32880D01*
X34983Y-32961D01*
X35138Y-33115D01*
X35340Y-33199D01*
X35558Y-33200D01*
X35761Y-33116D01*
X35915Y-32961D01*
X35949Y-32880D01*
X35983Y-32961D01*
X36138Y-33115D01*
X36340Y-33199D01*
X36558Y-33200D01*
X36761Y-33116D01*
X36915Y-32961D01*
X36949Y-32880D01*
X36983Y-32961D01*
X37138Y-33115D01*
X37340Y-33199D01*
X37558Y-33200D01*
X37761Y-33116D01*
X37915Y-32961D01*
X37999Y-32759D01*
X38000Y-32541D01*
X38000Y-36265D01*
X32000Y-36265D01*
X32000Y-32181D01*
X31871Y-31869D01*
X31632Y-31629D01*
X31319Y-31500D01*
X30981Y-31499D01*
X30669Y-31628D01*
X30429Y-31867D01*
X30300Y-32180D01*
X30299Y-32518D01*
X30428Y-32830D01*
X30667Y-33070D01*
X30980Y-33199D01*
X31318Y-33200D01*
X31630Y-33071D01*
X31870Y-32832D01*
X31999Y-32519D01*
X32000Y-32181D01*
X32000Y-36265D01*
X28770Y-36265D01*
X28770Y-34690D01*
X28680Y-34470D01*
X28680Y-32432D01*
X28680Y-31531D01*
X28679Y-31432D01*
X28641Y-31340D01*
X28571Y-31269D01*
X28479Y-31231D01*
X28042Y-31232D01*
X27980Y-31294D01*
X27980Y-31932D01*
X28617Y-31932D01*
X28680Y-31869D01*
X28680Y-31531D01*
X28680Y-32432D01*
X28680Y-32094D01*
X28617Y-32032D01*
X27980Y-32032D01*
X27980Y-32669D01*
X28042Y-32732D01*
X28479Y-32732D01*
X28571Y-32694D01*
X28641Y-32623D01*
X28679Y-32531D01*
X28680Y-32432D01*
X28680Y-34470D01*
X28643Y-34381D01*
X28406Y-34144D01*
X28097Y-34016D01*
X27880Y-34016D01*
X27880Y-32669D01*
X27880Y-32032D01*
X27880Y-31932D01*
X27880Y-31294D01*
X27817Y-31232D01*
X27380Y-31231D01*
X27288Y-31269D01*
X27218Y-31340D01*
X27180Y-31432D01*
X27179Y-31531D01*
X27180Y-31869D01*
X27242Y-31932D01*
X27880Y-31932D01*
X27880Y-32032D01*
X27242Y-32032D01*
X27180Y-32094D01*
X27179Y-32432D01*
X27180Y-32531D01*
X27218Y-32623D01*
X27288Y-32694D01*
X27380Y-32732D01*
X27817Y-32732D01*
X27880Y-32669D01*
X27880Y-34016D01*
X27763Y-34015D01*
X27454Y-34143D01*
X27217Y-34379D01*
X27089Y-34688D01*
X27089Y-35023D01*
X27217Y-35332D01*
X27453Y-35568D01*
X27762Y-35697D01*
X28096Y-35697D01*
X28405Y-35569D01*
X28642Y-35333D01*
X28770Y-35024D01*
X28770Y-34690D01*
X28770Y-36265D01*
X27026Y-36265D01*
X27026Y-32432D01*
X27026Y-31531D01*
X27025Y-31432D01*
X26987Y-31340D01*
X26917Y-31269D01*
X26825Y-31231D01*
X26388Y-31232D01*
X26326Y-31294D01*
X26326Y-31932D01*
X26963Y-31932D01*
X27026Y-31869D01*
X27026Y-31531D01*
X27026Y-32432D01*
X27026Y-32094D01*
X26963Y-32032D01*
X26326Y-32032D01*
X26326Y-32669D01*
X26388Y-32732D01*
X26825Y-32732D01*
X26917Y-32694D01*
X26987Y-32623D01*
X27025Y-32531D01*
X27026Y-32432D01*
X27026Y-36265D01*
X26226Y-36265D01*
X26226Y-32669D01*
X26226Y-32032D01*
X26226Y-31932D01*
X26226Y-31294D01*
X26163Y-31232D01*
X25726Y-31231D01*
X25634Y-31269D01*
X25564Y-31340D01*
X25526Y-31432D01*
X25525Y-31531D01*
X25526Y-31869D01*
X25588Y-31932D01*
X26226Y-31932D01*
X26226Y-32032D01*
X25588Y-32032D01*
X25526Y-32094D01*
X25525Y-32432D01*
X25526Y-32531D01*
X25564Y-32623D01*
X25634Y-32694D01*
X25726Y-32732D01*
X26163Y-32732D01*
X26226Y-32669D01*
X26226Y-36265D01*
X25374Y-36265D01*
X25374Y-32432D01*
X25374Y-31531D01*
X25373Y-31432D01*
X25335Y-31340D01*
X25265Y-31269D01*
X25173Y-31231D01*
X24736Y-31232D01*
X24674Y-31294D01*
X24674Y-31932D01*
X25311Y-31932D01*
X25374Y-31869D01*
X25374Y-31531D01*
X25374Y-32432D01*
X25374Y-32094D01*
X25311Y-32032D01*
X24674Y-32032D01*
X24674Y-32669D01*
X24736Y-32732D01*
X25173Y-32732D01*
X25265Y-32694D01*
X25335Y-32623D01*
X25373Y-32531D01*
X25374Y-32432D01*
X25374Y-36265D01*
X24574Y-36265D01*
X24574Y-32669D01*
X24574Y-32032D01*
X24574Y-31932D01*
X24574Y-31294D01*
X24511Y-31232D01*
X24074Y-31231D01*
X23982Y-31269D01*
X23912Y-31340D01*
X23874Y-31432D01*
X23873Y-31531D01*
X23874Y-31869D01*
X23936Y-31932D01*
X24574Y-31932D01*
X24574Y-32032D01*
X23936Y-32032D01*
X23874Y-32094D01*
X23873Y-32432D01*
X23874Y-32531D01*
X23912Y-32623D01*
X23982Y-32694D01*
X24074Y-32732D01*
X24511Y-32732D01*
X24574Y-32669D01*
X24574Y-36265D01*
X23810Y-36265D01*
X23810Y-34690D01*
X23720Y-34470D01*
X23720Y-32432D01*
X23720Y-32094D01*
X23657Y-32032D01*
X23020Y-32032D01*
X23020Y-32669D01*
X23082Y-32732D01*
X23519Y-32732D01*
X23611Y-32694D01*
X23681Y-32623D01*
X23719Y-32531D01*
X23720Y-32432D01*
X23720Y-34470D01*
X23683Y-34381D01*
X23446Y-34144D01*
X23137Y-34016D01*
X22920Y-34016D01*
X22920Y-32669D01*
X22920Y-32032D01*
X22282Y-32032D01*
X22220Y-32094D01*
X22219Y-32432D01*
X22220Y-32531D01*
X22258Y-32623D01*
X22328Y-32694D01*
X22420Y-32732D01*
X22857Y-32732D01*
X22920Y-32669D01*
X22920Y-34016D01*
X22803Y-34015D01*
X22494Y-34143D01*
X22257Y-34379D01*
X22129Y-34688D01*
X22129Y-35023D01*
X22257Y-35332D01*
X22493Y-35568D01*
X22802Y-35697D01*
X23136Y-35697D01*
X23445Y-35569D01*
X23682Y-35333D01*
X23810Y-35024D01*
X23810Y-34690D01*
X23810Y-36265D01*
X13362Y-36265D01*
X13495Y-36132D01*
X13638Y-35787D01*
X13639Y-35414D01*
X13496Y-35068D01*
X13232Y-34804D01*
X12887Y-34661D01*
X12514Y-34660D01*
X12168Y-34803D01*
X11904Y-35067D01*
X11761Y-35412D01*
X11760Y-35785D01*
X11903Y-36131D01*
X12037Y-36265D01*
X10025Y-36265D01*
X10025Y-8225D01*
X16967Y-8225D01*
X16861Y-8296D01*
X16741Y-8474D01*
X16700Y-8685D01*
X16700Y-9114D01*
X16741Y-9325D01*
X16861Y-9503D01*
X17039Y-9622D01*
X17250Y-9664D01*
X17460Y-9622D01*
X17638Y-9503D01*
X17750Y-9337D01*
X17861Y-9503D01*
X18039Y-9622D01*
X18250Y-9664D01*
X18460Y-9622D01*
X18638Y-9503D01*
X18750Y-9337D01*
X18861Y-9503D01*
X19039Y-9622D01*
X19250Y-9664D01*
X19460Y-9622D01*
X19638Y-9503D01*
X19750Y-9337D01*
X19861Y-9503D01*
X20039Y-9622D01*
X20250Y-9664D01*
X20460Y-9622D01*
X20638Y-9503D01*
X20750Y-9337D01*
X20861Y-9503D01*
X21039Y-9622D01*
X21250Y-9664D01*
X21460Y-9622D01*
X21638Y-9503D01*
X21750Y-9337D01*
X21861Y-9503D01*
X22039Y-9622D01*
X22250Y-9664D01*
X22460Y-9622D01*
X22638Y-9503D01*
X22750Y-9337D01*
X22861Y-9503D01*
X23039Y-9622D01*
X23250Y-9664D01*
X23460Y-9622D01*
X23638Y-9503D01*
X23750Y-9337D01*
X23861Y-9503D01*
X24039Y-9622D01*
X24250Y-9664D01*
X24460Y-9622D01*
X24638Y-9503D01*
X24750Y-9337D01*
X24835Y-9465D01*
X24475Y-9825D01*
X22400Y-9825D01*
X22285Y-9847D01*
X22187Y-9912D01*
X21150Y-10949D01*
X20750Y-10949D01*
X20658Y-10987D01*
X20588Y-11058D01*
X20550Y-11150D01*
X20549Y-11249D01*
X20549Y-11849D01*
X20587Y-11941D01*
X20658Y-12011D01*
X20750Y-12049D01*
X20849Y-12050D01*
X21649Y-12050D01*
X21700Y-12029D01*
X21750Y-12049D01*
X21849Y-12050D01*
X22649Y-12050D01*
X22700Y-12029D01*
X22750Y-12049D01*
X22849Y-12050D01*
X23649Y-12050D01*
X23700Y-12029D01*
X23750Y-12049D01*
X23849Y-12050D01*
X24649Y-12050D01*
X24700Y-12029D01*
X24750Y-12049D01*
X24849Y-12050D01*
X25649Y-12050D01*
X25700Y-12029D01*
X25750Y-12049D01*
X25849Y-12050D01*
X26649Y-12050D01*
X26741Y-12012D01*
X26811Y-11941D01*
X26849Y-11849D01*
X26849Y-11800D01*
X27724Y-11800D01*
X27698Y-11826D01*
X27660Y-11918D01*
X27659Y-12017D01*
X27659Y-12717D01*
X27697Y-12809D01*
X27768Y-12879D01*
X27860Y-12917D01*
X27891Y-12917D01*
X27891Y-13881D01*
X27860Y-13881D01*
X27768Y-13919D01*
X27698Y-13990D01*
X27660Y-14082D01*
X27659Y-14181D01*
X27659Y-14881D01*
X27697Y-14973D01*
X27768Y-15043D01*
X27860Y-15081D01*
X27959Y-15082D01*
X28261Y-15082D01*
X28404Y-15224D01*
X28375Y-15224D01*
X28283Y-15262D01*
X28250Y-15296D01*
X28216Y-15263D01*
X28124Y-15225D01*
X28025Y-15224D01*
X27775Y-15224D01*
X27683Y-15262D01*
X27613Y-15333D01*
X27575Y-15425D01*
X27574Y-15524D01*
X27574Y-15650D01*
X27437Y-15787D01*
X27413Y-15824D01*
X27300Y-15824D01*
X27208Y-15862D01*
X27138Y-15933D01*
X27126Y-15961D01*
X27099Y-15950D01*
X27000Y-15949D01*
X26524Y-15949D01*
X26512Y-15937D01*
X26414Y-15872D01*
X26300Y-15850D01*
X25600Y-15850D01*
X25600Y-15700D01*
X25562Y-15608D01*
X25491Y-15538D01*
X25399Y-15500D01*
X25350Y-15500D01*
X25350Y-14800D01*
X25399Y-14800D01*
X25491Y-14762D01*
X25561Y-14691D01*
X25599Y-14599D01*
X25600Y-14549D01*
X25696Y-14781D01*
X25932Y-15018D01*
X26241Y-15146D01*
X26575Y-15146D01*
X26884Y-15018D01*
X27121Y-14782D01*
X27249Y-14473D01*
X27249Y-14139D01*
X27121Y-13830D01*
X26885Y-13593D01*
X26576Y-13465D01*
X26242Y-13465D01*
X26185Y-13489D01*
X26324Y-13350D01*
X26649Y-13350D01*
X26741Y-13312D01*
X26811Y-13241D01*
X26849Y-13149D01*
X26850Y-13050D01*
X26850Y-12450D01*
X26812Y-12358D01*
X26741Y-12288D01*
X26649Y-12250D01*
X26550Y-12249D01*
X25750Y-12249D01*
X25699Y-12270D01*
X25649Y-12250D01*
X25550Y-12249D01*
X24750Y-12249D01*
X24699Y-12270D01*
X24649Y-12250D01*
X24550Y-12249D01*
X23750Y-12249D01*
X23699Y-12270D01*
X23649Y-12250D01*
X23550Y-12249D01*
X22750Y-12249D01*
X22699Y-12270D01*
X22649Y-12250D01*
X22550Y-12249D01*
X21750Y-12249D01*
X21699Y-12270D01*
X21649Y-12250D01*
X21550Y-12249D01*
X20750Y-12249D01*
X20658Y-12287D01*
X20588Y-12358D01*
X20550Y-12450D01*
X20549Y-12549D01*
X20549Y-12825D01*
X19775Y-13599D01*
X19200Y-13599D01*
X19108Y-13637D01*
X19038Y-13708D01*
X19000Y-13800D01*
X18999Y-13899D01*
X18999Y-14499D01*
X19037Y-14591D01*
X19096Y-14650D01*
X19037Y-14708D01*
X18999Y-14800D01*
X19000Y-15037D01*
X19062Y-15100D01*
X19600Y-15100D01*
X19600Y-15092D01*
X19700Y-15092D01*
X19700Y-15100D01*
X19707Y-15100D01*
X19707Y-15200D01*
X19700Y-15200D01*
X19700Y-15207D01*
X19600Y-15207D01*
X19600Y-15200D01*
X19062Y-15200D01*
X19000Y-15262D01*
X18999Y-15499D01*
X19037Y-15591D01*
X19096Y-15650D01*
X19038Y-15708D01*
X19000Y-15800D01*
X18999Y-15899D01*
X18999Y-16499D01*
X19037Y-16591D01*
X19096Y-16650D01*
X19037Y-16708D01*
X18999Y-16800D01*
X19000Y-17037D01*
X19062Y-17100D01*
X19600Y-17100D01*
X19600Y-17092D01*
X19700Y-17092D01*
X19700Y-17100D01*
X19707Y-17100D01*
X19707Y-17200D01*
X19700Y-17200D01*
X19700Y-17637D01*
X19762Y-17700D01*
X19925Y-17700D01*
X19775Y-17849D01*
X19600Y-17849D01*
X19600Y-17637D01*
X19600Y-17200D01*
X19062Y-17200D01*
X19000Y-17262D01*
X18999Y-17499D01*
X19037Y-17591D01*
X19108Y-17661D01*
X19200Y-17699D01*
X19299Y-17700D01*
X19537Y-17700D01*
X19600Y-17637D01*
X19600Y-17849D01*
X19200Y-17849D01*
X19108Y-17887D01*
X19038Y-17958D01*
X19000Y-18050D01*
X18999Y-18149D01*
X18999Y-18749D01*
X19037Y-18841D01*
X19096Y-18900D01*
X19037Y-18958D01*
X18999Y-19050D01*
X19000Y-19287D01*
X19062Y-19350D01*
X19600Y-19350D01*
X19600Y-19342D01*
X19700Y-19342D01*
X19700Y-19350D01*
X20237Y-19350D01*
X20300Y-19287D01*
X20300Y-19050D01*
X20262Y-18958D01*
X20203Y-18899D01*
X20261Y-18841D01*
X20299Y-18749D01*
X20300Y-18650D01*
X20300Y-18174D01*
X20812Y-17662D01*
X20812Y-17662D01*
X20877Y-17564D01*
X20899Y-17450D01*
X20900Y-17450D01*
X20900Y-14874D01*
X22018Y-13755D01*
X22000Y-13800D01*
X21999Y-13899D01*
X21999Y-14499D01*
X22037Y-14591D01*
X22096Y-14650D01*
X22038Y-14708D01*
X22000Y-14800D01*
X21999Y-14899D01*
X21999Y-15499D01*
X22037Y-15591D01*
X22096Y-15650D01*
X22038Y-15708D01*
X22000Y-15800D01*
X21999Y-15899D01*
X21999Y-16499D01*
X22037Y-16591D01*
X22096Y-16650D01*
X22038Y-16708D01*
X22000Y-16800D01*
X21999Y-16899D01*
X21999Y-17499D01*
X22037Y-17591D01*
X22108Y-17661D01*
X22200Y-17699D01*
X22299Y-17700D01*
X23099Y-17700D01*
X23191Y-17662D01*
X23261Y-17591D01*
X23299Y-17499D01*
X23299Y-17450D01*
X24100Y-17450D01*
X24100Y-17750D01*
X24099Y-17750D01*
X24000Y-17749D01*
X23400Y-17749D01*
X23308Y-17787D01*
X23238Y-17858D01*
X23215Y-17912D01*
X23191Y-17888D01*
X23099Y-17850D01*
X23000Y-17849D01*
X22200Y-17849D01*
X22108Y-17887D01*
X22038Y-17958D01*
X22000Y-18050D01*
X21999Y-18149D01*
X21999Y-18749D01*
X22037Y-18841D01*
X22096Y-18900D01*
X22038Y-18958D01*
X22000Y-19050D01*
X21999Y-19149D01*
X21999Y-19225D01*
X21637Y-19587D01*
X21572Y-19685D01*
X21550Y-19800D01*
X21550Y-20600D01*
X21572Y-20714D01*
X21637Y-20812D01*
X21999Y-21174D01*
X21999Y-21625D01*
X21287Y-22337D01*
X21222Y-22435D01*
X21200Y-22550D01*
X21200Y-24875D01*
X20925Y-25150D01*
X20925Y-24565D01*
X20925Y-22565D01*
X20860Y-22409D01*
X20825Y-22374D01*
X20825Y-20265D01*
X20760Y-20109D01*
X20641Y-19989D01*
X20484Y-19925D01*
X20315Y-19924D01*
X20253Y-19950D01*
X20203Y-19900D01*
X20262Y-19841D01*
X20300Y-19749D01*
X20300Y-19512D01*
X20237Y-19450D01*
X19700Y-19450D01*
X19700Y-19457D01*
X19600Y-19457D01*
X19600Y-19450D01*
X19062Y-19450D01*
X19000Y-19512D01*
X18999Y-19749D01*
X19037Y-19841D01*
X19096Y-19900D01*
X19038Y-19958D01*
X19000Y-20050D01*
X18999Y-20149D01*
X18999Y-20749D01*
X19037Y-20841D01*
X19096Y-20900D01*
X19037Y-20958D01*
X18999Y-21050D01*
X19000Y-21287D01*
X19062Y-21350D01*
X19600Y-21350D01*
X19600Y-21342D01*
X19700Y-21342D01*
X19700Y-21350D01*
X20237Y-21350D01*
X20300Y-21287D01*
X20300Y-21050D01*
X20262Y-20958D01*
X20203Y-20899D01*
X20261Y-20841D01*
X20293Y-20765D01*
X20315Y-20774D01*
X20484Y-20775D01*
X20640Y-20710D01*
X20760Y-20591D01*
X20824Y-20434D01*
X20825Y-20265D01*
X20825Y-22374D01*
X20741Y-22289D01*
X20584Y-22225D01*
X20415Y-22224D01*
X20300Y-22272D01*
X20300Y-21749D01*
X20300Y-21512D01*
X20237Y-21450D01*
X19700Y-21450D01*
X19700Y-21887D01*
X19762Y-21950D01*
X20000Y-21950D01*
X20099Y-21949D01*
X20191Y-21911D01*
X20262Y-21841D01*
X20300Y-21749D01*
X20300Y-22272D01*
X20290Y-22276D01*
X20262Y-22208D01*
X20191Y-22138D01*
X20099Y-22100D01*
X20000Y-22099D01*
X19600Y-22099D01*
X19600Y-21887D01*
X19600Y-21450D01*
X19062Y-21450D01*
X19000Y-21512D01*
X18999Y-21749D01*
X19037Y-21841D01*
X19108Y-21911D01*
X19200Y-21949D01*
X19299Y-21950D01*
X19537Y-21950D01*
X19600Y-21887D01*
X19600Y-22099D01*
X19200Y-22099D01*
X19108Y-22137D01*
X19038Y-22208D01*
X19000Y-22300D01*
X18999Y-22399D01*
X18999Y-22999D01*
X19037Y-23091D01*
X19096Y-23150D01*
X19037Y-23208D01*
X18999Y-23300D01*
X19000Y-23537D01*
X19062Y-23600D01*
X19600Y-23600D01*
X19600Y-23592D01*
X19700Y-23592D01*
X19700Y-23600D01*
X20237Y-23600D01*
X20300Y-23537D01*
X20300Y-23300D01*
X20262Y-23208D01*
X20203Y-23149D01*
X20261Y-23091D01*
X20290Y-23023D01*
X20415Y-23074D01*
X20584Y-23075D01*
X20740Y-23010D01*
X20860Y-22891D01*
X20924Y-22734D01*
X20925Y-22565D01*
X20925Y-24565D01*
X20860Y-24409D01*
X20741Y-24289D01*
X20584Y-24225D01*
X20415Y-24224D01*
X20290Y-24276D01*
X20262Y-24208D01*
X20203Y-24150D01*
X20262Y-24091D01*
X20300Y-23999D01*
X20300Y-23762D01*
X20237Y-23700D01*
X19700Y-23700D01*
X19700Y-23707D01*
X19600Y-23707D01*
X19600Y-23700D01*
X19062Y-23700D01*
X19000Y-23762D01*
X18999Y-23999D01*
X19037Y-24091D01*
X19096Y-24150D01*
X19038Y-24208D01*
X19000Y-24300D01*
X18999Y-24399D01*
X18999Y-24999D01*
X19037Y-25091D01*
X19096Y-25150D01*
X19037Y-25208D01*
X18999Y-25300D01*
X19000Y-25537D01*
X19062Y-25600D01*
X19600Y-25600D01*
X19600Y-25592D01*
X19700Y-25592D01*
X19700Y-25600D01*
X20237Y-25600D01*
X20300Y-25537D01*
X20300Y-25300D01*
X20262Y-25208D01*
X20203Y-25149D01*
X20261Y-25091D01*
X20290Y-25023D01*
X20415Y-25074D01*
X20584Y-25075D01*
X20740Y-25010D01*
X20860Y-24891D01*
X20924Y-24734D01*
X20925Y-24565D01*
X20925Y-25150D01*
X20300Y-25775D01*
X20300Y-25762D01*
X20237Y-25700D01*
X19700Y-25700D01*
X19700Y-25707D01*
X19600Y-25707D01*
X19600Y-25700D01*
X19062Y-25700D01*
X19000Y-25762D01*
X18999Y-25999D01*
X19037Y-26091D01*
X19108Y-26161D01*
X19182Y-26192D01*
X18814Y-26561D01*
X18791Y-26538D01*
X18699Y-26500D01*
X18600Y-26499D01*
X18120Y-26499D01*
X18135Y-26485D01*
X18135Y-26485D01*
X18135Y-26485D01*
X18215Y-26365D01*
X18215Y-26365D01*
X18238Y-26248D01*
X18243Y-26225D01*
X18243Y-26225D01*
X18243Y-26225D01*
X18243Y-18100D01*
X18215Y-17959D01*
X18135Y-17839D01*
X18135Y-17839D01*
X18042Y-17746D01*
X17985Y-17609D01*
X17866Y-17489D01*
X17709Y-17425D01*
X17540Y-17424D01*
X17438Y-17467D01*
X17438Y-12300D01*
X17410Y-12159D01*
X17330Y-12039D01*
X17004Y-11713D01*
X16884Y-11633D01*
X16832Y-11623D01*
X16832Y-11424D01*
X16832Y-10770D01*
X16832Y-9770D01*
X16794Y-9678D01*
X16723Y-9608D01*
X16631Y-9570D01*
X16532Y-9569D01*
X15532Y-9569D01*
X15440Y-9607D01*
X15370Y-9678D01*
X15332Y-9770D01*
X15331Y-9869D01*
X15331Y-10869D01*
X15369Y-10961D01*
X15440Y-11031D01*
X15532Y-11069D01*
X15631Y-11070D01*
X16631Y-11070D01*
X16723Y-11032D01*
X16793Y-10961D01*
X16831Y-10869D01*
X16832Y-10770D01*
X16832Y-11424D01*
X16794Y-11332D01*
X16723Y-11262D01*
X16631Y-11224D01*
X16532Y-11223D01*
X15532Y-11223D01*
X15440Y-11261D01*
X15370Y-11332D01*
X15332Y-11424D01*
X15331Y-11523D01*
X15331Y-12523D01*
X15369Y-12615D01*
X15440Y-12685D01*
X15532Y-12723D01*
X15631Y-12724D01*
X16631Y-12724D01*
X16701Y-12694D01*
X16701Y-12905D01*
X16631Y-12876D01*
X16532Y-12875D01*
X15532Y-12875D01*
X15440Y-12913D01*
X15370Y-12984D01*
X15332Y-13076D01*
X15331Y-13175D01*
X15331Y-13855D01*
X14814Y-14372D01*
X14734Y-14492D01*
X14706Y-14633D01*
X14706Y-20440D01*
X14734Y-20580D01*
X14814Y-20700D01*
X15331Y-21217D01*
X15331Y-21675D01*
X15369Y-21767D01*
X15440Y-21837D01*
X15532Y-21875D01*
X15631Y-21876D01*
X16631Y-21876D01*
X16723Y-21838D01*
X16793Y-21767D01*
X16831Y-21675D01*
X16832Y-21576D01*
X16832Y-20576D01*
X16813Y-20532D01*
X16943Y-20662D01*
X16943Y-23372D01*
X16832Y-23484D01*
X16832Y-23230D01*
X16832Y-22230D01*
X16794Y-22138D01*
X16723Y-22068D01*
X16631Y-22030D01*
X16532Y-22029D01*
X15532Y-22029D01*
X15440Y-22067D01*
X15370Y-22138D01*
X15332Y-22230D01*
X15331Y-22329D01*
X15331Y-23329D01*
X15369Y-23421D01*
X15440Y-23491D01*
X15532Y-23529D01*
X15631Y-23530D01*
X16631Y-23530D01*
X16723Y-23492D01*
X16793Y-23421D01*
X16831Y-23329D01*
X16832Y-23230D01*
X16832Y-23484D01*
X14668Y-25648D01*
X14668Y-23329D01*
X14668Y-22230D01*
X14668Y-21675D01*
X14668Y-20576D01*
X14668Y-20023D01*
X14668Y-18924D01*
X14668Y-18369D01*
X14668Y-17270D01*
X14668Y-15829D01*
X14668Y-14730D01*
X14668Y-14175D01*
X14668Y-13076D01*
X14668Y-12523D01*
X14668Y-11424D01*
X14668Y-10869D01*
X14668Y-9770D01*
X14630Y-9678D01*
X14559Y-9608D01*
X14467Y-9570D01*
X14368Y-9569D01*
X14030Y-9570D01*
X13968Y-9632D01*
X13968Y-10270D01*
X14605Y-10270D01*
X14668Y-10207D01*
X14668Y-9770D01*
X14668Y-10869D01*
X14668Y-10432D01*
X14605Y-10370D01*
X13968Y-10370D01*
X13968Y-11007D01*
X14030Y-11070D01*
X14368Y-11070D01*
X14467Y-11069D01*
X14559Y-11031D01*
X14630Y-10961D01*
X14668Y-10869D01*
X14668Y-11424D01*
X14630Y-11332D01*
X14559Y-11262D01*
X14467Y-11224D01*
X14368Y-11223D01*
X14030Y-11224D01*
X13968Y-11286D01*
X13968Y-11924D01*
X14605Y-11924D01*
X14668Y-11861D01*
X14668Y-11424D01*
X14668Y-12523D01*
X14668Y-12086D01*
X14605Y-12024D01*
X13968Y-12024D01*
X13968Y-12661D01*
X14030Y-12724D01*
X14368Y-12724D01*
X14467Y-12723D01*
X14559Y-12685D01*
X14630Y-12615D01*
X14668Y-12523D01*
X14668Y-13076D01*
X14630Y-12984D01*
X14559Y-12914D01*
X14467Y-12876D01*
X14368Y-12875D01*
X14030Y-12876D01*
X13968Y-12938D01*
X13968Y-13576D01*
X14605Y-13576D01*
X14668Y-13513D01*
X14668Y-13076D01*
X14668Y-14175D01*
X14668Y-13738D01*
X14605Y-13676D01*
X13968Y-13676D01*
X13968Y-14313D01*
X14030Y-14376D01*
X14368Y-14376D01*
X14467Y-14375D01*
X14559Y-14337D01*
X14630Y-14267D01*
X14668Y-14175D01*
X14668Y-14730D01*
X14630Y-14638D01*
X14559Y-14568D01*
X14467Y-14530D01*
X14368Y-14529D01*
X14030Y-14530D01*
X13968Y-14592D01*
X13968Y-15230D01*
X14605Y-15230D01*
X14668Y-15167D01*
X14668Y-14730D01*
X14668Y-15829D01*
X14668Y-15392D01*
X14605Y-15330D01*
X13968Y-15330D01*
X13968Y-15967D01*
X14030Y-16030D01*
X14368Y-16030D01*
X14467Y-16029D01*
X14559Y-15991D01*
X14630Y-15921D01*
X14668Y-15829D01*
X14668Y-17270D01*
X14630Y-17178D01*
X14559Y-17108D01*
X14467Y-17070D01*
X14368Y-17069D01*
X14030Y-17070D01*
X13968Y-17132D01*
X13968Y-17770D01*
X14605Y-17770D01*
X14668Y-17707D01*
X14668Y-17270D01*
X14668Y-18369D01*
X14668Y-17932D01*
X14605Y-17870D01*
X13968Y-17870D01*
X13968Y-18507D01*
X14030Y-18570D01*
X14368Y-18570D01*
X14467Y-18569D01*
X14559Y-18531D01*
X14630Y-18461D01*
X14668Y-18369D01*
X14668Y-18924D01*
X14630Y-18832D01*
X14559Y-18762D01*
X14467Y-18724D01*
X14368Y-18723D01*
X14030Y-18724D01*
X13968Y-18786D01*
X13968Y-19424D01*
X14605Y-19424D01*
X14668Y-19361D01*
X14668Y-18924D01*
X14668Y-20023D01*
X14668Y-19586D01*
X14605Y-19524D01*
X13968Y-19524D01*
X13968Y-20161D01*
X14030Y-20224D01*
X14368Y-20224D01*
X14467Y-20223D01*
X14559Y-20185D01*
X14630Y-20115D01*
X14668Y-20023D01*
X14668Y-20576D01*
X14630Y-20484D01*
X14559Y-20414D01*
X14467Y-20376D01*
X14368Y-20375D01*
X14030Y-20376D01*
X13968Y-20438D01*
X13968Y-21076D01*
X14605Y-21076D01*
X14668Y-21013D01*
X14668Y-20576D01*
X14668Y-21675D01*
X14668Y-21238D01*
X14605Y-21176D01*
X13968Y-21176D01*
X13968Y-21813D01*
X14030Y-21876D01*
X14368Y-21876D01*
X14467Y-21875D01*
X14559Y-21837D01*
X14630Y-21767D01*
X14668Y-21675D01*
X14668Y-22230D01*
X14630Y-22138D01*
X14559Y-22068D01*
X14467Y-22030D01*
X14368Y-22029D01*
X14030Y-22030D01*
X13968Y-22092D01*
X13968Y-22730D01*
X14605Y-22730D01*
X14668Y-22667D01*
X14668Y-22230D01*
X14668Y-23329D01*
X14668Y-22892D01*
X14605Y-22830D01*
X13968Y-22830D01*
X13968Y-23467D01*
X14030Y-23530D01*
X14368Y-23530D01*
X14467Y-23529D01*
X14559Y-23491D01*
X14630Y-23421D01*
X14668Y-23329D01*
X14668Y-25648D01*
X13868Y-26448D01*
X13868Y-23467D01*
X13868Y-22830D01*
X13868Y-22730D01*
X13868Y-22092D01*
X13868Y-21813D01*
X13868Y-21176D01*
X13868Y-21076D01*
X13868Y-20438D01*
X13868Y-20161D01*
X13868Y-19524D01*
X13868Y-19424D01*
X13868Y-18786D01*
X13868Y-18507D01*
X13868Y-17870D01*
X13868Y-17770D01*
X13868Y-17132D01*
X13868Y-15967D01*
X13868Y-15330D01*
X13868Y-15230D01*
X13868Y-14592D01*
X13868Y-14313D01*
X13868Y-13676D01*
X13868Y-13576D01*
X13868Y-12938D01*
X13868Y-12661D01*
X13868Y-12024D01*
X13868Y-11924D01*
X13868Y-11286D01*
X13868Y-11007D01*
X13868Y-10370D01*
X13868Y-10270D01*
X13868Y-9632D01*
X13805Y-9570D01*
X13467Y-9569D01*
X13368Y-9570D01*
X13276Y-9608D01*
X13205Y-9678D01*
X13167Y-9770D01*
X13168Y-10207D01*
X13230Y-10270D01*
X13868Y-10270D01*
X13868Y-10370D01*
X13230Y-10370D01*
X13168Y-10432D01*
X13167Y-10869D01*
X13205Y-10961D01*
X13276Y-11031D01*
X13368Y-11069D01*
X13467Y-11070D01*
X13805Y-11070D01*
X13868Y-11007D01*
X13868Y-11286D01*
X13805Y-11224D01*
X13467Y-11223D01*
X13368Y-11224D01*
X13276Y-11262D01*
X13205Y-11332D01*
X13167Y-11424D01*
X13168Y-11861D01*
X13230Y-11924D01*
X13868Y-11924D01*
X13868Y-12024D01*
X13230Y-12024D01*
X13168Y-12086D01*
X13167Y-12523D01*
X13205Y-12615D01*
X13276Y-12685D01*
X13368Y-12723D01*
X13467Y-12724D01*
X13805Y-12724D01*
X13868Y-12661D01*
X13868Y-12938D01*
X13805Y-12876D01*
X13467Y-12875D01*
X13368Y-12876D01*
X13276Y-12914D01*
X13205Y-12984D01*
X13167Y-13076D01*
X13168Y-13513D01*
X13230Y-13576D01*
X13868Y-13576D01*
X13868Y-13676D01*
X13230Y-13676D01*
X13168Y-13738D01*
X13167Y-14175D01*
X13205Y-14267D01*
X13276Y-14337D01*
X13368Y-14375D01*
X13467Y-14376D01*
X13805Y-14376D01*
X13868Y-14313D01*
X13868Y-14592D01*
X13805Y-14530D01*
X13467Y-14529D01*
X13368Y-14530D01*
X13276Y-14568D01*
X13205Y-14638D01*
X13167Y-14730D01*
X13168Y-15167D01*
X13230Y-15230D01*
X13868Y-15230D01*
X13868Y-15330D01*
X13230Y-15330D01*
X13168Y-15392D01*
X13167Y-15829D01*
X13205Y-15921D01*
X13276Y-15991D01*
X13368Y-16029D01*
X13467Y-16030D01*
X13805Y-16030D01*
X13868Y-15967D01*
X13868Y-17132D01*
X13805Y-17070D01*
X13467Y-17069D01*
X13368Y-17070D01*
X13276Y-17108D01*
X13205Y-17178D01*
X13167Y-17270D01*
X13168Y-17707D01*
X13230Y-17770D01*
X13868Y-17770D01*
X13868Y-17870D01*
X13230Y-17870D01*
X13168Y-17932D01*
X13167Y-18369D01*
X13205Y-18461D01*
X13276Y-18531D01*
X13368Y-18569D01*
X13467Y-18570D01*
X13805Y-18570D01*
X13868Y-18507D01*
X13868Y-18786D01*
X13805Y-18724D01*
X13467Y-18723D01*
X13368Y-18724D01*
X13276Y-18762D01*
X13205Y-18832D01*
X13167Y-18924D01*
X13168Y-19361D01*
X13230Y-19424D01*
X13868Y-19424D01*
X13868Y-19524D01*
X13230Y-19524D01*
X13168Y-19586D01*
X13167Y-20023D01*
X13205Y-20115D01*
X13276Y-20185D01*
X13368Y-20223D01*
X13467Y-20224D01*
X13805Y-20224D01*
X13868Y-20161D01*
X13868Y-20438D01*
X13805Y-20376D01*
X13467Y-20375D01*
X13368Y-20376D01*
X13276Y-20414D01*
X13205Y-20484D01*
X13167Y-20576D01*
X13168Y-21013D01*
X13230Y-21076D01*
X13868Y-21076D01*
X13868Y-21176D01*
X13230Y-21176D01*
X13168Y-21238D01*
X13167Y-21675D01*
X13205Y-21767D01*
X13276Y-21837D01*
X13368Y-21875D01*
X13467Y-21876D01*
X13805Y-21876D01*
X13868Y-21813D01*
X13868Y-22092D01*
X13805Y-22030D01*
X13467Y-22029D01*
X13368Y-22030D01*
X13276Y-22068D01*
X13205Y-22138D01*
X13167Y-22230D01*
X13168Y-22667D01*
X13230Y-22730D01*
X13868Y-22730D01*
X13868Y-22830D01*
X13230Y-22830D01*
X13168Y-22892D01*
X13167Y-23329D01*
X13205Y-23421D01*
X13276Y-23491D01*
X13368Y-23529D01*
X13467Y-23530D01*
X13805Y-23530D01*
X13868Y-23467D01*
X13868Y-26448D01*
X13639Y-26677D01*
X13639Y-25014D01*
X13496Y-24668D01*
X13232Y-24404D01*
X12887Y-24261D01*
X12514Y-24260D01*
X12168Y-24403D01*
X11904Y-24667D01*
X11884Y-24716D01*
X11884Y-22613D01*
X11884Y-17653D01*
X11884Y-15113D01*
X11884Y-10153D01*
X11756Y-9844D01*
X11520Y-9607D01*
X11211Y-9479D01*
X10876Y-9479D01*
X10567Y-9607D01*
X10331Y-9843D01*
X10202Y-10152D01*
X10202Y-10486D01*
X10330Y-10795D01*
X10566Y-11032D01*
X10875Y-11160D01*
X11209Y-11160D01*
X11518Y-11033D01*
X11755Y-10796D01*
X11883Y-10487D01*
X11884Y-10153D01*
X11884Y-15113D01*
X11756Y-14804D01*
X11520Y-14567D01*
X11211Y-14439D01*
X10876Y-14439D01*
X10567Y-14567D01*
X10331Y-14803D01*
X10202Y-15112D01*
X10202Y-15446D01*
X10330Y-15755D01*
X10566Y-15992D01*
X10875Y-16120D01*
X11209Y-16120D01*
X11518Y-15993D01*
X11755Y-15756D01*
X11883Y-15447D01*
X11884Y-15113D01*
X11884Y-17653D01*
X11756Y-17344D01*
X11520Y-17107D01*
X11211Y-16979D01*
X10876Y-16979D01*
X10567Y-17107D01*
X10331Y-17343D01*
X10202Y-17652D01*
X10202Y-17986D01*
X10330Y-18295D01*
X10566Y-18532D01*
X10875Y-18660D01*
X11209Y-18660D01*
X11518Y-18533D01*
X11755Y-18296D01*
X11883Y-17987D01*
X11884Y-17653D01*
X11884Y-22613D01*
X11756Y-22304D01*
X11520Y-22067D01*
X11211Y-21939D01*
X10876Y-21939D01*
X10567Y-22067D01*
X10331Y-22303D01*
X10202Y-22612D01*
X10202Y-22946D01*
X10330Y-23255D01*
X10566Y-23492D01*
X10875Y-23620D01*
X11209Y-23620D01*
X11518Y-23493D01*
X11755Y-23256D01*
X11883Y-22947D01*
X11884Y-22613D01*
X11884Y-24716D01*
X11761Y-25012D01*
X11760Y-25385D01*
X11903Y-25731D01*
X12167Y-25995D01*
X12512Y-26138D01*
X12885Y-26139D01*
X13231Y-25996D01*
X13495Y-25732D01*
X13638Y-25387D01*
X13639Y-25014D01*
X13639Y-26677D01*
X13599Y-26716D01*
X13519Y-26836D01*
X13491Y-26977D01*
X13491Y-28664D01*
X13232Y-28404D01*
X12887Y-28261D01*
X12514Y-28260D01*
X12168Y-28403D01*
X11904Y-28667D01*
X11761Y-29012D01*
X11760Y-29385D01*
X11903Y-29731D01*
X12167Y-29995D01*
X12512Y-30138D01*
X12885Y-30139D01*
X13231Y-29996D01*
X13491Y-29736D01*
X13491Y-31064D01*
X13232Y-30804D01*
X12887Y-30661D01*
X12514Y-30660D01*
X12168Y-30803D01*
X11904Y-31067D01*
X11761Y-31412D01*
X11760Y-31785D01*
X11903Y-32131D01*
X12167Y-32395D01*
X12512Y-32538D01*
X12885Y-32539D01*
X13231Y-32396D01*
X13491Y-32136D01*
X13491Y-34885D01*
X13487Y-34906D01*
X13515Y-35046D01*
X13595Y-35166D01*
X14539Y-36110D01*
X14539Y-36110D01*
X14659Y-36190D01*
X14799Y-36218D01*
X14799Y-36218D01*
X14800Y-36218D01*
X19800Y-36218D01*
X19940Y-36190D01*
X20060Y-36110D01*
X21460Y-34710D01*
X21540Y-34590D01*
X21568Y-34450D01*
X21568Y-32302D01*
X22219Y-31650D01*
X22220Y-31869D01*
X22282Y-31932D01*
X22920Y-31932D01*
X22920Y-31924D01*
X23020Y-31924D01*
X23020Y-31932D01*
X23657Y-31932D01*
X23720Y-31869D01*
X23720Y-31531D01*
X23719Y-31432D01*
X23681Y-31340D01*
X23611Y-31269D01*
X23607Y-31268D01*
X23750Y-31268D01*
X23890Y-31240D01*
X24010Y-31160D01*
X24602Y-30568D01*
X24853Y-30568D01*
X25145Y-30860D01*
X25265Y-30940D01*
X25406Y-30968D01*
X29025Y-30968D01*
X29165Y-30940D01*
X29285Y-30860D01*
X29502Y-30643D01*
X32362Y-30643D01*
X35953Y-30643D01*
X36090Y-30699D01*
X36259Y-30700D01*
X36415Y-30635D01*
X36535Y-30516D01*
X36599Y-30359D01*
X36600Y-30190D01*
X36535Y-30034D01*
X36469Y-29968D01*
X37800Y-29968D01*
X37940Y-29940D01*
X38060Y-29860D01*
X38291Y-29628D01*
X38291Y-29628D01*
X38291Y-29628D01*
X38371Y-29509D01*
X38399Y-29368D01*
X38399Y-28411D01*
X38461Y-28503D01*
X38639Y-28622D01*
X38850Y-28664D01*
X39060Y-28622D01*
X39238Y-28503D01*
X39350Y-28337D01*
X39461Y-28503D01*
X39639Y-28622D01*
X39850Y-28664D01*
X40060Y-28622D01*
X40238Y-28503D01*
X40350Y-28337D01*
X40461Y-28503D01*
X40639Y-28622D01*
X40850Y-28664D01*
X41060Y-28622D01*
X41238Y-28503D01*
X41350Y-28337D01*
X41461Y-28503D01*
X41639Y-28622D01*
X41850Y-28664D01*
X42060Y-28622D01*
X42238Y-28503D01*
X42350Y-28337D01*
X42461Y-28503D01*
X42639Y-28622D01*
X42850Y-28664D01*
X43060Y-28622D01*
X43238Y-28503D01*
X43350Y-28337D01*
X43461Y-28503D01*
X43639Y-28622D01*
X43850Y-28664D01*
X44060Y-28622D01*
X44238Y-28503D01*
X44350Y-28337D01*
X44461Y-28503D01*
X44639Y-28622D01*
X44850Y-28664D01*
X45060Y-28622D01*
X45238Y-28503D01*
X45350Y-28337D01*
X45461Y-28503D01*
X45639Y-28622D01*
X45850Y-28664D01*
X46060Y-28622D01*
X46238Y-28503D01*
X46358Y-28325D01*
X46400Y-28114D01*
X46400Y-27685D01*
X46358Y-27474D01*
X46238Y-27296D01*
X46060Y-27177D01*
X45850Y-27135D01*
X45639Y-27177D01*
X45461Y-27296D01*
X45350Y-27462D01*
X45238Y-27296D01*
X45060Y-27177D01*
X44850Y-27135D01*
X44639Y-27177D01*
X44461Y-27296D01*
X44350Y-27462D01*
X44238Y-27296D01*
X44060Y-27177D01*
X43850Y-27135D01*
X43639Y-27177D01*
X43461Y-27296D01*
X43350Y-27462D01*
X43238Y-27296D01*
X43060Y-27177D01*
X42850Y-27135D01*
X42639Y-27177D01*
X42461Y-27296D01*
X42350Y-27462D01*
X42238Y-27296D01*
X42060Y-27177D01*
X41850Y-27135D01*
X41639Y-27177D01*
X41461Y-27296D01*
X41350Y-27462D01*
X41238Y-27296D01*
X41060Y-27177D01*
X40850Y-27135D01*
X40639Y-27177D01*
X40461Y-27296D01*
X40350Y-27462D01*
X40238Y-27296D01*
X40060Y-27177D01*
X39850Y-27135D01*
X39639Y-27177D01*
X39461Y-27296D01*
X39350Y-27462D01*
X39238Y-27296D01*
X39060Y-27177D01*
X38850Y-27135D01*
X38639Y-27177D01*
X38461Y-27296D01*
X38399Y-27388D01*
X38399Y-27357D01*
X39706Y-26050D01*
X39709Y-26050D01*
X39865Y-25985D01*
X39985Y-25866D01*
X40049Y-25709D01*
X40049Y-25706D01*
X40393Y-25363D01*
X40393Y-25363D01*
X40393Y-25363D01*
X40458Y-25298D01*
X42520Y-25298D01*
X42660Y-25270D01*
X42780Y-25190D01*
X43515Y-24455D01*
X43549Y-24403D01*
X43553Y-24402D01*
X43624Y-24331D01*
X43629Y-24318D01*
X43635Y-24331D01*
X43663Y-24359D01*
X43614Y-24408D01*
X43550Y-24565D01*
X43549Y-24734D01*
X43614Y-24890D01*
X43733Y-25010D01*
X43890Y-25074D01*
X44059Y-25075D01*
X44215Y-25010D01*
X44335Y-24891D01*
X44399Y-24734D01*
X44400Y-24565D01*
X44335Y-24409D01*
X44315Y-24390D01*
X44374Y-24331D01*
X44412Y-24239D01*
X44412Y-24140D01*
X44412Y-24009D01*
X45645Y-22777D01*
X45645Y-22777D01*
X45710Y-22679D01*
X45733Y-22564D01*
X45733Y-22564D01*
X45733Y-17244D01*
X45710Y-17129D01*
X45645Y-17031D01*
X45645Y-17031D01*
X45146Y-16533D01*
X45146Y-16071D01*
X45158Y-16059D01*
X45196Y-15967D01*
X45196Y-15868D01*
X45196Y-15418D01*
X45158Y-15326D01*
X45088Y-15256D01*
X44996Y-15217D01*
X44896Y-15217D01*
X44696Y-15217D01*
X44605Y-15255D01*
X44596Y-15264D01*
X44588Y-15256D01*
X44496Y-15217D01*
X44396Y-15217D01*
X44196Y-15217D01*
X44146Y-15238D01*
X44146Y-14427D01*
X44150Y-14423D01*
X44150Y-14472D01*
X44278Y-14781D01*
X44514Y-15018D01*
X44823Y-15146D01*
X45157Y-15146D01*
X45466Y-15018D01*
X45703Y-14782D01*
X45831Y-14473D01*
X45831Y-14139D01*
X45703Y-13830D01*
X45467Y-13593D01*
X45158Y-13465D01*
X44824Y-13465D01*
X44788Y-13480D01*
X44788Y-9776D01*
X45145Y-9924D01*
X45552Y-9925D01*
X45929Y-9769D01*
X46218Y-9481D01*
X46357Y-9147D01*
X46383Y-9211D01*
X46538Y-9365D01*
X46619Y-9399D01*
X46538Y-9433D01*
X46384Y-9588D01*
X46300Y-9790D01*
X46299Y-10008D01*
X46383Y-10211D01*
X46538Y-10365D01*
X46619Y-10399D01*
X46538Y-10433D01*
X46384Y-10588D01*
X46300Y-10790D01*
X46299Y-11008D01*
X46383Y-11211D01*
X46538Y-11365D01*
X46619Y-11399D01*
X46538Y-11433D01*
X46384Y-11588D01*
X46300Y-11790D01*
X46299Y-12008D01*
X46383Y-12211D01*
X46538Y-12365D01*
X46619Y-12399D01*
X46538Y-12433D01*
X46384Y-12588D01*
X46300Y-12790D01*
X46299Y-13008D01*
X46383Y-13211D01*
X46538Y-13365D01*
X46619Y-13399D01*
X46538Y-13433D01*
X46384Y-13588D01*
X46300Y-13790D01*
X46299Y-14008D01*
X46383Y-14211D01*
X46538Y-14365D01*
X46619Y-14399D01*
X46538Y-14433D01*
X46384Y-14588D01*
X46300Y-14790D01*
X46299Y-15008D01*
X46383Y-15211D01*
X46538Y-15365D01*
X46619Y-15399D01*
X46538Y-15433D01*
X46384Y-15588D01*
X46300Y-15790D01*
X46299Y-16008D01*
X46383Y-16211D01*
X46538Y-16365D01*
X46619Y-16399D01*
X46538Y-16433D01*
X46384Y-16588D01*
X46300Y-16790D01*
X46299Y-17008D01*
X46383Y-17211D01*
X46538Y-17365D01*
X46619Y-17399D01*
X46538Y-17433D01*
X46384Y-17588D01*
X46300Y-17790D01*
X46299Y-18008D01*
X46383Y-18211D01*
X46538Y-18365D01*
X46619Y-18399D01*
X46538Y-18433D01*
X46384Y-18588D01*
X46300Y-18790D01*
X46299Y-19008D01*
X46383Y-19211D01*
X46538Y-19365D01*
X46619Y-19399D01*
X46538Y-19433D01*
X46384Y-19588D01*
X46300Y-19790D01*
X46299Y-20008D01*
X46383Y-20211D01*
X46538Y-20365D01*
X46619Y-20399D01*
X46538Y-20433D01*
X46384Y-20588D01*
X46300Y-20790D01*
X46299Y-21008D01*
X46383Y-21211D01*
X46538Y-21365D01*
X46619Y-21399D01*
X46538Y-21433D01*
X46384Y-21588D01*
X46300Y-21790D01*
X46299Y-22008D01*
X46383Y-22211D01*
X46538Y-22365D01*
X46619Y-22399D01*
X46538Y-22433D01*
X46384Y-22588D01*
X46300Y-22790D01*
X46299Y-23008D01*
X46383Y-23211D01*
X46538Y-23365D01*
X46619Y-23399D01*
X46538Y-23433D01*
X46384Y-23588D01*
X46300Y-23790D01*
X46299Y-24008D01*
X46383Y-24211D01*
X46538Y-24365D01*
X46619Y-24399D01*
X46538Y-24433D01*
X46384Y-24588D01*
X46300Y-24790D01*
X46299Y-25008D01*
X46383Y-25211D01*
X46538Y-25365D01*
X46613Y-25397D01*
X46562Y-25418D01*
X46534Y-25514D01*
X46850Y-25829D01*
X47165Y-25514D01*
X47137Y-25418D01*
X47082Y-25399D01*
X47161Y-25366D01*
X47315Y-25211D01*
X47349Y-25130D01*
X47383Y-25211D01*
X47538Y-25365D01*
X47613Y-25397D01*
X47562Y-25418D01*
X47534Y-25514D01*
X47850Y-25829D01*
X48165Y-25514D01*
X48137Y-25418D01*
X48082Y-25399D01*
X48161Y-25366D01*
X48315Y-25211D01*
X48399Y-25009D01*
X48400Y-24791D01*
X48316Y-24588D01*
X48161Y-24434D01*
X48080Y-24400D01*
X48161Y-24366D01*
X48315Y-24211D01*
X48399Y-24009D01*
X48400Y-23791D01*
X48316Y-23588D01*
X48161Y-23434D01*
X48080Y-23400D01*
X48161Y-23366D01*
X48315Y-23211D01*
X48399Y-23009D01*
X48400Y-22791D01*
X48316Y-22588D01*
X48161Y-22434D01*
X48080Y-22400D01*
X48161Y-22366D01*
X48315Y-22211D01*
X48399Y-22009D01*
X48400Y-21791D01*
X48316Y-21588D01*
X48161Y-21434D01*
X48080Y-21400D01*
X48161Y-21366D01*
X48315Y-21211D01*
X48399Y-21009D01*
X48400Y-20791D01*
X48316Y-20588D01*
X48161Y-20434D01*
X48080Y-20400D01*
X48161Y-20366D01*
X48315Y-20211D01*
X48399Y-20009D01*
X48400Y-19791D01*
X48316Y-19588D01*
X48161Y-19434D01*
X48080Y-19400D01*
X48161Y-19366D01*
X48315Y-19211D01*
X48399Y-19009D01*
X48400Y-18791D01*
X48316Y-18588D01*
X48161Y-18434D01*
X48080Y-18400D01*
X48161Y-18366D01*
X48315Y-18211D01*
X48399Y-18009D01*
X48400Y-17791D01*
X48316Y-17588D01*
X48161Y-17434D01*
X48080Y-17400D01*
X48161Y-17366D01*
X48315Y-17211D01*
X48399Y-17009D01*
X48400Y-16791D01*
X48316Y-16588D01*
X48161Y-16434D01*
X48080Y-16400D01*
X48161Y-16366D01*
X48315Y-16211D01*
X48399Y-16009D01*
X48400Y-15791D01*
X48316Y-15588D01*
X48161Y-15434D01*
X48080Y-15400D01*
X48161Y-15366D01*
X48315Y-15211D01*
X48399Y-15009D01*
X48400Y-14791D01*
X48316Y-14588D01*
X48161Y-14434D01*
X48080Y-14400D01*
X48161Y-14366D01*
X48315Y-14211D01*
X48399Y-14009D01*
X48400Y-13791D01*
X48316Y-13588D01*
X48161Y-13434D01*
X48080Y-13400D01*
X48161Y-13366D01*
X48315Y-13211D01*
X48399Y-13009D01*
X48400Y-12791D01*
X48316Y-12588D01*
X48161Y-12434D01*
X48080Y-12400D01*
X48161Y-12366D01*
X48315Y-12211D01*
X48399Y-12009D01*
X48400Y-11791D01*
X48316Y-11588D01*
X48161Y-11434D01*
X48080Y-11400D01*
X48161Y-11366D01*
X48315Y-11211D01*
X48399Y-11009D01*
X48400Y-10791D01*
X48316Y-10588D01*
X48161Y-10434D01*
X48080Y-10400D01*
X48161Y-10366D01*
X48315Y-10211D01*
X48399Y-10009D01*
X48400Y-9791D01*
X48316Y-9588D01*
X48161Y-9434D01*
X48080Y-9400D01*
X48161Y-9366D01*
X48315Y-9211D01*
X48399Y-9009D01*
X48400Y-8791D01*
X48316Y-8588D01*
X48161Y-8434D01*
X47959Y-8350D01*
X47741Y-8349D01*
X47538Y-8433D01*
X47384Y-8588D01*
X47350Y-8669D01*
X47316Y-8588D01*
X47161Y-8434D01*
X46959Y-8350D01*
X46741Y-8349D01*
X46538Y-8433D01*
X46384Y-8588D01*
X46357Y-8653D01*
X46219Y-8320D01*
X46124Y-8225D01*
X49125Y-8225D01*
X49125Y-36265D01*
X49125Y-36265D01*
G37*
G54D33*
X49125Y-36265D02*
X48875Y-36265D01*
X48875Y-27697D01*
X48719Y-27320D01*
X48431Y-27031D01*
X48404Y-27020D01*
X48404Y-25981D01*
X48393Y-25763D01*
X48331Y-25612D01*
X48235Y-25584D01*
X47920Y-25900D01*
X48235Y-26215D01*
X48331Y-26187D01*
X48404Y-25981D01*
X48404Y-27020D01*
X48165Y-26921D01*
X48165Y-26285D01*
X47850Y-25970D01*
X47779Y-26041D01*
X47779Y-25900D01*
X47464Y-25584D01*
X47368Y-25612D01*
X47351Y-25660D01*
X47331Y-25612D01*
X47235Y-25584D01*
X46920Y-25900D01*
X47235Y-26215D01*
X47331Y-26187D01*
X47348Y-26139D01*
X47368Y-26187D01*
X47464Y-26215D01*
X47779Y-25900D01*
X47779Y-26041D01*
X47534Y-26285D01*
X47562Y-26381D01*
X47768Y-26454D01*
X47986Y-26443D01*
X48137Y-26381D01*
X48165Y-26285D01*
X48165Y-26921D01*
X48054Y-26875D01*
X47647Y-26874D01*
X47270Y-27030D01*
X47165Y-27135D01*
X47165Y-26285D01*
X46850Y-25970D01*
X46779Y-26041D01*
X46779Y-25900D01*
X46464Y-25584D01*
X46368Y-25612D01*
X46295Y-25818D01*
X46306Y-26036D01*
X46368Y-26187D01*
X46464Y-26215D01*
X46779Y-25900D01*
X46779Y-26041D01*
X46534Y-26285D01*
X46562Y-26381D01*
X46768Y-26454D01*
X46986Y-26443D01*
X47137Y-26381D01*
X47165Y-26285D01*
X47165Y-27135D01*
X46981Y-27318D01*
X46825Y-27695D01*
X46824Y-28102D01*
X46980Y-28479D01*
X47268Y-28768D01*
X47645Y-28924D01*
X48052Y-28925D01*
X48429Y-28769D01*
X48718Y-28481D01*
X48874Y-28104D01*
X48875Y-27697D01*
X48875Y-36265D01*
X40600Y-36265D01*
X40600Y-32181D01*
X40471Y-31869D01*
X40232Y-31629D01*
X39919Y-31500D01*
X39581Y-31499D01*
X39269Y-31628D01*
X39029Y-31867D01*
X38900Y-32180D01*
X38899Y-32518D01*
X39028Y-32830D01*
X39267Y-33070D01*
X39580Y-33199D01*
X39918Y-33200D01*
X40230Y-33071D01*
X40470Y-32832D01*
X40599Y-32519D01*
X40600Y-32181D01*
X40600Y-36265D01*
X38000Y-36265D01*
X38000Y-32541D01*
X37916Y-32338D01*
X37777Y-32200D01*
X37799Y-32200D01*
X37891Y-32162D01*
X37961Y-32091D01*
X37999Y-31999D01*
X38000Y-31900D01*
X38000Y-31300D01*
X37962Y-31208D01*
X37891Y-31138D01*
X37799Y-31100D01*
X37700Y-31099D01*
X37100Y-31099D01*
X37008Y-31137D01*
X36938Y-31208D01*
X36900Y-31300D01*
X36899Y-31353D01*
X36835Y-31334D01*
X36765Y-31405D01*
X36765Y-31264D01*
X36737Y-31168D01*
X36531Y-31095D01*
X36313Y-31106D01*
X36162Y-31168D01*
X36134Y-31264D01*
X36450Y-31579D01*
X36765Y-31264D01*
X36765Y-31405D01*
X36520Y-31650D01*
X36835Y-31965D01*
X36899Y-31946D01*
X36899Y-31999D01*
X36937Y-32091D01*
X37008Y-32161D01*
X37100Y-32199D01*
X37122Y-32199D01*
X36984Y-32338D01*
X36950Y-32419D01*
X36916Y-32338D01*
X36761Y-32184D01*
X36686Y-32152D01*
X36737Y-32131D01*
X36765Y-32035D01*
X36450Y-31720D01*
X36134Y-32035D01*
X36162Y-32131D01*
X36217Y-32150D01*
X36138Y-32183D01*
X35984Y-32338D01*
X35950Y-32419D01*
X35916Y-32338D01*
X35761Y-32184D01*
X35680Y-32150D01*
X35761Y-32116D01*
X35915Y-31961D01*
X35947Y-31886D01*
X35968Y-31937D01*
X36064Y-31965D01*
X36379Y-31650D01*
X36064Y-31334D01*
X35968Y-31362D01*
X35949Y-31417D01*
X35916Y-31338D01*
X35761Y-31184D01*
X35559Y-31100D01*
X35341Y-31099D01*
X35138Y-31183D01*
X34984Y-31338D01*
X34950Y-31419D01*
X34916Y-31338D01*
X34761Y-31184D01*
X34559Y-31100D01*
X34341Y-31099D01*
X34138Y-31183D01*
X33984Y-31338D01*
X33950Y-31419D01*
X33916Y-31338D01*
X33761Y-31184D01*
X33559Y-31100D01*
X33341Y-31099D01*
X33138Y-31183D01*
X32984Y-31338D01*
X32900Y-31540D01*
X32899Y-31758D01*
X32983Y-31961D01*
X33138Y-32115D01*
X33219Y-32149D01*
X33138Y-32183D01*
X32984Y-32338D01*
X32900Y-32540D01*
X32899Y-32758D01*
X32983Y-32961D01*
X33138Y-33115D01*
X33340Y-33199D01*
X33558Y-33200D01*
X33761Y-33116D01*
X33915Y-32961D01*
X33949Y-32880D01*
X33983Y-32961D01*
X34138Y-33115D01*
X34340Y-33199D01*
X34558Y-33200D01*
X34761Y-33116D01*
X34915Y-32961D01*
X34949Y-32880D01*
X34983Y-32961D01*
X35138Y-33115D01*
X35340Y-33199D01*
X35558Y-33200D01*
X35761Y-33116D01*
X35915Y-32961D01*
X35949Y-32880D01*
X35983Y-32961D01*
X36138Y-33115D01*
X36340Y-33199D01*
X36558Y-33200D01*
X36761Y-33116D01*
X36915Y-32961D01*
X36949Y-32880D01*
X36983Y-32961D01*
X37138Y-33115D01*
X37340Y-33199D01*
X37558Y-33200D01*
X37761Y-33116D01*
X37915Y-32961D01*
X37999Y-32759D01*
X38000Y-32541D01*
X38000Y-36265D01*
X32000Y-36265D01*
X32000Y-32181D01*
X31871Y-31869D01*
X31632Y-31629D01*
X31319Y-31500D01*
X30981Y-31499D01*
X30669Y-31628D01*
X30429Y-31867D01*
X30300Y-32180D01*
X30299Y-32518D01*
X30428Y-32830D01*
X30667Y-33070D01*
X30980Y-33199D01*
X31318Y-33200D01*
X31630Y-33071D01*
X31870Y-32832D01*
X31999Y-32519D01*
X32000Y-32181D01*
X32000Y-36265D01*
X28770Y-36265D01*
X28770Y-34690D01*
X28680Y-34470D01*
X28680Y-32432D01*
X28680Y-31531D01*
X28679Y-31432D01*
X28641Y-31340D01*
X28571Y-31269D01*
X28479Y-31231D01*
X28042Y-31232D01*
X27980Y-31294D01*
X27980Y-31932D01*
X28617Y-31932D01*
X28680Y-31869D01*
X28680Y-31531D01*
X28680Y-32432D01*
X28680Y-32094D01*
X28617Y-32032D01*
X27980Y-32032D01*
X27980Y-32669D01*
X28042Y-32732D01*
X28479Y-32732D01*
X28571Y-32694D01*
X28641Y-32623D01*
X28679Y-32531D01*
X28680Y-32432D01*
X28680Y-34470D01*
X28643Y-34381D01*
X28406Y-34144D01*
X28097Y-34016D01*
X27880Y-34016D01*
X27880Y-32669D01*
X27880Y-32032D01*
X27880Y-31932D01*
X27880Y-31294D01*
X27817Y-31232D01*
X27380Y-31231D01*
X27288Y-31269D01*
X27218Y-31340D01*
X27180Y-31432D01*
X27179Y-31531D01*
X27180Y-31869D01*
X27242Y-31932D01*
X27880Y-31932D01*
X27880Y-32032D01*
X27242Y-32032D01*
X27180Y-32094D01*
X27179Y-32432D01*
X27180Y-32531D01*
X27218Y-32623D01*
X27288Y-32694D01*
X27380Y-32732D01*
X27817Y-32732D01*
X27880Y-32669D01*
X27880Y-34016D01*
X27763Y-34015D01*
X27454Y-34143D01*
X27217Y-34379D01*
X27089Y-34688D01*
X27089Y-35023D01*
X27217Y-35332D01*
X27453Y-35568D01*
X27762Y-35697D01*
X28096Y-35697D01*
X28405Y-35569D01*
X28642Y-35333D01*
X28770Y-35024D01*
X28770Y-34690D01*
X28770Y-36265D01*
X27026Y-36265D01*
X27026Y-32432D01*
X27026Y-31531D01*
X27025Y-31432D01*
X26987Y-31340D01*
X26917Y-31269D01*
X26825Y-31231D01*
X26388Y-31232D01*
X26326Y-31294D01*
X26326Y-31932D01*
X26963Y-31932D01*
X27026Y-31869D01*
X27026Y-31531D01*
X27026Y-32432D01*
X27026Y-32094D01*
X26963Y-32032D01*
X26326Y-32032D01*
X26326Y-32669D01*
X26388Y-32732D01*
X26825Y-32732D01*
X26917Y-32694D01*
X26987Y-32623D01*
X27025Y-32531D01*
X27026Y-32432D01*
X27026Y-36265D01*
X26226Y-36265D01*
X26226Y-32669D01*
X26226Y-32032D01*
X26226Y-31932D01*
X26226Y-31294D01*
X26163Y-31232D01*
X25726Y-31231D01*
X25634Y-31269D01*
X25564Y-31340D01*
X25526Y-31432D01*
X25525Y-31531D01*
X25526Y-31869D01*
X25588Y-31932D01*
X26226Y-31932D01*
X26226Y-32032D01*
X25588Y-32032D01*
X25526Y-32094D01*
X25525Y-32432D01*
X25526Y-32531D01*
X25564Y-32623D01*
X25634Y-32694D01*
X25726Y-32732D01*
X26163Y-32732D01*
X26226Y-32669D01*
X26226Y-36265D01*
X25374Y-36265D01*
X25374Y-32432D01*
X25374Y-31531D01*
X25373Y-31432D01*
X25335Y-31340D01*
X25265Y-31269D01*
X25173Y-31231D01*
X24736Y-31232D01*
X24674Y-31294D01*
X24674Y-31932D01*
X25311Y-31932D01*
X25374Y-31869D01*
X25374Y-31531D01*
X25374Y-32432D01*
X25374Y-32094D01*
X25311Y-32032D01*
X24674Y-32032D01*
X24674Y-32669D01*
X24736Y-32732D01*
X25173Y-32732D01*
X25265Y-32694D01*
X25335Y-32623D01*
X25373Y-32531D01*
X25374Y-32432D01*
X25374Y-36265D01*
X24574Y-36265D01*
X24574Y-32669D01*
X24574Y-32032D01*
X24574Y-31932D01*
X24574Y-31294D01*
X24511Y-31232D01*
X24074Y-31231D01*
X23982Y-31269D01*
X23912Y-31340D01*
X23874Y-31432D01*
X23873Y-31531D01*
X23874Y-31869D01*
X23936Y-31932D01*
X24574Y-31932D01*
X24574Y-32032D01*
X23936Y-32032D01*
X23874Y-32094D01*
X23873Y-32432D01*
X23874Y-32531D01*
X23912Y-32623D01*
X23982Y-32694D01*
X24074Y-32732D01*
X24511Y-32732D01*
X24574Y-32669D01*
X24574Y-36265D01*
X23810Y-36265D01*
X23810Y-34690D01*
X23720Y-34470D01*
X23720Y-32432D01*
X23720Y-32094D01*
X23657Y-32032D01*
X23020Y-32032D01*
X23020Y-32669D01*
X23082Y-32732D01*
X23519Y-32732D01*
X23611Y-32694D01*
X23681Y-32623D01*
X23719Y-32531D01*
X23720Y-32432D01*
X23720Y-34470D01*
X23683Y-34381D01*
X23446Y-34144D01*
X23137Y-34016D01*
X22920Y-34016D01*
X22920Y-32669D01*
X22920Y-32032D01*
X22282Y-32032D01*
X22220Y-32094D01*
X22219Y-32432D01*
X22220Y-32531D01*
X22258Y-32623D01*
X22328Y-32694D01*
X22420Y-32732D01*
X22857Y-32732D01*
X22920Y-32669D01*
X22920Y-34016D01*
X22803Y-34015D01*
X22494Y-34143D01*
X22257Y-34379D01*
X22129Y-34688D01*
X22129Y-35023D01*
X22257Y-35332D01*
X22493Y-35568D01*
X22802Y-35697D01*
X23136Y-35697D01*
X23445Y-35569D01*
X23682Y-35333D01*
X23810Y-35024D01*
X23810Y-34690D01*
X23810Y-36265D01*
X13362Y-36265D01*
X13495Y-36132D01*
X13638Y-35787D01*
X13639Y-35414D01*
X13496Y-35068D01*
X13232Y-34804D01*
X12887Y-34661D01*
X12514Y-34660D01*
X12168Y-34803D01*
X11904Y-35067D01*
X11761Y-35412D01*
X11760Y-35785D01*
X11903Y-36131D01*
X12037Y-36265D01*
X10025Y-36265D01*
X10025Y-8225D01*
X16967Y-8225D01*
X16861Y-8296D01*
X16741Y-8474D01*
X16700Y-8685D01*
X16700Y-9114D01*
X16741Y-9325D01*
X16861Y-9503D01*
X17039Y-9622D01*
X17250Y-9664D01*
X17460Y-9622D01*
X17638Y-9503D01*
X17750Y-9337D01*
X17861Y-9503D01*
X18039Y-9622D01*
X18250Y-9664D01*
X18460Y-9622D01*
X18638Y-9503D01*
X18750Y-9337D01*
X18861Y-9503D01*
X19039Y-9622D01*
X19250Y-9664D01*
X19460Y-9622D01*
X19638Y-9503D01*
X19750Y-9337D01*
X19861Y-9503D01*
X20039Y-9622D01*
X20250Y-9664D01*
X20460Y-9622D01*
X20638Y-9503D01*
X20750Y-9337D01*
X20861Y-9503D01*
X21039Y-9622D01*
X21250Y-9664D01*
X21460Y-9622D01*
X21638Y-9503D01*
X21750Y-9337D01*
X21861Y-9503D01*
X22039Y-9622D01*
X22250Y-9664D01*
X22460Y-9622D01*
X22638Y-9503D01*
X22750Y-9337D01*
X22861Y-9503D01*
X23039Y-9622D01*
X23250Y-9664D01*
X23460Y-9622D01*
X23638Y-9503D01*
X23750Y-9337D01*
X23861Y-9503D01*
X24039Y-9622D01*
X24250Y-9664D01*
X24460Y-9622D01*
X24638Y-9503D01*
X24750Y-9337D01*
X24835Y-9465D01*
X24475Y-9825D01*
X22400Y-9825D01*
X22285Y-9847D01*
X22187Y-9912D01*
X21150Y-10949D01*
X20750Y-10949D01*
X20658Y-10987D01*
X20588Y-11058D01*
X20550Y-11150D01*
X20549Y-11249D01*
X20549Y-11849D01*
X20587Y-11941D01*
X20658Y-12011D01*
X20750Y-12049D01*
X20849Y-12050D01*
X21649Y-12050D01*
X21700Y-12029D01*
X21750Y-12049D01*
X21849Y-12050D01*
X22649Y-12050D01*
X22700Y-12029D01*
X22750Y-12049D01*
X22849Y-12050D01*
X23649Y-12050D01*
X23700Y-12029D01*
X23750Y-12049D01*
X23849Y-12050D01*
X24649Y-12050D01*
X24700Y-12029D01*
X24750Y-12049D01*
X24849Y-12050D01*
X25649Y-12050D01*
X25700Y-12029D01*
X25750Y-12049D01*
X25849Y-12050D01*
X26649Y-12050D01*
X26741Y-12012D01*
X26811Y-11941D01*
X26849Y-11849D01*
X26849Y-11800D01*
X27724Y-11800D01*
X27698Y-11826D01*
X27660Y-11918D01*
X27659Y-12017D01*
X27659Y-12717D01*
X27697Y-12809D01*
X27768Y-12879D01*
X27860Y-12917D01*
X27891Y-12917D01*
X27891Y-13881D01*
X27860Y-13881D01*
X27768Y-13919D01*
X27698Y-13990D01*
X27660Y-14082D01*
X27659Y-14181D01*
X27659Y-14881D01*
X27697Y-14973D01*
X27768Y-15043D01*
X27860Y-15081D01*
X27959Y-15082D01*
X28261Y-15082D01*
X28404Y-15224D01*
X28375Y-15224D01*
X28283Y-15262D01*
X28250Y-15296D01*
X28216Y-15263D01*
X28124Y-15225D01*
X28025Y-15224D01*
X27775Y-15224D01*
X27683Y-15262D01*
X27613Y-15333D01*
X27575Y-15425D01*
X27574Y-15524D01*
X27574Y-15650D01*
X27437Y-15787D01*
X27413Y-15824D01*
X27300Y-15824D01*
X27208Y-15862D01*
X27138Y-15933D01*
X27126Y-15961D01*
X27099Y-15950D01*
X27000Y-15949D01*
X26524Y-15949D01*
X26512Y-15937D01*
X26414Y-15872D01*
X26300Y-15850D01*
X25600Y-15850D01*
X25600Y-15700D01*
X25562Y-15608D01*
X25491Y-15538D01*
X25399Y-15500D01*
X25350Y-15500D01*
X25350Y-14800D01*
X25399Y-14800D01*
X25491Y-14762D01*
X25561Y-14691D01*
X25599Y-14599D01*
X25600Y-14549D01*
X25696Y-14781D01*
X25932Y-15018D01*
X26241Y-15146D01*
X26575Y-15146D01*
X26884Y-15018D01*
X27121Y-14782D01*
X27249Y-14473D01*
X27249Y-14139D01*
X27121Y-13830D01*
X26885Y-13593D01*
X26576Y-13465D01*
X26242Y-13465D01*
X26185Y-13489D01*
X26324Y-13350D01*
X26649Y-13350D01*
X26741Y-13312D01*
X26811Y-13241D01*
X26849Y-13149D01*
X26850Y-13050D01*
X26850Y-12450D01*
X26812Y-12358D01*
X26741Y-12288D01*
X26649Y-12250D01*
X26550Y-12249D01*
X25750Y-12249D01*
X25699Y-12270D01*
X25649Y-12250D01*
X25550Y-12249D01*
X24750Y-12249D01*
X24699Y-12270D01*
X24649Y-12250D01*
X24550Y-12249D01*
X23750Y-12249D01*
X23699Y-12270D01*
X23649Y-12250D01*
X23550Y-12249D01*
X22750Y-12249D01*
X22699Y-12270D01*
X22649Y-12250D01*
X22550Y-12249D01*
X21750Y-12249D01*
X21699Y-12270D01*
X21649Y-12250D01*
X21550Y-12249D01*
X20750Y-12249D01*
X20658Y-12287D01*
X20588Y-12358D01*
X20550Y-12450D01*
X20549Y-12549D01*
X20549Y-12825D01*
X19775Y-13599D01*
X19200Y-13599D01*
X19108Y-13637D01*
X19038Y-13708D01*
X19000Y-13800D01*
X18999Y-13899D01*
X18999Y-14499D01*
X19037Y-14591D01*
X19096Y-14650D01*
X19037Y-14708D01*
X18999Y-14800D01*
X19000Y-15037D01*
X19062Y-15100D01*
X19600Y-15100D01*
X19600Y-15092D01*
X19700Y-15092D01*
X19700Y-15100D01*
X19707Y-15100D01*
X19707Y-15200D01*
X19700Y-15200D01*
X19700Y-15207D01*
X19600Y-15207D01*
X19600Y-15200D01*
X19062Y-15200D01*
X19000Y-15262D01*
X18999Y-15499D01*
X19037Y-15591D01*
X19096Y-15650D01*
X19038Y-15708D01*
X19000Y-15800D01*
X18999Y-15899D01*
X18999Y-16499D01*
X19037Y-16591D01*
X19096Y-16650D01*
X19037Y-16708D01*
X18999Y-16800D01*
X19000Y-17037D01*
X19062Y-17100D01*
X19600Y-17100D01*
X19600Y-17092D01*
X19700Y-17092D01*
X19700Y-17100D01*
X19707Y-17100D01*
X19707Y-17200D01*
X19700Y-17200D01*
X19700Y-17637D01*
X19762Y-17700D01*
X19925Y-17700D01*
X19775Y-17849D01*
X19600Y-17849D01*
X19600Y-17637D01*
X19600Y-17200D01*
X19062Y-17200D01*
X19000Y-17262D01*
X18999Y-17499D01*
X19037Y-17591D01*
X19108Y-17661D01*
X19200Y-17699D01*
X19299Y-17700D01*
X19537Y-17700D01*
X19600Y-17637D01*
X19600Y-17849D01*
X19200Y-17849D01*
X19108Y-17887D01*
X19038Y-17958D01*
X19000Y-18050D01*
X18999Y-18149D01*
X18999Y-18749D01*
X19037Y-18841D01*
X19096Y-18900D01*
X19037Y-18958D01*
X18999Y-19050D01*
X19000Y-19287D01*
X19062Y-19350D01*
X19600Y-19350D01*
X19600Y-19342D01*
X19700Y-19342D01*
X19700Y-19350D01*
X20237Y-19350D01*
X20300Y-19287D01*
X20300Y-19050D01*
X20262Y-18958D01*
X20203Y-18899D01*
X20261Y-18841D01*
X20299Y-18749D01*
X20300Y-18650D01*
X20300Y-18174D01*
X20812Y-17662D01*
X20812Y-17662D01*
X20877Y-17564D01*
X20899Y-17450D01*
X20900Y-17450D01*
X20900Y-14874D01*
X22018Y-13755D01*
X22000Y-13800D01*
X21999Y-13899D01*
X21999Y-14499D01*
X22037Y-14591D01*
X22096Y-14650D01*
X22038Y-14708D01*
X22000Y-14800D01*
X21999Y-14899D01*
X21999Y-15499D01*
X22037Y-15591D01*
X22096Y-15650D01*
X22038Y-15708D01*
X22000Y-15800D01*
X21999Y-15899D01*
X21999Y-16499D01*
X22037Y-16591D01*
X22096Y-16650D01*
X22038Y-16708D01*
X22000Y-16800D01*
X21999Y-16899D01*
X21999Y-17499D01*
X22037Y-17591D01*
X22108Y-17661D01*
X22200Y-17699D01*
X22299Y-17700D01*
X23099Y-17700D01*
X23191Y-17662D01*
X23261Y-17591D01*
X23299Y-17499D01*
X23299Y-17450D01*
X24100Y-17450D01*
X24100Y-17750D01*
X24099Y-17750D01*
X24000Y-17749D01*
X23400Y-17749D01*
X23308Y-17787D01*
X23238Y-17858D01*
X23215Y-17912D01*
X23191Y-17888D01*
X23099Y-17850D01*
X23000Y-17849D01*
X22200Y-17849D01*
X22108Y-17887D01*
X22038Y-17958D01*
X22000Y-18050D01*
X21999Y-18149D01*
X21999Y-18749D01*
X22037Y-18841D01*
X22096Y-18900D01*
X22038Y-18958D01*
X22000Y-19050D01*
X21999Y-19149D01*
X21999Y-19225D01*
X21637Y-19587D01*
X21572Y-19685D01*
X21550Y-19800D01*
X21550Y-20600D01*
X21572Y-20714D01*
X21637Y-20812D01*
X21999Y-21174D01*
X21999Y-21625D01*
X21287Y-22337D01*
X21222Y-22435D01*
X21200Y-22550D01*
X21200Y-24875D01*
X20925Y-25150D01*
X20925Y-24565D01*
X20925Y-22565D01*
X20860Y-22409D01*
X20825Y-22374D01*
X20825Y-20265D01*
X20760Y-20109D01*
X20641Y-19989D01*
X20484Y-19925D01*
X20315Y-19924D01*
X20253Y-19950D01*
X20203Y-19900D01*
X20262Y-19841D01*
X20300Y-19749D01*
X20300Y-19512D01*
X20237Y-19450D01*
X19700Y-19450D01*
X19700Y-19457D01*
X19600Y-19457D01*
X19600Y-19450D01*
X19062Y-19450D01*
X19000Y-19512D01*
X18999Y-19749D01*
X19037Y-19841D01*
X19096Y-19900D01*
X19038Y-19958D01*
X19000Y-20050D01*
X18999Y-20149D01*
X18999Y-20749D01*
X19037Y-20841D01*
X19096Y-20900D01*
X19037Y-20958D01*
X18999Y-21050D01*
X19000Y-21287D01*
X19062Y-21350D01*
X19600Y-21350D01*
X19600Y-21342D01*
X19700Y-21342D01*
X19700Y-21350D01*
X20237Y-21350D01*
X20300Y-21287D01*
X20300Y-21050D01*
X20262Y-20958D01*
X20203Y-20899D01*
X20261Y-20841D01*
X20293Y-20765D01*
X20315Y-20774D01*
X20484Y-20775D01*
X20640Y-20710D01*
X20760Y-20591D01*
X20824Y-20434D01*
X20825Y-20265D01*
X20825Y-22374D01*
X20741Y-22289D01*
X20584Y-22225D01*
X20415Y-22224D01*
X20300Y-22272D01*
X20300Y-21749D01*
X20300Y-21512D01*
X20237Y-21450D01*
X19700Y-21450D01*
X19700Y-21887D01*
X19762Y-21950D01*
X20000Y-21950D01*
X20099Y-21949D01*
X20191Y-21911D01*
X20262Y-21841D01*
X20300Y-21749D01*
X20300Y-22272D01*
X20290Y-22276D01*
X20262Y-22208D01*
X20191Y-22138D01*
X20099Y-22100D01*
X20000Y-22099D01*
X19600Y-22099D01*
X19600Y-21887D01*
X19600Y-21450D01*
X19062Y-21450D01*
X19000Y-21512D01*
X18999Y-21749D01*
X19037Y-21841D01*
X19108Y-21911D01*
X19200Y-21949D01*
X19299Y-21950D01*
X19537Y-21950D01*
X19600Y-21887D01*
X19600Y-22099D01*
X19200Y-22099D01*
X19108Y-22137D01*
X19038Y-22208D01*
X19000Y-22300D01*
X18999Y-22399D01*
X18999Y-22999D01*
X19037Y-23091D01*
X19096Y-23150D01*
X19037Y-23208D01*
X18999Y-23300D01*
X19000Y-23537D01*
X19062Y-23600D01*
X19600Y-23600D01*
X19600Y-23592D01*
X19700Y-23592D01*
X19700Y-23600D01*
X20237Y-23600D01*
X20300Y-23537D01*
X20300Y-23300D01*
X20262Y-23208D01*
X20203Y-23149D01*
X20261Y-23091D01*
X20290Y-23023D01*
X20415Y-23074D01*
X20584Y-23075D01*
X20740Y-23010D01*
X20860Y-22891D01*
X20924Y-22734D01*
X20925Y-22565D01*
X20925Y-24565D01*
X20860Y-24409D01*
X20741Y-24289D01*
X20584Y-24225D01*
X20415Y-24224D01*
X20290Y-24276D01*
X20262Y-24208D01*
X20203Y-24150D01*
X20262Y-24091D01*
X20300Y-23999D01*
X20300Y-23762D01*
X20237Y-23700D01*
X19700Y-23700D01*
X19700Y-23707D01*
X19600Y-23707D01*
X19600Y-23700D01*
X19062Y-23700D01*
X19000Y-23762D01*
X18999Y-23999D01*
X19037Y-24091D01*
X19096Y-24150D01*
X19038Y-24208D01*
X19000Y-24300D01*
X18999Y-24399D01*
X18999Y-24999D01*
X19037Y-25091D01*
X19096Y-25150D01*
X19037Y-25208D01*
X18999Y-25300D01*
X19000Y-25537D01*
X19062Y-25600D01*
X19600Y-25600D01*
X19600Y-25592D01*
X19700Y-25592D01*
X19700Y-25600D01*
X20237Y-25600D01*
X20300Y-25537D01*
X20300Y-25300D01*
X20262Y-25208D01*
X20203Y-25149D01*
X20261Y-25091D01*
X20290Y-25023D01*
X20415Y-25074D01*
X20584Y-25075D01*
X20740Y-25010D01*
X20860Y-24891D01*
X20924Y-24734D01*
X20925Y-24565D01*
X20925Y-25150D01*
X20300Y-25775D01*
X20300Y-25762D01*
X20237Y-25700D01*
X19700Y-25700D01*
X19700Y-25707D01*
X19600Y-25707D01*
X19600Y-25700D01*
X19062Y-25700D01*
X19000Y-25762D01*
X18999Y-25999D01*
X19037Y-26091D01*
X19108Y-26161D01*
X19182Y-26192D01*
X18814Y-26561D01*
X18791Y-26538D01*
X18699Y-26500D01*
X18600Y-26499D01*
X18120Y-26499D01*
X18135Y-26485D01*
X18135Y-26485D01*
X18135Y-26485D01*
X18215Y-26365D01*
X18215Y-26365D01*
X18238Y-26248D01*
X18243Y-26225D01*
X18243Y-26225D01*
X18243Y-26225D01*
X18243Y-18100D01*
X18215Y-17959D01*
X18135Y-17839D01*
X18135Y-17839D01*
X18042Y-17746D01*
X17985Y-17609D01*
X17866Y-17489D01*
X17709Y-17425D01*
X17540Y-17424D01*
X17438Y-17467D01*
X17438Y-12300D01*
X17410Y-12159D01*
X17330Y-12039D01*
X17004Y-11713D01*
X16884Y-11633D01*
X16832Y-11623D01*
X16832Y-11424D01*
X16832Y-10770D01*
X16832Y-9770D01*
X16794Y-9678D01*
X16723Y-9608D01*
X16631Y-9570D01*
X16532Y-9569D01*
X15532Y-9569D01*
X15440Y-9607D01*
X15370Y-9678D01*
X15332Y-9770D01*
X15331Y-9869D01*
X15331Y-10869D01*
X15369Y-10961D01*
X15440Y-11031D01*
X15532Y-11069D01*
X15631Y-11070D01*
X16631Y-11070D01*
X16723Y-11032D01*
X16793Y-10961D01*
X16831Y-10869D01*
X16832Y-10770D01*
X16832Y-11424D01*
X16794Y-11332D01*
X16723Y-11262D01*
X16631Y-11224D01*
X16532Y-11223D01*
X15532Y-11223D01*
X15440Y-11261D01*
X15370Y-11332D01*
X15332Y-11424D01*
X15331Y-11523D01*
X15331Y-12523D01*
X15369Y-12615D01*
X15440Y-12685D01*
X15532Y-12723D01*
X15631Y-12724D01*
X16631Y-12724D01*
X16701Y-12694D01*
X16701Y-12905D01*
X16631Y-12876D01*
X16532Y-12875D01*
X15532Y-12875D01*
X15440Y-12913D01*
X15370Y-12984D01*
X15332Y-13076D01*
X15331Y-13175D01*
X15331Y-13855D01*
X14814Y-14372D01*
X14734Y-14492D01*
X14706Y-14633D01*
X14706Y-20440D01*
X14734Y-20580D01*
X14814Y-20700D01*
X15331Y-21217D01*
X15331Y-21675D01*
X15369Y-21767D01*
X15440Y-21837D01*
X15532Y-21875D01*
X15631Y-21876D01*
X16631Y-21876D01*
X16723Y-21838D01*
X16793Y-21767D01*
X16831Y-21675D01*
X16832Y-21576D01*
X16832Y-20576D01*
X16813Y-20532D01*
X16943Y-20662D01*
X16943Y-23372D01*
X16832Y-23484D01*
X16832Y-23230D01*
X16832Y-22230D01*
X16794Y-22138D01*
X16723Y-22068D01*
X16631Y-22030D01*
X16532Y-22029D01*
X15532Y-22029D01*
X15440Y-22067D01*
X15370Y-22138D01*
X15332Y-22230D01*
X15331Y-22329D01*
X15331Y-23329D01*
X15369Y-23421D01*
X15440Y-23491D01*
X15532Y-23529D01*
X15631Y-23530D01*
X16631Y-23530D01*
X16723Y-23492D01*
X16793Y-23421D01*
X16831Y-23329D01*
X16832Y-23230D01*
X16832Y-23484D01*
X14668Y-25648D01*
X14668Y-23329D01*
X14668Y-22230D01*
X14668Y-21675D01*
X14668Y-20576D01*
X14668Y-20023D01*
X14668Y-18924D01*
X14668Y-18369D01*
X14668Y-17270D01*
X14668Y-15829D01*
X14668Y-14730D01*
X14668Y-14175D01*
X14668Y-13076D01*
X14668Y-12523D01*
X14668Y-11424D01*
X14668Y-10869D01*
X14668Y-9770D01*
X14630Y-9678D01*
X14559Y-9608D01*
X14467Y-9570D01*
X14368Y-9569D01*
X14030Y-9570D01*
X13968Y-9632D01*
X13968Y-10270D01*
X14605Y-10270D01*
X14668Y-10207D01*
X14668Y-9770D01*
X14668Y-10869D01*
X14668Y-10432D01*
X14605Y-10370D01*
X13968Y-10370D01*
X13968Y-11007D01*
X14030Y-11070D01*
X14368Y-11070D01*
X14467Y-11069D01*
X14559Y-11031D01*
X14630Y-10961D01*
X14668Y-10869D01*
X14668Y-11424D01*
X14630Y-11332D01*
X14559Y-11262D01*
X14467Y-11224D01*
X14368Y-11223D01*
X14030Y-11224D01*
X13968Y-11286D01*
X13968Y-11924D01*
X14605Y-11924D01*
X14668Y-11861D01*
X14668Y-11424D01*
X14668Y-12523D01*
X14668Y-12086D01*
X14605Y-12024D01*
X13968Y-12024D01*
X13968Y-12661D01*
X14030Y-12724D01*
X14368Y-12724D01*
X14467Y-12723D01*
X14559Y-12685D01*
X14630Y-12615D01*
X14668Y-12523D01*
X14668Y-13076D01*
X14630Y-12984D01*
X14559Y-12914D01*
X14467Y-12876D01*
X14368Y-12875D01*
X14030Y-12876D01*
X13968Y-12938D01*
X13968Y-13576D01*
X14605Y-13576D01*
X14668Y-13513D01*
X14668Y-13076D01*
X14668Y-14175D01*
X14668Y-13738D01*
X14605Y-13676D01*
X13968Y-13676D01*
X13968Y-14313D01*
X14030Y-14376D01*
X14368Y-14376D01*
X14467Y-14375D01*
X14559Y-14337D01*
X14630Y-14267D01*
X14668Y-14175D01*
X14668Y-14730D01*
X14630Y-14638D01*
X14559Y-14568D01*
X14467Y-14530D01*
X14368Y-14529D01*
X14030Y-14530D01*
X13968Y-14592D01*
X13968Y-15230D01*
X14605Y-15230D01*
X14668Y-15167D01*
X14668Y-14730D01*
X14668Y-15829D01*
X14668Y-15392D01*
X14605Y-15330D01*
X13968Y-15330D01*
X13968Y-15967D01*
X14030Y-16030D01*
X14368Y-16030D01*
X14467Y-16029D01*
X14559Y-15991D01*
X14630Y-15921D01*
X14668Y-15829D01*
X14668Y-17270D01*
X14630Y-17178D01*
X14559Y-17108D01*
X14467Y-17070D01*
X14368Y-17069D01*
X14030Y-17070D01*
X13968Y-17132D01*
X13968Y-17770D01*
X14605Y-17770D01*
X14668Y-17707D01*
X14668Y-17270D01*
X14668Y-18369D01*
X14668Y-17932D01*
X14605Y-17870D01*
X13968Y-17870D01*
X13968Y-18507D01*
X14030Y-18570D01*
X14368Y-18570D01*
X14467Y-18569D01*
X14559Y-18531D01*
X14630Y-18461D01*
X14668Y-18369D01*
X14668Y-18924D01*
X14630Y-18832D01*
X14559Y-18762D01*
X14467Y-18724D01*
X14368Y-18723D01*
X14030Y-18724D01*
X13968Y-18786D01*
X13968Y-19424D01*
X14605Y-19424D01*
X14668Y-19361D01*
X14668Y-18924D01*
X14668Y-20023D01*
X14668Y-19586D01*
X14605Y-19524D01*
X13968Y-19524D01*
X13968Y-20161D01*
X14030Y-20224D01*
X14368Y-20224D01*
X14467Y-20223D01*
X14559Y-20185D01*
X14630Y-20115D01*
X14668Y-20023D01*
X14668Y-20576D01*
X14630Y-20484D01*
X14559Y-20414D01*
X14467Y-20376D01*
X14368Y-20375D01*
X14030Y-20376D01*
X13968Y-20438D01*
X13968Y-21076D01*
X14605Y-21076D01*
X14668Y-21013D01*
X14668Y-20576D01*
X14668Y-21675D01*
X14668Y-21238D01*
X14605Y-21176D01*
X13968Y-21176D01*
X13968Y-21813D01*
X14030Y-21876D01*
X14368Y-21876D01*
X14467Y-21875D01*
X14559Y-21837D01*
X14630Y-21767D01*
X14668Y-21675D01*
X14668Y-22230D01*
X14630Y-22138D01*
X14559Y-22068D01*
X14467Y-22030D01*
X14368Y-22029D01*
X14030Y-22030D01*
X13968Y-22092D01*
X13968Y-22730D01*
X14605Y-22730D01*
X14668Y-22667D01*
X14668Y-22230D01*
X14668Y-23329D01*
X14668Y-22892D01*
X14605Y-22830D01*
X13968Y-22830D01*
X13968Y-23467D01*
X14030Y-23530D01*
X14368Y-23530D01*
X14467Y-23529D01*
X14559Y-23491D01*
X14630Y-23421D01*
X14668Y-23329D01*
X14668Y-25648D01*
X13868Y-26448D01*
X13868Y-23467D01*
X13868Y-22830D01*
X13868Y-22730D01*
X13868Y-22092D01*
X13868Y-21813D01*
X13868Y-21176D01*
X13868Y-21076D01*
X13868Y-20438D01*
X13868Y-20161D01*
X13868Y-19524D01*
X13868Y-19424D01*
X13868Y-18786D01*
X13868Y-18507D01*
X13868Y-17870D01*
X13868Y-17770D01*
X13868Y-17132D01*
X13868Y-15967D01*
X13868Y-15330D01*
X13868Y-15230D01*
X13868Y-14592D01*
X13868Y-14313D01*
X13868Y-13676D01*
X13868Y-13576D01*
X13868Y-12938D01*
X13868Y-12661D01*
X13868Y-12024D01*
X13868Y-11924D01*
X13868Y-11286D01*
X13868Y-11007D01*
X13868Y-10370D01*
X13868Y-10270D01*
X13868Y-9632D01*
X13805Y-9570D01*
X13467Y-9569D01*
X13368Y-9570D01*
X13276Y-9608D01*
X13205Y-9678D01*
X13167Y-9770D01*
X13168Y-10207D01*
X13230Y-10270D01*
X13868Y-10270D01*
X13868Y-10370D01*
X13230Y-10370D01*
X13168Y-10432D01*
X13167Y-10869D01*
X13205Y-10961D01*
X13276Y-11031D01*
X13368Y-11069D01*
X13467Y-11070D01*
X13805Y-11070D01*
X13868Y-11007D01*
X13868Y-11286D01*
X13805Y-11224D01*
X13467Y-11223D01*
X13368Y-11224D01*
X13276Y-11262D01*
X13205Y-11332D01*
X13167Y-11424D01*
X13168Y-11861D01*
X13230Y-11924D01*
X13868Y-11924D01*
X13868Y-12024D01*
X13230Y-12024D01*
X13168Y-12086D01*
X13167Y-12523D01*
X13205Y-12615D01*
X13276Y-12685D01*
X13368Y-12723D01*
X13467Y-12724D01*
X13805Y-12724D01*
X13868Y-12661D01*
X13868Y-12938D01*
X13805Y-12876D01*
X13467Y-12875D01*
X13368Y-12876D01*
X13276Y-12914D01*
X13205Y-12984D01*
X13167Y-13076D01*
X13168Y-13513D01*
X13230Y-13576D01*
X13868Y-13576D01*
X13868Y-13676D01*
X13230Y-13676D01*
X13168Y-13738D01*
X13167Y-14175D01*
X13205Y-14267D01*
X13276Y-14337D01*
X13368Y-14375D01*
X13467Y-14376D01*
X13805Y-14376D01*
X13868Y-14313D01*
X13868Y-14592D01*
X13805Y-14530D01*
X13467Y-14529D01*
X13368Y-14530D01*
X13276Y-14568D01*
X13205Y-14638D01*
X13167Y-14730D01*
X13168Y-15167D01*
X13230Y-15230D01*
X13868Y-15230D01*
X13868Y-15330D01*
X13230Y-15330D01*
X13168Y-15392D01*
X13167Y-15829D01*
X13205Y-15921D01*
X13276Y-15991D01*
X13368Y-16029D01*
X13467Y-16030D01*
X13805Y-16030D01*
X13868Y-15967D01*
X13868Y-17132D01*
X13805Y-17070D01*
X13467Y-17069D01*
X13368Y-17070D01*
X13276Y-17108D01*
X13205Y-17178D01*
X13167Y-17270D01*
X13168Y-17707D01*
X13230Y-17770D01*
X13868Y-17770D01*
X13868Y-17870D01*
X13230Y-17870D01*
X13168Y-17932D01*
X13167Y-18369D01*
X13205Y-18461D01*
X13276Y-18531D01*
X13368Y-18569D01*
X13467Y-18570D01*
X13805Y-18570D01*
X13868Y-18507D01*
X13868Y-18786D01*
X13805Y-18724D01*
X13467Y-18723D01*
X13368Y-18724D01*
X13276Y-18762D01*
X13205Y-18832D01*
X13167Y-18924D01*
X13168Y-19361D01*
X13230Y-19424D01*
X13868Y-19424D01*
X13868Y-19524D01*
X13230Y-19524D01*
X13168Y-19586D01*
X13167Y-20023D01*
X13205Y-20115D01*
X13276Y-20185D01*
X13368Y-20223D01*
X13467Y-20224D01*
X13805Y-20224D01*
X13868Y-20161D01*
X13868Y-20438D01*
X13805Y-20376D01*
X13467Y-20375D01*
X13368Y-20376D01*
X13276Y-20414D01*
X13205Y-20484D01*
X13167Y-20576D01*
X13168Y-21013D01*
X13230Y-21076D01*
X13868Y-21076D01*
X13868Y-21176D01*
X13230Y-21176D01*
X13168Y-21238D01*
X13167Y-21675D01*
X13205Y-21767D01*
X13276Y-21837D01*
X13368Y-21875D01*
X13467Y-21876D01*
X13805Y-21876D01*
X13868Y-21813D01*
X13868Y-22092D01*
X13805Y-22030D01*
X13467Y-22029D01*
X13368Y-22030D01*
X13276Y-22068D01*
X13205Y-22138D01*
X13167Y-22230D01*
X13168Y-22667D01*
X13230Y-22730D01*
X13868Y-22730D01*
X13868Y-22830D01*
X13230Y-22830D01*
X13168Y-22892D01*
X13167Y-23329D01*
X13205Y-23421D01*
X13276Y-23491D01*
X13368Y-23529D01*
X13467Y-23530D01*
X13805Y-23530D01*
X13868Y-23467D01*
X13868Y-26448D01*
X13639Y-26677D01*
X13639Y-25014D01*
X13496Y-24668D01*
X13232Y-24404D01*
X12887Y-24261D01*
X12514Y-24260D01*
X12168Y-24403D01*
X11904Y-24667D01*
X11884Y-24716D01*
X11884Y-22613D01*
X11884Y-17653D01*
X11884Y-15113D01*
X11884Y-10153D01*
X11756Y-9844D01*
X11520Y-9607D01*
X11211Y-9479D01*
X10876Y-9479D01*
X10567Y-9607D01*
X10331Y-9843D01*
X10202Y-10152D01*
X10202Y-10486D01*
X10330Y-10795D01*
X10566Y-11032D01*
X10875Y-11160D01*
X11209Y-11160D01*
X11518Y-11033D01*
X11755Y-10796D01*
X11883Y-10487D01*
X11884Y-10153D01*
X11884Y-15113D01*
X11756Y-14804D01*
X11520Y-14567D01*
X11211Y-14439D01*
X10876Y-14439D01*
X10567Y-14567D01*
X10331Y-14803D01*
X10202Y-15112D01*
X10202Y-15446D01*
X10330Y-15755D01*
X10566Y-15992D01*
X10875Y-16120D01*
X11209Y-16120D01*
X11518Y-15993D01*
X11755Y-15756D01*
X11883Y-15447D01*
X11884Y-15113D01*
X11884Y-17653D01*
X11756Y-17344D01*
X11520Y-17107D01*
X11211Y-16979D01*
X10876Y-16979D01*
X10567Y-17107D01*
X10331Y-17343D01*
X10202Y-17652D01*
X10202Y-17986D01*
X10330Y-18295D01*
X10566Y-18532D01*
X10875Y-18660D01*
X11209Y-18660D01*
X11518Y-18533D01*
X11755Y-18296D01*
X11883Y-17987D01*
X11884Y-17653D01*
X11884Y-22613D01*
X11756Y-22304D01*
X11520Y-22067D01*
X11211Y-21939D01*
X10876Y-21939D01*
X10567Y-22067D01*
X10331Y-22303D01*
X10202Y-22612D01*
X10202Y-22946D01*
X10330Y-23255D01*
X10566Y-23492D01*
X10875Y-23620D01*
X11209Y-23620D01*
X11518Y-23493D01*
X11755Y-23256D01*
X11883Y-22947D01*
X11884Y-22613D01*
X11884Y-24716D01*
X11761Y-25012D01*
X11760Y-25385D01*
X11903Y-25731D01*
X12167Y-25995D01*
X12512Y-26138D01*
X12885Y-26139D01*
X13231Y-25996D01*
X13495Y-25732D01*
X13638Y-25387D01*
X13639Y-25014D01*
X13639Y-26677D01*
X13599Y-26716D01*
X13519Y-26836D01*
X13491Y-26977D01*
X13491Y-28664D01*
X13232Y-28404D01*
X12887Y-28261D01*
X12514Y-28260D01*
X12168Y-28403D01*
X11904Y-28667D01*
X11761Y-29012D01*
X11760Y-29385D01*
X11903Y-29731D01*
X12167Y-29995D01*
X12512Y-30138D01*
X12885Y-30139D01*
X13231Y-29996D01*
X13491Y-29736D01*
X13491Y-31064D01*
X13232Y-30804D01*
X12887Y-30661D01*
X12514Y-30660D01*
X12168Y-30803D01*
X11904Y-31067D01*
X11761Y-31412D01*
X11760Y-31785D01*
X11903Y-32131D01*
X12167Y-32395D01*
X12512Y-32538D01*
X12885Y-32539D01*
X13231Y-32396D01*
X13491Y-32136D01*
X13491Y-34885D01*
X13487Y-34906D01*
X13515Y-35046D01*
X13595Y-35166D01*
X14539Y-36110D01*
X14539Y-36110D01*
X14659Y-36190D01*
X14799Y-36218D01*
X14799Y-36218D01*
X14800Y-36218D01*
X19800Y-36218D01*
X19940Y-36190D01*
X20060Y-36110D01*
X21460Y-34710D01*
X21540Y-34590D01*
X21568Y-34450D01*
X21568Y-32302D01*
X22219Y-31650D01*
X22220Y-31869D01*
X22282Y-31932D01*
X22920Y-31932D01*
X22920Y-31924D01*
X23020Y-31924D01*
X23020Y-31932D01*
X23657Y-31932D01*
X23720Y-31869D01*
X23720Y-31531D01*
X23719Y-31432D01*
X23681Y-31340D01*
X23611Y-31269D01*
X23607Y-31268D01*
X23750Y-31268D01*
X23890Y-31240D01*
X24010Y-31160D01*
X24602Y-30568D01*
X24853Y-30568D01*
X25145Y-30860D01*
X25265Y-30940D01*
X25406Y-30968D01*
X29025Y-30968D01*
X29165Y-30940D01*
X29285Y-30860D01*
X29502Y-30643D01*
X32362Y-30643D01*
X35953Y-30643D01*
X36090Y-30699D01*
X36259Y-30700D01*
X36415Y-30635D01*
X36535Y-30516D01*
X36599Y-30359D01*
X36600Y-30190D01*
X36535Y-30034D01*
X36469Y-29968D01*
X37800Y-29968D01*
X37940Y-29940D01*
X38060Y-29860D01*
X38291Y-29628D01*
X38291Y-29628D01*
X38291Y-29628D01*
X38371Y-29509D01*
X38399Y-29368D01*
X38399Y-28411D01*
X38461Y-28503D01*
X38639Y-28622D01*
X38850Y-28664D01*
X39060Y-28622D01*
X39238Y-28503D01*
X39350Y-28337D01*
X39461Y-28503D01*
X39639Y-28622D01*
X39850Y-28664D01*
X40060Y-28622D01*
X40238Y-28503D01*
X40350Y-28337D01*
X40461Y-28503D01*
X40639Y-28622D01*
X40850Y-28664D01*
X41060Y-28622D01*
X41238Y-28503D01*
X41350Y-28337D01*
X41461Y-28503D01*
X41639Y-28622D01*
X41850Y-28664D01*
X42060Y-28622D01*
X42238Y-28503D01*
X42350Y-28337D01*
X42461Y-28503D01*
X42639Y-28622D01*
X42850Y-28664D01*
X43060Y-28622D01*
X43238Y-28503D01*
X43350Y-28337D01*
X43461Y-28503D01*
X43639Y-28622D01*
X43850Y-28664D01*
X44060Y-28622D01*
X44238Y-28503D01*
X44350Y-28337D01*
X44461Y-28503D01*
X44639Y-28622D01*
X44850Y-28664D01*
X45060Y-28622D01*
X45238Y-28503D01*
X45350Y-28337D01*
X45461Y-28503D01*
X45639Y-28622D01*
X45850Y-28664D01*
X46060Y-28622D01*
X46238Y-28503D01*
X46358Y-28325D01*
X46400Y-28114D01*
X46400Y-27685D01*
X46358Y-27474D01*
X46238Y-27296D01*
X46060Y-27177D01*
X45850Y-27135D01*
X45639Y-27177D01*
X45461Y-27296D01*
X45350Y-27462D01*
X45238Y-27296D01*
X45060Y-27177D01*
X44850Y-27135D01*
X44639Y-27177D01*
X44461Y-27296D01*
X44350Y-27462D01*
X44238Y-27296D01*
X44060Y-27177D01*
X43850Y-27135D01*
X43639Y-27177D01*
X43461Y-27296D01*
X43350Y-27462D01*
X43238Y-27296D01*
X43060Y-27177D01*
X42850Y-27135D01*
X42639Y-27177D01*
X42461Y-27296D01*
X42350Y-27462D01*
X42238Y-27296D01*
X42060Y-27177D01*
X41850Y-27135D01*
X41639Y-27177D01*
X41461Y-27296D01*
X41350Y-27462D01*
X41238Y-27296D01*
X41060Y-27177D01*
X40850Y-27135D01*
X40639Y-27177D01*
X40461Y-27296D01*
X40350Y-27462D01*
X40238Y-27296D01*
X40060Y-27177D01*
X39850Y-27135D01*
X39639Y-27177D01*
X39461Y-27296D01*
X39350Y-27462D01*
X39238Y-27296D01*
X39060Y-27177D01*
X38850Y-27135D01*
X38639Y-27177D01*
X38461Y-27296D01*
X38399Y-27388D01*
X38399Y-27357D01*
X39706Y-26050D01*
X39709Y-26050D01*
X39865Y-25985D01*
X39985Y-25866D01*
X40049Y-25709D01*
X40049Y-25706D01*
X40393Y-25363D01*
X40393Y-25363D01*
X40393Y-25363D01*
X40458Y-25298D01*
X42520Y-25298D01*
X42660Y-25270D01*
X42780Y-25190D01*
X43515Y-24455D01*
X43549Y-24403D01*
X43553Y-24402D01*
X43624Y-24331D01*
X43629Y-24318D01*
X43635Y-24331D01*
X43663Y-24359D01*
X43614Y-24408D01*
X43550Y-24565D01*
X43549Y-24734D01*
X43614Y-24890D01*
X43733Y-25010D01*
X43890Y-25074D01*
X44059Y-25075D01*
X44215Y-25010D01*
X44335Y-24891D01*
X44399Y-24734D01*
X44400Y-24565D01*
X44335Y-24409D01*
X44315Y-24390D01*
X44374Y-24331D01*
X44412Y-24239D01*
X44412Y-24140D01*
X44412Y-24009D01*
X45645Y-22777D01*
X45645Y-22777D01*
X45710Y-22679D01*
X45733Y-22564D01*
X45733Y-22564D01*
X45733Y-17244D01*
X45710Y-17129D01*
X45645Y-17031D01*
X45645Y-17031D01*
X45146Y-16533D01*
X45146Y-16071D01*
X45158Y-16059D01*
X45196Y-15967D01*
X45196Y-15868D01*
X45196Y-15418D01*
X45158Y-15326D01*
X45088Y-15256D01*
X44996Y-15217D01*
X44896Y-15217D01*
X44696Y-15217D01*
X44605Y-15255D01*
X44596Y-15264D01*
X44588Y-15256D01*
X44496Y-15217D01*
X44396Y-15217D01*
X44196Y-15217D01*
X44146Y-15238D01*
X44146Y-14427D01*
X44150Y-14423D01*
X44150Y-14472D01*
X44278Y-14781D01*
X44514Y-15018D01*
X44823Y-15146D01*
X45157Y-15146D01*
X45466Y-15018D01*
X45703Y-14782D01*
X45831Y-14473D01*
X45831Y-14139D01*
X45703Y-13830D01*
X45467Y-13593D01*
X45158Y-13465D01*
X44824Y-13465D01*
X44788Y-13480D01*
X44788Y-9776D01*
X45145Y-9924D01*
X45552Y-9925D01*
X45929Y-9769D01*
X46218Y-9481D01*
X46357Y-9147D01*
X46383Y-9211D01*
X46538Y-9365D01*
X46619Y-9399D01*
X46538Y-9433D01*
X46384Y-9588D01*
X46300Y-9790D01*
X46299Y-10008D01*
X46383Y-10211D01*
X46538Y-10365D01*
X46619Y-10399D01*
X46538Y-10433D01*
X46384Y-10588D01*
X46300Y-10790D01*
X46299Y-11008D01*
X46383Y-11211D01*
X46538Y-11365D01*
X46619Y-11399D01*
X46538Y-11433D01*
X46384Y-11588D01*
X46300Y-11790D01*
X46299Y-12008D01*
X46383Y-12211D01*
X46538Y-12365D01*
X46619Y-12399D01*
X46538Y-12433D01*
X46384Y-12588D01*
X46300Y-12790D01*
X46299Y-13008D01*
X46383Y-13211D01*
X46538Y-13365D01*
X46619Y-13399D01*
X46538Y-13433D01*
X46384Y-13588D01*
X46300Y-13790D01*
X46299Y-14008D01*
X46383Y-14211D01*
X46538Y-14365D01*
X46619Y-14399D01*
X46538Y-14433D01*
X46384Y-14588D01*
X46300Y-14790D01*
X46299Y-15008D01*
X46383Y-15211D01*
X46538Y-15365D01*
X46619Y-15399D01*
X46538Y-15433D01*
X46384Y-15588D01*
X46300Y-15790D01*
X46299Y-16008D01*
X46383Y-16211D01*
X46538Y-16365D01*
X46619Y-16399D01*
X46538Y-16433D01*
X46384Y-16588D01*
X46300Y-16790D01*
X46299Y-17008D01*
X46383Y-17211D01*
X46538Y-17365D01*
X46619Y-17399D01*
X46538Y-17433D01*
X46384Y-17588D01*
X46300Y-17790D01*
X46299Y-18008D01*
X46383Y-18211D01*
X46538Y-18365D01*
X46619Y-18399D01*
X46538Y-18433D01*
X46384Y-18588D01*
X46300Y-18790D01*
X46299Y-19008D01*
X46383Y-19211D01*
X46538Y-19365D01*
X46619Y-19399D01*
X46538Y-19433D01*
X46384Y-19588D01*
X46300Y-19790D01*
X46299Y-20008D01*
X46383Y-20211D01*
X46538Y-20365D01*
X46619Y-20399D01*
X46538Y-20433D01*
X46384Y-20588D01*
X46300Y-20790D01*
X46299Y-21008D01*
X46383Y-21211D01*
X46538Y-21365D01*
X46619Y-21399D01*
X46538Y-21433D01*
X46384Y-21588D01*
X46300Y-21790D01*
X46299Y-22008D01*
X46383Y-22211D01*
X46538Y-22365D01*
X46619Y-22399D01*
X46538Y-22433D01*
X46384Y-22588D01*
X46300Y-22790D01*
X46299Y-23008D01*
X46383Y-23211D01*
X46538Y-23365D01*
X46619Y-23399D01*
X46538Y-23433D01*
X46384Y-23588D01*
X46300Y-23790D01*
X46299Y-24008D01*
X46383Y-24211D01*
X46538Y-24365D01*
X46619Y-24399D01*
X46538Y-24433D01*
X46384Y-24588D01*
X46300Y-24790D01*
X46299Y-25008D01*
X46383Y-25211D01*
X46538Y-25365D01*
X46613Y-25397D01*
X46562Y-25418D01*
X46534Y-25514D01*
X46850Y-25829D01*
X47165Y-25514D01*
X47137Y-25418D01*
X47082Y-25399D01*
X47161Y-25366D01*
X47315Y-25211D01*
X47349Y-25130D01*
X47383Y-25211D01*
X47538Y-25365D01*
X47613Y-25397D01*
X47562Y-25418D01*
X47534Y-25514D01*
X47850Y-25829D01*
X48165Y-25514D01*
X48137Y-25418D01*
X48082Y-25399D01*
X48161Y-25366D01*
X48315Y-25211D01*
X48399Y-25009D01*
X48400Y-24791D01*
X48316Y-24588D01*
X48161Y-24434D01*
X48080Y-24400D01*
X48161Y-24366D01*
X48315Y-24211D01*
X48399Y-24009D01*
X48400Y-23791D01*
X48316Y-23588D01*
X48161Y-23434D01*
X48080Y-23400D01*
X48161Y-23366D01*
X48315Y-23211D01*
X48399Y-23009D01*
X48400Y-22791D01*
X48316Y-22588D01*
X48161Y-22434D01*
X48080Y-22400D01*
X48161Y-22366D01*
X48315Y-22211D01*
X48399Y-22009D01*
X48400Y-21791D01*
X48316Y-21588D01*
X48161Y-21434D01*
X48080Y-21400D01*
X48161Y-21366D01*
X48315Y-21211D01*
X48399Y-21009D01*
X48400Y-20791D01*
X48316Y-20588D01*
X48161Y-20434D01*
X48080Y-20400D01*
X48161Y-20366D01*
X48315Y-20211D01*
X48399Y-20009D01*
X48400Y-19791D01*
X48316Y-19588D01*
X48161Y-19434D01*
X48080Y-19400D01*
X48161Y-19366D01*
X48315Y-19211D01*
X48399Y-19009D01*
X48400Y-18791D01*
X48316Y-18588D01*
X48161Y-18434D01*
X48080Y-18400D01*
X48161Y-18366D01*
X48315Y-18211D01*
X48399Y-18009D01*
X48400Y-17791D01*
X48316Y-17588D01*
X48161Y-17434D01*
X48080Y-17400D01*
X48161Y-17366D01*
X48315Y-17211D01*
X48399Y-17009D01*
X48400Y-16791D01*
X48316Y-16588D01*
X48161Y-16434D01*
X48080Y-16400D01*
X48161Y-16366D01*
X48315Y-16211D01*
X48399Y-16009D01*
X48400Y-15791D01*
X48316Y-15588D01*
X48161Y-15434D01*
X48080Y-15400D01*
X48161Y-15366D01*
X48315Y-15211D01*
X48399Y-15009D01*
X48400Y-14791D01*
X48316Y-14588D01*
X48161Y-14434D01*
X48080Y-14400D01*
X48161Y-14366D01*
X48315Y-14211D01*
X48399Y-14009D01*
X48400Y-13791D01*
X48316Y-13588D01*
X48161Y-13434D01*
X48080Y-13400D01*
X48161Y-13366D01*
X48315Y-13211D01*
X48399Y-13009D01*
X48400Y-12791D01*
X48316Y-12588D01*
X48161Y-12434D01*
X48080Y-12400D01*
X48161Y-12366D01*
X48315Y-12211D01*
X48399Y-12009D01*
X48400Y-11791D01*
X48316Y-11588D01*
X48161Y-11434D01*
X48080Y-11400D01*
X48161Y-11366D01*
X48315Y-11211D01*
X48399Y-11009D01*
X48400Y-10791D01*
X48316Y-10588D01*
X48161Y-10434D01*
X48080Y-10400D01*
X48161Y-10366D01*
X48315Y-10211D01*
X48399Y-10009D01*
X48400Y-9791D01*
X48316Y-9588D01*
X48161Y-9434D01*
X48080Y-9400D01*
X48161Y-9366D01*
X48315Y-9211D01*
X48399Y-9009D01*
X48400Y-8791D01*
X48316Y-8588D01*
X48161Y-8434D01*
X47959Y-8350D01*
X47741Y-8349D01*
X47538Y-8433D01*
X47384Y-8588D01*
X47350Y-8669D01*
X47316Y-8588D01*
X47161Y-8434D01*
X46959Y-8350D01*
X46741Y-8349D01*
X46538Y-8433D01*
X46384Y-8588D01*
X46357Y-8653D01*
X46219Y-8320D01*
X46124Y-8225D01*
X49125Y-8225D01*
X49125Y-36265D01*
M02*
